
<svg version="1.1" xmlns="http://www.w3.org/2000/svg" width="224" height="224" viewBox="0 0 224 224" preserveAspectRatio="xMidYMid meet">
<path d="M0 0 C73.92 0 147.84 0 224 0 C224 73.92 224 147.84 224 224 C150.08 224 76.16 224 0 224 C0 150.08 0 76.16 0 0 Z " fill="#EE2D24" transform="translate(0,0)" />
<path d="M0 0 C2.5 -0.125 2.5 -0.125 5 0 C5.33 0.33 5.66 0.66 6 1 C6.09311889 2.50418739 6.11746028 4.01271356 6.11352539 5.51977539 C6.11344986 6.48069595 6.11337433 7.44161652 6.11329651 8.43165588 C6.10813522 9.476436 6.10297394 10.52121613 6.09765625 11.59765625 C6.0962413 12.66165146 6.09482635 13.72564667 6.09336853 14.82188416 C6.08775064 18.23545083 6.07519511 21.648953 6.0625 25.0625 C6.05748731 27.37044176 6.052924 29.67838455 6.04882812 31.98632812 C6.0377754 37.65757426 6.02101987 43.32878253 6 49 C3.525 49.495 3.525 49.495 1 50 C0.67 49.01 0.34 48.02 0 47 C-1.03125 47.495 -2.0625 47.99 -3.125 48.5 C-6.59879213 49.96080997 -9.19609703 50.56653874 -13 50 C-16.86362629 47.87879341 -19.70765925 45.78236223 -22 42 C-24.44602715 36.6532938 -24.81182833 31.80457259 -24 26 C-22.71710457 22.98519573 -21.09916189 20.507168 -19 18 C-18.30970703 17.17435547 -18.30970703 17.17435547 -17.60546875 16.33203125 C-15.58416801 14.65499098 -14.22185977 14.44895858 -11.625 14.1875 C-10.49964844 14.05408203 -10.49964844 14.05408203 -9.3515625 13.91796875 C-6.55029495 14.01568739 -4.53281251 14.84099215 -2 16 C-1.90912109 14.39318359 -1.90912109 14.39318359 -1.81640625 12.75390625 C-1.73201463 11.35675609 -1.64736594 9.95962143 -1.5625 8.5625 C-1.52318359 7.85544922 -1.48386719 7.14839844 -1.44335938 6.41992188 C-1.33082673 4.61074317 -1.16900248 2.80477958 -1 1 C-0.67 0.67 -0.34 0.34 0 0 Z " fill="#FDF7F6" transform="translate(78,80)" />
<path d="M0 0 C3.9299079 1.81380365 6.34695419 4.12351032 8.875 7.5625 C11.30364652 11.78315754 11.66241901 15.49884427 11.421875 20.31640625 C10.77685801 24.41943096 9.44957281 27.64961655 7 31 C4.29119745 33.57666584 2.53685217 34.82104928 -1 36 C-5.02086719 36.38662185 -8.08902306 36.24834646 -11.6875 34.4375 C-15.54634484 32.01813436 -17.04904946 29.0519742 -19 25 C-19.33 24.34 -19.66 23.68 -20 23 C-20.57700815 17.65157829 -20.13422516 12.76852538 -18.05859375 7.79296875 C-13.93074963 0.80152797 -7.60257777 -0.88611126 0 0 Z " fill="#FCF4F3" transform="translate(201,94)" />
<path d="M0 0 C2.4375 -0.375 2.4375 -0.375 5 0 C8.32096387 3.44916696 9.71942838 7.91289766 11.390625 12.30859375 C11.69949646 13.11232925 12.00836792 13.91606476 12.32659912 14.74415588 C12.97537401 16.43987175 13.62066776 18.13692307 14.26269531 19.83520508 C15.24722515 22.43018616 16.25191788 25.01675388 17.2578125 27.60351562 C17.88666648 29.25473289 18.51431184 30.90641107 19.140625 32.55859375 C19.44260803 33.32956894 19.74459106 34.10054413 20.0557251 34.8948822 C21.30601236 38.25511645 22.06232866 40.41266135 21.67871094 44.02758789 C21.45473633 44.67848389 21.23076172 45.32937988 21 46 C19.02 46.495 19.02 46.495 17 47 C14.33359784 43.81257119 12.98590732 40.70933418 11.58984375 36.80859375 C11.15736328 35.61685547 10.72488281 34.42511719 10.27929688 33.19726562 C9.61510742 31.33618164 9.61510742 31.33618164 8.9375 29.4375 C8.05570631 26.97602414 7.16779163 24.51697525 6.27734375 22.05859375 C5.88796631 20.96861084 5.49858887 19.87862793 5.09741211 18.75561523 C4.05188223 15.85304146 4.05188223 15.85304146 2 13 C0.35 17.95 -1.3 22.9 -3 28 C-0.69 28 1.62 28 4 28 C4.66 28.33 5.32 28.66 6 29 C6.042721 30.66611905 6.04063832 32.33382885 6 34 C5.67 34.33 5.34 34.66 5 35 C3.15108054 35.23363881 1.29511969 35.41303635 -0.5625 35.5625 C-1.57441406 35.64628906 -2.58632813 35.73007813 -3.62890625 35.81640625 C-4.80259766 35.90728516 -4.80259766 35.90728516 -6 36 C-6.31453125 36.71027344 -6.6290625 37.42054687 -6.953125 38.15234375 C-7.38109375 39.07144531 -7.8090625 39.99054688 -8.25 40.9375 C-8.66765625 41.85402344 -9.0853125 42.77054688 -9.515625 43.71484375 C-10.00546875 44.46894531 -10.4953125 45.22304687 -11 46 C-13.171875 46.81640625 -13.171875 46.81640625 -15 47 C-15.66 46.34 -16.32 45.68 -17 45 C-16.34 42.03 -15.68 39.06 -15 36 C-17.64 35.34 -20.28 34.68 -23 34 C-22.125 29.125 -22.125 29.125 -21 28 C-19.31391034 27.92794489 -17.62499341 27.91613932 -15.9375 27.9375 C-15.01839844 27.94652344 -14.09929688 27.95554687 -13.15234375 27.96484375 C-12.44207031 27.97644531 -11.73179688 27.98804687 -11 28 C-10.87165771 27.2783667 -10.74331543 26.5567334 -10.61108398 25.81323242 C-9.59561181 21.13832796 -7.77062561 16.77176597 -6.0625 12.3125 C-5.70220703 11.35021484 -5.34191406 10.38792969 -4.97070312 9.39648438 C-4.62072266 8.47802734 -4.27074219 7.55957031 -3.91015625 6.61328125 C-3.59183838 5.77579346 -3.27352051 4.93830566 -2.94555664 4.07543945 C-2 2 -2 2 0 0 Z " fill="#FCF5F4" transform="translate(31,83)" />
<path d="M0 0 C3.65013794 1.33370425 5.61554554 2.58350767 8.25 5.4375 C10.79626905 9.1659654 11.93287959 11.02675401 12.25 15.625 C12.1675 16.73875 12.085 17.8525 12 19 C11.34 19.66 10.68 20.32 10 21 C7.84521484 21.22705078 7.84521484 21.22705078 5.2109375 21.1953125 C4.26992187 21.18886719 3.32890625 21.18242188 2.359375 21.17578125 C1.37453125 21.15902344 0.3896875 21.14226562 -0.625 21.125 C-1.61757812 21.11597656 -2.61015625 21.10695313 -3.6328125 21.09765625 C-6.08878134 21.07404116 -8.54427168 21.04110799 -11 21 C-10.20450304 23.44816596 -10.20450304 23.44816596 -9 26 C-6.30169454 28.18633198 -6.30169454 28.18633198 -3.84375 28.046875 C-2.68359375 27.89992188 -2.68359375 27.89992188 -1.5 27.75 C-0.7265625 27.66234375 0.046875 27.5746875 0.84375 27.484375 C3.2798442 27.07260497 3.2798442 27.07260497 6 25 C8.6875 25.375 8.6875 25.375 11 26 C10.75 28.3125 10.75 28.3125 10 31 C7.12330945 33.6782981 3.77955702 35.75086202 -0.1484375 36.30078125 C-5.18512597 36.32729014 -8.69776916 35.90150452 -13 33 C-15.94999225 29.88611929 -17.61275729 27.0318586 -19 23 C-19.6488 18.43108211 -19.77263885 13.99626003 -18.08984375 9.6484375 C-13.89341374 2.44299176 -8.42444505 -1.38160899 0 0 Z " fill="#FCF6F4" transform="translate(108,94)" />
<path d="M0 0 C3.0625 1.5 3.0625 1.5 5 3 C4.67 4.65 4.34 6.3 4 8 C3.16855469 7.96519531 2.33710938 7.93039063 1.48046875 7.89453125 C0.39378906 7.86746094 -0.69289062 7.84039062 -1.8125 7.8125 C-2.89144531 7.77769531 -3.97039062 7.74289063 -5.08203125 7.70703125 C-7.99088795 7.74236174 -7.99088795 7.74236174 -9.82421875 9.38671875 C-11.82092923 12.12639127 -12.18247973 13.96462014 -12.25 17.3125 C-12.22395034 20.547868 -11.99694291 22.00638001 -10.5625 25 C-9.1539966 26.88663383 -9.1539966 26.88663383 -8 28 C-4.16680771 28.17423601 -0.73164314 27.87803368 3 27 C3.66 27.66 4.32 28.32 5 29 C4.875 30.8125 4.875 30.8125 4 33 C0.85296508 35.09802328 -1.6351542 35.94594877 -5.375 36.5 C-10.19963971 35.83453245 -13.3711041 34.23530633 -17 31 C-19.56272502 27.76249584 -20.75418257 24.6106163 -21.375 20.54296875 C-21.63224953 15.30954865 -20.80822554 11.25047568 -18.2109375 6.69140625 C-16.46001536 4.24576339 -14.52179028 2.61653223 -12 1 C-7.95754797 -0.34748401 -4.22986813 -0.44446951 0 0 Z " fill="#FCF2F2" transform="translate(173,94)" />
<path d="M0 0 C3 1 3 1 5 2 C5.33 3.65 5.66 5.3 6 7 C5.67 7.33 5.34 7.66 5 8 C3.06159581 7.94134934 1.12405232 7.85303301 -0.8125 7.75 C-4.03802296 7.6873748 -4.03802296 7.6873748 -7 8 C-9.98880188 9.73593138 -9.98880188 9.73593138 -11 13 C-11.65102076 16.84951404 -11.79081213 20.32975025 -10.09375 23.9140625 C-8.91860741 25.74548585 -8.91860741 25.74548585 -7 28 C-3.16774573 28.08912219 0.26562152 27.87867729 4 27 C4.66 27.66 5.32 28.32 6 29 C5.8125 30.8125 5.8125 30.8125 5 33 C1.99319086 35.551232 0.00897602 35.99900266 -3.9375 36.4375 C-7.0900378 36.30688638 -8.31000713 35.83903476 -11.25 34.3125 C-14.90758347 31.23680481 -17.47775149 28.56674553 -19 24 C-20.00087162 12.61865981 -20.00087162 12.61865981 -18.09375 7.62890625 C-16.13753642 4.71339563 -14.08427405 3.05805546 -11.1875 1.0625 C-7.0881178 -0.30396073 -4.32347477 -0.34313292 0 0 Z " fill="#FCF5F4" transform="translate(143,94)" />
<path d="M0 0 C3.0625 0.625 3.0625 0.625 5.9375 2.375 C8.24677299 5.90682928 8.50433548 7.4936224 8.6875 11.625 C8.50433548 15.7563776 8.24677299 17.34317072 5.9375 20.875 C3.0625 22.625 3.0625 22.625 -0.0625 23.125 C-2.9375 22.625 -2.9375 22.625 -4.75 21.3125 C-7.00381316 18.10971288 -7.15108613 15.05037515 -7.25 11.25 C-7.20575176 7.53806422 -7.02810804 5.80273116 -5.3125 2.4375 C-2.9375 0.625 -2.9375 0.625 0 0 Z " fill="#ED2E25" transform="translate(68.9375,100.375)" />
<path d="M0 0 C3.5 0.625 3.5 0.625 5.9375 2.375 C8.3506731 7.39440005 8.35871405 12.16387991 7.5 17.625 C5.4375 20.9375 5.4375 20.9375 2.5 22.625 C-1.125 22.75 -1.125 22.75 -4.5 21.625 C-6.4375 19.75 -6.4375 19.75 -7.5 16.625 C-8.12064924 11.45809508 -8.25412606 7.16341716 -5.9375 2.4375 C-3.5 0.625 -3.5 0.625 0 0 Z " fill="#ED2D24" transform="translate(196.5,100.375)" />
<path d="M0 0 C3.06975784 3.4928623 4.32350282 7.39015404 5.6875 11.75 C5.91244141 12.44738281 6.13738281 13.14476563 6.36914062 13.86328125 C6.91963366 15.57332344 7.46076237 17.28637529 8 19 C6.02 19.99 6.02 19.99 4 21 C4 19.68 4 18.36 4 17 C1.03 16.67 -1.94 16.34 -5 16 C-4.49228528 10.03435204 -2.61407872 5.36190101 0 0 Z " fill="#ED352C" transform="translate(33,95)" />
<path d="M0 0 C3.5625 0.375 3.5625 0.375 6 2.125 C7.5625 4.375 7.5625 4.375 7.5625 8.375 C2.6125 8.375 -2.3375 8.375 -7.4375 8.375 C-7.1075 6.395 -6.7775 4.415 -6.4375 2.375 C-3.4375 0.375 -3.4375 0.375 0 0 Z " fill="#ED3127" transform="translate(104.4375,100.625)" />
<path d="M0 0 C1.125 2.75 1.125 2.75 2 6 C1.125 8.375 1.125 8.375 0 10 C-4.42857143 4.85714286 -4.42857143 4.85714286 -5 1 C-2 0 -2 0 0 0 Z " fill="#ED342C" transform="translate(55,117)" />
<path d="M0 0 C2.97 0 5.94 0 9 0 C9 0.66 9 1.32 9 2 C7.3125 2.625 7.3125 2.625 5 3 C2.25 2.0625 2.25 2.0625 0 1 C0 0.67 0 0.34 0 0 Z " fill="#ED2921" transform="translate(109,115)" />
</svg>
