
<svg version="1.1" xmlns="http://www.w3.org/2000/svg" width="3717" height="2333" viewBox="0 0 3717 2333" preserveAspectRatio="xMidYMid meet">
<path d="M0 0 C3.91819241 1.9590962 5.89540711 3.67528387 8.921875 6.76171875 C9.61739471 7.46504082 9.61739471 7.46504082 10.32696533 8.18257141 C11.80617025 9.67951598 13.27852701 11.18295749 14.75 12.6875 C16.67879307 14.65321238 18.61085351 16.61562493 20.546875 18.57421875 C21.25511414 19.29084183 21.25511414 19.29084183 21.97766113 20.02194214 C25.21130804 23.26948219 28.56892382 26.30232093 32.05175781 29.27661133 C36.69272141 33.38194492 40.94707731 37.9120445 45.2890625 42.328125 C48.76640264 45.841314 52.25002899 49.27725264 56 52.5 C61.39677457 57.13802012 66.30354364 62.25752903 71.2890625 67.328125 C74.76640264 70.841314 78.25002899 74.27725264 82 77.5 C87.39677457 82.13802012 92.30354364 87.25752903 97.2890625 92.328125 C100.76640264 95.841314 104.25002899 99.27725264 108 102.5 C113.39677457 107.13802012 118.30354364 112.25752903 123.2890625 117.328125 C126.76640264 120.841314 130.25002899 124.27725264 134 127.5 C139.39677457 132.13802012 144.30354364 137.25752903 149.2890625 142.328125 C152.76640264 145.841314 156.25002899 149.27725264 160 152.5 C165.39677457 157.13802012 170.30354364 162.25752903 175.2890625 167.328125 C179.52362246 171.60634021 183.81536589 175.66976484 188.46875 179.4921875 C190 181 190 181 191 184 C127.97 184 64.94 184 0 184 C0 123.28 0 62.56 0 0 Z " fill="#525D94" transform="translate(896,974)" />
<path d="M0 0 C237.93 0 475.86 0 721 0 C721 5.94 721 11.88 721 18 C483.07 18 245.14 18 0 18 C0 12.06 0 6.12 0 0 Z " fill="#C73E4B" transform="translate(1538,1205)" />
<path d="M0 0 C60.8145 0 60.8145 0 74.75 8.8125 C83.18692773 14.873252 88.17721687 21.24416906 92 31 C94.72489154 39.42181593 96.68589585 48.13964542 97 57 C97.0515625 58.13050781 97.103125 59.26101563 97.15625 60.42578125 C97.61422287 79.41257331 95.11707129 98.38676164 84.7109375 114.65625 C78.63913874 122.97378255 71.61773568 128.29151785 62 132 C55.09294305 134.19427246 48.53186713 134.3842012 41.3125 134.375 C39.53903198 134.3747583 39.53903198 134.3747583 37.72973633 134.37451172 C24.69929618 134.20791569 12.34970125 132.11656708 0 128 C0 85.76 0 43.52 0 0 Z M16 13 C16 47.32 16 81.64 16 117 C29.15618439 120.2890461 43.6754975 123.68688762 57 119 C63.28842208 116.09674719 68.12919238 111.72124248 72 106 C80.8197464 88.87382577 81.77234339 68.30692411 79.5390625 49.43359375 C78.15025523 40.08251142 75.39986446 31.11461038 69.1484375 23.84765625 C63.17599262 18.22023309 56.49764562 15.30242117 48.5 13.75 C37.71756052 12.67175605 26.83621756 13 16 13 Z " fill="#525D94" transform="translate(1523,1013)" />
<path d="M0 0 C11.22 0 22.44 0 34 0 C34.78648926 3.12090088 35.57297852 6.24180176 36.38330078 9.45727539 C39.00473594 19.85891056 41.62722731 30.26027923 44.25021553 40.66152287 C45.83788046 46.95741023 47.42520792 53.25338225 49.01171875 59.54956055 C50.54758593 65.64470043 52.08439882 71.73960119 53.62182236 77.83434868 C54.20332246 80.14023066 54.78450219 82.44619346 55.36532974 84.75224495 C56.18943768 88.02393947 57.01452384 91.29538464 57.84033203 94.56665039 C58.10132753 95.60075578 58.36232304 96.63486116 58.63122749 97.70030308 C60.7659269 106.13193513 62.96067395 114.5474325 65.1972065 122.95263004 C65.43432287 123.85110377 65.67143925 124.7495775 65.91574097 125.67527771 C66.12578703 126.46510764 66.33583309 127.25493757 66.55224419 128.06870174 C67 130 67 130 67 132 C61.06 132 55.12 132 49 132 C47.99881203 127.94416711 47.00048167 123.88784427 46.00927734 119.82958984 C45.67141344 118.44995189 45.33191099 117.07071411 44.99072266 115.69189453 C44.49988814 113.70709142 44.01501256 111.72091201 43.53125 109.734375 C43.23798828 108.54038086 42.94472656 107.34638672 42.64257812 106.11621094 C42 103 42 103 42 99 C24.51 99.33 7.02 99.66 -11 100 C-13.5915636 110.15613879 -13.5915636 110.15613879 -16.17553711 120.31420898 C-16.4978833 121.57048096 -16.82022949 122.82675293 -17.15234375 124.12109375 C-17.40377136 125.11743835 -17.40377136 125.11743835 -17.66027832 126.13391113 C-18.8859282 130.8859282 -18.8859282 130.8859282 -20 132 C-22.53049402 132.07313567 -25.03304837 132.09247527 -27.5625 132.0625 C-28.27341797 132.05798828 -28.98433594 132.05347656 -29.71679688 132.04882812 C-31.47790013 132.03700864 -33.23896036 132.01907263 -35 132 C-34.41358567 127.43649649 -33.59219858 123.08952649 -32.38037109 118.65234375 C-32.04795914 117.42707977 -31.71554718 116.2018158 -31.37306213 114.93942261 C-31.0065999 113.60542661 -30.64005582 112.2714531 -30.2734375 110.9375 C-29.88907414 109.52688387 -29.50508555 108.11616558 -29.1214447 106.70535278 C-28.09084074 102.91943464 -27.05511243 99.13493602 -26.01840591 95.35068512 C-24.94307335 91.42195492 -23.87251776 87.49192365 -22.80151367 83.56201172 C-21.05656549 77.16141675 -19.30890463 70.76156872 -17.55908203 64.36230469 C-15.16875606 55.62043212 -12.78449801 46.87691489 -10.40234375 38.1328125 C-6.93880731 25.42080519 -3.47062811 12.71007304 0 0 Z M11 14 C8.93453871 21.53920092 6.87187275 29.0791628 4.81103516 36.61962891 C4.11165729 39.17812268 3.41128386 41.73633779 2.71044922 44.29443359 C1.69593384 47.99792127 0.68370791 51.70202866 -0.328125 55.40625 C-0.63558655 56.52672729 -0.9430481 57.64720459 -1.25982666 58.80163574 C-3.6348159 67.50913238 -5.80945134 76.23780534 -8 85 C7.18 85 22.36 85 38 85 C36.47027216 75.58786967 36.47027216 75.58786967 34.50366211 66.3293457 C34.08829445 64.59374138 34.08829445 64.59374138 33.66453552 62.82307434 C33.2253756 61.01766426 33.2253756 61.01766426 32.77734375 59.17578125 C32.47180069 57.90776169 32.16625763 56.63974213 31.85145569 55.33329773 C31.21121317 52.67799663 30.56803615 50.02342986 29.92260742 47.36938477 C29.0945008 43.96327825 28.27353526 40.55549637 27.45462704 37.14716816 C26.6699332 33.88500678 25.87969212 30.62419851 25.08984375 27.36328125 C24.79504623 26.13740799 24.50024872 24.91153473 24.19651794 23.64851379 C23.92275833 22.52611801 23.64899872 21.40372223 23.36694336 20.24731445 C23.12648788 19.25536575 22.88603241 18.26341705 22.63829041 17.2414093 C22.21009973 15.04796488 22.21009973 15.04796488 21 14 C19.31391034 13.92794489 17.62499341 13.91613932 15.9375 13.9375 C15.01839844 13.94652344 14.09929687 13.95554687 13.15234375 13.96484375 C12.44207031 13.97644531 11.73179688 13.98804688 11 14 Z " fill="#525D94" transform="translate(1184,1013)" />
<path d="M0 0 C55.04166667 0 55.04166667 0 67 8 C73.82463175 12.91549039 78.06632588 18.09880204 81 26 C84.12197139 35.61238558 83.56980893 45.04366316 81.08984375 54.7578125 C78.44991887 62.61135247 74.29254003 68.37170472 67.75 73.4375 C58.87026736 79.40624591 49.58929818 82.14293318 38.94921875 82.09765625 C37.14070435 82.09390991 37.14070435 82.09390991 35.2956543 82.09008789 C33.01461792 82.07643188 33.01461792 82.07643188 30.6875 82.0625 C23.4171875 82.0315625 23.4171875 82.0315625 16 82 C16 98.5 16 115 16 132 C10.72 132 5.44 132 0 132 C0 88.44 0 44.88 0 0 Z M16 14 C16 32.15 16 50.3 16 69 C38.16469275 70.22179624 38.16469275 70.22179624 57.4375 62.875 C62.01178138 57.74287943 64.93465022 51.80519351 66 45 C66.82740765 37.81104828 65.43626954 31.37201802 62 25 C57.85533341 20.05517001 53.05719195 17.05715953 47 15 C36.86206245 12.97241249 26.33870828 14 16 14 Z " fill="#525D94" transform="translate(2319,1013)" />
<path d="M0 0 C4.95 0 9.9 0 15 0 C15 15.51 15 31.02 15 47 C17.97 45.02 20.94 43.04 24 41 C32.21393745 37.44471364 40.00658273 36.03516611 48.86328125 37.4609375 C55.88564423 38.97783929 61.63500676 41.13023691 67 46 C73.87691605 53.53186044 76.80818458 62.3576154 78.5859375 72.265625 C80.4519941 89.09534301 79.50571264 105.17434982 71.59765625 120.37890625 C67.32263294 127.39245304 62.18652154 131.22002446 55.046875 135.046875 C47.41941441 138.22998847 38.08933728 137.98401101 30 137 C22.94624743 135.15095806 17.21765023 132.0727155 12 127 C11.01 129.64 10.02 132.28 9 135 C6.03 135 3.06 135 0 135 C0 90.45 0 45.9 0 0 Z M23 54 C21.95283813 54.5485968 21.95283813 54.5485968 20.88452148 55.10827637 C18.51269693 56.55332366 16.79954939 57.87333 15 60 C13.8119393 64.13012681 13.87746545 68.13080407 13.9375 72.40625 C13.92984619 73.60431274 13.92219238 74.80237549 13.91430664 76.03674316 C13.90887242 78.56505706 13.92356781 81.09348376 13.95703125 83.62158203 C13.99987321 87.4885557 13.95743255 91.34810077 13.90625 95.21484375 C13.91153665 97.67449554 13.92178683 100.13414272 13.9375 102.59375 C13.92130615 103.74701782 13.9051123 104.90028564 13.88842773 106.08850098 C13.96228929 109.25569881 14.12421158 111.95445782 15 115 C17.31683147 117.74151203 19.84135781 119.34998202 23 121 C23.73089844 121.42164429 24.46179687 121.84328857 25.21484375 122.27770996 C30.59013025 125.26771308 35.84117613 125.6014946 41.9140625 125.375 C46.33065344 124.83830034 49.53074783 123.8118368 53 121 C58.56212435 115.37438108 60.9378458 108.97147175 62.5625 101.3671875 C63.15365879 96.81737608 63.18424012 92.33339022 63.1875 87.75 C63.20586914 86.41388672 63.20586914 86.41388672 63.22460938 85.05078125 C63.24669528 74.90598999 61.66351031 65.59138248 56 57 C52.97615676 53.72361601 50.24727036 51.41575679 46 50 C37.3526943 49.32199788 30.51737835 49.60625238 23 54 Z " fill="#525D94" transform="translate(2515,1010)" />
<path d="M0 0 C68.31 0 136.62 0 207 0 C207 5.94 207 11.88 207 18 C138.69 18 70.38 18 0 18 C0 12.06 0 6.12 0 0 Z " fill="#3E5E94" transform="translate(1538,1205)" />
<path d="M0 0 C7.87970841 4.74152889 12.03976313 10.36300997 16.11328125 18.5546875 C20.4530064 29.76004595 19.375 38.24413548 19.375 50.8125 C-1.745 50.8125 -22.865 50.8125 -44.625 50.8125 C-42.35251288 64.55240729 -42.35251288 64.55240729 -35.625 75.8125 C-31.21186155 79.5977529 -26.33847797 81.74727529 -20.625 82.8125 C-7.36825059 83.99087773 3.6776039 79.64233128 15.375 73.8125 C16.695 77.7725 18.015 81.7325 19.375 85.8125 C4.00554927 94.00206134 -9.03150306 97.32224351 -26.625 95.8125 C-35.00711304 94.32862751 -41.5432858 90.73703272 -47.625 84.8125 C-54.5589784 77.2114946 -58.52474509 67.89805027 -59.90917969 57.72412109 C-61.33143358 42.78351736 -60.84329621 28.35179041 -53.625 14.8125 C-49.71747738 8.43309153 -44.83796067 2.73474007 -37.9453125 -0.41015625 C-25.43585001 -5.13934329 -12.18713465 -6.2688476 0 0 Z M-33.625 12.8125 C-38.78104245 17.52064382 -41.81689993 22.08234973 -43.625 28.8125 C-43.955 32.4425 -44.285 36.0725 -44.625 39.8125 C-28.455 39.8125 -12.285 39.8125 4.375 39.8125 C4.375 31.24244117 3.15828706 24.26946251 -1.3125 16.875 C-3.8508039 13.4204303 -6.24180362 11.06039561 -10.22265625 9.40234375 C-18.26624853 7.42741296 -26.92901097 7.57344045 -33.625 12.8125 Z " fill="#525D94" transform="translate(1808.625,1051.1875)" />
<path d="M0 0 C4.43376712 2.93126392 7.77141078 6.02384052 10.16796875 10.82421875 C14.28692127 21.41792758 14.01949254 32.12932363 13.9765625 43.33984375 C13.97469378 44.78429617 13.97327202 46.22874923 13.97227478 47.67320251 C13.96848534 51.44605304 13.95868622 55.21886411 13.9475708 58.99169922 C13.93727921 62.85318468 13.93276068 66.71467661 13.92773438 70.57617188 C13.91706019 78.13153035 13.89949301 85.68684834 13.87890625 93.2421875 C9.91890625 93.2421875 5.95890625 93.2421875 1.87890625 93.2421875 C1.21890625 90.2721875 0.55890625 87.3021875 -0.12109375 84.2421875 C-1.19359375 85.1290625 -2.26609375 86.0159375 -3.37109375 86.9296875 C-10.68022831 92.29056842 -17.7718715 95.41835532 -26.87988281 95.78564453 C-34.47482135 95.84676764 -41.59147024 95.52271847 -48.12109375 91.2421875 C-53.52353354 87.14313354 -57.26621631 82.51923454 -59.5 76.0859375 C-61.02349953 69.11041764 -61.20251182 61.49361103 -58.87109375 54.6796875 C-56.01555966 49.07060268 -52.9613603 45.56220658 -47.51611328 42.44970703 C-37.93951391 37.62138282 -27.86995734 37.86934384 -17.43359375 38.0546875 C-15.94207092 38.06977305 -14.4505332 38.08345456 -12.95898438 38.09570312 C-9.34603887 38.12837593 -5.73366514 38.17994031 -2.12109375 38.2421875 C-2.24444891 36.02557277 -2.37794353 33.80952101 -2.515625 31.59375 C-2.58885986 30.35963379 -2.66209473 29.12551758 -2.73754883 27.85400391 C-3.26774815 22.86115305 -4.46592983 18.52227824 -7.12109375 14.2421875 C-10.35358783 11.4810988 -13.00393789 10.04517889 -17.12109375 9.2421875 C-26.54330686 8.46549155 -34.61566795 9.74723857 -43.625 12.26953125 C-46.45397146 13.05658588 -49.23506586 13.71594441 -52.12109375 14.2421875 C-52.79463874 12.80789749 -53.45969076 11.36961693 -54.12109375 9.9296875 C-54.49234375 9.12917969 -54.86359375 8.32867188 -55.24609375 7.50390625 C-56.12109375 5.2421875 -56.12109375 5.2421875 -56.12109375 2.2421875 C-38.60651995 -4.10472583 -17.42615656 -9.64599373 0 0 Z M-41.05859375 54.6171875 C-43.97005139 58.32267904 -44.9909614 60.86278454 -45.43359375 65.5546875 C-45.06396256 69.91633551 -44.25509239 73.40904277 -42.12109375 77.2421875 C-39.01673112 80.56313357 -36.63677072 82.05310594 -32.37109375 83.6171875 C-26.53908751 84.75919633 -21.02958151 84.35324698 -15.47265625 82.23046875 C-12.90667912 81.00912528 -10.51706398 79.77251687 -8.12109375 78.2421875 C-7.04085938 77.61441406 -5.960625 76.98664063 -4.84765625 76.33984375 C-3.23044582 75.07693642 -3.23044582 75.07693642 -2.12109375 73.2421875 C-1.37961643 69.11620047 -1.55577732 65.10444912 -1.74609375 60.9296875 C-1.77316406 59.80755859 -1.80023437 58.68542969 -1.828125 57.52929688 C-1.89870374 54.76496291 -1.99724887 52.00456335 -2.12109375 49.2421875 C-6.43346296 49.15429035 -10.74559825 49.1014952 -15.05859375 49.0546875 C-16.87713867 49.01698242 -16.87713867 49.01698242 -18.73242188 48.97851562 C-27.12222134 48.91030587 -34.35416013 49.19658159 -41.05859375 54.6171875 Z " fill="#525D94" transform="translate(1443.12109375,1051.7578125)" />
<path d="M0 0 C4.70420494 3.30855908 8.39051587 7.773932 10.7578125 13.01171875 C12.55590996 18.30611683 13.00613802 22.90534965 12.99633789 28.5012207 C12.99648392 29.20420792 12.99662994 29.90719513 12.9967804 30.63148499 C12.99608691 32.94185534 12.98832107 35.25214383 12.98046875 37.5625 C12.97860256 39.16961116 12.97717961 40.7767229 12.97618103 42.38383484 C12.97237165 46.60390812 12.96255489 50.82394672 12.95147705 55.04400635 C12.94122893 59.35420259 12.93667613 63.66440445 12.93164062 67.97460938 C12.92093117 76.42449504 12.90387377 84.87435258 12.8828125 93.32421875 C9.2528125 93.32421875 5.6228125 93.32421875 1.8828125 93.32421875 C0.8928125 90.35421875 -0.0971875 87.38421875 -1.1171875 84.32421875 C-1.80683594 84.86691406 -2.49648437 85.40960937 -3.20703125 85.96875 C-11.27887776 92.11398294 -17.18136927 95.31027909 -27.30078125 95.72216797 C-35.9570086 95.87406451 -42.763415 94.83114725 -50.1328125 90.00390625 C-55.32805231 86.00924707 -57.76868858 81.31108512 -59.8359375 75.19921875 C-61.6598736 68.47945416 -61.50784881 61.70782504 -59.3984375 55.05859375 C-57.12058034 49.91377843 -53.78839816 46.41088148 -49.1171875 43.32421875 C-41.67381233 39.2653748 -35.00490083 38.1926679 -26.53125 38.2265625 C-25.82946625 38.22797745 -25.1276825 38.2293924 -24.40463257 38.23085022 C-22.18377246 38.23640585 -19.96301666 38.24894983 -17.7421875 38.26171875 C-16.22786605 38.26673949 -14.713543 38.27130139 -13.19921875 38.27539062 C-9.50517498 38.28636068 -5.81119144 38.30359426 -2.1171875 38.32421875 C-2.373737 35.61384873 -2.64689799 32.9068726 -2.9296875 30.19921875 C-2.99994141 29.43867187 -3.07019531 28.678125 -3.14257812 27.89453125 C-3.65635974 23.12663782 -4.58173595 19.49951459 -7.1171875 15.32421875 C-10.52826859 12.00532904 -13.57919119 10.62078913 -18.1171875 9.32421875 C-27.00378505 8.28300977 -35.00570733 9.98228445 -43.48828125 12.3515625 C-46.69792374 13.21184343 -49.83268716 13.84195054 -53.1171875 14.32421875 C-53.62552341 13.07758544 -54.12349895 11.82672488 -54.6171875 10.57421875 C-54.895625 9.878125 -55.1740625 9.18203125 -55.4609375 8.46484375 C-56.1171875 6.32421875 -56.1171875 6.32421875 -56.1171875 2.32421875 C-38.78668481 -4.23843484 -17.3816686 -9.46491671 0 0 Z M-39.1171875 52.32421875 C-41.76887416 54.61779858 -43.54441839 57.17868053 -45.1171875 60.32421875 C-45.54167851 65.32015141 -45.58472978 69.9215919 -43.9921875 74.69921875 C-40.93843339 78.9744745 -37.75965698 81.6157025 -32.9296875 83.69921875 C-26.42221189 84.76601803 -19.99667623 84.46996951 -13.9296875 81.69921875 C-12.64655871 80.92763986 -11.37733928 80.13277979 -10.1171875 79.32421875 C-9.42262451 78.88086182 -8.72806152 78.43750488 -8.01245117 77.98071289 C-5.66666746 76.24132966 -3.88323258 74.65946803 -2.1171875 72.32421875 C-1.16233306 68.29237027 -1.3515839 64.50102069 -1.6171875 60.38671875 C-1.67132812 58.78860352 -1.67132812 58.78860352 -1.7265625 57.15820312 C-1.82037766 54.54310559 -1.95144756 51.93557894 -2.1171875 49.32421875 C-6.40872195 49.2361479 -10.70001974 49.18346954 -14.9921875 49.13671875 C-16.79816406 49.09901367 -16.79816406 49.09901367 -18.640625 49.06054688 C-25.78255601 49.00232461 -32.56237596 49.1992037 -39.1171875 52.32421875 Z " fill="#525D94" transform="translate(2861.1171875,1051.67578125)" />
<path d="M0 0 C7.86807818 3.86589038 14.21620872 10.10363615 18.5390625 17.70703125 C25.21268839 31.65920234 25.50859033 47.24717888 23.71142578 62.43945312 C22.20954421 71.26930719 18.72629412 79.11710786 13 86 C7.38207967 91.68163966 0.86316198 95.48128643 -7 97 C-17.53964953 98.03739389 -28.52647687 98.28678414 -38 93 C-44.79472043 88.96376889 -49.66115358 83.69307999 -53.1875 76.6171875 C-57.20085481 67.20350968 -58.37214098 57.860548 -58.3125 47.6875 C-58.30686035 46.6778418 -58.3012207 45.66818359 -58.29541016 44.62792969 C-58.09553888 32.31506741 -55.75297002 22.4930765 -49 12 C-48.62101562 11.40445312 -48.24203125 10.80890625 -47.8515625 10.1953125 C-43.76373714 4.59992033 -37.44560666 1.21209088 -31.03515625 -1.04296875 C-20.25608552 -3.99784914 -10.57383655 -3.77739222 0 0 Z M-30.25 12.8125 C-36.12946017 17.48934332 -38.74321758 22.95417695 -41 30 C-43.65945931 41.66338037 -43.58516324 57.14649305 -40.04296875 68.5546875 C-37.69255846 74.06538728 -34.79947053 79.02648818 -29.8125 82.5 C-23.47067025 85.8823092 -17.03936196 85.55409612 -10 85 C-5.42999536 83.76199565 -2.65006499 81.62051658 0.75 78.375 C5.45666116 72.11005237 7.73029048 64.3028714 8.12402344 56.56152344 C8.87720705 37.00662918 8.87720705 37.00662918 2.1875 19 C-0.45148441 15.41435288 -2.96509591 13.01745204 -7 11 C-15.24455947 8.23583568 -22.65595137 8.57735749 -30.25 12.8125 Z " fill="#525D94" transform="translate(2132,1050)" />
<path d="M0 0 C5.28 0 10.56 0 16 0 C16.01458252 1.94173096 16.02916504 3.88346191 16.04418945 5.8840332 C16.09607753 12.3381967 16.16142546 18.79211731 16.23571491 25.24606037 C16.2802227 29.15466008 16.31952036 33.06316025 16.34643555 36.97192383 C16.37266613 40.75227161 16.41320347 44.53223221 16.46318626 48.31233788 C16.47972275 49.74618864 16.49131855 51.18010617 16.49761391 52.61403847 C16.5381143 61.00000727 16.80321935 69.12024102 20 77 C22.68675836 80.37567076 25.10813873 82.26866732 29 84 C36.24958882 85.94394216 43.0564471 84.4966642 50 82 C52.28368002 80.78420195 54.37392082 79.49206929 56.4765625 77.98828125 C58 77 58 77 60 77 C60 51.59 60 26.18 60 0 C65.28 0 70.56 0 76 0 C76 31.68 76 63.36 76 96 C72.37 96 68.74 96 65 96 C64.01 93.36 63.02 90.72 62 88 C61.47792969 88.38671875 60.95585937 88.7734375 60.41796875 89.171875 C51.62019958 95.39656632 43.71494032 98.37372783 32.9375 98.5 C24.56604538 98.41872374 18.45753874 96.63400017 11.25 92.375 C4.00196111 84.72429228 1.54262767 76.24904266 0 66 C-0.35755098 60.72367041 -0.35386121 55.47855662 -0.29296875 50.1953125 C-0.28735438 48.73559003 -0.28309303 47.2758618 -0.28010559 45.81613159 C-0.26880126 42.02512235 -0.23946379 38.23447316 -0.20599365 34.44360352 C-0.17497656 30.55489977 -0.16153358 26.66613627 -0.14648438 22.77734375 C-0.11457559 15.18471482 -0.06193126 7.59245428 0 0 Z " fill="#525D94" transform="translate(2415,1049)" />
<path d="M0 0 C6.25556909 4.2490658 9.08875236 9.99830267 11.8828125 16.84375 C14.07956896 25.44771279 13.76355759 34.18875469 13.73046875 43 C13.72860067 44.46830192 13.72717861 45.93660446 13.72618103 47.40490723 C13.72238659 51.24517578 13.71258299 55.08540574 13.70147705 58.92565918 C13.69119642 62.85407998 13.68666924 66.78250709 13.68164062 70.7109375 C13.67095758 78.40106119 13.65338613 86.09114524 13.6328125 93.78125 C8.3528125 93.78125 3.0728125 93.78125 -2.3671875 93.78125 C-2.3969165 91.14914551 -2.3969165 91.14914551 -2.42724609 88.46386719 C-2.49543311 82.62043726 -2.5722362 76.77715342 -2.65471458 70.93391037 C-2.7043398 67.39640861 -2.75066804 63.85893195 -2.7890625 60.32128906 C-2.83350917 56.24005655 -2.89301329 52.15915709 -2.953125 48.078125 C-2.96467621 46.82763367 -2.97622742 45.57714233 -2.98812866 44.28875732 C-3.04347945 29.37242513 -3.04347945 29.37242513 -8.3671875 15.78125 C-11.44033921 12.86984312 -14.27038169 10.87373155 -18.3671875 9.78125 C-26.37546176 8.97901514 -32.55557686 10.48623334 -39.73069763 13.90858459 C-42.54386357 15.6350822 -44.36207399 17.13986456 -46.3671875 19.78125 C-47.69659628 25.39964145 -47.55745799 30.90634489 -47.46484375 36.65234375 C-47.47050152 38.30145537 -47.48011859 39.95055773 -47.49351501 41.59962463 C-47.5180645 45.92230068 -47.48910424 50.24299855 -47.44873047 54.56549072 C-47.41702383 58.98318135 -47.4362873 63.40062351 -47.45117188 67.81835938 C-47.47286573 76.47335751 -47.43327861 85.12647657 -47.3671875 93.78125 C-52.3171875 93.78125 -57.2671875 93.78125 -62.3671875 93.78125 C-62.3671875 62.10125 -62.3671875 30.42125 -62.3671875 -2.21875 C-58.7371875 -2.21875 -55.1071875 -2.21875 -51.3671875 -2.21875 C-50.3771875 1.08125 -49.3871875 4.38125 -48.3671875 7.78125 C-47.3771875 6.87375 -46.3871875 5.96625 -45.3671875 5.03125 C-32.93268058 -5.53434306 -14.60161352 -7.5176624 0 0 Z " fill="#525D94" transform="translate(2240.3671875,1051.21875)" />
<path d="M0 0 C0 7.26 0 14.52 0 22 C8.91 22 17.82 22 27 22 C27 25.96 27 29.92 27 34 C18.09 34 9.18 34 0 34 C0.06296412 42.38883828 0.13841241 50.77728136 0.23571491 59.16578197 C0.28040223 63.0611024 0.31966173 66.95631864 0.34643555 70.85180664 C0.37248524 74.61268221 0.4128988 78.3731565 0.46318626 82.13378334 C0.47984384 83.56700961 0.49136505 85.00030528 0.49761391 86.43361473 C0.50726611 88.44438081 0.53703652 90.45501962 0.56762695 92.46557617 C0.57873001 93.60919113 0.58983307 94.75280609 0.60127258 95.93107605 C1.04465408 99.3436934 1.98796876 101.23613213 4 104 C6.38317287 105.78737966 8.02247071 106.0023407 11 106.3125 C16.46435219 106.18097292 21.76488225 104.44417041 27 103 C27.53682668 104.22226641 28.05375532 105.45328085 28.5625 106.6875 C28.85253906 107.37199219 29.14257812 108.05648438 29.44140625 108.76171875 C30.11888315 111.47636395 29.70820971 113.32193545 29 116 C18.91582295 120.27813572 8.96540468 121.67284577 -1.80859375 119.41015625 C-6.24294585 117.78746754 -8.70254219 115.51252453 -11.4375 111.6875 C-15.09158532 105.88885179 -16.25311586 99.93668094 -16.22705078 93.14672852 C-16.22734283 92.50197067 -16.22763489 91.85721283 -16.22793579 91.19291687 C-16.22655626 89.08810374 -16.21106128 86.98365658 -16.1953125 84.87890625 C-16.19157745 83.40917657 -16.1887328 81.93944438 -16.18673706 80.4697113 C-16.1791393 76.62115477 -16.15952447 72.77275171 -16.1373291 68.92425537 C-16.11678708 64.98923823 -16.10771755 61.05419605 -16.09765625 57.11914062 C-16.07627448 49.4126827 -16.04112433 41.7063825 -16 34 C-20.95 34 -25.9 34 -31 34 C-31 30.04 -31 26.08 -31 22 C-26.05 22 -21.1 22 -16 22 C-16 16.39 -16 10.78 -16 5 C-2.81818182 0 -2.81818182 0 0 0 Z " fill="#525D94" transform="translate(1341,1027)" />
<path d="M0 0 C1.32 0.763125 2.64 1.52625 4 2.3125 C2.68 5.9425 1.36 9.5725 0 13.3125 C-3.60367406 12.59176519 -7.08143923 11.76220156 -10.62084961 10.80102539 C-19.28701045 8.49039042 -26.92937186 6.95474412 -35.75 9.5 C-39.80147948 11.05496924 -43.22213134 12.92091617 -46 16.3125 C-53.36936975 28.18537349 -53.75838463 40.11134843 -53.19970703 53.69726562 C-52.62128993 61.27184258 -50.29436667 68.95277162 -45.48828125 74.94921875 C-41.72076272 78.40030528 -36.96010066 80.30542074 -32 81.3125 C-20.91307644 82.45877515 -10.81501162 79.2554135 -1 74.3125 C-0.34 74.3125 0.32 74.3125 1 74.3125 C1.53394179 75.7242783 2.05165104 77.14220244 2.5625 78.5625 C2.85253906 79.35140625 3.14257812 80.1403125 3.44140625 80.953125 C4 83.3125 4 83.3125 3.9375 85.4453125 C3 87.3125 3 87.3125 0.55859375 88.7265625 C-0.47136719 89.12617187 -1.50132813 89.52578125 -2.5625 89.9375 C-3.57441406 90.34226562 -4.58632812 90.74703125 -5.62890625 91.1640625 C-17.28954093 95.1365151 -29.55681471 95.79360498 -41.71875 93.66015625 C-49.39152327 91.35634675 -55.52583052 87.35403944 -60.74609375 81.28125 C-67.29845816 72.2615364 -69.8568458 61.49807694 -70.203125 50.4921875 C-70.40938009 36.48917476 -69.74036906 23.47014773 -62 11.3125 C-56.71141278 3.73629133 -50.55797602 -0.33922026 -42 -3.6875 C-28.86515936 -8.14473281 -12.29318383 -6.13787334 0 0 Z " fill="#525D94" transform="translate(1917,1052.6875)" />
<path d="M0 0 C-0.54339792 4.56454251 -1.79463821 7.9728176 -4 12 C-7.28000599 11.47096678 -10.30767651 10.58380712 -13.4375 9.5 C-21.29007127 6.85668783 -29.55736228 5.70376203 -37.72265625 7.6484375 C-42.84802083 9.45738971 -46.48433565 11.66127334 -49.7578125 16.03515625 C-55.60286335 25.28062977 -57.30720001 35.26058935 -56.92749023 46.11108398 C-56.40480621 55.54935918 -54.86200648 64.26882567 -49.51953125 72.2421875 C-46.30120305 75.96518927 -42.24226408 78.23290966 -37.625 79.8125 C-36.325625 79.9053125 -36.325625 79.9053125 -35 80 C-34.30519531 80.05027344 -33.61039063 80.10054687 -32.89453125 80.15234375 C-22.694975 80.55773152 -13.91852894 77.70249708 -5 73 C-4.01 73 -3.02 73 -2 73 C-1.01 76.96 -0.02 80.92 1 85 C-12.92276454 92.57562188 -26.29470923 94.41086948 -42 93 C-49.36671946 91.55121184 -55.56662535 88.17066203 -61 83 C-68.09220912 75.21667074 -71.52617656 66.31853763 -73 56 C-73.2882801 51.84958436 -73.32515754 47.72176871 -73.3125 43.5625 C-73.32861328 42.50740234 -73.34472656 41.45230469 -73.36132812 40.36523438 C-73.36866067 28.44985165 -70.17516286 18.18974864 -64 8 C-59.39363067 1.78890551 -53.02067263 -1.96062167 -46 -5 C-31.24290155 -9.73768598 -13.56793741 -7.0262533 0 0 Z " fill="#525D94" transform="translate(2010,1054)" />
<path d="M0 0 C-0.54339792 4.56454251 -1.79463821 7.9728176 -4 12 C-7.28000599 11.47096678 -10.30767651 10.58380712 -13.4375 9.5 C-21.29438748 6.85523492 -29.50808993 5.74675889 -37.6875 7.61328125 C-43.12138376 9.49360383 -46.95428034 12.07645042 -50.53125 16.58984375 C-56.47896828 26.34979634 -57.57430169 37.82320563 -57 49 C-56.07510426 58.16700459 -53.84596468 65.56364329 -48.875 73.3125 C-44.95896061 76.97314551 -41.17725937 78.69089299 -36 80 C-27.4009319 81.11888459 -18.42834235 79.51344469 -10.5703125 75.875 C-9.86648437 75.50375 -9.16265625 75.1325 -8.4375 74.75 C-7.303125 74.1725 -6.16875 73.595 -5 73 C-3.515 73.495 -3.515 73.495 -2 74 C-1.01 77.63 -0.02 81.26 1 85 C-12.92276454 92.57562188 -26.29470923 94.41086948 -42 93 C-50.43557523 91.34100354 -56.9765616 87.14710966 -62.90625 81.03515625 C-68.85161706 74.06950374 -71.44569737 65.92653055 -73 57 C-74.01214828 40.76095341 -74.18473912 26.09721557 -66.1875 11.625 C-61.51356854 4.43343962 -56.43854643 -0.40114333 -48.6015625 -4 C-32.77758042 -10.08249161 -15.03058463 -6.96711805 0 0 Z " fill="#525D94" transform="translate(2785,1054)" />
<path d="M0 0 C5.28 0 10.56 0 16 0 C16.00808685 1.46943054 16.01617371 2.93886108 16.02450562 4.45281982 C16.10191067 18.28482738 16.18951774 32.11674404 16.28752708 45.94861984 C16.33765505 53.06012571 16.38409792 60.17162004 16.421875 67.28320312 C16.45832608 74.1432201 16.50503398 81.00310564 16.55806351 87.86301422 C16.57663001 90.48330747 16.59172957 93.10362759 16.60334396 95.72396088 C16.62016757 99.38739419 16.64919382 103.05053908 16.68115234 106.71386719 C16.68331253 107.80287323 16.68547272 108.89187927 16.68769836 110.0138855 C16.69886185 111.01225433 16.71002533 112.01062317 16.7215271 113.03924561 C16.72705786 113.90573101 16.73258862 114.77221642 16.73828697 115.66495895 C17.02471182 118.2204824 17.63355197 119.83117846 19 122 C23.28698665 124.46826504 28.16150378 124.59942733 33 125 C33.02687279 126.81242052 33.04633715 128.62495233 33.0625 130.4375 C33.07410156 131.44683594 33.08570312 132.45617188 33.09765625 133.49609375 C33.06542969 134.32238281 33.03320312 135.14867187 33 136 C32.67 136.33 32.34 136.66 32 137 C16.0277404 138.07658324 16.0277404 138.07658324 10.1875 135.3125 C6.05365031 132.31343258 3.76274875 129.84665486 1.8125 125.125 C-0.05574309 117.93944964 -0.13881323 111.03517397 -0.11352539 103.64868164 C-0.11367142 102.52599884 -0.11381744 101.40331604 -0.1139679 100.24661255 C-0.11327354 96.55110718 -0.10550347 92.85565277 -0.09765625 89.16015625 C-0.09579038 86.59183276 -0.09436727 84.02350891 -0.09336853 81.45518494 C-0.0899459 75.39573647 -0.08207154 69.3363089 -0.07201904 63.27686828 C-0.06081862 56.37478418 -0.05533757 49.47269919 -0.05032361 42.57060826 C-0.03988781 28.3803955 -0.02211006 14.19019905 0 0 Z " fill="#525D94" transform="translate(2616,1010)" />
<path d="M0 0 C4.95 0 9.9 0 15 0 C15.01213028 2.14110764 15.01213028 2.14110764 15.02450562 4.32546997 C15.10197392 17.77423642 15.18959821 31.22290852 15.28752708 44.67154121 C15.33761365 51.58569255 15.38405695 58.49983227 15.421875 65.4140625 C15.45837843 72.08606031 15.50509872 78.75791498 15.55806351 85.42980576 C15.57660297 87.97587725 15.59171257 90.5219761 15.60334396 93.06808853 C15.6202137 96.63292777 15.64925142 100.19747503 15.68115234 103.76220703 C15.68331253 104.81597031 15.68547272 105.86973358 15.68769836 106.95542908 C15.74525755 111.98706731 15.86356099 116.3389628 18 121 C20.41686092 123.19028021 22.34465641 123.89763393 25.55078125 124.3984375 C28.02840296 124.65776424 30.51436122 124.83429075 33 125 C33 128.63 33 132.26 33 136 C29.77630173 137.61184913 26.28811289 137.22621437 22.75 137.25 C21.62271484 137.2809375 21.62271484 137.2809375 20.47265625 137.3125 C15.55651401 137.34681862 12.26159024 136.70109617 8 134 C6.171875 132.45703125 6.171875 132.45703125 4.75 130.8125 C4.27046875 130.28269531 3.7909375 129.75289062 3.296875 129.20703125 C-0.66420949 122.46602903 -0.27719886 114.72779177 -0.22705078 107.16796875 C-0.22734283 106.00612564 -0.22763489 104.84428253 -0.22793579 103.64723206 C-0.22654836 99.827244 -0.21101457 96.00745376 -0.1953125 92.1875 C-0.19158028 89.53092112 -0.18863585 86.87435304 -0.18673706 84.21777344 C-0.18053866 77.95292148 -0.16415021 71.68813992 -0.14403808 65.42331886 C-0.12162783 58.28664062 -0.1106728 51.14995888 -0.10064721 44.01325417 C-0.07978239 29.34213235 -0.04423226 14.67106952 0 0 Z " fill="#525D94" transform="translate(1267,1010)" />
<path d="M0 0 C4.57066003 2.55921043 7.9676705 6.13225905 10.8125 10.5 C15.4144422 20.19453264 15.68500396 31.48841686 14.125 41.9375 C12.8182961 48.41657353 10.5761601 54.30493929 6.2109375 59.3515625 C2.27517822 62.99977772 -1.90240288 65.47021457 -7.1875 66.5 C-14.80301256 67.23698509 -21.97532822 67.16423867 -29 63.89453125 C-34.02809292 60.68912201 -37.59765605 56.21392837 -40.0625 50.8125 C-43.59841309 40.40120034 -43.51915705 27.59963442 -41.50390625 16.85546875 C-39.30570764 10.33384218 -35.9433845 5.31063963 -30.43359375 1.1875 C-22.20446453 -3.45044367 -8.72332746 -3.36321059 0 0 Z M-24.00390625 13.77734375 C-27.89125077 19.43516202 -28.38885037 25.86251857 -28.5625 32.5625 C-28.38828558 39.84783017 -27.26833775 45.4733269 -23.125 51.5 C-21.34329366 53.56012171 -21.34329366 53.56012171 -19.1875 54.5 C-15.81839246 54.86374435 -12.55571066 54.87719709 -9.1875 54.5 C-5.72191766 52.58286934 -4.45586183 50.9504645 -2.4375 47.5625 C0.85761635 39.48946493 0.83852461 29.39529395 -0.6484375 20.8515625 C-1.74817709 17.47471505 -3.45346886 15.18862182 -5.75 12.5 C-9.72895684 10.18497056 -12.24772234 9.75832164 -16.78515625 10.03125 C-19.71790469 10.6034936 -21.88928353 11.62677843 -24.00390625 13.77734375 Z " fill="#525D94" transform="translate(2659.1875,1180.5)" />
<path d="M0 0 C31 0 31 0 39 4 C42.02364027 6.95790896 43.73042845 9.36283088 45.375 13.25 C46.31179517 18.87077101 46.33914416 24.0418905 43.953125 29.3125 C41.83187391 32.87410676 39.70481458 35.95596437 36 38 C35.34 38 34.68 38 34 38 C34.86386719 39.72773438 35.72776385 41.45545402 36.59179688 43.18310547 C37.32408829 44.64801462 38.05585663 46.11318537 38.78710938 47.57861328 C40.39444879 50.79828827 42.0072354 54.01416144 43.64453125 57.21875 C44.09183594 58.0953125 44.53914063 58.971875 45 59.875 C45.391875 60.63554688 45.78375 61.39609375 46.1875 62.1796875 C47 64 47 64 47 66 C41.72 66 36.44 66 31 66 C27.26515419 58.02754067 23.53631175 50.06279079 20 42 C18.02 41.67 16.04 41.34 14 41 C14 49.25 14 57.5 14 66 C9.38 66 4.76 66 0 66 C0 44.22 0 22.44 0 0 Z M14 10 C14 16.6 14 23.2 14 30 C21.42769179 30.61354905 21.42769179 30.61354905 28.125 28.125 C30.03534196 26.14301166 30.03534196 26.14301166 31 24 C31.28880417 21.06382427 31.4868434 18.85541859 31 16 C28.76302976 12.99606853 27.1791774 11.4034028 23.625 10.1875 C20.42421284 9.95887235 17.20894204 10 14 10 Z " fill="#525D94" transform="translate(2390,1180)" />
<path d="M0 0 C-0.33 4.62 -0.66 9.24 -1 14 C-3.289375 13.773125 -5.57875 13.54625 -7.9375 13.3125 C-14.44886423 12.81663619 -19.04910083 13.20488069 -25 16 C-27.97 17.98 -30.94 19.96 -34 22 C-34.33 46.42 -34.66 70.84 -35 96 C-39.95 96 -44.9 96 -50 96 C-50 64.32 -50 32.64 -50 0 C-46.37 0 -42.74 0 -39 0 C-38.34 2.97 -37.68 5.94 -37 9 C-36.45472656 8.61328125 -35.90945313 8.2265625 -35.34765625 7.828125 C-23.93621723 -0.05259528 -13.96336324 -3.49084081 0 0 Z " fill="#525D94" transform="translate(1741,1049)" />
<path d="M0 0 C5.28 0 10.56 0 16 0 C18.04227569 5.97409199 19.87371044 11.94637344 21.48046875 18.05078125 C21.80704216 19.28262398 21.80704216 19.28262398 22.14021301 20.53935242 C22.5945768 22.25736343 23.0474176 23.97577791 23.4987793 25.69458008 C24.19069369 28.32463964 24.89102489 30.95236663 25.59179688 33.58007812 C26.03436548 35.25767769 26.47644048 36.93540758 26.91796875 38.61328125 C27.12729538 39.39560623 27.33662201 40.17793121 27.55229187 40.98396301 C28.45993683 44.46847816 29 47.37365622 29 51 C29.66 51 30.32 51 31 51 C31.11408203 49.88488037 31.22816406 48.76976074 31.34570312 47.62084961 C31.97001255 42.65193275 33.18430301 37.90020434 34.46875 33.06640625 C34.82930481 31.6885923 34.82930481 31.6885923 35.19714355 30.28294373 C35.70237025 28.35700785 36.21009869 26.43172667 36.72021484 24.50708008 C37.50364765 21.54872596 38.27776902 18.58804524 39.05078125 15.62695312 C39.54372504 13.75246055 40.03719565 11.87810642 40.53125 10.00390625 C40.76356323 9.11546524 40.99587646 8.22702423 41.23522949 7.31166077 C42.88448167 1.11551833 42.88448167 1.11551833 44 0 C46.53049402 -0.07313567 49.03304837 -0.09247527 51.5625 -0.0625 C52.62887695 -0.05573242 52.62887695 -0.05573242 53.71679688 -0.04882812 C55.47790013 -0.03700864 57.23896036 -0.01907263 59 0 C52.72382097 22.0169041 46.44408618 44.03152439 40 66 C33.07 66 26.14 66 19 66 C17.09745266 59.61784187 15.19510028 53.23562623 13.29321289 46.85327148 C12.64846518 44.68982752 12.00361152 42.52641513 11.35864258 40.36303711 C9.51870538 34.19131302 7.68126425 28.01885551 5.84674072 21.84552002 C5.04270268 19.14350476 4.23525802 16.44252824 3.42724609 13.74169922 C2.96568272 12.19112168 2.50424761 10.64050595 2.04296875 9.08984375 C1.83263504 8.39033096 1.62230133 7.69081818 1.40559387 6.97010803 C0 2.22758115 0 2.22758115 0 0 Z " fill="#525D94" transform="translate(2439,1180)" />
<path d="M0 0 C13.86 0 27.72 0 42 0 C42 3.63 42 7.26 42 11 C32.76 11 23.52 11 14 11 C14 15.95 14 20.9 14 26 C20.93 26 27.86 26 35 26 C35 36 35 36 34 39 C27.4 39 20.8 39 14 39 C14 44.28 14 49.56 14 55 C23.24 55 32.48 55 42 55 C42 58.63 42 62.26 42 66 C28.14 66 14.28 66 0 66 C0 44.22 0 22.44 0 0 Z " fill="#525D94" transform="translate(2339,1180)" />
<path d="M0 0 C0.79921875 -0.01160156 1.5984375 -0.02320313 2.421875 -0.03515625 C8.04098116 -0.00787904 13.61128494 0.65917865 18.625 3.375 C19.12 4.86 19.12 4.86 19.625 6.375 C18.84765625 8.63671875 18.84765625 8.63671875 17.6875 11.0625 C17.30722656 11.87074219 16.92695313 12.67898438 16.53515625 13.51171875 C16.23480469 14.12660156 15.93445312 14.74148438 15.625 15.375 C14.3875 15.045 13.15 14.715 11.875 14.375 C6.18938922 13.11153094 0.42397475 12.78291249 -5.375 13.375 C-6.365 14.035 -7.355 14.695 -8.375 15.375 C-8.375 17.355 -8.375 19.335 -8.375 21.375 C-6.85104164 22.13697918 -5.32702504 22.89884205 -3.80273438 23.66015625 C-2.51132687 24.30651421 -1.22096904 24.95497341 0.06835938 25.60546875 C2.73619394 26.94882731 5.39425013 28.27260475 8.125 29.484375 C13.18421569 31.73730699 16.52739073 34.75538203 19.625 39.375 C21.27803529 44.33410588 21.44961509 49.54845791 19.9765625 54.59765625 C17.66957257 59.71444161 14.3226276 63.33005588 9.625 66.375 C3.33924553 69.14073197 -3.62664151 69.02553862 -10.375 68.375 C-16.03085465 66.948741 -20.81745417 65.04840299 -25.375 61.375 C-24.1452107 57.30723538 -22.613962 53.97574162 -20.375 50.375 C-19.69695313 50.7359375 -19.01890625 51.096875 -18.3203125 51.46875 C-12.59304196 54.32445276 -7.983809 55.92832862 -1.56640625 55.84375 C1.14666146 55.26341466 2.59037933 54.23894609 4.625 52.375 C5.62343776 49.96617313 5.62343776 49.96617313 5.625 47.375 C4.97104865 45.28142072 4.97104865 45.28142072 3.625 43.375 C1.62806016 42.09522431 1.62806016 42.09522431 -0.76953125 41.19140625 C-1.64287109 40.82080078 -2.51621094 40.45019531 -3.41601562 40.06835938 C-4.33060547 39.69517578 -5.24519531 39.32199219 -6.1875 38.9375 C-13.65989331 35.88133914 -18.76654475 33.28768287 -23.375 26.375 C-24.41923401 21.44433115 -25.11655636 16.28766433 -23.25 11.5 C-20.53954657 6.98257761 -17.97755475 4.21481983 -13.2890625 1.7578125 C-8.88626208 -0.05212533 -4.70580039 -0.06765528 0 0 Z " fill="#525D94" transform="translate(2309.375,1178.625)" />
<path d="M0 0 C4.972141 1.72087311 4.972141 1.72087311 7.26953125 3.2109375 C7.76453125 4.6959375 7.76453125 4.6959375 8.26953125 6.2109375 C7.2734375 8.47265625 7.2734375 8.47265625 5.83203125 10.8984375 C5.35894531 11.70667969 4.88585938 12.51492188 4.3984375 13.34765625 C4.02589844 13.96253906 3.65335938 14.57742188 3.26953125 15.2109375 C2.67527344 14.994375 2.08101562 14.7778125 1.46875 14.5546875 C-6.17922023 11.98554042 -13.31284355 10.92581017 -21.16796875 13.2109375 C-24.78623597 16.03495094 -26.34372559 18.86389286 -27.73046875 23.2109375 C-29.27915924 30.68308648 -28.88834302 37.89749337 -26.73046875 45.2109375 C-24.90653768 48.85879963 -23.39856873 50.70578874 -20.16796875 53.1484375 C-15.17106639 54.69293459 -10.81251397 54.31228724 -5.73046875 53.2109375 C-2.95130583 52.04004427 -0.39361549 50.63762325 2.26953125 49.2109375 C3.25953125 49.5409375 4.24953125 49.8709375 5.26953125 50.2109375 C6.21875 52.49609375 6.21875 52.49609375 6.95703125 55.2734375 C7.33408203 56.65208984 7.33408203 56.65208984 7.71875 58.05859375 C7.90050781 58.76886719 8.08226563 59.47914062 8.26953125 60.2109375 C0.70533841 65.48173145 -5.54655502 67.28845463 -14.73046875 67.5234375 C-22.01760312 67.4066565 -26.49578156 65.92341895 -32.91796875 62.5234375 C-37.96871661 58.37060037 -40.55428931 53.39071241 -42.54296875 47.2109375 C-44.92867458 37.3954621 -44.88140713 26.31296784 -41.765625 16.67578125 C-39.20830723 10.58646988 -36.15725865 5.82307254 -30.54296875 2.2109375 C-21.85398729 -2.72481528 -9.55917531 -2.02194075 0 0 Z " fill="#525D94" transform="translate(2573.73046875,1179.7890625)" />
<path d="M0 0 C8.58 0 17.16 0 26 0 C26 31.68 26 63.36 26 96 C20.72 96 15.44 96 10 96 C10 68.61 10 41.22 10 13 C6.7 12.34 3.4 11.68 0 11 C0 7.37 0 3.74 0 0 Z " fill="#525D94" transform="translate(2664,1049)" />
<path d="M0 0 C8.58 0 17.16 0 26 0 C26 31.68 26 63.36 26 96 C20.72 96 15.44 96 10 96 C10 68.61 10 41.22 10 13 C6.7 12.34 3.4 11.68 0 11 C0 7.37 0 3.74 0 0 Z " fill="#525D94" transform="translate(1640,1049)" />
<path d="M0 0 C8.58 0 17.16 0 26 0 C26 31.68 26 63.36 26 96 C21.05 96 16.1 96 11 96 C11 68.61 11 41.22 11 13 C7.37 12.34 3.74 11.68 0 11 C0 7.37 0 3.74 0 0 Z " fill="#525D94" transform="translate(2026,1049)" />
<path d="M0 0 C4.62 0 9.24 0 14 0 C14 21.78 14 43.56 14 66 C9.38 66 4.76 66 0 66 C0 44.22 0 22.44 0 0 Z " fill="#525D94" transform="translate(2592,1180)" />
<path d="M0 0 C4.62 0 9.24 0 14 0 C14 21.78 14 43.56 14 66 C9.38 66 4.76 66 0 66 C0 44.22 0 22.44 0 0 Z " fill="#525D94" transform="translate(2505,1180)" />
<path d="M0 0 C1.98 0 3.96 0 6 0 C8.47370582 6.31463174 10.45051037 12.69435726 12.3203125 19.2109375 C12.62444061 20.26028473 12.92856873 21.30963196 13.24191284 22.39077759 C14.20590278 25.71800374 15.16578002 29.04639585 16.125 32.375 C17.09178837 35.7249001 18.05949164 39.07452629 19.0295105 42.42349243 C19.63137129 44.50183653 20.23130383 46.58074017 20.82913208 48.6602478 C21.099664 49.5952713 21.37019592 50.5302948 21.64892578 51.49365234 C21.88636505 52.31779633 22.12380432 53.14194031 22.36843872 53.99105835 C22.95480493 56.04159783 22.95480493 56.04159783 24 58 C29.61 38.86 35.22 19.72 41 0 C43.31 0 45.62 0 48 0 C41.92938684 22.07644689 35.46144789 44.03553665 29 66 C25.7 66 22.4 66 19 66 C14.13175621 51.36098521 9.80399729 36.58021084 5.5625 21.75 C5.2878894 20.7929718 5.01327881 19.8359436 4.73034668 18.84991455 C3.94330732 16.10397595 3.16031009 13.35692197 2.37890625 10.609375 C2.13860184 9.77068878 1.89829742 8.93200256 1.65071106 8.06790161 C0 2.23118507 0 2.23118507 0 0 Z " fill="#525D94" transform="translate(2757,1180)" />
<path d="M0 0 C2.31486811 0.91870299 4.50327309 1.88986383 6.68359375 3.08984375 C6.35359375 4.73984375 6.02359375 6.38984375 5.68359375 8.08984375 C2.72335276 8.08984375 1.42167859 7.66605665 -1.25390625 6.58984375 C-6.93580903 4.65262078 -12.36953892 4.35996324 -18.31640625 5.08984375 C-21.83062054 6.16523173 -24.25856576 7.94714974 -26.77734375 10.66796875 C-30.19342614 15.05161205 -31.9719404 19.57579939 -32.52124023 25.17944336 C-33.15578952 38.52956118 -33.15578952 38.52956118 -29.31640625 51.08984375 C-26.5282655 55.24389184 -23.81952025 58.33828675 -19.31640625 60.58984375 C-12.02378601 61.80528046 -6.15673722 60.65496786 0.68359375 58.08984375 C3.65931844 56.56053954 3.65931844 56.56053954 5.68359375 55.08984375 C6.34359375 57.06984375 7.00359375 59.04984375 7.68359375 61.08984375 C6.10284811 61.90736678 4.51888152 62.71866372 2.93359375 63.52734375 C2.051875 63.97980469 1.17015625 64.43226562 0.26171875 64.8984375 C-6.57210124 68.05649068 -14.30656513 67.84840538 -21.6640625 66.734375 C-26.84275422 65.20032914 -30.20177375 61.8366441 -33.55078125 57.703125 C-39.39777955 49.04905008 -39.88200551 39.9095333 -39.79174805 29.75244141 C-39.568787 22.94568029 -38.63262479 17.13127159 -35.31640625 11.08984375 C-34.97738281 10.41953125 -34.63835938 9.74921875 -34.2890625 9.05859375 C-31.66301278 4.64757786 -28.09960445 2.07154413 -23.45703125 -0.02734375 C-15.92253052 -2.14525067 -7.53612684 -2.06821856 0 0 Z " fill="#525D94" transform="translate(2722.31640625,1179.91015625)" />
<path d="M0 0 C1.98 0 3.96 0 6 0 C6 20.13 6 40.26 6 61 C15.57 61 25.14 61 35 61 C35 62.65 35 64.3 35 66 C23.45 66 11.9 66 0 66 C0 44.22 0 22.44 0 0 Z " fill="#525D94" transform="translate(2837,1180)" />
<path d="M0 0 C0.99 3.96 1.98 7.92 3 12 C-1.23133001 13.370588 -5.46311911 14.73974701 -9.6953125 16.10766602 C-11.13065637 16.57180555 -12.5658809 17.03631431 -14.00097656 17.5012207 C-17.4278895 18.61126328 -20.85609141 19.71679504 -24.28808594 20.81103516 C-26.55119915 21.53593396 -28.81074224 22.2722719 -31.06347656 23.02880859 C-31.93198242 23.31191895 -32.80048828 23.5950293 -33.6953125 23.88671875 C-34.41992676 24.12994873 -35.14454102 24.37317871 -35.89111328 24.6237793 C-38.48831134 25.08711366 -40.46318771 24.64766722 -43 24 C-43.33 21.03 -43.66 18.06 -44 15 C-38.21816422 12.85759452 -32.43404589 10.72151671 -26.64770508 8.59130859 C-24.6789627 7.86551244 -22.71085909 7.13798119 -20.7434082 6.40869141 C-17.91783513 5.36165525 -15.09003517 4.32084909 -12.26171875 3.28125 C-11.38037766 2.95314331 -10.49903656 2.62503662 -9.59098816 2.2869873 C-8.77036392 1.98667603 -7.94973969 1.68636475 -7.10424805 1.37695312 C-6.38254929 1.11047974 -5.66085052 0.84400635 -4.9172821 0.56945801 C-3 0 -3 0 0 0 Z " fill="#525D94" transform="translate(2474,1010)" />
<path d="M0 0 C0.99 3.96 1.98 7.92 3 12 C-1.23133001 13.370588 -5.46311911 14.73974701 -9.6953125 16.10766602 C-11.13065637 16.57180555 -12.5658809 17.03631431 -14.00097656 17.5012207 C-17.4278895 18.61126328 -20.85609141 19.71679504 -24.28808594 20.81103516 C-26.55119915 21.53593396 -28.81074224 22.2722719 -31.06347656 23.02880859 C-31.93198242 23.31191895 -32.80048828 23.5950293 -33.6953125 23.88671875 C-34.41992676 24.12994873 -35.14454102 24.37317871 -35.89111328 24.6237793 C-38.48831134 25.08711366 -40.46318771 24.64766722 -43 24 C-43.33 21.03 -43.66 18.06 -44 15 C-38.21816422 12.85759452 -32.43404589 10.72151671 -26.64770508 8.59130859 C-24.6789627 7.86551244 -22.71085909 7.13798119 -20.7434082 6.40869141 C-17.91783513 5.36165525 -15.09003517 4.32084909 -12.26171875 3.28125 C-11.38037766 2.95314331 -10.49903656 2.62503662 -9.59098816 2.2869873 C-8.77036392 1.98667603 -7.94973969 1.68636475 -7.10424805 1.37695312 C-6.38254929 1.11047974 -5.66085052 0.84400635 -4.9172821 0.56945801 C-3 0 -3 0 0 0 Z " fill="#525D94" transform="translate(2136,1010)" />
<path d="M0 0 C1.98 0 3.96 0 6 0 C6 21.78 6 43.56 6 66 C4.02 66 2.04 66 0 66 C0 44.22 0 22.44 0 0 Z " fill="#525D94" transform="translate(2814,1180)" />
<path d="M0 0 C1.65 0 3.3 0 5 0 C5 21.78 5 43.56 5 66 C3.35 66 1.7 66 0 66 C0 44.22 0 22.44 0 0 Z " fill="#525D94" transform="translate(2742,1180)" />
<path d="M0 0 C5.61 0 11.22 0 17 0 C17 5.28 17 10.56 17 16 C11.39 16 5.78 16 0 16 C0 10.72 0 5.44 0 0 Z " fill="#525D94" transform="translate(2673,1012)" />
<path d="M0 0 C5.61 0 11.22 0 17 0 C17 5.28 17 10.56 17 16 C11.39 16 5.78 16 0 16 C0 10.72 0 5.44 0 0 Z " fill="#525D94" transform="translate(1649,1012)" />
<path d="M0 0 C5.28 0 10.56 0 16 0 C16 5.28 16 10.56 16 16 C10.72 16 5.44 16 0 16 C0 10.72 0 5.44 0 0 Z " fill="#525D94" transform="translate(2036,1012)" />
</svg>
