<?xml version="1.0" encoding="UTF-8"?>
<svg version="1.1" xmlns="http://www.w3.org/2000/svg" width="225" height="225">
<path d="M0 0 C74.25 0 148.5 0 225 0 C225 74.25 225 148.5 225 225 C150.75 225 76.5 225 0 225 C0 150.75 0 76.5 0 0 Z " fill="#FDFDFC" transform="translate(0,0)"/>
<path d="M0 0 C1.5770874 0.00628418 1.5770874 0.00628418 3.18603516 0.01269531 C14.7629126 0.18096908 24.5255596 2.6508732 35.125 7.3125 C35.89585937 7.62058594 36.66671875 7.92867187 37.4609375 8.24609375 C42.87788548 10.47388293 47.85606645 13.24130997 52.125 17.3125 C52.125 17.9725 52.125 18.6325 52.125 19.3125 C52.7025 19.41046875 53.28 19.5084375 53.875 19.609375 C59.82147646 21.46764889 64.48800467 27.50647046 68.125 32.3125 C68.71667969 32.84359375 69.30835938 33.3746875 69.91796875 33.921875 C72.97974424 37.23834686 75.01494066 40.93589129 77.1875 44.875 C77.85446899 46.0822876 77.85446899 46.0822876 78.53491211 47.31396484 C88.42792838 65.69751794 89.12853398 90.1152365 83.2578125 109.96484375 C82.88398438 111.06957031 82.51015625 112.17429687 82.125 113.3125 C81.65707031 114.73755859 81.65707031 114.73755859 81.1796875 116.19140625 C79.2835795 121.40968667 76.68461331 125.82667071 73.48828125 130.35546875 C72.02714582 132.36562557 72.02714582 132.36562557 70.75 134.9375 C68.68645704 137.9534474 66.20394097 140.02583161 63.41015625 142.36328125 C61.85602459 143.68894227 60.34330823 145.06438723 58.87109375 146.48046875 C52.22928991 152.83778017 45.22868113 157.06862908 37.125 161.3125 C35.61099609 162.116875 35.61099609 162.116875 34.06640625 162.9375 C31.15860276 164.29679194 28.42203616 165.16330632 25.3125 165.9375 C21.92634783 166.57303887 21.92634783 166.57303887 19.125 168.3125 C-6.30511412 171.77564675 -30.89466442 168.5866385 -52.125 153.375 C-58.21481068 148.54959916 -64.26633556 143.61100807 -68.875 137.3125 C-69.40738281 136.66796875 -69.93976563 136.0234375 -70.48828125 135.359375 C-84.72093838 117.92665577 -88.62099254 95.31637102 -86.875 73.3125 C-85.71618553 64.85723992 -82.85407403 56.81329925 -79.8125 48.875 C-79.56741699 48.22942139 -79.32233398 47.58384277 -79.06982422 46.91870117 C-78.33984375 45.12890625 -78.33984375 45.12890625 -76.875 42.3125 C-75.39 41.8175 -75.39 41.8175 -73.875 41.3125 C-72.70417122 38.38335835 -72.70417122 38.38335835 -71.875 35.3125 C-71.545 34.6525 -71.215 33.9925 -70.875 33.3125 C-70.215 33.3125 -69.555 33.3125 -68.875 33.3125 C-68.6275 32.69375 -68.38 32.075 -68.125 31.4375 C-66.63759631 28.90891373 -65.43821991 28.59410996 -62.875 27.3125 C-62.545 26.6525 -62.215 25.9925 -61.875 25.3125 C-60.62991604 22.82233207 -59.40783204 22.32563282 -56.875 21.3125 C-56.875 20.6525 -56.875 19.9925 -56.875 19.3125 C-52.29507452 14.88795163 -47.3141759 12.32463203 -41.5625 9.6875 C-40.75876953 9.3059375 -39.95503906 8.924375 -39.12695312 8.53125 C-26.36409178 2.57593256 -14.10704598 -0.07719935 0 0 Z " fill="#FD7F03" transform="translate(112.875,6.6875)"/>
<path d="M0 0 C4.61759375 3.67483503 8.10490186 7.16960745 9.5625 13 C10.18898438 13.2990625 10.81546875 13.598125 11.4609375 13.90625 C15.10198995 15.80122154 16.20775488 19.32602044 17.5625 23 C22.42972129 39.13432078 22.55058771 55.78628619 14.625 70.875 C12.53901035 74.49313093 10.47885557 77.97948887 7.5625 81 C6.9025 81 6.2425 81 5.5625 81 C5.35625 81.556875 5.15 82.11375 4.9375 82.6875 C2.98566968 85.97012371 0.62019006 87.70673246 -2.4375 90 C-3.0975 90 -3.7575 90 -4.4375 90 C-4.4375 90.66 -4.4375 91.32 -4.4375 92 C-19.45966416 100.44564068 -35.071743 103.74392946 -51.875 99.3125 C-62.48527718 95.88437859 -70.5787173 90.8500422 -77.4375 82 C-78.6440625 80.8553125 -78.6440625 80.8553125 -79.875 79.6875 C-85.41725006 73.87489628 -88.17506335 67.61120305 -90.4375 60 C-90.9634375 58.66582031 -90.9634375 58.66582031 -91.5 57.3046875 C-92.70569907 53.05459828 -92.78035889 49.14640168 -92.75 44.75 C-92.74436035 43.90171631 -92.7387207 43.05343262 -92.73291016 42.17944336 C-92.61310358 36.00228742 -91.98410914 30.68678882 -89.4375 25 C-89.01210937 24.02804688 -88.58671875 23.05609375 -88.1484375 22.0546875 C-82.15517073 9.26691509 -72.62472619 -2.85755069 -58.9375 -8 C-57.7825 -8.33 -56.6275 -8.66 -55.4375 -9 C-54.57125 -9.37125 -53.705 -9.7425 -52.8125 -10.125 C-35.00517664 -16.68559282 -14.75267883 -10.58525543 0 0 Z " fill="#FDFDFB" transform="translate(148.4375,47)"/>
<path d="M0 0 C4.33170436 2.71990739 7.40401814 6.11018325 9 11 C9.98817261 18.17340119 9.92694952 24.46441481 5.49609375 30.4140625 C0.85279616 35.33620041 -3.31392568 36.82386398 -9.8125 37.25 C-16.15923705 37.15562473 -21.54408722 34.45591278 -26 30 C-29.62093302 24.00673155 -29.84526801 17.88701325 -29 11 C-26.64423557 5.91154883 -22.5409789 2.23452557 -18 -1 C-11.87140788 -3.04286404 -5.9607007 -2.24932102 0 0 Z " fill="#376BA0" transform="translate(131,98)"/>
<path d="M0 0 C0 -0.66 0 -1.32 0 -2 C0.66 -2 1.32 -2 2 -2 C2 2.95 2 7.9 2 13 C2.66 13 3.32 13 4 13 C3.98839844 11.92878906 3.97679687 10.85757813 3.96484375 9.75390625 C3.95546701 8.35677257 3.94636669 6.95963701 3.9375 5.5625 C3.92912109 4.85544922 3.92074219 4.14839844 3.91210938 3.41992188 C3.90346412 1.61306441 3.94779989 -0.19387603 4 -2 C5 -3 5 -3 7.5625 -3.0625 C8.7690625 -3.0315625 8.7690625 -3.0315625 10 -3 C10.11647041 1.54144994 10.18734502 6.08251394 10.25 10.625 C10.28351563 11.91019531 10.31703125 13.19539063 10.3515625 14.51953125 C10.46215659 25.19186056 10.46215659 25.19186056 8.28125 28.875 C6 31 6 31 3.640625 31.5859375 C2.85171875 31.51632813 2.0628125 31.44671875 1.25 31.375 C0.45078125 31.32085937 -0.3484375 31.26671875 -1.171875 31.2109375 C-2.07679687 31.10652344 -2.07679687 31.10652344 -3 31 C-3.33 28.36 -3.66 25.72 -4 23 C-4.72445312 23.03480469 -5.44890625 23.06960937 -6.1953125 23.10546875 C-16.3666367 23.39026583 -16.3666367 23.39026583 -21 20 C-24.24693669 16.4967262 -25.30240166 13.67474052 -25.5625 9 C-25.42235139 5.42621039 -24.92341084 3.24932727 -22.6875 0.4375 C-15.92288092 -5.69785219 -7.64155526 -2.97171593 0 0 Z " fill="#E78B28" transform="translate(127,187)"/>
<path d="M0 0 C0.77085937 -0.00257813 1.54171875 -0.00515625 2.3359375 -0.0078125 C5.44852237 0.17278116 7.71983531 0.32464386 10.109375 2.4375 C13.17801472 6.52901963 14.40715132 9.75698835 14.125 14.90625 C13.24262992 18.82176722 11.25184126 21.1228957 8.625 24.125 C4.69966952 26.08766524 -0.08567672 25.46640779 -4.375 25.125 C-7.63769829 23.83351526 -8.9369688 22.63855382 -11.1875 20 C-12.86481847 15.93912371 -13.31125198 12.44502884 -12.375 8.125 C-9.22247015 2.93826893 -6.16236246 -0.02047296 0 0 Z " fill="#F08B23" transform="translate(153.375,183.875)"/>
<path d="M0 0 C10.56 0 21.12 0 32 0 C32 0.66 32 1.32 32 2 C26.31302429 2.91397824 21.68697571 2.91397824 16 2 C16 2.66 16 3.32 16 4 C18.64 4 21.28 4 24 4 C24 4.66 24 5.32 24 6 C22.02 6.33 20.04 6.66 18 7 C20.64 7.66 23.28 8.32 26 9 C26 9.66 26 10.32 26 11 C25.2575 10.7525 25.2575 10.7525 24.5 10.5 C19.66915855 9.53383171 15.5958468 9.27146125 11.125 11.3125 C8.58377112 13.3305347 7.15507451 14.9685742 6.6640625 18.234375 C6.56810035 24.41433735 7.4620059 27.91413348 11 33 C10.01 33 9.02 33 8 33 C7.67 33.99 7.34 34.98 7 36 C4.20635051 31.80952576 4.5811493 27.68270047 4.43359375 22.8046875 C4.27420271 19.04860299 4.13279963 17.19919944 2 14 C-0.13253645 13.52312697 -0.13253645 13.52312697 -2.5 13.625 C-3.2940625 13.61726562 -4.088125 13.60953125 -4.90625 13.6015625 C-5.5971875 13.73304688 -6.288125 13.86453125 -7 14 C-9.46803687 17.70205531 -9.55288088 20.70653444 -9 25 C-7.99963019 27.56008963 -7.99963019 27.56008963 -6 29 C-2.2595467 29.561068 -1.22143276 29.14762184 2 27 C2.33 28.32 2.66 29.64 3 31 C0.65625462 33.16345727 -0.74584457 33.96214706 -3.9375 34.4375 C-7.75425998 33.89224857 -9.29454915 32.70545085 -12 30 C-14.71685962 25.53523069 -14.65965394 21.08416208 -14 16 C-11.90868425 11.9667482 -9.24890574 9.13287339 -6 6 C-6 5.67 -6 5.34 -6 5 C-4.35 5 -2.7 5 -1 5 C-0.67 3.35 -0.34 1.7 0 0 Z " fill="#F6F8F6" transform="translate(96,175)"/>
<path d="M0 0 C0.66 0 1.32 0 2 0 C2.33 3.63 2.66 7.26 3 11 C3.66 10.34 4.32 9.68 5 9 C9.57032175 8.55046016 11.89674879 8.35243951 15.875 10.6875 C19.09217178 14.18853988 19.86223635 16.73716656 20.375 21.4375 C19.84118637 26.50872949 17.66485978 29.27773126 14.1875 32.875 C10.899273 34.56608817 8.63953395 34.51081178 5 34 C2.36983839 31.8272578 0.52663106 30.05326212 -1 27 C-1.09699022 25.05269249 -1.13076186 23.1020641 -1.1328125 21.15234375 C-1.13410156 19.99025391 -1.13539063 18.82816406 -1.13671875 17.63085938 C-1.13285156 16.41205078 -1.12898437 15.19324219 -1.125 13.9375 C-1.12886719 12.71482422 -1.13273438 11.49214844 -1.13671875 10.23242188 C-1.13542969 9.07162109 -1.13414062 7.91082031 -1.1328125 6.71484375 C-1.13168457 5.64355225 -1.13055664 4.57226074 -1.12939453 3.46850586 C-1 1 -1 1 0 0 Z " fill="#37699A" transform="translate(171,175)"/>
<path d="M0 0 C0.66 0 1.32 0 2 0 C2.33 3.63 2.66 7.26 3 11 C3.99 10.34 4.98 9.68 6 9 C11.0369484 8.35007117 12.89630724 8.17223043 17 11.25 C20.25887499 15.9055357 19.94442789 21.60643137 19 27 C17.34973661 30.22165389 15.28402818 32.35798591 12 34 C8.6875 34.375 8.6875 34.375 5 34 C2.36983839 31.8272578 0.52663106 30.05326212 -1 27 C-1.09699022 25.05269249 -1.13076186 23.1020641 -1.1328125 21.15234375 C-1.13410156 19.99025391 -1.13539062 18.82816406 -1.13671875 17.63085938 C-1.13285156 16.41205078 -1.12898438 15.19324219 -1.125 13.9375 C-1.12886719 12.71482422 -1.13273437 11.49214844 -1.13671875 10.23242188 C-1.13542969 9.07162109 -1.13414063 7.91082031 -1.1328125 6.71484375 C-1.13168457 5.64355225 -1.13055664 4.57226074 -1.12939453 3.46850586 C-1 1 -1 1 0 0 Z " fill="#456F9B" transform="translate(22,175)"/>
<path d="M0 0 C1.2065625 0.0309375 1.2065625 0.0309375 2.4375 0.0625 C2.55397041 4.60394994 2.62484502 9.14501394 2.6875 13.6875 C2.72101563 14.97269531 2.75453125 16.25789063 2.7890625 17.58203125 C2.89965659 28.25436056 2.89965659 28.25436056 0.71875 31.9375 C-1.5625 34.0625 -1.5625 34.0625 -3.921875 34.6484375 C-4.71078125 34.57882813 -5.4996875 34.50921875 -6.3125 34.4375 C-7.51132813 34.35628906 -7.51132813 34.35628906 -8.734375 34.2734375 C-9.33765625 34.20382813 -9.9409375 34.13421875 -10.5625 34.0625 C-10.8925 31.4225 -11.2225 28.7825 -11.5625 26.0625 C-15.1925 26.0625 -18.8225 26.0625 -22.5625 26.0625 C-22.5625 25.7325 -22.5625 25.4025 -22.5625 25.0625 C-20.7371875 24.9696875 -20.7371875 24.9696875 -18.875 24.875 C-14.39014009 24.34222409 -12.44829932 22.56043857 -9.5625 19.0625 C-9.2325 18.7325 -8.9025 18.4025 -8.5625 18.0625 C-8.46363647 16.43997508 -8.43278833 14.81302727 -8.4375 13.1875 C-8.43492188 12.30320313 -8.43234375 11.41890625 -8.4296875 10.5078125 C-8.64390389 6.5637107 -9.7197638 4.65804174 -12.5625 2.0625 C-10.9125 2.3925 -9.2625 2.7225 -7.5625 3.0625 C-7.5625 2.4025 -7.5625 1.7425 -7.5625 1.0625 C-6.9025 1.0625 -6.2425 1.0625 -5.5625 1.0625 C-5.5625 6.0125 -5.5625 10.9625 -5.5625 16.0625 C-4.9025 16.0625 -4.2425 16.0625 -3.5625 16.0625 C-3.57410156 14.99128906 -3.58570313 13.92007813 -3.59765625 12.81640625 C-3.60703299 11.41927257 -3.61613331 10.02213701 -3.625 8.625 C-3.63337891 7.91794922 -3.64175781 7.21089844 -3.65039062 6.48242188 C-3.65903588 4.67556441 -3.61470011 2.86862397 -3.5625 1.0625 C-2.5625 0.0625 -2.5625 0.0625 0 0 Z " fill="#FBEFD8" transform="translate(134.5625,183.9375)"/>
<path d="M0 0 C2.97790823 2.24344656 2.9929445 2.95139542 3.5625 6.875 C3.40903493 10.48476544 2.95785751 11.05162455 0.5 14.0625 C-2.121448 15.90560834 -4.00324077 16.29793506 -7.1875 16.0625 C-11 15 -11 15 -13.0625 13.5 C-14.54051698 9.5586214 -14.08696143 6.02099717 -13 2 C-9.95691735 -2.31103376 -4.61162527 -1.34187255 0 0 Z " fill="#F8F8EE" transform="translate(120,189)"/>
<path d="M0 0 C2 1.4375 2 1.4375 3 4 C3.63048504 8.34954871 3.76198611 11.75034279 1.4375 15.5625 C-1.99917081 17.58925458 -4.07417186 17.6198676 -8 17 C-10.93602134 15.00100675 -12.62130844 13.55479057 -13.48046875 10.02734375 C-13.73368112 6.36602972 -13.28906589 4.36133237 -11 1.5 C-6.87055129 -0.56472435 -4.59164356 -0.59247014 0 0 Z " fill="#F9F3E1" transform="translate(159,188)"/>
<path d="M0 0 C1.32 0 2.64 0 4 0 C4.02505615 0.57032959 4.0501123 1.14065918 4.07592773 1.72827148 C4.19156549 4.29826157 4.31443624 6.86785527 4.4375 9.4375 C4.47681641 10.33533203 4.51613281 11.23316406 4.55664062 12.15820312 C4.59853516 13.01220703 4.64042969 13.86621094 4.68359375 14.74609375 C4.72025146 15.53685303 4.75690918 16.3276123 4.79467773 17.14233398 C4.80563257 19.01401441 4.80563257 19.01401441 6 20 C8.45809998 20.2500773 8.45809998 20.2500773 11 20 C13.35358251 17.64641749 13.27871904 17.07031606 13.4140625 13.8671875 C13.45273437 13.06152344 13.49140625 12.25585938 13.53125 11.42578125 C13.57765625 10.16314453 13.57765625 10.16314453 13.625 8.875 C13.68300781 7.60076172 13.68300781 7.60076172 13.7421875 6.30078125 C13.83656494 4.20088316 13.91937586 2.10047109 14 0 C15.32 0 16.64 0 18 0 C18 7.92 18 15.84 18 24 C16.68 24.33 15.36 24.66 14 25 C13.67 24.34 13.34 23.68 13 23 C12.34 23.66 11.68 24.32 11 25 C7.15697996 25.59780312 5.52928146 25.37188581 2.3203125 23.1171875 C-0.99157411 18.66788529 -0.55996377 15.07459593 -0.3125 9.6875 C-0.28994141 8.75615234 -0.26738281 7.82480469 -0.24414062 6.86523438 C-0.18542078 4.5751604 -0.10336858 2.28842125 0 0 Z " fill="#49719C" transform="translate(45,184)"/>
<path d="M0 0 C1.33998047 0.06960937 1.33998047 0.06960937 2.70703125 0.140625 C3.60808594 0.17671875 4.50914063 0.2128125 5.4375 0.25 C6.46810547 0.31960937 6.46810547 0.31960937 7.51953125 0.390625 C10.08733596 4.2322226 9.74642007 8.2045425 9.64453125 12.640625 C9.63550781 13.38570312 9.62648438 14.13078125 9.6171875 14.8984375 C9.59371483 16.72930559 9.5578465 18.56000738 9.51953125 20.390625 C8.19953125 20.060625 6.87953125 19.730625 5.51953125 19.390625 C5.84953125 18.070625 6.17953125 16.750625 6.51953125 15.390625 C5.52953125 16.050625 4.53953125 16.710625 3.51953125 17.390625 C1.08203125 17.828125 1.08203125 17.828125 -1.48046875 17.390625 C-3.92176036 15.27923766 -5.25691018 13.64503697 -5.83203125 10.41796875 C-5.95957844 7.31625299 -5.75958849 4.90808401 -4.27734375 2.16015625 C-2.48046875 0.390625 -2.48046875 0.390625 0 0 Z " fill="#F3F8F6" transform="translate(91.48046875,187.609375)"/>
<path d="M0 0 C3.12212113 2.71131572 3.90584108 4.41412226 4.5625 8.5 C3.85024299 12.93182141 2.58911308 14.36798374 -1 17 C-3.5625 17.625 -3.5625 17.625 -6 17 C-8.44182312 14.88815298 -9.75727395 13.23814802 -10.38671875 10.02734375 C-10.57264385 6.59734629 -10.25109841 4.38630524 -8.375 1.5 C-5.25673949 -0.46942769 -3.62279473 -0.67927401 0 0 Z " fill="#F3F7F9" transform="translate(183,188)"/>
<path d="M0 0 C2.77227166 2.14433543 3.53106858 3.94007734 4 7.375 C4.30694875 11.13819163 4.14511542 11.79086307 1.875 15.0625 C-1 17 -1 17 -3.5625 17.625 C-6 17 -6 17 -8.3125 15 C-10.64538729 10.85264482 -10.60028545 8.72724791 -10 4 C-7.30226606 -0.15035991 -4.80944863 -0.71630086 0 0 Z " fill="#EDF5F4" transform="translate(34,188)"/>
<path d="M0 0 C0.99 0.66 1.98 1.32 3 2 C2.67 2.99 2.34 3.98 2 5 C1.06027344 4.94779297 1.06027344 4.94779297 0.1015625 4.89453125 C-0.71570313 4.86746094 -1.53296875 4.84039062 -2.375 4.8125 C-3.59316406 4.76029297 -3.59316406 4.76029297 -4.8359375 4.70703125 C-5.55007812 4.80371094 -6.26421875 4.90039062 -7 5 C-9.46803687 8.70205531 -9.55288088 11.70653444 -9 16 C-7.99963019 18.56008963 -7.99963019 18.56008963 -6 20 C-2.2595467 20.561068 -1.22143276 20.14762184 2 18 C2.33 19.32 2.66 20.64 3 22 C0.65625462 24.16345727 -0.74584457 24.96214706 -3.9375 25.4375 C-7.75425998 24.89224857 -9.29454915 23.70545085 -12 21 C-14.71317848 16.54128011 -14.67171202 12.07782303 -14 7 C-11.17311075 0.34614277 -6.8995193 -0.80608245 0 0 Z " fill="#476D9A" transform="translate(96,184)"/>
<path d="M0 0 C1.65 0 3.3 0 5 0 C5.08704 4.58321382 5.14040632 9.16621534 5.1875 13.75 C5.21263672 15.05195313 5.23777344 16.35390625 5.26367188 17.6953125 C5.27817383 19.57089844 5.27817383 19.57089844 5.29296875 21.484375 C5.31653442 23.21252441 5.31653442 23.21252441 5.34057617 24.97558594 C4.96368515 28.32248632 4.41789733 29.68450044 2 32 C-1.6875 32.75 -1.6875 32.75 -5 33 C-5.33 31.68 -5.66 30.36 -6 29 C-4.02 28.67 -2.04 28.34 0 28 C0 18.76 0 9.52 0 0 Z " fill="#F49131" transform="translate(132,184)"/>
<path d="M0 0 C2 2 2 2 2 5 C-0.64 4.67 -3.28 4.34 -6 4 C-5.67 5.98 -5.34 7.96 -5 10 C-4.236875 10.12375 -3.47375 10.2475 -2.6875 10.375 C0 11 0 11 3 13 C4.13018627 16.63274158 4.31184852 18.33175318 2.6875 21.8125 C1 24 1 24 -1 25 C-5.05142119 25.25860135 -6.54337669 25.30441554 -10 23 C-9.67 21.68 -9.34 20.36 -9 19 C-6.36 19.33 -3.72 19.66 -1 20 C-1 18.68 -1 17.36 -1 16 C-2.71183486 14.45918397 -2.71183486 14.45918397 -4.9375 13.3125 C-5.66839844 12.89613281 -6.39929688 12.47976562 -7.15234375 12.05078125 C-7.76207031 11.70402344 -8.37179688 11.35726562 -9 11 C-10 10 -10 10 -10.25 6.625 C-10 3 -10 3 -8.9375 1.0625 C-5.92115289 -0.59162584 -3.36333392 -0.30575763 0 0 Z " fill="#416F9A" transform="translate(203,184)"/>
<path d="M0 0 C3.5 0.4375 3.5 0.4375 6.5 2.4375 C6.17 3.4275 5.84 4.4175 5.5 5.4375 C2.86 5.1075 0.22 4.7775 -2.5 4.4375 C-1.92557356 6.88028263 -1.92557356 6.88028263 -0.5 9.4375 C2.48352894 11.22129415 2.48352894 11.22129415 5.5 12.4375 C7.07897833 14.01647833 6.74543509 15.63112572 6.8125 17.8125 C6.75087968 22.11907579 6.75087968 22.11907579 4.875 24.5 C1.84719037 25.69518801 -0.2716232 25.84963321 -3.5 25.4375 C-5.375 23.9375 -5.375 23.9375 -6.5 22.4375 C-6.005 20.9525 -6.005 20.9525 -5.5 19.4375 C-2.86 19.7675 -0.22 20.0975 2.5 20.4375 C2.5 19.1175 2.5 17.7975 2.5 16.4375 C1.93410156 16.22996094 1.36820312 16.02242187 0.78515625 15.80859375 C-1.50600132 14.84622704 -3.47966276 13.88908684 -5.5 12.4375 C-6.86506285 8.48600228 -6.84072648 6.43838402 -5.5 2.5 C-3.5 0.4375 -3.5 0.4375 0 0 Z " fill="#48739A" transform="translate(72.5,183.5625)"/>
<path d="M0 0 C0 0.66 0 1.32 0 2 C0.99 2.33 1.98 2.66 3 3 C2.67 3.515625 2.34 4.03125 2 4.5625 C0.67989123 7.78026512 0.86757895 10.5570528 1 14 C1.928125 14.28875 2.85625 14.5775 3.8125 14.875 C7 16 7 16 10 18 C9.67 19.65 9.34 21.3 9 23 C5.95613276 23.08226668 3.92824652 22.97608217 1 22 C0.67 23.98 0.34 25.96 0 28 C-1.32 27.67 -2.64 27.34 -4 27 C-3.67 18.75 -3.34 10.5 -3 2 C-3.66 1.67 -4.32 1.34 -5 1 C-2 0 -2 0 0 0 Z " fill="#EEF5F5" transform="translate(66,182)"/>
<path d="M0 0 C1.65 0.33 3.3 0.66 5 1 C5.165 2.051875 5.33 3.10375 5.5 4.1875 C6.47311432 7.76042719 8.00360069 9.01833576 11.125 10.9375 C12.40527848 11.64598151 13.69368149 12.34076485 15 13 C14.67 14.65 14.34 16.3 14 18 C10.95613276 18.08226668 8.92824652 17.97608217 6 17 C5.67 18.65 5.34 20.3 5 22 C2.69 21.34 0.38 20.68 -2 20 C-1.34 18.989375 -0.68 17.97875 0 16.9375 C2.15287858 13.15087669 2.47862603 10.38740526 2 6 C1.08885464 2.67813829 1.08885464 2.67813829 0 0 Z " fill="#EDF4F4" transform="translate(188,187)"/>
<path d="M0 0 C1.32 0.66 2.64 1.32 4 2 C3.67386719 2.556875 3.34773438 3.11375 3.01171875 3.6875 C1.85893241 6.32244021 1.76450308 8.13763816 1.8125 11 C1.81894531 11.845625 1.82539062 12.69125 1.83203125 13.5625 C1.98845924 15.83252477 2.36910186 17.81961604 3 20 C1.35 20.33 -0.3 20.66 -2 21 C-1.979375 20.40832031 -1.95875 19.81664062 -1.9375 19.20703125 C-2.00558709 16.59844445 -2.19135909 14.48877047 -3 12 C-4.99741087 10.3024119 -6.90706071 9.25879992 -9.28515625 8.16796875 C-10.13400391 7.58982422 -10.13400391 7.58982422 -11 7 C-11 5.68 -11 4.36 -11 3 C-7.37 3 -3.74 3 0 3 C0 2.01 0 1.02 0 0 Z " fill="#F0F6F5" transform="translate(81,185)"/>
<path d="M0 0 C0.33 0 0.66 0 1 0 C1.33 1.65 1.66 3.3 2 5 C2.33 5 2.66 5 3 5 C4.10549333 10.34321775 4.14907211 15.50923824 4.125 20.9375 C4.12886719 21.80568359 4.13273437 22.67386719 4.13671875 23.56835938 C4.12928461 28.48604607 3.8310599 33.15215056 3 38 C-1.86183275 30.70725087 -1.17987397 20.92907976 -1.1875 12.4375 C-1.18830566 11.55650635 -1.18911133 10.6755127 -1.18994141 9.76782227 C-1.13448661 3.40345982 -1.13448661 3.40345982 0 0 Z " fill="#F87F05" transform="translate(27,77)"/>
<path d="M0 0 C0.66 0 1.32 0 2 0 C2.33 3.63 2.66 7.26 3 11 C3.99 10.34 4.98 9.68 6 9 C9.1875 8.875 9.1875 8.875 12 9 C9.87484671 12.18772993 8.33484279 13.24920753 5 15 C4.34 15 3.68 15 3 15 C2.87882812 15.71027344 2.75765625 16.42054688 2.6328125 17.15234375 C2.46523438 18.07144531 2.29765625 18.99054688 2.125 19.9375 C1.96257813 20.85402344 1.80015625 21.77054688 1.6328125 22.71484375 C1.31957031 23.84599609 1.31957031 23.84599609 1 25 C0.34 25.33 -0.32 25.66 -1 26 C-1.02886751 21.85418113 -1.04675327 17.70838784 -1.0625 13.5625 C-1.07087891 12.37849609 -1.07925781 11.19449219 -1.08789062 9.97460938 C-1.09111328 8.84990234 -1.09433594 7.72519531 -1.09765625 6.56640625 C-1.10289307 5.52427979 -1.10812988 4.48215332 -1.11352539 3.40844727 C-1 1 -1 1 0 0 Z " fill="#33679B" transform="translate(22,175)"/>
<path d="M0 0 C3.15805235 0.08597239 4.22473043 0.39685264 7.0625 2.0625 C11.2141085 6.5804269 11.4236921 10.3521015 11.1875 16.375 C10.8575 16.375 10.5275 16.375 10.1875 16.375 C9.8575 14.395 9.5275 12.415 9.1875 10.375 C8.8575 12.355 8.5275 14.335 8.1875 16.375 C7.8575 16.375 7.5275 16.375 7.1875 16.375 C7.06632813 15.74851563 6.94515625 15.12203125 6.8203125 14.4765625 C6.65273437 13.65929687 6.48515625 12.84203125 6.3125 12 C6.15007812 11.18789062 5.98765625 10.37578125 5.8203125 9.5390625 C5.32091068 7.18826077 5.32091068 7.18826077 3.1875 5.375 C-0.31587981 4.99419785 -2.17528626 4.97254922 -5.1875 6.875 C-5.72375 7.37 -6.26 7.865 -6.8125 8.375 C-7.4725 6.065 -8.1325 3.755 -8.8125 1.375 C-7.8225 1.705 -6.8325 2.035 -5.8125 2.375 C-3.8125 0.375 -3.8125 0.375 0 0 Z " fill="#3F6996" transform="translate(179.8125,183.625)"/>
<path d="M0 0 C0 2.6705913 -0.30854921 4.46468045 -1 7 C-1.06703125 7.66257813 -1.1340625 8.32515625 -1.203125 9.0078125 C-2 11 -2 11 -4.36328125 12.08984375 C-5.33652344 12.36957031 -6.30976563 12.64929688 -7.3125 12.9375 C-11.92324651 14.37406536 -11.92324651 14.37406536 -15.25 17.8125 C-15.8275 18.534375 -16.405 19.25625 -17 20 C-20.75 19.8125 -20.75 19.8125 -24 19 C-21.86213359 16.65567298 -19.91314521 15.35896681 -17.0625 14 C-10.46226375 10.4820523 -5.33649682 5.15590471 0 0 Z " fill="#F8F2E4" transform="translate(176,148)"/>
<path d="M0 0 C0.69738281 0.00451172 1.39476563 0.00902344 2.11328125 0.01367188 C3.82555803 0.0253998 5.53779033 0.04333347 7.25 0.0625 C6.755 0.68125 6.26 1.3 5.75 1.9375 C4.05777227 3.90130904 4.05777227 3.90130904 4.25 6.0625 C-5.04969244 6.75852688 -12.95121611 4.72232131 -21.75 2.0625 C-21.75 1.7325 -21.75 1.4025 -21.75 1.0625 C-21.07453125 1.07410156 -20.3990625 1.08570313 -19.703125 1.09765625 C-18.81109375 1.10667969 -17.9190625 1.11570313 -17 1.125 C-16.11828125 1.13660156 -15.2365625 1.14820313 -14.328125 1.16015625 C-11.84684365 1.16299243 -11.84684365 1.16299243 -9.90625 0.5625 C-6.62807091 -0.19765747 -3.34503636 -0.04110158 0 0 Z " fill="#F5871B" transform="translate(107.75,169.9375)"/>
<path d="M0 0 C5.23607896 -0.65450987 8.09046826 0.90309701 12.36328125 3.61328125 C14 5 14 5 15 8 C15.06802967 9.72795352 15.08495645 11.45835365 15.0625 13.1875 C15.05347656 14.08855469 15.04445313 14.98960937 15.03515625 15.91796875 C15.02355469 16.60503906 15.01195313 17.29210937 15 18 C13.68 18 12.36 18 11 18 C10.98582031 17.31292969 10.97164062 16.62585938 10.95703125 15.91796875 C10.81281758 13.19349969 10.6104757 10.66115816 10 8 C7.59256899 5.93545998 7.59256899 5.93545998 5 5 C5 4.34 5 3.68 5 3 C3.35 3 1.7 3 0 3 C0 2.01 0 1.02 0 0 Z " fill="#F18212" transform="translate(112,184)"/>
<path d="M0 0 C0.33 0.474375 0.66 0.94875 1 1.4375 C4.02866366 3.80364349 7.25278558 4.26816224 11 4 C13.38364143 2.92610681 14.95695718 1.68551032 17 0 C17 0.66 17 1.32 17 2 C17.99 2.33 18.98 2.66 20 3 C13.832 9.168 13.832 9.168 8.625 9.25 C7.15933594 9.28867188 7.15933594 9.28867188 5.6640625 9.328125 C3 9 3 9 1.1484375 7.734375 C-0.50896944 5.23135227 0 2.90444374 0 0 Z " fill="#EE8C25" transform="translate(106,200)"/>
<path d="M0 0 C1.20462891 -0.02126953 1.20462891 -0.02126953 2.43359375 -0.04296875 C4.5625 0.1875 4.5625 0.1875 6.5625 2.1875 C7.13666268 9.42194976 7.13666268 9.42194976 5.0625 12.1875 C4.5675 12.5175 4.0725 12.8475 3.5625 13.1875 C2.9025 12.8575 2.2425 12.5275 1.5625 12.1875 C1.8925 10.8675 2.2225 9.5475 2.5625 8.1875 C0.2525 7.8575 -2.0575 7.5275 -4.4375 7.1875 C-3.7775 5.8675 -3.1175 4.5475 -2.4375 3.1875 C-3.4275 2.5275 -4.4175 1.8675 -5.4375 1.1875 C-3.84855928 -0.40144072 -2.18948576 0.01751589 0 0 Z " fill="#F5FBF9" transform="translate(116.4375,189.8125)"/>
<path d="M0 0 C-0.66 1.32 -1.32 2.64 -2 4 C-3.27875 3.95875 -4.5575 3.9175 -5.875 3.875 C-8.01871492 3.75787127 -8.01871492 3.75787127 -10 4 C-10.66 4.66 -11.32 5.32 -12 6 C-12 5.34 -12 4.68 -12 4 C-13.65 4.66 -15.3 5.32 -17 6 C-17.33 5.34 -17.66 4.68 -18 4 C-17.34 3.67 -16.68 3.34 -16 3 C-17.65 2.67 -19.3 2.34 -21 2 C-15.30132869 -4.24140191 -7.22063113 -2.40687704 0 0 Z " fill="#396DA6" transform="translate(131,98)"/>
<path d="M0 0 C6.875 0.875 6.875 0.875 8 2 C8.36876368 5.03474371 8.38798707 7.96714331 8 11 C5.79700531 13.79610864 4.45031359 13.94485956 0.9375 14.375 C-2 14 -2 14 -3.875 12.5 C-4.24625 12.005 -4.6175 11.51 -5 11 C-4.67 10.01 -4.34 9.02 -4 8 C-1.36 8.33 1.28 8.66 4 9 C4 7.68 4 6.36 4 5 C2.0399719 3.36323743 2.0399719 3.36323743 0 2 C0 1.34 0 0.68 0 0 Z " fill="#456E98" transform="translate(71,195)"/>
<path d="M0 0 C1.5625 1.25 1.5625 1.25 3 3 C2.6875 5.1875 2.6875 5.1875 2 7 C1.01 6.67 0.02 6.34 -1 6 C-1.81434143 8.85160391 -2.11881242 11.36626131 -2.09765625 14.328125 C-2.09443359 15.12734375 -2.09121094 15.9265625 -2.08789062 16.75 C-2.07951172 17.575 -2.07113281 18.4 -2.0625 19.25 C-2.05798828 20.09046875 -2.05347656 20.9309375 -2.04882812 21.796875 C-2.03707961 23.86461401 -2.01914522 25.93231624 -2 28 C-1.67 28 -1.34 28 -1 28 C-1.33 31.63 -1.66 35.26 -2 39 C-7.07265959 31.39101061 -5.97532022 19.40859393 -4.3984375 10.6640625 C-3.27758273 6.89391463 -1.79785673 3.49409547 0 0 Z " fill="#FAE2C0" transform="translate(61,68)"/>
<path d="M0 0 C1.32 0 2.64 0 4 0 C4.57010112 5.586991 4.50227416 10.21268371 0.91015625 14.7578125 C-3.1707629 17.41166177 -8.348059 16.46741991 -13 16 C-13 15.34 -13 14.68 -13 14 C-11.948125 13.896875 -10.89625 13.79375 -9.8125 13.6875 C-4.87546766 12.87358015 -4.87546766 12.87358015 -1 10 C-0.27521037 6.67133652 -0.0701784 3.40046264 0 0 Z " fill="#EE861A" transform="translate(163,192)"/>
<path d="M0 0 C0.99 0.66 1.98 1.32 3 2 C2.67 2.99 2.34 3.98 2 5 C1.38511719 4.94199219 0.77023438 4.88398438 0.13671875 4.82421875 C-2.32022046 4.68706903 -4.5624735 4.6486839 -7 5 C-9.07976712 7.16071467 -9.07976712 7.16071467 -10 10 C-10.65702259 11.33811193 -11.32201037 12.6723885 -12 14 C-13.72739597 6.14975493 -13.72739597 6.14975493 -11.0625 1.9375 C-6.91078655 -0.68909423 -4.85367423 -0.54799548 0 0 Z " fill="#46709D" transform="translate(96,184)"/>
<path d="M0 0 C0 0.66 0 1.32 0 2 C-0.63808594 2.25394531 -1.27617188 2.50789063 -1.93359375 2.76953125 C-2.75988281 3.11371094 -3.58617188 3.45789063 -4.4375 3.8125 C-5.26121094 4.14894531 -6.08492187 4.48539063 -6.93359375 4.83203125 C-9.33372488 5.88403088 -9.33372488 5.88403088 -10 9 C-11.55859375 10.60546875 -11.55859375 10.60546875 -13.4375 12.1875 C-14.05496094 12.71730469 -14.67242187 13.24710938 -15.30859375 13.79296875 C-17 15 -17 15 -19 15 C-19.268125 15.598125 -19.53625 16.19625 -19.8125 16.8125 C-21.47370091 19.87260694 -22.81204519 21.62664277 -26.1875 22.6875 C-26.785625 22.790625 -27.38375 22.89375 -28 23 C-26.58226538 19.45566346 -25.32387762 18.66193881 -22 17 C-21.67 16.34 -21.34 15.68 -21 15 C-19.75491604 12.50983207 -18.53283204 12.01313282 -16 11 C-16 10.34 -16 9.68 -16 9 C-11.88334568 5.08917839 -5.97478964 0 0 0 Z " fill="#F18B20" transform="translate(72,17)"/>
<path d="M0 0 C0.99 0 1.98 0 3 0 C4.175625 1.485 4.175625 1.485 5.375 3 C7.63040444 6.25303847 7.63040444 6.25303847 10.625 6.3125 C11.40875 6.209375 12.1925 6.10625 13 6 C13.99 6.33 14.98 6.66 16 7 C16.33 6.67 16.66 6.34 17 6 C19.01594582 5.76572222 21.038474 5.58663876 23.0625 5.4375 C24.16722656 5.35371094 25.27195313 5.26992187 26.41015625 5.18359375 C27.69212891 5.09271484 27.69212891 5.09271484 29 5 C24.85326737 9.2838147 23.1250441 9.86065285 17.1875 10.25 C10.75451276 10.1543422 5.63196574 7.35949717 1 3 C0.67 2.01 0.34 1.02 0 0 Z " fill="#3B6A96" transform="translate(104,125)"/>
<path d="M0 0 C1.32 0.33 2.64 0.66 4 1 C-10.23529412 12 -10.23529412 12 -17 12 C-16.67 11.01 -16.34 10.02 -16 9 C-15.34 9.33 -14.68 9.66 -14 10 C-14 9.34 -14 8.68 -14 8 C-14.99 8 -15.98 8 -17 8 C-17 7.34 -17 6.68 -17 6 C-16.01 6 -15.02 6 -14 6 C-13.67 5.34 -13.34 4.68 -13 4 C-10.69 4.33 -8.38 4.66 -6 5 C-6 4.01 -6 3.02 -6 2 C-4.35 2.33 -2.7 2.66 -1 3 C-0.67 2.01 -0.34 1.02 0 0 Z " fill="#F6800C" transform="translate(161,158)"/>
<path d="M0 0 C0.99 0.33 1.98 0.66 3 1 C2.505 1.474375 2.01 1.94875 1.5 2.4375 C-0.67904173 6.16002963 -0.57291448 9.77382564 0 14 C0.94774126 16.22060641 0.94774126 16.22060641 2 18 C1.34 18.33 0.68 18.66 0 19 C-0.33 18.01 -0.66 17.02 -1 16 C-1.17015625 16.68707031 -1.3403125 17.37414062 -1.515625 18.08203125 C-1.75796875 18.98308594 -2.0003125 19.88414062 -2.25 20.8125 C-2.48203125 21.70582031 -2.7140625 22.59914062 -2.953125 23.51953125 C-4.15888432 26.37646099 -5.40101703 27.38369034 -8 29 C-7.67854004 28.43829102 -7.35708008 27.87658203 -7.02587891 27.29785156 C-5.90241943 24.78143067 -5.69140607 22.97655795 -5.5859375 20.234375 C-5.54726562 19.34492188 -5.50859375 18.45546875 -5.46875 17.5390625 C-5.4378125 16.61867187 -5.406875 15.69828125 -5.375 14.75 C-5.33632812 13.81414062 -5.29765625 12.87828125 -5.2578125 11.9140625 C-5.16375156 9.60956946 -5.07810601 7.30507987 -5 5 C-4.67 5 -4.34 5 -4 5 C-3.67 7.64 -3.34 10.28 -3 13 C-3.03480469 12.31292969 -3.06960937 11.62585938 -3.10546875 10.91796875 C-3.13253906 10.01691406 -3.15960938 9.11585938 -3.1875 8.1875 C-3.22230469 7.29417969 -3.25710937 6.40085938 -3.29296875 5.48046875 C-2.95081002 2.58352485 -2.24606427 1.77444972 0 0 Z " fill="#FBF1D9" transform="translate(142,187)"/>
<path d="M0 0 C0.1953125 6.0546875 0.1953125 6.0546875 0 8 C-2 10 -2 10 -5.4375 10.3125 C-9 10 -9 10 -10.9375 8.5 C-11.288125 8.005 -11.63875 7.51 -12 7 C-11.401875 6.731875 -10.80375 6.46375 -10.1875 6.1875 C-8.00278087 5.00150961 -6.70529205 3.77943518 -5 2 C-2 0 -2 0 0 0 Z " fill="#E3E5D9" transform="translate(160,195)"/>
<path d="M0 0 C0.66 0 1.32 0 2 0 C2 8.33333333 2 16.66666667 2 25 C1.01 25.33 0.02 25.66 -1 26 C-1.02886751 21.85418113 -1.04675327 17.70838784 -1.0625 13.5625 C-1.07087891 12.37849609 -1.07925781 11.19449219 -1.08789062 9.97460938 C-1.09111328 8.84990234 -1.09433594 7.72519531 -1.09765625 6.56640625 C-1.10289307 5.52427979 -1.10812988 4.48215332 -1.11352539 3.40844727 C-1 1 -1 1 0 0 Z " fill="#32639E" transform="translate(171,175)"/>
<path d="M0 0 C2.64 0 5.28 0 8 0 C8.33 2.31 8.66 4.62 9 7 C7.02 7.33 5.04 7.66 3 8 C2.67 8.99 2.34 9.98 2 11 C1.34 10.67 0.68 10.34 0 10 C0 6.7 0 3.4 0 0 Z " fill="#F9FBF9" transform="translate(150,190)"/>
<path d="M0 0 C0.33 0 0.66 0 1 0 C1.33 9.24 1.66 18.48 2 28 C-3 31 -3 31 -5.3125 30.6875 C-5.869375 30.460625 -6.42625 30.23375 -7 30 C-6.0409375 28.9790625 -6.0409375 28.9790625 -5.0625 27.9375 C-2.6741507 24.53591161 -2.32122847 22.09566299 -2 18 C-1.67 18 -1.34 18 -1 18 C-0.505 9.09 -0.505 9.09 0 0 Z " fill="#DBDFD8" transform="translate(169,176)"/>
<path d="M0 0 C1.37478516 0.01740234 1.37478516 0.01740234 2.77734375 0.03515625 C3.69644531 0.04417969 4.61554688 0.05320313 5.5625 0.0625 C6.27277344 0.07410156 6.98304687 0.08570313 7.71484375 0.09765625 C10.28264846 3.93925385 9.94173257 7.91157375 9.83984375 12.34765625 C9.83082031 13.09273437 9.82179688 13.8378125 9.8125 14.60546875 C9.78902733 16.43633684 9.753159 18.26703863 9.71484375 20.09765625 C8.39484375 19.76765625 7.07484375 19.43765625 5.71484375 19.09765625 C6.04484375 18.76765625 6.37484375 18.43765625 6.71484375 18.09765625 C6.95012148 15.74778363 7.12870792 13.39209586 7.27734375 11.03515625 C7.36113281 9.74480469 7.44492188 8.45445312 7.53125 7.125 C7.59183594 6.12597656 7.65242188 5.12695312 7.71484375 4.09765625 C6.39484375 4.09765625 5.07484375 4.09765625 3.71484375 4.09765625 C1.2869944 3.2305672 -0.98104136 2.2497137 -3.28515625 1.09765625 C-2.28515625 0.09765625 -2.28515625 0.09765625 0 0 Z " fill="#EDF7F8" transform="translate(91.28515625,187.90234375)"/>
<path d="M0 0 C3 1 3 1 4.125 3 C4.41375 3.66 4.7025 4.32 5 5 C5.33 5.33 5.66 5.66 6 6 C6.66 5.34 7.32 4.68 8 4 C7.67 6.31 7.34 8.62 7 11 C6.01 11 5.02 11 4 11 C4 11.66 4 12.32 4 13 C2 13 2 13 0.390625 11.7890625 C-1.38520448 9.50442794 -1.34316142 8.23505562 -1.25 5.375 C-1.23453125 4.57835937 -1.2190625 3.78171875 -1.203125 2.9609375 C-1 1 -1 1 0 0 Z " fill="#FBFDFA" transform="translate(29,189)"/>
<path d="M0 0 C0.66 0.66 1.32 1.32 2 2 C2.66 1.34 3.32 0.68 4 0 C4 7.92 4 15.84 4 24 C2.68 24 1.36 24 0 24 C0 16.08 0 8.16 0 0 Z " fill="#F1841A" transform="translate(168,80)"/>
<path d="M0 0 C0.33 0 0.66 0 1 0 C1.02911003 3.89581756 1.04683587 7.791607 1.0625 11.6875 C1.07087891 12.79029297 1.07925781 13.89308594 1.08789062 15.02929688 C1.09111328 16.09599609 1.09433594 17.16269531 1.09765625 18.26171875 C1.10289307 19.24100342 1.10812988 20.22028809 1.11352539 21.22924805 C1.00308543 23.92469572 0.60534166 26.37545639 0 29 C-0.33 28.01 -0.66 27.02 -1 26 C-1.66 26 -2.32 26 -3 26 C-2.67 20.39 -2.34 14.78 -2 9 C-1.67 9 -1.34 9 -1 9 C-0.67 6.03 -0.34 3.06 0 0 Z " fill="#F2891F" transform="translate(198,80)"/>
<path d="M0 0 C0.66 0 1.32 0 2 0 C2 2.64 2 5.28 2 8 C1.34 8 0.68 8 0 8 C0.33 10.64 0.66 13.28 1 16 C3.31 16.66 5.62 17.32 8 18 C7.34 18.99 6.68 19.98 6 21 C3.5 21.3125 3.5 21.3125 1 21 C-1 19 -1 19 -1.24291992 17.13647461 C-1.23881104 16.39921143 -1.23470215 15.66194824 -1.23046875 14.90234375 C-1.22853516 14.10119141 -1.22660156 13.30003906 -1.22460938 12.47460938 C-1.21236328 11.63736328 -1.20011719 10.80011719 -1.1875 9.9375 C-1.18685547 9.09638672 -1.18621094 8.25527344 -1.18554688 7.38867188 C-1.14023184 1.14023184 -1.14023184 1.14023184 0 0 Z " fill="#F3FCFB" transform="translate(50,184)"/>
<path d="M0 0 C1.52185913 0.24447876 1.52185913 0.24447876 3.07446289 0.49389648 C6.71376909 0.96309741 10.14376511 1.11454486 13.80859375 1.09765625 C15.66967773 1.09282227 15.66967773 1.09282227 17.56835938 1.08789062 C18.84517578 1.07951172 20.12199219 1.07113281 21.4375 1.0625 C22.74138672 1.05798828 24.04527344 1.05347656 25.38867188 1.04882812 C28.59249552 1.03709251 31.79622363 1.02067363 35 1 C27.68209166 5.87860556 15.93839664 4.95011658 7.5078125 3.328125 C4.96919124 2.62917993 2.48011824 1.88275395 0 1 C0 0.67 0 0.34 0 0 Z " fill="#FBDCB5" transform="translate(93,144)"/>
<path d="M0 0 C6.57315478 -0.36517527 11.79485526 0.86380263 18 3 C18 3.66 18 4.32 18 5 C17.505 4.835 17.01 4.67 16.5 4.5 C11.64435187 3.52887037 7.58385551 3.24250389 3.125 5.375 C0.94080167 6.97108919 0.94080167 6.97108919 -1 9 C-0.67 6.03 -0.34 3.06 0 0 Z " fill="#FAF2DF" transform="translate(104,181)"/>
<path d="M0 0 C0.74330566 0.00045822 1.48661133 0.00091644 2.25244141 0.00138855 C3.8226074 0.00440699 5.39277051 0.01228113 6.96289062 0.0246582 C9.36599338 0.04290038 11.76871026 0.0451679 14.171875 0.04492188 C15.69792 0.04983795 17.22396238 0.05566666 18.75 0.0625 C19.82822021 0.06416924 19.82822021 0.06416924 20.92822266 0.06587219 C24.01303583 0.09521145 26.42549487 0.24730037 29.375 1.23046875 C29.375 1.89046875 29.375 2.55046875 29.375 3.23046875 C28.116875 3.25109375 26.85875 3.27171875 25.5625 3.29296875 C24.85480469 3.30457031 24.14710938 3.31617188 23.41796875 3.328125 C21.375 3.23046875 21.375 3.23046875 18.375 2.23046875 C16.16410055 2.14687917 13.95073922 2.12315111 11.73828125 2.1328125 C10.43955078 2.13603516 9.14082031 2.13925781 7.80273438 2.14257812 C6.43098892 2.15093344 5.05924413 2.15939838 3.6875 2.16796875 C2.30403805 2.1729854 0.92057437 2.17754802 -0.46289062 2.18164062 C-3.85030395 2.19344346 -7.23763033 2.20990856 -10.625 2.23046875 C-6.96246875 -0.21121875 -4.23154236 -0.04230001 0 0 Z " fill="#FDE7BD" transform="translate(106.625,5.76953125)"/>
<path d="M0 0 C0.33 0 0.66 0 1 0 C1.33 1.65 1.66 3.3 2 5 C2.33 5 2.66 5 3 5 C4.03590199 10.05002222 4.10251672 14.87416389 4 20 C3.34 19.67 2.68 19.34 2 19 C1.59270772 16.67843403 1.25561323 14.3431213 1 12 C0.67 15.63 0.34 19.26 0 23 C-0.33 23 -0.66 23 -1 23 C-1.02902429 19.72918529 -1.04680684 16.4584037 -1.0625 13.1875 C-1.07087891 12.25873047 -1.07925781 11.32996094 -1.08789062 10.37304688 C-1.09111328 9.48037109 -1.09433594 8.58769531 -1.09765625 7.66796875 C-1.10289307 6.84578857 -1.10812988 6.0236084 -1.11352539 5.17651367 C-1 3 -1 3 0 0 Z " fill="#F0922E" transform="translate(27,77)"/>
<path d="M0 0 C0.99 0 1.98 0 3 0 C3 6.93 3 13.86 3 21 C0.10945348 18.10945348 0.00716552 16.27830867 -0.09765625 12.20703125 C-0.09102785 10.74215562 -0.07913087 9.27729622 -0.0625 7.8125 C-0.05798828 7.06291016 -0.05347656 6.31332031 -0.04882812 5.54101562 C-0.03706354 3.69397617 -0.01912865 1.84697787 0 0 Z " fill="#32649C" transform="translate(45,184)"/>
<path d="M0 0 C0.66 0 1.32 0 2 0 C2 1.65 2 3.3 2 5 C1.01 5 0.02 5 -1 5 C-0.67 6.65 -0.34 8.3 0 10 C0.99 9.67 1.98 9.34 3 9 C3.33 9.99 3.66 10.98 4 12 C3.01 13.485 3.01 13.485 2 15 C1.67 14.01 1.34 13.02 1 12 C-0.7325 11.3503125 -0.7325 11.3503125 -2.5 10.6875 C-3.655 10.130625 -4.81 9.57375 -6 9 C-6.9375 5.8125 -6.9375 5.8125 -7 3 C-4.36 3.33 -1.72 3.66 1 4 C0.67 2.68 0.34 1.36 0 0 Z " fill="#DBE7EE" transform="translate(204,185)"/>
<path d="M0 0 C0.66 0.99 1.32 1.98 2 3 C0.5433323 4.14795006 -0.91538937 5.29329419 -2.375 6.4375 C-3.18710938 7.07558594 -3.99921875 7.71367188 -4.8359375 8.37109375 C-7 10 -7 10 -9 11 C-9.74714785 8.31026772 -10.1205535 6.48221402 -9.4375 3.75 C-8 2 -8 2 -4.9375 1.1875 C-3.968125 1.125625 -2.99875 1.06375 -2 1 C-1.67 1.33 -1.34 1.66 -1 2 C-0.67 1.34 -0.34 0.68 0 0 Z " fill="#F58311" transform="translate(82,40)"/>
<path d="M0 0 C2.31 0 4.62 0 7 0 C6.88985294 3.25068154 6.75928788 6.50023328 6.625 9.75 C6.5940625 10.67039063 6.563125 11.59078125 6.53125 12.5390625 C6.49257813 13.42851562 6.45390625 14.31796875 6.4140625 15.234375 C6.3826416 16.05131836 6.3512207 16.86826172 6.31884766 17.70996094 C5.97656307 20.16832958 5.2260723 21.85759999 4 24 C2.68 23.67 1.36 23.34 0 23 C0.66 22.4225 1.32 21.845 2 21.25 C5.02015798 16.34224328 4.78910611 11.62238103 4 6 C2.92274139 3.48794436 1.83666121 2.06624386 0 0 Z " fill="#EEF6F9" transform="translate(36,184)"/>
<path d="M0 0 C0.33 0 0.66 0 1 0 C1.05394705 2.60444348 1.09364469 5.20776998 1.125 7.8125 C1.14175781 8.55048828 1.15851563 9.28847656 1.17578125 10.04882812 C1.21074628 13.91246426 1.19397555 15.70903668 -1 19 C-4.625 19.6875 -4.625 19.6875 -8 20 C-8.33 18.68 -8.66 17.36 -9 16 C-7.5459375 15.814375 -7.5459375 15.814375 -6.0625 15.625 C-5.051875 15.41875 -4.04125 15.2125 -3 15 C-2.67 14.34 -2.34 13.68 -2 13 C-1.67 13 -1.34 13 -1 13 C-0.67 8.71 -0.34 4.42 0 0 Z " fill="#ED8313" transform="translate(135,197)"/>
<path d="M0 0 C3.4375 1.1875 3.4375 1.1875 7 3 C8 5.625 8 5.625 8 8 C7 9 7 9 4.4375 9.0625 C3.633125 9.041875 2.82875 9.02125 2 9 C1.67 8.01 1.34 7.02 1 6 C0.01 5.67 -0.98 5.34 -2 5 C-1.34 4.34 -0.68 3.68 0 3 C0 2.01 0 1.02 0 0 Z " fill="#D9E9F0" transform="translate(68,196)"/>
<path d="M0 0 C0.33 0 0.66 0 1 0 C1.19335938 1.00160156 1.38671875 2.00320312 1.5859375 3.03515625 C1.84880049 4.37763508 2.11183026 5.72008127 2.375 7.0625 C2.50132813 7.71927734 2.62765625 8.37605469 2.7578125 9.05273438 C3.62384507 13.44784965 4.71626553 17.70786171 6 22 C5.34 22 4.68 22 4 22 C4 21.34 4 20.68 4 20 C3.01 20.33 2.02 20.66 1 21 C1 19.35 1 17.7 1 16 C0.01 17.32 -0.98 18.64 -2 20 C-2 17.36 -2 14.72 -2 12 C-1.01 12 -0.02 12 1 12 C0.67 11.01 0.34 10.02 0 9 C-0.06740865 7.43881572 -0.08514456 5.8749748 -0.0625 4.3125 C-0.05347656 3.50425781 -0.04445313 2.69601563 -0.03515625 1.86328125 C-0.01775391 0.94095703 -0.01775391 0.94095703 0 0 Z " fill="#FAF1D9" transform="translate(26,100)"/>
<path d="M0 0 C-0.33 0.66 -0.66 1.32 -1 2 C-3.33333333 2.33333333 -5.66666667 2.66666667 -8 3 C-8.33 3.66 -8.66 4.32 -9 5 C-12.3 5 -15.6 5 -19 5 C-19 5.99 -19 6.98 -19 8 C-21.97 7.505 -21.97 7.505 -25 7 C-22.5474195 4.5474195 -20.53774752 4.01296965 -17.25 2.9375 C-16.22390625 2.59589844 -15.1978125 2.25429687 -14.140625 1.90234375 C-9.39550769 0.53900781 -4.93441616 -0.14512989 0 0 Z " fill="#EE8618" transform="translate(101,8)"/>
<path d="M0 0 C0 0.66 0 1.32 0 2 C-3.1999003 5.01704885 -5.61537866 6.49890042 -10 7 C-9.01 7.66 -8.02 8.32 -7 9 C-8.65 9 -10.3 9 -12 9 C-12 8.34 -12 7.68 -12 7 C-14.64 7 -17.28 7 -20 7 C-20 6.67 -20 6.34 -20 6 C-19.03578125 5.73445312 -18.0715625 5.46890625 -17.078125 5.1953125 C-15.81484375 4.84210938 -14.5515625 4.48890625 -13.25 4.125 C-11.37054688 3.60292969 -11.37054688 3.60292969 -9.453125 3.0703125 C-6.30791769 2.09544055 -3.2633473 0 0 0 Z " fill="#EF8E2A" transform="translate(140,141)"/>
<path d="M0 0 C0.495 0.309375 0.99 0.61875 1.5 0.9375 C3.91775088 1.96504412 5.48484227 2.18037023 8.0625 2.375 C12 3 12 3 15 7 C9.555 7.495 9.555 7.495 4 8 C3.67 7.34 3.34 6.68 3 6 C3.99 5.67 4.98 5.34 6 5 C3.69 4.67 1.38 4.34 -1 4 C-0.67 2.68 -0.34 1.36 0 0 Z " fill="#FCFBF4" transform="translate(145,206)"/>
<path d="M0 0 C1 4 1 4 0.5 5.875 C-0.17626517 8.74912698 0.49858124 11.11684213 1 14 C0.67 14.66 0.34 15.32 0 16 C-0.66 16 -1.32 16 -2 16 C-2.33 15.34 -2.66 14.68 -3 14 C-3.99 13.34 -4.98 12.68 -6 12 C-4.02 8.04 -2.04 4.08 0 0 Z " fill="#F48212" transform="translate(166,110)"/>
<path d="M0 0 C-5.36190101 2.61407872 -10.03435204 4.49228528 -16 5 C-16.33 6.32 -16.66 7.64 -17 9 C-17.99 8.67 -18.98 8.34 -20 8 C-20.33 8.99 -20.66 9.98 -21 11 C-22.32 10.67 -23.64 10.34 -25 10 C-19.85890656 5.63997971 -15.73089413 2.42384299 -9 1 C-7.6696875 0.4121875 -7.6696875 0.4121875 -6.3125 -0.1875 C-3.66002974 -1.11944901 -2.6258373 -0.77945907 0 0 Z " fill="#FBDEB5" transform="translate(102,37)"/>
<path d="M0 0 C1.32 0.33 2.64 0.66 4 1 C4.33 1.66 4.66 2.32 5 3 C4.67 3.66 4.34 4.32 4 5 C6.97 5.495 6.97 5.495 10 6 C10 6.66 10 7.32 10 8 C8.72125 8.309375 7.4425 8.61875 6.125 8.9375 C3.89898325 9.47605244 2.05260001 9.9737 0 11 C0 7.37 0 3.74 0 0 Z " fill="#DFEAEE" transform="translate(24,176)"/>
<path d="M0 0 C10.56 0 21.12 0 32 0 C32 0.66 32 1.32 32 2 C25.45543114 3.03376206 19.23326444 3.00697239 12.625 2.6875 C11.13033203 2.63432617 11.13033203 2.63432617 9.60546875 2.58007812 C8.65542969 2.53689453 7.70539063 2.49371094 6.7265625 2.44921875 C5.86627441 2.41143311 5.00598633 2.37364746 4.11962891 2.3347168 C2 2 2 2 0 0 Z " fill="#FDF7DF" transform="translate(96,175)"/>
<path d="M0 0 C1.485 0.99 1.485 0.99 3 2 C3 2.66 3 3.32 3 4 C3.99 4.33 4.98 4.66 6 5 C6 5.66 6 6.32 6 7 C6.99 7.33 7.98 7.66 9 8 C10.1875 10.0625 10.1875 10.0625 11 12 C10.01 11.67 9.02 11.34 8 11 C7.67 10.34 7.34 9.68 7 9 C6.1028125 9.3403125 6.1028125 9.3403125 5.1875 9.6875 C3 10 3 10 1.25 9 C-0.6042019 6.03327697 -0.19330356 3.41502959 0 0 Z " fill="#F18C23" transform="translate(66,124)"/>
<path d="M0 0 C0.99 0 1.98 0 3 0 C2.84660156 1.11375 2.69320313 2.2275 2.53515625 3.375 C1.92693771 8.24074836 1.66688586 13.10392803 1.4375 18 C1.39431641 18.87011719 1.35113281 19.74023438 1.30664062 20.63671875 C1.20175782 22.75768219 1.10049925 24.87882433 1 27 C0.67 27 0.34 27 0 27 C-0.19713345 23.25044125 -0.3810316 19.50034696 -0.5625 15.75 C-0.61857422 14.68652344 -0.67464844 13.62304688 -0.73242188 12.52734375 C-0.78076172 11.50253906 -0.82910156 10.47773437 -0.87890625 9.421875 C-0.9260376 8.47924805 -0.97316895 7.53662109 -1.02172852 6.56542969 C-1.00150258 4.17740544 -0.69460602 2.27325608 0 0 Z " fill="#FBF3DC" transform="translate(25,72)"/>
<path d="M0 0 C1.7290774 -0.02725341 3.45828176 -0.04650987 5.1875 -0.0625 C6.15042969 -0.07410156 7.11335938 -0.08570313 8.10546875 -0.09765625 C10.85576513 -0.00486622 13.32479591 0.37888315 16 1 C12.71329905 4.42960099 9.59994573 4.3828007 5.12109375 4.49609375 C3 4 3 4 1.22265625 1.97265625 C0.81917969 1.32167969 0.41570312 0.67070312 0 0 Z " fill="#F88008" transform="translate(120,171)"/>
<path d="M0 0 C0.70125 0.639375 1.4025 1.27875 2.125 1.9375 C5.22841233 4.16386102 7.24620139 4.65080943 11 5 C11 5.33 11 5.66 11 6 C8.69 6 6.38 6 4 6 C4 6.66 4 7.32 4 8 C7.3 8 10.6 8 14 8 C14 8.33 14 8.66 14 9 C4.00437637 9.63019694 4.00437637 9.63019694 -0.1875 7 C-0.785625 6.34 -1.38375 5.68 -2 5 C-1.01 4.67 -0.02 4.34 1 4 C0.34 3.67 -0.32 3.34 -1 3 C-0.67 2.01 -0.34 1.02 0 0 Z " fill="#EA902F" transform="translate(146,200)"/>
<path d="M0 0 C-0.639375 0.28875 -1.27875 0.5775 -1.9375 0.875 C-4.15206079 1.82823451 -4.15206079 1.82823451 -5 4 C-6.65 3.67 -8.3 3.34 -10 3 C-9.67 5.97 -9.34 8.94 -9 12 C-9.66 11.67 -10.32 11.34 -11 11 C-11 9.02 -11 7.04 -11 5 C-11.66 5 -12.32 5 -13 5 C-12.06788763 2.66971908 -11.30996602 1.24108468 -9.3125 -0.3125 C-6.0239998 -1.29016222 -3.32480873 -0.63938629 0 0 Z " fill="#306699" transform="translate(119,100)"/>
<path d="M0 0 C1.16015625 0.30744141 1.16015625 0.30744141 2.34375 0.62109375 C8.2359543 2.14519115 13.94061808 3.41736712 20 4 C20 4.33 20 4.66 20 5 C19.20335938 5.06058594 18.40671875 5.12117187 17.5859375 5.18359375 C9.75667303 5.79667866 9.75667303 5.79667866 2 7 C1.67 6.34 1.34 5.68 1 5 C2.32 4.67 3.64 4.34 5 4 C2.525 3.01 2.525 3.01 0 2 C0 1.34 0 0.68 0 0 Z " fill="#F48211" transform="translate(92,144)"/>
<path d="M0 0 C7.33115611 -0.48073155 7.33115611 -0.48073155 10 1.4375 C11.4941922 5.26636751 11.23421553 8.94026421 11 13 C10.01 13.495 10.01 13.495 9 14 C9 11.69 9 9.38 9 7 C8.34 7 7.68 7 7 7 C7 5.02 7 3.04 7 1 C4.69 1 2.38 1 0 1 C0 0.67 0 0.34 0 0 Z " fill="#F9E9C9" transform="translate(151,188)"/>
<path d="M0 0 C1.32 0.66 2.64 1.32 4 2 C3.28547412 6.76350585 2.20465156 11.34201396 1 16 C-1.49310643 12.26034036 -1.0603261 10.70929359 -0.625 6.3125 C-0.51414062 5.13300781 -0.40328125 3.95351563 -0.2890625 2.73828125 C-0.19367187 1.83464844 -0.09828125 0.93101563 0 0 Z " fill="#F9EFD9" transform="translate(28,56)"/>
<path d="M0 0 C2 2 2 2 2.046875 4.4609375 C1.94890625 5.42257813 1.8509375 6.38421875 1.75 7.375 C1.61851563 8.80972656 1.61851563 8.80972656 1.484375 10.2734375 C1.0201582 12.88652882 0.31988824 14.71724247 -1 17 C-2.0748291 10.72532201 -1.88341198 6.09339169 0 0 Z " fill="#F58417" transform="translate(30,64)"/>
<path d="M0 0 C3.73884332 2.65654657 5.64978174 4.58110387 7 9 C6.236875 8.79375 5.47375 8.5875 4.6875 8.375 C1.78114056 7.66608797 1.78114056 7.66608797 -1 10 C-2.125 6.25 -2.125 6.25 -1 4 C-0.34 4 0.32 4 1 4 C0.67 2.68 0.34 1.36 0 0 Z " fill="#F1881B" transform="translate(178,36)"/>
<path d="M0 0 C1.66926454 0.97473126 3.33535642 1.95489789 5 2.9375 C6.3921875 3.75541016 6.3921875 3.75541016 7.8125 4.58984375 C8.534375 5.05519531 9.25625 5.52054688 10 6 C10 6.33 10 6.66 10 7 C2.375 8.25 2.375 8.25 -1 6 C-0.67 4.02 -0.34 2.04 0 0 Z " fill="#F48314" transform="translate(153,16)"/>
<path d="M0 0 C2.52588702 2.36292656 3.88820837 3.66462511 5 7 C5.03954234 9.33299825 5.04401732 11.66708189 5 14 C4.67 14 4.34 14 4 14 C3.67 12.02 3.34 10.04 3 8 C2.67 9.98 2.34 11.96 2 14 C1.67 14 1.34 14 1 14 C0.86722656 13.37351563 0.73445312 12.74703125 0.59765625 12.1015625 C0.42105469 11.28429687 0.24445313 10.46703125 0.0625 9.625 C-0.11152344 8.81289062 -0.28554687 8.00078125 -0.46484375 7.1640625 C-0.92330693 4.970537 -0.92330693 4.970537 -2 3 C-1.34 3 -0.68 3 0 3 C0 2.01 0 1.02 0 0 Z " fill="#507CA0" transform="translate(186,186)"/>
<path d="M0 0 C2.64 0 5.28 0 8 0 C6.44499019 3.81684226 3.96404505 6.19195732 1 9 C0.67 6.03 0.34 3.06 0 0 Z " fill="#F48313" transform="translate(64,51)"/>
<path d="M0 0 C0.33 0 0.66 0 1 0 C1.10957031 0.59167969 1.21914062 1.18335938 1.33203125 1.79296875 C2.25914403 6.41345763 3.22351335 10.0876779 6 14 C5.01 14 4.02 14 3 14 C2.67 14.99 2.34 15.98 2 17 C-0.49118953 13.2632157 -0.2065226 11.25548181 -0.125 6.8125 C-0.10695313 5.54019531 -0.08890625 4.26789063 -0.0703125 2.95703125 C-0.04710938 1.98121094 -0.02390625 1.00539062 0 0 Z " fill="#FAEDD0" transform="translate(101,194)"/>
<path d="M0 0 C0.474375 0.495 0.94875 0.99 1.4375 1.5 C2.75923698 3.11542197 2.75923698 3.11542197 4 3 C4.96891192 8.37305699 4.96891192 8.37305699 5 11 C3.5625 13 3.5625 13 2 14 C0.09391902 10.78817851 -0.22266247 8.46117397 -0.125 4.75 C-0.09792969 3.41195312 -0.09792969 3.41195312 -0.0703125 2.046875 C-0.04710938 1.37140625 -0.02390625 0.6959375 0 0 Z " fill="#557BA4" transform="translate(82,191)"/>
<path d="M0 0 C5.53846154 -0.36923077 5.53846154 -0.36923077 7.875 1.5 C8.24625 1.995 8.6175 2.49 9 3 C8.34 5.31 7.68 7.62 7 10 C5.5 8.6875 5.5 8.6875 4 7 C4 6.01 4 5.02 4 4 C3.01 3.67 2.02 3.34 1 3 C1.66 2.67 2.32 2.34 3 2 C2.01 1.34 1.02 0.68 0 0 Z " fill="#F0F6F5" transform="translate(28,188)"/>
<path d="M0 0 C0.33 1.98 0.66 3.96 1 6 C0.01 6 -0.98 6 -2 6 C-2.33 5.34 -2.66 4.68 -3 4 C-3.66 4.66 -4.32 5.32 -5 6 C-8.125 6.125 -8.125 6.125 -11 6 C-9.68 5.67 -8.36 5.34 -7 5 C-7 4.34 -7 3.68 -7 3 C-7.66 2.67 -8.32 2.34 -9 2 C-5.62902617 0.50178941 -3.79557881 0 0 0 Z " fill="#4C6E91" transform="translate(61,203)"/>
<path d="M0 0 C3.33773709 3.64116773 3.97864902 7.28607242 5 12 C1.15625 11.2109375 1.15625 11.2109375 -0.25 9.3125 C-1.18415397 6.43219192 -1.20062466 4.00936987 -1 1 C-0.67 0.67 -0.34 0.34 0 0 Z " fill="#F2810F" transform="translate(103,194)"/>
<path d="M0 0 C6.875 0.875 6.875 0.875 8 2 C8.14115161 4.67058851 8.04247107 7.32432238 8 10 C7.67 9.34 7.34 8.68 7 8 C6.34 8 5.68 8 5 8 C4.67 7.01 4.34 6.02 4 5 C2.67151309 3.99357052 1.33849671 2.99307821 0 2 C0 1.34 0 0.68 0 0 Z " fill="#396995" transform="translate(71,195)"/>
<path d="M0 0 C0.66 0.33 1.32 0.66 2 1 C0.68 3.31 -0.64 5.62 -2 8 C-4.64 7.67 -7.28 7.34 -10 7 C-7.20283196 3.70921407 -3.80471422 1.93694542 0 0 Z " fill="#FAE5C8" transform="translate(162,160)"/>
<path d="M0 0 C0.33 0.66 0.66 1.32 1 2 C-1.52128009 7.445965 -3.8090199 10.05057949 -9 13 C-9.66 12.67 -10.32 12.34 -11 12 C-10.04882866 10.8274869 -9.08882991 9.66212985 -8.125 8.5 C-7.32449219 7.52546875 -7.32449219 7.52546875 -6.5078125 6.53125 C-6.01023438 6.0259375 -5.51265625 5.520625 -5 5 C-4.34 5 -3.68 5 -3 5 C-2.690625 4.360625 -2.38125 3.72125 -2.0625 3.0625 C-1 1 -1 1 0 0 Z " fill="#EA9133" transform="translate(159,123)"/>
<path d="M0 0 C0 1.66666667 0 3.33333333 0 5 C-0.66 5 -1.32 5 -2 5 C-2 4.34 -2 3.68 -2 3 C-2.99 3.33 -3.98 3.66 -5 4 C-7.35188447 3.40206327 -9.68925595 2.74118205 -12 2 C-8.38983318 -0.40677788 -4.12558991 -2.06279495 0 0 Z " fill="#F5F8F7" transform="translate(36,209)"/>
<path d="M0 0 C0.66 3.96 1.32 7.92 2 12 C0.35 12.33 -1.3 12.66 -3 13 C-3.2493357 11.39884424 -3.47378648 9.79379841 -3.6875 8.1875 C-3.81511719 7.29417969 -3.94273438 6.40085938 -4.07421875 5.48046875 C-4 3 -4 3 -2.58203125 1.17578125 C-1 0 -1 0 0 0 Z " fill="#DAE7F1" transform="translate(82,193)"/>
<path d="M0 0 C2 2 2 2 2 5 C-3.94 3.515 -3.94 3.515 -10 2 C-6.8820123 -1.1179877 -4.12216267 -1.51145965 0 0 Z " fill="#F2891D" transform="translate(132,34)"/>
<path d="M0 0 C2.31 0.33 4.62 0.66 7 1 C7 5.29 7 9.58 7 14 C6.67 14 6.34 14 6 14 C5.7525 12.80375 5.505 11.6075 5.25 10.375 C4.22617481 6.20550902 2.56321852 3.4176247 0 0 Z " fill="#F9F3E1" transform="translate(162,186)"/>
<path d="M0 0 C3.3 0.33 6.6 0.66 10 1 C10.33 2.98 10.66 4.96 11 7 C6.00724943 5.72278474 3.42388092 3.82669043 0 0 Z " fill="#F8EACF" transform="translate(77,135)"/>
<path d="M0 0 C1.65 0 3.3 0 5 0 C5 0.33 5 0.66 5 1 C10.28 1.33 15.56 1.66 21 2 C21 2.33 21 2.66 21 3 C10.11 3.495 10.11 3.495 -1 4 C-0.67 2.68 -0.34 1.36 0 0 Z " fill="#EF8821" transform="translate(99,32)"/>
<path d="M0 0 C1.65 0.33 3.3 0.66 5 1 C4.67 2.65 4.34 4.3 4 6 C2.35 5.67 0.7 5.34 -1 5 C-0.67 3.35 -0.34 1.7 0 0 Z " fill="#547BA6" transform="translate(114,197)"/>
<path d="M0 0 C3 2 3 2 3.3984375 3.875 C3.39070313 4.57625 3.38296875 5.2775 3.375 6 C3.38273437 6.70125 3.39046875 7.4025 3.3984375 8.125 C3 10 3 10 0 12 C-0.19477739 10.37585622 -0.38059458 8.75063577 -0.5625 7.125 C-0.66691406 6.22007812 -0.77132812 5.31515625 -0.87890625 4.3828125 C-1 2 -1 2 0 0 Z " fill="#FAECD5" transform="translate(120,190)"/>
<path d="M0 0 C0.391875 0.61875 0.78375 1.2375 1.1875 1.875 C3.27717491 4.32496368 4.97463327 5.01879998 8 6 C7.01 6.66 6.02 7.32 5 8 C4.01 7.34 3.02 6.68 2 6 C2 6.66 2 7.32 2 8 C0.68 7.67 -0.64 7.34 -2 7 C-2.33 5.68 -2.66 4.36 -3 3 C-2.01 3.33 -1.02 3.66 0 4 C0 2.68 0 1.36 0 0 Z " fill="#4E7BA1" transform="translate(69,189)"/>
<path d="M0 0 C5.625 -0.25 5.625 -0.25 9 2 C8.67 2.99 8.34 3.98 8 5 C3.545 4.01 3.545 4.01 -1 3 C-0.67 2.01 -0.34 1.02 0 0 Z " fill="#396494" transform="translate(90,184)"/>
<path d="M0 0 C1.32 0.66 2.64 1.32 4 2 C-4.91 2.99 -4.91 2.99 -14 4 C-9.76730624 -0.23269376 -5.81757489 -0.65880407 0 0 Z " fill="#51769A" transform="translate(124,96)"/>
<path d="M0 0 C1.51953125 1.36328125 1.51953125 1.36328125 3 3 C2.6875 5.1875 2.6875 5.1875 2 7 C1.01 6.67 0.02 6.34 -1 6 C-1.99 9.465 -1.99 9.465 -3 13 C-3.93045933 10.44855176 -4.08564091 9.25993522 -3.22265625 6.640625 C-2.83980469 5.85171875 -2.45695312 5.0628125 -2.0625 4.25 C-1.68222656 3.45078125 -1.30195312 2.6515625 -0.91015625 1.828125 C-0.60980469 1.22484375 -0.30945312 0.6215625 0 0 Z " fill="#FAEBD2" transform="translate(61,68)"/>
<path d="M0 0 C2.31 0.66 4.62 1.32 7 2 C6.01 2.495 6.01 2.495 5 3 C5 3.66 5 4.32 5 5 C5.99 5.33 6.98 5.66 8 6 C2.375 6.25 2.375 6.25 -1 4 C-0.67 2.68 -0.34 1.36 0 0 Z " fill="#52729A" transform="translate(194,203)"/>
<path d="M0 0 C0.33 0.99 0.66 1.98 1 3 C1.66 3 2.32 3 3 3 C2 6 2 6 -1 8 C-1.66 7.67 -2.32 7.34 -3 7 C-3.33 8.32 -3.66 9.64 -4 11 C-4.66 10.67 -5.32 10.34 -6 10 C-4.02 6.7 -2.04 3.4 0 0 Z " fill="#F9EBD0" transform="translate(189,131)"/>
<path d="M0 0 C0.33 0 0.66 0 1 0 C1.47183746 4.05780213 1.33329645 5.56195324 -1.1875 8.875 C-4 11 -4 11 -6.8125 11.3125 C-7.534375 11.209375 -8.25625 11.10625 -9 11 C-9 10.34 -9 9.68 -9 9 C-7.35 9 -5.7 9 -4 9 C-4 8.01 -4 7.02 -4 6 C-3.01 6 -2.02 6 -1 6 C-0.67 4.02 -0.34 2.04 0 0 Z " fill="#D4E6F1" transform="translate(37,194)"/>
<path d="M0 0 C0.99 0.66 1.98 1.32 3 2 C3 2.66 3 3.32 3 4 C2.01 4 1.02 4 0 4 C0 7.3 0 10.6 0 14 C-0.99 14 -1.98 14 -3 14 C-2.67 13.67 -2.34 13.34 -2 13 C-1.92745633 11.54332311 -1.91626222 10.0833275 -1.9375 8.625 C-1.94652344 7.83351562 -1.95554688 7.04203125 -1.96484375 6.2265625 C-1.97644531 5.49179688 -1.98804688 4.75703125 -2 4 C-2 3.01 -2 2.02 -2 1 C-1.34 0.67 -0.68 0.34 0 0 Z " fill="#EB9635" transform="translate(163,188)"/>
<path d="M0 0 C0.66 0.33 1.32 0.66 2 1 C2.33 1.99 2.66 2.98 3 4 C1.02 5.32 -0.96 6.64 -3 8 C-3.66 5.69 -4.32 3.38 -5 1 C-4.01 1.33 -3.02 1.66 -2 2 C-1.34 1.34 -0.68 0.68 0 0 Z " fill="#48729A" transform="translate(176,184)"/>
<path d="M0 0 C2.31 0.33 4.62 0.66 7 1 C7 5 7 5 5 8 C0 2.25 0 2.25 0 0 Z " fill="#F38A1C" transform="translate(39,136)"/>
<path d="M0 0 C0.66 1.32 1.32 2.64 2 4 C-0.07553648 4.5534764 -1.84365964 5 -4 5 C-4 5.66 -4 6.32 -4 7 C-6.475 6.01 -6.475 6.01 -9 5 C-8.443125 4.731875 -7.88625 4.46375 -7.3125 4.1875 C-4.80287477 2.89877353 -2.40665764 1.47073522 0 0 Z " fill="#E6F0F2" transform="translate(134,130)"/>
<path d="M0 0 C0.66 0 1.32 0 2 0 C2.73080266 1.97746603 3.39421747 3.98072489 4 6 C3.67 6.66 3.34 7.32 3 8 C3.99 8.33 4.98 8.66 6 9 C4.68 9.33 3.36 9.66 2 10 C-0.4294516 6.3558226 -0.16179575 4.28758728 0 0 Z " fill="#F88209" transform="translate(142,195)"/>
<path d="M0 0 C0 0.99 0 1.98 0 3 C1.32 3.33 2.64 3.66 4 4 C1.36 4.66 -1.28 5.32 -4 6 C-4 5.34 -4 4.68 -4 4 C-4.66 4 -5.32 4 -6 4 C-5.67 3.01 -5.34 2.02 -5 1 C-3 0 -3 0 0 0 Z " fill="#ED8922" transform="translate(152,184)"/>
<path d="M0 0 C0.99 0 1.98 0 3 0 C4.175625 1.485 4.175625 1.485 5.375 3 C7.65284965 6.26808477 7.65284965 6.26808477 10.8125 6.375 C11.534375 6.25125 12.25625 6.1275 13 6 C12.67 6.99 12.34 7.98 12 9 C6.93982644 8.5535141 4.56694486 6.404811 1 3 C0.67 2.01 0.34 1.02 0 0 Z " fill="#45729B" transform="translate(104,125)"/>
<path d="M0 0 C2.75 -0.3125 2.75 -0.3125 6 0 C8.375 2.0625 8.375 2.0625 10 5 C10.25 8.8125 10.25 8.8125 10 12 C9.67 12 9.34 12 9 12 C8.67 9.36 8.34 6.72 8 4 C7.236875 3.71125 6.47375 3.4225 5.6875 3.125 C3 2 3 2 0 0 Z " fill="#DDEBF1" transform="translate(177,188)"/>
<path d="M0 0 C0 0.66 0 1.32 0 2 C-0.63808594 2.25394531 -1.27617188 2.50789063 -1.93359375 2.76953125 C-2.75988281 3.11371094 -3.58617188 3.45789063 -4.4375 3.8125 C-5.26121094 4.14894531 -6.08492188 4.48539063 -6.93359375 4.83203125 C-9.33372488 5.88403088 -9.33372488 5.88403088 -10 9 C-11.32 8.67 -12.64 8.34 -14 8 C-10.67417683 4.11987297 -5.34770586 0 0 0 Z " fill="#ED902F" transform="translate(72,17)"/>
<path d="M0 0 C0.99 0.495 0.99 0.495 2 1 C3.37342831 1.0689472 4.75002102 1.08467708 6.125 1.0625 C7.40375 1.041875 8.6825 1.02125 10 1 C9.1875 2.9375 9.1875 2.9375 8 5 C7.01 5.33 6.02 5.66 5 6 C5 5.34 5 4.68 5 4 C3.35 4 1.7 4 0 4 C0 2.68 0 1.36 0 0 Z " fill="#ECF4F6" transform="translate(194,207)"/>
<path d="M0 0 C0.33 1.32 0.66 2.64 1 4 C3.64 4 6.28 4 9 4 C8 6 8 6 6.25 6.8125 C3.02584675 7.08117944 1.53251213 5.91649566 -1 4 C-1.33 3.01 -1.66 2.02 -2 1 C-1.34 0.67 -0.68 0.34 0 0 Z " fill="#EEFAFD" transform="translate(123,214)"/>
<path d="M0 0 C-0.375 2.4375 -0.375 2.4375 -1 5 C-3.95664519 6.4783226 -6.74229737 6.06032783 -10 6 C-10 5.67 -10 5.34 -10 5 C-8.02 5 -6.04 5 -4 5 C-4.33 4.01 -4.66 3.02 -5 2 C-2 0 -2 0 0 0 Z " fill="#4A729A" transform="translate(186,203)"/>
<path d="M0 0 C2.475 0.495 2.475 0.495 5 1 C5.33 2.32 5.66 3.64 6 5 C4.02 5 2.04 5 0 5 C0 3.35 0 1.7 0 0 Z " fill="#EEF5F3" transform="translate(70,198)"/>
<path d="M0 0 C0 0.99 0 1.98 0 3 C1.65 3 3.3 3 5 3 C5 3.33 5 3.66 5 4 C2.69 4.33 0.38 4.66 -2 5 C-2 4.34 -2 3.68 -2 3 C-2.66 3 -3.32 3 -4 3 C-4.99 4.485 -4.99 4.485 -6 6 C-6.66 6 -7.32 6 -8 6 C-6.98565881 3.46414701 -6.34981128 2.21863205 -4 0.75 C-2 0 -2 0 0 0 Z " fill="#EC9132" transform="translate(112,184)"/>
<path d="M0 0 C1.98 0 3.96 0 6 0 C5.3125 1.9375 5.3125 1.9375 4 4 C1.375 4.75 1.375 4.75 -1 5 C-0.67 3.35 -0.34 1.7 0 0 Z " fill="#F8F3DF" transform="translate(155,120)"/>
<path d="M0 0 C0.33 0 0.66 0 1 0 C1.09945415 6.11090483 1.0712828 11.97403427 0 18 C-2.14809171 14.77786243 -2.29386153 13.72224599 -2 10 C-1.67 9.67 -1.34 9.34 -1 9 C-0.76807135 7.48530552 -0.58784762 5.96245438 -0.4375 4.4375 C-0.35371094 3.61121094 -0.26992188 2.78492187 -0.18359375 1.93359375 C-0.12300781 1.29550781 -0.06242187 0.65742187 0 0 Z " fill="#F3861A" transform="translate(30,97)"/>
<path d="M0 0 C0.625 1.875 0.625 1.875 1 4 C0.34 4.66 -0.32 5.32 -1 6 C-0.67 6.99 -0.34 7.98 0 9 C-0.99 9 -1.98 9 -3 9 C-3 6.36 -3 3.72 -3 1 C-2.01 0.67 -1.02 0.34 0 0 Z " fill="#F7FCFB" transform="translate(130,202)"/>
<path d="M0 0 C1.65 0 3.3 0 5 0 C5 1.65 5 3.3 5 5 C3.35 4.67 1.7 4.34 0 4 C0 2.68 0 1.36 0 0 Z " fill="#3D6C99" transform="translate(153,198)"/>
<path d="M0 0 C2.31 1.98 4.62 3.96 7 6 C5 7 5 7 2.4375 6.25 C0 5 0 5 -1 2 C-0.67 1.34 -0.34 0.68 0 0 Z " fill="#F38C25" transform="translate(171,29)"/>
<path d="M0 0 C0.495 0.309375 0.99 0.61875 1.5 0.9375 C4.97986781 2.41644382 8.24028509 2.62402851 12 3 C12 3.33 12 3.66 12 4 C10.20909747 4.19466332 8.41723495 4.38051213 6.625 4.5625 C5.12839844 4.71912109 5.12839844 4.71912109 3.6015625 4.87890625 C1 5 1 5 -1 4 C-0.67 2.68 -0.34 1.36 0 0 Z " fill="#FCEED3" transform="translate(145,206)"/>
<path d="M0 0 C0 0.99 0 1.98 0 3 C-3.3 3 -6.6 3 -10 3 C-10 2.34 -10 1.68 -10 1 C-3.375 0 -3.375 0 0 0 Z " fill="#F67E06" transform="translate(160,205)"/>
<path d="M0 0 C0.33 0 0.66 0 1 0 C1.05437607 1.58294782 1.09296271 3.16644256 1.125 4.75 C1.14820313 5.63171875 1.17140625 6.5134375 1.1953125 7.421875 C0.99139502 10.1135858 0.36551721 11.69904974 -1 14 C-2.32 13.67 -3.64 13.34 -5 13 C-4.360625 12.34 -3.72125 11.68 -3.0625 11 C-0.41087498 7.14309088 -0.31332879 4.62159967 0 0 Z " fill="#CFDFEB" transform="translate(41,194)"/>
<path d="M0 0 C3 3 3 3 3.29296875 5.04296875 C3.1953125 7.02864583 3.09765625 9.01432292 3 11 C2.01 11.33 1.02 11.66 0 12 C0 8.04 0 4.08 0 0 Z " fill="#316091" transform="translate(170,189)"/>
<path d="M0 0 C1.42020201 0.22906484 2.83845901 0.47251758 4.25 0.75 C4.25 1.08 4.25 1.41 4.25 1.75 C3.34507813 1.84087891 3.34507813 1.84087891 2.421875 1.93359375 C1.22304687 2.05927734 1.22304687 2.05927734 0 2.1875 C-0.78890625 2.26871094 -1.5778125 2.34992188 -2.390625 2.43359375 C-4.57364639 2.72634993 -6.6273182 3.17064419 -8.75 3.75 C-6.12072175 -0.02244271 -4.38091087 -0.51743042 0 0 Z " fill="#F9E1BD" transform="translate(115.75,188.25)"/>
<path d="M0 0 C2.875 -0.125 2.875 -0.125 6 0 C8 2 8 2 8 5 C7.34 5 6.68 5 6 5 C6 4.34 6 3.68 6 3 C4.35 3 2.7 3 1 3 C0.67 2.01 0.34 1.02 0 0 Z " fill="#386591" transform="translate(197,184)"/>
<path d="M0 0 C1.98 0.66 3.96 1.32 6 2 C6.33 3.65 6.66 5.3 7 7 C7.66 7 8.32 7 9 7 C8.67 7.66 8.34 8.32 8 9 C1.95057034 4.25855513 1.95057034 4.25855513 0 2 C0 1.34 0 0.68 0 0 Z " fill="#EB9334" transform="translate(45,144)"/>
<path d="M0 0 C0.33 0 0.66 0 1 0 C1.33 4.29 1.66 8.58 2 13 C0.02 13.99 0.02 13.99 -2 15 C-1.34 10.05 -0.68 5.1 0 0 Z " fill="#C3D8E2" transform="translate(140,111)"/>
<path d="M0 0 C2 0 2 0 4.125 2 C4.74375 2.66 5.3625 3.32 6 4 C5.67 4.66 5.34 5.32 5 6 C2.03 5.505 2.03 5.505 -1 5 C-0.67 3.35 -0.34 1.7 0 0 Z " fill="#FBF1DD" transform="translate(150,50)"/>
<path d="M0 0 C0.66 0 1.32 0 2 0 C2.125 2.875 2.125 2.875 2 6 C1.34 6.66 0.68 7.32 0 8 C-0.66 7.34 -1.32 6.68 -2 6 C-2 4.68 -2 3.36 -2 2 C-1.34 2 -0.68 2 0 2 C0 1.34 0 0.68 0 0 Z " fill="#F7F8EE" transform="translate(34,46)"/>
<path d="M0 0 C0.33 0 0.66 0 1 0 C1.33 3.3 1.66 6.6 2 10 C1.01 10.33 0.02 10.66 -1 11 C-1.02688151 9.35425434 -1.04634123 7.70838587 -1.0625 6.0625 C-1.07410156 5.14597656 -1.08570312 4.22945312 -1.09765625 3.28515625 C-1 1 -1 1 0 0 Z " fill="#FDE5C5" transform="translate(128,191)"/>
<path d="M0 0 C1.37478516 0.01740234 1.37478516 0.01740234 2.77734375 0.03515625 C3.69644531 0.04417969 4.61554688 0.05320313 5.5625 0.0625 C6.27277344 0.07410156 6.98304687 0.08570313 7.71484375 0.09765625 C7.71484375 0.75765625 7.71484375 1.41765625 7.71484375 2.09765625 C4.90234375 3.22265625 4.90234375 3.22265625 1.71484375 4.09765625 C0.72484375 3.43765625 -0.26515625 2.77765625 -1.28515625 2.09765625 C-1.94515625 1.76765625 -2.60515625 1.43765625 -3.28515625 1.09765625 C-2.28515625 0.09765625 -2.28515625 0.09765625 0 0 Z " fill="#DAE8EC" transform="translate(91.28515625,187.90234375)"/>
<path d="M0 0 C-0.99 1.485 -0.99 1.485 -2 3 C-5.625 3.6875 -5.625 3.6875 -9 4 C-8.67 3.01 -8.34 2.02 -8 1 C-5.29120665 -0.35439668 -2.99066732 -0.06501451 0 0 Z " fill="#356493" transform="translate(34,184)"/>
<path d="M0 0 C0 0.99 0 1.98 0 3 C1.32 2.67 2.64 2.34 4 2 C4 3.65 4 5.3 4 7 C0.08597051 5.73058503 -1.79072873 4.48832306 -4 1 C-2 0 -2 0 0 0 Z " fill="#F1922D" transform="translate(60,154)"/>
<path d="M0 0 C2.18975773 3.28463659 2.99806563 6.20696275 4 10 C3.34 10 2.68 10 2 10 C2 9.34 2 8.68 2 8 C1.01 8.33 0.02 8.66 -1 9 C-0.67 6.03 -0.34 3.06 0 0 Z " fill="#F7E7C3" transform="translate(28,112)"/>
<path d="M0 0 C0.99 0 1.98 0 3 0 C4.6290678 4.79137588 5.20577428 8.05632546 4 13 C3.67 13 3.34 13 3 13 C2.86722656 12.39671875 2.73445312 11.7934375 2.59765625 11.171875 C2.42105469 10.37265625 2.24445313 9.5734375 2.0625 8.75 C1.88847656 7.96109375 1.71445313 7.1721875 1.53515625 6.359375 C1.052444 4.23121297 0.53836822 2.11467158 0 0 Z " fill="#E7F5F8" transform="translate(138,105)"/>
<path d="M0 0 C0.66 0.33 1.32 0.66 2 1 C2.4140625 3.72265625 2.4140625 3.72265625 2.625 7.0625 C2.69976562 8.16722656 2.77453125 9.27195312 2.8515625 10.41015625 C2.90054688 11.26480469 2.94953125 12.11945313 3 13 C1.16484992 9.39353114 -0.42371474 5.72576515 -2 2 C-1.34 2 -0.68 2 0 2 C0 1.34 0 0.68 0 0 Z " fill="#EF8820" transform="translate(164,61)"/>
<path d="M0 0 C2.97 0.33 5.94 0.66 9 1 C9 1.66 9 2.32 9 3 C6.36 3 3.72 3 1 3 C0.67 2.01 0.34 1.02 0 0 Z " fill="#FAEED1" transform="translate(127,6)"/>
<path d="M0 0 C2.64 0.33 5.28 0.66 8 1 C6.0373772 3.04795423 4.5722693 3.94976638 1.73046875 4.19921875 C-0.51954383 4.18858877 -2.75385562 4.12958525 -5 4 C-5 3.67 -5 3.34 -5 3 C-2.69 3 -0.38 3 2 3 C2 2.34 2 1.68 2 1 C1.34 0.67 0.68 0.34 0 0 Z " fill="#F2983C" transform="translate(128,171)"/>
<path d="M0 0 C0 2.62113708 -0.31292445 4.50935112 -1 7 C-2.65 7 -4.3 7 -6 7 C-4.02 4.69 -2.04 2.38 0 0 Z " fill="#F7E1BE" transform="translate(176,148)"/>
<path d="M0 0 C0.99 0.33 1.98 0.66 3 1 C3 1.99 3 2.98 3 4 C2.34 4 1.68 4 1 4 C1.33 5.32 1.66 6.64 2 8 C0.35 6.35 -1.3 4.7 -3 3 C-2.01 2.01 -1.02 1.02 0 0 Z " fill="#FBF1DE" transform="translate(180,32)"/>
<path d="M0 0 C1.485 0.99 1.485 0.99 3 2 C3 2.66 3 3.32 3 4 C3.99 4.33 4.98 4.66 6 5 C5.01 5.33 4.02 5.66 3 6 C2.67 6.66 2.34 7.32 2 8 C1.34 7.67 0.68 7.34 0 7 C0 4.69 0 2.38 0 0 Z " fill="#F39330" transform="translate(66,124)"/>
<path d="M0 0 C0.99 0.33 1.98 0.66 3 1 C3 4.3 3 7.6 3 11 C2.67 11 2.34 11 2 11 C1.67 8.36 1.34 5.72 1 3 C0.34 3 -0.32 3 -1 3 C-0.67 2.01 -0.34 1.02 0 0 Z " fill="#D7E7F0" transform="translate(99,109)"/>
<path d="M0 0 C0.66 0 1.32 0 2 0 C2 0.99 2 1.98 2 3 C-0.52475462 4.26237731 -2.31200466 4.09856404 -5.125 4.0625 C-6.03507812 4.05347656 -6.94515625 4.04445312 -7.8828125 4.03515625 C-8.58148438 4.02355469 -9.28015625 4.01195312 -10 4 C-10 3.67 -10 3.34 -10 3 C-8.72125 2.87625 -7.4425 2.7525 -6.125 2.625 C-2.65209064 2.30957601 -2.65209064 2.30957601 0 0 Z " fill="#FBE8BA" transform="translate(122,206)"/>
<path d="M0 0 C2.31 0.33 4.62 0.66 7 1 C6.01 2.485 6.01 2.485 5 4 C2.375 4.1875 2.375 4.1875 0 4 C0 2.68 0 1.36 0 0 Z " fill="#E1F0F1" transform="translate(51,201)"/>
<path d="M0 0 C3 1 3 1 4.1875 3.0625 C4.455625 3.701875 4.72375 4.34125 5 5 C3.68 5.33 2.36 5.66 1 6 C0.67 4.02 0.34 2.04 0 0 Z " fill="#E8EFEE" transform="translate(197,188)"/>
<path d="M0 0 C0.99 0.33 1.98 0.66 3 1 C1.1875 3.5 1.1875 3.5 -1 6 C-1.99 6 -2.98 6 -4 6 C-4 4 -4 4 -2 1.875 C-1.34 1.25625 -0.68 0.6375 0 0 Z " fill="#F47D06" transform="translate(108,186)"/>
<path d="M0 0 C2.31 0 4.62 0 7 0 C6.01 0.495 6.01 0.495 5 1 C5 1.66 5 2.32 5 3 C3.02 3 1.04 3 -1 3 C-0.67 2.01 -0.34 1.02 0 0 Z " fill="#3B6994" transform="translate(69,184)"/>
<path d="M0 0 C1.32 0 2.64 0 4 0 C4 0.66 4 1.32 4 2 C5.32 1.67 6.64 1.34 8 1 C6.68 2.32 5.36 3.64 4 5 C3.67 4.34 3.34 3.68 3 3 C2.34 3 1.68 3 1 3 C0.67 2.01 0.34 1.02 0 0 Z " fill="#F4831A" transform="translate(162,153)"/>
<path d="M0 0 C0.99 1.32 1.98 2.64 3 4 C2.34 4 1.68 4 1 4 C1 5.32 1 6.64 1 8 C0.01 8 -0.98 8 -2 8 C-2 6.68 -2 5.36 -2 4 C-1.34 4 -0.68 4 0 4 C0 2.68 0 1.36 0 0 Z " fill="#F7F9E5" transform="translate(38,136)"/>
<path d="M0 0 C2 3 2 3 2 6 C1.01 6 0.02 6 -1 6 C-1 6.66 -1 7.32 -1 8 C-1.66 8 -2.32 8 -3 8 C-1.125 1.125 -1.125 1.125 0 0 Z " fill="#F39228" transform="translate(37,48)"/>
<path d="M0 0 C1.32 0 2.64 0 4 0 C4 2.64 4 5.28 4 8 C1.84622436 5.37801226 0.59927826 3.35595828 0 0 Z " fill="#F9EFD4" transform="translate(188,48)"/>
<path d="M0 0 C2.50037734 2.17424117 3.43628586 3.73045798 4 7 C2.68 6.67 1.36 6.34 0 6 C0 4.02 0 2.04 0 0 Z " fill="#E0ECF4" transform="translate(20,201)"/>
<path d="M0 0 C3.63 0.33 7.26 0.66 11 1 C9 3 9 3 7.08984375 3.046875 C6.37957031 2.94890625 5.66929688 2.8509375 4.9375 2.75 C4.22464844 2.66234375 3.51179688 2.5746875 2.77734375 2.484375 C2.19082031 2.32453125 1.60429688 2.1646875 1 2 C0.67 1.34 0.34 0.68 0 0 Z " fill="#F6E9CB" transform="translate(108,202)"/>
<path d="M0 0 C0.66 0 1.32 0 2 0 C1.67 1.65 1.34 3.3 1 5 C-0.65 5 -2.3 5 -4 5 C-4.33 4.34 -4.66 3.68 -5 3 C-3.35 3 -1.7 3 0 3 C0 2.01 0 1.02 0 0 Z " fill="#CCE2EC" transform="translate(201,200)"/>
<path d="M0 0 C0.99 0 1.98 0 3 0 C3 2.64 3 5.28 3 8 C2.34 8 1.68 8 1 8 C0.67 5.36 0.34 2.72 0 0 Z " fill="#F97E03" transform="translate(163,192)"/>
<path d="M0 0 C0 1.32 0 2.64 0 4 C0.99 4 1.98 4 3 4 C3 4.66 3 5.32 3 6 C1.68 5.67 0.36 5.34 -1 5 C-1 4.34 -1 3.68 -1 3 C-1.99 3 -2.98 3 -4 3 C-4 2.34 -4 1.68 -4 1 C-2 0 -2 0 0 0 Z " fill="#F18B27" transform="translate(148,136)"/>
<path d="M0 0 C0.7425 0.45375 1.485 0.9075 2.25 1.375 C4.46930578 2.68640796 6.67967822 3.88280803 9 5 C6.69 5 4.38 5 2 5 C1.34 3.35 0.68 1.7 0 0 Z " fill="#DBEAF3" transform="translate(108,130)"/>
<path d="M0 0 C0.99 0.33 1.98 0.66 3 1 C1.625 3.5 1.625 3.5 0 6 C-0.66 6 -1.32 6 -2 6 C-1.125 1.125 -1.125 1.125 0 0 Z " fill="#EDF7F9" transform="translate(102,104)"/>
<path d="M0 0 C0.66 0 1.32 0 2 0 C1.67 1.32 1.34 2.64 1 4 C1.66 4.33 2.32 4.66 3 5 C1.68 5 0.36 5 -1 5 C-1.33 5.99 -1.66 6.98 -2 8 C-2.33 7.34 -2.66 6.68 -3 6 C-2.06553465 3.96855359 -1.06775224 1.96466413 0 0 Z " fill="#EE9230" transform="translate(42,40)"/>
<path d="M0 0 C0.99 0.33 1.98 0.66 3 1 C3 1.66 3 2.32 3 3 C4.98 2.67 6.96 2.34 9 2 C8.67 3.32 8.34 4.64 8 6 C2.33846154 4.52307692 2.33846154 4.52307692 0.625 1.875 C0.41875 1.25625 0.2125 0.6375 0 0 Z " fill="#F9D5A5" transform="translate(163,22)"/>
<path d="M0 0 C1.32 0 2.64 0 4 0 C4.33 1.98 4.66 3.96 5 6 C4.01 6 3.02 6 2 6 C1.67 5.01 1.34 4.02 1 3 C0.34 2.34 -0.32 1.68 -1 1 C-0.67 0.67 -0.34 0.34 0 0 Z " fill="#4F79A2" transform="translate(57,203)"/>
<path d="M0 0 C2 0.25 2 0.25 4 1 C4.33 1.99 4.66 2.98 5 4 C3.33333333 4 1.66666667 4 0 4 C-0.33 3.01 -0.66 2.02 -1 1 C-0.67 0.67 -0.34 0.34 0 0 Z " fill="#4673A1" transform="translate(171,200)"/>
<path d="M0 0 C0.66 0.33 1.32 0.66 2 1 C2 1.66 2 2.32 2 3 C3.65 3 5.3 3 7 3 C6.67 3.66 6.34 4.32 6 5 C3.69 4.67 1.38 4.34 -1 4 C-1 1 -1 1 0 0 Z " fill="#5982AB" transform="translate(196,184)"/>
<path d="M0 0 C4.29 0.33 8.58 0.66 13 1 C13 1.33 13 1.66 13 2 C7.96488101 3.0070238 4.76052962 2.97387813 0 1 C0 0.67 0 0.34 0 0 Z " fill="#F28414" transform="translate(131,169)"/>
<path d="M0 0 C1.32 0.33 2.64 0.66 4 1 C1.36 2.65 -1.28 4.3 -4 6 C-4 5.01 -4 4.02 -4 3 C-3.01 3 -2.02 3 -1 3 C-0.67 2.01 -0.34 1.02 0 0 Z " fill="#EE861C" transform="translate(161,158)"/>
<path d="M0 0 C0.33 0 0.66 0 1 0 C1.9765625 6.0546875 1.9765625 6.0546875 2 8 C1.34 8.66 0.68 9.32 0 10 C-0.95024979 6.30458414 -0.95024979 3.69541586 0 0 Z " fill="#F9EDD3" transform="translate(198,104)"/>
<path d="M0 0 C1.65 0 3.3 0 5 0 C5 1.98 5 3.96 5 6 C3.0625 5.25 3.0625 5.25 1 4 C0.25 1.875 0.25 1.875 0 0 Z " fill="#F1983C" transform="translate(157,56)"/>
<path d="M0 0 C0 0.99 0 1.98 0 3 C-0.99 2.67 -1.98 2.34 -3 2 C-3.33 2.99 -3.66 3.98 -4 5 C-5.32 4.67 -6.64 4.34 -8 4 C-5.37801226 1.84622436 -3.35595828 0.59927826 0 0 Z " fill="#F5ECD1" transform="translate(85,43)"/>
<path d="M0 0 C1.98 0 3.96 0 6 0 C5.01 0.495 5.01 0.495 4 1 C4 1.66 4 2.32 4 3 C2.02 3.99 2.02 3.99 0 5 C0 3.35 0 1.7 0 0 Z " fill="#FCF1D6" transform="translate(52,25)"/>
<path d="M0 0 C0.66 0 1.32 0 2 0 C2 0.66 2 1.32 2 2 C1.34 2 0.68 2 0 2 C0 2.99 0 3.98 0 5 C-4.875 3.25 -4.875 3.25 -6 1 C-4.7934375 1.0309375 -4.7934375 1.0309375 -3.5625 1.0625 C-1.06645115 1.29633621 -1.06645115 1.29633621 0 0 Z " fill="#FAE5C5" transform="translate(163,17)"/>
<path d="M0 0 C1.98 0 3.96 0 6 0 C3.31158141 2.25245881 1.35358125 3.88213958 -2 5 C-1.34 3.35 -0.68 1.7 0 0 Z " fill="#F8E5C1" transform="translate(66,16)"/>
</svg>
