
<svg version="1.1" xmlns="http://www.w3.org/2000/svg" width="600" height="600" viewBox="0 0 600 600" preserveAspectRatio="xMidYMid meet">
<path d="M0 0 C1.23119357 -0.00382555 2.46238715 -0.00765109 3.73088962 -0.01159257 C7.12268719 -0.02008349 10.5142663 -0.01970515 13.90605724 -0.01541197 C17.57424406 -0.01293445 21.24240595 -0.02197171 24.9105835 -0.02944946 C32.08784289 -0.0421711 39.26506483 -0.04399324 46.4423336 -0.0416492 C52.28054812 -0.03986266 58.11875132 -0.04162287 63.95696449 -0.04587364 C64.78943784 -0.04646883 65.6219112 -0.04706402 66.47961101 -0.04767724 C68.17108371 -0.04888907 69.8625564 -0.0501032 71.55402908 -0.05131962 C87.40264279 -0.06218587 103.2512352 -0.06003729 119.0998501 -0.05393478 C133.57412703 -0.04876919 148.04833659 -0.06001324 162.5226002 -0.07903299 C177.40864893 -0.09844281 192.29466584 -0.10666171 207.1807273 -0.10290974 C215.52845306 -0.10100211 223.87612152 -0.10344219 232.2238369 -0.11762428 C239.33231902 -0.12957937 246.4407086 -0.13089713 253.54919209 -0.11883412 C257.17033149 -0.11297359 260.79130198 -0.11176673 264.41242981 -0.12383652 C301.83433475 -0.23981285 301.83433475 -0.23981285 316.70283508 9.79194641 C317.27388977 10.27663391 317.84494446 10.76132141 318.43330383 11.26069641 C318.43330383 11.92069641 318.43330383 12.58069641 318.43330383 13.26069641 C319.09330383 13.26069641 319.75330383 13.26069641 320.43330383 13.26069641 C321.4021295 14.77486735 322.35783135 16.29743795 323.30830383 17.82319641 C323.84197571 18.67011047 324.37564758 19.51702454 324.92549133 20.38960266 C328.87775243 27.91528117 328.71958922 34.98401632 328.69400024 43.33547974 C328.69702315 44.67083168 328.70091333 46.0061819 328.70559281 47.34152907 C328.71586383 51.00054739 328.71369328 54.65946763 328.70941222 58.31849396 C328.70694334 62.26884841 328.71596122 66.21917934 328.72344971 70.16952515 C328.73619463 77.90499283 328.73799062 85.6404258 328.73564944 93.37590221 C328.73386575 99.66474611 328.73561704 105.95357947 328.73987389 112.2424221 C328.74046908 113.13780349 328.74106426 114.03318487 328.74167749 114.95569902 C328.74288926 116.77473897 328.74410339 118.59377892 328.74531987 120.41281887 C328.7561948 137.46971421 328.75403325 154.52658977 328.74793502 171.58348622 C328.74276699 187.18003883 328.75401838 202.77652896 328.77303324 218.3730692 C328.79241626 234.39466083 328.80066675 250.41622291 328.79690999 266.43782634 C328.79499851 275.42986303 328.79748023 284.42184655 328.81162453 293.41387367 C328.82354527 301.06970647 328.8249355 308.72545338 328.81283436 316.38128737 C328.80695029 320.28531941 328.80583308 324.18919441 328.81783676 328.09321594 C328.82871125 331.67166144 328.82557384 335.24981909 328.81157508 338.82825121 C328.80768675 340.72631622 328.81846255 342.6243941 328.82987195 344.52242881 C328.77510964 353.21727588 327.78283011 361.60193173 322.74580383 368.94819641 C318.03417619 375.51662312 312.59685842 380.16962347 305.18505847 383.39241016 C299.84715446 385.07672772 294.40247776 384.8118086 288.8522644 384.77536011 C287.4863073 384.78069233 286.12035608 384.7877619 284.75441593 384.79640716 C281.02000795 384.81497214 277.28599821 384.80875099 273.55157411 384.79825413 C269.51670375 384.79124456 265.48191376 384.80727335 261.44706726 384.82025146 C253.55008094 384.84186734 245.65323886 384.84177078 237.75623269 384.83362592 C231.33632418 384.82732007 224.91645767 384.82846832 218.49654961 384.83489799 C217.12474271 384.83625048 217.12474271 384.83625048 215.72522254 384.83763028 C213.86720665 384.83948153 212.00919077 384.84134409 210.1511749 384.84321784 C192.73705543 384.85978791 175.32301704 384.85108386 157.90890246 384.83423226 C141.98587136 384.81953606 126.06302897 384.83416398 110.14002217 384.86300243 C93.77934883 384.89241227 77.41876254 384.90336407 61.05806392 384.89382023 C59.20666724 384.8927977 57.35527054 384.89180309 55.50387383 384.89083672 C54.59301534 384.89036033 53.68215685 384.88988394 52.74369659 384.88939311 C46.33421992 384.88723108 39.92482586 384.89702184 33.51536751 384.91160774 C25.70032767 384.92914464 17.88552838 384.92899429 10.07049794 384.90625609 C6.08534983 384.89512614 2.10062531 384.8919227 -1.88450432 384.91055679 C-5.53706719 384.9274157 -9.18883881 384.92093872 -12.84135092 384.89634001 C-14.77909085 384.88917957 -16.71687429 384.906443 -18.65454096 384.92475134 C-26.43245312 384.84198581 -31.99607042 383.48986964 -38.56669617 379.26069641 C-45.87375041 373.78040573 -50.9207232 365.86728261 -54.12480927 357.39621353 C-56.0805766 351.40154359 -55.98909881 345.56261807 -55.96110535 339.30726624 C-55.96719645 338.02242977 -55.97328755 336.73759331 -55.97956324 335.41382241 C-55.99589278 331.8676925 -55.9936592 328.32178593 -55.98818827 324.77563167 C-55.98550937 320.94316713 -56.00006603 317.11076098 -56.01228333 313.27832031 C-56.03330401 305.77739884 -56.03788008 298.27655471 -56.03609544 290.77560726 C-56.034786 284.6756186 -56.03860123 278.575654 -56.04602051 272.47566986 C-56.04811979 270.71619106 -56.05021739 268.95671225 -56.05231333 267.19723344 C-56.05335686 266.32138605 -56.05440038 265.44553867 -56.05547553 264.54315045 C-56.0743647 247.99022483 -56.07333191 231.43734354 -56.06650621 214.8844116 C-56.06093299 199.75879126 -56.08174909 184.63334041 -56.11486667 169.50775966 C-56.14864408 153.95955676 -56.16376688 138.41143496 -56.15914965 122.8631947 C-56.15690889 114.14100562 -56.16209027 105.41897314 -56.18704224 96.69681549 C-56.20810788 89.27016999 -56.21159549 81.84376695 -56.19274265 74.41711131 C-56.18361665 70.63207783 -56.1823443 66.84749576 -56.2030983 63.06249809 C-56.22540469 58.94867147 -56.20851323 54.8358979 -56.18815613 50.72206116 C-56.20067398 49.54041846 -56.21319182 48.35877576 -56.226089 47.14132571 C-56.12483696 37.55586747 -53.79325488 28.99792307 -48.35575867 21.01460266 C-47.64161804 20.2914386 -46.92747742 19.56827454 -46.19169617 18.82319641 C-45.4066571 18.02526672 -44.62161804 17.22733704 -43.81278992 16.40522766 C-43.07157898 15.69753235 -42.33036804 14.98983704 -41.56669617 14.26069641 C-41.00079773 13.6870636 -40.43489929 13.11343079 -39.85185242 12.52241516 C-33.06637602 6.10192771 -24.51930345 2.42210778 -15.44709241 0.67767298 C-10.30644938 -0.06650508 -5.18540565 -0.01725563 0 0 Z " fill="#385570" transform="translate(163.5666961669922,43.73930358886719)" />
<path d="M0 0 C2.10566712 -0.00353667 4.21126241 -0.01218409 6.31690979 -0.02175522 C26.65064631 -0.09599437 47.34865662 0.23067006 67.32923889 4.43390274 C67.39891098 16.38685198 67.45213744 28.33975249 67.48467541 40.29286385 C67.50029614 45.8438563 67.52146866 51.39470929 67.55555725 56.94562149 C67.58827895 62.3078294 67.6061189 67.66990358 67.61387062 73.03220367 C67.61939118 75.07261763 67.63017126 77.1130247 67.64642906 79.15338135 C67.66837368 82.02292524 67.67119873 84.89192446 67.66981506 87.76153946 C67.6859938 89.01203835 67.6859938 89.01203835 67.70249939 90.28779984 C67.66280153 97.95268644 66.03719775 105.7108338 61.64173889 112.12140274 C56.92140191 118.70197105 51.48309697 123.3392044 44.05968678 126.56767225 C38.83430956 128.22541532 33.5337551 127.96687638 28.09851074 127.91492081 C26.12687087 127.92004736 26.12687087 127.92004736 24.1153999 127.92527747 C20.48705142 127.93417915 16.85917941 127.91828081 13.23089159 127.89816523 C9.3107685 127.88083474 5.39067065 127.88674087 1.47052002 127.88977432 C-5.31472666 127.89186816 -12.09981906 127.87935559 -18.88502693 127.85682297 C-28.69518043 127.82426623 -38.5052596 127.8138922 -48.31546127 127.808871 C-64.23317182 127.80012411 -80.15080022 127.77352497 -96.06846619 127.73566055 C-111.52777191 127.69892478 -126.98705529 127.67062069 -142.44639587 127.6536293 C-143.39986995 127.65257841 -144.35334402 127.65152752 -145.33571125 127.65044478 C-150.1191782 127.64522449 -154.90264531 127.64016969 -159.68611252 127.63519716 C-199.34771956 127.59375399 -239.00923491 127.52332206 -278.67076111 127.43390274 C-275.17775894 120.15634616 -268.05388327 114.26159744 -261.67076111 109.43390274 C-261.01076111 109.43390274 -260.35076111 109.43390274 -259.67076111 109.43390274 C-259.4374408 108.85640274 -259.20412048 108.27890274 -258.96372986 107.68390274 C-257.35602955 104.88621278 -255.51673659 103.43341702 -252.98326111 101.43390274 C-251.98294861 100.6411293 -250.98263611 99.84835587 -249.95201111 99.03155899 C-249.14570251 98.39758194 -249.14570251 98.39758194 -248.32310486 97.75079727 C-246.67739526 96.43919007 -245.06282539 95.09664789 -243.45201111 93.74249649 C-211.75995478 67.34462008 -172.67630825 45.32885691 -134.67076111 29.43390274 C-132.96016776 28.64713132 -131.25169824 27.85571977 -129.54576111 27.05890274 C-124.43021114 24.7177699 -119.22611072 22.71971875 -113.95982361 20.74640274 C-110.77026346 19.47360914 -107.74587489 18.02204059 -104.67076111 16.49640274 C-72.39823926 1.30011818 -34.98817548 0.04204389 0 0 Z " fill="#DAA934" transform="translate(424.67076110839844,300.5660972595215)" />
<path d="M0 0 C0.66 0 1.32 0 2 0 C3.14621849 17.02911406 3.13323632 34.04773634 3.10139394 51.10566807 C3.09505302 55.08808274 3.09454825 59.07049854 3.09336853 63.05291748 C3.09028636 70.56044363 3.0821159 78.06795486 3.07201904 85.5754745 C3.06075998 94.13683742 3.05532302 102.69820114 3.05032361 111.25956964 C3.03992991 128.83972167 3.02239217 146.41985924 3 164 C0.92763763 163.84529551 -1.14462407 163.68924209 -3.21684265 163.53262329 C-4.37084407 163.44586649 -5.52484549 163.35910969 -6.71381664 163.26972389 C-9.32980668 163.05500824 -11.92618182 162.79988147 -14.53051758 162.47802734 C-30.20597991 160.55753682 -45.92036519 160.60179659 -61.6875 160.625 C-62.76698914 160.62535877 -62.76698914 160.62535877 -63.86828613 160.62572479 C-100.21628492 160.64100874 -140.02222944 161.45836962 -172.90234375 178.98046875 C-175.5809326 180.28235272 -178.3315295 181.28049586 -181.125 182.3125 C-187.11984955 184.56317353 -192.75531699 187.28905956 -198.41796875 190.25390625 C-201.14321801 191.58235382 -203.78748571 192.72520667 -206.60546875 193.81640625 C-212.95489316 196.31374692 -219.02738626 199.32173922 -225.125 202.375 C-225.7306076 202.67790955 -226.33621521 202.98081909 -226.96017456 203.29290771 C-239.63125747 209.65029194 -251.8917128 216.6256821 -264 224 C-264.85416504 224.51804199 -265.70833008 225.03608398 -266.58837891 225.56982422 C-284.18704044 236.29718536 -300.54987053 248.30772247 -316.30322266 261.58642578 C-317.73660306 262.78056571 -319.19928051 263.93940714 -320.66796875 265.08984375 C-323.29430416 267.24106321 -325.61181219 269.58708243 -328 272 C-331.03397239 274.84369146 -334.10717658 277.64530982 -337.1796875 280.44726562 C-337.78554688 281.00478516 -338.39140625 281.56230469 -339.015625 282.13671875 C-339.56508789 282.63905029 -340.11455078 283.14138184 -340.68066406 283.65893555 C-342.12114204 284.9852264 -342.12114204 284.9852264 -343 287 C-350.06594663 287.60450114 -355.42115502 287.13087981 -361.65234375 283.60546875 C-370.23085625 277.73896519 -375.53153881 269.78674579 -379.56225586 260.33764648 C-381.83899216 253.34892203 -381.38886272 246.07480032 -381.328125 238.8125 C-381.32538579 237.18439388 -381.32389346 235.55628526 -381.32354736 233.92817688 C-381.31853085 229.5326451 -381.29423223 225.13741322 -381.26589966 220.74197769 C-381.24462637 217.07328919 -381.23462331 213.40460513 -381.22460938 209.73587132 C-381.11392434 170.15514975 -380.59702933 130.57598991 -380 91 C-379.67 91 -379.34 91 -379 91 C-379 118.39 -379 145.78 -379 174 C-343.63733572 173.65833175 -308.8898612 172.65791322 -273.70269775 169.25524902 C-271.13008504 169.01228553 -268.55673946 168.78574587 -265.98193359 168.56738281 C-231.11698364 165.60975995 -193.97368197 159.33842928 -162.38671875 143.67578125 C-159.81007851 142.4008347 -157.24039848 141.21053245 -154.609375 140.05859375 C-130.9628259 129.62168487 -108.74365291 115.32850415 -88 100 C-86.94167969 99.22398437 -85.88335937 98.44796875 -84.79296875 97.6484375 C-73.09698824 88.97225799 -61.72769375 79.91887265 -50.67822266 70.43554688 C-48.91035481 68.92331776 -47.13364683 67.42196278 -45.35546875 65.921875 C-39.60876448 61.05904463 -34.01066871 56.17985995 -28.765625 50.76953125 C-27.03630382 49.03638414 -25.24302332 47.45654075 -23.375 45.875 C-19.34361402 42.40464189 -15.57775824 38.69101932 -11.8125 34.9375 C-11.21808105 34.34759277 -10.62366211 33.75768555 -10.01123047 33.14990234 C-8.8604557 31.99525617 -7.72135992 30.82883777 -6.5949707 29.65039062 C-5.14124356 28.14615131 -3.62038295 26.70753618 -2.09375 25.27734375 C0.98604407 20.45654668 0.54683324 16.21294639 0.3125 10.625 C0.28994141 9.60277344 0.26738281 8.58054688 0.24414062 7.52734375 C0.18548082 5.01670419 0.10345928 2.50912621 0 0 Z " fill="#4C789D" transform="translate(489,141)" />
<path d="M0 0 C0.66 0 1.32 0 2 0 C4.20332427 16.75737063 4.20332427 16.75737063 0.81933594 23.2734375 C-2.30591191 27.48073441 -6.13219514 30.92110635 -10.09277344 34.32861328 C-12.47912144 36.41987524 -14.66746015 38.66353932 -16.86987305 40.94506836 C-20.99829895 45.21010398 -25.29887284 49.25552462 -29.8203125 53.1015625 C-32.13738822 55.11966071 -34.38161397 57.20290606 -36.62646484 59.30053711 C-42.88218292 65.14228716 -49.32117443 70.64293414 -56 76 C-57.19273342 76.9827665 -58.38405401 77.96724931 -59.57421875 78.953125 C-88.93600826 103.20253506 -123.68853296 130.02971268 -159.734375 143.1484375 C-162.29357182 144.11034251 -164.71971336 145.26133269 -167.1875 146.4375 C-180.31999344 152.42008034 -194.26877296 155.81082534 -208.26611328 159.11572266 C-211.13935219 159.79617717 -214.00494266 160.49746077 -216.87060547 161.20849609 C-230.1938073 164.44929748 -243.35960727 166.34731231 -257 167.625 C-259.12065098 167.83115671 -261.24125568 168.03779003 -263.36181641 168.24487305 C-267.60654511 168.65579159 -271.85210642 169.05586999 -276.09863281 169.44775391 C-280.49540617 169.85467257 -284.8878552 170.29230357 -289.27963257 170.74958801 C-318.8318002 173.79041663 -348.30063704 173.20915044 -378 173 C-378 145.61 -378 118.22 -378 90 C-373.50121764 90.89975647 -369.15426404 92.05562165 -364.75 93.3125 C-361.50236613 94.21702811 -358.25167041 95.11010477 -355 96 C-353.11861328 96.51626953 -353.11861328 96.51626953 -351.19921875 97.04296875 C-341.28005829 99.56653502 -331.23554754 101.15386747 -321.125 102.6875 C-320.41117157 102.79618408 -319.69734314 102.90486816 -318.96188354 103.0168457 C-306.0485711 104.96848917 -293.43249711 106.15713803 -280.35546875 106.203125 C-279.06925125 106.20882507 -277.78303375 106.21452515 -276.45783997 106.22039795 C-273.7441062 106.23082798 -271.0304013 106.23672089 -268.31665039 106.24023438 C-265.58343973 106.24459279 -262.8505494 106.25839729 -260.11743164 106.28125 C-244.28237629 106.41103201 -228.87949517 106.01937508 -213.23928833 103.36717224 C-210.98146113 102.99696021 -208.72226788 102.68257281 -206.45361328 102.38647461 C-183.07977624 99.3140572 -157.99925147 91.33731578 -136.76171875 81.22265625 C-132.333211 79.26208634 -127.75179331 77.75398917 -123.1640625 76.2109375 C-120.16296098 75.06236778 -117.73395117 73.66745629 -115 72 C-113.39737833 71.31018495 -111.79368016 70.6226968 -110.18310547 69.95166016 C-72.34781441 53.45848586 -34.96384068 30.64259432 -3.98095703 3.29907227 C-2.68323959 2.16499106 -1.34494444 1.07765264 0 0 Z " fill="#FCFDFD" transform="translate(488,142)" />
<path d="M0 0 C1.55847656 0.5259375 1.55847656 0.5259375 3.1484375 1.0625 C17.45645938 6.4702563 29.83240517 15.5202778 39.05859375 27.72265625 C47.17883528 39.85936133 51.35748377 52.30690843 51.30493164 66.84350586 C51.14275756 73.48643565 49.89706918 79.63244607 48 86 C47.74476563 86.93328125 47.48953125 87.8665625 47.2265625 88.828125 C44.75975374 96.74907055 40.197954 102.62861018 35 109 C34.50628906 109.65871094 34.01257813 110.31742187 33.50390625 110.99609375 C25.62481728 121.11967098 13.04292588 128.5917785 1.03027344 132.66845703 C-8.26817444 135.52586328 -17.44099415 137.19641211 -27.1875 137.1875 C-27.92782471 137.18814453 -28.66814941 137.18878906 -29.4309082 137.18945312 C-34.87395838 137.13763138 -40.0482971 136.54999308 -45.38671875 135.4375 C-50.95928002 134.50457494 -54.81984941 135.03495827 -59.94921875 137.40625 C-61.04427734 137.90253906 -62.13933594 138.39882812 -63.26757812 138.91015625 C-64.39615234 139.43480469 -65.52472656 139.95945313 -66.6875 140.5 C-68.9391793 141.53610342 -71.19299209 142.56758666 -73.44921875 143.59375 C-74.93941528 144.28500977 -74.93941528 144.28500977 -76.4597168 144.99023438 C-79 146 -79 146 -82 146 C-82.14370117 141.90451655 -82.20196534 138.70014652 -81.0625 134.75 C-79.57069194 129.48479508 -78.33617934 124.4916073 -79 119 C-80.63231449 116.78730702 -82.38507069 115.49271107 -84.609375 113.8828125 C-94.35746397 106.20539602 -99.80199131 93.79457504 -103.63671875 82.30859375 C-105.25620578 76.74382733 -105.49933469 71.456966 -105.4375 65.6875 C-105.42847656 64.6756665 -105.41945312 63.66383301 -105.41015625 62.62133789 C-105.09519323 48.98934468 -100.48204443 38.2097534 -93 27 C-82.84085116 13.71495921 -69.48139172 4.32508658 -53.7421875 -1.12890625 C-51.16540586 -1.8556008 -48.62721447 -2.48891808 -46 -3 C-45.1440625 -3.18046875 -44.288125 -3.3609375 -43.40625 -3.546875 C-28.79561462 -5.49049163 -13.95089516 -4.78676313 0 0 Z " fill="#FDFDFE" transform="translate(298,64)" />
<path d="M0 0 C2.10566712 -0.00353667 4.21126241 -0.01218409 6.31690979 -0.02175522 C26.72088862 -0.09625083 47.2550648 0.41906792 67.32923889 4.43390274 C67.32923889 25.88390274 67.32923889 47.33390274 67.32923889 69.43390274 C60.86726519 68.78770537 54.43478448 68.10568359 47.99720764 67.27765274 C47.15756973 67.17045914 46.31793182 67.06326553 45.45285034 66.95282364 C43.69744653 66.72829608 41.94213188 66.50307032 40.18690491 66.27716446 C37.50612782 65.93253864 34.82493304 65.59130434 32.14369202 65.25030899 C30.42817113 65.03046045 28.71267542 64.81041534 26.99720764 64.59015274 C26.20130722 64.48908218 25.4054068 64.38801163 24.58538818 64.28387833 C21.61173899 63.8991306 18.67936056 63.50666989 15.74256897 62.89630508 C2.59602075 60.37738123 -11.63153285 61.27711744 -24.95445251 61.30353165 C-28.16592629 61.30889467 -31.37726027 61.3035511 -34.58872986 61.29718399 C-46.3218004 61.29306167 -57.97033492 61.55182356 -69.67076111 62.43390274 C-70.62418396 62.50157852 -71.57760681 62.5692543 -72.55992126 62.63898087 C-103.50027933 64.96415207 -136.04913024 70.98225306 -164.28013611 84.37530899 C-167.64315234 85.86448774 -171.09450406 87.10502531 -174.54576111 88.37140274 C-180.3502132 90.50143963 -185.96952438 92.84126372 -191.53404236 95.55109024 C-193.67076111 96.43390274 -193.67076111 96.43390274 -196.67076111 96.43390274 C-196.67076111 97.09390274 -196.67076111 97.75390274 -196.67076111 98.43390274 C-197.25341736 98.65231827 -197.83607361 98.8707338 -198.43638611 99.09576797 C-205.42502256 101.79411237 -212.03767006 105.02320248 -218.67076111 108.49640274 C-219.75421814 109.06133438 -220.83767517 109.62626602 -221.95396423 110.2083168 C-237.18472731 117.53483033 -237.18472731 117.53483033 -250.67076111 127.43390274 C-252.74338187 127.52157386 -254.81896405 127.54086147 -256.89341736 127.53155899 C-258.78350525 127.52672501 -258.78350525 127.52672501 -260.71177673 127.52179337 C-262.0522722 127.51343677 -263.39276699 127.50497181 -264.73326111 127.49640274 C-266.07766053 127.49138934 -267.42206171 127.48682616 -268.76646423 127.48273087 C-272.06794051 127.47089762 -275.36932914 127.45441245 -278.67076111 127.43390274 C-275.17775894 120.15634616 -268.05388327 114.26159744 -261.67076111 109.43390274 C-261.01076111 109.43390274 -260.35076111 109.43390274 -259.67076111 109.43390274 C-259.4374408 108.85640274 -259.20412048 108.27890274 -258.96372986 107.68390274 C-257.35602955 104.88621278 -255.51673659 103.43341702 -252.98326111 101.43390274 C-251.98294861 100.6411293 -250.98263611 99.84835587 -249.95201111 99.03155899 C-249.14570251 98.39758194 -249.14570251 98.39758194 -248.32310486 97.75079727 C-246.67739526 96.43919007 -245.06282539 95.09664789 -243.45201111 93.74249649 C-211.75995478 67.34462008 -172.67630825 45.32885691 -134.67076111 29.43390274 C-132.96016776 28.64713132 -131.25169824 27.85571977 -129.54576111 27.05890274 C-124.43021114 24.7177699 -119.22611072 22.71971875 -113.95982361 20.74640274 C-110.77026346 19.47360914 -107.74587489 18.02204059 -104.67076111 16.49640274 C-72.39823926 1.30011818 -34.98817548 0.04204389 0 0 Z " fill="#FDFDFD" transform="translate(424.67076110839844,300.5660972595215)" />
<path d="M0 0 C0.33 7.26 0.66 14.52 1 22 C2.98 20.68 4.96 19.36 7 18 C13.23848078 15.92050641 20.59730943 16.01863102 26.8984375 17.8359375 C32.91322399 20.59348577 37.39353092 24.4500448 41 30 C44.04116305 36.01715832 44.91833498 42.33696951 44 49 C42.25729754 55.34306219 39.64442146 60.35557854 35 65 C30.07733133 68.77055473 25.61905341 70.78031905 19.4140625 71.30078125 C5.20820203 71.3447169 5.20820203 71.3447169 0 68 C-5.22553085 64.11324152 -7.95894715 59.75039416 -10.2734375 53.72265625 C-12.05606513 47.04259463 -12.1401546 40.33316638 -12.09765625 33.46875 C-12.0962413 32.59222778 -12.09482635 31.71570557 -12.09336853 30.81262207 C-12.08781768 28.04171179 -12.07527461 25.27088543 -12.0625 22.5 C-12.05747864 20.60937618 -12.05291685 18.71875107 -12.04882812 16.828125 C-12.0378644 12.21871817 -12.02063425 7.60937327 -12 3 C-10.56445975 2.49440092 -9.1264798 1.9957251 -7.6875 1.5 C-6.88699219 1.2215625 -6.08648437 0.943125 -5.26171875 0.65625 C-3 0 -3 0 0 0 Z M6 30 C2.71638604 32.55392197 0.57648042 35.18587799 -0.69140625 39.17578125 C-1.46220095 43.87357213 -0.97708691 47.83873591 0.90625 52.20703125 C3.09703313 55.79835074 6.24917271 58.12458636 10 60 C15.13606096 60.51956836 20.26403066 60.82349155 24.9375 58.375 C28.2744046 55.78719643 30.08364772 53.7589987 32 50 C33.20281879 45.75004027 33.10568018 42.56793244 31.9375 38.375 C30.72762928 35.19027303 29.71870253 33.68521474 27.375 31.0625 C20.17453152 26.66221371 13.53976248 25.77037714 6 30 Z " fill="#497398" transform="translate(354,457)" />
<path d="M0 0 C5.7781156 2.52407789 9.26598992 6.14572459 12.94921875 11.1953125 C14.12890625 13.18359375 14.12890625 13.18359375 14.12890625 15.18359375 C13.36191406 15.61027344 12.59492188 16.03695313 11.8046875 16.4765625 C0.71338727 22.72427518 -10.07871105 29.43565106 -20.87109375 36.18359375 C-18.02124095 39.16072226 -16.26632369 40.77299043 -12.18359375 41.62109375 C-7.56217459 42.39019591 -4.24306603 41.89463583 0.08984375 40.1875 C2.97057585 38.76920852 5.48883683 37.00649882 8.12890625 35.18359375 C9.11890625 35.18359375 10.10890625 35.18359375 11.12890625 35.18359375 C11.62390625 40.62859375 11.62390625 40.62859375 12.12890625 46.18359375 C3.58752323 51.77967228 -2.76217775 53.72093934 -13.1015625 53.55859375 C-18.5431857 53.01725092 -22.49718557 51.43535694 -26.87109375 48.18359375 C-32.02993644 43.56258785 -34.68966574 38.37229304 -36.55859375 31.74609375 C-37.52439656 23.82651071 -36.58139908 18.27955269 -32.87109375 11.18359375 C-29.61509122 5.93328967 -25.38878015 2.61405099 -19.77734375 0.0703125 C-13.233847 -1.92615761 -6.56981078 -1.86815028 0 0 Z M-20.87109375 13.18359375 C-23.78734061 16.54849398 -24.77342288 18.67896094 -25.62109375 23.05859375 C-25.70359375 24.08984375 -25.78609375 25.12109375 -25.87109375 26.18359375 C-22.38934622 24.88568013 -19.35493468 23.36373693 -16.2265625 21.36328125 C-15.38544922 20.82832031 -14.54433594 20.29335938 -13.67773438 19.7421875 C-12.81341797 19.18660156 -11.94910156 18.63101562 -11.05859375 18.05859375 C-9.73311523 17.21361328 -9.73311523 17.21361328 -8.38085938 16.3515625 C-6.20851962 14.96596201 -4.03872292 13.57654741 -1.87109375 12.18359375 C-3.65022483 10.08549087 -3.65022483 10.08549087 -5.75390625 9.62890625 C-11.7916815 8.76636693 -15.9368206 9.47730713 -20.87109375 13.18359375 Z " fill="#D3A231" transform="translate(211.87109375,474.81640625)" />
<path d="M0 0 C3.60860254 1.627941 5.32827274 3.23415999 7.828125 6.375 C10.48224288 11.36474161 10.53684299 15.57536446 10.5234375 21.1015625 C10.52439423 21.96059174 10.52535095 22.81962097 10.52633667 23.7046814 C10.5270168 25.51861647 10.52517418 27.33255399 10.52099609 29.14648438 C10.51563241 31.93364879 10.52095344 34.72065301 10.52734375 37.5078125 C10.5266832 39.26822952 10.5254025 41.02864645 10.5234375 42.7890625 C10.52546173 43.62756744 10.52748596 44.46607239 10.52957153 45.32998657 C10.52141696 47.32467882 10.46137166 49.31904607 10.390625 51.3125 C10.060625 51.6425 9.730625 51.9725 9.390625 52.3125 C7.87593052 52.54442865 6.35307938 52.72465238 4.828125 52.875 C4.00183594 52.95878906 3.17554688 53.04257812 2.32421875 53.12890625 C1.68613281 53.18949219 1.04804688 53.25007812 0.390625 53.3125 C0.060625 52.6525 -0.269375 51.9925 -0.609375 51.3125 C-0.114375 50.3225 -0.114375 50.3225 0.390625 49.3125 C-0.681875 49.9725 -1.754375 50.6325 -2.859375 51.3125 C-8.32688342 54.03168713 -13.62527841 54.12027061 -19.609375 53.3125 C-24.10876939 51.85633236 -27.74070759 48.9048537 -30.59765625 45.13671875 C-32.6791881 41.38353197 -33.46136813 37.57895899 -33.609375 33.3125 C-32.88075034 28.63277667 -31.15519805 24.70528948 -28.296875 20.9375 C-25.35706208 18.06605482 -23.51334741 16.61382414 -19.609375 15.3125 C-12.85716489 14.57700964 -7.60563911 15.11449247 -1.609375 18.3125 C-1.939375 16.0025 -2.269375 13.6925 -2.609375 11.3125 C-11.48438521 9.80918194 -18.94839173 11.0745525 -27.609375 13.3125 C-26.619375 9.3525 -25.629375 5.3925 -24.609375 1.3125 C-16.67706511 -1.23972326 -8.17148654 -2.15296651 0 0 Z M-19.109375 27.3125 C-21.65495716 29.94694836 -21.65495716 29.94694836 -22.15234375 32.28515625 C-22.40288966 34.69565479 -22.40288966 34.69565479 -21.609375 38.3125 C-19.37132056 40.6094506 -17.44982828 41.89227336 -14.609375 43.3125 C-11.51436041 43.3976281 -8.61336158 43.05831736 -5.609375 42.3125 C-2.41933617 40.37328239 -2.41933617 40.37328239 -0.609375 37.3125 C0.14073867 33.76978358 0.14073867 33.76978358 -0.609375 30.3125 C-2.82800529 27.40532927 -4.12882429 26.47268357 -7.609375 25.3125 C-12.15415455 24.8654725 -15.30070758 24.61657864 -19.109375 27.3125 Z " fill="#497297" transform="translate(325.609375,474.6875)" />
<path d="M0 0 C6.7029138 3.07776319 11.37383015 7.69683655 15.12890625 14 C17.87080898 20.0169532 17.84245069 26.70570699 17.03515625 33.1640625 C15.32593992 38.86145027 12.49499444 43.06189811 8.16015625 47.1015625 C3.3229636 50.89263401 -0.28897881 52.9221764 -6.421875 53.4765625 C-14.14887604 53.72308696 -20.37107078 53.37019557 -26.96484375 49.1640625 C-32.81745684 45.33735394 -35.38298257 40.49013671 -37.96484375 34.1640625 C-39.62839133 28.59797878 -39.46527719 23.21583221 -37.90234375 17.6640625 C-35.71284117 11.72989663 -31.89266708 7.32904012 -26.8359375 3.58984375 C-18.73187879 -1.61884223 -9.32304168 -2.62863099 0 0 Z M-22.96484375 14.1640625 C-25.5649626 17.24315062 -26.80689025 19.60596015 -27.90234375 23.4765625 C-27.98264131 28.21411876 -27.16982094 31.95885601 -24.96484375 36.1640625 C-22.65404324 38.75756732 -20.08375836 40.6046052 -16.96484375 42.1640625 C-11.40953127 42.671359 -6.54654139 42.92666672 -1.46484375 40.4765625 C1.96580527 37.30321215 4.54436778 34.63642792 6.03515625 30.1640625 C6.45657561 24.6856108 5.71003025 20.97883569 3.03515625 16.1640625 C0.65727715 13.70375026 -1.88863367 11.70216754 -4.96484375 10.1640625 C-12.10382084 9.44187742 -17.22719861 9.71446015 -22.96484375 14.1640625 Z " fill="#497297" transform="translate(504.96484375,474.8359375)" />
<path d="M0 0 C0.68126953 -0.01611328 1.36253906 -0.03222656 2.06445312 -0.04882812 C6.77506607 -0.05335321 9.95105941 0.82533299 13.9375 3.3125 C16.41390735 5.62420567 18.41742505 8.2723501 19.9375 11.3125 C20.02461775 14.37492321 20.0529846 17.41436465 20.03515625 20.4765625 C20.0337413 21.38377045 20.03232635 22.29097839 20.03086853 23.22567749 C20.02526096 26.12965155 20.01270718 29.03354915 20 31.9375 C19.99498598 33.90364472 19.9904229 35.86979065 19.98632812 37.8359375 C19.97528906 42.6614879 19.95801935 47.48698097 19.9375 52.3125 C13.3125 54.3125 13.3125 54.3125 9.9375 54.3125 C9.6075 53.3225 9.2775 52.3325 8.9375 51.3125 C8.215625 51.8075 7.49375 52.3025 6.75 52.8125 C1.48783734 55.39370301 -4.38610111 55.13408405 -10.0625 54.3125 C-14.45024132 52.58149801 -17.58868482 50.18680844 -20.5 46.484375 C-23.06749595 42.09823609 -23.68132233 37.80776898 -23.44140625 32.76953125 C-22.81924761 28.73512108 -21.54488882 25.55981095 -19.0625 22.3125 C-15.97492015 19.49157477 -13.0300731 17.63502437 -9.0625 16.3125 C-2.30540965 15.7529957 2.93089792 16.10897889 8.9375 19.3125 C7.4525 15.8475 7.4525 15.8475 5.9375 12.3125 C-2.28170674 10.77255833 -9.0699348 12.0951269 -17.0625 14.3125 C-16.92081863 12.87458484 -16.77398957 11.4371763 -16.625 10 C-16.54378906 9.19949219 -16.46257812 8.39898437 -16.37890625 7.57421875 C-16.0625 5.3125 -16.0625 5.3125 -15.0625 2.3125 C-9.97362853 0.64717179 -5.37203587 -0.02555678 0 0 Z M-10.0625 29.3125 C-12.24094932 32.12169458 -12.24094932 32.12169458 -12.5 35.1875 C-12.28753079 38.45353424 -12.28753079 38.45353424 -10.0625 41.125 C-6.84846338 43.46856837 -4.94782728 44.19556391 -1.0546875 44.4453125 C2.21561271 44.22729249 4.27433647 43.17052107 6.9375 41.3125 C9.09004366 39.16951707 9.09004366 39.16951707 9.9375 36.3125 C9.60109081 32.63504111 9.60109081 32.63504111 7.9375 29.3125 C5.67703182 27.25148489 4.03083459 26.46963918 1.0078125 26.03515625 C-3.49540386 25.82274038 -6.43564776 26.43235263 -10.0625 29.3125 Z " fill="#487297" transform="translate(423.0625,473.6875)" />
<path d="M0 0 C0 6.93 0 13.86 0 21 C2.31 19.68 4.62 18.36 7 17 C11.82424571 15.66842087 16.52325841 15.54440078 21.3125 17.0625 C25.45673869 18.90438386 27.49308529 21.23962793 30 25 C32.18089923 30.11727335 32.26383964 34.6595527 32.1953125 40.1171875 C32.1924826 40.97434357 32.18965271 41.83149963 32.18673706 42.71463013 C32.17559999 45.43489932 32.1505076 48.15483141 32.125 50.875 C32.11496182 52.72655772 32.10583744 54.57812064 32.09765625 56.4296875 C32.07568188 60.9532536 32.041197 65.47656977 32 70 C28.37 70.33 24.74 70.66 21 71 C20.98018066 69.94611084 20.96036133 68.89222168 20.93994141 67.80639648 C20.86349313 63.87192111 20.77483823 59.93779677 20.68261719 56.00366211 C20.64448871 54.30549076 20.60960854 52.60724308 20.578125 50.90893555 C20.53212178 48.45854533 20.47418849 46.00867333 20.4140625 43.55859375 C20.40251129 42.80726669 20.39096008 42.05593964 20.37905884 41.28184509 C20.24791402 36.52822771 19.48554878 32.52180199 18 28 C14.28874496 27.7075193 10.70394726 27.57282184 7 28 C3.80671116 30.10599174 3.80671116 30.10599174 2 33 C0.79838489 36.60484534 0.76982864 39.97289857 0.68359375 43.73046875 C0.66281265 44.48088943 0.64203156 45.23131012 0.62062073 46.00447083 C0.55530074 48.39872184 0.49632208 50.79308139 0.4375 53.1875 C0.39429807 54.81186013 0.35068324 56.43620933 0.30664062 58.06054688 C0.19963737 62.04025371 0.09832063 66.02006958 0 70 C-5.445 70.495 -5.445 70.495 -11 71 C-11 48.23 -11 25.46 -11 2 C-2 0 -2 0 0 0 Z " fill="#D5A332" transform="translate(101,457)" />
<path d="M0 0 C2.95576734 1.43565842 5.74668526 2.87861516 8.46875 4.71875 C8.96375 5.70875 8.96375 5.70875 9.46875 6.71875 C7.48875 9.02875 5.50875 11.33875 3.46875 13.71875 C0.09412285 13.17151317 -1.6136 12.66385 -4.53125 10.71875 C-9.80866041 10.00625817 -14.24012994 10.07318997 -19.03125 12.46875 C-22.29108476 15.40260128 -24.14220276 17.55160829 -25.53125 21.71875 C-25.81270063 26.01087208 -25.83794536 28.84977983 -24.40625 32.90625 C-22.19718553 36.21984671 -20.03363562 38.81181119 -16.53125 40.71875 C-12.79425931 41.82827547 -9.31616994 42.24372645 -5.5390625 41.1328125 C-3.83882707 40.39580058 -2.18218998 39.56040568 -0.53125 38.71875 C1.44875 38.22375 1.44875 38.22375 3.46875 37.71875 C5.44875 40.35875 7.42875 42.99875 9.46875 45.71875 C2.02369144 50.39766032 -4.15972656 54.24397436 -13.17578125 53.95703125 C-19.6698514 53.30008551 -24.32297565 51.21385907 -29.34375 47.03125 C-33.96580329 42.64312262 -36.465463 38.27137333 -38.28125 32.21875 C-39.08587627 24.1724873 -38.29310878 17.99874151 -34.53125 10.71875 C-30.76152414 5.62153602 -26.09152293 1.62689215 -20.13671875 -0.6484375 C-13.28638542 -2.3122366 -6.65826894 -2.41583209 0 0 Z " fill="#D3A231" transform="translate(77.53125,475.28125)" />
<path d="M0 0 C3.33961679 1.22960854 6.26336809 2.71446127 9 5 C10.24609375 7.171875 10.24609375 7.171875 11 9 C9.35 10.98 7.7 12.96 6 15 C3.31986536 14.48458949 1.53872619 13.73928002 -0.875 12.375 C-3.95046986 10.72002779 -3.95046986 10.72002779 -7.375 11.3125 C-8.24125 11.539375 -9.1075 11.76625 -10 12 C-10.33 13.65 -10.66 15.3 -11 17 C-7.04107854 20.27536668 -2.72799249 21.79951742 2.02734375 23.62109375 C5.89583569 25.41554533 8.93269637 27.36841198 11.29296875 30.9765625 C12.57197787 34.63693114 12.41926695 38.18001224 12 42 C10.63944663 45.9304875 9.16869615 47.83505265 6.1875 50.75 C2.1930667 53.56959997 -0.58691251 54.90227372 -5.5078125 55.1015625 C-11.87853329 54.87086788 -16.10135821 53.28037661 -21.3203125 49.66796875 C-23 48 -23 48 -23.7421875 45.80078125 C-23.82726562 45.20652344 -23.91234375 44.61226562 -24 44 C-19.60546875 40.09375 -19.60546875 40.09375 -18 39 C-17.01 39 -16.02 39 -15 39 C-13.4375 40.4375 -13.4375 40.4375 -12 42 C-8.95016004 43.52491998 -6.3576631 43.23562548 -3 43 C-0.95548981 41.95625978 -0.95548981 41.95625978 0 40 C0.25069913 37.37429296 0.25069913 37.37429296 0 35 C-0.54527344 34.82984375 -1.09054687 34.6596875 -1.65234375 34.484375 C-16.2508351 29.79289402 -16.2508351 29.79289402 -20.5 25.4375 C-22.83304246 21.64630601 -23.29212817 18.48769805 -23.2109375 14.0546875 C-22.87707447 10.8026143 -21.80472878 8.70709317 -20 6 C-14.04124184 -0.0238812 -8.21417853 -0.9843889 0 0 Z " fill="#497398" transform="translate(549,474)" />
<path d="M0 0 C0 4.95 0 9.9 0 15 C4.62 15 9.24 15 14 15 C14 18.63 14 22.26 14 26 C9.38 26 4.76 26 0 26 C0.33 35.9 0.66 45.8 1 56 C7.98839061 56.73276687 7.98839061 56.73276687 15 57 C14.67 60.63 14.34 64.26 14 68 C7.76518475 68.96595729 2.92907776 69.36790849 -3.01953125 67.09375 C-6.8288933 64.98996031 -9.06230669 61.87538661 -11 58 C-11.08639869 55.59161322 -11.11567764 53.21266119 -11.09765625 50.8046875 C-11.0962413 50.09724396 -11.09482635 49.38980042 -11.09336853 48.66091919 C-11.087766 46.39890331 -11.07521318 44.13698602 -11.0625 41.875 C-11.05748532 40.34244935 -11.05292236 38.80989714 -11.04882812 37.27734375 C-11.03779577 33.51819112 -11.02052952 29.75911228 -11 26 C-13.64 26 -16.28 26 -19 26 C-18.69078116 24.54096742 -18.37751201 23.08279278 -18.0625 21.625 C-17.88847656 20.81289063 -17.71445313 20.00078125 -17.53515625 19.1640625 C-17 17 -17 17 -16 15 C-14.35 15 -12.7 15 -11 15 C-11 10.71 -11 6.42 -11 2 C-7.12315913 0.80712589 -4.08378077 0 0 0 Z " fill="#497297" transform="translate(244,460)" />
<path d="M0 0 C0.07626941 7.82871233 0.12869218 15.65732827 0.16479492 23.48632812 C0.17815167 26.14796423 0.20029814 28.80911286 0.22631836 31.47070312 C0.26284115 35.30344752 0.27975892 39.1358629 0.29296875 42.96875 C0.30845261 44.15239136 0.32393646 45.33603271 0.33988953 46.55554199 C0.34121472 53.10894059 -0.13466176 58.07058666 -3 64 C-5.43560092 67.02804439 -7.29867893 68.67271683 -10.8125 70.3125 C-14.67684927 71.1459871 -18.05229386 71.1361278 -22 71 C-22.66874384 69.35500958 -23.33494074 67.70898352 -24 66.0625 C-24.37125 65.14597656 -24.7425 64.22945312 -25.125 63.28515625 C-26 61 -26 61 -26 60 C-24.96939453 59.94392578 -24.96939453 59.94392578 -23.91796875 59.88671875 C-23.01691406 59.82097656 -22.11585938 59.75523437 -21.1875 59.6875 C-20.29417969 59.62949219 -19.40085937 59.57148437 -18.48046875 59.51171875 C-15.97172226 59.18255356 -15.97172226 59.18255356 -14.23828125 57.64453125 C-12.56519967 55.42255224 -12.03161571 53.45897813 -11.84178162 50.70307922 C-11.82623734 49.80373154 -11.81069305 48.90438385 -11.79467773 47.9777832 C-11.77473251 46.95695145 -11.75478729 45.93611969 -11.73423767 44.88435364 C-11.71752518 43.78427475 -11.70081268 42.68419586 -11.68359375 41.55078125 C-11.66281265 40.4230278 -11.64203156 39.29527435 -11.62062073 38.13334656 C-11.55517153 34.5264604 -11.49626156 30.91950071 -11.4375 27.3125 C-11.39431039 24.86913298 -11.35069596 22.42577344 -11.30664062 19.98242188 C-11.19949484 13.98835926 -11.09771971 7.99422329 -11 2 C-7.1389146 0.56331706 -4.103573 -0.11185208 0 0 Z " fill="#497297" transform="translate(462,474)" />
<path d="M0 0 C-0.54412723 4.57066877 -1.26695414 8.24206194 -4 12 C-6.26970852 12.74939143 -8.48729009 13.13324446 -10.84375 13.5234375 C-13.18935019 13.89327881 -13.18935019 13.89327881 -15.4375 15.75 C-18.71602509 20.47107613 -19.26441536 25.29297853 -19.4140625 30.9296875 C-19.47207031 32.86328125 -19.47207031 32.86328125 -19.53125 34.8359375 C-19.56269758 36.18228707 -19.59394511 37.52864132 -19.625 38.875 C-19.66323041 40.24481514 -19.70228501 41.61460755 -19.7421875 42.984375 C-19.83622715 46.32278263 -19.92188057 49.66118814 -20 53 C-24.26616316 54.13764351 -27.56486311 55 -32 55 C-32 37.51 -32 20.02 -32 2 C-26.555 1.505 -26.555 1.505 -21 1 C-20.67 3.31 -20.34 5.62 -20 8 C-19.505 7.236875 -19.01 6.47375 -18.5 5.6875 C-13.33640725 0.13663779 -7.2729328 -0.3896214 0 0 Z " fill="#487296" transform="translate(295,473)" />
<path d="M0 0 C0 23.43 0 46.86 0 71 C-5.445 71.495 -5.445 71.495 -11 72 C-11 48.57 -11 25.14 -11 1 C-5 0 -5 0 0 0 Z " fill="#D5A332" transform="translate(172,456)" />
<path d="M0 0 C0 17.49 0 34.98 0 53 C-5.445 53.495 -5.445 53.495 -11 54 C-11 36.84 -11 19.68 -11 2 C-4 0 -4 0 0 0 Z " fill="#D5A331" transform="translate(152,474)" />
<path d="M0 0 C4.53786224 2.26893112 5.94678157 4.09866534 9 8 C7.33248852 11.94139078 4.77289351 14.7892812 2 18 C-1.28788824 14.88983545 -3.83735988 11.98381075 -6 8 C-4.02 5.36 -2.04 2.72 0 0 Z " fill="#477094" transform="translate(455,454)" />
<path d="M0 0 C2.71378237 1.06612879 4.22663681 2.22663681 6.3125 4.3125 C8 7 8 7 8.0625 9.4375 C6.61095176 12.93829281 4.54464513 15.19436563 2 18 C-1 17 -1 17 -2.38671875 15.37109375 C-2.81597656 14.73300781 -3.24523437 14.09492188 -3.6875 13.4375 C-4.12449219 12.79683594 -4.56148437 12.15617187 -5.01171875 11.49609375 C-5.33785156 11.00238281 -5.66398438 10.50867188 -6 10 C-4.6302836 6.00499382 -2.74277578 3.19990508 0 0 Z " fill="#D2A131" transform="translate(146,454)" />
<path d="M0 0 C0 7.92 0 15.84 0 24 C-0.66 24 -1.32 24 -2 24 C-2 16.74 -2 9.48 -2 2 C-4.64 2.33 -7.28 2.66 -10 3 C-10 16.86 -10 30.72 -10 45 C-10.66 44.34 -11.32 43.68 -12 43 C-12.17546482 39.98691049 -12.23127445 37.06689546 -12.1953125 34.0546875 C-12.1924826 33.1696756 -12.18965271 32.2846637 -12.18673706 31.37283325 C-12.1755224 28.54008588 -12.1504157 25.70765216 -12.125 22.875 C-12.11497185 20.95703581 -12.10584572 19.03906667 -12.09765625 17.12109375 C-12.07557889 12.41394124 -12.04104045 7.70702384 -12 3 C-10.56445975 2.49440092 -9.1264798 1.9957251 -7.6875 1.5 C-6.88699219 1.2215625 -6.08648437 0.943125 -5.26171875 0.65625 C-3 0 -3 0 0 0 Z " fill="#2E4960" transform="translate(354,457)" />
<path d="M0 0 C0.66 0.33 1.32 0.66 2 1 C-4.27 7.27 -10.54 13.54 -17 20 C-17 19.01 -17 18.02 -17 17 C-12.15498724 10.58484422 -6.19007327 5.09373876 0 0 Z " fill="#D7DEE3" transform="translate(222,74)" />
<path d="M0 0 C0.66 0 1.32 0 2 0 C0.52278578 3.45201639 -1.43794001 5.64961936 -4.125 8.25 C-4.84945312 8.95640625 -5.57390625 9.6628125 -6.3203125 10.390625 C-6.87460938 10.92171875 -7.42890625 11.4528125 -8 12 C-8.99 11.67 -9.98 11.34 -11 11 C-9.21427748 9.16052663 -7.42197551 7.32842259 -5.625 5.5 C-5.11710937 4.97535156 -4.60921875 4.45070313 -4.0859375 3.91015625 C-2.76167396 2.56846819 -1.38394135 1.28004185 0 0 Z " fill="#2A3F54" transform="translate(126,54)" />
<path d="M0 0 C1.32 0 2.64 0 4 0 C4 0.66 4 1.32 4 2 C2.68 2 1.36 2 0 2 C0 1.34 0 0.68 0 0 Z " fill="#4E7797" transform="translate(437,546)" />
</svg>
