
<svg version="1.1" xmlns="http://www.w3.org/2000/svg" width="1200" height="630" viewBox="0 0 1200 630" preserveAspectRatio="xMidYMid meet">
<path d="M0 0 C396 0 792 0 1200 0 C1200 207.9 1200 415.8 1200 630 C804 630 408 630 0 630 C0 422.1 0 214.2 0 0 Z " fill="#FEFEFE" transform="translate(0,0)" />
<path d="M0 0 C-0.98228727 2.44775193 -1.72422207 3.79990266 -3.8815918 5.36523438 C-4.64640869 5.77064453 -5.41122559 6.17605469 -6.19921875 6.59375 C-7.06619385 7.06031006 -7.93316895 7.52687012 -8.82641602 8.00756836 C-10.24265259 8.74632202 -10.24265259 8.74632202 -11.6875 9.5 C-12.67355225 10.02408447 -13.65960449 10.54816895 -14.67553711 11.08813477 C-16.75140348 12.18896053 -18.8300007 13.28465022 -20.91113281 14.37548828 C-23.80315232 15.89647293 -26.68045384 17.44182903 -29.5546875 18.99609375 C-52.33599172 31.22595025 -75.80103885 41.28250596 -100.13867188 49.96582031 C-103.32639809 51.11797119 -106.48467072 52.33455158 -109.64208984 53.56665039 C-117.81760764 56.74186103 -126.11027689 59.08578725 -134.57128906 61.33935547 C-137.12610696 62.03430292 -139.66883787 62.76383103 -142.2109375 63.50390625 C-143.10208252 63.76300781 -143.99322754 64.02210938 -144.91137695 64.2890625 C-146.59304666 64.7796721 -148.27396981 65.27285391 -149.95385742 65.76953125 C-164.67034596 70.03646843 -179.59966831 72.97876725 -194.6875 75.5625 C-195.56894684 75.71440796 -196.45039368 75.86631592 -197.35855103 76.02282715 C-203.23592084 77.03416188 -209.11633335 78.02598767 -215 79 C-216.11632812 79.18481934 -217.23265625 79.36963867 -218.3828125 79.56005859 C-224.57190742 80.55673561 -230.76704593 81.3349777 -237 82 C-238.20237305 82.13390137 -239.40474609 82.26780273 -240.64355469 82.40576172 C-314.90604866 90.50738541 -409.90371557 90.02776717 -478.4609375 55.8359375 C-481.57712995 53.58269065 -483.16316917 51.36609929 -485 48 C-485.68217112 44.90013418 -485.56706843 42.11887639 -485 39 C-483.5 36.375 -483.5 36.375 -481 35 C-475.37596816 35.36150257 -471.02357971 36.56781463 -465.8125 38.8125 C-453.91870406 43.91358778 -441.45728621 47.04874834 -428.875 49.9375 C-428.12920685 50.10952942 -427.3834137 50.28155884 -426.61502075 50.45880127 C-410.72325737 54.09116834 -394.73278275 56.53006481 -378.56542969 58.55224609 C-375.73055252 58.90825573 -372.90034987 59.28392043 -370.0703125 59.67578125 C-365.72277048 60.25262787 -361.37127495 60.65091356 -357 61 C-355.93313965 61.08878418 -354.8662793 61.17756836 -353.76708984 61.26904297 C-332.9022429 62.91897686 -312.04086226 63.18858437 -291.12019348 63.18758392 C-289.75848891 63.18752839 -288.39678422 63.18795343 -287.03507996 63.18888092 C-261.3615486 63.20635786 -236.21368246 62.06969321 -210.6875 59.3125 C-209.45599213 59.18061279 -208.22448425 59.04872559 -206.95565796 58.9128418 C-188.93317461 56.96492315 -171.21462154 54.56214442 -153.48876953 50.74121094 C-149.87375462 49.97317838 -146.250688 49.26598076 -142.62109375 48.5703125 C-125.79034424 45.30071883 -109.40097722 40.98112166 -93 36 C-91.95038086 35.68522705 -90.90076172 35.3704541 -89.81933594 35.04614258 C-81.55844597 32.5448798 -73.38762957 29.81334252 -65.25 26.9375 C-64.24770355 26.58342575 -64.24770355 26.58342575 -63.22515869 26.22219849 C-44.77186975 19.66945258 -27.01217962 11.65802239 -9.45654297 2.99584961 C-8.64846191 2.60147705 -7.84038086 2.20710449 -7.0078125 1.80078125 C-6.30285645 1.45184814 -5.59790039 1.10291504 -4.87158203 0.7434082 C-3 0 -3 0 0 0 Z " fill="#FF7104" transform="translate(1100,353)" />
<path d="M0 0 C6.6 0 13.2 0 20 0 C20.33 15.51 20.66 31.02 21 47 C24.63 44.36 28.26 41.72 32 39 C38.03520111 36.02882407 43.2935654 35.10580872 50 36 C56.23944584 37.58822258 61.48536808 40.40326071 66.1796875 44.8125 C71.04381518 50.65780365 74.70096119 58.48485752 76 66 C76.30894254 70.3987179 76.32459042 74.77933424 76.3125 79.1875 C76.32861328 80.34314453 76.34472656 81.49878906 76.36132812 82.68945312 C76.36744988 93.59230151 74.75885279 103.48964831 68.7265625 112.74609375 C63.75112851 119.24117387 57.74962594 123.41215364 50 126 C41.39507277 128.13356981 31.40639485 127.91358003 23 125 C20.88564367 123.97680256 18.84427226 122.90551163 16.82421875 121.70703125 C14.9922357 120.83212241 14.9922357 120.83212241 12.8828125 121.2578125 C10.79691891 121.91445283 10.79691891 121.91445283 9.1875 124.0625 C8.1046875 125.0215625 8.1046875 125.0215625 7 126 C4.69 126 2.38 126 0 126 C0 84.42 0 42.84 0 0 Z " fill="#113B7A" transform="translate(810,215)" />
<path d="M0 0 C1.23973855 0.53879985 2.47039035 1.09936648 3.6875 1.6875 C5.04875 2.3371875 5.04875 2.3371875 6.4375 3 C9.34624265 5.18155699 10.9130631 7.53294552 12.6875 10.6875 C12.6875 11.6775 12.6875 12.6675 12.6875 13.6875 C13.44933594 13.01654297 13.44933594 13.01654297 14.2265625 12.33203125 C15.66191593 11.07139312 17.10232601 9.81649672 18.546875 8.56640625 C20.25671409 7.06561683 21.91844315 5.51007612 23.5625 3.9375 C29.0229597 0.00596902 35.00581662 -1.43482626 41.6875 -1.75 C47.21053699 -1.53324031 51.93716007 -0.14995137 56.6875 2.6875 C61.10873762 6.44388986 64.05145402 10.52854634 66.05143738 16.01080322 C67.48617583 22.04851028 67.04691073 28.38874812 66.98046875 34.5625 C66.97486509 36.09805891 66.97059863 37.63362323 66.96760559 39.16918945 C66.9562173 43.18714521 66.92680299 47.20476938 66.89349365 51.22259521 C66.86266208 55.33194495 66.84907244 59.44134889 66.83398438 63.55078125 C66.80192655 71.59652239 66.74920885 79.64193159 66.6875 87.6875 C60.0875 87.6875 53.4875 87.6875 46.6875 87.6875 C46.657771 84.82650635 46.657771 84.82650635 46.62744141 81.90771484 C46.55956462 75.5932585 46.48278128 69.27895914 46.39997292 62.96468163 C46.35010923 59.13778659 46.3037787 55.31091783 46.265625 51.48388672 C46.22864625 47.78792215 46.18225293 44.09218287 46.12943649 40.3964119 C46.11095921 38.98912142 46.09582684 37.58178278 46.08415604 36.1744194 C46.06717974 34.19739981 46.0370138 32.22050698 46.00634766 30.24365234 C45.99302399 29.12002289 45.97970032 27.99639343 45.9659729 26.8387146 C45.66896499 23.4777568 45.00934037 20.78993148 43.6875 17.6875 C38.812363 15.07157283 34.06943032 15.13550715 28.6875 15.6875 C24.7275 17.6675 20.7675 19.6475 16.6875 21.6875 C16.3575 43.4675 16.0275 65.2475 15.6875 87.6875 C9.0875 87.6875 2.4875 87.6875 -4.3125 87.6875 C-4.32708252 85.74464111 -4.34166504 83.80178223 -4.35668945 81.80004883 C-4.40837958 75.37377979 -4.47367596 68.94776114 -4.54821491 62.52171803 C-4.59290223 58.6263976 -4.63216173 54.73118136 -4.65893555 50.83569336 C-4.68498524 47.07481779 -4.7253988 43.3143435 -4.77568626 39.55371666 C-4.79234384 38.12049039 -4.80386505 36.68719472 -4.81011391 35.25388527 C-4.81976611 33.24311919 -4.84953652 31.23248038 -4.88012695 29.22192383 C-4.89678154 27.50650139 -4.89678154 27.50650139 -4.91377258 25.75642395 C-5.35803247 22.33704586 -6.27566754 20.44459894 -8.3125 17.6875 C-11.94947238 15.44113471 -15.71776111 15.27862333 -19.90234375 15.35546875 C-23.35948802 15.8317366 -26.17717561 17.14331875 -29.26953125 18.71484375 C-31.3125 19.6875 -31.3125 19.6875 -35.3125 20.6875 C-35.3125 42.7975 -35.3125 64.9075 -35.3125 87.6875 C-41.9125 87.6875 -48.5125 87.6875 -55.3125 87.6875 C-55.3125 58.9775 -55.3125 30.2675 -55.3125 0.6875 C-49.0425 0.6875 -42.7725 0.6875 -36.3125 0.6875 C-35.6525 3.9875 -34.9925 7.2875 -34.3125 10.6875 C-33.343125 9.615 -32.37375 8.5425 -31.375 7.4375 C-23.37256458 -0.59746565 -10.81809203 -3.92078857 0 0 Z " fill="#113B7A" transform="translate(345.3125,252.3125)" />
<path d="M0 0 C6.46850473 3.03350567 11.55064646 7.29070829 15.25 13.4375 C21.71592994 26.47895192 22.84204523 38.97875172 20.9921875 53.22265625 C19.29387949 62.19245547 16.5425032 70.29398473 10.3125 77.125 C4.99428757 82.0270045 -2.03000892 85.53701 -9.11328125 87.03125 C-19.54267076 88.26024516 -29.5345705 88.05613475 -38.8984375 83.0234375 C-46.32556656 78.40924104 -50.77766071 73.3997376 -54.25 65.375 C-59.23290197 52.38100163 -59.85298257 39.66738971 -57.1875 25.98828125 C-55.04393939 17.6454459 -50.90555819 10.67773271 -44.79296875 4.62109375 C-32.12742163 -6.01796583 -14.66220009 -5.81002147 0 0 Z " fill="#123C7A" transform="translate(1078.5,254.6875)" />
<path d="M0 0 C7.27619027 3.64377079 13.25942443 9.10978546 17.25 16.23046875 C22.9409281 28.38645854 23.55764408 42.06567047 21.67919922 55.25195312 C19.83489363 64.49364964 16.0406425 71.8491797 9.75 78.75 C4.71098275 83.54854354 -1.82453439 86.19810515 -8.5859375 87.6796875 C-18.90732323 89.04919176 -28.52607379 88.49278975 -38 84 C-43.98438605 80.57745772 -48.55850407 75.97411014 -52 70 C-58.01246408 56.15020254 -59.06796205 40.49900591 -56.6015625 25.59179688 C-55.61569236 21.74311154 -54.03970038 18.39228683 -52 15 C-51.56558594 14.24332031 -51.13117188 13.48664063 -50.68359375 12.70703125 C-46.49480749 6.34628175 -40.35308534 1.82132057 -33.3671875 -1.1015625 C-22.42033712 -4.51646918 -10.72074716 -3.98456942 0 0 Z " fill="#103B7A" transform="translate(253,254)" />
<path d="M0 0 C5.36116812 2.57466432 8.32261326 5.22376763 11.48046875 10.3125 C19.14474533 24.11559166 19.74468414 39.03558961 18.2578125 54.48046875 C16.62457383 64.76112289 13.17126164 72.52742828 5.94140625 80.1015625 C2.72574421 82.99406905 -0.39699814 84.74591455 -4.4296875 86.234375 C-5.3578125 86.646875 -6.2859375 87.059375 -7.2421875 87.484375 C-15.68400874 89.47068588 -23.40510516 88.26518594 -31.4296875 85.234375 C-32.0896875 84.904375 -32.7496875 84.574375 -33.4296875 84.234375 C-33.4296875 80.274375 -33.4296875 76.314375 -33.4296875 72.234375 C-32.6871875 72.399375 -31.9446875 72.564375 -31.1796875 72.734375 C-21.11473023 74.13004052 -21.11473023 74.13004052 -11.4296875 71.796875 C-7.49185656 68.43331107 -6.02135835 65.08482217 -4.4296875 60.234375 C-4.07003906 59.18636719 -3.71039063 58.13835937 -3.33984375 57.05859375 C-2.23217208 52.40447117 -2.13658233 48.12249655 -2.1796875 43.359375 C-2.17195313 42.51246094 -2.16421875 41.66554688 -2.15625 40.79296875 C-2.18179963 32.45101419 -3.21638894 24.86968012 -8.03515625 17.8984375 C-10.32250887 15.16899152 -11.98658179 14.23600575 -15.4296875 13.234375 C-24.85252821 12.03436055 -28.25517656 13.64711953 -37.4296875 18.234375 C-37.7596875 53.214375 -38.0896875 88.194375 -38.4296875 124.234375 C-44.6996875 124.234375 -50.9696875 124.234375 -57.4296875 124.234375 C-57.4296875 82.984375 -57.4296875 41.734375 -57.4296875 -0.765625 C-51.1596875 -0.765625 -44.8896875 -0.765625 -38.4296875 -0.765625 C-38.0996875 2.204375 -37.7696875 5.174375 -37.4296875 8.234375 C-36.74003906 7.69167969 -36.05039062 7.14898437 -35.33984375 6.58984375 C-23.7619299 -2.22461741 -13.91703735 -5.65985363 0 0 Z " fill="#0F3979" transform="translate(488.4296875,253.765625)" />
<path d="M0 0 C0.92804443 0.00491455 1.85608887 0.0098291 2.81225586 0.01489258 C14.59746035 0.21575919 24.02321259 3.58760554 34.75 8.3125 C34.75 14.2525 34.75 20.1925 34.75 26.3125 C33.38746094 25.81878906 32.02492188 25.32507813 30.62109375 24.81640625 C28.81001984 24.16892387 26.99881495 23.52180778 25.1875 22.875 C24.29224609 22.54951172 23.39699219 22.22402344 22.47460938 21.88867188 C12.70585881 18.41772387 2.4377603 16.86176366 -7.87890625 18.80859375 C-12.72387416 20.25962475 -16.99362807 22.33669706 -20.25 26.3125 C-25.49603606 34.76444699 -27.56834531 43.18240665 -27.515625 53.01953125 C-27.51753845 53.82557297 -27.5194519 54.63161469 -27.52142334 55.46208191 C-27.52277584 57.15709752 -27.51914525 58.85212382 -27.51074219 60.54711914 C-27.50007156 63.10782806 -27.51064759 65.66782877 -27.5234375 68.22851562 C-27.53546138 80.3580336 -27.24522998 91.20065398 -20.95703125 101.92578125 C-17.8362832 106.28911548 -14.42026121 108.43944199 -9.51171875 110.4140625 C-0.78214803 112.81861491 9.41956435 112.02732616 18.0078125 109.3125 C22.39921071 107.71107843 26.76228521 106.04833272 31.09765625 104.30078125 C33.75 103.3125 33.75 103.3125 35.75 103.3125 C35.42 109.2525 35.09 115.1925 34.75 121.3125 C19.14499496 127.89809846 4.53724675 131.43361488 -12.5 128.8125 C-15.18233387 128.14191653 -17.67911753 127.32688973 -20.25 126.3125 C-21.09820312 125.98378906 -21.94640625 125.65507812 -22.8203125 125.31640625 C-30.63253391 121.86421667 -36.58280444 116.68600188 -41.0390625 109.37890625 C-48.43871676 95.07169296 -50.63559369 81.09544114 -50.5625 65.0625 C-50.55758545 63.78705322 -50.5526709 62.51160645 -50.54760742 61.19750977 C-50.34380319 44.78343019 -47.79185559 29.16914231 -38.11328125 15.4140625 C-31.28705709 7.71488305 -22.4111974 3.15354241 -12.5534668 0.74023438 C-8.38308657 -0.03417009 -4.23060415 -0.02650129 0 0 Z " fill="#113B7A" transform="translate(150.25,212.6875)" />
<path d="M0 0 C1.70639648 -0.04253906 1.70639648 -0.04253906 3.44726562 -0.0859375 C11.64813434 -0.10465026 18.393725 1.41237808 25.5625 5.5 C29.46487164 8.87314533 31.98311469 11.76224993 33.62985229 16.7013092 C34.55837074 20.48318145 34.80401661 23.65278911 34.78955078 27.53686523 C34.78984283 28.20113022 34.79013489 28.8653952 34.79043579 29.54978943 C34.78905563 31.71952932 34.77355749 33.88891474 34.7578125 36.05859375 C34.75407768 37.57316399 34.75123292 39.08773665 34.74923706 40.60231018 C34.74163751 44.56923206 34.72202107 48.53600515 34.6998291 52.50286865 C34.67929101 56.55853259 34.67021838 60.61422081 34.66015625 64.66992188 C34.6387713 72.6133568 34.6036196 80.55664269 34.5625 88.5 C28.2925 88.5 22.0225 88.5 15.5625 88.5 C14.5725 83.55 14.5725 83.55 13.5625 78.5 C12.80066406 79.11488281 12.03882813 79.72976563 11.25390625 80.36328125 C4.50539856 85.64582098 -1.23560457 89.73214628 -9.8984375 90.8046875 C-16.16978193 91.13272705 -21.07529166 89.74498719 -26.4375 86.5 C-30.83257374 82.98394101 -33.78188006 78.87412463 -35.4375 73.5 C-36.18816544 67.86621795 -36.20624715 62.41199113 -33.9375 57.125 C-30.93927246 52.0720431 -26.48955595 48.965862 -21.2578125 46.453125 C-14.65191297 43.73959051 -8.05873801 42.12503318 -1.0625 40.75 C0.00355469 40.52957031 1.06960938 40.30914062 2.16796875 40.08203125 C6.4136928 39.22220537 10.21465003 38.5 14.5625 38.5 C14.47504425 36.10250616 14.36812925 33.70851779 14.25 31.3125 C14.21616211 30.30219727 14.21616211 30.30219727 14.18164062 29.27148438 C13.946234 24.88436091 13.19308023 22.02692608 10.5625 18.5 C8.17756207 16.41317931 6.59696095 15.51148698 3.5625 14.5 C-6.30686639 13.85688339 -14.87876787 14.9305915 -24.4375 17.5 C-26.10140903 17.84683662 -27.76728584 18.18492297 -29.4375 18.5 C-28.98214901 16.93662827 -28.52307224 15.37434151 -28.0625 13.8125 C-27.80726563 12.94238281 -27.55203125 12.07226562 -27.2890625 11.17578125 C-27.00804687 10.29277344 -26.72703125 9.40976562 -26.4375 8.5 C-26.18863037 7.65655029 -25.93976074 6.81310059 -25.68334961 5.9440918 C-25.27221924 5.1375415 -24.86108887 4.33099121 -24.4375 3.5 C-17.16925766 -0.34705959 -8.00610164 -0.01808267 0 0 Z " fill="#113B7A" transform="translate(931.4375,251.5)" />
<path d="M0 0 C4.24546991 2.06577427 7.08496045 4.68720303 9.65698242 8.65014648 C13.30387501 15.4612635 12.61937513 22.90974654 12.48828125 30.41015625 C12.47893987 31.98911919 12.47183003 33.56809677 12.46684265 35.14707947 C12.44787665 39.27543109 12.3988685 43.40288394 12.34332275 47.53088379 C12.29190346 51.75418952 12.26928054 55.97764243 12.24414062 60.20117188 C12.19073683 68.46790358 12.10288904 76.73373596 12 85 C5.73 85 -0.54 85 -7 85 C-7 81.37 -7 77.74 -7 74 C-7.75023437 74.60328125 -8.50046875 75.2065625 -9.2734375 75.828125 C-17.14091661 81.97149659 -24.24605224 86.98724346 -34.5 87.5625 C-40.46166573 87.31761571 -45.11112107 85.35944664 -50 82 C-54.04864448 78.46593144 -56.38928468 74.08646943 -58 69 C-58.67150865 63.99644164 -58.53531631 59.48015874 -56.5 54.8125 C-53.33776457 49.29255546 -48.67918239 45.36627628 -43.05859375 42.5 C-37.54080021 40.25348558 -31.66926664 39.11766017 -25.875 37.8125 C-24.70839844 37.53986328 -23.54179688 37.26722656 -22.33984375 36.98632812 C-12.88973867 34.82676803 -12.88973867 34.82676803 -8 35 C-8.08737713 32.43593328 -8.19429119 29.87517784 -8.3125 27.3125 C-8.34633789 26.2306543 -8.34633789 26.2306543 -8.38085938 25.12695312 C-8.54820059 21.79534175 -8.88578778 19.276936 -10.16796875 16.16796875 C-12.56314235 13.33359487 -14.51093143 12.27809225 -18 11 C-20.79071094 10.68551379 -23.28163376 10.52458771 -26.0625 10.5625 C-26.80258301 10.56572266 -27.54266602 10.56894531 -28.30517578 10.57226562 C-34.39124544 10.72418817 -39.73039302 12.03589011 -45.4609375 14.125 C-48 15 -48 15 -51 15 C-50.45378409 9.67439491 -49.45560649 4.20790359 -46 0 C-42.09426672 -1.70944983 -38.199923 -2.3818773 -34 -3 C-33.20464844 -3.17917969 -32.40929687 -3.35835937 -31.58984375 -3.54296875 C-20.76245049 -5.45368521 -10.08129442 -4.31042687 0 0 Z " fill="#113B7A" transform="translate(779,255)" />
<path d="M0 0 C6.6 0 13.2 0 20 0 C20.0093457 1.97315186 20.01869141 3.94630371 20.02832031 5.97924805 C20.06386989 12.50534029 20.1176818 19.031083 20.18390274 25.5569334 C20.22337856 29.51282577 20.25556627 33.46849551 20.27099609 37.42456055 C20.2861624 41.24386903 20.32060631 45.0625655 20.36830902 48.88160133 C20.38312331 50.33715298 20.39104105 51.79279202 20.39188385 53.24841881 C20.39425536 55.29086595 20.42134398 57.33162418 20.45410156 59.3737793 C20.46298401 60.53515915 20.47186646 61.696539 20.48101807 62.89311218 C21.10643546 66.63717641 22.37784687 68.30576196 25 71 C28.96537516 72.98268758 33.68110987 72.42298408 38 72 C41.48381417 70.94719901 44.7046693 69.53085325 48 68 C48.99 67.67 49.98 67.34 51 67 C51 44.89 51 22.78 51 0 C57.6 0 64.2 0 71 0 C71 28.71 71 57.42 71 87 C64.73 87 58.46 87 52 87 C52 83.37 52 79.74 52 76 C50.845 77.0725 49.69 78.145 48.5 79.25 C42.08332702 84.85185737 35.01312891 88.30403601 26.46875 89.29296875 C20.19701046 89.6188878 15.64956501 88.56491569 10.1640625 85.5 C6.07031937 82.66245963 3.74862144 79.12293217 1 75 C-0.10027837 70.99278047 -0.12098507 67.14671264 -0.11352539 63.0065918 C-0.11374443 61.98137169 -0.11374443 61.98137169 -0.1139679 60.93544006 C-0.11327462 58.68999999 -0.10550974 56.44464423 -0.09765625 54.19921875 C-0.09578999 52.63694809 -0.09436707 51.07467685 -0.09336853 49.5124054 C-0.08955972 45.41069916 -0.07974346 41.30902861 -0.06866455 37.20733643 C-0.0584152 33.01778649 -0.05386337 28.82823075 -0.04882812 24.63867188 C-0.03811967 16.42576309 -0.02053617 8.2128901 0 0 Z " fill="#113B7A" transform="translate(522,253)" />
<path d="M0 0 C2.64 0 5.28 0 8 0 C8 6.27 8 12.54 8 19 C14.27 19 20.54 19 27 19 C27 23.62 27 28.24 27 33 C20.73 33 14.46 33 8 33 C8.0934059 40.77812969 8.19947151 48.55594335 8.31738281 56.33374023 C8.35571579 58.98082725 8.39056094 61.62796713 8.421875 64.27514648 C8.46743145 68.07555056 8.52544197 71.87558932 8.5859375 75.67578125 C8.59748871 76.86335526 8.60903992 78.05092926 8.62094116 79.27449036 C8.64081085 80.37540512 8.66068054 81.47631989 8.68115234 82.6105957 C8.69447601 83.58100296 8.70779968 84.55141022 8.7215271 85.55122375 C8.84005053 88.25530402 8.84005053 88.25530402 11 91 C16.28 91 21.56 91 27 91 C27 95.62 27 100.24 27 105 C18.50724666 107.68192211 10.50814522 109.38998466 1.640625 107.49609375 C-2.97947897 105.97632271 -6.0355396 103.81144909 -9 100 C-12.50569998 92.80773574 -12.39091546 86.2150001 -12.29296875 78.3125 C-12.28872391 77.01425293 -12.28447906 75.71600586 -12.28010559 74.37841797 C-12.26873422 70.95227243 -12.23933543 67.52651766 -12.20599365 64.1005249 C-12.1751248 60.5944141 -12.1615646 57.08823922 -12.14648438 53.58203125 C-12.11445673 46.72119519 -12.06335573 39.86061643 -12 33 C-15.3 33 -18.6 33 -22 33 C-22 30.03 -22 27.06 -22 24 C-21.41734375 23.77570313 -20.8346875 23.55140625 -20.234375 23.3203125 C-10.29474367 18.53803705 -5.51768964 9.11233158 0 0 Z " fill="#123C7B" transform="translate(627,234)" />
<path d="M0 0 C6.27 0 12.54 0 19 0 C19.0679421 12.19647729 19.12291196 24.39282761 19.15543652 36.58945179 C19.17105146 42.25363544 19.19221329 47.91768221 19.22631836 53.58178711 C19.25906085 59.05422487 19.27688435 64.52653147 19.28463173 69.99905968 C19.29014859 72.080513 19.3009213 74.16195965 19.31719017 76.2433567 C19.49756574 100.28984 19.49756574 100.28984 13.375 110.75 C8.84350382 117.03998724 2.26443702 122.23259542 -5 125 C-8 124 -8 124 -9.640625 122.0390625 C-10.17171875 121.24242187 -10.7028125 120.44578125 -11.25 119.625 C-11.79140625 118.83351563 -12.3328125 118.04203125 -12.890625 117.2265625 C-13.25671875 116.49179687 -13.6228125 115.75703125 -14 115 C-13.67 114.01 -13.34 113.02 -13 112 C-12.071875 111.4225 -11.14375 110.845 -10.1875 110.25 C-6.44804247 107.61038292 -4.73022888 105.17614334 -3 101 C-1.09941259 95.40980435 -0.69603368 90.4581864 -0.68115234 84.57641602 C-0.67110672 83.6585582 -0.6610611 82.74070038 -0.65071106 81.79502869 C-0.61998472 78.78132719 -0.60287329 75.7677141 -0.5859375 72.75390625 C-0.56721737 70.65639999 -0.54764333 68.5589012 -0.5272522 66.46141052 C-0.47601435 60.95582487 -0.43634393 55.45021483 -0.39910889 49.94451904 C-0.35901689 44.3203736 -0.30794826 38.69632891 -0.2578125 33.07226562 C-0.16115197 22.04824096 -0.07773071 11.02417441 0 0 Z " fill="#0E3878" transform="translate(986,253)" />
<path d="M0 0 C0.77923828 0.01804688 1.55847656 0.03609375 2.36132812 0.0546875 C4.26226131 0.10133617 6.16255169 0.17306171 8.0625 0.25 C7.44638165 4.56931387 6.42011422 8.50208775 5 12.625 C4.63777344 13.68460937 4.27554688 14.74421875 3.90234375 15.8359375 C3.62519531 16.63257813 3.34804688 17.42921875 3.0625 18.25 C2.1446875 18.20359375 1.226875 18.1571875 0.28125 18.109375 C-8.90672564 17.81316952 -8.90672564 17.81316952 -17.2890625 21.08203125 C-18.10503906 21.66017578 -18.10503906 21.66017578 -18.9375 22.25 C-19.62023987 22.64278641 -20.30297974 23.03557281 -21.00640869 23.44026184 C-21.64366882 24.03747543 -22.28092896 24.63468903 -22.9375 25.25 C-23.5568667 28.08784139 -23.5568667 28.08784139 -23.48339844 31.3737793 C-23.51297638 33.26540047 -23.51297638 33.26540047 -23.54315186 35.19523621 C-23.54481501 36.57156328 -23.54604588 37.94789093 -23.546875 39.32421875 C-23.56185466 40.73242601 -23.57858137 42.14061568 -23.59698486 43.54878235 C-23.64069575 47.25266317 -23.66066536 50.95630701 -23.67572021 54.66040039 C-23.69527815 58.44106074 -23.73724948 62.22146465 -23.77734375 66.00195312 C-23.8526864 73.41793228 -23.90088102 80.83371002 -23.9375 88.25 C-30.5375 88.25 -37.1375 88.25 -43.9375 88.25 C-43.9375 59.54 -43.9375 30.83 -43.9375 1.25 C-37.6675 1.25 -31.3975 1.25 -24.9375 1.25 C-24.2775 5.54 -23.6175 9.83 -22.9375 14.25 C-21.4215625 11.89875 -21.4215625 11.89875 -19.875 9.5 C-17.41806471 5.68924323 -14.97939636 3.11152386 -10.91967773 0.97363281 C-7.31478003 -0.34240571 -3.78836073 -0.16880442 0 0 Z " fill="#113B7A" transform="translate(710.9375,251.75)" />
<path d="M0 0 C4.38065739 1.67849931 6.56240749 4.40865877 9.3125 8.125 C14.59637746 18.76078768 14.17099754 33.09362972 12.46484375 44.61328125 C11.20123243 50.15798012 9.68844411 54.64092969 6 59 C3.59097812 61.11701923 2.06867617 61.97710794 -1 63 C-6.8197004 63.47396759 -12.15795522 63.80791438 -17.5625 61.4375 C-22.20335008 56.79664992 -24.83900746 51.48428156 -26 45 C-26.33881185 40.39371919 -26.37016768 35.80478463 -26.375 31.1875 C-26.39949219 29.96740234 -26.42398438 28.74730469 -26.44921875 27.49023438 C-26.47330233 20.02031216 -25.89508415 13.52465702 -22 7 C-15.37182479 -0.08853851 -9.61990863 -0.9987256 0 0 Z " fill="#FCFCFD" transform="translate(242,265)" />
<path d="M0 0 C3.09001363 0.85577492 5.50050882 1.98504375 8 4 C11.67919117 8.53583866 13.76179172 14.31766888 14.2746582 20.09277344 C14.30306966 23.64553325 14.32173308 27.19711046 14.3125 30.75 C14.32861328 31.97460938 14.34472656 33.19921875 14.36132812 34.4609375 C14.36587417 42.9529461 13.72087881 50.59029986 9.1875 57.9375 C6.41202783 60.55437376 4.66644814 61.77785062 1 63 C-4.15033152 63.60396929 -9.30844248 63.9639315 -14.2578125 62.19140625 C-17.86666932 59.93391789 -19.58932465 57.26124298 -21.375 53.4375 C-24.30607791 46.0843176 -24.25201897 39.23753413 -24.3125 31.375 C-24.34150391 30.14136719 -24.37050781 28.90773438 -24.40039062 27.63671875 C-24.45309779 20.00634267 -23.7774713 13.73270386 -20 7 C-14.19487671 0.03385205 -8.77171616 -0.95845861 0 0 Z " fill="#FCFDFD" transform="translate(1065,265)" />
<path d="M0 0 C4.22341099 1.38220723 7.20025682 3.45610828 9.8984375 7.05078125 C16.0038044 17.85424962 14.76128265 32.26639628 13.71875 44.2265625 C12.80205034 49.92067771 10.59683743 54.49311936 7 59 C4.5647912 61.22033744 3.14534815 61.95155062 0 63 C-7.65285046 63.54438882 -14.04372003 63.34436537 -21 60 C-21.33 59.67 -21.66 59.34 -22 59 C-22.09346915 57.34261557 -22.11744977 55.68125356 -22.11352539 54.02124023 C-22.11344986 52.96021591 -22.11337433 51.89919159 -22.11329651 50.80601501 C-22.10813522 49.651866 -22.10297394 48.49771698 -22.09765625 47.30859375 C-22.0962413 46.13361832 -22.09482635 44.95864288 -22.09336853 43.74806213 C-22.08774992 39.97784936 -22.07519426 36.20769496 -22.0625 32.4375 C-22.0574874 29.88867273 -22.05292408 27.33984453 -22.04882812 24.79101562 C-22.03777444 18.52732367 -22.02101821 12.26366601 -22 6 C-20.70903219 5.18639005 -19.41720125 4.37414954 -18.125 3.5625 C-17.04605469 2.88380859 -17.04605469 2.88380859 -15.9453125 2.19140625 C-10.89460785 -0.9018968 -5.80387587 -0.41075924 0 0 Z " fill="#FDFEFE" transform="translate(852,266)" />
<path d="M0 0 C0.23389694 3.20708688 0.37487528 6.41197595 0.5 9.625 C0.60054687 10.98044922 0.60054687 10.98044922 0.703125 12.36328125 C0.78356916 15.11849364 0.73236804 17.33819257 0 20 C-2.34088174 22.62255364 -4.93416849 24.31647067 -8 26 C-9.2065625 26.680625 -9.2065625 26.680625 -10.4375 27.375 C-14.34098237 28.32706887 -18.01472509 28.58833584 -22 28 C-25.5 26.125 -25.5 26.125 -28 24 C-29.27545437 21.44909127 -29.27572804 19.47334154 -29.375 16.625 C-29.44847656 15.19027344 -29.44847656 15.19027344 -29.5234375 13.7265625 C-29 11 -29 11 -26.9375 8.8125 C-23.62660815 6.76960928 -20.31983635 5.50274121 -16.625 4.375 C-15.99078125 4.17132813 -15.3565625 3.96765625 -14.703125 3.7578125 C-2.89973958 0 -2.89973958 0 0 0 Z " fill="#FAFBFC" transform="translate(946,299)" />
<path d="M0 0 C0.94534818 13.26113423 0.94534818 13.26113423 0 19 C-1.72479609 21.77597779 -2.97464327 22.73047578 -5.8515625 24.19921875 C-6.56054688 24.46347656 -7.26953125 24.72773438 -8 25 C-8.99 25.45375 -9.98 25.9075 -11 26.375 C-14.77106921 27.16063942 -18.18367801 27.75871212 -22 27 C-24.52213783 25.5836807 -25.95811891 24.14148504 -28 22 C-29.24625984 18.26122049 -29.62350769 14.87791367 -29 11 C-27.25 8.25 -27.25 8.25 -24 6 C-20.06954951 4.40221064 -16.07430693 3.17413626 -12 2 C-11.28714844 1.77183594 -10.57429687 1.54367187 -9.83984375 1.30859375 C-6.44338849 0.24113638 -3.53969721 -0.07187202 0 0 Z " fill="#FBFCFD" transform="translate(771,300)" />
<path d="M0 0 C2.19140625 0.6171875 2.19140625 0.6171875 5.19140625 3.0546875 C7.32668335 5.79051129 8.10148655 6.95777637 8.56640625 10.3671875 C8.18313237 13.68889448 7.83574716 14.46490374 5.81640625 16.9296875 C3.19140625 19.6171875 3.19140625 19.6171875 1.19140625 20.6171875 C-2.17704087 20.98086055 -5.44269334 21.01410972 -8.80859375 20.6171875 C-11.7428257 18.82071896 -13.2806473 17.6730804 -14.80859375 14.6171875 C-15.04335365 11.7531167 -15.20178977 9.42342213 -14.80859375 6.6171875 C-13.11045104 3.82738161 -11.72571672 2.17669019 -8.9453125 0.48046875 C-5.79006299 -0.79432127 -3.31818015 -0.44825498 0 0 Z " fill="#133D7B" transform="translate(998.80859375,219.3828125)" />
</svg>
