<svg width="160" height="128" viewBox="0 0 160 128" fill="none" xmlns="http://www.w3.org/2000/svg">
<path fill-rule="evenodd" clip-rule="evenodd" d="M33.6165 87.2419C25.0823 87.2419 18.6597 93.4882 18.6597 101.846C18.6597 110.204 25.0823 116.45 33.6165 116.45C42.1507 116.45 48.5734 110.204 48.5734 101.846C48.5734 93.4882 42.1507 87.2419 33.6165 87.2419ZM33.6165 94.28C37.9276 94.28 41.007 97.3592 41.007 101.846C41.007 106.333 37.9276 109.412 33.6165 109.412C29.3054 109.412 26.2261 106.333 26.2261 101.846C26.2261 97.3592 29.3054 94.28 33.6165 94.28ZM66.6096 87.2419C58.0754 87.2419 51.6527 93.4882 51.6527 101.846C51.6527 110.204 57.9874 116.45 66.6096 116.45C75.1438 116.45 81.5664 110.204 81.5664 101.846C81.5664 93.4882 75.1438 87.2419 66.6096 87.2419ZM66.6096 94.28C70.9207 94.28 74 97.3592 74 101.846C74 106.333 70.9207 109.412 66.6096 109.412C62.2985 109.412 59.2191 106.333 59.2191 101.846C59.2191 97.3592 62.2985 94.28 66.6096 94.28Z" fill="#5BB50E"/>
<path fill-rule="evenodd" clip-rule="evenodd" d="M100.571 116.45C109.017 116.45 115.088 110.204 115.088 101.846C115.088 93.4883 109.017 87.242 100.571 87.242C97.7552 87.242 95.1158 88.1217 93.0042 89.5294V78.0923H85.5258V115.659H91.0686L91.9484 113.371C94.236 115.307 97.2273 116.45 100.571 116.45ZM107.521 101.846C107.521 106.157 104.266 109.412 99.9548 109.412C95.6437 109.412 92.3883 106.157 92.3883 101.846C92.3883 97.5353 95.6437 94.2801 99.9548 94.2801C104.354 94.2801 107.521 97.5353 107.521 101.846ZM3.1753 118.738H0.799805V125.6H4.31906C10.3898 125.6 14.7009 121.289 14.7009 115.219V88.0337H7.22245V114.691C7.22245 117.33 5.81475 118.738 3.1753 118.738ZM119.047 78.0923H126.526V115.659H119.047V78.0923ZM158.991 103.958C159.079 103.254 159.167 102.462 159.167 101.758C159.167 93.8401 153.36 87.2418 144.826 87.2418C136.644 87.2418 130.485 93.4882 130.485 101.846C130.485 110.116 136.644 116.45 144.826 116.45C151.248 116.45 156.527 112.579 158.551 106.597H150.721C149.577 108.532 147.465 109.764 144.826 109.764C141.219 109.764 138.667 107.741 138.051 103.958H158.991ZM151.688 98.8548H138.315C139.195 95.5997 141.483 93.6642 144.826 93.6642C148.169 93.6642 150.633 95.5117 151.688 98.8548Z" fill="#0B71D9"/>
<path d="M158.903 56.7137C158.639 54.6902 158.287 52.6667 157.759 50.6433C157.231 48.6198 156.527 46.6843 155.735 44.8368C155.647 44.6168 155.537 44.3749 155.427 44.1329C155.317 43.891 155.207 43.6491 155.119 43.4291C155.031 43.2092 154.921 42.9672 154.812 42.7253C154.702 42.4834 154.592 42.2414 154.504 42.0215L153.8 40.6139C153.536 40.174 153.272 39.7341 153.096 39.2942C152.803 38.7077 152.431 38.1212 152.06 37.5347C151.874 37.2414 151.688 36.9481 151.512 36.6549C151.248 36.215 150.984 35.7751 150.632 35.3352C150.368 34.8954 150.104 34.4554 149.753 34.0156C147.377 30.6724 144.65 27.5932 141.658 24.69C138.667 21.8747 135.5 19.2354 132.156 16.948L130.925 16.0682L129.605 15.2764C129.312 15.1005 129.018 14.9148 128.725 14.729C128.139 14.3576 127.552 13.9861 126.965 13.6928L125.646 12.989C125.206 12.7251 124.766 12.4611 124.238 12.2852L121.335 10.8775C113.768 7.53441 105.762 5.33498 97.6675 4.1033C97.1397 4.01532 96.6338 3.94934 96.1279 3.88336C95.622 3.81737 95.1161 3.75139 94.5882 3.66341C93.5324 3.48746 92.5646 3.39948 91.5088 3.31151C90.981 3.26752 90.4752 3.22354 89.9694 3.17956L89.9689 3.17952C89.4631 3.13554 88.9573 3.09156 88.4295 3.04757C87.9016 3.00359 87.3957 2.9596 86.8898 2.91561C86.3839 2.87162 85.878 2.82763 85.3501 2.78364C81.479 2.43173 77.3438 2.34376 73.2967 2.43173H71.801L70.3053 2.51971C69.3253 2.51971 68.4212 2.59551 67.4521 2.67675L67.2259 2.69566C65.2024 2.78364 63.1788 2.9596 61.1552 3.13555C60.1434 3.22353 59.1317 3.3335 58.1199 3.44347C57.1081 3.55344 56.0963 3.66341 55.0845 3.75139C54.5566 3.83937 54.0507 3.90535 53.5448 3.97133C53.0389 4.03732 52.533 4.1033 52.0052 4.19128L50.4215 4.45521L49.6297 4.54319L48.7498 4.71914L41.0955 6.12678C41.0955 6.12678 45.6705 11.6693 46.9022 13.077C50.3335 16.772 56.2283 21.8747 61.7711 25.5697C64.5865 27.4173 67.5779 29.0009 70.6572 30.3205C73.7366 31.7282 76.9039 32.8719 80.1592 33.7516C81.1339 34.015 82.1144 34.2508 83.0991 34.4584C82.1516 34.3573 81.2009 34.2682 80.2469 34.1916C79.9389 34.1916 79.631 34.1696 79.3231 34.1476C79.0151 34.1256 78.7072 34.1036 78.3993 34.1036C78.0913 34.1036 77.7834 34.0816 77.4754 34.0596C77.1675 34.0376 76.8596 34.0156 76.5516 34.0156H72.8564C70.3929 34.0156 67.9295 34.1036 65.466 34.3675C63.0025 34.6315 60.539 34.9834 58.0755 35.4233L56.2279 35.7752L54.3803 36.2151C53.7645 36.303 53.1486 36.479 52.5328 36.6549C52.0049 36.7429 51.5649 36.8309 51.037 37.0069C48.2216 32.52 43.2946 29.6168 37.6638 29.6168C28.9537 29.6168 21.8272 36.7429 21.8272 45.5407C21.8272 48.4439 22.619 51.0832 23.9387 53.4586C20.8594 56.6258 18.132 60.1449 15.7565 63.8399C14.4367 65.9514 13.205 68.1508 12.1492 70.3502C11.6213 71.406 11.0934 72.5497 10.6535 73.6934C10.5655 74.0013 10.4556 74.2872 10.3456 74.5731C10.2356 74.8591 10.1256 75.145 10.0377 75.4529C9.94967 75.7609 9.86168 76.0468 9.77369 76.3327C9.68572 76.6186 9.59774 76.9046 9.50977 77.2125C11.9732 72.9895 14.8766 69.0306 17.956 65.4235C20.5954 62.3443 23.4988 59.3531 26.4902 56.7138L28.0739 55.3941L29.3936 54.2504L30.0094 53.7225C28.9537 52.6668 28.0739 51.3472 27.546 49.9395C27.1061 48.7078 26.8421 47.3882 26.8421 45.9805C26.8421 39.9981 31.7691 35.0714 37.7518 35.0714C40.9191 35.0714 43.7346 36.391 45.7581 38.5905C46.8139 39.7342 47.6937 41.1418 48.1336 42.7254C48.7935 42.4615 49.4753 42.1755 50.1572 41.8896C50.8391 41.6037 51.5209 41.3178 52.1808 41.0538L52.9726 40.7899C54.9082 40.0861 56.9318 39.3823 58.9553 38.8544C59.2633 38.7664 59.5492 38.7004 59.8351 38.6344C60.1211 38.5685 60.407 38.5025 60.715 38.4145C60.8289 38.382 60.9398 38.3494 61.0488 38.3174C61.5291 38.1765 61.9726 38.0463 62.4746 37.9746C62.7825 37.9306 63.0685 37.8646 63.3544 37.7987C63.6404 37.7327 63.9263 37.6667 64.2342 37.6227L65.9939 37.3588C68.3694 36.9189 70.7449 36.655 73.1204 36.479C73.7362 36.435 74.3301 36.413 74.924 36.391C75.5179 36.369 76.1117 36.347 76.7276 36.303H80.2469C89.8368 36.391 99.4268 37.8866 108.841 40.262C102.767 38.1796 96.5787 36.5536 90.2515 35.459C93.508 35.6836 96.7632 35.5906 99.9551 35.1593C103.21 34.7194 106.378 33.9276 109.457 32.8719C112.536 31.8161 115.44 30.4085 118.255 28.8249C115.264 30.0566 112.184 31.0243 109.105 31.6402C106.026 32.256 102.858 32.6079 99.7791 32.6079C93.5324 32.6079 87.3737 31.2883 81.7429 29.0009C76.1121 26.6255 70.8332 23.3703 66.1702 19.4993C63.7947 17.5638 61.5951 15.4524 59.4836 13.2529C59.3956 13.165 59.3076 13.055 59.2196 12.945C59.1317 12.835 59.0437 12.7251 58.9557 12.6371C59.5276 12.5491 60.0775 12.4391 60.6273 12.3292C61.1772 12.2192 61.7271 12.1092 62.299 12.0213C66.0822 11.4054 69.9534 10.8775 73.8246 10.6136C77.5198 10.3497 81.391 10.1737 85.2622 10.1737H88.1655C89.1333 10.1737 90.1011 10.1737 91.0689 10.2617C91.5528 10.3057 92.0367 10.3277 92.5206 10.3497C93.0045 10.3717 93.4884 10.3937 93.9723 10.4377L96.8757 10.7016C104.53 11.4934 112.096 13.077 119.311 15.8043L121.95 16.948C122.17 17.036 122.39 17.1459 122.61 17.2559C122.83 17.3659 123.05 17.4758 123.27 17.5638L124.59 18.1797C125.137 18.3983 125.649 18.685 126.17 18.9762C126.488 19.1536 126.808 19.3328 127.141 19.4993L128.373 20.2031L129.605 20.9949C132.86 23.0184 136.027 25.3058 138.931 27.8572C141.834 30.4085 144.474 33.2238 146.849 36.215C146.926 36.3176 147.003 36.4276 147.082 36.5408C147.274 36.8159 147.48 37.1094 147.729 37.3587C147.861 37.5346 148.015 37.7326 148.169 37.9305C148.323 38.1285 148.477 38.3264 148.609 38.5024C149.137 39.2941 149.665 40.0861 150.192 40.9658C151.248 42.6373 152.128 44.3089 152.92 46.0684C153.712 47.828 154.416 49.5875 155.031 51.4351C155.559 53.2826 155.999 55.1301 156.351 57.0656C156.615 59.0011 156.791 60.8486 156.791 62.7841C156.791 64.7196 156.527 66.5671 155.999 68.3267C155.735 69.2065 155.383 70.0862 154.943 70.79C154.504 71.4939 153.888 72.1977 153.184 72.7255C152.48 73.3414 151.688 73.7813 150.896 74.1332C150.808 74.1772 150.698 74.2212 150.588 74.2651C150.478 74.3091 150.368 74.3531 150.28 74.3971L149.665 74.5731C149.569 74.6207 149.448 74.6425 149.315 74.6665C149.203 74.6868 149.082 74.7087 148.961 74.749C148.917 74.749 148.851 74.771 148.785 74.793C148.719 74.815 148.653 74.837 148.609 74.837L148.257 74.925C147.465 75.1009 146.673 75.1009 145.881 75.1009C143.946 75.1009 142.01 74.3971 140.602 72.9895C139.195 71.5818 138.139 69.8223 137.347 68.0627C136.995 66.919 136.731 65.7753 136.555 64.5437C136.379 65.7753 136.291 67.007 136.467 68.2387C136.643 69.9103 137.083 71.6698 138.051 73.0775C138.139 73.1654 138.051 73.3414 137.875 73.2534C137.743 73.2094 137.611 73.1434 137.479 73.0775C137.347 73.0115 137.215 72.9455 137.083 72.9015C133.564 71.142 130.485 68.6786 127.757 65.8633C125.03 63.048 122.654 59.7929 120.543 56.4498L121.247 57.7694L121.599 58.3853C121.642 58.4732 121.708 58.5832 121.774 58.6932C121.84 58.8032 121.906 58.9131 121.95 59.0011L122.742 60.3208C123.006 60.7606 123.27 61.2006 123.534 61.5524C124.678 63.224 125.822 64.8076 127.141 66.3912C128.461 67.8868 129.869 69.3824 131.452 70.6141C133.036 71.9337 134.708 73.0775 136.467 74.0452C138.227 75.013 140.163 75.8047 142.186 76.3326C144.21 76.8605 146.321 77.0364 148.433 76.7725L148.785 76.6845C148.829 76.6845 148.895 76.6626 148.961 76.6406C149.027 76.6186 149.093 76.5965 149.137 76.5965C149.269 76.5526 149.401 76.5306 149.533 76.5086C149.665 76.4866 149.797 76.4646 149.929 76.4206L150.72 76.2446L151.512 75.9807C152.48 75.6288 153.536 75.1009 154.328 74.3971C155.207 73.6933 155.999 72.9015 156.615 72.0217C157.231 71.054 157.671 70.0862 158.023 69.0305C158.727 67.007 158.991 64.8956 159.167 62.8721C159.255 60.8486 159.167 58.7372 158.903 56.7137Z" fill="#0B71D9"/>
<path d="M149.048 61.2005V61.9923C149.048 62.1683 149.026 62.3662 149.004 62.5642C148.982 62.7621 148.96 62.9601 148.96 63.136C150.28 61.0246 150.984 58.6492 150.984 56.0099V55.8339C150.984 52.8427 148.784 50.2913 145.793 49.8515H145.705C145.353 49.7635 145.001 49.7635 144.561 49.7635H144.297C143.857 49.7635 143.418 49.8515 142.978 49.9394C142.626 50.5553 142.362 51.2591 142.186 52.0509C142.01 52.8427 141.922 53.7225 141.922 54.6022C141.922 58.0333 143.506 61.1125 145.969 63.136C144.033 61.0246 142.89 58.2973 142.89 55.2181C142.89 54.0744 143.066 52.8427 143.418 51.787H144.033C145.232 51.787 146.295 52.3266 147.057 53.1553C147.222 53.4033 147.377 53.6561 147.377 53.9864C147.377 54.7782 146.761 55.3941 146.057 55.3941C145.617 55.3941 145.265 55.2181 145.001 54.8662C144.913 55.1301 144.825 55.4821 144.825 55.746C144.825 57.2416 146.057 58.4733 147.553 58.4733C148.01 58.4733 148.442 58.3582 148.823 58.1556C148.97 59.1448 149.048 60.1629 149.048 61.2005Z" fill="#0B71D9"/>
</svg>
