<?xml version="1.0" encoding="UTF-8"?>
<svg version="1.1" xmlns="http://www.w3.org/2000/svg" width="734" height="601">
<path d="M0 0 C242.22 0 484.44 0 734 0 C734 198.33 734 396.66 734 601 C491.78 601 249.56 601 0 601 C0 402.67 0 204.34 0 0 Z " fill="#FEFEFE" transform="translate(0,0)"/>
<path d="M0 0 C7.44929859 5.00410898 12.99842649 12.76928687 15.421875 21.41796875 C18.49209034 37.78331303 9.48331383 54.42725614 3.89941406 69.42749023 C1.53664259 75.77754519 -0.81313464 82.13239198 -3.16015625 88.48828125 C-3.40496357 89.15104191 -3.64977089 89.81380257 -3.90199661 90.49664688 C-9.3339559 105.21009761 -14.63515125 119.96964166 -19.9199791 134.73644638 C-27.80706987 156.77373277 -35.79915713 178.76769454 -43.92456055 200.71856689 C-50.59996873 218.75999629 -57.15518788 236.8414 -63.64431763 254.95043945 C-65.12100512 259.07112872 -66.60003762 263.19097315 -68.07983398 267.31054688 C-68.43620957 268.30269762 -68.43620957 268.30269762 -68.79978466 269.31489182 C-69.96488818 272.5583353 -71.13023863 275.80168996 -72.29576111 279.04498291 C-74.30653055 284.64096989 -76.31579762 290.2374602 -78.31689453 295.83691406 C-79.83440722 300.08071599 -81.36430837 304.31978554 -82.90698242 308.55450439 C-83.42618676 309.98629673 -83.94073826 311.41978744 -84.44995117 312.85516357 C-88.43797026 324.08676241 -93.51539558 334.1742427 -104.4453125 339.97265625 C-113.22771814 343.98952703 -122.35620604 345.45990532 -131.828125 342.625 C-140.82960234 339.13529683 -148.19395573 333.49522554 -152.6171875 324.87109375 C-158.78902135 310.54485372 -156.33855403 301.04538692 -150.84204102 287.11791992 C-150.00468917 285.0185999 -149.1670427 282.91939737 -148.32910156 280.8203125 C-146.23851886 275.41949736 -144.46882656 269.91743284 -142.70092773 264.40429688 C-140.84776085 258.69051458 -138.78337362 253.06837401 -136.65936279 247.45100403 C-134.4975329 241.72598033 -132.3898105 235.9824319 -130.30078125 230.23046875 C-129.96724136 229.31218292 -129.63370148 228.39389709 -129.29005432 227.44778442 C-128.26045928 224.61124694 -127.23170124 221.77440706 -126.203125 218.9375 C-120.64954369 203.62723511 -115.05897462 188.33155088 -109.40356445 173.05859375 C-105.47153524 162.42894967 -101.6293619 151.76970326 -97.83392334 141.09057617 C-92.88324313 127.16652783 -87.89368749 113.25923579 -82.77758789 99.39501953 C-79.7207851 91.09584161 -76.7023056 82.78331979 -73.70010376 74.46422195 C-73.00082887 72.52662927 -72.30123646 70.58915149 -71.6015625 68.65170288 C-68.76723316 60.80308549 -68.76723316 60.80308549 -65.93865967 52.95239258 C-48.26380237 3.84065407 -48.26380237 3.84065407 -32.578125 -3.625 C-21.33368772 -7.74853786 -10.07766136 -5.88476576 0 0 Z " fill="#95434F" transform="translate(543.140625,5.25)"/>
<path d="M0 0 C8.78406261 5.74241705 14.79986685 13.22514562 17.3671875 23.5234375 C18.236347 31.55095553 17.28050165 38.08716987 14.3671875 45.5234375 C13.62133894 47.99812476 12.91433805 50.48172663 12.2109375 52.96875 C11.3671875 55.5234375 11.3671875 55.5234375 9.921875 58.87890625 C8.39845107 62.45014877 7.17302675 66.01388037 5.9921875 69.7109375 C4.10587114 75.52647826 1.90905913 81.12296095 -0.5078125 86.7421875 C-1.87763811 90.1287008 -2.91193248 93.5489943 -3.859375 97.07421875 C-4.6328125 99.5234375 -4.6328125 99.5234375 -6.0625 102.84765625 C-7.63517644 106.52897101 -8.90513502 110.21448942 -10.1328125 114.0234375 C-11.73406292 118.99141956 -13.5777461 123.72828256 -15.6328125 128.5234375 C-16.49122811 131.01493646 -17.32439481 133.51526979 -18.1328125 136.0234375 C-19.73400869 140.99125132 -21.57714444 145.72867246 -23.6328125 150.5234375 C-24.44887284 152.9110721 -25.24009818 155.30732185 -26.0078125 157.7109375 C-27.89412886 163.52647826 -30.09094087 169.12296095 -32.5078125 174.7421875 C-33.87763811 178.1287008 -34.91193248 181.5489943 -35.859375 185.07421875 C-36.6328125 187.5234375 -36.6328125 187.5234375 -38.0625 190.84765625 C-39.63517644 194.52897101 -40.90513502 198.21448942 -42.1328125 202.0234375 C-43.34405336 205.78138991 -44.58930459 209.4221807 -46.1484375 213.05078125 C-47.63198637 216.52150479 -48.76889107 219.98138187 -49.8828125 223.5859375 C-54.62187623 238.30870289 -60.62384471 249.92136827 -74.6328125 257.5234375 C-82.78527211 261.02392863 -93.29510942 260.74521044 -101.4765625 257.55859375 C-108.97611794 253.95826369 -114.27214735 249.62774303 -118.6328125 242.5234375 C-119.04660156 241.915 -119.46039063 241.3065625 -119.88671875 240.6796875 C-124.75497937 232.13054689 -124.1367494 220.49354555 -121.80718994 211.2460022 C-119.3271038 203.11911548 -116.30550493 195.18786935 -113.2477417 187.26483154 C-112.01760207 184.05802608 -110.82288815 180.83809973 -109.625 177.61914062 C-107.38085664 171.60432261 -105.10201386 165.6031852 -102.80963135 159.6065979 C-101.23065496 155.46982063 -99.67056314 151.32613299 -98.1171875 147.1796875 C-97.68889648 146.03951172 -97.26060547 144.89933594 -96.81933594 143.72460938 C-95.14099994 139.19655556 -93.51705847 134.65018942 -91.90625 130.09765625 C-90.90064737 127.27518262 -89.88357756 124.45786083 -88.8581543 121.64257812 C-86.48196713 115.11230252 -84.11767064 108.57774935 -81.75390625 102.04296875 C-80.82363278 99.47198166 -79.89325191 96.90103344 -78.96289062 94.33007812 C-77.51220184 90.32113508 -76.06165593 86.31214049 -74.61157227 82.30297852 C-73.42728854 79.02873581 -72.2425478 75.75465878 -71.05751228 72.4806881 C-70.39531144 70.65080186 -69.73359168 68.82074156 -69.07188416 66.99067688 C-66.95929659 61.15500208 -64.82493765 55.32969812 -62.6328125 49.5234375 C-61.98369992 47.75380357 -61.33748134 45.983103 -60.6953125 44.2109375 C-60.355 43.27378906 -60.0146875 42.33664063 -59.6640625 41.37109375 C-58.99565228 39.52537006 -58.32888244 37.67905117 -57.6640625 35.83203125 C-57.01131824 34.02382437 -56.35232869 32.21786127 -55.6875 30.4140625 C-54.94163492 28.36983968 -54.2199832 26.3167057 -53.515625 24.2578125 C-49.34252339 12.5294877 -43.35412086 4.26039179 -32.32421875 -1.73046875 C-21.75357641 -6.58450771 -10.07030205 -5.64773616 0 0 Z " fill="#758BC4" transform="translate(293.6328125,89.4765625)"/>
<path d="M0 0 C8.05455773 6.83380753 12.27627313 13.74627224 13.5078125 24.1953125 C14.0961261 36.12430955 10.50108066 45.58907739 6.0859375 56.5546875 C4.89382809 59.57631992 3.8675819 62.63687076 2.87890625 65.73046875 C1.52010247 69.88923183 -0.02227986 73.9235308 -1.67578125 77.97265625 C-6.08453462 89.06657812 -10.07947637 100.31923718 -13.73046875 111.68359375 C-14.94701485 115.19991194 -16.40294068 118.56224978 -17.87109375 121.98046875 C-18.85322625 124.61105926 -19.76895929 127.26326779 -20.68359375 129.91796875 C-22.65357889 135.5719061 -24.68193362 141.19612139 -26.80859375 146.79296875 C-29.07127377 152.76091731 -31.21494596 158.76372707 -33.30859375 164.79296875 C-36.38540319 173.64489401 -39.58504396 182.44527897 -42.84960938 191.22949219 C-44.44463046 195.52507 -46.03225879 199.82337867 -47.62084961 204.12133789 C-48.91537514 207.61874767 -50.21543366 211.11406836 -51.515625 214.609375 C-52.91562387 218.37885943 -54.29555834 222.15313457 -55.6328125 225.9453125 C-60.26172848 238.97905525 -65.57895051 248.7166118 -78.37109375 254.85546875 C-86.9635488 258.1826224 -96.41117065 258.51760515 -105.18359375 255.54296875 C-115.59462473 250.57131169 -121.72699381 242.547159 -125.87109375 231.98046875 C-129.47695669 220.62200048 -126.03882086 210.12379082 -121.87304688 199.57226562 C-119.87093348 194.39330953 -118.04790334 189.14772527 -116.18359375 183.91796875 C-114.03657828 177.93917446 -111.8773653 171.96676054 -109.63525391 166.02294922 C-106.03419695 156.39788773 -102.61004958 146.70553933 -99.13867188 137.03320312 C-93.71809375 121.95346875 -93.71809375 121.95346875 -91.12109375 115.73046875 C-89.09390124 110.70488124 -87.32741292 105.60091371 -85.55859375 100.48046875 C-83.25680606 93.81795484 -80.84118555 87.22178354 -78.24609375 80.66796875 C-75.64759071 74.09381324 -73.31205728 67.49087019 -71.1171875 60.76953125 C-67.78275023 50.63033327 -64.23828878 40.62434573 -60.01953125 30.81640625 C-58.81593364 27.84425704 -57.83393949 24.85096681 -56.87109375 21.79296875 C-53.40673619 11.24867412 -48.01089304 2.56981945 -38.37109375 -3.39453125 C-25.32672024 -9.45084752 -11.86526497 -8.34604352 0 0 Z " fill="#586DA6" transform="translate(188.87109375,92.01953125)"/>
<path d="M0 0 C8.91255717 6.33331714 14.65954337 14.2363439 16.53588867 25.10375977 C17.30222068 38.98715742 11.91665804 51.18241417 7.05986404 63.96066666 C5.78528219 67.33203022 4.54158481 70.71476142 3.29467773 74.09643555 C1.22915636 79.68752971 -0.852469 85.27235 -2.94726562 90.85253906 C-5.7681565 98.36830501 -8.55558821 105.8959259 -11.328125 113.4296875 C-11.75239777 114.58251724 -12.17667053 115.73534698 -12.61380005 116.92311096 C-13.46443291 119.23479947 -14.31494826 121.54653122 -15.16534424 123.85830688 C-16.44109004 127.32224778 -17.72077216 130.78471149 -19.00146484 134.24682617 C-23.77570496 147.16339003 -28.4941186 160.09842568 -33.1484375 173.05859375 C-33.53553107 174.13645614 -33.53553107 174.13645614 -33.93044472 175.23609352 C-36.45349928 182.26384719 -38.97145748 189.29341015 -41.482728 196.32538319 C-43.9067942 203.1128873 -46.3427492 209.89591596 -48.79693604 216.67260742 C-49.58199881 218.84390681 -50.36338111 221.01654149 -51.14056396 223.19067383 C-52.17784277 226.08537841 -53.23258087 228.97307001 -54.29296875 231.859375 C-54.58327469 232.67996399 -54.87358063 233.50055298 -55.17268372 234.3460083 C-59.06966778 244.7945641 -65.61105636 251.36707126 -75.1875 256.8125 C-83.34236187 260.2556639 -93.91205897 260.46954758 -102.25 257.5625 C-111.57474145 253.23865124 -118.11336354 245.56708461 -122.75 236.625 C-128.16488139 219.97783368 -120.42147124 204.07489824 -114.59609985 188.64804077 C-113.26223707 185.09798241 -111.95895224 181.53672093 -110.65234375 177.9765625 C-108.23515457 171.40297251 -105.79395237 164.83862109 -103.34217262 158.27786446 C-100.74193957 151.31676204 -98.17063715 144.3451992 -95.60546875 137.37109375 C-94.74914937 135.0436034 -93.89278579 132.71612931 -93.03637695 130.38867188 C-92.40803452 128.68094604 -92.40803452 128.68094604 -91.76699829 126.9387207 C-90.49771984 123.4938115 -89.2243981 120.05042203 -87.94995117 116.60742188 C-83.17905875 103.70899385 -78.46650994 90.79142464 -73.8203125 77.84765625 C-73.56089119 77.12500454 -73.30146988 76.40235283 -73.03418732 75.65780258 C-70.4952687 68.58321976 -67.96137589 61.5068565 -65.43501854 54.42777824 C-57.02396554 30.86342036 -57.02396554 30.86342036 -53.046875 20.48046875 C-52.64947617 19.42817833 -52.64947617 19.42817833 -52.24404907 18.35462952 C-48.5955867 8.98334711 -42.9442943 2.58983523 -34 -2 C-22.37342304 -7.0483821 -10.9663277 -6.25565378 0 0 Z " fill="#7B9184" transform="translate(403,90)"/>
<path d="M0 0 C7.84193162 5.04458586 13.26805566 11.91128826 15.8203125 20.953125 C18.24857059 34.01480361 14.97289666 44.12568043 10.24951172 56.14990234 C9.37959538 58.36762705 8.53968855 60.59331604 7.71484375 62.828125 C6.0103715 67.44288998 4.26572523 72.0419279 2.51074219 76.63769531 C-1.58902054 87.31975968 -1.58902054 87.31975968 -4.95703125 98.25 C-5.7757243 100.81004019 -6.84096549 103.22678389 -7.91723633 105.68725586 C-9.19123091 108.75131875 -10.1778238 111.90176983 -11.1953125 115.05859375 C-12.79640494 120.02608569 -14.6136851 124.7740369 -16.6953125 129.55859375 C-17.72809845 132.15061823 -18.71631851 134.75833433 -19.6953125 137.37109375 C-19.95948975 138.07395508 -20.22366699 138.77681641 -20.49584961 139.50097656 C-22.1680995 144.00099946 -23.60819652 148.51764034 -24.91796875 153.13671875 C-26.17951832 157.0671747 -27.87453238 160.81042694 -29.5 164.6015625 C-30.89409041 168.05034171 -31.95717236 171.51992946 -32.921875 175.109375 C-33.6953125 177.55859375 -33.6953125 177.55859375 -35.1328125 180.90234375 C-36.66069406 184.47758659 -37.88784125 188.04392706 -39.0703125 191.74609375 C-41.27772799 198.50504566 -43.79387471 205.06229278 -46.6953125 211.55859375 C-47.08460938 212.45578125 -47.47390625 213.35296875 -47.875 214.27734375 C-52.18432074 223.62828811 -58.28897002 229.35095072 -67.6953125 233.55859375 C-74.97934894 236.09991313 -86.62068923 235.95121955 -93.7578125 232.93359375 C-95.78125 231.8125 -95.78125 231.8125 -97.6953125 230.55859375 C-98.38882813 230.13449219 -99.08234375 229.71039063 -99.796875 229.2734375 C-105.20774258 225.63579432 -108.55473656 221.22337092 -111.6953125 215.55859375 C-112.20771484 214.67107422 -112.20771484 214.67107422 -112.73046875 213.765625 C-116.74949357 205.29763317 -115.74260253 193.72595739 -112.8828125 185.05859375 C-112.17581156 183.21659896 -111.44489877 181.38367336 -110.6953125 179.55859375 C-108.32965481 173.32087205 -106.05306311 167.05256568 -103.7890625 160.77734375 C-103.4230896 159.76442261 -103.0571167 158.75150146 -102.68005371 157.70788574 C-101.51801535 154.49162027 -100.35658672 151.27513519 -99.1953125 148.05859375 C-97.66461529 143.81881049 -96.13328163 139.57925791 -94.6015625 135.33984375 C-94.25460327 134.37816284 -93.90764404 133.41648193 -93.5501709 132.42565918 C-92.08191826 128.36205566 -90.60664803 124.30211285 -89.0859375 120.2578125 C-87.87764324 117.043614 -86.69795768 113.82209189 -85.5390625 110.58984375 C-84.96478516 108.99076172 -84.96478516 108.99076172 -84.37890625 107.359375 C-83.98832031 106.27011719 -83.59773437 105.18085937 -83.1953125 104.05859375 C-82.41458678 101.88132235 -81.63334805 99.70423483 -80.8515625 97.52734375 C-80.50931641 96.57279297 -80.16707031 95.61824219 -79.81445312 94.63476562 C-78.73972764 91.68067726 -77.63529175 88.73861062 -76.52893066 85.79626465 C-74.91664089 81.46841522 -73.35640999 77.12162411 -71.7890625 72.77734375 C-71.4230896 71.76442261 -71.0571167 70.75150146 -70.68005371 69.70788574 C-69.51801535 66.49162027 -68.35658672 63.27513519 -67.1953125 60.05859375 C-65.66461529 55.81881049 -64.13328163 51.57925791 -62.6015625 47.33984375 C-62.25460327 46.37816284 -61.90764404 45.41648193 -61.5501709 44.42565918 C-59.6341056 39.12266876 -57.68254006 33.83531252 -55.6953125 28.55859375 C-55.24671875 27.32238281 -54.798125 26.08617187 -54.3359375 24.8125 C-49.88800794 13.00549598 -44.90861029 4.85094791 -33.6953125 -1.44140625 C-32.6228125 -2.06015625 -31.5503125 -2.67890625 -30.4453125 -3.31640625 C-20.39080603 -6.33275819 -9.21532054 -4.92819316 0 0 Z " fill="#CF8032" transform="translate(650.6953125,4.44140625)"/>
<path d="M0 0 C8.56342771 6.70181299 14.54489873 14.50510371 16.59765625 25.43359375 C16.98769919 29.39445234 17.08742875 33.33398745 17.125 37.3125 C17.1391394 38.44655273 17.1391394 38.44655273 17.15356445 39.60351562 C17.08861393 50.86814182 13.51561527 61.16790393 5.80078125 69.4609375 C-1.41772094 76.16696996 -9.15841485 78.64537233 -18.875 78.625 C-19.67123779 78.62338867 -20.46747559 78.62177734 -21.2878418 78.62011719 C-29.80750187 78.44300411 -36.87009367 76.30313515 -43.125 70.25 C-43.455 69.59 -43.785 68.93 -44.125 68.25 C-44.455 81.12 -44.785 93.99 -45.125 107.25 C-49.745 107.25 -54.365 107.25 -59.125 107.25 C-59.125 70.95 -59.125 34.65 -59.125 -2.75 C-54.505 -2.75 -49.885 -2.75 -45.125 -2.75 C-44.795 -0.11 -44.465 2.53 -44.125 5.25 C-43.444375 4.5075 -42.76375 3.765 -42.0625 3 C-31.04198443 -8.02051557 -12.86648287 -7.2052304 0 0 Z " fill="#5C70A8" transform="translate(354.125,493.75)"/>
<path d="M0 0 C6.6 0 13.2 0 20 0 C22.5919664 5.83192439 25.09027734 11.61571606 27.375 17.5625 C27.67680176 18.34423584 27.97860352 19.12597168 28.28955078 19.93139648 C29.19660125 22.2862482 30.09928339 24.64271914 31 27 C31.25007813 27.65355469 31.50015625 28.30710937 31.7578125 28.98046875 C35.07577792 37.67645505 38.23627459 46.42550163 41.375 55.1875 C44.34960706 63.48419064 47.37400102 71.75905482 50.5 80 C50.83821777 80.89614014 51.17643555 81.79228027 51.52490234 82.71557617 C51.99210693 83.93917847 51.99210693 83.93917847 52.46875 85.1875 C52.74138672 85.90292969 53.01402344 86.61835937 53.29492188 87.35546875 C53.88200691 89.00575944 53.88200691 89.00575944 55 90 C55.20568604 89.45811035 55.41137207 88.9162207 55.62329102 88.35791016 C56.60229149 85.77999318 57.58225156 83.2024427 58.5625 80.625 C58.92456543 79.67270508 59.28663086 78.72041016 59.65966797 77.73925781 C61.38181556 73.2175859 63.11091367 68.69928072 64.87890625 64.1953125 C65.174021 63.4429834 65.46913574 62.6906543 65.77319336 61.91552734 C66.3091965 60.55285957 66.84744798 59.1910719 67.38891602 57.83056641 C69.30594089 52.95558724 71.05264472 48.02635795 72.78125 43.08203125 C75.97340148 33.96651845 79.40334768 24.94954235 82.875 15.9375 C83.47416722 14.37703331 84.07312633 12.8164867 84.671875 11.25585938 C86.11182677 7.5028359 87.55597417 3.75146769 89 0 C95.93 0 102.86 0 110 0 C110 36.63 110 73.26 110 111 C105.05 111 100.1 111 95 111 C94.67 82.29 94.34 53.58 94 24 C91.669375 30.27 89.33875 36.54 86.9375 43 C83.96050491 51.00080959 80.98091354 59.00064959 78 67 C77.63453064 67.98087585 77.26906128 68.96175171 76.89251709 69.97235107 C74.80074528 75.58534431 72.70625987 81.19731231 70.60794067 86.80786133 C69.95439737 88.55627076 69.3016221 90.30496747 68.64962769 92.05395508 C67.73988522 94.49379728 66.82734374 96.93257437 65.9140625 99.37109375 C65.64704025 100.08897568 65.38001801 100.8068576 65.10490417 101.54649353 C63.8792573 104.81015278 62.56279247 107.87441505 61 111 C56.71 111 52.42 111 48 111 C47.58024902 109.85684326 47.16049805 108.71368652 46.72802734 107.53588867 C42.71626249 96.62176159 38.66272122 85.72401032 34.57382202 74.83856201 C33.59914842 72.24367498 32.62529068 69.64848292 31.65161133 67.05322266 C28.80350077 59.46265906 25.95289643 51.87304088 23.09765625 44.28515625 C22.68241699 43.18067139 22.26717773 42.07618652 21.83935547 40.93823242 C21.09848525 38.96796989 20.35669818 36.99805174 19.61376953 35.02856445 C19.29134277 34.17093506 18.96891602 33.31330566 18.63671875 32.4296875 C18.23005981 31.35050049 18.23005981 31.35050049 17.81518555 30.24951172 C16.82525956 27.5178022 15.91881393 24.75644179 15 22 C14.67 51.37 14.34 80.74 14 111 C9.38 111 4.76 111 0 111 C0 74.37 0 37.74 0 0 Z " fill="#5C70A7" transform="translate(0,460)"/>
<path d="M0 0 C9.05110512 5.60449224 14.04010717 12.71414353 17.609375 22.7109375 C20.40090153 35.5554931 19.70536231 50.45372979 13.2890625 62.109375 C11.85453044 64.15534695 10.34692785 65.91694441 8.609375 67.7109375 C8.02285156 68.33613281 7.43632812 68.96132813 6.83203125 69.60546875 C-1.85382205 78.04264731 -11.4461508 79.31027 -23.10961914 79.18164062 C-29.52826711 78.9537668 -34.86195749 78.18051097 -40.390625 74.7109375 C-41.17566406 74.22496094 -41.96070313 73.73898437 -42.76953125 73.23828125 C-51.27529514 67.31087083 -55.99773265 58.67452983 -58.390625 48.7109375 C-58.78880746 45.05310413 -58.8115477 41.44980451 -58.765625 37.7734375 C-58.77722656 36.84853516 -58.78882813 35.92363281 -58.80078125 34.97070312 C-58.75227879 23.43520177 -55.35876392 14.34665349 -47.64453125 5.76953125 C-35.06537876 -6.33888372 -15.23747586 -8.216286 0 0 Z " fill="#5A6EA6" transform="translate(439.390625,493.2890625)"/>
<path d="M0 0 C3.92052401 3.41085589 5.73831446 7.89286919 6.30136108 12.96450806 C6.44210987 16.22743412 6.49349347 19.4801776 6.51171875 22.74609375 C6.52966995 23.93477554 6.54762115 25.12345734 6.56611633 26.34815979 C6.6201027 30.12790427 6.65407867 33.90752328 6.6875 37.6875 C6.72068325 40.25717887 6.75517384 42.82684121 6.79101562 45.39648438 C6.87582269 51.68087706 6.94422206 57.96528621 7 64.25 C10.47147842 64.99957157 10.47147842 64.99957157 14 65.25 C14 68.88 14 72.51 14 76.25 C10.8234489 77.30885037 8.40011989 77.45049266 5.0625 77.5 C3.50208984 77.53867187 3.50208984 77.53867187 1.91015625 77.578125 C-1.38269926 77.20685002 -2.64835438 76.53794416 -5 74.25 C-6.75 71.0625 -6.75 71.0625 -8 68.25 C-8.46148437 68.64832031 -8.92296875 69.04664063 -9.3984375 69.45703125 C-19.50471038 77.66588136 -30.42935066 78.30481199 -43 77.25 C-49.28860113 76.29247637 -53.1599625 73.75443519 -57.58984375 69.26171875 C-61.96798908 63.01588816 -61.69697974 55.55041599 -61 48.25 C-59.53953922 42.54680822 -56.25408001 38.81903485 -51.4296875 35.55859375 C-42.87216763 30.94964012 -33.23296947 29.60430942 -23.71166992 28.3762207 C-18.6624318 27.68756793 -14.53572229 26.62226396 -10 24.25 C-7.64379563 20.71569344 -7.51008387 19.41428713 -8 15.25 C-10.13208089 11.2904212 -11.75060211 8.78686557 -16 7.25 C-18.63248626 7.03062615 -21.12031489 6.91684882 -23.75 6.9375 C-24.46502686 6.94168945 -25.18005371 6.94587891 -25.91674805 6.95019531 C-32.17772444 7.08436419 -37.14857251 7.67451711 -41.9375 12 C-43.36913661 15.03170106 -43.68102815 17.93269279 -44 21.25 C-48.62 21.25 -53.24 21.25 -58 21.25 C-57.77627484 13.30775685 -56.41092054 8.1951921 -51 2.25 C-38.90627892 -8.52818272 -13.0609976 -10.13446702 0 0 Z " fill="#5B6FA7" transform="translate(186,494.75)"/>
<path d="M0 0 C10.02638735 6.27538074 15.58606718 14.59655382 19.078125 25.81640625 C20.203125 31.37890625 20.203125 31.37890625 20.203125 43.37890625 C0.403125 43.37890625 -19.396875 43.37890625 -39.796875 43.37890625 C-37.30235706 55.659284 -37.30235706 55.659284 -29.921875 64.69140625 C-22.94109214 68.461029 -16.66958796 69.21576944 -8.796875 68.37890625 C-3.4599218 66.78127463 0.24024278 64.16510061 3.203125 59.37890625 C3.863125 57.39890625 4.523125 55.41890625 5.203125 53.37890625 C9.823125 53.37890625 14.443125 53.37890625 19.203125 53.37890625 C16.87215928 62.00347942 14.18434999 68.46004159 7.203125 74.37890625 C-4.2505441 80.89501607 -16.05827412 82.31496343 -29.05859375 79.73046875 C-38.42755607 76.28880912 -45.15563541 69.03771886 -49.796875 60.37890625 C-54.81687275 48.51523969 -55.48116816 34.74254388 -51.796875 22.37890625 C-46.90879798 10.64108972 -39.49298817 3.21939358 -27.796875 -1.62109375 C-19.56896764 -4.36372954 -7.79869435 -3.80650558 0 0 Z " fill="#5B6FA7" transform="translate(630.796875,491.62109375)"/>
<path d="M0 0 C4.62 0 9.24 0 14 0 C16.31330333 5.8268423 17.99558652 11.5922452 19.4375 17.6875 C21.07257368 24.41315216 22.86157109 31.03241698 24.953125 37.6328125 C26.28133675 41.90489656 27.52851574 46.19633829 28.75 50.5 C28.97300781 51.26650879 29.19601562 52.03301758 29.42578125 52.82275391 C30.5008262 56.64541766 31.28674917 59.98551168 31 64 C31.66 64 32.32 64 33 64 C33.03847046 63.41766098 33.07694092 62.83532196 33.11657715 62.2353363 C33.68315362 55.26165573 35.1370779 48.7308072 36.90625 41.97265625 C37.19101196 40.86192245 37.47577393 39.75118866 37.76916504 38.60679626 C38.67260219 35.09022689 39.58626398 31.57640566 40.5 28.0625 C41.11392932 25.67659896 41.72721684 23.29053267 42.33984375 20.90429688 C43.45913267 16.55639461 44.57947083 12.20878383 45.70898438 7.86352539 C45.93469116 6.99433975 46.16039795 6.12515411 46.39294434 5.22962952 C46.87202822 3.47002222 47.42330778 1.73007667 48 0 C52.95 0 57.9 0 63 0 C66.62357207 13.2307372 70.17944634 26.45696123 73.28466797 39.81982422 C74.9545574 46.95429734 76.88914116 53.98345806 79 61 C81.19230119 57.71154821 81.93767114 54.71523213 82.8125 50.9375 C83.16474898 49.47740061 83.51898791 48.01778016 83.875 46.55859375 C84.05933594 45.80304199 84.24367188 45.04749023 84.43359375 44.26904297 C88.14703848 29.39285533 92.68222802 14.70779967 97 0 C101.62 0 106.24 0 111 0 C108.33751036 8.66795635 105.67069679 17.33456894 103 26 C102.76619629 26.75974121 102.53239258 27.51948242 102.29150391 28.30224609 C100.09686701 35.42519042 97.83449978 42.52494097 95.54296875 49.6171875 C95.32064575 50.30539078 95.09832275 50.99359406 94.8692627 51.70265198 C93.74072379 55.19465605 92.61029435 58.68603352 91.47705078 62.17651367 C91.05369767 63.4835569 90.63035731 64.79060426 90.20703125 66.09765625 C89.8303833 67.25789307 89.45373535 68.41812988 89.06567383 69.61352539 C87.98210155 73.05687729 86.99169385 76.52907152 86 80 C81.05 80 76.1 80 71 80 C66.05 60.2 61.1 40.4 56 20 C54.05113074 23.89773853 52.98623465 27.57853814 51.9765625 31.7734375 C51.69539078 32.9137291 51.69539078 32.9137291 51.40853882 34.07705688 C50.80952679 36.50862619 50.21680063 38.9416664 49.625 41.375 C48.84968721 44.55030514 48.07107449 47.7247756 47.2890625 50.8984375 C47.09854309 51.67314392 46.90802368 52.44785034 46.71173096 53.24603271 C45.22953709 59.21468008 43.57437535 65.11426295 41.81005859 71.00634766 C41.01131444 73.95818634 40.50273156 76.98361063 40 80 C34.72 80 29.44 80 24 80 C23.44054687 77.99164062 22.88109375 75.98328125 22.3046875 73.9140625 C20.15400974 66.31786597 17.66570699 58.84936009 15.125 51.375 C11.4015313 40.33900957 7.88093184 29.26337759 4.6171875 18.08203125 C3.36169657 13.84673589 2.00995965 9.64089011 0.6640625 5.43359375 C0 3 0 3 0 0 Z " fill="#5B6FA7" transform="translate(463,491)"/>
<path d="M0 0 C4.866173 3.94689597 7.4996524 8.94309638 9 15 C9.40561472 19.85412404 9.35048747 24.69597894 9.29296875 29.5625 C9.28736387 30.96353702 9.28309799 32.36457997 9.28010559 33.765625 C9.26872681 37.42849354 9.23932118 41.09099734 9.20599365 44.75372314 C9.17514116 48.50112985 9.16156804 52.24859627 9.14648438 55.99609375 C9.1144434 63.3309136 9.06173407 70.66535894 9 78 C4.71 78 0.42 78 -4 78 C-4.00410889 76.21907959 -4.00821777 74.43815918 -4.01245117 72.60327148 C-4.03189621 66.6998241 -4.07427915 60.79677718 -4.13209057 54.89359951 C-4.16629035 51.31659604 -4.19145943 47.74001645 -4.19555664 44.1628418 C-4.19985498 40.70649702 -4.22844147 37.25110725 -4.27343178 33.79506111 C-4.29262241 31.84380838 -4.28706428 29.89236261 -4.28105164 27.94102478 C-4.40063394 20.63136078 -4.86647793 16.36817538 -10 11 C-15.40764604 7.81851619 -21.93145317 8.51023077 -28 9 C-33.86874614 10.99118173 -37.64407626 14.67555931 -40.75 20 C-42.58001936 24.39204646 -43.12141905 28.42293231 -43.20532227 33.1574707 C-43.22526749 34.15813065 -43.24521271 35.15879059 -43.26576233 36.18977356 C-43.29083107 37.79159737 -43.29083107 37.79159737 -43.31640625 39.42578125 C-43.33718735 40.52850876 -43.35796844 41.63123627 -43.37937927 42.76737976 C-43.44464932 46.28235778 -43.50365495 49.79740912 -43.5625 53.3125 C-43.60570665 55.69857523 -43.64932163 58.08464309 -43.69335938 60.47070312 C-43.80030764 66.31372735 -43.90163857 72.15682517 -44 78 C-48.29 78 -52.58 78 -57 78 C-57 51.6 -57 25.2 -57 -2 C-52.71 -2 -48.42 -2 -44 -2 C-43.67 0.97 -43.34 3.94 -43 7 C-42.05125 5.9275 -41.1025 4.855 -40.125 3.75 C-29.69207279 -6.4958827 -12.49808533 -7.1689525 0 0 Z " fill="#596EA6" transform="translate(269,493)"/>
<path d="M0 0 C6.67846981 4.81552823 9.87466626 11.61801514 11.2265625 19.60546875 C12.15984437 30.14377651 11.09017568 40.1730297 4.2265625 48.60546875 C-1.11127307 53.70606718 -6.26698066 56.70097992 -13.7109375 57.04296875 C-18.85760556 56.87871339 -22.48331281 55.35653526 -26.7734375 52.60546875 C-27.6603125 52.06921875 -28.5471875 51.53296875 -29.4609375 50.98046875 C-37.04971965 43.18658438 -38.07891755 33.76003495 -38.08813477 23.46337891 C-37.9849561 17.40086921 -37.32215355 12.6720722 -33.7734375 7.60546875 C-33.26425781 6.8784375 -32.75507813 6.15140625 -32.23046875 5.40234375 C-24.09977385 -4.94243054 -11.35596832 -6.43504872 0 0 Z " fill="#FDFDFE" transform="translate(432.7734375,504.39453125)"/>
<path d="M0 0 C7.44758618 4.34202901 12.22356666 10.87524878 14.4609375 19.1171875 C14.85147006 22.11149318 14.89124807 25.03833189 14.8359375 28.0546875 C14.82723633 28.84520508 14.81853516 29.63572266 14.80957031 30.45019531 C14.58513717 39.36497419 12.58076486 47.02564648 6.046875 53.5234375 C0.51250843 58.40503263 -3.85462071 59.50188297 -11.05859375 59.2890625 C-18.14142696 58.79828351 -22.46916247 56.32886193 -27.515625 51.48046875 C-33.45236994 44.54662572 -33.89613442 36.77459308 -34.0390625 27.9921875 C-34.05783447 27.15719727 -34.07660645 26.32220703 -34.09594727 25.46191406 C-34.0044792 16.62174289 -30.77140863 9.34953363 -24.5390625 3.1171875 C-17.84026293 -2.41660345 -8.11866083 -2.82279592 0 0 Z " fill="#FDFDFD" transform="translate(342.5390625,501.8828125)"/>
<path d="M0 0 C0 4.62 0 9.24 0 14 C-1.815 14.226875 -3.63 14.45375 -5.5 14.6875 C-13.09271854 15.96636779 -19.28211794 18.84734398 -23.98242188 25.20825195 C-29.92249434 35.66751103 -28.55872084 49.07977287 -28.6875 60.6875 C-28.72072253 62.75718245 -28.75521663 64.82684489 -28.79101562 66.89648438 C-28.87535414 71.93087841 -28.94242889 76.96523163 -29 82 C-33.29 82 -37.58 82 -42 82 C-42 55.6 -42 29.2 -42 2 C-38.04 2 -34.08 2 -30 2 C-29.67 6.95 -29.34 11.9 -29 17 C-28.175 15.63875 -27.35 14.2775 -26.5 12.875 C-19.68679026 2.64713195 -11.88845099 -0.31702536 0 0 Z " fill="#596DA6" transform="translate(706,489)"/>
<path d="M0 0 C0.10861833 2.70942393 0.18758577 5.414439 0.25 8.125 C0.30027344 9.26582031 0.30027344 9.26582031 0.3515625 10.4296875 C0.44392854 15.78691777 -0.40692819 18.77656472 -4 23 C-10.67717633 28.56881912 -17.80428665 30.42084237 -26.375 30.2578125 C-30.67317656 29.83567016 -33.54119795 28.20728445 -36.8125 25.5 C-39.25642124 22.4129416 -39.40319073 18.8914728 -39.33984375 15.0625 C-38.72386273 11.32413243 -36.72205211 9.4903881 -34 7 C-28.23025263 3.99913269 -22.66215839 3.15762127 -16.25 2.375 C-14.37990338 2.13517861 -12.51009562 1.89309084 -10.640625 1.6484375 C-9.82110352 1.54708496 -9.00158203 1.44573242 -8.15722656 1.34130859 C-5.25241271 0.88171944 -2.9892157 0 0 0 Z " fill="#FBFCFD" transform="translate(178,531)"/>
<path d="M0 0 C5.4915455 2.44831403 9.35533456 7.03333371 11.7890625 12.453125 C13.6875 17.95327103 13.6875 17.95327103 13.6875 21 C-1.4925 21 -16.6725 21 -32.3125 21 C-31.19472807 13.17559647 -29.24396337 8.2974557 -23.25 3.125 C-16.20420566 -1.9719576 -8.38871031 -2.54452074 0 0 Z " fill="#FCFDFD" transform="translate(623.3125,502)"/>
<path d="M0 0 C3.32255304 2.07500439 6.23284064 4.46568128 8 8 C8.42380724 14.46306042 7.7990502 17.73444143 3.5 22.75 C0.07197204 25.60668997 -3.76238061 25.35912029 -8 25 C-12.01940417 22.8765412 -14.33414884 21.22167761 -16 17 C-16.67336584 12.18465124 -16.72619338 8.24490293 -14.25 4 C-9.95068067 0.17838282 -5.8139536 -1.27517941 0 0 Z " fill="#F3F5F8" transform="translate(726,459)"/>
<path d="M0 0 C3.32255304 2.07500439 6.23284064 4.46568128 8 8 C8.42380724 14.46306042 7.7990502 17.73444143 3.5 22.75 C0.07197204 25.60668997 -3.76238061 25.35912029 -8 25 C-12.01940417 22.8765412 -14.33414884 21.22167761 -16 17 C-16.67336584 12.18465124 -16.72619338 8.24490293 -14.25 4 C-9.95068067 0.17838282 -5.8139536 -1.27517941 0 0 Z M-12 5 C-14.48386059 8.72579089 -14.3804212 10.58711402 -14 15 C-12.35109058 18.62760073 -10.52481343 21.08652985 -7 23 C-3.16792971 23.57073387 -1.54018482 23.34375398 1.75 21.25 C4.5617013 18.50960123 4.5617013 18.50960123 6 15 C6.04393659 9.83083896 6.04393659 9.83083896 3.80078125 5.37109375 C1.31022208 3.0766416 -0.7346743 2.04331848 -4.0625 1.5 C-7.38089948 2.06483395 -9.31480682 2.98610512 -12 5 Z " fill="#687AAE" transform="translate(726,459)"/>
<path d="M0 0 C1.258125 -0.04125 2.51625 -0.0825 3.8125 -0.125 C4.52019531 -0.14820313 5.22789062 -0.17140625 5.95703125 -0.1953125 C8 0 8 0 11 2 C10.06666667 6.8 10.06666667 6.8 9.3125 9.0625 C8.90127473 11.61209669 9.68654362 12.83666008 11 15 C10.01 15 9.02 15 8 15 C6.95107762 13.36368108 5.95093297 11.69514137 5 10 C4.34 9.67 3.68 9.34 3 9 C3 10.98 3 12.96 3 15 C2.01 15 1.02 15 0 15 C0 10.05 0 5.1 0 0 Z " fill="#7282B3" transform="translate(717,464)"/>
<path d="M0 0 C3.3854337 -0.47396072 5.91707485 -0.76814864 8.80078125 1.27734375 C11.69891273 4.32764443 13.38396882 6.85648173 13.5625 11.125 C12.79645963 16.402167 10.9111387 19.4613507 7 23 C6.01 22.67 5.02 22.34 4 22 C4.804375 21.154375 5.60875 20.30875 6.4375 19.4375 C9.21469123 16.08271629 10 13.42414812 10 9 C8.92931997 6.05562992 8.00404119 4.5543376 5.23828125 3.02734375 C3.52207819 2.2788982 1.76247389 1.63183026 0 1 C0 0.67 0 0.34 0 0 Z " fill="#6174A9" transform="translate(721,460)"/>
<path d="M0 0 C0.99 0.33 1.98 0.66 3 1 C3.66666667 2.66666667 4.33333333 4.33333333 5 6 C5.99 6.33 6.98 6.66 8 7 C4.54754176 9.30163882 3.05261287 9.34490322 -1 9 C-1.66 8.34 -2.32 7.68 -3 7 C-2.01 6.67 -1.02 6.34 0 6 C0 4.02 0 2.04 0 0 Z " fill="#F1F3F7" transform="translate(720,473)"/>
<path d="M0 0 C0.598125 0.78375 1.19625 1.5675 1.8125 2.375 C5.50844069 6.81012882 8.42479034 7.36884419 14 8 C13.67 8.66 13.34 9.32 13 10 C8.78473241 10.33722141 6.42210731 10.21887045 2.625 8.25 C0 6 0 6 -0.9375 3.875 C-1 2 -1 2 0 0 Z " fill="#7384B3" transform="translate(712,474)"/>
<path d="M0 0 C0.99 0.33 1.98 0.66 3 1 C1.26440562 4.057952 -0.38472619 6.63379989 -3 9 C-3.99 8.67 -4.98 8.34 -6 8 C-4.73046875 6.50260417 -3.4609375 5.00520833 -2.19140625 3.5078125 C-0.9121848 1.99405921 -0.9121848 1.99405921 0 0 Z " fill="#6A7BAF" transform="translate(731,474)"/>
<path d="M0 0 C2.475 0.495 2.475 0.495 5 1 C5 1.99 5 2.98 5 4 C3.35 4 1.7 4 0 4 C0 2.68 0 1.36 0 0 Z " fill="#F2F4F8" transform="translate(720,466)"/>
</svg>
