
<svg version="1.1" xmlns="http://www.w3.org/2000/svg" width="1200" height="628" viewBox="0 0 1200 628" preserveAspectRatio="xMidYMid meet">
<path d="M0 0 C396 0 792 0 1200 0 C1200 207.24 1200 414.48 1200 628 C804 628 408 628 0 628 C0 420.76 0 213.52 0 0 Z " fill="#FEFEFE" transform="translate(0,0)" />
<path d="M0 0 C2.34375 0.43359375 2.34375 0.43359375 5.40625 2.30859375 C7.34375 4.43359375 7.34375 4.43359375 8.34375 6.43359375 C8.63777051 9.37379882 8.83232681 11.5711709 8.34375 14.43359375 C6.60772895 17.4586752 4.50794863 19.85149444 1.34375 21.43359375 C-2.03125 21.68359375 -2.03125 21.68359375 -5.65625 21.43359375 C-6.99900169 20.44627633 -8.33357273 19.44764632 -9.65625 18.43359375 C-12.3547089 18.65557188 -12.3547089 18.65557188 -14.65625 19.43359375 C-15.71668651 21.52854678 -15.71668651 21.52854678 -15.65625 24.43359375 C-14.32483849 26.54563742 -12.83126709 28.3855336 -11.19921875 30.2734375 C-8.06847038 34.65648522 -7.33154038 39.26408056 -7.21875 44.55859375 C-7.3560973 51.6360193 -8.99214674 57.36825778 -12.65625 63.43359375 C-17.16016163 68.85786993 -22.97301625 72.29771492 -29.65625 74.43359375 C-34.16146499 75.37975156 -38.49517315 75.59755958 -43.09375 75.62109375 C-44.35058594 75.63527344 -45.60742188 75.64945312 -46.90234375 75.6640625 C-50.85699132 75.42126936 -53.91156545 74.65605206 -57.65625 73.43359375 C-59.20132335 75.94433795 -59.66777253 77.57762543 -59.90625 80.55859375 C-59.82375 81.50734375 -59.74125 82.45609375 -59.65625 83.43359375 C-58.99625 84.09359375 -58.33625 84.75359375 -57.65625 85.43359375 C-54.69072969 85.64350029 -51.81126253 85.73476103 -48.84375 85.7421875 C-47.02734092 85.76737514 -45.21093475 85.79277271 -43.39453125 85.81835938 C-40.53565419 85.84694326 -37.67682841 85.87095746 -34.81787109 85.88989258 C-32.05537613 85.91176373 -29.29351911 85.95124731 -26.53125 85.9921875 C-25.69231201 85.99230331 -24.85337402 85.99241913 -23.98901367 85.99253845 C-16.532358 86.11478249 -9.82475415 87.67331367 -3.28125 91.30859375 C0.11372445 94.0569064 2.43187562 96.83781359 4.59375 100.62109375 C6.0049372 105.91304576 6.25120048 110.87998311 4.3984375 116.09375 C0.23862561 124.76656536 -4.50848233 129.84227663 -12.67578125 134.82421875 C-25.62771566 141.81792383 -39.23233044 142.4492458 -53.65625 141.43359375 C-60.8163759 140.41709388 -67.39486815 137.81704143 -72.93359375 133.125 C-76.56088164 129.56351325 -79.90748245 126.27688673 -81.234375 121.23828125 C-81.50882552 117.65794952 -81.03410232 115.19777586 -79.4375 111.96875 C-76.92828087 108.0192903 -74.52461396 105.10781057 -70.65625 102.43359375 C-71.62111328 102.65015625 -71.62111328 102.65015625 -72.60546875 102.87109375 C-79.87157559 104.36370343 -87.25012586 105.34708121 -94.65625 104.43359375 C-97.78322119 102.81953127 -100.43549355 101.18310174 -102.65625 98.43359375 C-103.84375 95.74609375 -103.84375 95.74609375 -104.65625 93.43359375 C-105.33107422 94.12195313 -105.33107422 94.12195313 -106.01953125 94.82421875 C-111.34474103 99.90397798 -116.45732738 102.79965938 -123.65625 104.43359375 C-129.98866632 105.30194579 -135.24429905 104.99031533 -141.09375 102.30859375 C-146.45296519 99.25968126 -149.09347112 95.80470653 -152.46875 90.68359375 C-154.12663806 86.1462159 -154.3003285 82.20865849 -153.65625 77.43359375 C-152.27647337 72.60003664 -149.70501595 69.1868071 -146.09375 65.74609375 C-137.26162538 58.61869906 -126.78727269 55.78114866 -115.65625 54.43359375 C-111.98700942 54.34333633 -108.32566234 54.3620954 -104.65625 54.43359375 C-104.73760065 50.89102029 -104.85040176 47.35010905 -104.96875 43.80859375 C-105.00258789 42.31005859 -105.00258789 42.31005859 -105.03710938 40.78125 C-105.23716711 35.28875578 -105.58414544 31.17649202 -108.65625 26.43359375 C-110.19438421 24.40463163 -110.19438421 24.40463163 -112.65625 23.43359375 C-115.73824409 22.97300054 -118.60578097 22.75153465 -121.65625 23.43359375 C-124.37305726 25.51927337 -125.53137853 27.12414795 -126.81640625 30.30859375 C-127.11417969 31.33984375 -127.41195312 32.37109375 -127.71875 33.43359375 C-128.85930558 37.3496644 -129.85155921 40.41208148 -132.65625 43.43359375 C-136.27555698 44.64002941 -138.84856005 44.75627934 -142.65625 44.43359375 C-148.19471154 41.35667067 -148.19471154 41.35667067 -149.65625 38.43359375 C-150.22455529 35.32083066 -150.25174562 32.54505838 -149.65625 29.43359375 C-146.98408115 24.78173884 -143.3252064 21.52916154 -138.59375 19.05859375 C-137.3001106 18.47331081 -135.98459924 17.9351387 -134.65625 17.43359375 C-133.82867188 17.07652344 -133.00109375 16.71945312 -132.1484375 16.3515625 C-127.04569845 15.01023848 -122.09745483 15.10502737 -116.84375 15.12109375 C-115.80154297 15.10498047 -114.75933594 15.08886719 -113.68554688 15.07226562 C-105.9611677 15.06741667 -99.46776911 16.06198186 -92.84375 20.18359375 C-88.41788812 24.73590883 -86.60486947 28.75321027 -85.56225586 34.921875 C-84.58358892 41.17909095 -84.36065519 47.29742982 -84.34765625 53.62109375 C-84.32253491 55.88802383 -84.29713643 58.15495086 -84.27148438 60.421875 C-84.24259463 63.94839924 -84.21853251 67.47487093 -84.19995117 71.00146484 C-84.1783727 74.43742102 -84.13898971 77.87282691 -84.09765625 81.30859375 C-84.09748253 82.89450317 -84.09748253 82.89450317 -84.0973053 84.51245117 C-84.07729713 85.98548706 -84.07729713 85.98548706 -84.05688477 87.48828125 C-84.05181412 88.34921387 -84.04674347 89.21014648 -84.04151917 90.09716797 C-83.78193589 92.52754911 -83.78193589 92.52754911 -82.33042908 94.72705078 C-81.77794998 95.29020996 -81.22547089 95.85336914 -80.65625 96.43359375 C-77.53038125 96.76757162 -77.53038125 96.76757162 -74.65625 96.43359375 C-74.70845703 95.49 -74.70845703 95.49 -74.76171875 94.52734375 C-74.95096051 88.54369946 -74.54286737 83.73987569 -71.65625 78.43359375 C-70.16811684 76.24789816 -68.61358646 74.16141192 -66.9609375 72.09765625 C-65.58391478 70.45552968 -65.58391478 70.45552968 -64.65625 68.43359375 C-65.213125 68.22734375 -65.77 68.02109375 -66.34375 67.80859375 C-70.20404057 65.51328585 -72.60727096 62.46078736 -74.640625 58.53125 C-77.32165889 51.74014056 -77.60645307 44.61901365 -76.65625 37.43359375 C-74.6596142 31.151139 -71.89691053 25.97291844 -66.65625 21.87109375 C-56.98737756 15.60934779 -48.66562496 15.00333963 -37.44140625 15.1328125 C-31.70444211 15.35307397 -26.77753617 16.8556879 -21.65625 19.43359375 C-21.45 18.60859375 -21.24375 17.78359375 -21.03125 16.93359375 C-19.26100511 12.42751584 -16.7846138 9.09588503 -13.65625 5.43359375 C-13.2025 4.89863281 -12.74875 4.36367188 -12.28125 3.8125 C-8.54199803 0.06262515 -5.02319998 -0.24964699 0 0 Z " fill="#707174" transform="translate(975.65625,256.56640625)" />
<path d="M0 0 C13.53 0 27.06 0 41 0 C44.12109375 8.8125 44.12109375 8.8125 45.20654297 11.87741089 C47.0462957 17.07217245 48.88626465 22.26685731 50.7265625 27.46142578 C54.37925814 37.77245235 58.03065004 48.08393107 61.67506409 58.39788818 C63.23969795 62.82570584 64.80525495 67.25319684 66.37088013 71.68066406 C67.12368382 73.81038292 67.87602346 75.94026585 68.62789917 78.0703125 C69.67785655 81.04468216 70.72938128 84.01849334 71.78125 86.9921875 C72.09401382 87.87953583 72.40677765 88.76688416 72.72901917 89.68112183 C73.15802773 90.89253342 73.15802773 90.89253342 73.59570312 92.12841797 C73.84421021 92.83191376 74.09271729 93.53540955 74.34875488 94.26022339 C74.99218733 96.07210117 74.99218733 96.07210117 76 98 C76.26149841 97.25895523 76.52299683 96.51791046 76.79241943 95.75440979 C80.10923701 86.35626665 83.42855149 76.95900745 86.75 67.5625 C87.01290455 66.8187273 87.2758091 66.07495461 87.54668045 65.30864334 C95.25686805 43.49871275 103.03312904 21.71790851 111 0 C124.53 0 138.06 0 152 0 C152 1.98 152 3.96 152 6 C150.96939453 6.16435547 150.96939453 6.16435547 149.91796875 6.33203125 C148.56638672 6.56986328 148.56638672 6.56986328 147.1875 6.8125 C146.29417969 6.96332031 145.40085937 7.11414063 144.48046875 7.26953125 C141.78017975 8.06473447 140.73519448 8.82690155 139 11 C137.2851478 14.42970439 137.85283861 18.36949293 137.85473633 22.14379883 C137.85137772 23.09190933 137.8480191 24.04001984 137.84455872 25.01686096 C137.83502912 28.16359758 137.83310448 31.31028108 137.83203125 34.45703125 C137.82881965 36.63937909 137.82545565 38.82172671 137.82194519 41.0040741 C137.8159486 45.58483377 137.81410579 50.16557457 137.81469727 54.74633789 C137.81479882 60.61765101 137.8011556 66.48884302 137.78392506 72.36012745 C137.77280794 76.86997535 137.77077798 81.37979396 137.77130699 85.88965416 C137.77012609 88.05420028 137.76569819 90.21874714 137.75797462 92.3832798 C137.74818235 95.41161196 137.75105005 98.43968123 137.75708008 101.46801758 C137.75146057 102.36327148 137.74584106 103.25852539 137.74005127 104.1809082 C137.76206903 108.53024859 137.84200294 112.09285192 140 116 C142.26312349 117.63915509 143.84403753 117.98210267 146.62109375 118.30078125 C150.7162207 118.31782061 154.17021742 118.28788375 158.0625 116.9375 C160.70270195 114.29729805 161.35930945 111.58276732 162 108 C162.28051394 104.12201045 162.28046147 100.25793567 162.265625 96.37109375 C162.26849518 94.70929832 162.26849518 94.70929832 162.27142334 93.01393127 C162.27278002 90.67993949 162.26911982 88.34594003 162.26074219 86.01196289 C162.25002541 82.44595362 162.26066056 78.88044693 162.2734375 75.31445312 C162.27211601 73.04166556 162.26955384 70.7688783 162.265625 68.49609375 C162.27169769 66.90214027 162.27169769 66.90214027 162.27789307 65.27598572 C162.24109934 59.45132063 162.12687015 54.30846468 158.875 49.25 C155.83613025 47.22408683 152.55531025 46.75768907 149 46 C149 44.35 149 42.7 149 41 C151.49807056 40.50842423 153.99774543 40.03194567 156.5 39.5625 C157.17675781 39.42779297 157.85351562 39.29308594 158.55078125 39.15429688 C163.80021475 38.1848069 169.00912784 37.75915491 174.33007812 37.45288086 C175.06937561 37.40858696 175.8086731 37.36429306 176.57037354 37.31865692 C178.38013451 37.21050442 180.1900525 37.10498475 182 37 C182.00808685 37.93072327 182.01617371 38.86144653 182.02450562 39.82037354 C182.10197856 48.59007098 182.18972077 57.35961349 182.28752708 66.12910843 C182.33748043 70.63763601 182.38381057 75.14614028 182.421875 79.65478516 C182.45873994 84.00559119 182.50510321 88.35620167 182.55806351 92.70684052 C182.57660103 94.36698731 182.59171138 96.02717602 182.60334396 97.68738556 C182.62021749 100.01217184 182.64925477 102.33651088 182.68115234 104.66113281 C182.68331253 105.3480571 182.68547272 106.03498138 182.68769836 106.74272156 C182.75017519 110.30525306 182.92575582 113.03970619 185 116 C187.90092502 117.93395001 188.89674737 118.30131941 192.1875 118.625 C193.445625 118.74875 194.70375 118.8725 196 119 C196 120.65 196 122.3 196 124 C164.98 124 133.96 124 102 124 C102 122.02 102 120.04 102 118 C102.60328125 117.93941406 103.2065625 117.87882812 103.828125 117.81640625 C104.62734375 117.73261719 105.4265625 117.64882813 106.25 117.5625 C107.03890625 117.48128906 107.8278125 117.40007812 108.640625 117.31640625 C110.82364639 117.02365007 112.8773182 116.57935581 115 116 C116.18762123 111.76448127 116.13251235 107.65261676 116.11352539 103.28417969 C116.11367142 102.40577423 116.11381744 101.52736877 116.1139679 100.62234497 C116.11327185 97.7221631 116.10549386 94.82204564 116.09765625 91.921875 C116.09579098 89.90977005 116.09436759 87.89766465 116.09336853 85.88555908 C116.08955198 80.59194686 116.07972902 75.29836211 116.06866455 70.00476074 C116.05843192 64.60213594 116.05386694 59.1995067 116.04882812 53.796875 C116.038106 43.1979046 116.0210399 32.59895459 116 22 C112.43670552 32.06221879 108.87423876 42.12473043 105.3125 52.1875 C104.9194272 53.29802294 104.9194272 53.29802294 104.51841354 54.43098068 C96.31450274 77.60976592 88.13024419 100.79525314 80 124 C75.38 124 70.76 124 66 124 C63.00914213 116.67495071 60.28801455 109.29328449 57.69140625 101.8203125 C57.08026222 100.07184525 57.08026222 100.07184525 56.45677185 98.28805542 C55.15655845 94.56777404 53.85920456 90.8465057 52.5625 87.125 C44.86079215 65.02691927 36.98273954 42.99798534 29 21 C28.93045645 32.50049556 28.8771665 44.00094099 28.84456348 55.50160408 C28.82891482 60.84196531 28.80769095 66.18218256 28.77368164 71.52246094 C28.74105997 76.67716765 28.72314097 81.83173595 28.71536827 86.98653793 C28.70982983 88.95210829 28.69901459 90.91767117 28.68280983 92.88318253 C28.66099837 95.63859615 28.65803464 98.39343956 28.65942383 101.14892578 C28.648638 101.95956985 28.63785217 102.77021393 28.6267395 103.60542297 C28.65331194 108.48375205 29.37927213 111.7330954 32 116 C32.33 116.33 32.66 116.66 33 117 C34.66204487 117.20775561 36.33029491 117.36718255 38 117.5 C39.66970509 117.63281745 41.33795513 117.79224439 43 118 C43.33 118.33 43.66 118.66 44 119 C44 120.65 44 122.3 44 124 C29.48 124 14.96 124 0 124 C0 122.02 0 120.04 0 118 C1.26457031 117.83564453 1.26457031 117.83564453 2.5546875 117.66796875 C3.65039062 117.50941406 4.74609375 117.35085938 5.875 117.1875 C6.96554688 117.03667969 8.05609375 116.88585937 9.1796875 116.73046875 C10.57574219 116.36888672 10.57574219 116.36888672 12 116 C14.049968 112.92504801 14.2510356 112.29941214 14.26069641 108.83180237 C14.26778122 107.98362946 14.27486603 107.13545654 14.28216553 106.26158142 C14.2784494 104.87054955 14.2784494 104.87054955 14.2746582 103.45141602 C14.27976913 102.47229248 14.28488007 101.49316895 14.29014587 100.484375 C14.30407044 97.24082361 14.30308295 93.99748402 14.30078125 90.75390625 C14.30466657 88.50333069 14.3090009 86.25275587 14.31376648 84.00218201 C14.32123484 79.28194808 14.32093291 74.56178895 14.31567383 69.84155273 C14.30987812 63.78737745 14.32680986 57.73350798 14.3500185 51.67938328 C14.3647376 47.03059595 14.36563003 42.38188259 14.36250877 37.7330761 C14.36302289 35.50071545 14.36827756 33.26835076 14.37832069 31.03601265 C14.39063239 27.91646474 14.38392488 24.79751655 14.37231445 21.67797852 C14.37995819 20.75264816 14.38760193 19.82731781 14.39547729 18.87394714 C14.37119895 13.96471426 14.37119895 13.96471426 12.64543152 9.44688416 C10.33000356 7.41084923 8.33844907 7.17719281 5.3125 6.75 C4.31863281 6.60046875 3.32476562 6.4509375 2.30078125 6.296875 C1.54152344 6.19890625 0.78226563 6.1009375 0 6 C0 4.02 0 2.04 0 0 Z " fill="#0E52A4" transform="translate(150,235)" />
<path d="M0 0 C7.67695293 -0.09357997 15.35384516 -0.16420349 23.03124237 -0.20724869 C26.59802203 -0.22793115 30.16440537 -0.25588311 33.73095703 -0.30175781 C69.45427246 -0.74893268 69.45427246 -0.74893268 82.125 6.8125 C87.97137441 11.26422403 91.8949635 15.76033916 94.39355469 22.76123047 C95.43979088 26.62354364 95.48805224 30.3934092 95.4375 34.375 C95.42992676 35.21063477 95.42235352 36.04626953 95.41455078 36.90722656 C95.2452129 43.25307108 94.40135123 48.52361059 91 54 C90.61070312 54.639375 90.22140625 55.27875 89.8203125 55.9375 C85.62886153 61.69144453 79.53335981 64.55554565 73 67 C61.06502161 70.41366049 49.30670987 70.28734707 37 70 C37.06912457 75.42646953 37.15721073 80.85218667 37.26245117 86.27807617 C37.29559026 88.12174088 37.32365613 89.96550436 37.34643555 91.80932617 C37.38018512 94.46836208 37.43250966 97.12650187 37.48828125 99.78515625 C37.49467117 100.60210464 37.5010611 101.41905304 37.50764465 102.26075745 C37.64139994 107.53335609 38.50574406 111.32379572 41 116 C43.43387753 117.21693876 45.41838846 117.31959896 48.125 117.5625 C49.49011719 117.68818359 49.49011719 117.68818359 50.8828125 117.81640625 C51.58148437 117.87699219 52.28015625 117.93757813 53 118 C53 119.98 53 121.96 53 124 C35.84 124 18.68 124 1 124 C1 122.02 1 120.04 1 118 C1.90492188 117.94392578 1.90492188 117.94392578 2.828125 117.88671875 C7.84993305 117.48223629 7.84993305 117.48223629 12.5 115.6875 C14.24411684 113.72536855 14.50822303 112.55381458 15 110 C15.08872918 108.62327057 15.13044002 107.24298517 15.13371277 105.86340332 C15.14011024 104.63956688 15.14011024 104.63956688 15.14663696 103.39100647 C15.14618378 102.50465012 15.14573059 101.61829376 15.14526367 100.70507812 C15.14862228 99.76482285 15.1519809 98.82456757 15.15544128 97.8558197 C15.16494073 94.74761637 15.16689374 91.63946694 15.16796875 88.53125 C15.17118146 86.37178525 15.17454554 84.21232073 15.17805481 82.05285645 C15.18404315 77.52693171 15.18589495 73.00102607 15.18530273 68.47509766 C15.185201 62.67100324 15.1988663 56.86703085 15.21607494 51.06296539 C15.22718233 46.60377437 15.22922235 42.14461299 15.22869301 37.68540955 C15.22987452 35.54515664 15.23430588 33.40490301 15.24202538 31.2646637 C15.25180198 28.27466215 15.24895665 25.28492754 15.24291992 22.29492188 C15.25134918 20.96538734 15.25134918 20.96538734 15.25994873 19.60899353 C15.25575424 18.79310257 15.25155975 17.97721161 15.24723816 17.13659668 C15.24805531 16.07695332 15.24805531 16.07695332 15.24888897 14.99590302 C14.95353708 12.62740224 14.23109465 11.03591922 13 9 C10.16559706 7.12251088 7.60230288 6.67079143 4.25 6.375 C3.05117188 6.26285156 3.05117188 6.26285156 1.828125 6.1484375 C1.22484375 6.09945312 0.6215625 6.05046875 0 6 C0 4.02 0 2.04 0 0 Z " fill="#6F7073" transform="translate(728,235)" />
<path d="M0 0 C0.33 19.8 0.66 39.6 1 60 C2.98 57.36 4.96 54.72 7 52 C10.8091501 47.90842242 15.06391662 44.1465025 20.46875 42.44140625 C27.27827631 41.25394256 34.98324827 40.71463945 41.63671875 42.84375 C45.75915978 45.16802151 48.54391616 48.46357373 50.96331787 52.47894287 C53.09193464 57.65542303 52.66031451 63.18144741 52.6015625 68.6953125 C52.61379541 70.6910922 52.62604368 72.68687195 52.6391964 74.6826458 C52.65168027 77.45961935 52.64208578 80.2363358 52.63201904 83.01330566 C52.61583745 87.88157299 52.61867701 92.74967094 52.64559937 97.6178894 C52.65768181 100.20439071 52.655031 102.79101318 52.63589478 105.37747192 C52.63955048 106.55244232 52.64320618 107.72741272 52.64697266 108.93798828 C52.64100571 110.48064865 52.64100571 110.48064865 52.63491821 112.05447388 C53.07329234 115.59133188 54.15749187 117.96190252 56 121 C59.44450737 123.29633824 61.93812283 123.54016485 66 124 C66 125.65 66 127.3 66 129 C50.49 129 34.98 129 19 129 C19 127.35 19 125.7 19 124 C19.92232422 123.83564453 19.92232422 123.83564453 20.86328125 123.66796875 C21.67152344 123.50941406 22.47976563 123.35085938 23.3125 123.1875 C24.11300781 123.03667969 24.91351563 122.88585937 25.73828125 122.73046875 C28.29039274 121.90621167 29.35316788 121.09274359 31 119 C31.95540743 116.1337777 32.13674088 114.29816912 32.16113281 111.32006836 C32.17074036 110.37155502 32.1803479 109.42304169 32.19024658 108.44578552 C32.19449646 107.42082474 32.19874634 106.39586395 32.203125 105.33984375 C32.20882507 104.28019913 32.21452515 103.2205545 32.22039795 102.12879944 C32.22985133 99.88185627 32.23638327 97.63489921 32.24023438 95.38793945 C32.24989338 91.9751709 32.28089475 88.56301662 32.3125 85.15039062 C32.31903499 82.96354523 32.32428351 80.77669554 32.328125 78.58984375 C32.3466452 77.073657 32.3466452 77.073657 32.36553955 75.52684021 C32.3456473 69.09353273 31.79611219 62.89039081 29 57 C26.07943239 54.7367134 26.07943239 54.7367134 22.3125 54.5 C18.86194104 54.61396342 16.72637194 55.43759949 13.875 57.375 C9.35193964 61.13384977 6.59716155 65.78269317 4 71 C3.48590576 72.02867187 2.97181152 73.05734375 2.44213867 74.1171875 C0.64957789 78.34818476 0.5659999 82.23930583 0.6015625 86.78515625 C0.59725723 88.0141288 0.59725723 88.0141288 0.59286499 89.26792908 C0.59083447 90.98990577 0.59629312 92.71190606 0.60888672 94.43383789 C0.62497629 97.05863266 0.60899353 99.68189273 0.58984375 102.30664062 C0.59182596 103.98698254 0.59566917 105.6673235 0.6015625 107.34765625 C0.59548981 108.12593277 0.58941711 108.90420929 0.5831604 109.70606995 C0.64466135 114.50402828 1.32274498 117.8560086 4 122 C6.4575436 123.13936688 6.4575436 123.13936688 9.1875 123.375 C10.08855469 123.50648438 10.98960937 123.63796875 11.91796875 123.7734375 C12.94857422 123.88558594 12.94857422 123.88558594 14 124 C14 125.65 14 127.3 14 129 C-1.51 129 -17.02 129 -33 129 C-33 127.35 -33 125.7 -33 124 C-32.38511719 123.91363281 -31.77023437 123.82726562 -31.13671875 123.73828125 C-30.32847656 123.59777344 -29.52023437 123.45726562 -28.6875 123.3125 C-27.88699219 123.18488281 -27.08648437 123.05726563 -26.26171875 122.92578125 C-23.8696831 122.15378626 -23.8696831 122.15378626 -22.3848877 120.05212402 C-20.43206139 115.74833239 -20.56516143 111.91584995 -20.58007812 107.24023438 C-20.57160858 106.26242508 -20.56313904 105.28461578 -20.55441284 104.2771759 C-20.53103858 101.04923452 -20.5300207 97.82176957 -20.53125 94.59375 C-20.52414951 92.34842742 -20.51645068 90.10310666 -20.50817871 87.85778809 C-20.49473349 83.15367588 -20.49316575 78.44973151 -20.49902344 73.74560547 C-20.5049243 67.71604728 -20.4743114 61.68729295 -20.43390656 55.65789032 C-20.40806649 51.02190813 -20.40514873 46.38612057 -20.40879822 41.75007629 C-20.40710401 39.52690101 -20.39743273 37.30371702 -20.37965393 35.08061218 C-20.35753427 31.97311426 -20.36713079 28.86725762 -20.38476562 25.75976562 C-20.37150238 24.84117264 -20.35823914 23.92257965 -20.34457397 22.97615051 C-20.37657738 20.55072091 -20.47636415 18.36829686 -21 16 C-23.11524006 12.87020618 -23.11524006 12.87020618 -26 11 C-29.68441504 10.11472891 -29.68441504 10.11472891 -33 10 C-33 8.02 -33 6.04 -33 4 C-29.10457803 3.4257851 -25.20849944 2.85627487 -21.31176758 2.29101562 C-19.33834479 2.003762 -17.36545672 1.71284265 -15.39257812 1.421875 C-13.52182617 1.15117187 -13.52182617 1.15117187 -11.61328125 0.875 C-10.46641846 0.70742187 -9.31955566 0.53984375 -8.13793945 0.3671875 C-5 0 -5 0 0 0 Z " fill="#0C51A4" transform="translate(448,230)" />
<path d="M0 0 C0.92232422 -0.0100708 1.84464844 -0.0201416 2.79492188 -0.03051758 C10.35334831 0.06511578 16.66230004 1.45671135 23.0625 5.5625 C27.27162019 10.06527974 29.4871416 15.43048871 30.75 21.4375 C30.85313496 23.24863992 30.90553776 25.06296885 30.92358398 26.87695312 C30.93707382 27.96488159 30.95056366 29.05281006 30.96446228 30.17370605 C30.98011986 31.92850281 30.98011986 31.92850281 30.99609375 33.71875 C31.02902049 36.19401411 31.06223233 38.66927444 31.09570312 41.14453125 C31.14319417 45.04863994 31.18765276 48.95273203 31.22680664 52.85693359 C31.26645254 56.62353141 31.31800269 60.38982111 31.37109375 64.15625 C31.3795079 65.3261145 31.38792206 66.495979 31.39659119 67.70129395 C31.41323318 68.78922241 31.42987518 69.87715088 31.44702148 70.99804688 C31.46248268 72.43222961 31.46248268 72.43222961 31.47825623 73.89538574 C31.75899876 76.52168176 32.4157093 78.17977928 33.75 80.4375 C38.0664922 81.19923392 41.49433453 81.59813604 45.75 80.4375 C45.75 82.4175 45.75 84.3975 45.75 86.4375 C37.4292478 88.95621418 29.45991633 90.48602618 20.75 89.4375 C17.27811643 87.91474405 15.62228484 86.72253791 13.51171875 83.61328125 C12.51770456 81.92926409 11.62452593 80.18655186 10.75 78.4375 C10.07517578 79.12585938 10.07517578 79.12585938 9.38671875 79.828125 C4.0652465 84.90431897 -1.06377581 87.78064886 -8.25 89.4375 C-14.87542721 90.32393647 -20.328536 89.6685702 -26.3125 86.64453125 C-30.46365416 84.05842916 -33.55634258 80.47798612 -36.25 76.4375 C-37.99144315 71.21317056 -37.80457036 65.88002773 -37.25 60.4375 C-35.57633976 55.58857782 -32.48082541 52.39051246 -28.5625 49.1875 C-18.57276001 42.32304179 -5.89526339 39.26547009 6.125 39.25 C7.66685683 39.30761842 9.20857726 39.36924839 10.75 39.4375 C10.66818026 36.10323244 10.55542926 32.77067031 10.4375 29.4375 C10.40366211 28.03564453 10.40366211 28.03564453 10.36914062 26.60546875 C10.13861422 20.6117821 9.43435055 15.84305717 6.75 10.4375 C4.57880734 8.75571552 3.21559635 8.50799522 0.53125 8.1015625 C-0.2215625 8.08867187 -0.974375 8.07578125 -1.75 8.0625 C-2.5028125 8.03414063 -3.255625 8.00578125 -4.03125 7.9765625 C-6.38671986 8.30216273 -6.38671986 8.30216273 -8.40234375 10.05078125 C-10.6471403 12.95050787 -11.38279437 15.46228896 -12.3125 19 C-13.89431324 24.98101918 -13.89431324 24.98101918 -15.68359375 27.27734375 C-18.26065394 29.1860392 -20.45805895 29.45291177 -23.625 29.6875 C-27.51399436 29.41929349 -29.23378462 28.8504723 -32.25 26.4375 C-34.12717764 23.93459648 -34.27526203 22.21014172 -34.625 19.0625 C-34.1712737 14.67647911 -33.04504331 12.82097348 -30.25 9.4375 C-25.97690398 4.83570428 -21.37858634 2.86996802 -15.359375 1.1640625 C-10.28027446 0.1065598 -5.17226237 0.03675939 0 0 Z " fill="#0E52A4" transform="translate(551.25,271.5625)" />
<path d="M0 0 C0.92055176 0.00757324 1.84110352 0.01514648 2.78955078 0.02294922 C9.33637396 0.18223083 14.88957919 0.81056129 20.5 4.4375 C21.47259766 5.05625 21.47259766 5.05625 22.46484375 5.6875 C27.58761528 9.49979509 30.16521722 14.59089518 32.5 20.4375 C33.5 24.4375 33.5 24.4375 33.5 35.4375 C16.34 35.4375 -0.82 35.4375 -18.5 35.4375 C-15.48249632 56.06748414 -15.48249632 56.06748414 -4.625 72.59375 C-0.67915959 76.01734683 3.55651691 77.7896723 8.5 79.4375 C15.53588476 79.84634195 21.82616323 79.70944443 28.5 77.4375 C29.82 77.4375 31.14 77.4375 32.5 77.4375 C32.5 79.7475 32.5 82.0575 32.5 84.4375 C21.52942117 89.92278942 8.57345922 90.54007266 -3.5 89.4375 C-12.91411998 87.81896795 -20.48966557 83.91744728 -27.5 77.4375 C-33.40588171 70.71955956 -36.61977759 62.10970659 -38.5 53.4375 C-39.48714709 40.28053125 -39.81046033 26.86435266 -33.1796875 15.09375 C-29.43333298 9.60728546 -24.46980611 5.04312775 -18.26660156 2.53417969 C-12.09100143 0.61778918 -6.45457656 -0.07462623 0 0 Z " fill="#0C51A4" transform="translate(628.5,271.5625)" />
<path d="M0 0 C0.96808594 -0.01546875 1.93617188 -0.0309375 2.93359375 -0.046875 C11.22014611 -0.00238344 17.71756448 2.17234737 24.75 6.5 C29.9092945 11.18893147 32.84773922 18.89095689 34.5 25.5 C34.5 28.8 34.5 32.1 34.5 35.5 C17.34 35.5 0.18 35.5 -17.5 35.5 C-14.41950754 55.4772123 -14.41950754 55.4772123 -4.5 72.5 C0.27578031 76.40658829 5.68448365 79.20745633 11.89453125 79.68359375 C18.92438093 79.85456291 25.61511521 78.84573664 32.5 77.5 C32.5 79.81 32.5 82.12 32.5 84.5 C19.57848717 89.76432004 5.93920082 91.33447729 -7.8125 88.4375 C-15.54845011 86.19565323 -22.4915939 82.02706383 -27.9375 76.0625 C-33.37450252 69.03189329 -36.93373958 60.36507944 -37.78881836 51.50854492 C-37.90100181 48.33367844 -37.90965319 45.17654239 -37.875 42 C-37.88660156 40.93652344 -37.89820313 39.87304688 -37.91015625 38.77734375 C-37.87857067 30.19659566 -36.72951445 21.96749847 -31.75 14.75 C-26.97700386 8.11693919 -21.9254772 4.27242558 -14.31347656 1.33129883 C-9.5458247 -0.07740081 -4.93856253 -0.07891178 0 0 Z " fill="#6E6F72" transform="translate(1012.5,271.5)" />
<path d="M0 0 C0.00238835 0.59837771 0.00477671 1.19675543 0.00723743 1.8132658 C0.06639025 16.37750685 0.14194211 30.94159907 0.23571491 45.50565624 C0.28066806 52.54875886 0.32008376 59.59181096 0.34643555 66.63500977 C0.37187515 73.43023748 0.41278307 80.22523119 0.46318626 87.02031898 C0.47988991 89.61465985 0.49138233 92.20903959 0.49761391 94.80342674 C0.50721666 98.4332378 0.53523148 102.06246954 0.56762695 105.69213867 C0.56619186 106.7681987 0.56475677 107.84425873 0.5632782 108.95292664 C0.61648345 113.15960269 0.67745663 116.26703084 2.38566589 120.14888 C3.88885759 122.15190126 3.88885759 122.15190126 6.26171875 122.92578125 C7.06222656 123.05339844 7.86273437 123.18101562 8.6875 123.3125 C9.49574219 123.45300781 10.30398438 123.59351563 11.13671875 123.73828125 C12.05904297 123.86783203 12.05904297 123.86783203 13 124 C13 125.65 13 127.3 13 129 C-2.51 129 -18.02 129 -34 129 C-34 127.35 -34 125.7 -34 124 C-33.07767578 123.83564453 -33.07767578 123.83564453 -32.13671875 123.66796875 C-31.32847656 123.50941406 -30.52023437 123.35085938 -29.6875 123.1875 C-28.88699219 123.03667969 -28.08648438 122.88585937 -27.26171875 122.73046875 C-24.70960726 121.90621167 -23.64683212 121.09274359 -22 119 C-21.09515331 116.28545994 -20.87106861 114.70360817 -20.85955811 111.91445923 C-20.85384796 111.08455978 -20.84813782 110.25466034 -20.84225464 109.39961243 C-20.84057785 108.03898933 -20.84057785 108.03898933 -20.83886719 106.65087891 C-20.83390228 105.6928688 -20.82893738 104.7348587 -20.82382202 103.74781799 C-20.80919969 100.5740589 -20.80239857 97.40034977 -20.796875 94.2265625 C-20.791124 92.02322386 -20.78536626 89.81988524 -20.77960205 87.61654663 C-20.76909213 82.99468757 -20.76324927 78.3728459 -20.75976562 73.75097656 C-20.75427826 67.82695445 -20.73024486 61.90316188 -20.70179367 55.97921181 C-20.68317675 51.42733079 -20.67796221 46.8755052 -20.67642975 42.32358932 C-20.673401 40.13949706 -20.66536505 37.95540582 -20.65224457 35.77135086 C-20.6352027 32.71669248 -20.63705981 29.6625967 -20.64355469 26.60791016 C-20.6343399 25.70487656 -20.62512512 24.80184296 -20.6156311 23.8714447 C-20.64109032 20.05180278 -20.78360386 17.48156136 -22.36724854 13.95736694 C-23.88464905 11.80969445 -23.88464905 11.80969445 -26.48046875 11.07421875 C-27.82044922 10.88279297 -27.82044922 10.88279297 -29.1875 10.6875 C-30.08855469 10.54699219 -30.98960937 10.40648437 -31.91796875 10.26171875 C-32.60503906 10.17535156 -33.29210937 10.08898437 -34 10 C-34 8.02 -34 6.04 -34 4 C-29.64037107 3.42789618 -25.28042433 2.85829782 -20.92016602 2.29101562 C-19.43700321 2.09769358 -17.95392933 1.90368804 -16.47094727 1.70898438 C-14.33893493 1.42918898 -12.20661455 1.15185581 -10.07421875 0.875 C-8.79119873 0.70742187 -7.50817871 0.53984375 -6.1862793 0.3671875 C-3 0 -3 0 0 0 Z " fill="#0F53A5" transform="translate(701,230)" />
<path d="M0 0 C0.93150879 0.00757324 1.86301758 0.01514648 2.82275391 0.02294922 C10.75225175 0.21276945 17.24387391 1.35652896 23.88671875 5.8984375 C27.05012075 8.42659245 29.22907244 10.63167667 30.75 14.4375 C31.32893826 17.86102911 31.35806062 21.01577706 30.75 24.4375 C27.89871274 28.18919377 27.89871274 28.18919377 24.75 29.4375 C21.23627839 30.1604188 18.25660668 30.22326136 14.75 29.4375 C11.86225943 27.28705489 11.11522154 26.58930775 9.75 23.4375 C8.85338696 20.05984812 8.12851703 16.70750599 7.5234375 13.265625 C7.26820313 12.33234375 7.01296875 11.3990625 6.75 10.4375 C3.70267415 8.40594943 2.85580195 8.12189935 -0.625 8.0625 C-3.81407562 8.15568727 -5.22758546 8.42580546 -8.125 9.9375 C-12.19776696 14.72899054 -13.46179889 20.28811118 -14.25 26.4375 C-14.41420561 29.85516601 -14.43506673 33.26632187 -14.4375 36.6875 C-14.45586914 38.02361328 -14.45586914 38.02361328 -14.47460938 39.38671875 C-14.50075909 51.39815449 -11.67042209 61.28544316 -5.25 71.4375 C-2.01914152 74.87378879 1.40916273 76.79623 5.625 78.8125 C14.13183197 80.51386639 22.329316 79.05797527 30.75 77.4375 C30.75 80.0775 30.75 82.7175 30.75 85.4375 C29.37708132 85.92259793 28.00153297 86.40025513 26.625 86.875 C25.85929687 87.14183594 25.09359375 87.40867187 24.3046875 87.68359375 C13.82701313 90.77562915 0.51073859 91.02836909 -9.9375 87.8125 C-15.05256774 85.77502176 -19.22059862 83.17908699 -23.25 79.4375 C-24.17425781 78.59251953 -24.17425781 78.59251953 -25.1171875 77.73046875 C-31.18665491 71.54377987 -34.26060444 63.64915684 -35.86328125 55.20703125 C-37.10335907 43.11940402 -38.33652091 29.35910761 -32.25 18.4375 C-31.82589844 17.633125 -31.40179688 16.82875 -30.96484375 16 C-26.80047531 8.94725346 -21.2241855 5.50605121 -14.10546875 1.80078125 C-9.49872887 -0.11637456 -4.92807517 -0.05562959 0 0 Z " fill="#0D51A4" transform="translate(377.25,271.5625)" />
<path d="M0 0 C1.3805619 0.00066541 2.76138982 0.03323628 4.140625 0.09375 C4.85710205 0.11147461 5.5735791 0.12919922 6.31176758 0.14746094 C13.06364907 0.42100934 17.47776565 1.78130418 23.203125 5.34375 C25.91374463 8.1318159 27.31416617 10.9041208 28.390625 14.59375 C28.83019427 18.08272054 28.85559007 21.51821724 28.828125 25.03125 C28.8580957 26.38573242 28.8580957 26.38573242 28.88867188 27.76757812 C28.88423113 33.90024161 27.82368148 38.46134618 24.390625 43.59375 C21.2835072 46.87841739 17.78896469 48.70500069 13.50512695 50.0168457 C9.33071841 50.79007823 5.29281619 50.72635601 1.05859375 50.671875 C0.22404663 50.66623535 -0.61050049 50.6605957 -1.47033691 50.65478516 C-3.51673169 50.6401419 -5.56306829 50.61772547 -7.609375 50.59375 C-7.71090282 44.27675117 -7.78089379 37.95996321 -7.82910156 31.64233398 C-7.84920086 29.4938165 -7.87648493 27.3453536 -7.91113281 25.19702148 C-7.95972413 22.10647095 -7.98236079 19.01664445 -8 15.92578125 C-8.02064514 14.96726761 -8.04129028 14.00875397 -8.06256104 13.02119446 C-8.06399681 8.74150433 -7.98915579 6.2500677 -5.81054688 2.48510742 C-3.609375 0.59375 -3.609375 0.59375 0 0 Z " fill="#FDFDFD" transform="translate(772.609375,244.40625)" />
<path d="M0 0 C5.53176738 -0.0994991 11.06300426 -0.17176423 16.59545898 -0.21972656 C18.47413213 -0.2397382 20.3527438 -0.26695637 22.23120117 -0.30175781 C24.94465373 -0.3507397 27.65727696 -0.37307329 30.37109375 -0.390625 C31.61384315 -0.42159271 31.61384315 -0.42159271 32.88169861 -0.45318604 C38.86697032 -0.45544598 43.89159555 0.77011554 49 4 C51 7 51 7 51.375 9.8125 C50.88540088 13.9740925 49.6853917 15.77752995 47 19 C42.37358329 23.20676387 37.24159208 26.87369767 31 28 C22.48057845 28.74216376 13.66148142 29.19213134 6 25 C2.71460903 22.86525287 0.34875629 20.51150922 -1.875 17.25 C-3.30302119 13.12460546 -3.76628422 9.31973946 -3 5 C-2.02794629 3.31688106 -1.03030138 1.64810705 0 0 Z " fill="#FBFBFC" transform="translate(913,361)" />
<path d="M0 0 C2.90132828 1.09605735 4.35773906 2.09865753 6.15234375 4.6171875 C10.84089472 12.39250691 10.47522315 20.1907708 10 29 C9.34364748 33.6334038 8.38191521 37.78408684 5.88671875 41.78515625 C4.5625 43.1875 4.5625 43.1875 1 45 C-3.12879342 45.66575395 -6.87546018 45.71252584 -11 45 C-14.89437831 42.37725542 -16.57956665 39.36833609 -18.36938477 35.0715332 C-19.56574596 31.14155846 -19.47132009 27.20185801 -19.4375 23.125 C-19.45748047 22.27808594 -19.47746094 21.43117188 -19.49804688 20.55859375 C-19.49329577 14.35365558 -18.21913912 9.34491962 -15 4 C-10.42058484 -0.36641911 -6.05354525 -0.89682152 0 0 Z " fill="#FDFDFD" transform="translate(938,279)" />
<path d="M0 0 C0.57921303 17.67672364 0.57921303 17.67672364 -3 24 C-5.37116579 26.50395107 -7.89829777 28.44914888 -11 30 C-14.73281427 30.47486687 -18.2765426 30.58027908 -22 30 C-24.56753682 28.24003984 -25.37238781 26.76694072 -27 24 C-28.21113569 20.36659292 -28.31889037 17.82668446 -28 14 C-26.11614528 9.44735108 -24.33612143 6.93034923 -20.25 4.1875 C-13.52849932 0.40354406 -7.5809128 -0.08686463 0 0 Z " fill="#FCFCFD" transform="translate(871,319)" />
<path d="M0 0 C0.79921875 0.00902344 1.5984375 0.01804687 2.421875 0.02734375 C3.02515625 0.03894531 3.6284375 0.05054688 4.25 0.0625 C4.33138426 2.93807703 4.39067851 5.81132262 4.4375 8.6875 C4.46263672 9.49574219 4.48777344 10.30398438 4.51367188 11.13671875 C4.57584105 16.23459138 4.0606327 19.6362542 1.25 24.0625 C-2.96052632 28.79934211 -2.96052632 28.79934211 -6.75 30.0625 C-10.12138937 30.41106738 -13.38216747 30.46535078 -16.75 30.0625 C-19.68423195 28.26603146 -21.22205355 27.1183929 -22.75 24.0625 C-23.24419913 18.65061446 -23.40880848 13.70952121 -21.375 8.625 C-15.59023241 2.97796497 -8.06002169 -0.11852973 0 0 Z " fill="#FBFCFD" transform="translate(557.75,318.9375)" />
<path d="M0 0 C3.375 1.0625 3.375 1.0625 6 3 C10.49314964 8.95038736 10.19113984 11.91139841 11 20 C0.11 20 -10.78 20 -22 20 C-21.06772552 12.54180418 -20.46468975 9.48380372 -16 4 C-11.07823098 -0.57838979 -6.4153485 -0.83587603 0 0 Z " fill="#FAFAFA" transform="translate(1017,279)" />
<path d="M0 0 C4.09417078 1.36472359 5.63923779 2.54173449 8.3125 5.9375 C11.25948586 11.2857336 11 13.46073471 11 20 C0.44 20 -10.12 20 -21 20 C-21 13.21786068 -20.61644531 10.34908309 -17 5 C-11.46625216 -0.13848013 -7.35538823 -0.61106302 0 0 Z " fill="#F7F9FC" transform="translate(632,279)" />
<path d="M0 0 C3.63467079 1.62400184 4.77408696 2.66113044 7 6 C7.5965522 10.57098437 7.52885741 14.73074222 5.75 19 C3.86494355 21.15435023 2.62121025 21.91327049 0 23 C-3.44873701 23.64308132 -6.55563705 23.69320512 -10 23 C-12.92793401 21.15563212 -14.53186996 19.11906227 -16 16 C-16.75675031 12.80728702 -16.79253021 10.18747551 -16 7 C-12.07436657 0.11216698 -7.39201177 -0.72897002 0 0 Z " fill="#0C51A4" transform="translate(327,234)" />
</svg>
