<?xml version="1.0" encoding="UTF-8"?>
<svg version="1.1" xmlns="http://www.w3.org/2000/svg" width="500" height="300">
<path d="M0 0 C165 0 330 0 500 0 C500 99 500 198 500 300 C335 300 170 300 0 300 C0 201 0 102 0 0 Z " fill="#FEFEFE" transform="translate(0,0)"/>
<path d="M0 0 C1.00546875 0.49306641 1.00546875 0.49306641 2.03125 0.99609375 C2.69125 0.66609375 3.35125 0.33609375 4.03125 -0.00390625 C4.36125 -0.99390625 4.69125 -1.98390625 5.03125 -3.00390625 C8.99125 -3.00390625 12.95125 -3.00390625 17.03125 -3.00390625 C17.03125 11.84609375 17.03125 26.69609375 17.03125 41.99609375 C13.07125 41.99609375 9.11125 41.99609375 5.03125 41.99609375 C4.37125 40.34609375 3.71125 38.69609375 3.03125 36.99609375 C2.37125 37.98609375 1.71125 38.97609375 1.03125 39.99609375 C-6.10600836 43.73392517 -14.01932499 44.13406367 -21.65625 41.93359375 C-27.64004062 38.43364075 -32.43016998 34.05972632 -34.53125 27.296875 C-35.87960028 20.20599721 -36.05027521 13.15881664 -32.30078125 6.8125 C-23.72515539 -4.88153526 -12.61667361 -7.36638064 0 0 Z " fill="#F9FBFC" transform="translate(127.96875,131.00390625)"/>
<path d="M0 0 C4.59191581 3.6521749 7.90897812 7.70186219 9.6796875 13.3359375 C10.4499938 21.33458314 10.99811974 29.78897851 5.6796875 36.3359375 C1.1328025 41.13063851 -3.1029733 44.15896615 -9.87109375 44.53125 C-11.73314453 44.49644531 -11.73314453 44.49644531 -13.6328125 44.4609375 C-16.943125 44.3990625 -16.943125 44.3990625 -20.3203125 44.3359375 C-20.3203125 49.9459375 -20.3203125 55.5559375 -20.3203125 61.3359375 C-23.9503125 63.3159375 -27.5803125 65.2959375 -31.3203125 67.3359375 C-31.3203125 44.8959375 -31.3203125 22.4559375 -31.3203125 -0.6640625 C-8.07994934 -4.88958308 -8.07994934 -4.88958308 0 0 Z " fill="#2665B0" transform="translate(79.3203125,129.6640625)"/>
<path d="M0 0 C5.20833072 3.85568172 8.23584936 7.79922922 9.609375 14.19140625 C10.50701704 22.12787552 9.80663393 29.27392966 5.609375 36.19140625 C2.01286181 40.38878968 -1.91645992 43.09657323 -7.390625 44.19140625 C-12.00130246 44.48964937 -15.88686835 44.31734541 -20.390625 43.19140625 C-20.390625 49.13140625 -20.390625 55.07140625 -20.390625 61.19140625 C-29.140625 66.19140625 -29.140625 66.19140625 -31.390625 66.19140625 C-31.390625 44.08140625 -31.390625 21.97140625 -31.390625 -0.80859375 C-8.19552055 -5.02588547 -8.19552055 -5.02588547 0 0 Z " fill="#2967B1" transform="translate(378.390625,129.80859375)"/>
<path d="M0 0 C0.82097672 -0.0127597 1.64195343 -0.02551941 2.48780823 -0.03866577 C3.35155563 -0.04089142 4.21530304 -0.04311707 5.10522461 -0.04541016 C6.46737343 -0.05539536 6.46737343 -0.05539536 7.85704041 -0.06558228 C9.76730333 -0.07566109 11.67760113 -0.08040078 13.58789062 -0.08007812 C16.50246019 -0.08446497 19.41553039 -0.12087201 22.32983398 -0.15869141 C24.19245905 -0.16455794 26.05509126 -0.16852843 27.91772461 -0.17041016 C28.78349625 -0.18478119 29.64926788 -0.19915222 30.54127502 -0.21395874 C37.2461141 -0.16351196 40.67704536 1.89656151 45.75756836 6.29052734 C49.1674581 10.33187815 48.57886216 15.05601014 48.54272461 20.11865234 C48.54130966 20.86765808 48.53989471 21.61666382 48.53843689 22.3883667 C48.53285495 24.77246147 48.52030581 27.15646113 48.50756836 29.54052734 C48.50255102 31.16031765 48.49798852 32.78010943 48.49389648 34.39990234 C48.48289144 38.36348046 48.46563927 42.3269878 48.44506836 46.29052734 C44.48506836 46.29052734 40.52506836 46.29052734 36.44506836 46.29052734 C36.43048584 45.36715576 36.41590332 44.44378418 36.40087891 43.49243164 C36.33980528 40.0647553 36.26565226 36.63788072 36.18261719 33.21069336 C36.14937413 31.7277288 36.12134013 30.24463791 36.09863281 28.76147461 C36.06507368 26.62868442 36.01276198 24.49705122 35.95678711 22.36474609 C35.93060303 21.08172607 35.90441895 19.79870605 35.87744141 18.47680664 C35.65493015 15.40615728 35.65493015 15.40615728 34.41308594 13.41088867 C31.65183926 11.67256357 31.65183926 11.67256357 24.44506836 11.29052734 C24.44506836 22.84052734 24.44506836 34.39052734 24.44506836 46.29052734 C20.48506836 46.29052734 16.52506836 46.29052734 12.44506836 46.29052734 C12.43572266 45.36715576 12.42637695 44.44378418 12.41674805 43.49243164 C12.37272102 40.06458229 12.31110729 36.63798684 12.23754883 33.21069336 C12.20933295 31.72773792 12.18812134 30.24463192 12.17407227 28.76147461 C12.15264916 26.62844737 12.10601054 24.49723129 12.05444336 22.36474609 C12.03349609 21.08172607 12.01254883 19.79870605 11.9909668 18.47680664 C11.71689613 15.29288122 11.71689613 15.29288122 9.84448242 13.34838867 C6.81459235 11.81987586 6.81459235 11.81987586 0.44506836 12.29052734 C0.11506836 23.51052734 -0.21493164 34.73052734 -0.55493164 46.29052734 C-4.18493164 46.29052734 -7.81493164 46.29052734 -11.55493164 46.29052734 C-11.55493164 31.77052734 -11.55493164 17.25052734 -11.55493164 2.29052734 C-3.67574282 0.03933054 -3.67574282 0.03933054 0 0 Z " fill="#2162AE" transform="translate(292.554931640625,126.70947265625)"/>
<path d="M0 0 C4.93274927 2.92690102 8.97720694 6.54948426 11.05078125 12.0390625 C12.97329347 20.58030001 12.41378778 28.73666153 7.98046875 36.32421875 C4.65744087 40.98378125 0.08770703 43.87159235 -5.4375 45.3125 C-12.564614 46.19673088 -18.57569035 45.66075705 -24.4375 41.3125 C-30.12064497 36.3128513 -32.05465431 31.07370817 -32.65234375 23.640625 C-32.89314444 16.66703692 -32.48816599 10.65370561 -27.6328125 5.3359375 C-19.8951248 -1.75937613 -10.01229953 -4.70159313 0 0 Z " fill="#2D6AB1" transform="translate(32.4375,128.6875)"/>
<path d="M0 0 C5.43378944 2.79085737 8.79546711 6.77843422 11.5 12.1875 C13.21637367 21.11264309 12.5212009 29.36494397 8.125 37.4375 C4.14363331 42.15475912 -0.5304864 45.08664503 -6.7421875 45.73828125 C-12.92350118 45.76236429 -17.41737082 45.41438864 -22.875 42.4375 C-22.875 41.7775 -22.875 41.1175 -22.875 40.4375 C-23.79732422 40.06238281 -23.79732422 40.06238281 -24.73828125 39.6796875 C-27.24359433 38.22321664 -27.8610275 37.16160378 -29.0625 34.5625 C-29.38605469 33.88445312 -29.70960938 33.20640625 -30.04296875 32.5078125 C-32.59750454 26.15145584 -33.05193913 18.70567684 -31.2265625 12.0859375 C-25.57761989 -0.41898675 -12.63276514 -4.99734173 0 0 Z " fill="#2464AF" transform="translate(486.875,128.5625)"/>
<path d="M0 0 C4.99790033 3.38223806 7.98035415 7.50476414 9.19921875 13.48828125 C9.94298963 21.38369521 9.56046775 28.6609221 5.19921875 35.48828125 C0.0751242 40.64446825 -5.77609514 43.75709911 -13.11328125 43.86328125 C-20.03423927 43.72355801 -24.29750816 41.49089972 -29.61328125 37.23828125 C-35.07503951 30.37207087 -35.40211422 23.62196142 -35.21484375 15.05859375 C-34.46726255 8.61246906 -31.52236031 4.89127468 -26.86328125 0.61328125 C-18.20340548 -5.39561214 -9.01241841 -5.02261937 0 0 Z " fill="#2766AF" transform="translate(183.80078125,130.51171875)"/>
<path d="M0 0 C4.73067153 2.91477949 9.06453318 6.31043516 10.43359375 11.8984375 C10.7432635 16.97912083 10.61480368 21.77925685 10.43359375 26.8984375 C1.52359375 26.8984375 -7.38640625 26.8984375 -16.56640625 26.8984375 C-14.39973958 32.73177083 -14.39973958 32.73177083 -11.56640625 33.8984375 C-8.68270292 33.97038619 -5.82400961 33.99135458 -2.94140625 33.9609375 C-2.13960938 33.95642578 -1.3378125 33.95191406 -0.51171875 33.94726562 C1.47008381 33.93546918 3.45184808 33.91753355 5.43359375 33.8984375 C8.43359375 40.5234375 8.43359375 40.5234375 8.43359375 43.8984375 C-0.79863305 46.32000519 -9.74966692 47.70392313 -18.5625 43.2265625 C-24.14402107 39.52730877 -27.62400404 34.2652003 -29.56640625 27.8984375 C-30.58617671 19.25871557 -28.66383918 12.70155429 -23.81640625 5.5859375 C-18.078755 -1.55456247 -8.43718517 -3.62144021 0 0 Z " fill="#2464AF" transform="translate(440.56640625,128.1015625)"/>
<path d="M0 0 C3.30193199 2.69368136 4.71943958 4.95961109 6 9 C6.13756975 11.65509615 6.19029073 14.1676475 6.125 16.8125 C6.08375 19.184375 6.0425 21.55625 6 24 C-2.91 24 -11.82 24 -21 24 C-18.83333333 29.83333333 -18.83333333 29.83333333 -16 31 C-13.11629667 31.07194869 -10.25760336 31.09291708 -7.375 31.0625 C-6.57320313 31.05798828 -5.77140625 31.05347656 -4.9453125 31.04882812 C-2.96350994 31.03703168 -0.98174567 31.01909605 1 31 C3.03435531 34.72965139 4 36.66905042 4 41 C-4.40029167 43.58470513 -13.9868989 44.77960735 -22.25390625 41.1015625 C-27.24052553 37.95564161 -30.71926499 33.00913891 -32.5234375 27.43359375 C-33.87287137 20.54263224 -34.58407044 12.75814068 -30.9375 6.5 C-22.79494504 -4.25650015 -11.78597366 -7.77713908 0 0 Z " fill="#2666B0" transform="translate(270,131)"/>
<path d="M0 0 C1.25296875 -0.00515625 2.5059375 -0.0103125 3.796875 -0.015625 C7.83967449 0.29535958 10.78330499 0.8870107 13.796875 3.6875 C17.79588244 8.88101616 18.39160898 11.6698839 18.34765625 18.1015625 C18.3462413 18.87559418 18.34482635 19.64962585 18.34336853 20.44711304 C18.33776403 22.92311442 18.32521083 25.39902588 18.3125 27.875 C18.30748558 29.55208203 18.30292257 31.22916547 18.29882812 32.90625 C18.28779315 37.02086806 18.27052554 41.13541878 18.25 45.25 C14.62 45.25 10.99 45.25 7.25 45.25 C7.2406543 44.35692139 7.23130859 43.46384277 7.22167969 42.54370117 C7.17764696 39.22764838 7.11603139 35.91289061 7.04248047 32.59741211 C7.01426818 31.16296317 6.99305476 29.72835871 6.97900391 28.29370117 C6.95757551 26.23014698 6.91093533 24.16846294 6.859375 22.10546875 C6.83842773 20.86434326 6.81748047 19.62321777 6.79589844 18.34448242 C6.51190788 15.24164738 6.51190788 15.24164738 4.64941406 13.3215332 C1.62270089 11.77427179 1.62270089 11.77427179 -4.75 12.25 C-5.08 23.47 -5.41 34.69 -5.75 46.25 C-9.38 46.25 -13.01 46.25 -16.75 46.25 C-16.75 31.73 -16.75 17.21 -16.75 2.25 C-10.48394779 0.85754395 -6.15156293 -0.02552516 0 0 Z " fill="#2163AF" transform="translate(213.75,126.75)"/>
<path d="M0 0 C2.14730896 1.76406222 3.36809365 3.70223414 4.48828125 6.22265625 C3.12703125 5.91328125 3.12703125 5.91328125 1.73828125 5.59765625 C-1.35110311 4.93122195 -1.35110311 4.93122195 -3.23046875 6.12890625 C-6.44911682 7.67209368 -9.75829447 7.94318236 -13.26171875 8.34765625 C-16.85046875 8.78078125 -16.85046875 8.78078125 -20.51171875 9.22265625 C-20.51171875 16.81265625 -20.51171875 24.40265625 -20.51171875 32.22265625 C-15.56171875 33.70765625 -15.56171875 33.70765625 -10.51171875 35.22265625 C-10.51171875 35.55265625 -10.51171875 35.88265625 -10.51171875 36.22265625 C-13.15171875 36.22265625 -15.79171875 36.22265625 -18.51171875 36.22265625 C-18.18171875 37.54265625 -17.85171875 38.86265625 -17.51171875 40.22265625 C-14.04671875 40.71765625 -14.04671875 40.71765625 -10.51171875 41.22265625 C-10.51171875 41.55265625 -10.51171875 41.88265625 -10.51171875 42.22265625 C-15.46171875 42.71765625 -15.46171875 42.71765625 -20.51171875 43.22265625 C-20.51171875 49.16265625 -20.51171875 55.10265625 -20.51171875 61.22265625 C-29.26171875 66.22265625 -29.26171875 66.22265625 -31.51171875 66.22265625 C-31.51171875 44.11265625 -31.51171875 22.00265625 -31.51171875 -0.77734375 C-8.35002752 -4.98856034 -8.35002752 -4.98856034 0 0 Z " fill="#2263AE" transform="translate(378.51171875,129.77734375)"/>
<path d="M0 0 C2.31 0 4.62 0 7 0 C10.39529225 4.0743507 11.13262443 8.37158494 11.09765625 13.546875 C11.09443359 14.39121094 11.09121094 15.23554688 11.08789062 16.10546875 C11.07951172 16.97816406 11.07113281 17.85085937 11.0625 18.75 C11.05798828 19.63816406 11.05347656 20.52632812 11.04882812 21.44140625 C11.037074 23.62767329 11.02064249 25.81380179 11 28 C13.0839403 27.88556397 15.16716493 27.75804453 17.25 27.625 C18.99023438 27.52058594 18.99023438 27.52058594 20.765625 27.4140625 C23.70694334 27.03751692 25.49949011 26.5225877 28 25 C27.67 26.32 27.34 27.64 27 29 C28.32 29 29.64 29 31 29 C31.33 28.34 31.66 27.68 32 27 C32.99 27 33.98 27 35 27 C35.99 26.67 36.98 26.34 38 26 C37.9260095 29.1076009 37.63075777 31.27573366 35.55078125 33.6640625 C29.82036218 38.71080901 25.41200998 40.26938336 17.6875 40.125 C14.3771875 40.063125 14.3771875 40.063125 11 40 C11 45.61 11 51.22 11 57 C7.37 58.98 3.74 60.96 0 63 C0 42.21 0 21.42 0 0 Z " fill="#2062AF" transform="translate(48,134)"/>
<path d="M0 0 C-1.24435774 3.44591374 -2.4160484 6.36436937 -5 9 C-7.48828125 8.99609375 -7.48828125 8.99609375 -10.3125 8.4375 C-14.27896722 7.84656169 -14.27896722 7.84656169 -18.01953125 8.92578125 C-20.62484425 11.07468906 -21.92989977 12.78969932 -23 16 C-23.53973359 21.72117607 -22.53865525 24.49625695 -19 29 C-18.505 29.495 -18.505 29.495 -18 30 C-16.10335945 29.88791238 -14.20763323 29.76020016 -12.3125 29.625 C-6.67056227 29.55094115 -6.67056227 29.55094115 -3.8359375 31.44921875 C-2.231296 33.26299599 -0.9664033 34.77679635 0 37 C-1 40 -1 40 -3.9375 41.6875 C-9.85020408 43.98216339 -15.67254136 43.67062368 -21.6875 41.9375 C-27.67129062 38.437547 -32.46141998 34.06363257 -34.5625 27.30078125 C-35.91085028 20.20990346 -36.08152521 13.16272289 -32.33203125 6.81640625 C-23.8091179 -4.80574831 -12.50200528 -7.40859572 0 0 Z " fill="#2364AF" transform="translate(128,131)"/>
<path d="M0 0 C4.99790033 3.38223806 7.98035415 7.50476414 9.19921875 13.48828125 C9.94298963 21.38369521 9.56046775 28.6609221 5.19921875 35.48828125 C0.28792022 40.43033948 -5.09223103 43.56409701 -12.11328125 43.61328125 C-13.33015625 43.57203125 -14.54703125 43.53078125 -15.80078125 43.48828125 C-15.80078125 42.82828125 -15.80078125 42.16828125 -15.80078125 41.48828125 C-17.45078125 41.15828125 -19.10078125 40.82828125 -20.80078125 40.48828125 C-20.80078125 39.82828125 -20.80078125 39.16828125 -20.80078125 38.48828125 C-22.12078125 38.15828125 -23.44078125 37.82828125 -24.80078125 37.48828125 C-25.13078125 35.83828125 -25.46078125 34.18828125 -25.80078125 32.48828125 C-25.14078125 32.48828125 -24.48078125 32.48828125 -23.80078125 32.48828125 C-23.47078125 31.82828125 -23.14078125 31.16828125 -22.80078125 30.48828125 C-22.80078125 31.14828125 -22.80078125 31.80828125 -22.80078125 32.48828125 C-20.55184171 32.59651898 -18.3014055 32.6739777 -16.05078125 32.73828125 C-14.17132813 32.80789062 -14.17132813 32.80789062 -12.25390625 32.87890625 C-8.76246096 32.78373046 -8.76246096 32.78373046 -6.41015625 30.66015625 C-3.74162462 27.05893395 -3.59082275 23.91689059 -3.48828125 19.55078125 C-3.45089844 18.51050781 -3.41351563 17.47023437 -3.375 16.3984375 C-3.90470932 12.77794716 -4.99313159 11.74957746 -7.80078125 9.48828125 C-11.48193662 7.03417767 -13.45371723 7.25540282 -17.80078125 7.48828125 C-18.79078125 7.81828125 -19.78078125 8.14828125 -20.80078125 8.48828125 C-21.79078125 7.82828125 -22.78078125 7.16828125 -23.80078125 6.48828125 C-23.80078125 5.82828125 -23.80078125 5.16828125 -23.80078125 4.48828125 C-22.48078125 3.82828125 -21.16078125 3.16828125 -19.80078125 2.48828125 C-21.45078125 2.15828125 -23.10078125 1.82828125 -24.80078125 1.48828125 C-24.47078125 0.49828125 -24.14078125 -0.49171875 -23.80078125 -1.51171875 C-15.71311176 -5.45186542 -7.61477923 -4.24371527 0 0 Z " fill="#2363AF" transform="translate(183.80078125,130.51171875)"/>
<path d="M0 0 C0.00364563 0.68016174 0.00729126 1.36032349 0.01104736 2.06109619 C0.05282558 9.13401581 0.12213871 16.20628368 0.20751953 23.27880859 C0.23576253 25.9190418 0.25696038 28.55936008 0.27099609 31.19970703 C0.29237856 34.9929572 0.33900791 38.78518079 0.390625 42.578125 C0.39185364 43.76053772 0.39308228 44.94295044 0.39434814 46.16119385 C0.41406677 47.26203308 0.4337854 48.36287231 0.45410156 49.49707031 C0.46298401 50.46525696 0.47186646 51.4334436 0.48101807 52.43096924 C1.140444 55.6952168 2.59278113 56.78560077 5 59 C5.390625 61.796875 5.390625 61.796875 5.25 64.75 C5.21390625 65.73484375 5.1778125 66.7196875 5.140625 67.734375 C5.09421875 68.48203125 5.0478125 69.2296875 5 70 C-1.83240844 70.71920089 -1.83240844 70.71920089 -5.0546875 68.734375 C-10.85690407 63.77480399 -10.85690407 63.77480399 -11.18754578 59.67388916 C-11.21548721 58.70159363 -11.24342865 57.7292981 -11.2722168 56.72753906 C-11.30441818 55.62589417 -11.33661957 54.52424927 -11.36979675 53.38922119 C-11.48037739 48.34402494 -11.56281662 43.29895437 -11.62475586 38.25292969 C-11.66044159 35.58926244 -11.72783333 32.93185184 -11.80932617 30.26855469 C-11.92479887 26.43343248 -11.97497411 22.60221203 -12.01171875 18.765625 C-12.06019455 17.57793518 -12.10867035 16.39024536 -12.15861511 15.16656494 C-12.15118733 11.81901183 -12.05737977 9.17915566 -11 6 C-8.23530902 3.4025323 -4.02782917 0 0 0 Z " fill="#2162AC" transform="translate(404,104)"/>
<path d="M0 0 C1.53333984 -0.04253906 1.53333984 -0.04253906 3.09765625 -0.0859375 C7.48997602 0.62698373 9.06786579 3.25689887 11.6875 6.625 C12.1 7.2025 12.5125 7.78 12.9375 8.375 C11.9475 8.705 10.9575 9.035 9.9375 9.375 C9.6075 10.365 9.2775 11.355 8.9375 12.375 C8.38191406 12.19453125 7.82632812 12.0140625 7.25390625 11.828125 C4.52894074 11.29507947 2.59185745 11.5840872 -0.125 12.125 C-0.98222656 12.28484375 -1.83945312 12.4446875 -2.72265625 12.609375 C-6.29901257 13.77960178 -7.54368118 15.36656739 -9.2421875 18.66796875 C-10.19268683 21.80461654 -10.25939559 24.41625071 -10.1875 27.6875 C-10.16042969 29.29044922 -10.16042969 29.29044922 -10.1328125 30.92578125 C-10.10960937 31.73402344 -10.08640625 32.54226562 -10.0625 33.375 C-10.7225 33.375 -11.3825 33.375 -12.0625 33.375 C-12.3925 34.035 -12.7225 34.695 -13.0625 35.375 C-14.0525 35.87 -14.0525 35.87 -15.0625 36.375 C-15.0625 37.365 -15.0625 38.355 -15.0625 39.375 C-17.44591898 38.42458706 -18.78638597 37.84377569 -20.109375 35.59765625 C-22.69291773 27.66043887 -23.63798705 19.08541289 -20.2421875 11.2265625 C-15.54722498 3.85764782 -8.60825811 0.10882754 0 0 Z " fill="#2363AF" transform="translate(22.0625,126.625)"/>
<path d="M0 0 C3.63 0 7.26 0 11 0 C11 14.85 11 29.7 11 45 C7.37 45 3.74 45 0 45 C0 30.15 0 15.3 0 0 Z " fill="#2263B1" transform="translate(134,128)"/>
<path d="M0 0 C5.53846154 3.07692308 5.53846154 3.07692308 7 6 C7.14851844 7.93359586 7.22130833 9.87342097 7.25 11.8125 C7.27578125 12.85019531 7.3015625 13.88789063 7.328125 14.95703125 C6.95701851 18.39860214 6.04491005 20.23540073 4 23 C0.28289437 24.85855282 -3.95277281 24.57908439 -8 24 C-11.34625024 21.47323961 -12.67977847 19.96066458 -14 16 C-14.25029686 11.49465654 -14.2536247 7.97067209 -12 4 C-8.19928608 -0.01789757 -5.45898982 -0.76617401 0 0 Z " fill="#F7FAFB" transform="translate(174,138)"/>
<path d="M0 0 C3.6578218 2.03993908 5.66946174 3.50419262 8 7 C8.49773894 12.97286724 7.75813001 16.69590383 5 22 C2.41600594 24.58399406 1.21629635 24.3268593 -2.375 24.375 C-7.58966809 24.29309422 -7.58966809 24.29309422 -10.625 22.125 C-13.89188334 17.0761803 -13.72231472 11.88843524 -13 6 C-9.24453181 0.95976638 -6.21420888 -0.59752008 0 0 Z " fill="#F7FAFB" transform="translate(480,138)"/>
<path d="M0 0 C3.98976672 3.3550311 4.59802218 5.64074394 5.0625 10.75 C4.71864134 14.66998875 3.83344125 16.9944269 1.75 20.3125 C-1.35986207 22.38574138 -2.14108387 22.58642186 -5.6875 22.5625 C-6.44933594 22.56765625 -7.21117187 22.5728125 -7.99609375 22.578125 C-10.56362335 22.27553919 -12.10211207 21.75354583 -14.25 20.3125 C-17.32329738 15.85377967 -16.7497595 10.49462161 -16.25 5.3125 C-14.9902794 2.22618454 -14.09552001 0.92477311 -11.4375 -1 C-6.96554644 -2.40547112 -4.17586219 -2.16823614 0 0 Z " fill="#F7FAFC" transform="translate(28.25,139.6875)"/>
<path d="M0 0 C12.25039333 -0.49496539 12.25039333 -0.49496539 15.86328125 1.890625 C18.88389062 4.87257941 19.19327886 6.60863392 19.3125 10.75 C19.27591415 15.80616387 18.30103114 18.21352311 15 22 C10.73840618 24.13079691 4.59236298 23.04502317 0 23 C0 15.41 0 7.82 0 0 Z " fill="#F8FAFC" transform="translate(59,139)"/>
<path d="M0 0 C12.226291 -0.49399156 12.226291 -0.49399156 15.86328125 1.828125 C18.80101066 4.81418999 18.97643024 6.6405611 19.25 10.8125 C19.198085 14.83962107 18.20212105 17.57447837 16 21 C11.0754853 24.2830098 5.82305673 23.11530805 0 23 C0 15.41 0 7.82 0 0 Z " fill="#F6F9FB" transform="translate(358,139)"/>
<path d="M0 0 C3.49003472 0.87250868 4.9458972 1.93712378 7.3125 4.6875 C10.36590701 10.42643366 9.22097875 17.75735028 9 24 C0.09 24 -8.82 24 -18 24 C-18.33 24.66 -18.66 25.32 -19 26 C-19 25.01 -19 24.02 -19 23 C-10.09 23 -1.18 23 8 23 C6.81147145 21.58225162 6.81147145 21.58225162 3.40234375 21.90234375 C1.91403133 21.9090178 0.42573568 21.92097817 -1.0625 21.9375 C-1.82111328 21.94201172 -2.57972656 21.94652344 -3.36132812 21.95117188 C-5.24091871 21.9629932 -7.12046899 21.98092922 -9 22 C-9 21.67 -9 21.34 -9 21 C-11.97 20.67 -14.94 20.34 -18 20 C-18 19.67 -18 19.34 -18 19 C-14.04 19 -10.08 19 -6 19 C-6 18.34 -6 17.68 -6 17 C-10.29 16.67 -14.58 16.34 -19 16 C-18 10 -18 10 -16.375 8.125 C-13.09774552 6.5726163 -10.58171371 6.67438966 -7 7 C-6.01 7.66 -5.02 8.32 -4 9 C-3.34 7.88625 -2.68 6.7725 -2 5.625 C-1.62875 4.99851563 -1.2575 4.37203125 -0.875 3.7265625 C0.15068348 2.02527333 0.15068348 2.02527333 0 0 Z " fill="#2E6CB4" transform="translate(442,131)"/>
<path d="M0 0 C0.99 0 1.98 0 3 0 C3.33 0.66 3.66 1.32 4 2 C4.33 1.34 4.66 0.68 5 0 C6.32 0 7.64 0 9 0 C10.93001003 15.74582439 10.93001003 15.74582439 8.0625 20.6875 C4.4310217 25.28533808 -0.50278583 28.16759528 -6 30 C-7.89470816 30.0685495 -9.7916834 30.08480372 -11.6875 30.0625 C-12.68136719 30.05347656 -13.67523438 30.04445312 -14.69921875 30.03515625 C-15.83810547 30.01775391 -15.83810547 30.01775391 -17 30 C-18.34484451 27.31031097 -17.62094799 25.8977573 -17 23 C-17 21.68 -17 20.36 -17 19 C-15.91460938 18.95101562 -14.82921875 18.90203125 -13.7109375 18.8515625 C-12.26560216 18.77648014 -10.82029081 18.70093472 -9.375 18.625 C-8.66214844 18.5940625 -7.94929688 18.563125 -7.21484375 18.53125 C-2.82070883 18.28937101 0.84322319 17.57318015 5 16 C5.33 16 5.66 16 6 16 C5.67 13.69 5.34 11.38 5 9 C3.68 9.99 2.36 10.98 1 12 C0.67 8.04 0.34 4.08 0 0 Z " fill="#1F61AE" transform="translate(33,144)"/>
<path d="M0 0 C2 1 2 1 2.61889648 2.58691406 C3.14676597 5.92929843 3.12248852 9.23577141 3.09765625 12.609375 C3.0962413 13.33618469 3.09482635 14.06299438 3.09336853 14.81182861 C3.08778792 17.12459494 3.07523904 19.43726312 3.0625 21.75 C3.05748249 23.32161318 3.05292002 24.89322789 3.04882812 26.46484375 C3.03782485 30.30993343 3.02057361 34.1549501 3 38 C-0.63 38 -4.26 38 -8 38 C-8 37.34 -8 36.68 -8 36 C-7.34 36 -6.68 36 -6 36 C-6.01571045 35.14768799 -6.0314209 34.29537598 -6.04760742 33.41723633 C-6.09888962 30.23968774 -6.13642482 27.06235087 -6.16479492 23.88452148 C-6.17983432 22.51205483 -6.20027133 21.13963586 -6.22631836 19.76733398 C-6.26291221 17.78911344 -6.27816698 15.81053486 -6.29296875 13.83203125 C-6.3086792 12.64327393 -6.32438965 11.4545166 -6.34057617 10.22973633 C-5.96374532 6.65619131 -5.15919441 4.84323932 -3 2 C-2.01 1.34 -1.02 0.68 0 0 Z " fill="#1F60AE" transform="translate(338,134)"/>
<path d="M0 0 C0.99 0.33 1.98 0.66 3 1 C3 12.22 3 23.44 3 35 C-0.3 35 -3.6 35 -7 35 C-7 25.76 -7 16.52 -7 7 C-4 6 -4 6 -3 6 C-2.814375 4.7934375 -2.814375 4.7934375 -2.625 3.5625 C-2.41875 2.716875 -2.2125 1.87125 -2 1 C-1.34 0.67 -0.68 0.34 0 0 Z " fill="#1D61AC" transform="translate(313,137)"/>
<path d="M0 0 C0.64324219 0.49113281 1.28648437 0.98226562 1.94921875 1.48828125 C6.0256226 3.50821504 9.33833557 3.33376355 13.8125 3.1875 C14.99489258 3.16719727 14.99489258 3.16719727 16.20117188 3.14648438 C18.13441169 3.11133456 20.06729682 3.05753361 22 3 C24.03435531 6.72965139 25 8.66905042 25 13 C18.38698478 15.03477391 11.91544811 15.72346226 5 15 C4.34 14.34 3.68 13.68 3 13 C3.33 12.34 3.66 11.68 4 11 C3.2575 10.7525 2.515 10.505 1.75 10.25 C-1.20124062 8.90852699 -2.84814974 7.39094474 -5 5 C-4.67 4.01 -4.34 3.02 -4 2 C-3.67 2.66 -3.34 3.32 -3 4 C-0.97536745 4.65213292 -0.97536745 4.65213292 1 5 C0.67 3.35 0.34 1.7 0 0 Z " fill="#2263B0" transform="translate(249,159)"/>
<path d="M0 0 C3.46865468 2.19681463 4.93033148 4.01305369 6 8 C5.625 10.3125 5.625 10.3125 5 12 C4.34 12 3.68 12 3 12 C-0.41073719 12.5247288 -2.05629759 13.03753173 -5 15 C-7.76655324 15.14245897 -10.42653306 15.18769445 -13.1875 15.125 C-13.93708984 15.11597656 -14.68667969 15.10695312 -15.45898438 15.09765625 C-17.30612654 15.07412578 -19.15310412 15.03825561 -21 15 C-21.2265625 9.2890625 -21.2265625 9.2890625 -19.1875 6.6875 C-15.28437118 4.62113768 -12.08438085 4.39038389 -7.71875 4.17578125 C-5.06456988 4.00417478 -2.59290959 3.5777679 0 3 C0 2.01 0 1.02 0 0 Z " fill="#306CB2" transform="translate(270,132)"/>
<path d="M0 0 C0.99 0.99 1.98 1.98 3 3 C3 6.3 3 9.6 3 13 C-5.58 13 -14.16 13 -23 13 C-23 12.67 -23 12.34 -23 12 C-21.02 11.67 -19.04 11.34 -17 11 C-19.64 10.67 -22.28 10.34 -25 10 C-23.68 9.67 -22.36 9.34 -21 9 C-21 8.34 -21 7.68 -21 7 C-22.32 6.67 -23.64 6.34 -25 6 C-23.84242188 5.96261719 -22.68484375 5.92523438 -21.4921875 5.88671875 C-19.95309439 5.82102575 -18.4140333 5.75457958 -16.875 5.6875 C-15.73417969 5.65366211 -15.73417969 5.65366211 -14.5703125 5.61914062 C-9.69049587 5.38777001 -6.29109862 4.55683672 -2 2 C-1.67 2.33 -1.34 2.66 -1 3 C-0.67 2.01 -0.34 1.02 0 0 Z " fill="#1B5FAE" transform="translate(273,141)"/>
<path d="M0 0 C0.66 0.33 1.32 0.66 2 1 C4.5921643 8.77649291 3.36478024 16.70964282 0 24 C-1.65 24 -3.3 24 -5 24 C-4.67 23.34 -4.34 22.68 -4 22 C-6.475 21.01 -6.475 21.01 -9 20 C-9 19.34 -9 18.68 -9 18 C-8.34 18 -7.68 18 -7 18 C-6.13852726 11.02238162 -6.13852726 11.02238162 -6 4 C-4.35 4 -2.7 4 -1 4 C-0.67 2.68 -0.34 1.36 0 0 Z " fill="#1F61AD" transform="translate(385,140)"/>
<path d="M0 0 C0 1.65 0 3.3 0 5 C-0.66 4.67 -1.32 4.34 -2 4 C-2 13.24 -2 22.48 -2 32 C-2.33 32 -2.66 32 -3 32 C-3.33 24.08 -3.66 16.16 -4 8 C-4.2492132 15.71795644 -4.2492132 15.71795644 -4.47802734 23.43652344 C-4.5136377 24.40106445 -4.54924805 25.36560547 -4.5859375 26.359375 C-4.6173584 27.34389648 -4.6487793 28.32841797 -4.68115234 29.34277344 C-5 32 -5 32 -7 36 C-3.7 36 -0.4 36 3 36 C3 25.11 3 14.22 3 3 C3.33 3 3.66 3 4 3 C4 14.22 4 25.44 4 37 C0.04 37 -3.92 37 -8 37 C-8.19215767 32.33732843 -8.37089491 27.6744108 -8.53710938 23.01074219 C-8.5955764 21.42368721 -8.65773514 19.83676381 -8.72363281 18.25 C-8.8176169 15.97159787 -8.89839523 13.6930552 -8.9765625 11.4140625 C-9.00875885 10.70255035 -9.0409552 9.99103821 -9.0741272 9.25796509 C-9.1276313 7.50595267 -9.07274185 5.75131916 -9 4 C-6.1329385 1.1329385 -4.08408532 0 0 0 Z " fill="#3D74B8" transform="translate(313,136)"/>
<path d="M0 0 C0.33 0 0.66 0 1 0 C1.33 1.98 1.66 3.96 2 6 C2.66 6 3.32 6 4 6 C4.33 17.88 4.66 29.76 5 42 C6.98 42.33 8.96 42.66 11 43 C11 43.33 11 43.66 11 44 C7.37 44 3.74 44 0 44 C0 29.48 0 14.96 0 0 Z " fill="#2866B0" transform="translate(281,129)"/>
<path d="M0 0 C2.375 1.625 2.375 1.625 4 4 C4.61195145 7.6717087 4.48706506 9.28813568 2.375 12.375 C0 14 0 14 -3 14.5625 C-6 14 -6 14 -8.4375 11.875 C-10 9 -10 9 -9.9375 5.875 C-8.12944906 0.33031044 -5.83514388 -0.83359198 0 0 Z " fill="#2B68B0" transform="translate(142,109)"/>
<path d="M0 0 C6.07328688 -0.50610724 9.77228537 0.95842058 15 4 C15 5.32 15 6.64 15 8 C11.39555079 9.62592002 8.43855909 10.25495442 4.5 10.4375 C0.25772719 10.74665348 -2.57472358 11.28340146 -6 14 C-5.8125 11.6875 -5.8125 11.6875 -5 9 C-2.4375 7.1875 -2.4375 7.1875 0 6 C-1.32 5.67 -2.64 5.34 -4 5 C-3.01 4.67 -2.02 4.34 -1 4 C-0.26676204 1.98491642 -0.26676204 1.98491642 0 0 Z " fill="#2061AD" transform="translate(255,127)"/>
<path d="M0 0 C0.33 0 0.66 0 1 0 C1 14.85 1 29.7 1 45 C-2.65367217 41.34632783 -2.20477606 37.13366782 -2.31640625 32.26953125 C-2.33718735 31.51911057 -2.35796844 30.76868988 -2.37937927 29.99552917 C-2.44469926 27.60127816 -2.50367792 25.20691861 -2.5625 22.8125 C-2.60570193 21.18813987 -2.64931676 19.56379067 -2.69335938 17.93945312 C-2.80036263 13.95974629 -2.90167937 9.97993042 -3 6 C-4.65 7.65 -6.3 9.3 -8 11 C-8.66 10.67 -9.32 10.34 -10 10 C-9.24172908 8.82512964 -8.46792245 7.66027408 -7.6875 6.5 C-7.25824219 5.8503125 -6.82898438 5.200625 -6.38671875 4.53125 C-5.92910156 4.0259375 -5.47148438 3.520625 -5 3 C-4.01 3 -3.02 3 -2 3 C-1.34 2.01 -0.68 1.02 0 0 Z " fill="#E5EFF5" transform="translate(133,128)"/>
<path d="M0 0 C0.33 0 0.66 0 1 0 C1 14.52 1 29.04 1 44 C0.67 44 0.34 44 0 44 C-0.33 40.04 -0.66 36.08 -1 32 C-2.32 32 -3.64 32 -5 32 C-4.83886719 31.29617187 -4.67773438 30.59234375 -4.51171875 29.8671875 C-3.19213168 22.47347065 -3.43170076 15.06282291 -6 8 C-5 7 -5 7 -2.4375 6.9375 C-1.2309375 6.9684375 -1.2309375 6.9684375 0 7 C0 4.69 0 2.38 0 0 Z " fill="#D0E0F1" transform="translate(196,129)"/>
<path d="M0 0 C2.97 0.495 2.97 0.495 6 1 C5.98839844 2.01320312 5.97679687 3.02640625 5.96484375 4.0703125 C5.95545791 5.42187314 5.94635857 6.7734358 5.9375 8.125 C5.92912109 8.79015625 5.92074219 9.4553125 5.91210938 10.140625 C5.89217708 14.20681354 6.21109839 18.0120092 7 22 C5.02 22.33 3.04 22.66 1 23 C1 26.3 1 29.6 1 33 C-2.96 33 -6.92 33 -11 33 C-11 32.67 -11 32.34 -11 32 C-7.37 32 -3.74 32 0 32 C0 21.44 0 10.88 0 0 Z " fill="#C4D4E5" transform="translate(232,140)"/>
<path d="M0 0 C0.33 0 0.66 0 1 0 C1.33 7.59 1.66 15.18 2 23 C2 19.04 2 15.08 2 11 C2.99 11 3.98 11 5 11 C4.97679687 12.16917969 4.95359375 13.33835938 4.9296875 14.54296875 C4.91092179 16.09113942 4.89272245 17.63931703 4.875 19.1875 C4.85824219 19.95642578 4.84148437 20.72535156 4.82421875 21.51757812 C4.78686388 25.86942068 5.12952411 28.98861798 7 33 C6.66641914 35.33506599 6.05310196 36.89379608 5 39 C4.34 39 3.68 39 3 39 C3 39.99 3 40.98 3 42 C2.34 42 1.68 42 1 42 C0.67 42.66 0.34 43.32 0 44 C0 29.48 0 14.96 0 0 Z " fill="#F1F7FA" transform="translate(145,129)"/>
<path d="M0 0 C0.33 0.66 0.66 1.32 1 2 C0.34 2 -0.32 2 -1 2 C-1.2165625 2.928125 -1.2165625 2.928125 -1.4375 3.875 C-2 6 -2 6 -3 8 C-3.09910002 9.37814963 -3.13827322 10.76088772 -3.14526367 12.14257812 C-3.15164352 12.99686401 -3.15802338 13.8511499 -3.16459656 14.73132324 C-3.16570938 15.65529907 -3.1668222 16.5792749 -3.16796875 17.53125 C-3.17129715 18.47810669 -3.17462555 19.42496338 -3.17805481 20.4005127 C-3.18312246 22.40453606 -3.18546319 24.40856789 -3.18530273 26.41259766 C-3.18749106 29.48744503 -3.20565354 32.56193481 -3.22460938 35.63671875 C-3.22754289 37.58072793 -3.22952797 39.52473883 -3.23046875 41.46875 C-3.23765427 42.39272583 -3.24483978 43.31670166 -3.25224304 44.26867676 C-3.24916641 45.12296265 -3.24608978 45.97724854 -3.24291992 46.85742188 C-3.24505745 47.987547 -3.24505745 47.987547 -3.24723816 49.14050293 C-3.15894137 51.24621977 -3.15894137 51.24621977 -1 53 C-1 54.32 -1 55.64 -1 57 C-2.32 57.66 -3.64 58.32 -5 59 C-5.00586624 58.35298126 -5.01173248 57.70596252 -5.01777649 57.03933716 C-5.08155918 50.32362084 -5.16593877 43.6083905 -5.26245117 36.89306641 C-5.29576863 34.38466791 -5.32377902 31.87619322 -5.34643555 29.36767578 C-5.37985599 25.76822333 -5.43216586 22.16947361 -5.48828125 18.5703125 C-5.49786613 16.87964157 -5.49786613 16.87964157 -5.50764465 15.15481567 C-5.52743881 14.11388763 -5.54723297 13.07295959 -5.56762695 12.00048828 C-5.57873001 11.08115509 -5.58983307 10.1618219 -5.60127258 9.21463013 C-5.73285263 8.48380219 -5.86443268 7.75297424 -6 7 C-6.99 6.34 -7.98 5.68 -9 5 C-6.03 3.35 -3.06 1.7 0 0 Z M-10 56 C-7.5 57.125 -7.5 57.125 -5 59 C-4.6875 62.1875 -4.6875 62.1875 -5 65 C-5.99 65 -6.98 65 -8 65 C-10.29013653 61.5647952 -10.17842973 60.014669 -10 56 Z " fill="#2161B3" transform="translate(403,104)"/>
<path d="M0 0 C0.7734375 -0.00773438 1.546875 -0.01546875 2.34375 -0.0234375 C4.5 0.375 4.5 0.375 6.28125 1.5859375 C7.5 3.375 7.5 3.375 7.5 8.375 C2.55 8.375 -2.4 8.375 -7.5 8.375 C-7.5 3.375 -7.5 3.375 -6.28125 1.5859375 C-4.04496681 0.06565726 -2.68873574 -0.02688736 0 0 Z " fill="#F8FBFA" transform="translate(256.5,137.625)"/>
<path d="M0 0 C1.98 0 3.96 0 6 0 C6.33 0.99 6.66 1.98 7 3 C7.61875 2.505 8.2375 2.01 8.875 1.5 C11 0 11 0 13 0 C15.125 6.75 15.125 6.75 14 9 C9.71230214 10.29930238 5.43489655 10.07516774 1 10 C0.67 6.7 0.34 3.4 0 0 Z " fill="#1E61AE" transform="translate(431,164)"/>
<path d="M0 0 C1.125 3.75 1.125 3.75 0 6 C0.66 6.33 1.32 6.66 2 7 C-1.465 8.485 -1.465 8.485 -5 10 C-5 10.33 -5 10.66 -5 11 C-8.375 11.125 -8.375 11.125 -12 11 C-14.5654594 8.4345406 -14.54046087 6.52313332 -15 3 C-14.01 3.495 -14.01 3.495 -13 4 C-13 4.66 -13 5.32 -13 6 C-11.02 5.67 -9.04 5.34 -7 5 C-8.98 4.34 -10.96 3.68 -13 3 C-13 2.67 -13 2.34 -13 2 C-12.22914063 1.93941406 -11.45828125 1.87882813 -10.6640625 1.81640625 C-9.15972656 1.69072266 -9.15972656 1.69072266 -7.625 1.5625 C-6.62726563 1.48128906 -5.62953125 1.40007812 -4.6015625 1.31640625 C-2.02072387 1.15034374 -2.02072387 1.15034374 0 0 Z " fill="#2162B3" transform="translate(373,160)"/>
<path d="M0 0 C1.98 0.495 1.98 0.495 4 1 C4 12.22 4 23.44 4 35 C3.34 35 2.68 35 2 35 C2 35.66 2 36.32 2 37 C5.63 37 9.26 37 13 37 C13 37.33 13 37.66 13 38 C9.04 38 5.08 38 1 38 C0.97530425 33.90658501 0.95714207 29.81319879 0.94506836 25.71972656 C0.9400357 24.32681523 0.93320902 22.9339092 0.92456055 21.54101562 C0.91244848 19.54038754 0.90729588 17.53972112 0.90234375 15.5390625 C0.89710693 14.33459473 0.89187012 13.13012695 0.88647461 11.88916016 C1 9 1 9 2 7 C1.2236068 3.9254644 1.2236068 3.9254644 -1 2 C-0.67 1.34 -0.34 0.68 0 0 Z " fill="#3E77B8" transform="translate(328,135)"/>
<path d="M0 0 C0.99 0.66 1.98 1.32 3 2 C3.33 3.98 3.66 5.96 4 8 C-0.95 8 -5.9 8 -11 8 C-11 3 -11 3 -9.4375 1.1875 C-6.12580621 -0.42588928 -3.63896583 -0.33081508 0 0 Z " fill="#F6FAF9" transform="translate(435,138)"/>
<path d="M0 0 C0.66 0 1.32 0 2 0 C2 18.81 2 37.62 2 57 C1.01 57.495 1.01 57.495 0 58 C0.33 58.66 0.66 59.32 1 60 C0.01 60 -0.98 60 -2 60 C-2.33 60.99 -2.66 61.98 -3 63 C-0.36 63 2.28 63 5 63 C3.375 64.625 3.375 64.625 1 66 C-2.25 65.1875 -2.25 65.1875 -5 64 C-4.75 60.625 -4.75 60.625 -4 57 C-2.68 56.34 -1.36 55.68 0 55 C0 36.85 0 18.7 0 0 Z " fill="#1A63B5" transform="translate(402,106)"/>
<path d="M0 0 C0 0.33 0 0.66 0 1 C-0.94875 1.20625 -1.8975 1.4125 -2.875 1.625 C-6.20655851 2.68945293 -6.20655851 2.68945293 -7.3125 5.6875 C-8.99012929 13.77062294 -9.29886345 21.69561637 -9.5625 29.9375 C-9.60568359 31.19369141 -9.64886719 32.44988281 -9.69335938 33.74414062 C-9.79893619 36.82932968 -9.90104551 39.91459263 -10 43 C-9.34 43.33 -8.68 43.66 -8 44 C-8.99 44 -9.98 44 -11 44 C-11 29.81 -11 15.62 -11 1 C-7.1273408 0.0318352 -3.96388638 -0.07622858 0 0 Z " fill="#1B5CA8" transform="translate(208,128)"/>
<path d="M0 0 C0.804375 0.309375 1.60875 0.61875 2.4375 0.9375 C6.62249087 2.18565517 10.66306101 2.6337696 15 3 C15 3.66 15 4.32 15 5 C14.31292969 4.9278125 13.62585938 4.855625 12.91796875 4.78125 C12.01691406 4.6884375 11.11585937 4.595625 10.1875 4.5 C9.29417969 4.4071875 8.40085937 4.314375 7.48046875 4.21875 C4.91694901 3.95607599 4.91694901 3.95607599 2 4 C2 6.97 2 9.94 2 13 C-1.23585361 11.38207319 -2.83246068 10.44195891 -5.25 8 C-5.77078125 7.484375 -6.2915625 6.96875 -6.828125 6.4375 C-8 5 -8 5 -8 3 C-5.83125748 3.50603992 -4.00032373 3.99983813 -2 5 C-1.34 3.35 -0.68 1.7 0 0 Z " fill="#306BB2" transform="translate(104,159)"/>
<path d="M0 0 C0.33 0 0.66 0 1 0 C1.33 1.98 1.66 3.96 2 6 C2.66 6 3.32 6 4 6 C4 19.86 4 33.72 4 48 C3.67 48 3.34 48 3 48 C3 36.78 3 25.56 3 14 C1.35 14.66 -0.3 15.32 -2 16 C-1.34 10.72 -0.68 5.44 0 0 Z " fill="#EFF4F8" transform="translate(44,146)"/>
<path d="M0 0 C1.93166016 0.01740234 1.93166016 0.01740234 3.90234375 0.03515625 C5.19269531 0.04417969 6.48304688 0.05320313 7.8125 0.0625 C8.81152344 0.07410156 9.81054688 0.08570313 10.83984375 0.09765625 C10.83984375 0.42765625 10.83984375 0.75765625 10.83984375 1.09765625 C14.79984375 1.09765625 18.75984375 1.09765625 22.83984375 1.09765625 C22.83984375 1.75765625 22.83984375 2.41765625 22.83984375 3.09765625 C13.92984375 3.09765625 5.01984375 3.09765625 -4.16015625 3.09765625 C-3.83015625 4.74765625 -3.50015625 6.39765625 -3.16015625 8.09765625 C-4.15015625 7.43765625 -5.14015625 6.77765625 -6.16015625 6.09765625 C-3.86079135 0.11930752 -3.86079135 0.11930752 0 0 Z " fill="#185CA9" transform="translate(427.16015625,150.90234375)"/>
<path d="M0 0 C3 6.625 3 6.625 3 10 C1.68 10.33 0.36 10.66 -1 11 C-1.33 10.34 -1.66 9.68 -2 9 C-1.34 9 -0.68 9 0 9 C-0.66 8.01 -1.32 7.02 -2 6 C-2 4.68 -2 3.36 -2 2 C-4.31 3.32 -6.62 4.64 -9 6 C-9.33 5.34 -9.66 4.68 -10 4 C-9.67 3.34 -9.34 2.68 -9 2 C-10.65 2 -12.3 2 -14 2 C-14 1.67 -14 1.34 -14 1 C-12.41693353 0.83081732 -10.83353281 0.66476064 -9.25 0.5 C-8.36828125 0.4071875 -7.4865625 0.314375 -6.578125 0.21875 C-4 0 -4 0 0 0 Z " fill="#3E74B3" transform="translate(446,162)"/>
<path d="M0 0 C1 3 1 3 0 7 C4.95 7 9.9 7 15 7 C14.01 7.495 14.01 7.495 13 8 C13 8.66 13 9.32 13 10 C6.565 10.495 6.565 10.495 0 11 C-1.16461426 7.50615721 -1.13568319 4.66344611 -1 1 C-0.67 0.67 -0.34 0.34 0 0 Z " fill="#1C5CAB" transform="translate(423,140)"/>
<path d="M0 0 C3.5625 0.1875 3.5625 0.1875 5.5625 2.1875 C2.9225 2.5175 0.2825 2.8475 -2.4375 3.1875 C-2.7675 13.7475 -3.0975 24.3075 -3.4375 35.1875 C-3.7675 35.1875 -4.0975 35.1875 -4.4375 35.1875 C-4.4621519 30.36369198 -4.48033693 25.53992033 -4.49243164 20.71606445 C-4.49747174 19.07380536 -4.50430378 17.43155077 -4.51293945 15.78930664 C-4.52501926 13.43374521 -4.53073139 11.07824291 -4.53515625 8.72265625 C-4.54031754 7.98410904 -4.54547882 7.24556183 -4.55079651 6.4846344 C-4.5509925 4.71851912 -4.49944719 2.95252854 -4.4375 1.1875 C-3.4375 0.1875 -3.4375 0.1875 0 0 Z " fill="#B2C9E9" transform="translate(296.4375,137.8125)"/>
<path d="M0 0 C2.97 0 5.94 0 9 0 C9 6.27 9 12.54 9 19 C8.67 19 8.34 19 8 19 C8 14.71 8 10.42 8 6 C5.36 6 2.72 6 0 6 C0 5.01 0 4.02 0 3 C2.64 3 5.28 3 8 3 C8 2.34 8 1.68 8 1 C5.36 1 2.72 1 0 1 C0 0.67 0 0.34 0 0 Z " fill="#1E5FA8" transform="translate(136,129)"/>
<path d="M0 0 C0.33 0.66 0.66 1.32 1 2 C1.99 2 2.98 2 4 2 C4 5.63 4 9.26 4 13 C2.68 13 1.36 13 0 13 C0 8.71 0 4.42 0 0 Z " fill="#F1F7FA" transform="translate(451,142)"/>
<path d="M0 0 C0.33 0 0.66 0 1 0 C1.02712351 2.39591038 1.0468982 4.79150957 1.0625 7.1875 C1.07087891 7.86103516 1.07925781 8.53457031 1.08789062 9.22851562 C1.10598722 12.93831827 1.08482915 16.43556135 0 20 C-2.5625 22.3125 -2.5625 22.3125 -5 24 C-5.66 23.67 -6.32 23.34 -7 23 C-6.38125 22.154375 -5.7625 21.30875 -5.125 20.4375 C-1.01758001 14.21105768 -0.55462136 7.25386358 0 0 Z " fill="#CDDDED" transform="translate(499,145)"/>
<path d="M0 0 C-2.46153846 5.66153846 -2.46153846 5.66153846 -5.1875 7.375 C-6.0846875 7.684375 -6.0846875 7.684375 -7 8 C-6.67 7.01 -6.34 6.02 -6 5 C-7.65 5 -9.3 5 -11 5 C-7.17906575 1.05170128 -5.52310605 -0.1453449 0 0 Z " fill="#2D6BB2" transform="translate(473,128)"/>
<path d="M0 0 C0.99 0 1.98 0 3 0 C5.03435531 3.72965139 6 5.66905042 6 10 C3.69 10.33 1.38 10.66 -1 11 C-0.34 10.34 0.32 9.68 1 9 C0.01 8.34 -0.98 7.68 -2 7 C-0.68 6.34 0.64 5.68 2 5 C2 3.68 2 2.36 2 1 C1.34 0.67 0.68 0.34 0 0 Z " fill="#376FAE" transform="translate(268,162)"/>
<path d="M0 0 C0.7425 0.45375 1.485 0.9075 2.25 1.375 C4.46930578 2.68640796 6.67967822 3.88280803 9 5 C5.35544334 6.60789264 1.99380545 7.73953443 -2 8 C-3.875 6.5625 -3.875 6.5625 -5 5 C-4.67 4.01 -4.34 3.02 -4 2 C-3.67 2.66 -3.34 3.32 -3 4 C-0.97536745 4.65213292 -0.97536745 4.65213292 1 5 C0.67 3.35 0.34 1.7 0 0 Z " fill="#215FA7" transform="translate(249,159)"/>
<path d="M0 0 C0.33 0 0.66 0 1 0 C1.66 5.28 2.32 10.56 3 16 C1.02 16.33 -0.96 16.66 -3 17 C-2.125 11.125 -2.125 11.125 -1 10 C-0.76712992 8.31816052 -0.58735834 6.6287584 -0.4375 4.9375 C-0.31181641 3.55884766 -0.31181641 3.55884766 -0.18359375 2.15234375 C-0.12300781 1.44207031 -0.06242188 0.73179687 0 0 Z " fill="#D7E3F1" transform="translate(236,146)"/>
<path d="M0 0 C-0.33 1.32 -0.66 2.64 -1 4 C0.32 4.33 1.64 4.66 3 5 C-0.63 5 -4.26 5 -8 5 C-7.67 4.01 -7.34 3.02 -7 2 C-7.66 1.67 -8.32 1.34 -9 1 C-5.8035914 -0.06546953 -3.34252724 -0.07427838 0 0 Z " fill="#F4F8F9" transform="translate(142,123)"/>
<path d="M0 0 C0.33 0 0.66 0 1 0 C2.97094808 4.92737019 3.1799928 8.78020872 3 14 C1.35 14 -0.3 14 -2 14 C-1.34 9.38 -0.68 4.76 0 0 Z " fill="#EBF3F9" transform="translate(193,147)"/>
<path d="M0 0 C1.125 3.75 1.125 3.75 0 6 C0.66 6.33 1.32 6.66 2 7 C0.35 7.33 -1.3 7.66 -3 8 C-2.67 6.68 -2.34 5.36 -2 4 C-5.63 3.67 -9.26 3.34 -13 3 C-13 2.67 -13 2.34 -13 2 C-12.22914063 1.93941406 -11.45828125 1.87882813 -10.6640625 1.81640625 C-9.15972656 1.69072266 -9.15972656 1.69072266 -7.625 1.5625 C-6.62726563 1.48128906 -5.62953125 1.40007812 -4.6015625 1.31640625 C-2.02072387 1.15034374 -2.02072387 1.15034374 0 0 Z " fill="#4179B7" transform="translate(373,160)"/>
<path d="M0 0 C0 4.29908251 -1.7148681 6.37067287 -4 10 C-4.99 10.495 -4.99 10.495 -6 11 C-6 12.65 -6 14.3 -6 16 C-6.66 16 -7.32 16 -8 16 C-7.45251869 9.15648361 -5.10328336 4.59295503 0 0 Z " fill="#3E72B1" transform="translate(245,131)"/>
<path d="M0 0 C2 1 2 1 3 3 C2.67 3.66 2.34 4.32 2 5 C0.68 5 -0.64 5 -2 5 C-2 6.32 -2 7.64 -2 9 C-3.32 8.67 -4.64 8.34 -6 8 C-4.55746343 4.63408134 -2.66735273 2.48952921 0 0 Z " fill="#316CB0" transform="translate(9,130)"/>
<path d="M0 0 C0.33 0.99 0.66 1.98 1 3 C1.66 3 2.32 3 3 3 C2.125 7.75 2.125 7.75 1 10 C1.66 10 2.32 10 3 10 C2.34 11.32 1.68 12.64 1 14 C-1.33214424 10.35602463 -1.23164058 7.24674388 -1 3 C-0.67 2.01 -0.34 1.02 0 0 Z " fill="#D4E2EE" transform="translate(105,144)"/>
<path d="M0 0 C-2 2 -2 2 -5 3 C-4.67 3.66 -4.34 4.32 -4 5 C-4.99 5 -5.98 5 -7 5 C-7 4.34 -7 3.68 -7 3 C-7.99 3 -8.98 3 -10 3 C-10 2.34 -10 1.68 -10 1 C-10.99 0.67 -11.98 0.34 -13 0 C-11.20909747 -0.19466332 -9.41723495 -0.38051213 -7.625 -0.5625 C-6.12839844 -0.71912109 -6.12839844 -0.71912109 -4.6015625 -0.87890625 C-2 -1 -2 -1 0 0 Z " fill="#457ABC" transform="translate(74,162)"/>
<path d="M0 0 C0.33 0 0.66 0 1 0 C1.12375 0.94875 1.2475 1.8975 1.375 2.875 C1.71687177 6.08667191 1.71687177 6.08667191 4 8 C4.1953125 10.1640625 4.1953125 10.1640625 4.125 12.625 C4.10695313 13.44226563 4.08890625 14.25953125 4.0703125 15.1015625 C4.03550781 16.04128906 4.03550781 16.04128906 4 17 C1.0873376 14.0873376 0.07828858 11.59757636 -0.125 7.44921875 C-0.125 4.96300279 -0.08684024 2.48459582 0 0 Z " fill="#4177B9" transform="translate(411,146)"/>
<path d="M0 0 C4.51478398 0.53115106 7.34666857 2.36620292 11 5 C8.83032311 5.95465783 7.43671207 6.14401212 5.17578125 5.3984375 C3.4315257 4.64129615 1.71372869 3.82390802 0 3 C0 2.01 0 1.02 0 0 Z " fill="#316EB6" transform="translate(464,168)"/>
<path d="M0 0 C0.33 0.66 0.66 1.32 1 2 C0.34 2 -0.32 2 -1 2 C-1.2165625 2.928125 -1.2165625 2.928125 -1.4375 3.875 C-2 6 -2 6 -3 8 C-4.98 7.34 -6.96 6.68 -9 6 C-6.11912454 3.59927045 -3.43595166 1.52708963 0 0 Z " fill="#366DB3" transform="translate(403,104)"/>
<path d="M0 0 C2.64 0 5.28 0 8 0 C8.33 0.99 8.66 1.98 9 3 C4.38 3 -0.24 3 -5 3 C-5 2.67 -5 2.34 -5 2 C-3.35 2 -1.7 2 0 2 C0 1.34 0 0.68 0 0 Z " fill="#336CB4" transform="translate(64,171)"/>
<path d="M0 0 C0.66 0.33 1.32 0.66 2 1 C2.59355614 3.64860427 2.74209269 6.29197322 3 9 C2.01 9.33 1.02 9.66 0 10 C-0.95024979 6.30458414 -0.95024979 3.69541586 0 0 Z " fill="#2B69AF" transform="translate(338,134)"/>
<path d="M0 0 C6.57142857 4 6.57142857 4 8 8 C7.01 8 6.02 8 5 8 C5 7.34 5 6.68 5 6 C3.35 5.67 1.7 5.34 0 5 C-0.33 4.01 -0.66 3.02 -1 2 C-0.67 1.34 -0.34 0.68 0 0 Z " fill="#2E6AB1" transform="translate(182,130)"/>
<path d="M0 0 C-0.33 1.32 -0.66 2.64 -1 4 C-3.875 4.625 -3.875 4.625 -7 5 C-7.66 4.34 -8.32 3.68 -9 3 C-2.25 0 -2.25 0 0 0 Z " fill="#2F6AB1" transform="translate(255,127)"/>
<path d="M0 0 C-0.33 0.99 -0.66 1.98 -1 3 C-4.63 3 -8.26 3 -12 3 C-8.52582963 0.68388642 -4.04642977 -2.02321489 0 0 Z " fill="#2A65B3" transform="translate(28,171)"/>
<path d="M0 0 C0.99 0.33 1.98 0.66 3 1 C3.33 2.98 3.66 4.96 4 7 C2.68 7.33 1.36 7.66 0 8 C-0.33 7.34 -0.66 6.68 -1 6 C-0.34 6 0.32 6 1 6 C0.34 4.35 -0.32 2.7 -1 1 C-0.67 0.67 -0.34 0.34 0 0 Z " fill="#306BB0" transform="translate(445,165)"/>
<path d="M0 0 C1.485 0.99 1.485 0.99 3 2 C3.66 1.67 4.32 1.34 5 1 C5.66 1.33 6.32 1.66 7 2 C6.34 3.32 5.68 4.64 5 6 C3.35 5.67 1.7 5.34 0 5 C-0.5625 3.0625 -0.5625 3.0625 -1 1 C-0.67 0.67 -0.34 0.34 0 0 Z " fill="#1E60A9" transform="translate(121,129)"/>
<path d="M0 0 C1.65 0 3.3 0 5 0 C5.33 0.66 5.66 1.32 6 2 C8.02463255 2.65213292 8.02463255 2.65213292 10 3 C10 3.66 10 4.32 10 5 C6.28111761 4.49287967 3.26545761 3.88391785 0 2 C0 1.34 0 0.68 0 0 Z " fill="#346CAF" transform="translate(158,169)"/>
<path d="M0 0 C2 2 2 2 2 5 C0.35 4.67 -1.3 4.34 -3 4 C-3 3.34 -3 2.68 -3 2 C-4.98 2 -6.96 2 -9 2 C-9 1.67 -9 1.34 -9 1 C-7.54364629 0.77825067 -6.08477044 0.57301302 -4.625 0.375 C-3.40683594 0.20097656 -3.40683594 0.20097656 -2.1640625 0.0234375 C-1.44992187 0.01570312 -0.73578125 0.00796875 0 0 Z " fill="#4179BB" transform="translate(483,161)"/>
<path d="M0 0 C0.33 0 0.66 0 1 0 C1 1.98 1 3.96 1 6 C1.66 6 2.32 6 3 6 C3.33 5.01 3.66 4.02 4 3 C4 4.98 4 6.96 4 9 C2.68 9 1.36 9 0 9 C0 6.03 0 3.06 0 0 Z " fill="#E2EBF4" transform="translate(89,146)"/>
<path d="M0 0 C0.99 0 1.98 0 3 0 C3 2.64 3 5.28 3 8 C2.34 8 1.68 8 1 8 C0.34 5.69 -0.32 3.38 -1 1 C-0.67 0.67 -0.34 0.34 0 0 Z " fill="#EDF3F6" transform="translate(191,136)"/>
<path d="M0 0 C1.23556641 0.01740234 1.23556641 0.01740234 2.49609375 0.03515625 C3.32238281 0.04417969 4.14867187 0.05320313 5 0.0625 C5.63808594 0.07410156 6.27617187 0.08570313 6.93359375 0.09765625 C6.93359375 0.42765625 6.93359375 0.75765625 6.93359375 1.09765625 C5.65484375 1.18015625 4.37609375 1.26265625 3.05859375 1.34765625 C0.88025957 1.55635556 0.88025957 1.55635556 -1.06640625 2.09765625 C-2.65634955 4.01830418 -2.65634955 4.01830418 -3.06640625 6.09765625 C-3.72640625 5.76765625 -4.38640625 5.43765625 -5.06640625 5.09765625 C-2.6606399 0.12573913 -2.6606399 0.12573913 0 0 Z " fill="#DBE8F2" transform="translate(254.06640625,137.90234375)"/>
<path d="M0 0 C1.65 0 3.3 0 5 0 C5 0.66 5 1.32 5 2 C5.99 2.33 6.98 2.66 8 3 C5.36 3.33 2.72 3.66 0 4 C0 2.68 0 1.36 0 0 Z " fill="#1E5FAA" transform="translate(48,129)"/>
<path d="M0 0 C2.0625 1.6875 2.0625 1.6875 4 4 C3.75 6.75 3.75 6.75 3 9 C1.5 7.875 1.5 7.875 0 6 C-0.1875 2.8125 -0.1875 2.8125 0 0 Z " fill="#356DB6" transform="translate(393,160)"/>
<path d="M0 0 C0.33 0 0.66 0 1 0 C1.08153933 1.58246707 1.13943557 3.16616273 1.1875 4.75 C1.23970703 6.07257813 1.23970703 6.07257813 1.29296875 7.421875 C0.94923684 10.44671583 -0.00227459 11.75583602 -2 14 C-2 11.69 -2 9.38 -2 7 C-1.34 7 -0.68 7 0 7 C0 4.69 0 2.38 0 0 Z " fill="#C8DBF1" transform="translate(77,145)"/>
<path d="M0 0 C0.99 0 1.98 0 3 0 C2.67 4.95 2.34 9.9 2 15 C1.67 15 1.34 15 1 15 C0.67 10.05 0.34 5.1 0 0 Z " fill="#E2EFF8" transform="translate(147,140)"/>
<path d="M0 0 C0.66 0.66 1.32 1.32 2 2 C1.34 3.98 0.68 5.96 0 8 C-0.66 8 -1.32 8 -2 8 C-2.33 8.66 -2.66 9.32 -3 10 C-3.66 9.67 -4.32 9.34 -5 9 C-4 6 -4 6 -1 4 C-0.27617533 1.94074861 -0.27617533 1.94074861 0 0 Z " fill="#1E5FAA" transform="translate(465,156)"/>
<path d="M0 0 C2.31 0.33 4.62 0.66 7 1 C6.67 1.99 6.34 2.98 6 4 C4.02 3.34 2.04 2.68 0 2 C0 1.34 0 0.68 0 0 Z " fill="#326DB3" transform="translate(246,169)"/>
<path d="M0 0 C0.66 1.32 1.32 2.64 2 4 C0.02 4.99 0.02 4.99 -2 6 C-2.66 5.34 -3.32 4.68 -4 4 C-2.68 2.68 -1.36 1.36 0 0 Z " fill="#E1EDF0" transform="translate(84,166)"/>
<path d="M0 0 C3 3 3 3 3.1875 5.6875 C3.0946875 6.8321875 3.0946875 6.8321875 3 8 C2.01 8.33 1.02 8.66 0 9 C0 6.03 0 3.06 0 0 Z " fill="#E2EDF6" transform="translate(451,146)"/>
<path d="M0 0 C1.76462683 3.08809695 2 4.23312136 2 8 C1.01 7.67 0.02 7.34 -1 7 C-1.33 6.34 -1.66 5.68 -2 5 C-1.0625 2.375 -1.0625 2.375 0 0 Z " fill="#DEE7F0" transform="translate(386,160)"/>
<path d="M0 0 C3.375 -0.125 3.375 -0.125 7 0 C7.66 0.66 8.32 1.32 9 2 C4.545 2.495 4.545 2.495 0 3 C0 2.01 0 1.02 0 0 Z " fill="#D1E0F0" transform="translate(293,138)"/>
<path d="M0 0 C2.31 0 4.62 0 7 0 C7.33 0.66 7.66 1.32 8 2 C3.545 2.495 3.545 2.495 -1 3 C-0.67 2.01 -0.34 1.02 0 0 Z " fill="#D2E2F1" transform="translate(167,138)"/>
<path d="M0 0 C1.98 1.65 3.96 3.3 6 5 C4.68 5.33 3.36 5.66 2 6 C2 5.34 2 4.68 2 4 C1.34 4 0.68 4 0 4 C0 2.68 0 1.36 0 0 Z " fill="#DDECF5" transform="translate(96,164)"/>
<path d="M0 0 C0.33 0.99 0.66 1.98 1 3 C-0.4375 5.6875 -0.4375 5.6875 -2 8 C-2.6875 6.25 -2.6875 6.25 -3 4 C-1.5625 1.75 -1.5625 1.75 0 0 Z " fill="#D6E6F2" transform="translate(470,140)"/>
<path d="M0 0 C2.97 0.495 2.97 0.495 6 1 C5.67 2.65 5.34 4.3 5 6 C4.67 5.34 4.34 4.68 4 4 C2.68 4 1.36 4 0 4 C0 2.68 0 1.36 0 0 Z " fill="#EAF1F7" transform="translate(232,140)"/>
<path d="M0 0 C0 3.99904969 -1.72586967 5.80200422 -4 9 C-4.8125 7.3125 -4.8125 7.3125 -5 5 C-2.5625 2.25 -2.5625 2.25 0 0 Z " fill="#3169AF" transform="translate(245,131)"/>
<path d="M0 0 C1.98 0 3.96 0 6 0 C4.515 2.475 4.515 2.475 3 5 C2.01 4.67 1.02 4.34 0 4 C0 2.68 0 1.36 0 0 Z " fill="#4174B9" transform="translate(120,135)"/>
</svg>
