
<svg version="1.1" xmlns="http://www.w3.org/2000/svg" width="225" height="225" viewBox="0 0 225 225" preserveAspectRatio="xMidYMid meet">
<path d="M0 0 C74.25 0 148.5 0 225 0 C225 74.25 225 148.5 225 225 C150.75 225 76.5 225 0 225 C0 150.75 0 76.5 0 0 Z " fill="#E3122F" transform="translate(0,0)" />
<path d="M0 0 C74.25 0 148.5 0 225 0 C225 74.25 225 148.5 225 225 C150.75 225 76.5 225 0 225 C0 150.75 0 76.5 0 0 Z M48.14453125 23.03515625 C45.68824011 24.95068252 43.33941961 26.94402543 41 29 C40.18273438 29.67417969 39.36546875 30.34835938 38.5234375 31.04296875 C27.42820949 40.47219503 19.62987535 52.16890503 13 65 C12.1646875 66.61261719 12.1646875 66.61261719 11.3125 68.2578125 C2.01584037 87.92024762 0.79111959 110.92070267 4.03173828 132.18896484 C7.96558504 154.22917197 18.48587744 173.03125113 34 189 C34.93199219 190.02480469 34.93199219 190.02480469 35.8828125 191.0703125 C49.43469631 205.5294354 69.28211952 215.09392157 88.41479492 219.56420898 C111.50939258 224.29762283 134.90107892 221.2982702 156.3515625 212.109375 C166.25772213 207.70219377 174.75829794 202.04532596 183 195 C183.79921875 194.35804688 184.5984375 193.71609375 185.421875 193.0546875 C201.90325288 179.25022131 212.27887436 159.48625292 218 139 C218.44472656 137.64455078 218.44472656 137.64455078 218.8984375 136.26171875 C224.34516918 117.39803793 221.84941686 95.400502 215.71484375 76.9921875 C210.03715846 61.84114989 201.94984483 48.85140392 191 37 C190.01773438 35.89591797 190.01773438 35.89591797 189.015625 34.76953125 C175.14389669 19.91966825 156.32030211 11.18876883 137 6 C135.90816406 5.6803125 134.81632813 5.360625 133.69140625 5.03125 C104.56261631 -2.52195363 72.25956005 5.8478375 48.14453125 23.03515625 Z " fill="#FEFDFD" transform="translate(0,0)" />
<path d="M0 0 C0.78656982 -0.0012085 1.57313965 -0.00241699 2.38354492 -0.00366211 C8.72488838 0.1718925 13.38042037 1.82473711 18.83203125 5.15234375 C21.58498019 6.88924444 21.58498019 6.88924444 26.3125 7.5625 C26.3125 23.7325 26.3125 39.9025 26.3125 56.5625 C25.3225 56.8925 24.3325 57.2225 23.3125 57.5625 C22.9825 58.5525 22.6525 59.5425 22.3125 60.5625 C19.765625 62.1328125 19.765625 62.1328125 16.5625 63.6875 C15.51578125 64.20570313 14.4690625 64.72390625 13.390625 65.2578125 C6.65506161 68.11273404 -0.46639453 68.42580535 -7.6875 67.5625 C-14.70372243 65.04322481 -21.83438783 61.3688409 -26.3828125 55.30078125 C-30.97694408 47.50582028 -34.36432649 40.38864185 -34.03515625 31.171875 C-33.04879117 23.76859556 -30.08799538 17.12264924 -25.38671875 11.34375 C-18.22080603 3.83189667 -10.34671142 -0.02769759 0 0 Z " fill="#E31330" transform="translate(115.6875,78.4375)" />
<path d="M0 0 C24 0 24 0 32 4 C34.4609375 6.18359375 34.4609375 6.18359375 36.375 8.4375 C37.34566406 9.54931641 37.34566406 9.54931641 38.3359375 10.68359375 C41.33788073 14.8623551 42.28458297 18.46635659 42.48242188 23.62158203 C42.53262388 29.52171269 42.46078198 34.33903869 39.5 39.625 C35.82095631 44.79131667 31.33380499 48.3499349 25.6796875 51.1484375 C20.59215601 52.76517491 15.28838238 52.10683601 10 52 C10 56.95 10 61.9 10 67 C6.7 67 3.4 67 0 67 C0 44.89 0 22.78 0 0 Z " fill="#FBF7F7" transform="translate(35,79)" />
<path d="M0 0 C3.3 0 6.6 0 10 0 C10 13.53 10 27.06 10 41 C18.58 41 27.16 41 36 41 C36 27.47 36 13.94 36 0 C39.3 0 42.6 0 46 0 C46 22.44 46 44.88 46 68 C43.03 68 40.06 68 37 68 C37 62.06 37 56.12 37 50 C27.76 50 18.52 50 9 50 C9 55.94 9 61.88 9 68 C6.03 68 3.06 68 0 68 C0 45.56 0 23.12 0 0 Z " fill="#FAF2F3" transform="translate(144,78)" />
<path d="M0 0 C1.1765918 0.0014502 1.1765918 0.0014502 2.37695312 0.00292969 C8.70695303 0.19215573 13.54739519 1.79169236 19.125 4.859375 C21.39454588 6.62637857 22.29535604 7.90405557 23.3125 10.5625 C21.6625 12.2125 20.0125 13.8625 18.3125 15.5625 C16.29771761 14.55962626 14.2908227 13.55094439 12.3046875 12.4921875 C7.45876138 10.07816526 3.29955515 8.85922172 -2.140625 9.12109375 C-7.84848962 10.11034023 -12.51210976 12.60424668 -16.80078125 16.46484375 C-20.23601465 20.17034396 -22.7761294 23.49932998 -23.6875 28.5625 C-24.2850159 35.11304463 -23.81081722 40.70786083 -20.6875 46.5625 C-17.65009594 51.11860609 -14.29893356 54.12686304 -9.41015625 56.640625 C-3.8962321 58.50760649 1.60117673 58.41591612 7.3125 57.5625 C10.62922747 56.2662049 13.45468505 54.67939997 16.3125 52.5625 C19.1730891 53.92187085 21.17177699 55.20770469 23.3125 57.5625 C22.9825 58.5525 22.6525 59.5425 22.3125 60.5625 C19.765625 62.1328125 19.765625 62.1328125 16.5625 63.6875 C15.51578125 64.20570313 14.4690625 64.72390625 13.390625 65.2578125 C6.65506161 68.11273404 -0.46639453 68.42580535 -7.6875 67.5625 C-14.70372243 65.04322481 -21.83438783 61.3688409 -26.3828125 55.30078125 C-30.97694408 47.50582028 -34.36432649 40.38864185 -34.03515625 31.171875 C-33.04879117 23.76859556 -30.08799538 17.12264924 -25.38671875 11.34375 C-18.22240699 3.83357491 -10.34579401 -0.03102852 0 0 Z " fill="#FBF6F7" transform="translate(115.6875,78.4375)" />
<path d="M0 0 C10 0 10 0 13.25 1.0625 C16.79244543 3.55831383 19.52087974 6.44686348 22 10 C23.21601706 13.64805118 23.3153117 16.15319721 23 20 C21.54025746 24.25229349 19.70068821 27.3334917 16.4375 30.4375 C10.62953611 34.16055377 8.0563763 33 0 33 C0 22.11 0 11.22 0 0 Z " fill="#E2122F" transform="translate(45,88)" />
<path d="M0 0 C0.33 0 0.66 0 1 0 C1.33 6.93 1.66 13.86 2 21 C1.01 21.33 0.02 21.66 -1 22 C-2.15243755 18.54268736 -2.16824837 15.76740787 -2.1875 12.125 C-2.20167969 10.91070312 -2.21585937 9.69640625 -2.23046875 8.4453125 C-2.01047255 5.15655579 -1.41715618 2.94634052 0 0 Z " fill="#F6E9EA" transform="translate(2,107)" />
<path d="M0 0 C0.66 0.33 1.32 0.66 2 1 C0.71520959 2.50589388 -0.57804082 4.00457375 -1.875 5.5 C-2.95394531 6.75296875 -2.95394531 6.75296875 -4.0546875 8.03125 C-4.69664063 8.6809375 -5.33859375 9.330625 -6 10 C-6.66 10 -7.32 10 -8 10 C-6.34908222 5.70761377 -3.26245434 3.1206085 0 0 Z " fill="#DF2D45" transform="translate(38,31)" />
<path d="M0 0 C0.33 1.32 0.66 2.64 1 4 C0.34 4 -0.32 4 -1 4 C-1.33 4.99 -1.66 5.98 -2 7 C-2.66 7 -3.32 7 -4 7 C-2.92598892 4.08482708 -2.22189824 2.22189824 0 0 Z " fill="#DC1A35" transform="translate(25,46)" />
</svg>
