
<svg version="1.1" xmlns="http://www.w3.org/2000/svg" width="227" height="227" viewBox="0 0 227 227" preserveAspectRatio="xMidYMid meet">
<path d="M0 0 C7.40140912 -0.1735182 14.80162503 -0.30029844 22.20458984 -0.38452148 C24.72075026 -0.4196435 27.23676863 -0.46735304 29.75244141 -0.52807617 C33.3769846 -0.61335111 36.99963394 -0.65277338 40.625 -0.68359375 C41.74302002 -0.71972275 42.86104004 -0.75585175 44.01293945 -0.79307556 C51.66677212 -0.79689143 51.66677212 -0.79689143 55.32740784 1.39112854 C57.37542407 3.15434496 59.18633427 4.99841901 61 7 C62.05734968 8.02454438 63.11950546 9.04416087 64.18725586 10.05786133 C65.19908794 11.06327195 66.20824711 12.07137904 67.21484375 13.08203125 C67.75605362 13.62228439 68.29726349 14.16253754 68.85487366 14.71916199 C69.98105459 15.84467029 71.10600561 16.97141057 72.22973633 18.09936523 C73.95474713 19.82980137 75.68512428 21.5547449 77.41601562 23.27929688 C78.51594633 24.37988729 79.61556738 25.48078728 80.71484375 26.58203125 C81.23143051 27.09659378 81.74801727 27.61115631 82.28025818 28.14131165 C85.88499402 31.76998804 85.88499402 31.76998804 87 34 C87.09051069 35.69543591 87.11754872 37.39443978 87.11352539 39.09228516 C87.11341209 40.68370834 87.11341209 40.68370834 87.11329651 42.30728149 C87.10813522 43.45626923 87.10297394 44.60525696 87.09765625 45.7890625 C87.0962413 46.96262299 87.09482635 48.13618347 87.09336853 49.3453064 C87.08775689 53.10522985 87.07520238 56.86509445 87.0625 60.625 C87.0574865 63.16926998 87.05292333 65.71354088 87.04882812 68.2578125 C87.03778367 74.50523112 87.02051119 80.75260557 87 87 C80.4 87 73.8 87 67 87 C66.98541748 85.29948486 66.97083496 83.59896973 66.95581055 81.84692383 C66.90409658 76.21891818 66.83879392 70.59117922 66.76428509 64.96342945 C66.71961929 61.55238536 66.68035533 58.14145964 66.65356445 54.73022461 C66.62250194 50.80556851 66.56771382 46.88141399 66.51171875 42.95703125 C66.50532883 41.73603226 66.4989389 40.51503326 66.49235535 39.2570343 C66.47256119 38.1162291 66.45276703 36.97542389 66.43237305 35.80004883 C66.42126999 34.79855301 66.41016693 33.79705719 66.39872742 32.76521301 C65.93758911 29.56717447 64.74700388 27.68340361 63 25 C63 24.34 63 23.68 63 23 C59.2340221 21.26859957 56.24114488 20.73517836 52.1081543 20.68115234 C50.36691536 20.65134781 50.36691536 20.65134781 48.59049988 20.62094116 C47.34762711 20.60938995 46.10475433 20.59783875 44.82421875 20.5859375 C43.54392288 20.56657135 42.26362701 20.5472052 40.9445343 20.5272522 C37.5531222 20.47606052 34.16167055 20.43636593 30.77008057 20.39910889 C27.3043042 20.35898751 23.83869052 20.30793242 20.37304688 20.2578125 C13.58212718 20.16181842 6.79115192 20.0777649 0 20 C0 13.4 0 6.8 0 0 Z " fill="#2074D9" transform="translate(22,34)" />
<path d="M0 0 C1.59142319 0.0001133 1.59142319 0.0001133 3.21499634 0.00022888 C4.93847794 0.00797081 4.93847794 0.00797081 6.69677734 0.01586914 C7.87033783 0.01728409 9.04389832 0.01869904 10.25302124 0.02015686 C14.0129447 0.0257685 17.77280929 0.03832301 21.53271484 0.05102539 C24.07698482 0.05603889 26.62125572 0.06060206 29.16552734 0.06469727 C35.41294597 0.07574172 41.66032042 0.0930142 47.90771484 0.11352539 C47.90771484 6.71352539 47.90771484 13.31352539 47.90771484 20.11352539 C46.18214355 20.12287109 44.45657227 20.1322168 42.67871094 20.1418457 C36.96286328 20.1774371 31.24738021 20.23127546 25.53180504 20.29742813 C22.06805973 20.33685534 18.6045668 20.3690666 15.140625 20.38452148 C11.15380548 20.40263092 7.16768528 20.45260351 3.18115234 20.50415039 C1.94344086 20.50537903 0.70572937 20.50660767 -0.56948853 20.50787354 C-7.48147906 20.47788689 -7.48147906 20.47788689 -13.796875 22.90161133 C-16.03594475 25.05923438 -16.97234644 26.27312372 -18.09228516 29.11352539 C-18.41816079 31.86011664 -18.41816079 31.86011664 -18.41113281 34.8918457 C-18.4310025 36.05274719 -18.45087219 37.21364868 -18.47134399 38.409729 C-18.48867081 40.28178009 -18.48867081 40.28178009 -18.50634766 42.19165039 C-18.52571381 43.47336121 -18.54507996 44.75507202 -18.56503296 46.07562256 C-18.61629143 49.47526904 -18.65595045 52.87495504 -18.69317627 56.27478027 C-18.73325557 59.74716926 -18.78432993 63.21939472 -18.83447266 66.69165039 C-18.93115738 73.49882913 -19.0145691 80.30610393 -19.09228516 87.11352539 C-25.69228516 87.11352539 -32.29228516 87.11352539 -39.09228516 87.11352539 C-39.26580335 79.71211627 -39.3925836 72.31190037 -39.47680664 64.90893555 C-39.51192865 62.39277513 -39.55963819 59.87675676 -39.62036133 57.36108398 C-39.70563627 53.73654079 -39.74505853 50.11389145 -39.77587891 46.48852539 C-39.8120079 45.37050537 -39.8481369 44.25248535 -39.88536072 43.10058594 C-39.88917659 35.44675327 -39.88917659 35.44675327 -37.70115662 31.78611755 C-35.93794019 29.73810132 -34.09386614 27.92719112 -32.09228516 26.11352539 C-31.06774077 25.05617571 -30.04812429 23.99401993 -29.03442383 22.92626953 C-28.02901321 21.91443745 -27.02090611 20.90527828 -26.01025391 19.89868164 C-25.19987419 19.08686684 -25.19987419 19.08686684 -24.37312317 18.25865173 C-23.24761486 17.1324708 -22.12087458 16.00751978 -20.99291992 14.88378906 C-19.26248379 13.15877827 -17.53754026 11.42840111 -15.81298828 9.69750977 C-14.71239787 8.59757906 -13.61149787 7.49795801 -12.51025391 6.39868164 C-11.99569138 5.88209488 -11.48112885 5.36550812 -10.95097351 4.83326721 C-7.0950088 1.00274261 -5.39096619 -0.0127748 0 0 Z " fill="#2074D9" transform="translate(157.09228515625,33.886474609375)" />
<path d="M0 0 C1.98 0 3.96 0 6 0 C6 13.2 6 26.4 6 40 C4.02 40 2.04 40 0 40 C0 39.34 0 38.68 0 38 C-0.99 38.66 -1.98 39.32 -3 40 C-6.37393778 40.49179432 -9.62131695 40.4425751 -13 40 C-15.87376753 38.32363561 -17.36288777 37.02570551 -19.1015625 34.2265625 C-20.92452671 29.70878164 -20.52312808 24.77194881 -20 20 C-18.79228829 16.73793332 -16.9730629 14.73818564 -14.1875 12.625 C-11.0253231 11.72152088 -8.26993091 11.76643351 -5 12 C-3.68 12.66 -2.36 13.32 -1 14 C-0.67 9.38 -0.34 4.76 0 0 Z M-11.875 18.3125 C-14.03299857 21.54949786 -14.28199175 24.05295395 -14.2109375 27.9609375 C-14.06824695 30.20241767 -14.06824695 30.20241767 -12.875 32.9375 C-11.08138552 35.29091363 -11.08138552 35.29091363 -7.8125 35.8125 C-6.4203125 35.9053125 -6.4203125 35.9053125 -5 36 C-3.06290894 34.01448166 -1.46691522 32.32261577 0 30 C0.54218582 26.136926 0.28439359 23.76953559 -1.0625 20.125 C-2.9479111 17.68336166 -2.9479111 17.68336166 -6.5 17 C-9.90356958 16.6654803 -9.90356958 16.6654803 -11.875 18.3125 Z " fill="#2074D9" transform="translate(109,145)" />
<path d="M0 0 C1.98 0 3.96 0 6 0 C6 13.2 6 26.4 6 40 C4.02 40 2.04 40 0 40 C0 39.34 0 38.68 0 38 C-0.99 38.66 -1.98 39.32 -3 40 C-6.37448409 40.49187395 -9.62032224 40.43730655 -13 40 C-16.09431608 38.2594472 -17.46821456 36.86098594 -19.3125 33.875 C-20.65188278 28.27394475 -20.69782238 23.02001216 -18.8125 17.5625 C-16.72482511 14.61095964 -15.34684149 13.36916243 -12 12 C-7.28812373 11.58667752 -5.30039837 11.84980081 -1 14 C-0.67 9.38 -0.34 4.76 0 0 Z M-12.375 19 C-14.17941995 22.33123683 -14.53441539 24.34618584 -14.31640625 28.06640625 C-13.83049017 31.03589341 -13.0256923 32.77173847 -11 35 C-8.10293293 36.24677006 -8.10293293 36.24677006 -5 36 C-2.65060311 34.15858081 -1.3300053 32.6600106 0 30 C0.29388914 26.10596896 0.32442996 23.64885991 -1.4375 20.125 C-2.82878145 18.12095255 -2.82878145 18.12095255 -4 17 C-7.81145682 16.49180576 -9.38440761 16.48160641 -12.375 19 Z " fill="#2074D9" transform="translate(199,145)" />
<path d="M0 0 C2.88349105 1.25369176 4.4563926 2.1278595 6.12060547 4.79785156 C7.14155675 7.35448136 7.22881547 9.23713183 7.1953125 11.984375 C7.18886719 12.91894531 7.18242188 13.85351562 7.17578125 14.81640625 C7.15902344 15.78449219 7.14226563 16.75257813 7.125 17.75 C7.11597656 18.73355469 7.10695313 19.71710938 7.09765625 20.73046875 C7.07412785 23.15389407 7.04125368 25.57682222 7 28 C5.35 28 3.7 28 2 28 C2 27.34 2 26.68 2 26 C1.01 26.66 0.02 27.32 -1 28 C-4.39346258 28.54640499 -7.60402973 28.52453681 -11 28 C-14.125 25.875 -14.125 25.875 -16 23 C-16.625 20 -16.625 20 -16 17 C-13.827365 14.42714276 -12.02006162 12.51003081 -9 11 C-7.29297265 10.93003986 -5.58331997 10.91559846 -3.875 10.9375 C-2.96492188 10.94652344 -2.05484375 10.95554688 -1.1171875 10.96484375 C-0.41851562 10.97644531 0.28015625 10.98804688 1 11 C0.34 9.35 -0.32 7.7 -1 6 C-7.08408472 5.80185739 -7.08408472 5.80185739 -13 7 C-13 5.35 -13 3.7 -13 2 C-8.66958958 -0.16520521 -4.75189822 -0.62524977 0 0 Z M-10 18 C-9.67 19.65 -9.34 21.3 -9 23 C-6.74239143 23.78670551 -6.74239143 23.78670551 -4 24 C-1.21692394 22.66457328 -1.21692394 22.66457328 1 21 C1 19.02 1 17.04 1 15 C-3.67461851 14.67386382 -6.16674383 15.29417212 -10 18 Z " fill="#2074D9" transform="translate(52,157)" />
<path d="M0 0 C2.15234375 0.765625 2.15234375 0.765625 4 2 C5.97176566 5.13108883 6.237911 7.53965377 6.1953125 11.203125 C6.18886719 12.1828125 6.18242187 13.1625 6.17578125 14.171875 C6.15902344 15.18765625 6.14226562 16.2034375 6.125 17.25 C6.11597656 18.28125 6.10695312 19.3125 6.09765625 20.375 C6.07412011 22.91690287 6.04124023 25.4583328 6 28 C3.33333333 28 0.66666667 28 -2 28 C-3.15822266 28.05220703 -3.15822266 28.05220703 -4.33984375 28.10546875 C-5.19707031 28.13253906 -6.05429688 28.15960938 -6.9375 28.1875 C-8.21947266 28.23970703 -8.21947266 28.23970703 -9.52734375 28.29296875 C-12 28 -12 28 -14.2578125 26.69921875 C-16 25 -16 25 -16.9375 21.625 C-17 18 -17 18 -15.8125 15.1875 C-13.87144123 12.84484286 -12.80236166 12.08682896 -10 11 C-7.203125 10.8046875 -7.203125 10.8046875 -4.25 10.875 C-3.26515625 10.89304688 -2.2803125 10.91109375 -1.265625 10.9296875 C-0.14414063 10.96449219 -0.14414063 10.96449219 1 11 C0.01 9.35 -0.98 7.7 -2 6 C-7.57830016 5.87530901 -7.57830016 5.87530901 -13 7 C-13.33 5.35 -13.66 3.7 -14 2 C-9.48507216 -0.33028534 -4.98067476 -0.60587815 0 0 Z M-8.375 15.75 C-10.18397034 16.90678178 -10.18397034 16.90678178 -10.75 19.125 C-10.8325 19.74375 -10.915 20.3625 -11 21 C-9.30504044 22.66846734 -9.30504044 22.66846734 -7 24 C-4.40110217 24.08024658 -4.40110217 24.08024658 -2 23 C-0.09798258 21.26961928 -0.09798258 21.26961928 1 19 C1 17.68 1 16.36 1 15 C-3.75333696 14.8099106 -3.75333696 14.8099106 -8.375 15.75 Z " fill="#2074D9" transform="translate(170,157)" />
<path d="M0 0 C2.8100346 1.79363911 4.50940468 3.01880935 6 6 C6.08426094 7.6674606 6.10725143 9.33825187 6.09765625 11.0078125 C6.09443359 11.99394531 6.09121094 12.98007813 6.08789062 13.99609375 C6.07951172 15.02863281 6.07113281 16.06117188 6.0625 17.125 C6.05798828 18.16527344 6.05347656 19.20554688 6.04882812 20.27734375 C6.03701952 22.85161962 6.02055075 25.42578146 6 28 C4.35 28 2.7 28 1 28 C0.95101562 26.83082031 0.90203125 25.66164062 0.8515625 24.45703125 C0.77649829 22.90883196 0.70095205 21.36065599 0.625 19.8125 C0.5940625 19.04357422 0.563125 18.27464844 0.53125 17.48242188 C0.31383889 13.26102289 -0.09743072 9.85927672 -2 6 C-3.98 6 -5.96 6 -8 6 C-10.86253256 9.82950066 -11.40079472 12.85745852 -11.61914062 17.48242188 C-11.64169922 18.25134766 -11.66425781 19.02027344 -11.6875 19.8125 C-11.72166016 20.60076172 -11.75582031 21.38902344 -11.79101562 22.20117188 C-11.87299875 24.13363119 -11.93818845 26.06679035 -12 28 C-13.98 28 -15.96 28 -18 28 C-18 19.09 -18 10.18 -18 1 C-15.33333333 1 -12.66666667 1 -10 1 C-6.79826746 -0.60086627 -3.47422941 -0.49917089 0 0 Z " fill="#2074D9" transform="translate(80,157)" />
<path d="M0 0 C0 2.64 0 5.28 0 8 C2.31 8 4.62 8 7 8 C7 9.32 7 10.64 7 12 C4.69 12 2.38 12 0 12 C0.33 17.61 0.66 23.22 1 29 C4.63619656 30.08084521 4.63619656 30.08084521 7 30 C7 31.65 7 33.3 7 35 C5.58506449 35.10884119 4.16767057 35.18597617 2.75 35.25 C1.96109375 35.29640625 1.1721875 35.3428125 0.359375 35.390625 C-2 35 -2 35 -4.28125 33.59375 C-6.51063737 30.22940179 -6.41208723 27.85890103 -6.3515625 23.89453125 C-6.31804687 23.02183594 -6.28453125 22.14914063 -6.25 21.25 C-6.23195312 20.36183594 -6.21390625 19.47367188 -6.1953125 18.55859375 C-6.14827374 16.37129152 -6.08257009 14.18620184 -6 12 C-7.98 12 -9.96 12 -12 12 C-12 10.68 -12 9.36 -12 8 C-10.02 8 -8.04 8 -6 8 C-6 5.69 -6 3.38 -6 1 C-3 0 -3 0 0 0 Z " fill="#2074D9" transform="translate(146,150)" />
<path d="M0 0 C0.99 0.33 1.98 0.66 3 1 C2.67 2.65 2.34 4.3 2 6 C-0.64 6 -3.28 6 -6 6 C-5.79962058 7.92238381 -5.79962058 7.92238381 -5 10 C-3.19415335 11.48483034 -3.19415335 11.48483034 -1 12.625 C2.90818859 14.81637717 2.90818859 14.81637717 4 17 C4.375 19.8125 4.375 19.8125 4 23 C2.1875 25.875 2.1875 25.875 -1 28 C-4.70892678 28.46427533 -8.28832945 28.43593446 -12 28 C-12.33 27.67 -12.66 27.34 -13 27 C-13.04063832 25.33382885 -13.042721 23.66611905 -13 22 C-10.98177083 22.29296875 -8.96354167 22.5859375 -6.9453125 22.87890625 C-4.91859333 23.1684297 -4.91859333 23.1684297 -3 22 C-3.20094402 20.08037429 -3.20094402 20.08037429 -4 18 C-5.80312089 16.47968804 -5.80312089 16.47968804 -8 15.3125 C-11.98734177 13.01265823 -11.98734177 13.01265823 -13 12 C-13.18029499 9.20542765 -13.3159792 6.75511692 -13 4 C-11.6875 2.0625 -11.6875 2.0625 -10 1 C-6.49053585 -0.16982138 -3.68382769 -0.13156527 0 0 Z " fill="#2074D9" transform="translate(130,157)" />
<path d="M0 0 C0 1.98 0 3.96 0 6 C-2.31 6.33 -4.62 6.66 -7 7 C-9.61537297 10.95495425 -9.44264274 15.16827373 -9.625 19.75 C-9.66367187 20.54277344 -9.70234375 21.33554688 -9.7421875 22.15234375 C-9.836108 24.10119416 -9.91912822 26.05056451 -10 28 C-11.98 28 -13.96 28 -16 28 C-16 19.09 -16 10.18 -16 1 C-13.33333333 1 -10.66666667 1 -8 1 C-5.29120665 -0.35439668 -2.99066732 -0.06501451 0 0 Z " fill="#2074D9" transform="translate(38,157)" />
</svg>
