
<svg version="1.1" xmlns="http://www.w3.org/2000/svg" width="600" height="228" viewBox="0 0 600 228" preserveAspectRatio="xMidYMid meet">
<path d="M0 0 C3.125 1.6875 3.125 1.6875 5 3 C5.33 1.68 5.66 0.36 6 -1 C9.14581423 -1.02888514 12.29159469 -1.04675923 15.4375 -1.0625 C16.78424805 -1.07506836 16.78424805 -1.07506836 18.15820312 -1.08789062 C19.01220703 -1.09111328 19.86621094 -1.09433594 20.74609375 -1.09765625 C21.53685303 -1.10289307 22.3276123 -1.10812988 23.14233398 -1.11352539 C23.75536377 -1.07606201 24.36839355 -1.03859863 25 -1 C25.495 -0.505 25.495 -0.505 26 0 C26.10069779 3.16076344 26.13614023 6.29972027 26.12939453 9.4609375 C26.13202301 10.9510434 26.13202301 10.9510434 26.13470459 12.47125244 C26.13912511 15.77251912 26.13618441 19.07373273 26.1328125 22.375 C26.13348548 24.65804047 26.13445546 26.94108087 26.13571167 29.22412109 C26.13718891 34.01595744 26.13503323 38.80777519 26.13037109 43.59960938 C26.1246738 49.75716635 26.12795266 55.91467974 26.13394356 62.07223511 C26.13754845 66.78865897 26.13641091 71.50507241 26.13381577 76.22149658 C26.1331463 78.4926148 26.1339756 80.76373394 26.13629532 83.03485107 C26.13882067 86.20294722 26.1349829 89.37097172 26.12939453 92.5390625 C26.13141876 93.48767151 26.13344299 94.43628052 26.13552856 95.41363525 C26.12831315 97.60954306 26.06992365 99.80519389 26 102 C25.67 102.33 25.34 102.66 25 103 C23.59651265 103.09860131 22.18819523 103.13078937 20.78125 103.1328125 C19.50701172 103.13474609 19.50701172 103.13474609 18.20703125 103.13671875 C17.31371094 103.13285156 16.42039062 103.12898438 15.5 103.125 C14.60667969 103.12886719 13.71335937 103.13273437 12.79296875 103.13671875 C11.94347656 103.13542969 11.09398437 103.13414062 10.21875 103.1328125 C9.43435547 103.13168457 8.64996094 103.13055664 7.84179688 103.12939453 C7.23400391 103.08669434 6.62621094 103.04399414 6 103 C5.67 102.67 5.34 102.34 5 102 C4.91209025 99.70848583 4.89305962 97.41427476 4.90234375 95.12109375 C4.9037587 94.4344313 4.90517365 93.74776886 4.90663147 93.04029846 C4.91224521 90.83932199 4.92479993 88.63844591 4.9375 86.4375 C4.94251324 84.94856917 4.94707645 83.45963676 4.95117188 81.97070312 C4.96221907 78.31376925 4.97949287 74.65689442 5 71 C4.35208496 71.34933594 3.70416992 71.69867188 3.03662109 72.05859375 C-5.1481281 76.3365378 -11.91806673 77.78452456 -21.1796875 76.58984375 C-29.97629788 74.72084383 -36.52673809 70.81239565 -42.75 64.375 C-48.0153147 58.00764269 -50.94498159 50.13871345 -52 42 C-52.79258694 31.9707268 -51.23142857 22.53352957 -46.3125 13.6875 C-41.65988373 6.54814055 -35.99781371 2.0155341 -28.17578125 -1.2734375 C-18.74603705 -4.42232874 -9.14854061 -3.65283456 0 0 Z M-24 21 C-27.68842703 24.59136316 -28.96347205 27.99011492 -30 33 C-30.53871073 38.81807586 -29.45912152 43.7459733 -27 49 C-24.48757159 52.21032519 -22.27464458 53.8415512 -18.75 55.875 C-14.11393531 57.26581941 -10.65787832 57.24096758 -6 56 C-1.16962846 53.53924468 1.35390562 50.70416779 4 46 C5.72783346 40.51700849 5.9420068 34.19744023 4.31640625 28.6796875 C2.1182715 23.88209879 -0.70409572 21.01627322 -5 18 C-12.15783144 15.61405619 -17.89267524 16.84701916 -24 21 Z " fill="#000000" transform="translate(356,80)" />
<path d="M0 0 C6.4836702 3.46152971 11.97555903 7.61888977 15.36328125 14.26171875 C19.3044957 23.55264723 20.1759362 32.29670392 19.36328125 42.26171875 C19.03328125 42.59171875 18.70328125 42.92171875 18.36328125 43.26171875 C16.76814232 43.38444724 15.16773193 43.43952918 13.56811523 43.46704102 C12.54713242 43.48698624 11.5261496 43.50693146 10.47422791 43.52748108 C9.36382645 43.54419357 8.25342499 43.56090607 7.109375 43.578125 C5.97879166 43.5989061 4.84820831 43.61968719 3.68336487 43.64109802 C0.0559014 43.70671672 -3.57163708 43.76553552 -7.19921875 43.82421875 C-9.65170061 43.86739226 -12.10417475 43.91100615 -14.55664062 43.95507812 C-20.58325302 44.06241059 -26.60994076 44.16415365 -32.63671875 44.26171875 C-30.64612137 49.36556907 -30.64612137 49.36556907 -27.26171875 53.57421875 C-22.76954803 56.46204279 -19.20895586 57.73909265 -13.7578125 57.57421875 C-9.92052132 57.00887198 -6.75918884 55.54139824 -3.63671875 53.26171875 C-1.95873291 51.32920697 -0.87277111 49.52781474 0.36328125 47.26171875 C6.27621165 47.90442858 11.70572656 49.45175659 17.36328125 51.26171875 C17.98828125 52.9921875 17.98828125 52.9921875 18.36328125 55.26171875 C16.10317758 61.6300317 11.66555435 67.15475577 6.36328125 71.26171875 C-2.23394461 76.45503515 -9.72021281 77.73931979 -19.7109375 77.53515625 C-27.50682895 76.99215884 -34.08562984 74.6760073 -40.44921875 70.13671875 C-46.81085406 64.7333697 -51.8648009 57.8163636 -54.13671875 49.72265625 C-56.21468589 39.49516171 -55.88307111 30.22506927 -52.63671875 20.26171875 C-49.22374495 12.71399422 -44.29143986 6.03152961 -37.109375 1.7578125 C-25.75683324 -4.09349757 -11.91102177 -5.15120061 0 0 Z M-27.63671875 18.26171875 C-29.71502223 20.17891343 -31.02497865 21.86852891 -32.63671875 24.26171875 C-32.30671875 25.58171875 -31.97671875 26.90171875 -31.63671875 28.26171875 C-22.39671875 28.26171875 -13.15671875 28.26171875 -3.63671875 28.26171875 C-3.30671875 26.61171875 -2.97671875 24.96171875 -2.63671875 23.26171875 C-4.83234184 19.96828411 -6.53607601 17.93433376 -9.88671875 15.88671875 C-16.33088386 14.42213577 -22.03060807 14.43937056 -27.63671875 18.26171875 Z " fill="#000000" transform="translate(279.63671875,79.73828125)" />
<path d="M0 0 C1.33043625 -0.0983721 2.66593344 -0.13078592 4 -0.1328125 C4.804375 -0.13410156 5.60875 -0.13539062 6.4375 -0.13671875 C7.283125 -0.13285156 8.12875 -0.12898438 9 -0.125 C10.2684375 -0.13080078 10.2684375 -0.13080078 11.5625 -0.13671875 C12.366875 -0.13542969 13.17125 -0.13414063 14 -0.1328125 C14.7425 -0.13168457 15.485 -0.13055664 16.25 -0.12939453 C16.8275 -0.08669434 17.405 -0.04399414 18 0 C18.495 0.495 18.495 0.495 19 1 C19.08685603 2.56172745 19.10702219 4.12729344 19.09765625 5.69140625 C19.09282227 7.10776367 19.09282227 7.10776367 19.08789062 8.55273438 C19.07532227 10.04256836 19.07532227 10.04256836 19.0625 11.5625 C19.05798828 12.55958984 19.05347656 13.55667969 19.04882812 14.58398438 C19.03700007 17.05604849 19.02051849 19.52799518 19 22 C19.99902344 21.98839844 20.99804688 21.97679688 22.02734375 21.96484375 C23.31769531 21.95582031 24.60804688 21.94679688 25.9375 21.9375 C27.22527344 21.92589844 28.51304687 21.91429688 29.83984375 21.90234375 C30.88269531 21.93457031 31.92554688 21.96679688 33 22 C33.33 22.33 33.66 22.66 34 23 C34.12663091 25.82416382 34.18520548 28.61294793 34.1875 31.4375 C34.19974609 32.22705078 34.21199219 33.01660156 34.22460938 33.83007812 C34.22987279 35.88807435 34.12206285 37.94562009 34 40 C33.01 40.99 33.01 40.99 32 42 C28.9609375 42.1953125 28.9609375 42.1953125 25.375 42.125 C23.59222656 42.09792969 23.59222656 42.09792969 21.7734375 42.0703125 C20.40058594 42.03550781 20.40058594 42.03550781 19 42 C19.06884472 46.64530679 19.15679304 51.28971059 19.26245117 55.93432617 C19.29570188 57.51430243 19.32373346 59.09439752 19.34643555 60.67456055 C19.37998016 62.94631579 19.43229227 65.21698203 19.48828125 67.48828125 C19.49467117 68.19463211 19.5010611 68.90098297 19.50764465 69.6287384 C19.59474184 72.5348509 19.66681245 74.5313905 21.37915039 76.93969727 C23.62516718 78.40896235 25.46267784 78.47752443 28.125 78.625 C29.75178968 78.72402198 31.37777795 78.84301077 33 79 C33.33 79.33 33.66 79.66 34 80 C34.12658222 82.65822657 34.18520214 85.27887424 34.1875 87.9375 C34.19974609 88.67935547 34.21199219 89.42121094 34.22460938 90.18554688 C34.22988478 92.12513629 34.12188902 94.0642371 34 96 C31.77916576 98.22083424 31.00766561 98.46706276 28 99 C20.93730912 99.63170696 14.68932555 99.30330595 8.19140625 96.3203125 C4.53067477 94.1147381 2.24536541 91.605105 0 88 C-2.64561211 82.02026709 -3.42453784 76.50965664 -3.29296875 70.02734375 C-3.28872391 69.21882462 -3.28447906 68.41030548 -3.28010559 67.57728577 C-3.26350035 65.03033127 -3.22588533 62.4842096 -3.1875 59.9375 C-3.17242958 58.19597508 -3.15874534 56.45443759 -3.14648438 54.71289062 C-3.11365684 50.47494639 -3.06200455 46.23761368 -3 42 C-4.26183105 42.01047363 -5.52366211 42.02094727 -6.82373047 42.03173828 C-11.49394914 42.06786899 -16.16415539 42.09087516 -20.83447266 42.10986328 C-22.85793127 42.11993671 -24.88137528 42.13359595 -26.90478516 42.15087891 C-29.80895589 42.17506847 -32.71293461 42.18646949 -35.6171875 42.1953125 C-36.97975174 42.21079636 -36.97975174 42.21079636 -38.36984253 42.22659302 C-39.21056305 42.22674408 -40.05128357 42.22689514 -40.91748047 42.22705078 C-42.03000687 42.23371262 -42.03000687 42.23371262 -43.16500854 42.24050903 C-43.77055573 42.16114105 -44.37610291 42.08177307 -45 42 C-45.66 41.34 -46.32 40.68 -47 40 C-47.1720611 37.29368306 -47.23239017 34.7028606 -47.1875 32 C-47.18685547 31.26265625 -47.18621094 30.5253125 -47.18554688 29.765625 C-47.14050904 24.28101809 -47.14050904 24.28101809 -46 22 C-31.15 22 -16.3 22 -1 22 C-1 15.07 -1 8.14 -1 1 C-0.67 0.67 -0.34 0.34 0 0 Z " fill="#000000" transform="translate(521,57)" />
<path d="M0 0 C3.1382345 -0.24966567 6.29049613 -0.18521791 9.4375 -0.1875 C10.32244141 -0.19974609 11.20738281 -0.21199219 12.11914062 -0.22460938 C12.96541016 -0.22654297 13.81167969 -0.22847656 14.68359375 -0.23046875 C15.46275146 -0.23457764 16.24190918 -0.23868652 17.04467773 -0.24291992 C17.68993408 -0.16275635 18.33519043 -0.08259277 19 0 C19.66 0.66 20.32 1.32 21 2 C21.25828552 3.99116516 21.25828552 3.99116516 21.27124023 6.4621582 C21.28142685 7.38684402 21.29161346 8.31152985 21.30210876 9.26423645 C21.30424881 10.26629623 21.30638885 11.26835602 21.30859375 12.30078125 C21.33375806 14.41341417 21.35915602 16.52604431 21.38476562 18.63867188 C21.41349955 21.97647357 21.43750972 25.31422698 21.45629883 28.65209961 C21.47795947 31.86858553 21.51740662 35.08449478 21.55859375 38.30078125 C21.55870956 39.29676834 21.55882538 40.29275543 21.5589447 41.31892395 C21.61649183 45.34906955 21.70242453 48.32412582 23.34008789 52.04370117 C25.03300041 54.22101661 25.03300041 54.22101661 28 56 C32.57098437 56.5965522 36.73074222 56.52885741 41 54.75 C43.18142054 52.84125703 43.93940984 51.67697451 45 49 C45.34901945 46.11501605 45.34901945 46.11501605 45.37890625 42.95703125 C45.41306641 41.80138672 45.44722656 40.64574219 45.48242188 39.45507812 C45.50884766 38.25302734 45.53527344 37.05097656 45.5625 35.8125 C45.62214059 33.42306959 45.68571974 31.03373306 45.75390625 28.64453125 C45.77783447 27.58596924 45.8017627 26.52740723 45.82641602 25.43676758 C45.91234009 24.23056763 45.91234009 24.23056763 46 23 C46.495 22.505 46.495 22.505 47 22 C48.47652664 21.90119203 49.95767236 21.86920755 51.4375 21.8671875 C52.33210938 21.86589844 53.22671875 21.86460938 54.1484375 21.86328125 C55.08945312 21.86714844 56.03046875 21.87101562 57 21.875 C58.41152344 21.86919922 58.41152344 21.86919922 59.8515625 21.86328125 C61.19347656 21.86521484 61.19347656 21.86521484 62.5625 21.8671875 C63.38878906 21.86831543 64.21507812 21.86944336 65.06640625 21.87060547 C65.70449219 21.91330566 66.34257812 21.95600586 67 22 C67.33 22.33 67.66 22.66 68 23 C68.13301296 24.54822776 68.19883992 26.1023008 68.23706055 27.65576172 C68.26346115 28.64704071 68.28986176 29.6383197 68.31706238 30.65963745 C68.34004898 31.73875397 68.36303558 32.81787048 68.38671875 33.9296875 C68.41224319 35.03095978 68.43776764 36.13223206 68.46406555 37.26687622 C68.51618366 39.60217681 68.56559705 41.93753905 68.61254883 44.27294922 C68.68703985 47.85288597 68.77769256 51.43218021 68.86914062 55.01171875 C68.91766181 57.27602056 68.96521973 59.54034326 69.01171875 61.8046875 C69.04077805 62.87975555 69.06983734 63.95482361 69.09977722 65.06246948 C69.11672134 66.0600528 69.13366547 67.05763611 69.15112305 68.08544922 C69.17990791 69.4032991 69.17990791 69.4032991 69.20927429 70.74777222 C69 73 69 73 67 76 C64.06152347 76.107834 61.12698849 76.18721916 58.1875 76.25 C57.35412109 76.28351563 56.52074219 76.31703125 55.66210938 76.3515625 C53.37379889 76.38832251 51.25678739 76.38495793 49 76 C46.92578125 73.984375 46.92578125 73.984375 46 72 C45.175 72.61875 44.35 73.2375 43.5 73.875 C38.60061197 77.11066141 33.43456629 78.07683858 27.625 78.3125 C21.33547232 78.10717178 15.75760968 76.88018842 10.5078125 73.30078125 C5.03113675 68.73089935 1.51587219 64.06024231 -0.53292847 57.22099304 C-1.07774067 54.63033179 -1.12717077 52.25282939 -1.12939453 49.60473633 C-1.13254669 48.52714554 -1.13569885 47.44955475 -1.13894653 46.33930969 C-1.1369223 45.18190781 -1.13489807 44.02450592 -1.1328125 42.83203125 C-1.13376923 41.64147629 -1.13472595 40.45092133 -1.13571167 39.22428894 C-1.13639187 36.71015368 -1.13454873 34.19601665 -1.13037109 31.68188477 C-1.1250065 27.81718037 -1.13032878 23.95259146 -1.13671875 20.08789062 C-1.13605822 17.64843724 -1.13477757 15.20898393 -1.1328125 12.76953125 C-1.13483673 11.60605667 -1.13686096 10.44258209 -1.13894653 9.24385071 C-1.13579437 8.1757164 -1.13264221 7.10758209 -1.12939453 6.00708008 C-1.12859894 5.06206131 -1.12780334 4.11704254 -1.12698364 3.14338684 C-1.08507904 2.43606918 -1.04317444 1.72875153 -1 1 C-0.67 0.67 -0.34 0.34 0 0 Z " fill="#000000" transform="translate(428,79)" />
<path d="M0 0 C3.1382345 -0.24966567 6.29049613 -0.18521791 9.4375 -0.1875 C10.32244141 -0.19974609 11.20738281 -0.21199219 12.11914062 -0.22460938 C12.96541016 -0.22654297 13.81167969 -0.22847656 14.68359375 -0.23046875 C15.46275146 -0.23457764 16.24190918 -0.23868652 17.04467773 -0.24291992 C17.68993408 -0.16275635 18.33519043 -0.08259277 19 0 C19.66 0.66 20.32 1.32 21 2 C21.25168228 3.91156769 21.25168228 3.91156769 21.25396729 6.28918457 C21.25960693 7.18935806 21.26524658 8.08953156 21.27105713 9.01698303 C21.26700867 10.00717941 21.26296021 10.99737579 21.25878906 12.01757812 C21.2622937 13.05828964 21.26579834 14.09900116 21.26940918 15.17124939 C21.27823958 18.62465001 21.27237267 22.07784716 21.265625 25.53125 C21.26697127 27.92256713 21.26891148 30.313884 21.27142334 32.7052002 C21.27437638 37.7222758 21.27007115 42.7392803 21.26074219 47.75634766 C21.24934761 54.19967559 21.25590612 60.64283693 21.26788712 67.08615875 C21.27510084 72.02566797 21.27282003 76.96513744 21.26763153 81.90464783 C21.26629368 84.28100097 21.26794744 86.65735768 21.27259064 89.03370667 C21.27764782 92.35004286 21.26995689 95.6661061 21.25878906 98.98242188 C21.26283752 99.97261826 21.26688599 100.96281464 21.27105713 101.98301697 C21.26541748 102.88319046 21.25977783 103.78336395 21.25396729 104.71081543 C21.25321323 105.495429 21.25245918 106.28004257 21.25168228 107.08843231 C21.12709955 108.03465832 21.12709955 108.03465832 21 109 C20.01 109.99 20.01 109.99 19 111 C17.04467773 111.24291992 17.04467773 111.24291992 14.68359375 111.23046875 C13.83732422 111.22853516 12.99105469 111.22660156 12.11914062 111.22460938 C11.23419922 111.21236328 10.34925781 111.20011719 9.4375 111.1875 C8.54869141 111.18685547 7.65988281 111.18621094 6.74414062 111.18554688 C1.9156186 111.15239913 1.9156186 111.15239913 0 111 C-0.33 110.67 -0.66 110.34 -1 110 C-1.09766396 108.58554008 -1.12631677 107.16624054 -1.12698364 105.74841309 C-1.12980347 104.83134079 -1.13262329 103.91426849 -1.13552856 102.96940613 C-1.13350433 101.95534195 -1.1314801 100.94127777 -1.12939453 99.89648438 C-1.13114685 98.83480545 -1.13289917 97.77312653 -1.13470459 96.67927551 C-1.13912548 93.15075065 -1.13618428 89.62227543 -1.1328125 86.09375 C-1.13348547 83.65376781 -1.13445544 81.21378568 -1.13571167 78.77380371 C-1.13718897 73.65241866 -1.13503307 68.53105101 -1.13037109 63.40966797 C-1.1246738 56.82837285 -1.12795263 50.24711851 -1.13394356 43.66582489 C-1.13754832 38.62513926 -1.13641098 33.58446338 -1.13381577 28.54377747 C-1.13314626 26.11635839 -1.13397573 23.68893844 -1.13629532 21.26152039 C-1.13882045 17.87549477 -1.13498322 14.48953621 -1.12939453 11.10351562 C-1.13141876 10.08945145 -1.13344299 9.07538727 -1.13552856 8.03059387 C-1.13270874 7.11352158 -1.12988892 6.19644928 -1.12698364 5.25158691 C-1.12660662 4.45000404 -1.12622959 3.64842117 -1.12584114 2.82254791 C-1.08431356 2.2211071 -1.04278599 1.61966629 -1 1 C-0.67 0.67 -0.34 0.34 0 0 Z " fill="#000000" transform="translate(395,44)" />
<path d="M0 0 C0.66 0.66 1.32 1.32 2 2 C2.24291992 3.95532227 2.24291992 3.95532227 2.23046875 6.31640625 C2.22853516 7.16267578 2.22660156 8.00894531 2.22460938 8.88085938 C2.20624023 10.20827148 2.20624023 10.20827148 2.1875 11.5625 C2.18685547 12.45130859 2.18621094 13.34011719 2.18554688 14.25585938 C2.15239913 19.0843814 2.15239913 19.0843814 2 21 C1.505 21.495 1.505 21.495 1 22 C-2.48807929 22.50221037 -5.9835135 22.90186871 -9.484375 23.3046875 C-13.0121656 24.00240609 -15.12111091 24.88777159 -18 27 C-21.00427552 31.18452661 -22.09532559 34.90903719 -22.18945312 40.00244141 C-22.20617065 40.77649323 -22.22288818 41.55054504 -22.2401123 42.34805298 C-22.25368774 43.17421112 -22.26726318 44.00036926 -22.28125 44.8515625 C-22.29965942 45.70680511 -22.31806885 46.56204773 -22.33703613 47.44320679 C-22.41560811 51.09742927 -22.4835974 54.75182967 -22.55224609 58.40625 C-22.60390817 61.07561522 -22.66116469 63.74481957 -22.71875 66.4140625 C-22.73232544 67.2442691 -22.74590088 68.07447571 -22.7598877 68.92984009 C-22.88714947 74.77429895 -22.88714947 74.77429895 -24 77 C-27.12492251 77.05791844 -30.24970766 77.09356746 -33.375 77.125 C-34.26445312 77.14175781 -35.15390625 77.15851563 -36.0703125 77.17578125 C-36.92109375 77.18222656 -37.771875 77.18867188 -38.6484375 77.1953125 C-39.43395996 77.20578613 -40.21948242 77.21625977 -41.02880859 77.22705078 C-41.67930176 77.15212402 -42.32979492 77.07719727 -43 77 C-43.66 76.34 -44.32 75.68 -45 75 C-45.24723816 71.99485779 -45.24723816 71.99485779 -45.24291992 68.08764648 C-45.24481827 67.37695007 -45.24671661 66.66625366 -45.24867249 65.934021 C-45.25238406 63.5796005 -45.24167176 61.22548693 -45.23046875 58.87109375 C-45.22927716 57.23967017 -45.22882374 55.6082459 -45.2290802 53.9768219 C-45.22751473 50.55620027 -45.21921959 47.13568322 -45.20581055 43.71508789 C-45.18880716 39.32088375 -45.18499654 34.92679448 -45.18575573 30.5325613 C-45.1854844 27.16379186 -45.18000942 23.79504774 -45.17275429 20.4262867 C-45.16956262 18.80549372 -45.16759906 17.18469786 -45.16686058 15.5639019 C-45.16470302 13.30353736 -45.15597199 11.04329704 -45.14526367 8.78295898 C-45.14145187 7.49437485 -45.13764008 6.20579071 -45.13371277 4.87815857 C-45.08958755 3.92836624 -45.04546234 2.97857391 -45 2 C-44.67 1.67 -44.34 1.34 -44 1 C-42.58429877 0.91348389 -41.164405 0.89295096 -39.74609375 0.90234375 C-38.46508789 0.90717773 -38.46508789 0.90717773 -37.15820312 0.91210938 C-36.26037109 0.92048828 -35.36253906 0.92886719 -34.4375 0.9375 C-33.53580078 0.94201172 -32.63410156 0.94652344 -31.70507812 0.95117188 C-29.46998686 0.96299775 -27.23502563 0.9794778 -25 1 C-24.34 2.65 -23.68 4.3 -23 6 C-22.46375 5.731875 -21.9275 5.46375 -21.375 5.1875 C-20.59125 4.795625 -19.8075 4.40375 -19 4 C-17.576875 3.2265625 -17.576875 3.2265625 -16.125 2.4375 C-10.8551746 0.01338032 -5.76345808 -0.3325072 0 0 Z " fill="#000000" transform="translate(221,78)" />
<path d="M0 0 C8.44241529 4.03374207 14.56083003 9.51307998 19.53515625 17.44921875 C23.44244123 24.70560514 25.48157485 32.50217866 25.26171875 40.7890625 C24.63253992 46.104215 23.62454125 52.18373323 20.9296875 56.85546875 C19.25070749 60.72841004 19.56055505 65.07308837 19.43359375 69.24414062 C19.27375432 72.98646804 19.12574336 74.81138495 17 78 C15.77023438 77.97679687 14.54046875 77.95359375 13.2734375 77.9296875 C11.6406311 77.91091961 10.0078181 77.89272051 8.375 77.875 C7.16263672 77.84986328 7.16263672 77.84986328 5.92578125 77.82421875 C1.15071686 77.78539709 -2.4808461 78.3021258 -7 80 C-16.16258472 81.59126121 -25.31911645 81.42714998 -33.953125 77.73828125 C-44.20205401 72.40379771 -50.55436334 66.25805975 -56 56 C-59.81734287 47.56947247 -60.0649167 38.28300854 -58.53125 29.234375 C-56.22138057 20.48986931 -51.4534659 12.67786763 -44.83984375 6.52734375 C-32.34182968 -3.84786538 -15.0825883 -6.66968729 0 0 Z M-39.375 14.125 C-44.82336114 19.36547454 -48.52996275 25.53451673 -50 33 C-50.79403416 41.03146028 -49.62072825 47.77990473 -46 55 C-42.1636791 61.2546599 -37.69247963 65.88518238 -31 69 C-23.65036371 71.93367835 -15.17309435 71.90509645 -7.41015625 70.546875 C-6.00455179 70.19102577 -4.60192187 69.82313898 -3.203125 69.44140625 C0.45504211 68.70847561 4.09820994 68.90869282 7.8125 69.02734375 C8.534375 69.01832031 9.25625 69.00929687 10 69 C10.33 68.67 10.66 68.34 11 68 C11.16004618 65.98163988 11.2774816 63.9598458 11.375 61.9375 C11.64308697 57.96375928 11.92257229 54.5429023 13.5 50.875 C16.11398805 44.7585255 16.56845361 37.96933413 15.4375 31.4375 C13.60756985 24.63015983 9.86656819 18.40660482 4.6875 13.625 C-0.77995689 9.33608382 -7.4831366 6.44656186 -14.41015625 5.76171875 C-24.25375727 5.48627189 -31.7681133 7.7577541 -39.375 14.125 Z " fill="#00CBE5" transform="translate(103,75)" />
<path d="M0 0 C4.0524027 1.92079203 6.265659 4.74685185 8.50390625 8.56640625 C11.17730375 14.04268205 12.65612373 18.92485261 13 25 C11.730447 25.64834654 10.45930294 26.29357815 9.1875 26.9375 C8.47980469 27.29714844 7.77210937 27.65679687 7.04296875 28.02734375 C0.97550279 30.91606082 -5.42117284 30.63688646 -12 30 C-15.6655824 28.80730422 -18.94106569 27.36584244 -22 25 C-23 22 -23 22 -22.36328125 19.07421875 C-18.27167414 5.8867713 -18.27167414 5.8867713 -12.875 1.125 C-8.50736081 -0.58407621 -4.61547814 -0.85231052 0 0 Z " fill="#00D1EB" transform="translate(91,114)" />
<path d="M0 0 C2.9375 1.0625 2.9375 1.0625 5.8125 3.6875 C7.9375 7.0625 7.9375 7.0625 8.5 10.625 C7.9375 14.0625 7.9375 14.0625 6.0625 16.9375 C3.9375 19.0625 3.9375 19.0625 1.9375 20.0625 C-0.99827301 20.35126456 -3.20679148 20.54392213 -6.0625 20.0625 C-9 17.9375 -9 17.9375 -11.0625 15.0625 C-12.0625 12.125 -12.0625 12.125 -12.0625 9.0625 C-11 5.875 -11 5.875 -9.0625 3.0625 C-5.86448773 0.85942488 -3.88197224 0.07922392 0 0 Z " fill="#00CBE5" transform="translate(88.0625,91.9375)" />
<path d="M0 0 C3.34955886 0.08182961 4.60859181 0.36577039 7.625 2.0625 C9.625 4.375 9.625 4.375 10.39453125 6.69921875 C10.68142215 10.03007069 9.89607705 11.5826496 8.3125 14.5 C7.63767578 15.77230469 7.63767578 15.77230469 6.94921875 17.0703125 C5.90961819 18.87964681 4.78251192 20.63873212 3.625 22.375 C2.635 22.375 1.645 22.375 0.625 22.375 C0.29886719 21.48296875 -0.02726562 20.5909375 -0.36328125 19.671875 C-0.80027344 18.50140625 -1.23726563 17.3309375 -1.6875 16.125 C-2.11675781 14.96484375 -2.54601562 13.8046875 -2.98828125 12.609375 C-4.20978218 9.76035311 -5.53377546 7.81556742 -7.375 5.375 C-7.375 4.385 -7.375 3.395 -7.375 2.375 C-4.32767415 0.34344943 -3.48080195 0.05939935 0 0 Z " fill="#00CBE4" transform="translate(105.375,112.625)" />
<path d="M0 0 C2.0859375 0.37109375 2.0859375 0.37109375 5.0859375 2.37109375 C3.84953888 5.56512353 2.49794747 8.68952696 1.0859375 11.80859375 C-0.46734461 15.27449936 -1.7956947 18.7363984 -2.9140625 22.37109375 C-5.81313491 21.33571075 -7.07623739 20.18111744 -9.1015625 17.80859375 C-11.30299114 13.63347047 -12.39287395 10.10697426 -11.9140625 5.37109375 C-8.77531751 0.24447693 -5.59778343 -0.16239303 0 0 Z " fill="#00CEE8" transform="translate(68.9140625,112.62890625)" />
<path d="M0 0 C2.15766205 -0.11898872 4.00770069 -0.04946944 6.125 0.3828125 C8.125 2.0078125 8.125 2.0078125 9.125 4.3828125 C9.5625 7.3828125 9.5625 7.3828125 9.125 10.3828125 C7.5 12.7578125 7.5 12.7578125 5.125 14.3828125 C2.125 14.8828125 2.125 14.8828125 -0.875 14.3828125 C-3.25 12.7578125 -3.25 12.7578125 -4.875 10.3828125 C-5.35788863 7.07157618 -5.17118989 5.0862635 -3.875 2.0078125 C-1.875 0.3828125 -1.875 0.3828125 0 0 Z " fill="#00C8E1" transform="translate(64.875,97.6171875)" />
<path d="M0 0 C3.375 -0.25 3.375 -0.25 7 0 C8.875 1.1875 8.875 1.1875 10 3 C10.875 5.375 10.875 5.375 11 8 C9.8584081 10.2831838 8.80987317 12.19012683 7 14 C3.625 14.25 3.625 14.25 0 14 C-1.875 12.8125 -1.875 12.8125 -3 11 C-3.875 8.625 -3.875 8.625 -4 6 C-2.8584081 3.7168162 -1.80987317 1.80987317 0 0 Z " fill="#00CDE7" transform="translate(102,98)" />
<path d="M0 0 C1.39743879 0.07978851 2.79446395 0.17592784 4.1875 0.3125 C4.1875 0.6425 4.1875 0.9725 4.1875 1.3125 C1.5475 1.3125 -1.0925 1.3125 -3.8125 1.3125 C-4.245625 2.240625 -4.245625 2.240625 -4.6875 3.1875 C-5.8125 5.3125 -5.8125 5.3125 -7.8125 7.3125 C-8.50998583 8.62997324 -9.18209957 9.96164193 -9.8125 11.3125 C-10.125 8.625 -10.125 8.625 -9.8125 5.3125 C-6.99617578 1.13343826 -4.89698858 0.00772396 0 0 Z " fill="#00BBD3" transform="translate(66.8125,112.6875)" />
<path d="M0 0 C2.33297433 -0.04092937 4.66705225 -0.04241723 7 0 C7 0.33 7 0.66 7 1 C5.02 1 3.04 1 1 1 C-1.32590854 4.63423209 -1.16265833 7.77088331 -1 12 C-1.66 11.67 -2.32 11.34 -3 11 C-3.8125 8.75 -3.8125 8.75 -4 6 C-2.8584081 3.7168162 -1.80987317 1.80987317 0 0 Z " fill="#00B2C8" transform="translate(102,98)" />
</svg>
