<?xml version="1.0" standalone="no"?>
<!DOCTYPE svg PUBLIC "-//W3C//DTD SVG 20010904//EN"
 "http://www.w3.org/TR/2001/REC-SVG-20010904/DTD/svg10.dtd">
<svg version="1.0" xmlns="http://www.w3.org/2000/svg"
 width="1280.000000pt" height="720.000000pt" viewBox="0 0 1280.000000 720.000000"
 preserveAspectRatio="xMidYMid meet">
<metadata>
Created by potrace 1.16, written by Peter Selinger 2001-2019
</metadata>
<g transform="translate(0.000000,720.000000) scale(0.100000,-0.100000)"
fill="#000000" stroke="none">
<path d="M1402 4638 l3 -803 158 -3 157 -3 0 316 0 315 118 0 119 0 83 -172
c46 -95 114 -237 152 -315 l68 -143 180 0 c99 0 180 3 180 6 0 3 -74 151 -165
329 -91 177 -165 326 -165 331 1 5 28 23 62 39 119 58 211 176 240 308 6 28 8
95 6 148 -4 86 -9 106 -41 173 -58 123 -150 199 -296 248 -63 21 -86 22 -464
26 l-397 3 2 -803z m763 511 c76 -38 107 -92 113 -191 6 -101 -13 -153 -74
-207 -60 -52 -102 -61 -303 -61 l-171 0 0 246 0 246 193 -4 c184 -3 195 -4
242 -29z"/>
<path d="M3992 4638 l3 -803 140 0 139 0 8 30 c4 17 12 49 18 73 l11 42 45
-44 c91 -88 193 -126 339 -126 144 0 267 43 363 125 67 58 139 168 169 259 24
71 27 97 27 216 1 112 -3 147 -21 205 -72 229 -261 382 -493 401 -152 12 -271
-27 -370 -122 l-60 -57 0 301 0 302 -160 0 -160 0 2 -802z m774 77 c63 -31
108 -79 143 -155 22 -47 25 -69 25 -150 0 -81 -3 -103 -26 -152 -34 -73 -95
-132 -166 -159 -76 -28 -205 -24 -269 9 -60 31 -111 86 -141 151 -22 48 -26
70 -26 151 -1 102 16 157 70 227 81 107 259 142 390 78z"/>
<path d="M7886 5283 c-3 -16 -10 -75 -16 -133 -6 -58 -13 -117 -16 -132 l-6
-28 -99 0 -99 0 0 -130 0 -130 99 0 99 0 4 -302 c5 -335 9 -363 71 -454 66
-98 163 -133 400 -141 l157 -6 0 137 0 136 -109 0 c-127 0 -154 8 -181 52 -19
31 -20 51 -20 306 l0 272 155 0 155 0 0 130 0 130 -155 0 -155 0 0 160 0 160
-139 0 -139 0 -6 -27z"/>
<path d="M3138 5010 c-174 -31 -304 -117 -400 -264 -55 -85 -79 -170 -85 -299
-7 -135 7 -208 59 -317 73 -153 213 -266 379 -305 140 -33 326 -12 447 49 109
55 213 167 262 282 28 65 50 180 50 262 -1 274 -176 509 -430 577 -69 19 -220
27 -282 15z m218 -275 c51 -21 110 -81 135 -138 31 -70 39 -238 15 -320 -36
-125 -132 -197 -260 -197 -86 0 -140 24 -194 86 -54 61 -77 135 -77 254 0 146
44 241 140 300 63 39 166 45 241 15z"/>
<path d="M5840 5005 c-172 -39 -319 -154 -389 -307 -49 -105 -61 -163 -61
-295 0 -300 156 -502 443 -575 103 -26 258 -21 358 11 135 43 264 153 324 276
l34 70 -161 3 -161 3 -34 -41 c-56 -65 -103 -84 -203 -84 -73 0 -93 4 -136 26
-79 42 -132 116 -148 211 l-7 37 442 0 442 0 -6 123 c-3 88 -11 139 -26 181
-60 168 -183 290 -351 346 -85 29 -266 36 -360 15z m288 -271 c29 -14 64 -41
78 -59 22 -29 54 -110 54 -137 0 -4 -124 -8 -275 -8 -151 0 -275 4 -275 9 0
21 26 80 51 118 72 105 237 140 367 77z"/>
<path d="M6740 4415 l0 -575 159 0 160 0 4 343 c4 374 6 389 63 456 53 62 118
84 257 89 l117 4 0 129 0 129 -103 0 c-67 0 -119 -5 -149 -16 -52 -17 -118
-70 -159 -127 -32 -45 -32 -45 -49 66 l-13 77 -143 0 -144 0 0 -575z"/>
<path d="M8710 4505 l0 -125 1325 0 1325 0 0 125 0 125 -1325 0 -1325 0 0
-125z"/>
<path d="M3025 3378 c2 -7 59 -215 126 -463 67 -247 163 -603 214 -790 l93
-340 190 -3 190 -2 16 52 c8 29 64 229 125 443 171 609 184 655 191 655 6 0
58 -186 241 -865 33 -121 64 -235 70 -252 l11 -33 188 0 189 0 15 53 c69 242
426 1536 426 1545 0 9 -46 12 -168 12 l-168 0 -22 -92 c-12 -51 -47 -201 -77
-333 -31 -132 -67 -285 -80 -340 -13 -55 -43 -184 -67 -287 -23 -104 -45 -188
-48 -188 -4 0 -72 249 -272 1008 l-61 232 -177 0 -176 0 -113 -417 c-214 -791
-226 -832 -232 -815 -6 17 -61 249 -209 892 l-77 335 -171 3 c-135 2 -171 0
-167 -10z"/>
<path d="M6750 2585 l0 -805 155 0 155 0 0 805 0 805 -155 0 -155 0 0 -805z"/>
<path d="M7457 3213 c-3 -21 -11 -91 -18 -155 l-13 -117 -100 -3 -101 -3 -3
-127 -3 -128 105 0 105 0 3 -317 c3 -266 6 -325 20 -361 38 -100 111 -167 218
-199 41 -13 96 -17 220 -18 l165 0 3 126 3 127 -118 4 c-69 3 -129 10 -145 17
-49 24 -53 52 -53 346 l0 270 158 3 158 3 -3 127 -3 127 -157 3 -158 3 0 154
0 155 -139 0 -138 0 -6 -37z"/>
<path d="M5690 2954 c-292 -63 -478 -348 -441 -677 28 -247 182 -438 405 -502
44 -13 87 -16 180 -14 114 4 126 6 188 37 37 18 92 55 122 83 l54 49 6 -27 c2
-16 8 -49 11 -76 l6 -48 147 3 147 3 3 578 2 577 -149 0 c-169 0 -155 8 -166
-90 l-6 -55 -49 47 c-113 109 -283 150 -460 112z m312 -280 c63 -20 131 -82
165 -152 25 -51 28 -68 28 -157 0 -122 -19 -179 -82 -246 -62 -66 -127 -92
-228 -92 -96 0 -157 24 -223 91 -61 61 -85 119 -90 222 -3 70 0 95 18 143 66
175 226 249 412 191z"/>
<path d="M8674 2959 c-308 -37 -514 -281 -514 -609 0 -177 51 -311 160 -420
72 -72 172 -130 266 -155 77 -20 271 -20 347 0 168 44 337 195 382 343 l6 22
-158 0 -159 0 -36 -44 c-52 -62 -109 -86 -205 -86 -61 0 -89 5 -128 24 -72 33
-132 105 -149 181 -4 17 -9 38 -12 48 -5 16 20 17 435 17 l441 0 0 106 c0 182
-45 299 -161 415 -125 126 -310 183 -515 158z m221 -276 c55 -29 101 -80 120
-132 30 -87 51 -81 -260 -81 l-275 0 6 28 c11 43 50 115 77 140 13 13 51 34
83 48 49 21 71 24 134 21 51 -2 88 -10 115 -24z"/>
<path d="M10712 2955 c-134 -29 -243 -105 -292 -201 -32 -65 -39 -177 -15
-240 47 -123 148 -177 464 -249 63 -14 126 -32 142 -40 39 -21 69 -63 69 -99
0 -100 -131 -160 -263 -122 -66 19 -110 54 -138 107 l-19 39 -156 0 -156 0 6
-37 c4 -21 20 -66 36 -101 53 -115 170 -201 321 -237 89 -21 298 -20 370 1
143 43 250 127 288 227 31 86 30 206 -4 274 -52 103 -133 143 -437 212 -176
41 -238 77 -238 137 0 33 46 82 88 94 49 13 131 13 173 -1 38 -13 99 -66 99
-86 0 -10 34 -13 154 -13 l154 0 -9 41 c-23 101 -109 208 -204 254 -106 52
-296 69 -433 40z"/>
<path d="M9520 2360 l0 -580 160 0 160 0 0 333 c0 375 5 409 66 476 54 60 119
83 252 89 l112 5 0 129 0 130 -112 -4 c-152 -6 -207 -32 -294 -143 l-32 -39
-11 74 c-20 122 -3 110 -162 110 l-139 0 0 -580z"/>
<path d="M1400 2565 l0 -125 770 0 770 0 0 125 0 125 -770 0 -770 0 0 -125z"/>
</g>
</svg>
