<?xml version="1.0" encoding="UTF-8"?>
<svg version="1.1" xmlns="http://www.w3.org/2000/svg" width="417" height="417">
<path d="M0 0 C137.61 0 275.22 0 417 0 C417 137.61 417 275.22 417 417 C279.39 417 141.78 417 0 417 C0 279.39 0 141.78 0 0 Z " fill="#9E1D36" transform="translate(0,0)"/>
<path d="M0 0 C137.61 0 275.22 0 417 0 C417 41.25 417 82.5 417 125 C279.39 125 141.78 125 0 125 C0 83.75 0 42.5 0 0 Z " fill="#FDFDFD" transform="translate(0,292)"/>
<path d="M0 0 C17.16 0 34.32 0 52 0 C52.33 25.74 52.66 51.48 53 78 C56.465 74.535 56.465 74.535 60 71 C73.02890375 59.83921112 90.8344633 58.04164948 107.2734375 59.23828125 C119.88663146 60.77989385 131.59578999 65.32509607 141 74 C141.91652344 74.78117187 141.91652344 74.78117187 142.8515625 75.578125 C154.51434594 86.16197253 160.13205615 103.23199932 161.18126297 118.66649246 C161.24368308 121.52386743 161.24775385 124.37492928 161.22705078 127.23291016 C161.22734283 128.30726318 161.22763489 129.38161621 161.22793579 130.48852539 C161.22655321 134.00545604 161.21104273 137.5221693 161.1953125 141.0390625 C161.19157856 143.49099614 161.18873339 145.94293128 161.18673706 148.39486694 C161.17913065 154.82277607 161.15950796 161.25059364 161.1373291 167.6784668 C161.11319254 175.40455738 161.10407545 183.13067871 161.09242249 190.85679626 C161.07308178 202.57126102 161.03473815 214.28552522 161 226 C143.84 226 126.68 226 109 226 C108.97421875 219.04164063 108.9484375 212.08328125 108.921875 204.9140625 C108.8966946 200.49345325 108.87035241 196.07291161 108.83984375 191.65234375 C108.7915791 184.64306421 108.74750782 177.63394125 108.72900391 170.62451172 C108.71380777 164.97034608 108.67930916 159.31659136 108.63169098 153.6626091 C108.61690776 151.5106095 108.60896075 149.35855122 108.60811615 147.20650101 C108.60573557 144.18100953 108.57856761 141.15664365 108.54589844 138.13134766 C108.5509288 137.25092804 108.55595917 136.37050842 108.56114197 135.46340942 C108.43569053 127.90417731 106.14004737 121.70392813 102.375 115.1875 C95.72542244 109.06288909 88.82083925 107.26516618 79.90771484 107.40869141 C72.03735299 107.83295456 66.10381229 110.49701212 60.625 116.125 C54.49112201 124.03127332 52.86139201 134.11093319 52.79467773 143.80761719 C52.78477814 144.69577621 52.77487854 145.58393524 52.76467896 146.49900818 C52.73311812 149.43160343 52.7083279 152.36421488 52.68359375 155.296875 C52.66301955 157.33140481 52.64202295 159.36593039 52.62062073 161.40045166 C52.56544821 166.7532 52.51601765 172.1059866 52.46777344 177.45880127 C52.40868703 183.88242272 52.34248556 190.30597428 52.27747345 196.72953796 C52.17952457 206.48631593 52.09062697 216.24313889 52 226 C34.84 226 17.68 226 0 226 C0 151.42 0 76.84 0 0 Z " fill="#FEFDFE" transform="translate(190,0)"/>
<path d="M0 0 C0 16.17 0 32.34 0 49 C-7.26 49.33 -14.52 49.66 -22 50 C-31.87182401 53.94872961 -35.89771211 56.15603432 -41 65 C-43.61035755 71.1867379 -44.44393721 76.79561405 -44.43237305 83.46704102 C-44.4425647 84.36568375 -44.45275635 85.26432648 -44.46325684 86.19020081 C-44.49318708 89.12816769 -44.50262205 92.06580747 -44.51171875 95.00390625 C-44.52858026 97.0537167 -44.54673247 99.1035169 -44.56611633 101.15330505 C-44.61346253 106.52406614 -44.64337126 111.89478565 -44.66955566 117.26568604 C-44.70470161 123.72285671 -44.7616704 130.17986785 -44.81494904 136.63690948 C-44.89328244 146.42458562 -44.94402477 156.2120555 -45 166 C-62.49 166 -79.98 166 -98 166 C-98 112.54 -98 59.08 -98 4 C-80.84 4 -63.68 4 -46 4 C-45.505 10.435 -45.505 10.435 -45 17 C-43.1746875 15.2365625 -43.1746875 15.2365625 -41.3125 13.4375 C-28.17035147 1.76710627 -17.35746567 0 0 0 Z " fill="#FEFEFE" transform="translate(163,60)"/>
<path d="M0 0 C2.64 0 5.28 0 8 0 C8.33 7.59 8.66 15.18 9 23 C10.32 21.68 11.64 20.36 13 19 C18.39919857 17.20026714 23.93557265 17.29887373 29.3125 19.125 C33.43843192 22.00355716 36.37787651 25.13362953 38 30 C39.21358665 47.88548195 39.21358665 47.88548195 34 54 C30.81928614 57.45762307 27.9280397 59.64447495 23.24609375 60.5078125 C17.22378931 60.75362084 13.55268321 59.95364595 9 56 C8.67 55.67 8.34 55.34 8 55 C7.67 56.32 7.34 57.64 7 59 C4.69 59 2.38 59 0 59 C0 39.53 0 20.06 0 0 Z " fill="#0B0B0B" transform="translate(104,325)"/>
<path d="M0 0 C0.98613281 -0.020625 1.97226562 -0.04125 2.98828125 -0.0625 C8.91554881 -0.0941543 13.17045608 0.33628592 18.375 3.25 C22.87352844 8.10367542 23.72537335 11.24512774 23.66015625 17.7109375 C23.04757052 23.16546801 19.23314149 26.66744005 15.375 30.25 C16.14199219 31.04921875 16.90898438 31.8484375 17.69921875 32.671875 C20.93607568 36.55838681 21.99683716 40.6592724 23.1875 45.5 C23.51137695 46.72203125 23.51137695 46.72203125 23.84179688 47.96875 C25.375 53.8484623 25.375 53.8484623 25.375 56.25 C22.735 56.25 20.095 56.25 17.375 56.25 C15.26022158 51.39417832 14.3002822 46.48068059 13.25390625 41.30859375 C12.34904726 38.15968445 11.78046645 36.46447448 9.375 34.25 C6.19898792 33.33354103 6.19898792 33.33354103 2.6875 33 C0.604375 32.7525 -1.47875 32.505 -3.625 32.25 C-3.625 40.17 -3.625 48.09 -3.625 56.25 C-6.265 56.25 -8.905 56.25 -11.625 56.25 C-11.65026563 48.43547248 -11.66783105 40.62095542 -11.67993164 32.80639648 C-11.68497383 30.14558519 -11.69180736 27.48477668 -11.70043945 24.82397461 C-11.71251009 21.00894484 -11.71822929 17.19395156 -11.72265625 13.37890625 C-11.72781754 12.18100967 -11.73297882 10.9831131 -11.73829651 9.74891663 C-11.73837204 8.6478508 -11.73844757 7.54678497 -11.73852539 6.41235352 C-11.740746 5.43750504 -11.74296661 4.46265656 -11.74525452 3.45826721 C-11.45110834 -1.94322097 -4.13833118 0.0211409 0 0 Z " fill="#0C0C0C" transform="translate(31.625,327.75)"/>
<path d="M0 0 C4.58803262 2.65524178 7.60807534 6.4056466 9.5625 11.3125 C9.86328125 14.7734375 9.86328125 14.7734375 9.875 18.6875 C9.89175781 19.97398437 9.90851563 21.26046875 9.92578125 22.5859375 C9.29518688 29.05461527 6.47510852 33.18144283 1.5625 37.3125 C-4.02226734 40.48815202 -9.14884213 41.19822646 -15.4375 40.3125 C-20.76161852 38.61389615 -24.40850161 36.08899745 -27.4375 31.3125 C-30.43825262 25.00657058 -30.60169815 17.62073026 -28.78515625 10.8984375 C-26.54327801 5.91434768 -22.95191442 2.33956675 -18.4375 -0.6875 C-12.45625337 -2.68124888 -5.76315978 -2.68658576 0 0 Z " fill="#090909" transform="translate(87.4375,344.6875)"/>
<path d="M0 0 C2.64 0 5.28 0 8 0 C8 7.59 8 15.18 8 23 C16.91 23 25.82 23 35 23 C35 15.41 35 7.82 35 0 C37.64 0 40.28 0 43 0 C43 18.48 43 36.96 43 56 C40.36 56 37.72 56 35 56 C35 47.42 35 38.84 35 30 C26.09 30 17.18 30 8 30 C8 38.58 8 47.16 8 56 C5.36 56 2.72 56 0 56 C0 37.52 0 19.04 0 0 Z " fill="#0F0F0F" transform="translate(267,328)"/>
<path d="M0 0 C3.5621921 2.88544997 5.30629616 5.45283242 6.74609375 9.828125 C6.97314453 13.1496582 6.97314453 13.1496582 6.94140625 16.87890625 C6.93857635 17.53771286 6.93574646 18.19651947 6.93283081 18.87528992 C6.92170299 20.96392562 6.89661323 23.05212056 6.87109375 25.140625 C6.86105434 26.56314482 6.85193017 27.9856714 6.84375 29.40820312 C6.82178822 32.88165181 6.78731021 36.35484533 6.74609375 39.828125 C4.43609375 39.828125 2.12609375 39.828125 -0.25390625 39.828125 C-0.58390625 38.838125 -0.91390625 37.848125 -1.25390625 36.828125 C-1.85203125 37.3025 -2.45015625 37.776875 -3.06640625 38.265625 C-7.42850569 41.38141032 -12.07998435 41.47265793 -17.25390625 40.828125 C-20.41080359 39.22097726 -22.44806381 37.85374266 -24.62890625 35.078125 C-25.88158433 30.56848391 -25.83967015 26.50731485 -24.31640625 22.140625 C-19.43577149 16.66839815 -13.91161262 14.62157613 -6.69140625 14.015625 C-4.87976073 13.931941 -3.06716946 13.8618744 -1.25390625 13.828125 C-1.85252367 11.47641369 -2.52314977 9.1421872 -3.25390625 6.828125 C-5.82121399 5.54447113 -7.70043622 5.69536865 -10.56640625 5.703125 C-11.51128906 5.70054687 -12.45617187 5.69796875 -13.4296875 5.6953125 C-16.13986361 5.822762 -18.6136421 6.22216274 -21.25390625 6.828125 C-21.58390625 5.178125 -21.91390625 3.528125 -22.25390625 1.828125 C-15.44251996 -1.31559175 -7.06532124 -3.67347725 0 0 Z " fill="#0F0F0F" transform="translate(341.25390625,344.171875)"/>
<path d="M0 0 C4.12593192 2.87855716 7.06537651 6.00862953 8.6875 10.875 C8.6875 14.505 8.6875 18.135 8.6875 21.875 C-0.5525 21.875 -9.7925 21.875 -19.3125 21.875 C-17.07113873 29.53016421 -17.07113873 29.53016421 -13.3125 32.875 C-7.57116039 34.95190871 -0.12519927 34.42505314 5.6875 32.875 C6.1825 35.845 6.1825 35.845 6.6875 38.875 C-0.296246 41.53243759 -8.34007129 42.36842569 -15.6015625 40.1875 C-19.95618836 37.88549514 -24.29946654 33.81792631 -25.9296875 29.08203125 C-27.56468358 19.65577835 -26.73104708 12.06176109 -21.5 4.125 C-15.50145621 -2.04493075 -7.90649877 -2.685226 0 0 Z " fill="#0D0D0D" transform="translate(175.3125,344.125)"/>
<path d="M0 0 C2.64 0 5.28 0 8 0 C8.16248762 9.2665317 8.28671755 18.53257003 8.3626852 27.80021763 C8.39915422 32.10406013 8.44858473 36.40692514 8.52807617 40.71020508 C8.60436808 44.86648538 8.6460379 49.02182813 8.6641407 53.17875481 C8.67703384 54.76124769 8.70221289 56.34369159 8.7401104 57.92578316 C9.02509636 70.3206148 9.02509636 70.3206148 6.4302063 74.57174683 C4.70459161 76.33793762 3.11935616 77.74082311 1 79 C0.67 79 0.34 79 0 79 C0 52.93 0 26.86 0 0 Z " fill="#9F243D" transform="translate(242,0)"/>
<path d="M0 0 C0 1.65 0 3.3 0 5 C-3 6 -3 6 -6.5625 6.375 C-7.696875 6.58125 -8.83125 6.7875 -10 7 C-12.02350324 10.03525486 -12.32124018 11.19426202 -12.625 14.6875 C-12.74875 16.110625 -12.8725 17.53375 -13 19 C-9.7 19 -6.4 19 -3 19 C-3 20.65 -3 22.3 -3 24 C-6.3 24 -9.6 24 -13 24 C-13 35.55 -13 47.1 -13 59 C-15.64 59 -18.28 59 -21 59 C-21 47.45 -21 35.9 -21 24 C-22.65 24 -24.3 24 -26 24 C-26 22.35 -26 20.7 -26 19 C-24.35 19 -22.7 19 -21 19 C-21.12375 17.2675 -21.12375 17.2675 -21.25 15.5 C-21.25 10.61816045 -19.70353298 7.01826477 -17 3 C-12.66409412 -1.20040882 -5.57601257 -2.78800629 0 0 Z " fill="#0D0D0D" transform="translate(396,325)"/>
<path d="M0 0 C4.76379786 2.58902058 6.38885468 5.91217268 8 11 C8.71041987 17.39377884 7.54220205 21.63115718 4 27 C2.06170512 29.29723837 0.85741159 29.85817252 -2.078125 30.34375 C-6.43441413 30.63224597 -8.38660246 30.46983641 -11.9375 27.75 C-16.6832625 21.42231666 -16.80459612 15.80361296 -16 8 C-13.17656321 0.4754714 -7.32113083 -1.01825587 0 0 Z " fill="#F8F8F8" transform="translate(82,349)"/>
<path d="M0 0 C4.23986415 1.92721098 6.96904308 4.37574603 8.6875 8.75 C9.62542016 15.50302514 9.16647966 20.01887175 6 26 C3.34260568 29.3217429 0.91217116 29.89673534 -3.3125 30.375 C-8.20301701 29.87765929 -9.57084492 28.42915508 -13 25 C-14.55010133 21.89979734 -14.30795676 18.65092097 -14.375 15.25 C-14.41238281 14.54617188 -14.44976562 13.84234375 -14.48828125 13.1171875 C-14.55537242 9.10662643 -14.17305918 6.70975923 -11.6015625 3.546875 C-7.66895949 -0.30306068 -5.46846852 -0.37074363 0 0 Z " fill="#F9F9F9" transform="translate(126,349)"/>
<path d="M0 0 C1.4540625 0.0309375 1.4540625 0.0309375 2.9375 0.0625 C2.9375 3.6925 2.9375 7.3225 2.9375 11.0625 C6.5675 11.0625 10.1975 11.0625 13.9375 11.0625 C13.9375 12.7125 13.9375 14.3625 13.9375 16.0625 C10.3075 16.0625 6.6775 16.0625 2.9375 16.0625 C3.07800068 20.1669136 3.2246601 24.27094525 3.375 28.375 C3.41431641 29.54224609 3.45363281 30.70949219 3.49414062 31.91210938 C3.55698242 33.58950195 3.55698242 33.58950195 3.62109375 35.30078125 C3.65775146 36.33243408 3.69440918 37.36408691 3.73217773 38.42700195 C3.83911242 41.16998258 3.83911242 41.16998258 4.9375 44.0625 C6.81137216 44.86462628 6.81137216 44.86462628 9 45.25 C10.10021484 45.48783203 10.10021484 45.48783203 11.22265625 45.73046875 C11.78855469 45.84003906 12.35445312 45.94960938 12.9375 46.0625 C12.980221 47.72861905 12.97813832 49.39632885 12.9375 51.0625 C11.29593264 52.70406736 9.44534199 52.35065992 7.1875 52.4375 C3.12712832 52.41426468 2.22109537 52.2824311 -1.125 49.6875 C-4.11849139 45.63180199 -4.18203481 43.55550536 -4.16015625 38.5234375 C-4.15532227 36.57050781 -4.15532227 36.57050781 -4.15039062 34.578125 C-4.14203466 33.19791601 -4.13356971 31.81770768 -4.125 30.4375 C-4.11998501 29.04948074 -4.1154221 27.66145978 -4.11132812 26.2734375 C-4.09950976 22.86974868 -4.08303434 19.46614561 -4.0625 16.0625 C-6.0425 16.0625 -8.0225 16.0625 -10.0625 16.0625 C-10.0625 14.4125 -10.0625 12.7625 -10.0625 11.0625 C-8.0825 11.0625 -6.1025 11.0625 -4.0625 11.0625 C-4.07410156 10.35222656 -4.08570313 9.64195312 -4.09765625 8.91015625 C-4.11119141 7.53150391 -4.11119141 7.53150391 -4.125 6.125 C-4.13660156 5.20847656 -4.14820313 4.29195313 -4.16015625 3.34765625 C-4.00919455 -0.18484756 -3.60673121 0.07360676 0 0 Z " fill="#050505" transform="translate(228.0625,332.9375)"/>
<path d="M0 0 C2.64 0 5.28 0 8 0 C8 19.47 8 38.94 8 59 C5.36 59 2.72 59 0 59 C0 39.53 0 20.06 0 0 Z " fill="#080808" transform="translate(357,325)"/>
<path d="M0 0 C0 2.31 0 4.62 0 7 C-1.6396875 7.4021875 -1.6396875 7.4021875 -3.3125 7.8125 C-7.30866272 9.09308312 -7.30866272 9.09308312 -10 12 C-11.36839363 14.73678725 -11.21634818 17.04264424 -11.31640625 20.1015625 C-11.35830078 21.31328125 -11.40019531 22.525 -11.44335938 23.7734375 C-11.48267578 25.04445313 -11.52199219 26.31546875 -11.5625 27.625 C-11.60568359 28.90375 -11.64886719 30.1825 -11.69335938 31.5 C-11.79969886 34.66655348 -11.90172833 37.83318753 -12 41 C-14.64 41 -17.28 41 -20 41 C-20 27.8 -20 14.6 -20 1 C-17.69 1 -15.38 1 -13 1 C-12.67 2.32 -12.34 3.64 -12 5 C-11.13375 4.175 -10.2675 3.35 -9.375 2.5 C-6.25207583 -0.13961448 -4.12269101 -0.49079655 0 0 Z " fill="#0C0C0C" transform="translate(213,343)"/>
<path d="M0 0 C17.16 0 34.32 0 52 0 C52 4.95 52 9.9 52 15 C51.67 15 51.34 15 51 15 C51 10.38 51 5.76 51 1 C34.83 1.33 18.66 1.66 2 2 C1.67 54.47 1.34 106.94 1 161 C1.99 160.67 2.98 160.34 4 160 C5.47800494 159.91837682 6.959473 159.89249068 8.43969727 159.90234375 C9.33394913 159.90564697 10.22820099 159.9089502 11.14955139 159.91235352 C12.11211349 159.92065186 13.0746756 159.9289502 14.06640625 159.9375 C15.05624008 159.94128662 16.04607391 159.94507324 17.06590271 159.94897461 C20.23147898 159.96120553 23.39696488 159.97983888 26.5625 160 C30.73046623 160.02650134 34.89838785 160.04653977 39.06640625 160.0625 C40.51328575 160.07494751 40.51328575 160.07494751 41.98939514 160.08764648 C43.32604469 160.09260132 43.32604469 160.09260132 44.68969727 160.09765625 C45.47562759 160.10289307 46.26155792 160.10812988 47.07130432 160.11352539 C49.08402346 160.12210692 49.08402346 160.12210692 51 159 C51.33 131.61 51.66 104.22 52 76 C52.33 76 52.66 76 53 76 C53 104.38 53 132.76 53 162 C35.51 162 18.02 162 0 162 C0 108.54 0 55.08 0 0 Z " fill="#EECED7" transform="translate(65,64)"/>
<path d="M0 0 C3.99935107 1.5185506 6.59504503 3.39256754 9 7 C9.45681807 11.11136265 9.45731782 13.26502493 7.25 16.8125 C4.20055084 19.77724224 2.27589125 20.91736456 -2.015625 21.1953125 C-5.01041667 21.13020833 -8.00520833 21.06510417 -11 21 C-11 14.4 -11 7.8 -11 1 C-7.52172208 -0.73913896 -3.8029119 -0.45982922 0 0 Z " fill="#F8F8F8" transform="translate(39,333)"/>
<path d="M0 0 C2.0625 1.5625 2.0625 1.5625 3 4 C3.62869315 8.95095859 3.77903011 10.86686529 0.9375 15 C-2.76272533 17.51930235 -4.6031656 17.7066341 -9 17 C-11.75329021 15.20437595 -13.52627461 13.94745078 -15 11 C-15.43023798 7.12785818 -15.31669086 5.47503629 -13.125 2.1875 C-9.09988631 -1.95599939 -5.35896048 -1.23668319 0 0 Z " fill="#222222" transform="translate(411,328)"/>
<path d="M0 0 C0.33 0 0.66 0 1 0 C1.15356844 11.97797122 1.30175022 23.9559956 1.4429636 35.93411922 C1.50869859 41.49542336 1.57632261 47.05669142 1.64819336 52.61791992 C1.71742242 57.98002645 1.78178143 63.34217091 1.84269524 68.70437813 C1.86685948 70.75502221 1.89280928 72.80564601 1.92053413 74.85624504 C1.95892566 77.71785177 1.99109378 80.57946336 2.02172852 83.44116211 C2.03467453 84.29783478 2.04762054 85.15450745 2.06095886 86.03713989 C2.07900194 88.0247819 2.04526206 90.0127915 2 92 C0.38025065 93.61974935 -1.41668133 93.15746663 -3.65576172 93.18945312 C-4.64704071 93.20617065 -5.6383197 93.22288818 -6.65963745 93.2401123 C-7.73875397 93.25368774 -8.81787048 93.26726318 -9.9296875 93.28125 C-11.03095978 93.29965942 -12.13223206 93.31806885 -13.26687622 93.33703613 C-16.80286129 93.39599895 -20.33889579 93.44871043 -23.875 93.5 C-28.518334 93.56755088 -33.16150986 93.64126692 -37.8046875 93.71875 C-39.41728958 93.73911316 -39.41728958 93.73911316 -41.06246948 93.7598877 C-42.0600528 93.77660522 -43.05763611 93.79332275 -44.08544922 93.81054688 C-44.96401581 93.82307495 -45.8425824 93.83560303 -46.74777222 93.84851074 C-49.16894496 93.91639921 -49.16894496 93.91639921 -52 95 C-52 94.34 -52 93.68 -52 93 C-52.66 93 -53.32 93 -54 93 C-53.67 91.68 -53.34 90.36 -53 89 C-53 89.66 -53 90.32 -53 91 C-35.51 91 -18.02 91 0 91 C0 60.97 0 30.94 0 0 Z " fill="#A4475B" transform="translate(242,135)"/>
<path d="M0 0 C1.21236328 0.01353516 1.21236328 0.01353516 2.44921875 0.02734375 C3.37154297 0.04474609 3.37154297 0.04474609 4.3125 0.0625 C5.08132007 8.86121863 5.08132007 8.86121863 2.3125 13.1875 C-1.81267552 15.7657347 -3.87786119 15.68309856 -8.6875 15.0625 C-10.6875 14 -10.6875 14 -11.6875 12.0625 C-12.19876266 8.04543626 -12.37148851 5.95876081 -9.875 2.6875 C-6.57601841 0.23682796 -3.98764323 -0.05779193 0 0 Z " fill="#F8F8F8" transform="translate(335.6875,363.9375)"/>
<path d="M0 0 C2.70226458 2.70226458 2.23664397 4.7978827 2.24884033 8.4680481 C2.24164978 9.37722992 2.23445923 10.28641174 2.22705078 11.22314453 C2.22734283 12.1792865 2.22763489 13.13542847 2.22793579 14.12054443 C2.22653876 17.29139172 2.21095999 20.46200609 2.1953125 23.6328125 C2.1915837 25.82713696 2.1887361 28.02146308 2.18673706 30.21578979 C2.17909015 35.99937514 2.15943259 41.78286049 2.1373291 47.56640625 C2.11689343 53.46482999 2.10774023 59.36326984 2.09765625 65.26171875 C2.07618769 76.84118984 2.04203902 88.42058661 2 100 C1.01 100 0.02 100 -1 100 C-0.67 67 -0.34 34 0 0 Z " fill="#8D253D" transform="translate(297,126)"/>
<path d="M0 0 C3.3125 2.0625 3.3125 2.0625 6 5 C6.33 7.31 6.66 9.62 7 12 C0.07 12 -6.86 12 -14 12 C-11.8737405 4.55809176 -9.09885025 -1.8955938 0 0 Z " fill="#F6F6F6" transform="translate(170,348)"/>
<path d="M0 0 C0.33 0 0.66 0 1 0 C1.042721 1.66611905 1.04063832 3.33382885 1 5 C0.67 5.33 0.34 5.66 0 6 C-0.23192865 7.51469448 -0.41215238 9.03754562 -0.5625 10.5625 C-0.64628906 11.38878906 -0.73007813 12.21507812 -0.81640625 13.06640625 C-0.87699219 13.70449219 -0.93757813 14.34257812 -1 15 C-1.66 15 -2.32 15 -3 15 C-3 44.04 -3 73.08 -3 103 C-3.33 103 -3.66 103 -4 103 C-4.09294778 91.1947356 -4.16389049 79.3895592 -4.20724869 67.58400249 C-4.22806533 62.1013611 -4.25627437 56.61897126 -4.30175781 51.13647461 C-4.34542726 45.83908958 -4.36918159 40.54194554 -4.37950897 35.2443943 C-4.38686259 33.22990949 -4.40122197 31.2154369 -4.42292023 29.20105553 C-4.632422 8.93368704 -4.632422 8.93368704 0 0 Z " fill="#94233C" transform="translate(122,123)"/>
<path d="M0 0 C2.5 0.5 2.5 0.5 4.875 2.0625 C6.5 4.5 6.5 4.5 6.25 8.25 C6.0025 9.3225 5.755 10.395 5.5 11.5 C3.9375 10.3125 3.9375 10.3125 2.5 8.5 C2.8125 5.8125 2.8125 5.8125 3.5 3.5 C1.19 3.5 -1.12 3.5 -3.5 3.5 C-3.5 6.47 -3.5 9.44 -3.5 12.5 C-2.84 12.5 -2.18 12.5 -1.5 12.5 C-1.5 11.18 -1.5 9.86 -1.5 8.5 C-0.51 8.83 0.48 9.16 1.5 9.5 C1.5 10.49 1.5 11.48 1.5 12.5 C2.16 12.83 2.82 13.16 3.5 13.5 C3.17 13.83 2.84 14.16 2.5 14.5 C-0.9375 14.25 -0.9375 14.25 -4.5 13.5 C-6.82749345 10.00875983 -7.00299316 8.60777749 -6.5 4.5 C-4.51677007 1.7087875 -3.37013879 0.67402776 0 0 Z " fill="#CFCFCF" transform="translate(405.5,328.5)"/>
<path d="M0 0 C1.32 0 2.64 0 4 0 C4.12375 0.639375 4.2475 1.27875 4.375 1.9375 C4.684375 2.9584375 4.684375 2.9584375 5 4 C5.66 4.33 6.32 4.66 7 5 C7 4.01 7 3.02 7 2 C9.64 2 12.28 2 15 2 C14.360625 2.495 13.72125 2.99 13.0625 3.5 C9.56674621 6.35367656 6.23213813 9.35892103 2.890625 12.390625 C1 14 1 14 0 14 C0 9.38 0 4.76 0 0 Z " fill="#962139" transform="translate(117,64)"/>
<path d="M0 0 C0.33 0 0.66 0 1 0 C1 16.17 1 32.34 1 49 C-4.61 49 -10.22 49 -16 49 C-16 48.67 -16 48.34 -16 48 C-15.09636719 47.93941406 -14.19273437 47.87882812 -13.26171875 47.81640625 C-12.08222656 47.73261719 -10.90273437 47.64882812 -9.6875 47.5625 C-8.51574219 47.48128906 -7.34398437 47.40007812 -6.13671875 47.31640625 C-2.97409042 47.1132629 -2.97409042 47.1132629 0 46 C0 30.82 0 15.64 0 0 Z " fill="#FFEEFA" transform="translate(162,60)"/>
<path d="M0 0 C14.77215541 0.49582466 29.62231541 1.07227048 43 8 C42.67 8.99 42.34 9.98 42 11 C41.06800781 10.59007813 40.13601563 10.18015625 39.17578125 9.7578125 C27.66966061 4.83834182 16.87552698 3.00665044 4.36328125 2.34375 C2 2 2 2 0 0 Z " fill="#932840" transform="translate(280,57)"/>
<path d="M0 0 C2.31 0 4.62 0 7 0 C7.12375 1.0725 7.2475 2.145 7.375 3.25 C7.89643936 6.37863615 8.40088254 8.33480424 10 11 C8.02 11.99 8.02 11.99 6 13 C5.855625 12.401875 5.71125 11.80375 5.5625 11.1875 C5.1127561 9.43849596 4.57107659 7.71322977 4 6 C3.34 5.67 2.68 5.34 2 5 C2 6.32 2 7.64 2 9 C1.34 9 0.68 9 0 9 C0 6.03 0 3.06 0 0 Z " fill="#2B2B2B" transform="translate(402,332)"/>
<path d="M0 0 C0.2475 0.5775 0.495 1.155 0.75 1.75 C2.21502278 4.38704101 3.67502077 6.07358864 6 8 C8.64184541 8.79681318 8.64184541 8.79681318 11 9 C11 9.66 11 10.32 11 11 C7.32823991 11.34155908 5.41971069 11.24249951 2.1875 9.375 C-0.41845733 6.5456749 -0.83111185 4.79998336 -1 1 C-0.67 0.67 -0.34 0.34 0 0 Z " fill="#101010" transform="translate(397,334)"/>
<path d="M0 0 C3.20863349 -0.35651483 4.64001006 -0.23683549 7.375 1.5625 C9 4 9 4 8.75 7.75 C8.5025 8.8225 8.255 9.895 8 11 C6.5 9.8125 6.5 9.8125 5 8 C4.8125 5.3125 4.8125 5.3125 5 3 C2.03 2.505 2.03 2.505 -1 2 C-0.67 1.34 -0.34 0.68 0 0 Z " fill="#E8E8E8" transform="translate(403,329)"/>
<path d="M0 0 C0.33 0 0.66 0 1 0 C1.042721 1.66611905 1.04063832 3.33382885 1 5 C0.67 5.33 0.34 5.66 0 6 C-0.23192865 7.51469448 -0.41215238 9.03754562 -0.5625 10.5625 C-0.64628906 11.38878906 -0.73007813 12.21507812 -0.81640625 13.06640625 C-0.87699219 13.70449219 -0.93757813 14.34257812 -1 15 C-1.99 15 -2.98 15 -4 15 C-3.50341703 9.33895411 -2.45489316 5.12325529 0 0 Z " fill="#963248" transform="translate(122,123)"/>
<path d="M0 0 C0.33 0 0.66 0 1 0 C1 2.64 1 5.28 1 8 C-4.61 8 -10.22 8 -16 8 C-16 7.67 -16 7.34 -16 7 C-14.64455078 6.90912109 -14.64455078 6.90912109 -13.26171875 6.81640625 C-12.08222656 6.73261719 -10.90273437 6.64882812 -9.6875 6.5625 C-7.92986328 6.44068359 -7.92986328 6.44068359 -6.13671875 6.31640625 C-2.97409042 6.1132629 -2.97409042 6.1132629 0 5 C0 3.35 0 1.7 0 0 Z " fill="#F0CAD1" transform="translate(162,101)"/>
<path d="M0 0 C5.27323808 -0.68041782 9.39388711 1.75213663 14 4 C13.67 4.99 13.34 5.98 13 7 C8.71 5.35 4.42 3.7 0 2 C0 1.34 0 0.68 0 0 Z " fill="#933449" transform="translate(309,61)"/>
<path d="M0 0 C0.66 0.33 1.32 0.66 2 1 C2.125 8.75 2.125 8.75 1 11 C0.01 10.67 -0.98 10.34 -2 10 C-1.85950482 8.52031676 -1.71245174 7.04125484 -1.5625 5.5625 C-1.48128906 4.73878906 -1.40007812 3.91507812 -1.31640625 3.06640625 C-1 1 -1 1 0 0 Z " fill="#0F0F0F" transform="translate(412,331)"/>
<path d="M0 0 C2.64 0 5.28 0 8 0 C5.11912454 2.40072955 2.43595166 4.47291037 -1 6 C-0.67 4.02 -0.34 2.04 0 0 Z " fill="#963146" transform="translate(124,66)"/>
<path d="M0 0 C0.99 0.33 1.98 0.66 3 1 C3 1.99 3 2.98 3 4 C3.66 4.33 4.32 4.66 5 5 C4 6 4 6 1.4375 6.0625 C0.2309375 6.0315625 0.2309375 6.0315625 -1 6 C-1.33 5.34 -1.66 4.68 -2 4 C-1.34 4 -0.68 4 0 4 C0 2.68 0 1.36 0 0 Z " fill="#E4E4E4" transform="translate(404,337)"/>
<path d="M0 0 C0.33 0.66 0.66 1.32 1 2 C-5.93 1.505 -5.93 1.505 -13 1 C-7.52147168 -1.73926416 -5.65594802 -2.33615244 0 0 Z " fill="#F8D6DC" transform="translate(281,106)"/>
<path d="M0 0 C3.0916909 2.52956528 3.90931332 5.22454612 5 9 C4.34 9 3.68 9 3 9 C2.731875 8.030625 2.46375 7.06125 2.1875 6.0625 C1.795625 5.051875 1.40375 4.04125 1 3 C0.01 2.67 -0.98 2.34 -2 2 C-1.34 1.34 -0.68 0.68 0 0 Z " fill="#963449" transform="translate(292,115)"/>
<path d="M0 0 C-2.00993705 2.00993705 -3.59211232 2.89940919 -6.125 4.125 C-6.84945313 4.47820312 -7.57390625 4.83140625 -8.3203125 5.1953125 C-8.87460938 5.46085937 -9.42890625 5.72640625 -10 6 C-10 5.01 -10 4.02 -10 3 C-6.62637846 0.39749195 -4.23092172 -0.36265043 0 0 Z " fill="#903447" transform="translate(264,63)"/>
<path d="M0 0 C1.98 0.495 1.98 0.495 4 1 C3.67 2.32 3.34 3.64 3 5 C1.68 5 0.36 5 -1 5 C-0.67 3.35 -0.34 1.7 0 0 Z " fill="#9B2740" transform="translate(250,65)"/>
<path d="M0 0 C2.97 0 5.94 0 9 0 C8.67 0.66 8.34 1.32 8 2 C2.55072464 3.27536232 2.55072464 3.27536232 0 2 C0 1.34 0 0.68 0 0 Z " fill="#8D3246" transform="translate(140,59)"/>
<path d="M0 0 C-1 3 -1 3 -3.375 4.75 C-6 6 -6 6 -9 5 C-7.87926138 4.16094435 -6.75325453 3.32892169 -5.625 2.5 C-4.99851563 2.0359375 -4.37203125 1.571875 -3.7265625 1.09375 C-2 0 -2 0 0 0 Z " fill="#91364B" transform="translate(135,112)"/>
<path d="M0 0 C0.66 0.33 1.32 0.66 2 1 C0.12050295 4.57104439 -1.17053157 6.54744301 -5 8 C-3.8141763 4.62496331 -2.72426311 2.35277269 0 0 Z " fill="#191919" transform="translate(156,346)"/>
<path d="M0 0 C-2.8125 2.0625 -2.8125 2.0625 -6 4 C-6.99 3.67 -7.98 3.34 -9 3 C-7.01532024 -0.96935951 -3.9567243 -1.41311582 0 0 Z " fill="#FAE2E8" transform="translate(135,112)"/>
</svg>
