<?xml version="1.0" encoding="UTF-8"?>
<svg version="1.1" xmlns="http://www.w3.org/2000/svg" width="400" height="400">
<path d="M0 0 C132 0 264 0 400 0 C400 132 400 264 400 400 C268 400 136 400 0 400 C0 268 0 136 0 0 Z " fill="#005CA7" transform="translate(0,0)"/>
<path d="M0 0 C1.97909398 -0.02686553 3.95828971 -0.04633375 5.9375 -0.0625 C7.03964844 -0.07410156 8.14179687 -0.08570313 9.27734375 -0.09765625 C12 0 12 0 13 1 C13.07179964 2.51928038 13.08392007 4.04167482 13.0625 5.5625 C13.05347656 6.38878906 13.04445313 7.21507812 13.03515625 8.06640625 C13.02355469 8.70449219 13.01195313 9.34257812 13 10 C13.66 9.67 14.32 9.34 15 9 C17.27734375 8.76171875 17.27734375 8.76171875 19.9375 8.6875 C21.25041016 8.63142578 21.25041016 8.63142578 22.58984375 8.57421875 C25 9 25 9 26.81640625 11.01953125 C27.40228516 11.99986328 27.40228516 11.99986328 28 13 C28.495 12.54625 28.99 12.0925 29.5 11.625 C35.8312696 7.50967476 42.58347746 7.81067349 49.8125 8.375 C51.48565495 8.48730941 53.15883119 8.59930223 54.83203125 8.7109375 C55.56139893 8.76556152 56.2907666 8.82018555 57.04223633 8.87646484 C58.69205595 8.98056869 60.34689916 9 62 9 C62 10.98 62 12.96 62 15 C62.66 15 63.32 15 64 15 C64.185625 13.948125 64.185625 13.948125 64.375 12.875 C66.18644068 4.54237288 66.18644068 4.54237288 70 2 C72.69921875 1.8046875 72.69921875 1.8046875 75.6875 1.875 C77.17830078 1.90207031 77.17830078 1.90207031 78.69921875 1.9296875 C79.45847656 1.95289063 80.21773438 1.97609375 81 2 C80.51421457 5.12290635 80.0013988 7.99580359 79 11 C80.03060547 10.87431641 80.03060547 10.87431641 81.08203125 10.74609375 C81.98308594 10.64425781 82.88414062 10.54242188 83.8125 10.4375 C84.70582031 10.33308594 85.59914063 10.22867188 86.51953125 10.12109375 C89 10 89 10 92 11 C93.20156499 15.21460936 92.74143855 17.66719349 91.234375 21.74609375 C90.83863281 22.83083984 90.44289063 23.91558594 90.03515625 25.03320312 C89.61105469 26.15662109 89.18695313 27.28003906 88.75 28.4375 C88.34136719 29.55705078 87.93273437 30.67660156 87.51171875 31.83007812 C81.66561477 47.66719262 81.66561477 47.66719262 75 51 C70.54745934 51.45280074 68.75456567 51.50304378 65 49 C64.505 49.99 64.505 49.99 64 51 C62.22950311 51.05410687 60.45853151 51.09284119 58.6875 51.125 C57.20830078 51.15980469 57.20830078 51.15980469 55.69921875 51.1953125 C53 51 53 51 50 49 C50 49.66 50 50.32 50 51 C46.04 51 42.08 51 38 51 C38 50.34 38 49.68 38 49 C37.18402344 49.48726562 37.18402344 49.48726562 36.3515625 49.984375 C33.53962719 51.19883211 31.4289378 51.26646328 28.375 51.25 C27.41335937 51.25515625 26.45171875 51.2603125 25.4609375 51.265625 C23 51 23 51 21 49 C20.34 49.99 19.68 50.98 19 52 C19 51.34 19 50.68 19 50 C16.525 50.495 16.525 50.495 14 51 C14 51.66 14 52.32 14 53 C11.87465341 52.85930804 9.74972471 52.71229079 7.625 52.5625 C6.44164063 52.48128906 5.25828125 52.40007812 4.0390625 52.31640625 C1 52 1 52 -1 51 C-2.99651809 50.79581065 -4.99759821 50.63477704 -7 50.5 C-12.77777778 50.11111111 -12.77777778 50.11111111 -15 49 C-15.68290269 41.31734473 -12.6403866 35.12313388 -9.84375 28.09375 C-7.78886561 22.75105058 -6.63520796 18.71507526 -7 13 C-6.67 12.34 -6.34 11.68 -6 11 C-5.01 11 -4.02 11 -3 11 C-2.01 7.37 -1.02 3.74 0 0 Z " fill="#0E5A9F" transform="translate(68,170)"/>
<path d="M0 0 C2.6015625 -0.29296875 2.6015625 -0.29296875 5.625 -0.1875 C7.12933594 -0.14689453 7.12933594 -0.14689453 8.6640625 -0.10546875 C9.43492187 -0.07066406 10.20578125 -0.03585938 11 0 C10.51421457 3.12290635 10.0013988 5.99580359 9 9 C9.68707031 8.91621094 10.37414062 8.83242187 11.08203125 8.74609375 C11.98308594 8.64425781 12.88414062 8.54242188 13.8125 8.4375 C14.70582031 8.33308594 15.59914062 8.22867188 16.51953125 8.12109375 C19 8 19 8 22 9 C23.20156499 13.21460936 22.74143855 15.66719349 21.234375 19.74609375 C20.83863281 20.83083984 20.44289062 21.91558594 20.03515625 23.03320312 C19.61105469 24.15662109 19.18695313 25.28003906 18.75 26.4375 C18.34136719 27.55705078 17.93273437 28.67660156 17.51171875 29.83007812 C11.66561477 45.66719262 11.66561477 45.66719262 5 49 C0.54745934 49.45280074 -1.24543433 49.50304378 -5 47 C-5.33 47.66 -5.66 48.32 -6 49 C-9.63 49 -13.26 49 -17 49 C-16.40063227 43.27620502 -14.87921953 38.28446934 -12.91015625 32.890625 C-12.60556992 32.0419989 -12.30098358 31.1933728 -11.98716736 30.31903076 C-11.34564297 28.53623757 -10.70085635 26.75461524 -10.05297852 24.97412109 C-9.06154644 22.24737741 -8.08178098 19.51664774 -7.10351562 16.78515625 C-6.47724578 15.04923251 -5.85031558 13.31354683 -5.22265625 11.578125 C-4.92988297 10.76249084 -4.63710968 9.94685669 -4.33546448 9.10650635 C-4.0585527 8.34851746 -3.78164093 7.59052856 -3.49633789 6.80957031 C-3.25508682 6.14451477 -3.01383575 5.47945923 -2.76527405 4.79425049 C-2 3 -2 3 0 0 Z " fill="#F1F8FA" transform="translate(138,172)"/>
<path d="M0 0 C3.96 0 7.92 0 12 0 C10.57795034 7.6288782 8.07241293 14.74805356 5.36914062 22.00195312 C4.62735779 23.99366925 3.89503612 25.98866985 3.1640625 27.984375 C0.66568893 34.76739279 -1.96377466 41.43829974 -5 48 C-5.98742187 47.98839844 -6.97484375 47.97679687 -7.9921875 47.96484375 C-9.27351563 47.95582031 -10.55484375 47.94679687 -11.875 47.9375 C-13.78925781 47.92009766 -13.78925781 47.92009766 -15.7421875 47.90234375 C-18.88664652 47.76823431 -18.88664652 47.76823431 -21 49 C-27.15710254 49.44778928 -27.15710254 49.44778928 -30 47.9375 C-31.92323377 44.21123457 -30.33709045 40.06669259 -29.13427734 36.26049805 C-28.02921423 33.11404589 -26.86878954 29.99360437 -25.6875 26.875 C-25.29626953 25.80378906 -24.90503906 24.73257813 -24.50195312 23.62890625 C-20.23499134 12.26449394 -20.23499134 12.26449394 -15.125 8.6875 C-10.37417516 7.15046843 -7.42327611 7.78836195 -3 10 C-2.01 6.7 -1.02 3.4 0 0 Z " fill="#F5F9FB" transform="translate(292,172)"/>
<path d="M0 0 C2.50864137 2.97901163 2.75709981 4.49309518 3 8.375 C2.39432324 11.2523277 1.41759597 13.9421397 0.375 16.6875 C0.09720703 17.43862061 -0.18058594 18.18974121 -0.46679688 18.96362305 C-6.29137685 34.35310966 -6.29137685 34.35310966 -14 38.375 C-17.0510635 39.39202117 -19.24199061 39.54082083 -22.4375 39.5625 C-23.85869141 39.58376953 -23.85869141 39.58376953 -25.30859375 39.60546875 C-28.07843458 39.36828354 -29.68184232 38.8799543 -32 37.375 C-33.88866953 33.59766094 -33.41777107 29.86441894 -32.31054688 25.91699219 C-31.35337679 23.16639833 -30.31982387 20.458703 -29.25 17.75 C-28.90195312 16.821875 -28.55390625 15.89375 -28.1953125 14.9375 C-25.51634371 8.01186958 -22.88887326 2.81943663 -16 -0.625 C-10.53276882 -2.25039305 -5.09422953 -2.75937433 0 0 Z " fill="#F2F8FA" transform="translate(326,181.625)"/>
<path d="M0 0 C2 1.0625 2 1.0625 3 3 C2.5334072 7.98517574 1.35264522 12.45563928 -0.25 17.1875 C-0.46817383 17.83170898 -0.68634766 18.47591797 -0.91113281 19.13964844 C-2.71945367 24.38869426 -4.78382628 29.51190139 -6.984375 34.609375 C-8.06918611 37.07439761 -8.06918611 37.07439761 -9 40 C-12.96 40 -16.92 40 -21 40 C-19.55932506 32.47207764 -17.12995528 25.57886064 -14.375 18.4375 C-13.95476562 17.33341797 -13.53453125 16.22933594 -13.1015625 15.09179688 C-12.07321024 12.39237219 -11.0392595 9.69523999 -10 7 C-10.99 7 -11.98 7 -13 7 C-13.39832031 8.22589844 -13.79664063 9.45179688 -14.20703125 10.71484375 C-16.20980974 16.72317921 -18.44875046 22.63891867 -20.6875 28.5625 C-21.10322266 29.66658203 -21.51894531 30.77066406 -21.94726562 31.90820312 C-22.96333334 34.60603809 -23.9814555 37.30309915 -25 40 C-28.96 40 -32.92 40 -37 40 C-34.75968391 32.26334571 -32.18069677 24.6967601 -29.4375 17.125 C-29.03853516 16.01125 -28.63957031 14.8975 -28.22851562 13.75 C-26.64579383 9.36382607 -25.08849722 5.17699443 -23 1 C-19.37 1 -15.74 1 -12 1 C-12 1.66 -12 2.32 -12 3 C-11.319375 2.505 -10.63875 2.01 -9.9375 1.5 C-6.32791631 -0.34319167 -4.00550187 -0.44505576 0 0 Z " fill="#F4F9FA" transform="translate(266,180)"/>
<path d="M0 0 C0.495 0.495 0.495 0.495 1 1 C0.68708592 9.07520208 -2.37885179 16.46524736 -5.0625 24 C-5.54044598 25.36041998 -6.01766592 26.72109527 -6.49414062 28.08203125 C-7.65439761 31.39100853 -8.8244657 34.69641457 -10 38 C-13.96 38 -17.92 38 -22 38 C-22 37.34 -22 36.68 -22 36 C-22.7734375 36.495 -22.7734375 36.495 -23.5625 37 C-26.84447094 38.34644962 -29.48432783 38.25568525 -33 38 C-33.99 37.34 -34.98 36.68 -36 36 C-37.17156246 30.1421877 -34.13960112 24.80028487 -31 20 C-27.8658731 17.03960519 -24.50395912 16.09396664 -20.4375 14.8125 C-15.82178037 13.22754501 -15.82178037 13.22754501 -12.484375 9.8984375 C-11.5473113 7.48441981 -11.5473113 7.48441981 -11 4 C-14.2985139 4.72268235 -14.2985139 4.72268235 -15.6875 8.0625 C-16.3371875 9.5165625 -16.3371875 9.5165625 -17 11 C-20.3 11 -23.6 11 -27 11 C-24.0888587 0.32581522 -24.0888587 0.32581522 -21 -2 C-13.89443542 -4.53034598 -6.50119465 -3.45808226 0 0 Z " fill="#F6FAFA" transform="translate(128,183)"/>
<path d="M0 0 C1.01964844 -0.02578125 2.03929687 -0.0515625 3.08984375 -0.078125 C6.62221902 0.31178239 8.41657925 0.85259114 11.0625 3.25 C12.09925924 9.36845034 9.81893446 14.85849347 7.8125 20.5625 C7.51214844 21.44873047 7.21179688 22.33496094 6.90234375 23.24804688 C4.81666435 29.33201806 2.48976583 35.29460662 0.0625 41.25 C-3.5675 41.25 -7.1975 41.25 -10.9375 41.25 C-10.9375 40.59 -10.9375 39.93 -10.9375 39.25 C-11.7109375 39.745 -11.7109375 39.745 -12.5 40.25 C-15.78197094 41.59644962 -18.42182783 41.50568525 -21.9375 41.25 C-22.9275 40.59 -23.9175 39.93 -24.9375 39.25 C-24.51013467 32.61846906 -23.6450116 27.48778461 -19.2421875 22.22265625 C-16.42400969 19.81048711 -13.91083152 19.07804647 -10.375 18 C-5.75736495 16.45853196 -5.75736495 16.45853196 -2.421875 13.15234375 C-1.48525454 10.73490278 -1.48525454 10.73490278 -0.9375 7.25 C-3.46338702 9.61292656 -4.82570837 10.91462511 -5.9375 14.25 C-9.2375 14.25 -12.5375 14.25 -15.9375 14.25 C-14.85088365 8.90746962 -13.97445842 5.16822435 -9.9375 1.25 C-6.66441831 0.11059019 -3.4453684 0.05213672 0 0 Z " fill="#F6FAFB" transform="translate(177.9375,179.75)"/>
<path d="M0 0 C1.20527344 -0.02835938 2.41054687 -0.05671875 3.65234375 -0.0859375 C7.80228761 0.4749942 9.4597284 1.06423378 12.0625 4.375 C12.25224565 12.28106892 9.2035864 19.51593573 6.5625 26.875 C5.93794922 28.66164062 5.93794922 28.66164062 5.30078125 30.484375 C2.22040344 39.21709656 2.22040344 39.21709656 1.0625 40.375 C-2.24062897 40.44779623 -5.5327085 40.37109386 -8.8359375 40.3125 C-11.97393965 40.22211854 -11.97393965 40.22211854 -14.9375 41.375 C-18.5 41.5625 -18.5 41.5625 -21.9375 41.375 C-23.9375 39.375 -23.9375 39.375 -24.3125 36.3125 C-23.79581147 30.88727046 -22.27814994 25.57827545 -18.20703125 21.74609375 C-15.37509932 20.03523642 -12.52795111 19.1810921 -9.375 18.1875 C-4.75928037 16.60254501 -4.75928037 16.60254501 -1.421875 13.2734375 C-0.4848113 10.85941981 -0.4848113 10.85941981 0.0625 7.375 C-0.9275 7.375 -1.9175 7.375 -2.9375 7.375 C-3.246875 8.344375 -3.55625 9.31375 -3.875 10.3125 C-4.9375 13.375 -4.9375 13.375 -5.9375 14.375 C-7.45678038 14.44679964 -8.97917482 14.45892007 -10.5 14.4375 C-11.32628906 14.42847656 -12.15257812 14.41945312 -13.00390625 14.41015625 C-13.64199219 14.39855469 -14.28007812 14.38695312 -14.9375 14.375 C-14.39493082 9.8174189 -13.34743792 6.30230624 -10.9375 2.375 C-7.46397874 -0.01101694 -4.13042837 0.04408141 0 0 Z " fill="#F1F7F9" transform="translate(224.9375,179.625)"/>
<path d="M0 0 C0.66 0.66 1.32 1.32 2 2 C1.625 4.625 1.625 4.625 1 7 C-0.65 7 -2.3 7 -4 7 C-4 6.01 -4 5.02 -4 4 C-5.32 7.3 -6.64 10.6 -8 14 C-7.34 14 -6.68 14 -6 14 C-5.67 12.68 -5.34 11.36 -5 10 C-3.68 10 -2.36 10 -1 10 C-1 10.66 -1 11.32 -1 12 C-0.34 12 0.32 12 1 12 C1.103125 11.278125 1.20625 10.55625 1.3125 9.8125 C2.4357375 5.21743751 4.06068974 2.62620684 8 0 C10.72729492 -0.22705078 10.72729492 -0.22705078 13.98046875 -0.1953125 C15.72553711 -0.18564453 15.72553711 -0.18564453 17.50585938 -0.17578125 C18.72080078 -0.15902344 19.93574219 -0.14226562 21.1875 -0.125 C22.41404297 -0.11597656 23.64058594 -0.10695312 24.90429688 -0.09765625 C27.93639295 -0.07406017 30.96809938 -0.04113841 34 0 C34.08717277 4.48394951 33.63647348 7.68153671 32 11.875 C31.62875 12.84179688 31.2575 13.80859375 30.875 14.8046875 C30.441875 15.89136719 30.441875 15.89136719 30 17 C28.35 16.67 26.7 16.34 25 16 C26.32 12.04 27.64 8.08 29 4 C28.34 4 27.68 4 27 4 C26.89042969 4.59167969 26.78085937 5.18335938 26.66796875 5.79296875 C26.43013672 6.97826172 26.43013672 6.97826172 26.1875 8.1875 C26.03667969 8.96480469 25.88585937 9.74210938 25.73046875 10.54296875 C24.84592337 13.51825776 23.97618731 15.58513318 22 18 C19.14453125 18.453125 19.14453125 18.453125 15.8125 18.25 C10.67941664 18.04398997 6.06903276 18.24903218 1 19 C0.01 19 -0.98 19 -2 19 C-2.72574219 19.03480469 -3.45148438 19.06960937 -4.19921875 19.10546875 C-10.24104832 19.30464994 -14.47556717 18.45530348 -20 16 C-19.67 14.68 -19.34 13.36 -19 12 C-17.34385343 11.61781233 -15.67542976 11.28604898 -14 11 C-13.67 11.33 -13.34 11.66 -13 12 C-12.67386719 11.30132812 -12.34773438 10.60265625 -12.01171875 9.8828125 C-11.57472656 8.97273437 -11.13773437 8.06265625 -10.6875 7.125 C-10.25824219 6.22007812 -9.82898438 5.31515625 -9.38671875 4.3828125 C-6.99740384 0.27722913 -4.52111032 -0.46370362 0 0 Z " fill="#305B8B" transform="translate(339,204)"/>
<path d="M0 0 C3.96 0 7.92 0 12 0 C11.24872886 3.75635569 10.75994274 5.83210307 9 9 C9.99 9 10.98 9 12 9 C11.67 10.98 11.34 12.96 11 15 C10.38342529 15.06662842 9.76685059 15.13325684 9.1315918 15.2019043 C6.81572795 15.80895748 6.81572795 15.80895748 5.82739258 18.06958008 C5.51954834 18.96056396 5.2117041 19.85154785 4.89453125 20.76953125 C4.55099609 21.74083984 4.20746094 22.71214844 3.85351562 23.71289062 C3.50998047 24.73576172 3.16644531 25.75863281 2.8125 26.8125 C2.45736328 27.82376953 2.10222656 28.83503906 1.73632812 29.87695312 C0.33867715 33.88956399 -1.02909324 37.86023678 -2 42 C-1.01 42 -0.02 42 1 42 C0.34 43.98 -0.32 45.96 -1 48 C-2.95825873 48.02694851 -4.91662226 48.04637218 -6.875 48.0625 C-7.96554688 48.07410156 -9.05609375 48.08570313 -10.1796875 48.09765625 C-13 48 -13 48 -15 47 C-15.68290269 39.31734473 -12.6403866 33.12313388 -9.84375 26.09375 C-7.78886561 20.75105058 -6.63520796 16.71507526 -7 11 C-6.67 10.34 -6.34 9.68 -6 9 C-5.01 9 -4.02 9 -3 9 C-2.01 6.03 -1.02 3.06 0 0 Z " fill="#F3F9FB" transform="translate(68,172)"/>
<path d="M0 0 C4.29 0 8.58 0 13 0 C10.78044363 7.6443507 8.25827166 15.13624535 5.5625 22.625 C5.18029297 23.70523438 4.79808594 24.78546875 4.40429688 25.8984375 C-1.27721508 41.7179275 -1.27721508 41.7179275 -5.6875 45 C-9.88886826 46.26833759 -13.64867189 46.26107969 -18 46 C-17.49619932 40.45819257 -17.49619932 40.45819257 -15.1640625 38.3046875 C-12.22366139 35.17321339 -11.08961584 31.86739004 -9.625 27.875 C-9.32972412 27.09398926 -9.03444824 26.31297852 -8.73022461 25.50830078 C-5.58363206 17.0865631 -2.76055206 8.55467783 0 0 Z " fill="#F5F9FA" transform="translate(197,181)"/>
<path d="M0 0 C-0.63919406 4.95375399 -2.29871526 9.79420225 -5 14 C-5.969375 14.309375 -6.93875 14.61875 -7.9375 14.9375 C-11.59971021 16.20806272 -11.84470287 16.90623765 -13.5625 20.25 C-16.46086367 26.66780528 -18.74314477 33.33507435 -21 40 C-24.96 40 -28.92 40 -33 40 C-30.91679682 30.94740946 -28.11432478 22.4261216 -24.8125 13.75 C-24.34908203 12.51636719 -23.88566406 11.28273437 -23.40820312 10.01171875 C-22.27799658 7.00560236 -21.13983055 4.00248046 -20 1 C-16.04 1 -12.08 1 -8 1 C-7.67 1.66 -7.34 2.32 -7 3 C-6.401875 2.505 -5.80375 2.01 -5.1875 1.5 C-3 0 -3 0 0 0 Z " fill="#F6FAFB" transform="translate(103,180)"/>
<path d="M0 0 C0.99 0.66 1.98 1.32 3 2 C4.92219704 1.30403211 6.84179317 0.59643075 8.7265625 -0.1953125 C12.396261 -1.49420922 16.13653778 -1.74064721 20 -2 C19.67 -0.35 19.34 1.3 19 3 C18.34773438 2.88140625 17.69546875 2.7628125 17.0234375 2.640625 C16.14945312 2.51171875 15.27546875 2.3828125 14.375 2.25 C13.51648438 2.11078125 12.65796875 1.9715625 11.7734375 1.828125 C7.81173255 2.07363911 5.99467753 3.43547451 3 6 C1.17072373 9.18907527 1.17072373 9.18907527 -0.0625 12.875 C-0.42420288 13.85605713 -0.42420288 13.85605713 -0.79321289 14.85693359 C-1.29262539 16.21867046 -1.78370056 17.58349254 -2.26660156 18.95117188 C-2.98441386 20.95645843 -3.74609639 22.93900488 -4.5234375 24.921875 C-7.66654788 32.29591748 -7.66654788 32.29591748 -7 40 C-6.67 40.66 -6.34 41.32 -6 42 C-15.405 42.99 -15.405 42.99 -25 44 C-25 43.34 -25 42.68 -25 42 C-26.485 42.495 -26.485 42.495 -28 43 C-30.64904265 43.20399045 -33.2848963 43.37176312 -35.9375 43.5 C-42.04466918 43.73196167 -42.04466918 43.73196167 -48 45 C-48 44.34 -48 43.68 -48 43 C-49.98 43 -51.96 43 -54 43 C-54 42.67 -54 42.34 -54 42 C-50.7 42 -47.4 42 -44 42 C-43.649375 40.5975 -43.29875 39.195 -42.9375 37.75 C-41.87364976 33.78380104 -40.63863807 29.92146121 -39.2421875 26.0625 C-38.92644775 25.18883789 -38.61070801 24.31517578 -38.28540039 23.41503906 C-37.64594125 21.66338637 -36.99695242 19.91517789 -36.33764648 18.17089844 C-34.52540195 13.20432949 -33.62118936 9.28905426 -34 4 C-32.35 3.67 -30.7 3.34 -29 3 C-29 2.34 -29 1.68 -29 1 C-27.24623047 0.92652344 -27.24623047 0.92652344 -25.45703125 0.8515625 C-23.90883196 0.77649829 -22.36065599 0.70095205 -20.8125 0.625 C-19.65911133 0.57859375 -19.65911133 0.57859375 -18.48242188 0.53125 C-0.99706516 -0.36928339 -0.99706516 -0.36928339 0 0 Z M-16 4 C-16 3.34 -16 2.68 -16 2 C-19.63 2 -23.26 2 -27 2 C-30.93236785 10.59460701 -34.26861791 19.32470852 -37.375 28.25 C-37.73271484 29.27424072 -38.09042969 30.29848145 -38.45898438 31.35375977 C-40.27769155 36.07284955 -40.27769155 36.07284955 -41 41 C-37.04 41 -33.08 41 -29 41 C-27.2867268 36.62340717 -25.57784507 32.24513541 -23.87304688 27.86523438 C-23.2922269 26.37485291 -22.71020032 24.88494109 -22.12695312 23.39550781 C-21.28980472 21.25707769 -20.45698106 19.11700743 -19.625 16.9765625 C-19.36251465 16.30879791 -19.1000293 15.64103333 -18.82958984 14.95303345 C-17.45619758 11.57588092 -17.45619758 11.57588092 -17 8 C-16.01 8 -15.02 8 -14 8 C-14.33322266 8.89307861 -14.66644531 9.78615723 -15.00976562 10.70629883 C-16.24466643 14.01991355 -17.47314969 17.33587671 -18.69970703 20.65258789 C-19.2314862 22.08780763 -19.7650041 23.52238439 -20.30029297 24.95629883 C-21.06936227 27.01737601 -21.83215096 29.08068392 -22.59375 31.14453125 C-22.83436157 31.78526077 -23.07497314 32.4259903 -23.32287598 33.08613586 C-24.34897405 35.88352941 -25 37.99163868 -25 41 C-21.04 41 -17.08 41 -13 41 C-12.67386719 40.0821875 -12.34773438 39.164375 -12.01171875 38.21875 C-7.98815898 26.9195497 -7.98815898 26.9195497 -6.4375 22.75 C-6.21449219 22.14800781 -5.99148438 21.54601562 -5.76171875 20.92578125 C-5.17763884 19.44910742 -4.54609087 17.99113484 -3.89453125 16.54296875 C-1.53932965 11.18146887 -0.2981969 7.71319614 -2 2 C-7.03432926 -0.51716463 -11.67036961 0.8511779 -16 4 Z " fill="#315D93" transform="translate(270,179)"/>
<path d="M0 0 C-3.2678206 2.17854707 -6.38058265 3.49760034 -10 5 C-10 7.62113708 -9.68707555 9.50935112 -9 12 C-8.34 12 -7.68 12 -7 12 C-7 12.99 -7 13.98 -7 15 C-6.01 15 -5.02 15 -4 15 C-3.87625 14.236875 -3.7525 13.47375 -3.625 12.6875 C-3 10 -3 10 -1 7 C-0.34 7 0.32 7 1 7 C0.36504251 13.18078875 -1.50359912 18.25963544 -3.91601562 23.95117188 C-5.88213151 28.85932074 -6.27767449 32.71236874 -6 38 C-3.36 38.33 -0.72 38.66 2 39 C2 39.33 2 39.66 2 40 C1.01257813 39.98839844 0.02515625 39.97679687 -0.9921875 39.96484375 C-2.27351563 39.95582031 -3.55484375 39.94679687 -4.875 39.9375 C-6.78925781 39.92009766 -6.78925781 39.92009766 -8.7421875 39.90234375 C-11.88664652 39.76823431 -11.88664652 39.76823431 -14 41 C-20.15710254 41.44778928 -20.15710254 41.44778928 -23 39.9375 C-24.92323377 36.21123457 -23.33709045 32.06669259 -22.13427734 28.26049805 C-21.02921423 25.11404589 -19.86878954 21.99360437 -18.6875 18.875 C-18.29626953 17.80378906 -17.90503906 16.73257813 -17.50195312 15.62890625 C-13.23499134 4.26449394 -13.23499134 4.26449394 -8.125 0.6875 C-5.35788795 -0.20774213 -2.88772424 -0.13126019 0 0 Z " fill="#F2F8FA" transform="translate(285,180)"/>
<path d="M0 0 C3.96 0 7.92 0 12 0 C11.39784946 5.41935484 11.39784946 5.41935484 9.84375 7.6875 C7.15980197 9.59810707 5.06191944 9.29231998 1.8125 9.1875 C0.72582031 9.16042969 -0.36085937 9.13335937 -1.48046875 9.10546875 C-2.72763672 9.05326172 -2.72763672 9.05326172 -4 9 C-4.18369141 10.28777344 -4.18369141 10.28777344 -4.37109375 11.6015625 C-5.00127116 15.00686898 -5.93562279 18.10342101 -7.0625 21.375 C-7.42472656 22.43460938 -7.78695312 23.49421875 -8.16015625 24.5859375 C-8.43730469 25.38257813 -8.71445313 26.17921875 -9 27 C-9.99 27 -10.98 27 -12 27 C-12.33 27.66 -12.66 28.32 -13 29 C-13.70184235 24.94491088 -14.10924726 21.94399026 -13 18 C-12.96111651 15.66699067 -12.9551365 13.33290199 -13 11 C-16.38024668 8.957261 -19.01835066 8.73023128 -22.9375 8.75 C-23.95714844 8.74484375 -24.97679687 8.7396875 -26.02734375 8.734375 C-29.09587968 9.00856744 -31.25802363 9.61458036 -34 11 C-36.54329882 14.39106509 -37.77989654 17.96427318 -39 22 C-35.7 22 -32.4 22 -29 22 C-28.9175 21.21625 -28.835 20.4325 -28.75 19.625 C-28 17 -28 17 -25.9375 15.6875 C-25.298125 15.460625 -24.65875 15.23375 -24 15 C-24.49202431 21.51932207 -24.49202431 21.51932207 -26.671875 23.58203125 C-30.27776248 25.77823453 -34.17365258 27.07131732 -38.125 28.5234375 C-42.32176864 30.67884313 -44.323522 33.5117484 -46.25 37.75 C-47.20502264 41.88843146 -47.1690242 45.77439501 -47 50 C-48.32 50 -49.64 50 -51 50 C-51 49.01 -51 48.02 -51 47 C-52.03125 47.66 -53.0625 48.32 -54.125 49 C-57.53576826 50.97282726 -60.0201643 51.38827665 -64 51 C-62.04232481 50.00335052 -60.11369091 49.04469764 -58.06811523 48.24047852 C-52.12260483 45.41869082 -50.26630879 41.01499884 -48.13412476 35.1156311 C-47.42525789 33.06198889 -46.74357392 31.00050499 -46.0625 28.9375 C-45.57997683 27.54795647 -45.09497018 26.15927272 -44.60742188 24.77148438 C-42.03185806 17.46726421 -42.03185806 17.46726421 -40 10 C-39.38125 9.87625 -38.7625 9.7525 -38.125 9.625 C-35.80879168 9.12802644 -35.80879168 9.12802644 -34 7 C-32.09228516 6.74121094 -32.09228516 6.74121094 -29.7890625 6.734375 C-28.95632812 6.73179687 -28.12359375 6.72921875 -27.265625 6.7265625 C-26.39421875 6.73429688 -25.5228125 6.74203125 -24.625 6.75 C-23.76132813 6.74226562 -22.89765625 6.73453125 -22.0078125 6.7265625 C-21.1725 6.72914063 -20.3371875 6.73171875 -19.4765625 6.734375 C-18.3330835 6.73775879 -18.3330835 6.73775879 -17.16650391 6.74121094 C-14.7444925 7.03052039 -13.10503801 7.79660899 -11 9 C-11 9.66 -11 10.32 -11 11 C-9.35 10.67 -7.7 10.34 -6 10 C-5.34 7.03 -4.68 4.06 -4 1 C-3.505 2.485 -3.505 2.485 -3 4 C-2.34 4 -1.68 4 -1 4 C-0.67 2.68 -0.34 1.36 0 0 Z " fill="#225D96" transform="translate(201,172)"/>
<path d="M0 0 C2.97 0.33 5.94 0.66 9 1 C10.20156499 5.21460936 9.74143855 7.66719349 8.234375 11.74609375 C7.83863281 12.83083984 7.44289062 13.91558594 7.03515625 15.03320312 C6.61105469 16.15662109 6.18695313 17.28003906 5.75 18.4375 C5.34136719 19.55705078 4.93273437 20.67660156 4.51171875 21.83007812 C-1.33438523 37.66719262 -1.33438523 37.66719262 -8 41 C-11.6875 41.5625 -11.6875 41.5625 -15 41 C-16.9375 38.5 -16.9375 38.5 -18 36 C-17 35 -17 35 -14.4375 34.9375 C-13.633125 34.958125 -12.82875 34.97875 -12 35 C-11.8453125 33.5459375 -11.8453125 33.5459375 -11.6875 32.0625 C-11.03321259 27.60971068 -10.10964675 22.99936893 -8 19 C-7.31679687 18.68675781 -6.63359375 18.37351563 -5.9296875 18.05078125 C-5.29289063 17.70402344 -4.65609375 17.35726562 -4 17 C-3.4093036 14.64411633 -3.4093036 14.64411633 -3.4375 12 C-3.37109375 9.3125 -3.37109375 9.3125 -3 7 C-2.01 6.34 -1.02 5.68 0 5 C0.25030977 2.41619823 0.25030977 2.41619823 0 0 Z " fill="#F5F9F9" transform="translate(151,180)"/>
<path d="M0 0 C0.33 0.66 0.66 1.32 1 2 C0.01 3.485 0.01 3.485 -1 5 C-1.99 5 -2.98 5 -4 5 C-3.01 7.31 -2.02 9.62 -1 12 C-1.99 12.33 -2.98 12.66 -4 13 C-2.6910428 16.12197478 -2.6910428 16.12197478 0 18 C-0.33 18.66 -0.66 19.32 -1 20 C0.98 19.67 2.96 19.34 5 19 C4.125 24.75 4.125 24.75 3 27 C-0.63 27 -4.26 27 -8 27 C-8 26.34 -8 25.68 -8 25 C-8.515625 25.33 -9.03125 25.66 -9.5625 26 C-12.84447094 27.34644962 -15.48432783 27.25568525 -19 27 C-19.99 26.34 -20.98 25.68 -22 25 C-21.57391617 18.38835442 -20.729461 13.23491674 -16.3125 8 C-13.48289599 5.55277491 -10.82951784 4.56098226 -7.3125 3.3125 C-3.36777414 2.15738374 -3.36777414 2.15738374 0 0 Z " fill="#FBFAFA" transform="translate(175,194)"/>
<path d="M0 0 C0.41003318 7.10724179 -1.10403814 13.17624539 -3 20 C-3.28617187 21.06089844 -3.57234375 22.12179688 -3.8671875 23.21484375 C-4.56924475 25.81245558 -5.28034984 28.40721785 -6 31 C-5.01 31 -4.02 31 -3 31 C-3.66 32.32 -4.32 33.64 -5 35 C-6.60332791 35.08121924 -8.20784026 35.13929134 -9.8125 35.1875 C-11.15248047 35.23970703 -11.15248047 35.23970703 -12.51953125 35.29296875 C-15 35 -15 35 -16.82421875 33.92578125 C-18.64393817 30.94531057 -18.52782083 28.3362548 -18 25 C-16.97112948 21.28367356 -15.64210475 17.71880232 -14.25 14.125 C-13.90195312 13.16335937 -13.55390625 12.20171875 -13.1953125 11.2109375 C-12.84726562 10.29828125 -12.49921875 9.385625 -12.140625 8.4453125 C-11.82641602 7.61531738 -11.51220703 6.78532227 -11.18847656 5.93017578 C-10 4 -10 4 -7.86621094 3.22216797 C-7.25036133 3.14885254 -6.63451172 3.07553711 -6 3 C-6 2.34 -6 1.68 -6 1 C-3 0 -3 0 0 0 Z " fill="#F4F9FA" transform="translate(311,185)"/>
<path d="M0 0 C0.94875 0.103125 1.8975 0.20625 2.875 0.3125 C5 1 5 1 6.3125 3.0625 C6.6528125 4.0215625 6.6528125 4.0215625 7 5 C5.02 7.97 5.02 7.97 3 11 C3.495 10.67 3.99 10.34 4.5 10 C8.09090894 8.56363642 11.14456127 8.87148538 15 9 C15 9.33 15 9.66 15 10 C12.02148438 10.63476562 12.02148438 10.63476562 9.04296875 11.26953125 C6.61549112 12.13748214 5.58475253 12.97299096 4 15 C3.00626561 17.2603044 3.00626561 17.2603044 2.3125 19.6875 C2.06113281 20.49574219 1.80976563 21.30398437 1.55078125 22.13671875 C1.36902344 22.75160156 1.18726563 23.36648437 1 24 C4.10089634 23.98699834 7.00607883 23.84403097 10 23 C12.16247221 20.09748698 12.16247221 20.09748698 13 17 C13.99 17 14.98 17 16 17 C15.5599621 21.84041692 14.71102358 23.87950781 11 27 C8.08984375 28.4140625 8.08984375 28.4140625 4.9375 29.625 C-0.8348202 31.54831165 -0.8348202 31.54831165 -4.94921875 35.69921875 C-6.67969114 40.35959149 -7.31054584 44.03126656 -7 49 C-4.69 49.66 -2.38 50.32 0 51 C-1.73101002 53.18653897 -2.56174041 53.94233426 -5.375 54.3125 C-8.20590057 53.97548803 -10.41563122 53.18142573 -13 52 C-13.66 53.98 -14.32 55.96 -15 58 C-15.66 58 -16.32 58 -17 58 C-17 57.34 -17 56.68 -17 56 C-17.66 55.67 -18.32 55.34 -19 55 C-18.37907471 54.74976074 -17.75814941 54.49952148 -17.1184082 54.24169922 C-14.58679531 52.75780119 -14.14586501 51.83405048 -13.10546875 49.1328125 C-12.79287109 48.33858887 -12.48027344 47.54436523 -12.15820312 46.72607422 C-11.67770508 45.43854248 -11.67770508 45.43854248 -11.1875 44.125 C-10.84783203 43.24473145 -10.50816406 42.36446289 -10.15820312 41.45751953 C-7.04583888 33.31426965 -4.100576 25.10552765 -1.25 16.8671875 C-1.00765625 16.16706543 -0.7653125 15.46694336 -0.515625 14.74560547 C0.09442815 12.98368251 0.09442815 12.98368251 0 11 C-3.3 10.67 -6.6 10.34 -10 10 C-10 9.67 -10 9.34 -10 9 C-4.06 8.505 -4.06 8.505 2 8 C2.66 6.02 3.32 4.04 4 2 C0.04 2 -3.92 2 -8 2 C-8.33 3.32 -8.66 4.64 -9 6 C-9.66 6 -10.32 6 -11 6 C-11 2 -11 2 -10 0.1875 C-6.74324916 -1.74619581 -3.53678186 -0.67005438 0 0 Z " fill="#215D99" transform="translate(209,170)"/>
<path d="M0 0 C0.6875 1.8125 0.6875 1.8125 1 4 C-0.3125 5.75 -0.3125 5.75 -2 7 C-2.66 7 -3.32 7 -4 7 C-3.79761719 7.71671875 -3.59523438 8.4334375 -3.38671875 9.171875 C-2.93080741 12.50601452 -3.51003465 14.1756295 -4.8125 17.25 C-5.16957031 18.12140625 -5.52664062 18.9928125 -5.89453125 19.890625 C-7 22 -7 22 -9 23 C-8.505 23.45375 -8.01 23.9075 -7.5 24.375 C-6 26 -6 26 -6 28 C-3.03 28 -0.06 28 3 28 C3 28.33 3 28.66 3 29 C-0.96 29 -4.92 29 -9 29 C-9 28.34 -9 27.68 -9 27 C-9.515625 27.33 -10.03125 27.66 -10.5625 28 C-13.84447094 29.34644962 -16.48432783 29.25568525 -20 29 C-20.99 28.34 -21.98 27.68 -23 27 C-24.17156246 21.1421877 -21.13960112 15.80028487 -18 11 C-14.02132121 7.26943481 -8.85859231 6.03657486 -3.80078125 4.28125 C-2.87652344 3.8584375 -1.95226562 3.435625 -1 3 C-0.67 2.01 -0.34 1.02 0 0 Z " fill="#F7FAFB" transform="translate(115,192)"/>
<path d="M0 0 C0.66 0.33 1.32 0.66 2 1 C-0.09656989 6.76689896 -2.19625579 12.53265005 -4.29882812 18.29736328 C-5.0135521 20.25831423 -5.72742598 22.21957524 -6.44042969 24.18115234 C-7.46585945 27.00179828 -8.49434852 29.82131237 -9.5234375 32.640625 C-9.84122162 33.51680481 -10.15900574 34.39298462 -10.48641968 35.29571533 C-10.93666 36.52653839 -10.93666 36.52653839 -11.39599609 37.78222656 C-11.65802826 38.50170471 -11.92006042 39.22118286 -12.19003296 39.96246338 C-13.01682705 42.0423298 -13.9706902 44.01357837 -15 46 C-15.66 45.67 -16.32 45.34 -17 45 C-14.75803892 37.23057066 -12.14393975 29.6438108 -9.34179688 22.06054688 C-8.88836914 20.79887695 -8.88836914 20.79887695 -8.42578125 19.51171875 C-8.15161377 18.76365967 -7.87744629 18.01560059 -7.5949707 17.24487305 C-6.93382835 14.75032896 -6.89676422 12.56958103 -7 10 C-13.68608516 6.51160774 -19.47691545 6.31170452 -26.875 7.4375 C-30.41366423 10.03945899 -31.47419151 13.99101298 -33 18 C-33.33 18.66 -33.66 19.32 -34 20 C-30.7 20 -27.4 20 -24 20 C-23.62875 18.5459375 -23.62875 18.5459375 -23.25 17.0625 C-22.8375 16.051875 -22.425 15.04125 -22 14 C-19.875 13.125 -19.875 13.125 -18 13 C-19.03398058 19.2038835 -19.03398058 19.2038835 -21 22 C-23.41011252 23.0981328 -25.62004015 23.96130967 -28.125 24.75 C-28.78371094 24.97042969 -29.44242187 25.19085938 -30.12109375 25.41796875 C-31.74302313 25.95861188 -33.37098507 26.48109707 -35 27 C-35.66 26.34 -36.32 25.68 -37 25 C-36.01 25 -35.02 25 -34 25 C-34.350625 24.29875 -34.70125 23.5975 -35.0625 22.875 C-36.78536281 17.59155405 -34.73139656 12.83780868 -33.109375 7.734375 C-31.41689431 5.08838406 -30.05211936 4.7570531 -27 4 C-23.77369299 3.91455443 -20.59126413 4.13134363 -17.375 4.375 C-15.6745033 4.48734513 -13.97398337 4.59933918 -12.2734375 4.7109375 C-11.52497559 4.76556152 -10.77651367 4.82018555 -10.00537109 4.87646484 C-8.33956372 4.97908215 -6.66896511 5 -5 5 C-5 6.98 -5 8.96 -5 11 C-4.34 11 -3.68 11 -3 11 C-2.814375 9.948125 -2.814375 9.948125 -2.625 8.875 C-1.96161655 5.82343613 -1.02788045 2.94659062 0 0 Z " fill="#1B5591" transform="translate(135,174)"/>
<path d="M0 0 C0.99 0 1.98 0 3 0 C3.74926071 3.66305234 4.2380014 6.42355152 3 10 C2.34 10 1.68 10 1 10 C1.433125 10.680625 1.86625 11.36125 2.3125 12.0625 C2.539375 13.031875 2.76625 14.00125 3 15 C1.80795115 16.6642513 0.61011447 18.32477487 -0.62182617 19.9597168 C-3.01104544 23.49677711 -4.36725319 27.38063134 -5.8125 31.375 C-6.27946289 32.57382813 -6.27946289 32.57382813 -6.75585938 33.796875 C-8.82732148 39.42396766 -9.30605343 44.01095447 -9 50 C-2.04319014 51.83137006 5.75821562 52.30415536 12.20703125 48.6875 C16.09509553 45.02814538 17.98393793 39.8568768 20 35 C21.22419163 38.93795909 20.48320272 41.16112237 19 45 C19.99 45.495 19.99 45.495 21 46 C19.68 46.66 18.36 47.32 17 48 C17 49.32 17 50.64 17 52 C16.113125 51.95875 15.22625 51.9175 14.3125 51.875 C11.08291272 51.80088875 11.08291272 51.80088875 8.64453125 52.99609375 C5.70105105 54.11348579 3.51043672 54.23500662 0.375 54.1875 C-0.56601562 54.18105469 -1.50703125 54.17460937 -2.4765625 54.16796875 C-5 54 -5 54 -8 53 C-8 53.66 -8 54.32 -8 55 C-8.66 55 -9.32 55 -10 55 C-10.33 53.02 -10.66 51.04 -11 49 C-12.98 49.495 -12.98 49.495 -15 50 C-12.55225709 39.83299828 -8.90233719 30.11570277 -5.3125 20.3125 C-4.69946686 18.62840183 -4.0868335 16.94415807 -3.47460938 15.25976562 C-1.98767465 11.17148482 -0.49535053 7.08520971 1 3 C-2.63 3 -6.26 3 -10 3 C-10 2.67 -10 2.34 -10 2 C-9.04287109 1.90912109 -9.04287109 1.90912109 -8.06640625 1.81640625 C-6.82697266 1.69072266 -6.82697266 1.69072266 -5.5625 1.5625 C-4.73878906 1.48128906 -3.91507812 1.40007812 -3.06640625 1.31640625 C-1.01337975 1.21069185 -1.01337975 1.21069185 0 0 Z " fill="#21588F" transform="translate(303,169)"/>
<path d="M0 0 C0.99 0 1.98 0 3 0 C1.02571072 7.73902462 -1.40117927 15.20524631 -4.1875 22.6875 C-4.73954102 24.18700195 -4.73954102 24.18700195 -5.30273438 25.71679688 C-6.19772104 28.1460464 -7.09826724 30.57324652 -8 33 C-4.04 33 -0.08 33 4 33 C4.11859375 32.13503906 4.2371875 31.27007812 4.359375 30.37890625 C5.00003336 26.99982406 5.97580847 24.12701107 7.25 20.9375 C7.91322266 19.25914062 7.91322266 19.25914062 8.58984375 17.546875 C9.05519531 16.37640625 9.52054687 15.2059375 10 14 C10.94405128 11.56497239 11.87800898 9.12622869 12.8125 6.6875 C13.54166667 4.79166667 14.27083333 2.89583333 15 1 C15.99 1 16.98 1 18 1 C17.72212646 1.76143311 17.44425293 2.52286621 17.15795898 3.30737305 C15.90500718 6.76292934 14.67109923 10.22499041 13.4375 13.6875 C12.99986328 14.88568359 12.56222656 16.08386719 12.11132812 17.31835938 C11.70205078 18.47529297 11.29277344 19.63222656 10.87109375 20.82421875 C10.29766235 22.41882935 10.29766235 22.41882935 9.71264648 24.0456543 C8.77951869 27.91402684 9.23838132 30.47676264 11 34 C1.595 34.99 1.595 34.99 -8 36 C-8 35.34 -8 34.68 -8 34 C-8.53109375 34.17402344 -9.0621875 34.34804687 -9.609375 34.52734375 C-12.61306572 35.12121071 -15.20668028 34.86021606 -18.25 34.5625 C-19.32765625 34.46066406 -20.4053125 34.35882813 -21.515625 34.25390625 C-22.33546875 34.17011719 -23.1553125 34.08632812 -24 34 C-24 33.67 -24 33.34 -24 33 C-20.04 33 -16.08 33 -12 33 C-11.59007812 31.576875 -11.18015625 30.15375 -10.7578125 28.6875 C-9.05673944 23.01858907 -7.01137998 17.51702522 -4.875 12 C-4.51535156 11.06027344 -4.15570313 10.12054688 -3.78515625 9.15234375 C-1.16153921 2.32307842 -1.16153921 2.32307842 0 0 Z " fill="#2B568C" transform="translate(253,187)"/>
<path d="M0 0 C5.28 0 10.56 0 16 0 C16 5.13148893 15.7647684 7.35278098 14 11.875 C13.62875 12.84179688 13.2575 13.80859375 12.875 14.8046875 C12.441875 15.89136719 12.441875 15.89136719 12 17 C10.35 16.67 8.7 16.34 7 16 C8.32 12.04 9.64 8.08 11 4 C10.34 4 9.68 4 9 4 C8.87882812 4.60328125 8.75765625 5.2065625 8.6328125 5.828125 C8.38144531 7.02695313 8.38144531 7.02695313 8.125 8.25 C7.96257812 9.03890625 7.80015625 9.8278125 7.6328125 10.640625 C7.00849925 12.96831144 6.15161458 14.89031952 5 17 C3.68 16.67 2.36 16.34 1 16 C1.66 13.03 2.32 10.06 3 7 C1.68 10.3 0.36 13.6 -1 17 C-2.32 17 -3.64 17 -5 17 C-4.45776686 10.76431889 -2.44588437 5.75966319 0 0 Z " fill="#E3F0F8" transform="translate(357,204)"/>
<path d="M0 0 C3.96 0 7.92 0 12 0 C11.39784946 5.41935484 11.39784946 5.41935484 9.84375 7.6875 C7.15980197 9.59810707 5.06191944 9.29231998 1.8125 9.1875 C0.72582031 9.16042969 -0.36085937 9.13335937 -1.48046875 9.10546875 C-2.72763672 9.05326172 -2.72763672 9.05326172 -4 9 C-4.12246094 9.85851562 -4.24492187 10.71703125 -4.37109375 11.6015625 C-5.00127116 15.00686898 -5.93562279 18.10342101 -7.0625 21.375 C-7.42472656 22.43460938 -7.78695312 23.49421875 -8.16015625 24.5859375 C-8.43730469 25.38257813 -8.71445313 26.17921875 -9 27 C-9.99 27 -10.98 27 -12 27 C-12.33 27.66 -12.66 28.32 -13 29 C-13.33 27.35 -13.66 25.7 -14 24 C-13.34 24 -12.68 24 -12 24 C-11.26167392 19.67551867 -10.60825035 15.34464536 -10 11 C-8.68 10.67 -7.36 10.34 -6 10 C-5.34 7.03 -4.68 4.06 -4 1 C-3.67 1.99 -3.34 2.98 -3 4 C-2.34 4 -1.68 4 -1 4 C-0.67 2.68 -0.34 1.36 0 0 Z " fill="#035AA7" transform="translate(201,172)"/>
<path d="M0 0 C1.2235147 3.46530939 0.81965145 5.25124903 -0.6875 8.5625 C-3.63861361 14.65544544 -3.63861361 14.65544544 -7 16 C-10.75 15.6875 -10.75 15.6875 -14 15 C-13.41000018 9.10000177 -12.316094 4.47582462 -8.1875 0.0625 C-5.17057509 -1.40286353 -3.18358402 -0.795896 0 0 Z " fill="#E8F3F8" transform="translate(353,205)"/>
<path d="M0 0 C2.475 0.99 2.475 0.99 5 2 C-0.29842932 20.86561955 -0.29842932 20.86561955 -5 24 C-5.73606499 27.56769552 -5.73606499 27.56769552 -6 31 C-6.99 31 -7.98 31 -9 31 C-8.67 29.02 -8.34 27.04 -8 25 C-8.84820312 25.15339844 -9.69640625 25.30679688 -10.5703125 25.46484375 C-14.01005091 26.00156831 -17.40329462 26.31452104 -20.875 26.5625 C-22.02742187 26.64628906 -23.17984375 26.73007813 -24.3671875 26.81640625 C-25.67042969 26.90728516 -25.67042969 26.90728516 -27 27 C-27 26.34 -27 25.68 -27 25 C-27.66 24.67 -28.32 24.34 -29 24 C-25.7 23.34 -22.4 22.68 -19 22 C-19 22.66 -19 23.32 -19 24 C-15.37 24 -11.74 24 -8 24 C-7.608125 22.63875 -7.21625 21.2775 -6.8125 19.875 C-4.80431715 13.15531123 -2.40142961 6.58732075 0 0 Z " fill="#1D5B98" transform="translate(186,197)"/>
<path d="M0 0 C2.21538462 6.4 2.21538462 6.4 1.125 9.4375 C0.75375 9.953125 0.3825 10.46875 0 11 C2.97 11.495 2.97 11.495 6 12 C4.625 13.5 4.625 13.5 3 15 C2.34 15 1.68 15 1 15 C0.67 15.99 0.34 16.98 0 18 C-3.375 18.125 -3.375 18.125 -7 18 C-9 16 -9 16 -9.5625 12.9375 C-8.92064215 8.44449507 -5.39906883 0 0 0 Z " fill="#FCFBFA" transform="translate(210,203)"/>
<path d="M0 0 C1.07765625 0.00902344 2.1553125 0.01804688 3.265625 0.02734375 C4.08546875 0.03894531 4.9053125 0.05054688 5.75 0.0625 C5.75 0.3925 5.75 0.7225 5.75 1.0625 C2.45 1.0625 -0.85 1.0625 -4.25 1.0625 C-4.25 2.0525 -4.25 3.0425 -4.25 4.0625 C-3.26 4.3925 -2.27 4.7225 -1.25 5.0625 C-1.889375 5.990625 -2.52875 6.91875 -3.1875 7.875 C-5.33622093 10.90469943 -5.33622093 10.90469943 -6.25 14.0625 C-9.55 14.0625 -12.85 14.0625 -16.25 14.0625 C-15.16338365 8.71996962 -14.28695842 4.98072435 -10.25 1.0625 C-6.86294241 -0.15258793 -3.56836834 -0.03878661 0 0 Z " fill="#EDF7FB" transform="translate(178.25,179.9375)"/>
<path d="M0 0 C0.66 0.66 1.32 1.32 2 2 C1.625 4.625 1.625 4.625 1 7 C-0.65 7 -2.3 7 -4 7 C-4 6.01 -4 5.02 -4 4 C-5.32 7.3 -6.64 10.6 -8 14 C-7.34 14 -6.68 14 -6 14 C-5.67 12.68 -5.34 11.36 -5 10 C-3.68 10 -2.36 10 -1 10 C-1.36197896 12.62434747 -1.82656057 13.82013689 -3.6875 15.75 C-6.60427292 17.32663401 -8.73290013 17.22275681 -12 17 C-12.60158689 10.26222686 -11.32751919 6.2585915 -7 1 C-4.48718205 -0.25640898 -2.78302919 -0.20872719 0 0 Z " fill="#E7F5F9" transform="translate(339,204)"/>
<path d="M0 0 C-0.33 0.66 -0.66 1.32 -1 2 C-0.34 2.33 0.32 2.66 1 3 C0.01 3.495 0.01 3.495 -1 4 C-0.34 4.33 0.32 4.66 1 5 C-0.32 8.3 -1.64 11.6 -3 15 C-4.98 15 -6.96 15 -9 15 C-8.814375 14.29875 -8.62875 13.5975 -8.4375 12.875 C-7.94843024 9.66111302 -8.33768442 7.16439664 -9 4 C-10.175625 5.2065625 -10.175625 5.2065625 -11.375 6.4375 C-14 9 -14 9 -16 10 C-14.54545455 4.54545455 -14.54545455 4.54545455 -12.25 2.25 C-8.14588733 -0.03006259 -4.5839853 -1.76307127 0 0 Z " fill="#EDF6FB" transform="translate(219,199)"/>
<path d="M0 0 C0.89203125 0.00902344 1.7840625 0.01804688 2.703125 0.02734375 C3.37859375 0.03894531 4.0540625 0.05054688 4.75 0.0625 C1.30549263 2.35883824 -1.18812283 2.60266485 -5.25 3.0625 C-5.58 4.3825 -5.91 5.7025 -6.25 7.0625 C-5.26 6.7325 -4.27 6.4025 -3.25 6.0625 C-2.92 6.7225 -2.59 7.3825 -2.25 8.0625 C-3.18446535 10.09394641 -4.18224776 12.09783587 -5.25 14.0625 C-8.55 14.0625 -11.85 14.0625 -15.25 14.0625 C-12.3388587 3.38831522 -12.3388587 3.38831522 -9.25 1.0625 C-6.17426278 -0.06828574 -3.25386125 -0.04281396 0 0 Z " fill="#EDF6FA" transform="translate(116.25,179.9375)"/>
<path d="M0 0 C1.97909398 -0.02686553 3.95828971 -0.04633375 5.9375 -0.0625 C7.03964844 -0.07410156 8.14179687 -0.08570313 9.27734375 -0.09765625 C12 0 12 0 13 1 C13.07179964 2.51928038 13.08392007 4.04167482 13.0625 5.5625 C13.05347656 6.38878906 13.04445313 7.21507812 13.03515625 8.06640625 C13.02355469 8.70449219 13.01195313 9.34257812 13 10 C13.66 9.67 14.32 9.34 15 9 C16.70702735 8.93003986 18.41668003 8.91559846 20.125 8.9375 C21.03507812 8.94652344 21.94515625 8.95554688 22.8828125 8.96484375 C23.93082031 8.98224609 23.93082031 8.98224609 25 9 C25 9.33 25 9.66 25 10 C20.545 10.495 20.545 10.495 16 11 C15.69707031 11.99902344 15.39414063 12.99804688 15.08203125 14.02734375 C14.65995627 15.33108648 14.23671837 16.63445312 13.8125 17.9375 C13.61591797 18.59685547 13.41933594 19.25621094 13.21679688 19.93554688 C12.58203125 21.83984375 12.58203125 21.83984375 11 25 C8.44921875 25.81640625 8.44921875 25.81640625 6 26 C5.34 26.66 4.68 27.32 4 28 C4.46800711 23.94393835 4.87953208 20.53411321 7 17 C8.32 17 9.64 17 11 17 C11.33 15.02 11.66 13.04 12 11 C11.01 11 10.02 11 9 11 C9.66 8.03 10.32 5.06 11 2 C7.37 1.67 3.74 1.34 0 1 C0 0.67 0 0.34 0 0 Z " fill="#1B5693" transform="translate(68,170)"/>
<path d="M0 0 C1.5625 1.1875 1.5625 1.1875 3 3 C2.68960041 6.8282616 1.2606282 10.38619915 0 14 C-0.99 13.34 -1.98 12.68 -3 12 C-3.66 12 -4.32 12 -5 12 C-5.12375 12.78375 -5.2475 13.5675 -5.375 14.375 C-6 17 -6 17 -8 19 C-8.66 17.68 -9.32 16.36 -10 15 C-9.34 14.67 -8.68 14.34 -8 14 C-8.33 13.67 -8.66 13.34 -9 13 C-9.375 10.25 -9.375 10.25 -9 7 C-6.37632897 3.79329096 -3.84788585 1.5676572 0 0 Z " fill="#F9FBFA" transform="translate(165,200)"/>
<path d="M0 0 C-0.598125 0.495 -1.19625 0.99 -1.8125 1.5 C-4.69651861 4.79602127 -5.61871542 7.85614626 -7 12 C-7.66 12 -8.32 12 -9 12 C-9 11.34 -9 10.68 -9 10 C-10.32 10 -11.64 10 -13 10 C-13.33 11.32 -13.66 12.64 -14 14 C-14.66 14 -15.32 14 -16 14 C-15.55123384 12.35153231 -15.09069512 10.70626545 -14.625 9.0625 C-14.36976563 8.14597656 -14.11453125 7.22945312 -13.8515625 6.28515625 C-13 4 -13 4 -11 3 C-11.33 4.32 -11.66 5.64 -12 7 C-10.35 7 -8.7 7 -7 7 C-6.957279 5.33388095 -6.95936168 3.66617115 -7 2 C-7.33 1.67 -7.66 1.34 -8 1 C-11.41644343 0.85550159 -11.41644343 0.85550159 -15 2 C-16.84806699 4.22729461 -17.78586273 6.328898 -19 9 C-20.76462683 5.91190305 -21 4.76687864 -21 1 C-14.45672257 -1.58287267 -6.45461202 -3.65761348 0 0 Z " fill="#245C92" transform="translate(347,204)"/>
<path d="M0 0 C0.33 0.66 0.66 1.32 1 2 C0.01 3.485 0.01 3.485 -1 5 C-1.99 5 -2.98 5 -4 5 C-3.01 7.31 -2.02 9.62 -1 12 C-2.32 12.33 -3.64 12.66 -5 13 C-5.33 14.98 -5.66 16.96 -6 19 C-7.32 19.33 -8.64 19.66 -10 20 C-9.51991666 17.05091665 -9.03751631 14.15006523 -8.3125 11.25 C-8.1578125 10.13625 -8.1578125 10.13625 -8 9 C-8.66 8.34 -9.32 7.68 -10 7 C-13.26460973 8.80412643 -14.88929795 9.83394693 -17 13 C-17.66 13 -18.32 13 -19 13 C-17.0466772 8.64258761 -15.34367802 6.58553224 -10.8984375 4.6484375 C-9.73570312 4.22820312 -8.57296875 3.80796875 -7.375 3.375 C-3.39855257 2.18783379 -3.39855257 2.18783379 0 0 Z " fill="#E5F1F8" transform="translate(175,194)"/>
<path d="M0 0 C0.94875 0.103125 1.8975 0.20625 2.875 0.3125 C5 1 5 1 6.3125 3.0625 C6.6528125 4.0215625 6.6528125 4.0215625 7 5 C5.02 7.97 5.02 7.97 3 11 C3.495 10.67 3.99 10.34 4.5 10 C8.09090894 8.56363642 11.14456127 8.87148538 15 9 C15 9.33 15 9.66 15 10 C13.741875 10.268125 12.48375 10.53625 11.1875 10.8125 C6.9439556 11.8874456 6.9439556 11.8874456 4 15 C2.80972016 17.59915538 2.80972016 17.59915538 2 20 C1.67 20 1.34 20 1 20 C0.67 17.03 0.34 14.06 0 11 C-3.3 10.67 -6.6 10.34 -10 10 C-10 9.67 -10 9.34 -10 9 C-4.06 8.505 -4.06 8.505 2 8 C2.66 6.02 3.32 4.04 4 2 C0.04 2 -3.92 2 -8 2 C-8.33 3.32 -8.66 4.64 -9 6 C-9.66 6 -10.32 6 -11 6 C-11 2 -11 2 -10 0.1875 C-6.74324916 -1.74619581 -3.53678186 -0.67005438 0 0 Z " fill="#14518D" transform="translate(209,170)"/>
<path d="M0 0 C0.66 0 1.32 0 2 0 C1.39295329 5.97333966 -0.25998939 11.24673192 -2.3125 16.875 C-2.60833984 17.74125 -2.90417969 18.6075 -3.20898438 19.5 C-3.50740234 20.32242188 -3.80582031 21.14484375 -4.11328125 21.9921875 C-4.37923096 22.73839355 -4.64518066 23.48459961 -4.91918945 24.25341797 C-6 26 -6 26 -8.11791992 26.75048828 C-8.73900635 26.83282715 -9.36009277 26.91516602 -10 27 C-8.44006278 20.41815961 -6.39111143 14.14422326 -3.875 7.875 C-3.60929199 7.21169678 -3.34358398 6.54839355 -3.06982422 5.86499023 C-1.13902186 1.13902186 -1.13902186 1.13902186 0 0 Z " fill="#275A93" transform="translate(145,187)"/>
<path d="M0 0 C0.99 0 1.98 0 3 0 C0.75424696 9.29820555 -2.54923511 18.09948344 -6 27 C-6.99 27 -7.98 27 -9 27 C-8.45371735 20.67872937 -6.36700755 15.39080049 -3.9375 9.5625 C-3.56044922 8.64017578 -3.18339844 7.71785156 -2.79492188 6.76757812 C-1.87031 4.5087162 -0.93855136 2.2530973 0 0 Z " fill="#245891" transform="translate(253,187)"/>
<path d="M0 0 C0.99 0.66 1.98 1.32 3 2 C4.92219704 1.30403211 6.84179317 0.59643075 8.7265625 -0.1953125 C12.396261 -1.49420922 16.13653778 -1.74064721 20 -2 C19.67 -0.35 19.34 1.3 19 3 C18.34773438 2.88140625 17.69546875 2.7628125 17.0234375 2.640625 C11.11299391 1.76679979 11.11299391 1.76679979 5.5625 3.75 C2.67498863 6.26784423 2.67498863 6.26784423 0 9 C-0.66 6.69 -1.32 4.38 -2 2 C-3.41623216 1.94552953 -4.83308191 1.90699492 -6.25 1.875 C-7.43335938 1.84019531 -7.43335938 1.84019531 -8.640625 1.8046875 C-11.20731941 2.0171622 -12.7916067 2.71345895 -15 4 C-15 3.01 -15 2.02 -15 1 C-9.14449431 -1.67093242 -6.21374954 -2.55860275 0 0 Z " fill="#195694" transform="translate(270,179)"/>
<path d="M0 0 C0.99 0 1.98 0 3 0 C1.19399361 9.48153355 -2.16008253 18.16667207 -6 27 C-6.99 27 -7.98 27 -9 27 C-7.71011592 20.49194848 -5.8622531 14.57980187 -3.375 8.4375 C-3.05015625 7.61958984 -2.7253125 6.80167969 -2.390625 5.95898438 C-1.59978204 3.97024694 -0.80075781 1.98476601 0 0 Z " fill="#275D96" transform="translate(314,187)"/>
<path d="M0 0 C0.33 0.66 0.66 1.32 1 2 C2.13179688 1.97679687 3.26359375 1.95359375 4.4296875 1.9296875 C5.91145175 1.91093099 7.39322312 1.89273066 8.875 1.875 C9.62136719 1.85824219 10.36773437 1.84148437 11.13671875 1.82421875 C13.09194461 1.8066041 15.04742021 1.89679811 17 2 C17.66 2.66 18.32 3.32 19 4 C18.9765625 6.6015625 18.9765625 6.6015625 18.625 9.625 C18.45871094 11.12933594 18.45871094 11.12933594 18.2890625 12.6640625 C18.14597656 13.82035156 18.14597656 13.82035156 18 15 C17.34 15 16.68 15 16 15 C15.67 16.32 15.34 17.64 15 19 C15.66 19 16.32 19 17 19 C17 20.32 17 21.64 17 23 C15.68 23 14.36 23 13 23 C12.79620395 17.8032007 12.79449202 13.80022325 15 9 C15.37593066 7.0075675 15.71979545 5.0081326 16 3 C15.39414062 3.0721875 14.78828125 3.144375 14.1640625 3.21875 C8.08165405 3.8924937 2.11697862 4.11713363 -4 4 C-2.68 2.68 -1.36 1.36 0 0 Z " fill="#19578F" transform="translate(357,201)"/>
<path d="M0 0 C0.6875 1.8125 0.6875 1.8125 1 4 C-0.3125 5.75 -0.3125 5.75 -2 7 C-2.66 7 -3.32 7 -4 7 C-3.79503906 7.71542969 -3.59007813 8.43085938 -3.37890625 9.16796875 C-2.92657024 12.54883068 -3.5752513 14.21648023 -4.9375 17.3125 C-5.31777344 18.19550781 -5.69804688 19.07851562 -6.08984375 19.98828125 C-6.39019531 20.65214844 -6.69054687 21.31601563 -7 22 C-8.32 22 -9.64 22 -11 22 C-11.35083068 17.08837045 -10.37454252 14.27417654 -8 10 C-7.67 9.01 -7.34 8.02 -7 7 C-7.66 6.67 -8.32 6.34 -9 6 C-8.15115234 5.72736328 -8.15115234 5.72736328 -7.28515625 5.44921875 C-6.55167969 5.19785156 -5.81820312 4.94648438 -5.0625 4.6875 C-3.96615234 4.32205078 -3.96615234 4.32205078 -2.84765625 3.94921875 C-0.64067976 3.08759559 -0.64067976 3.08759559 0 0 Z " fill="#DBECF7" transform="translate(115,192)"/>
<path d="M0 0 C0.66 0 1.32 0 2 0 C1.45371735 6.32127063 -0.63299245 11.60919951 -3.0625 17.4375 C-3.43955078 18.35982422 -3.81660156 19.28214844 -4.20507812 20.23242188 C-5.12969 22.4912838 -6.06144864 24.7469027 -7 27 C-7.66 27 -8.32 27 -9 27 C-8.25895491 17.18115255 -4.56217246 8.63554072 0 0 Z " fill="#255B94" transform="translate(284,187)"/>
<path d="M0 0 C0.33 0.99 0.66 1.98 1 3 C1.53625 3.4125 2.0725 3.825 2.625 4.25 C4 6 4 6 3.6875 9.6875 C3.460625 10.780625 3.23375 11.87375 3 13 C2.34 13 1.68 13 1 13 C1.33 15.31 1.66 17.62 2 20 C1.01 20.33 0.02 20.66 -1 21 C-2.09293514 18.15836862 -2.02394138 17.06883147 -1 14.125 C0.15314234 10.52143019 0.11921336 8.59747152 -1 5 C-2.42048316 2.93243871 -2.42048316 2.93243871 -5 2 C-10.39214179 1.43679757 -15.68315973 2.09500591 -21 3 C-20.67 2.01 -20.34 1.02 -20 0 C-17.22949974 -0.1946838 -14.45886998 -0.38102792 -11.6875 -0.5625 C-10.90181641 -0.61857422 -10.11613281 -0.67464844 -9.30664062 -0.73242188 C-8.1706543 -0.80493164 -8.1706543 -0.80493164 -7.01171875 -0.87890625 C-6.31522217 -0.9260376 -5.61872559 -0.97316895 -4.90112305 -1.02172852 C-3 -1 -3 -1 0 0 Z " fill="#195995" transform="translate(328,179)"/>
<path d="M0 0 C2.16874252 0.50603992 3.99967627 0.99983813 6 2 C6.125 5.375 6.125 5.375 6 9 C4.66666667 10.33333333 3.33333333 11.66666667 2 13 C2 12.34 2 11.68 2 11 C1.01 11.495 1.01 11.495 0 12 C-2.55157655 12.0716735 -5.07472971 12.09308442 -7.625 12.0625 C-8.33140625 12.05798828 -9.0378125 12.05347656 -9.765625 12.04882812 C-11.51045275 12.03703875 -13.255237 12.01910324 -15 12 C-15 11.67 -15 11.34 -15 11 C-11.04 11 -7.08 11 -3 11 C-2.67 9.35 -2.34 7.7 -2 6 C-1.35610218 3.99255385 -0.69437747 1.99054876 0 0 Z " fill="#0A5DA4" transform="translate(85,209)"/>
<path d="M0 0 C0.66 0 1.32 0 2 0 C2 0.66 2 1.32 2 2 C3.32 1.67 4.64 1.34 6 1 C6.33 1.66 6.66 2.32 7 3 C8.98 3 10.96 3 13 3 C13.33 3.66 13.66 4.32 14 5 C13.39671875 5.13277344 12.7934375 5.26554688 12.171875 5.40234375 C11.37265625 5.57894531 10.5734375 5.75554687 9.75 5.9375 C8.56664062 6.19853516 8.56664062 6.19853516 7.359375 6.46484375 C6.19148438 6.72974609 6.19148438 6.72974609 5 7 C4.26265625 7.14566406 3.5253125 7.29132813 2.765625 7.44140625 C2.18296875 7.62574219 1.6003125 7.81007812 1 8 C0.67 8.66 0.34 9.32 0 10 C0.66 10.33 1.32 10.66 2 11 C2.28571429 18.42857143 2.28571429 18.42857143 0 22 C-0.12375 21.195625 -0.2475 20.39125 -0.375 19.5625 C-0.58125 18.716875 -0.7875 17.87125 -1 17 C-1.66 16.67 -2.32 16.34 -3 16 C-2.01 10.72 -1.02 5.44 0 0 Z " fill="#0C5EA3" transform="translate(325,198)"/>
<path d="M0 0 C2.00720923 0.28674418 4.0085944 0.61866701 6 1 C6 2.65 6 4.3 6 6 C12.53637992 4.65819306 12.53637992 4.65819306 18 1 C18.33 3.31 18.66 5.62 19 8 C18.01 8 17.02 8 16 8 C14.91138672 8.05220703 14.91138672 8.05220703 13.80078125 8.10546875 C7.75895168 8.30464994 3.52443283 7.45530348 -2 5 C-1.125 1.125 -1.125 1.125 0 0 Z " fill="#16579B" transform="translate(321,215)"/>
<path d="M0 0 C3.96 0 7.92 0 12 0 C11.67 1.98 11.34 3.96 11 6 C6.71 6 2.42 6 -2 6 C-1.34 4.02 -0.68 2.04 0 0 Z " fill="#EAF7FA" transform="translate(201,172)"/>
<path d="M0 0 C4.62 0 9.24 0 14 0 C13.67 0.99 13.34 1.98 13 3 C13 2.34 13 1.68 13 1 C9.37 1 5.74 1 2 1 C1.5875 2.299375 1.175 3.59875 0.75 4.9375 C-0.85533149 9.77653752 -2.84913976 14.38165542 -5 19 C-5.33 19 -5.66 19 -6 19 C-5.67 13.72 -5.34 8.44 -5 3 C-3.35 2.67 -1.7 2.34 0 2 C0 1.34 0 0.68 0 0 Z " fill="#27558E" transform="translate(241,180)"/>
<path d="M0 0 C1.68824313 2.53499435 2.07377833 3.61356911 1.49267578 6.65722656 C1.1470459 7.64174805 0.80141602 8.62626953 0.4453125 9.640625 C0.07792969 10.71054688 -0.28945312 11.78046875 -0.66796875 12.8828125 C-1.06628906 13.99398437 -1.46460937 15.10515625 -1.875 16.25 C-2.26558594 17.37664062 -2.65617187 18.50328125 -3.05859375 19.6640625 C-4.02577814 22.44766637 -5.00663016 25.22565542 -6 28 C-6.99 27.67 -7.98 27.34 -9 27 C-6.43696551 17.84951721 -3.20468777 8.93993804 0 0 Z " fill="#306298" transform="translate(127,192)"/>
<path d="M0 0 C1.32 0 2.64 0 4 0 C3.01 2.97 2.02 5.94 1 9 C0.01 9 -0.98 9 -2 9 C-1.97679687 9.60328125 -1.95359375 10.2065625 -1.9296875 10.828125 C-1.91164063 11.62734375 -1.89359375 12.4265625 -1.875 13.25 C-1.85179687 14.03890625 -1.82859375 14.8278125 -1.8046875 15.640625 C-2.0171622 18.20731941 -2.71345895 19.7916067 -4 22 C-6.14699969 18.55824478 -6.09856795 16.2279708 -5.625 12.25 C-5.51414063 11.26515625 -5.40328125 10.2803125 -5.2890625 9.265625 C-5.19367187 8.51796875 -5.09828125 7.7703125 -5 7 C-3.02 6.67 -1.04 6.34 1 6 C0.67 4.02 0.34 2.04 0 0 Z " fill="#1F5D97" transform="translate(64,172)"/>
<path d="M0 0 C4.29 0 8.58 0 13 0 C12.67 1.65 12.34 3.3 12 5 C11.67 3.68 11.34 2.36 11 1 C6.545 1.495 6.545 1.495 2 2 C1.34 3.65 0.68 5.3 0 7 C0.66 7 1.32 7 2 7 C1.875 9.25 1.875 9.25 1 12 C-2.0625 14.3125 -2.0625 14.3125 -5 16 C-4.54287762 14.45797384 -4.08423653 12.91639786 -3.625 11.375 C-3.36976563 10.51648438 -3.11453125 9.65796875 -2.8515625 8.7734375 C-1.94897313 5.83381156 -0.97242317 2.91726952 0 0 Z " fill="#E0EEF8" transform="translate(197,181)"/>
<path d="M0 0 C1.3534906 4.06047179 0.15966205 5.79888114 -1.375 9.75 C-3.25258499 14.59605736 -4.43459778 18.87193336 -5 24 C-1.37 24.66 2.26 25.32 6 26 C6 26.33 6 26.66 6 27 C4.39667209 27.08121924 2.79215974 27.13929134 1.1875 27.1875 C-0.15248047 27.23970703 -0.15248047 27.23970703 -1.51953125 27.29296875 C-4 27 -4 27 -5.80078125 25.76171875 C-8.0351369 22.47932657 -7.50213691 18.80674065 -7 15 C-5.75 12.5625 -5.75 12.5625 -4 10 C-2.57556722 6.70185098 -1.28345608 3.35522781 0 0 Z " fill="#1A588E" transform="translate(58,195)"/>
<path d="M0 0 C1.44715727 3.87186448 0.5441918 6.8232328 -0.4375 10.75 C-0.72496094 11.92046875 -1.01242187 13.0909375 -1.30859375 14.296875 C-1.53675781 15.18890625 -1.76492188 16.0809375 -2 17 C-1.34 17.33 -0.68 17.66 0 18 C-3.14930893 19.04976964 -5.38814456 19.10131595 -8.6875 19.0625 C-9.68136719 19.05347656 -10.67523438 19.04445312 -11.69921875 19.03515625 C-12.83810547 19.01775391 -12.83810547 19.01775391 -14 19 C-14 18.67 -14 18.34 -14 18 C-10.97265625 17.75585938 -10.97265625 17.75585938 -7.9453125 17.51171875 C-5.60480784 17.12606964 -5.60480784 17.12606964 -4 14 C-4.99 14 -5.98 14 -7 14 C-7 13.34 -7 12.68 -7 12 C-6.01 12 -5.02 12 -4 12 C-3.79503906 11.21753906 -3.59007812 10.43507812 -3.37890625 9.62890625 C-3.10949219 8.61699219 -2.84007812 7.60507813 -2.5625 6.5625 C-2.29566406 5.55316406 -2.02882813 4.54382813 -1.75390625 3.50390625 C-1 1 -1 1 0 0 Z " fill="#E1F2FA" transform="translate(312,202)"/>
<path d="M0 0 C-0.33 1.32 -0.66 2.64 -1 4 C-2.98 4.33 -4.96 4.66 -7 5 C-7.12375 6.03125 -7.2475 7.0625 -7.375 8.125 C-7.93889814 11.62116846 -8.78682059 14.68397627 -10 18 C-10.66 18 -11.32 18 -12 18 C-11.44278316 11.7313105 -9.83155943 5.64359087 -7 0 C-3.86650268 -1.04449911 -3.01031744 -0.93423645 0 0 Z " fill="#1B5995" transform="translate(78,196)"/>
<path d="M0 0 C0.99 0 1.98 0 3 0 C3.74926071 3.66305234 4.2380014 6.42355152 3 10 C2.34 10 1.68 10 1 10 C1.66 11.65 2.32 13.3 3 15 C2.01 15.66 1.02 16.32 0 17 C-0.93402724 11.58264203 -1.20808081 8.19548425 1 3 C-2.63 3 -6.26 3 -10 3 C-10 2.67 -10 2.34 -10 2 C-9.04287109 1.90912109 -9.04287109 1.90912109 -8.06640625 1.81640625 C-6.82697266 1.69072266 -6.82697266 1.69072266 -5.5625 1.5625 C-4.73878906 1.48128906 -3.91507812 1.40007812 -3.06640625 1.31640625 C-1.01337975 1.21069185 -1.01337975 1.21069185 0 0 Z " fill="#0F5794" transform="translate(303,169)"/>
<path d="M0 0 C0.66 0 1.32 0 2 0 C1.50763198 6.52387621 1.50763198 6.52387621 -0.69921875 8.59375 C-3.2564543 10.15674626 -5.73896498 11.18485695 -8.5625 12.1875 C-9.51253906 12.53167969 -10.46257812 12.87585938 -11.44140625 13.23046875 C-14 14 -14 14 -17 14 C-17 13.34 -17 12.68 -17 12 C-16.31292969 11.80664062 -15.62585938 11.61328125 -14.91796875 11.4140625 C-13.56638672 11.02347656 -13.56638672 11.02347656 -12.1875 10.625 C-11.29417969 10.36976563 -10.40085938 10.11453125 -9.48046875 9.8515625 C-5.73889242 8.56705283 -4.24245441 7.45693331 -2.375 3.9375 C-1.92125 2.968125 -1.4675 1.99875 -1 1 C-0.67 0.67 -0.34 0.34 0 0 Z " fill="#165089" transform="translate(175,187)"/>
<path d="M0 0 C6.93 0.495 6.93 0.495 14 1 C15 6 15 6 14 9 C15.65 9 17.3 9 19 9 C19 9.33 19 9.66 19 10 C15.7 10.66 12.4 11.32 9 12 C9.99 8.7 10.98 5.4 12 2 C6.06 2.495 6.06 2.495 0 3 C0 2.01 0 1.02 0 0 Z " fill="#1E5F97" transform="translate(137,170)"/>
<path d="M0 0 C0 0.66 0 1.32 0 2 C0.66 2 1.32 2 2 2 C2 2.99 2 3.98 2 5 C2.99 5.66 3.98 6.32 5 7 C2.59454362 8.20272819 1.05003047 8.10071472 -1.625 8.0625 C-2.85089844 8.04896484 -2.85089844 8.04896484 -4.1015625 8.03515625 C-5.04128906 8.01775391 -5.04128906 8.01775391 -6 8 C-5.6875 5.125 -5.6875 5.125 -5 2 C-2 0 -2 0 0 0 Z " fill="#F6FCFD" transform="translate(185,219)"/>
<path d="M0 0 C3.63 0.33 7.26 0.66 11 1 C11 1.66 11 2.32 11 3 C7.38026598 4.31626692 4.90432869 5 1 5 C1 5.66 1 6.32 1 7 C1.66 7.33 2.32 7.66 3 8 C2.01 8.66 1.02 9.32 0 10 C-1.125 8.375 -1.125 8.375 -2 6 C-1.125 2.75 -1.125 2.75 0 0 Z " fill="#25629F" transform="translate(157,194)"/>
<path d="M0 0 C0.99 0 1.98 0 3 0 C3.45293073 8.90763766 3.45293073 8.90763766 0 13 C-0.99 13 -1.98 13 -3 13 C-2.45144652 8.428721 -1.58255197 4.32564205 0 0 Z " fill="#EFF6FC" transform="translate(349,206)"/>
<path d="M0 0 C0.99 0.66 1.98 1.32 3 2 C2.67 3.65 2.34 5.3 2 7 C5.96 7 9.92 7 14 7 C14 7.33 14 7.66 14 8 C4.52958787 8.78118882 -4.52388303 9.16656743 -14 8 C-14 7.67 -14 7.34 -14 7 C-10.04 7 -6.08 7 -2 7 C-1.34 4.69 -0.68 2.38 0 0 Z " fill="#4D7CB3" transform="translate(243,213)"/>
<path d="M0 0 C0.33 0 0.66 0 1 0 C1.66 2.64 2.32 5.28 3 8 C2.01 8.495 2.01 8.495 1 9 C1.33 9.66 1.66 10.32 2 11 C3.89533342 11.46523063 3.89533342 11.46523063 6.0625 11.625 C7.361875 11.74875 8.66125 11.8725 10 12 C8 14 8 14 4.5625 14.25 C1 14 1 14 -2 12 C-1.85831863 10.56208484 -1.71148957 9.1246763 -1.5625 7.6875 C-1.48128906 6.88699219 -1.40007812 6.08648437 -1.31640625 5.26171875 C-1 3 -1 3 0 0 Z " fill="#E3F2FA" transform="translate(155,207)"/>
<path d="M0 0 C2 3 2 3 2 6 C4.64 6.33 7.28 6.66 10 7 C10 7.33 10 7.66 10 8 C9.01257813 7.98839844 8.02515625 7.97679687 7.0078125 7.96484375 C5.72648437 7.95582031 4.44515625 7.94679687 3.125 7.9375 C1.21074219 7.92009766 1.21074219 7.92009766 -0.7421875 7.90234375 C-3.88664652 7.76823431 -3.88664652 7.76823431 -6 9 C-8.3329866 9.04022391 -10.66706666 9.04320247 -13 9 C-9.31265242 6.54176828 -6.30300029 5.98757384 -2 5 C-2 4.01 -2 3.02 -2 2 C-1.34 2 -0.68 2 0 2 C0 1.34 0 0.68 0 0 Z " fill="#E4F7F9" transform="translate(277,212)"/>
<path d="M0 0 C1.11375 0.1546875 1.11375 0.1546875 2.25 0.3125 C2.25 1.3025 2.25 2.2925 2.25 3.3125 C0.27 3.6425 -1.71 3.9725 -3.75 4.3125 C-3.93175781 4.95058594 -4.11351563 5.58867187 -4.30078125 6.24609375 C-4.55214844 7.07238281 -4.80351563 7.89867187 -5.0625 8.75 C-5.30613281 9.57371094 -5.54976563 10.39742187 -5.80078125 11.24609375 C-6.11402344 11.92800781 -6.42726563 12.60992187 -6.75 13.3125 C-7.74 13.6425 -8.73 13.9725 -9.75 14.3125 C-5.82432432 0.66185504 -5.82432432 0.66185504 0 0 Z " fill="#275D99" transform="translate(95.75,193.6875)"/>
<path d="M0 0 C0.33 0 0.66 0 1 0 C1 1.65 1 3.3 1 5 C1.99 5 2.98 5 4 5 C4 5.66 4 6.32 4 7 C5.32 7 6.64 7 8 7 C8 6.34 8 5.68 8 5 C10.31 5 12.62 5 15 5 C15 5.66 15 6.32 15 7 C18.63 7 22.26 7 26 7 C26 7.33 26 7.66 26 8 C22.04 8 18.08 8 14 8 C14 7.34 14 6.68 14 6 C13.484375 6.33 12.96875 6.66 12.4375 7 C9.15552906 8.34644962 6.51567217 8.25568525 3 8 C2.01 7.34 1.02 6.68 0 6 C-0.1875 2.875 -0.1875 2.875 0 0 Z " fill="#BDD3EA" transform="translate(92,213)"/>
<path d="M0 0 C0.33 0 0.66 0 1 0 C0.85769192 1.41702513 0.71099254 2.8336096 0.5625 4.25 C0.48128906 5.03890625 0.40007812 5.8278125 0.31640625 6.640625 C0 9 0 9 -0.59765625 11.109375 C-1.2115801 13.20987429 -1.2115801 13.20987429 0 16 C-1.65 16.66 -3.3 17.32 -5 18 C-6 16 -6 16 -4.78515625 12.3046875 C-4.21866415 10.82514342 -3.64408111 9.34867819 -3.0625 7.875 C-2.77181641 7.12089844 -2.48113281 6.36679688 -2.18164062 5.58984375 C-1.46125002 3.72391398 -0.73149596 1.8616042 0 0 Z " fill="#D1E5F5" transform="translate(269,192)"/>
<path d="M0 0 C1.125 3.75 1.125 3.75 0 6 C0.66 6.33 1.32 6.66 2 7 C2.28571429 14.42857143 2.28571429 14.42857143 0 18 C-0.12375 17.195625 -0.2475 16.39125 -0.375 15.5625 C-0.684375 14.2940625 -0.684375 14.2940625 -1 13 C-1.66 12.67 -2.32 12.34 -3 12 C-2.69230293 10.18667846 -2.37870936 8.37435655 -2.0625 6.5625 C-1.80146484 5.04849609 -1.80146484 5.04849609 -1.53515625 3.50390625 C-1 1 -1 1 0 0 Z " fill="#08559D" transform="translate(325,202)"/>
<path d="M0 0 C0.66 0.33 1.32 0.66 2 1 C2 1.66 2 2.32 2 3 C1.01 3.33 0.02 3.66 -1 4 C-1.33 4.66 -1.66 5.32 -2 6 C-2.99 6 -3.98 6 -5 6 C-4.67 4.68 -4.34 3.36 -4 2 C-6.91517292 3.07401108 -8.77810176 3.77810176 -11 6 C-11.33 5.01 -11.66 4.02 -12 3 C-7.89888036 0.01736753 -5.02618483 -0.3793347 0 0 Z " fill="#E1EFF9" transform="translate(266,180)"/>
<path d="M0 0 C0.66 0 1.32 0 2 0 C0.66666667 4 -0.66666667 8 -2 12 C-2.99 12 -3.98 12 -5 12 C-4.58894145 6.75900345 -3.75960806 3.75960806 0 0 Z " fill="#3B6294" transform="translate(110,202)"/>
<path d="M0 0 C0.99 0 1.98 0 3 0 C3 0.99 3 1.98 3 3 C3.99 3.33 4.98 3.66 6 4 C5.01 5.485 5.01 5.485 4 7 C4 6.34 4 5.68 4 5 C3.01 5.495 3.01 5.495 2 6 C-0.55157655 6.0716735 -3.07472971 6.09308442 -5.625 6.0625 C-6.33140625 6.05798828 -7.0378125 6.05347656 -7.765625 6.04882812 C-9.51045275 6.03703875 -11.255237 6.01910324 -13 6 C-13 5.67 -13 5.34 -13 5 C-9.04 5 -5.08 5 -1 5 C-0.67 3.35 -0.34 1.7 0 0 Z " fill="#2E71A9" transform="translate(83,215)"/>
<path d="M0 0 C2.97 0.495 2.97 0.495 6 1 C6.625 2.8125 6.625 2.8125 7 5 C6.01 6.485 6.01 6.485 5 8 C5 6.02 5 4.04 5 2 C4.01 2 3.02 2 2 2 C1.89042969 2.61488281 1.78085937 3.22976562 1.66796875 3.86328125 C1.50941406 4.67152344 1.35085938 5.47976562 1.1875 6.3125 C1.03667969 7.11300781 0.88585937 7.91351563 0.73046875 8.73828125 C-0.07572236 11.23445587 -1.02052002 12.32422106 -3 14 C-2.7834375 13.32453125 -2.566875 12.6490625 -2.34375 11.953125 C-2.0653125 11.06109375 -1.786875 10.1690625 -1.5 9.25 C-1.2215625 8.36828125 -0.943125 7.4865625 -0.65625 6.578125 C0.16445285 3.79732471 0.16445285 3.79732471 0 0 Z " fill="#96ACC3" transform="translate(347,204)"/>
<path d="M0 0 C0.99 0 1.98 0 3 0 C3 0.66 3 1.32 3 2 C5.31 2 7.62 2 10 2 C10 2.66 10 3.32 10 4 C5.87831311 5.62950412 3.29299643 6.26264601 -1 5 C-0.67 3.35 -0.34 1.7 0 0 Z " fill="#0B57A0" transform="translate(206,193)"/>
<path d="M0 0 C0.33 0.99 0.66 1.98 1 3 C3.00016466 4.20882096 3.00016466 4.20882096 5 5 C5 5.33 5 5.66 5 6 C-4.405 6.99 -4.405 6.99 -14 8 C-14 7.34 -14 6.68 -14 6 C-10.04 6 -6.08 6 -2 6 C-1.67 4.35 -1.34 2.7 -1 1 C-0.67 0.67 -0.34 0.34 0 0 Z " fill="#1A5795" transform="translate(259,215)"/>
<path d="M0 0 C2 3 2 3 2 5 C5.96 5 9.92 5 14 5 C13.01 6.485 13.01 6.485 12 8 C9.1796875 8.29296875 9.1796875 8.29296875 5.875 8.1875 C4.23144531 8.14689453 4.23144531 8.14689453 2.5546875 8.10546875 C1.71164063 8.07066406 0.86859375 8.03585938 0 8 C-0.33 8.66 -0.66 9.32 -1 10 C-0.67 6.7 -0.34 3.4 0 0 Z " fill="#4070A5" transform="translate(197,173)"/>
<path d="M0 0 C0.66 0.66 1.32 1.32 2 2 C4.89223503 2.46396693 4.89223503 2.46396693 8.125 2.625 C9.76855469 2.73714844 9.76855469 2.73714844 11.4453125 2.8515625 C12.70988281 2.92503906 12.70988281 2.92503906 14 3 C14 3.33 14 3.66 14 4 C12.96359375 4.06058594 11.9271875 4.12117187 10.859375 4.18359375 C9.48957127 4.26803371 8.11978025 4.35267997 6.75 4.4375 C5.72712891 4.49647461 5.72712891 4.49647461 4.68359375 4.55664062 C1.35551959 4.76666472 -1.80255402 5.01934002 -5 6 C-5 5.34 -5 4.68 -5 4 C-6.98 4 -8.96 4 -11 4 C-11 3.67 -11 3.34 -11 3 C-7.7 3 -4.4 3 -1 3 C-0.67 2.01 -0.34 1.02 0 0 Z " fill="#124C90" transform="translate(227,218)"/>
<path d="M0 0 C0.66 0 1.32 0 2 0 C1.60446947 1.6510403 1.18286103 3.2958515 0.75 4.9375 C0.40195313 6.31228516 0.40195313 6.31228516 0.046875 7.71484375 C-1 10 -1 10 -3.109375 10.81640625 C-3.73328125 10.87699219 -4.3571875 10.93757812 -5 11 C-4.54961229 6.15833214 -3.40027839 3.50331713 0 0 Z " fill="#2C5A8D" transform="translate(170,203)"/>
<path d="M0 0 C0.66 0.33 1.32 0.66 2 1 C0.68 4.3 -0.64 7.6 -2 11 C-2.99 11 -3.98 11 -5 11 C-4.4971641 7.31253672 -4.00153469 4.17890804 -2 1 C-1.34 0.67 -0.68 0.34 0 0 Z " fill="#2D598B" transform="translate(218,203)"/>
<path d="M0 0 C0.33 0 0.66 0 1 0 C1 3.63 1 7.26 1 11 C4.3 10.67 7.6 10.34 11 10 C11 10.66 11 11.32 11 12 C7.37 12 3.74 12 0 12 C0 11.34 0 10.68 0 10 C-0.99 10 -1.98 10 -3 10 C-2.01 6.7 -1.02 3.4 0 0 Z " fill="#26609B" transform="translate(209,183)"/>
<path d="M0 0 C0.33 0 0.66 0 1 0 C1.14285714 7.42857143 1.14285714 7.42857143 0 11 C-1.65 10.67 -3.3 10.34 -5 10 C-3.66654496 6.40992874 -2.1056769 3.20429093 0 0 Z " fill="#E6F3FA" transform="translate(369,210)"/>
<path d="M0 0 C0.5 2 0.5 2 1 4 C1.2475 4.61875 1.495 5.2375 1.75 5.875 C2.13372195 9.13663653 0.57959408 11.21991443 -1 14 C-1.99 14 -2.98 14 -4 14 C-3.52188823 12.22888156 -3.0424722 10.45811517 -2.5625 8.6875 C-2.29566406 7.70136719 -2.02882812 6.71523437 -1.75390625 5.69921875 C-1.21920575 3.78482474 -0.62855462 1.88566385 0 0 Z " fill="#336097" transform="translate(139,200)"/>
<path d="M0 0 C0.66 0.66 1.32 1.32 2 2 C4.90675183 2.02168637 4.90675183 2.02168637 8.125 1.625 C9.22070312 1.51414063 10.31640625 1.40328125 11.4453125 1.2890625 C12.28835937 1.19367188 13.13140625 1.09828125 14 1 C10.78447861 3.14368092 7.5589943 4.51169329 4 6 C3.01 6.495 3.01 6.495 2 7 C1.01 6.34 0.02 5.68 -1 5 C-0.67 3.35 -0.34 1.7 0 0 Z " fill="#28639B" transform="translate(204,196)"/>
<path d="M0 0 C0.33 0.66 0.66 1.32 1 2 C1.99 2 2.98 2 4 2 C3.34 3.98 2.68 5.96 2 8 C-1.96 8 -5.92 8 -10 8 C-9.67 7.34 -9.34 6.68 -9 6 C-6.03 6 -3.06 6 0 6 C0.33 5.01 0.66 4.02 1 3 C-0.98 3.99 -0.98 3.99 -3 5 C-2.67 4.01 -2.34 3.02 -2 2 C-1.34 2 -0.68 2 0 2 C0 1.34 0 0.68 0 0 Z " fill="#DCEFF6" transform="translate(65,212)"/>
<path d="M0 0 C2.5 0.25 2.5 0.25 4.5 2.25 C4.125 4.875 4.125 4.875 3.5 7.25 C1.85 7.25 0.2 7.25 -1.5 7.25 C0.375 3.375 0.375 3.375 1.5 2.25 C-0.48 2.25 -2.46 2.25 -4.5 2.25 C-2.5 0.25 -2.5 0.25 0 0 Z " fill="#C3DDF3" transform="translate(336.5,203.75)"/>
<path d="M0 0 C4.62 0 9.24 0 14 0 C13.67 0.99 13.34 1.98 13 3 C13 2.34 13 1.68 13 1 C9.37 1 5.74 1 2 1 C1.34 2.32 0.68 3.64 0 5 C-0.66 5 -1.32 5 -2 5 C-2.66 5.99 -3.32 6.98 -4 8 C-4.33 6.35 -4.66 4.7 -5 3 C-3.35 2.67 -1.7 2.34 0 2 C0 1.34 0 0.68 0 0 Z " fill="#4675AE" transform="translate(241,180)"/>
<path d="M0 0 C-0.60990891 3.55780196 -1.5783681 6.6828589 -3 10 C-4.54571278 7.68143083 -5.79618552 5.49361571 -7 3 C-3.375 0 -3.375 0 0 0 Z " fill="#D6EAF6" transform="translate(103,180)"/>
<path d="M0 0 C3.63 0 7.26 0 11 0 C11 0.99 11 1.98 11 3 C8.11788698 3.96070434 6.30149956 4.10581883 3.3125 4.0625 C2.10013672 4.04896484 2.10013672 4.04896484 0.86328125 4.03515625 C-0.05904297 4.01775391 -0.05904297 4.01775391 -1 4 C-0.67 2.68 -0.34 1.36 0 0 Z " fill="#2D6FAD" transform="translate(56,220)"/>
<path d="M0 0 C0.66 0.33 1.32 0.66 2 1 C1.52309796 2.62566606 1.04340334 4.25051311 0.5625 5.875 C0.29566406 6.77992188 0.02882812 7.68484375 -0.24609375 8.6171875 C-1 11 -1 11 -2 13 C-2.66 13 -3.32 13 -4 13 C-3.50269348 8.02693484 -2.44697666 4.36200187 0 0 Z " fill="#265587" transform="translate(155,202)"/>
<path d="M0 0 C0.66 0.33 1.32 0.66 2 1 C2.3227506 5.62609198 1.84450614 8.28026121 -1 12 C-1.66 12 -2.32 12 -3 12 C-2.49202991 7.6822542 -1.80317221 3.96697886 0 0 Z " fill="#215791" transform="translate(301,181)"/>
<path d="M0 0 C-2.98328104 1.98885403 -4.49801286 2.42071796 -7.9375 3 C-11.32111271 3.57159068 -13.99429049 4.32628705 -17 6 C-16.05796011 3.4308003 -15.34534325 2.21583953 -13 0.75 C-8.66425705 -0.33393574 -4.44535343 -0.15537158 0 0 Z " fill="#D6EAF7" transform="translate(121,180)"/>
<path d="M0 0 C0.99 0 1.98 0 3 0 C2.44271087 3.34373475 1.64826111 6.03312999 0 9 C-0.99 8.34 -1.98 7.68 -3 7 C-1.125 1.125 -1.125 1.125 0 0 Z " fill="#335F94" transform="translate(114,187)"/>
<path d="M0 0 C1.98 0.495 1.98 0.495 4 1 C3.67 2.32 3.34 3.64 3 5 C5.97 5 8.94 5 12 5 C8.64672361 7.23551759 8.09256343 7.17283528 4.3125 6.625 C3.10013672 6.45871094 3.10013672 6.45871094 1.86328125 6.2890625 C0.94095703 6.14597656 0.94095703 6.14597656 0 6 C-1 3 -1 3 0 0 Z " fill="#23619A" transform="translate(159,189)"/>
<path d="M0 0 C0.33 0.66 0.66 1.32 1 2 C3.80980673 2.69227032 3.80980673 2.69227032 7.0625 3.125 C8.71958984 3.37636719 8.71958984 3.37636719 10.41015625 3.6328125 C11.26480469 3.75398437 12.11945313 3.87515625 13 4 C13 4.33 13 4.66 13 5 C9.37 5 5.74 5 2 5 C2 5.66 2 6.32 2 7 C1.34 7 0.68 7 0 7 C-0.38133299 5.0085944 -0.71325582 3.00720923 -1 1 C-0.67 0.67 -0.34 0.34 0 0 Z " fill="#28659C" transform="translate(293,217)"/>
<path d="M0 0 C0.33 0.99 0.66 1.98 1 3 C0.67 3.66 0.34 4.32 0 5 C-3.63 5 -7.26 5 -11 5 C-11 4.34 -11 3.68 -11 3 C-10.28972656 2.86722656 -9.57945312 2.73445312 -8.84765625 2.59765625 C-7.92855469 2.42105469 -7.00945312 2.24445313 -6.0625 2.0625 C-4.68771484 1.80146484 -4.68771484 1.80146484 -3.28515625 1.53515625 C-1.04710156 1.22285012 -1.04710156 1.22285012 0 0 Z " fill="#C5DDEF" transform="translate(178,216)"/>
<path d="M0 0 C0.33 0 0.66 0 1 0 C1.33 2.64 1.66 5.28 2 8 C3.98 8.66 5.96 9.32 8 10 C8 10.33 8 10.66 8 11 C4.625 11.125 4.625 11.125 1 11 C-1 9 -1 9 -1.1875 5.5 C-1 2 -1 2 0 0 Z " fill="#DFF4FB" transform="translate(202,210)"/>
<path d="M0 0 C0.66 0 1.32 0 2 0 C1.49287967 3.71888239 0.88391785 6.73454239 -1 10 C-1.66 10 -2.32 10 -3 10 C-2.25 2.25 -2.25 2.25 0 0 Z " fill="#1F538D" transform="translate(278,204)"/>
<path d="M0 0 C2.375 0.25 2.375 0.25 5 1 C7.44127999 4.13878856 7.08354299 7.15702266 7 11 C7.33 11.66 7.66 12.32 8 13 C7.01 13 6.02 13 5 13 C4 10 4 10 4.0625 6.9375 C4.33623843 3.87496819 4.33623843 3.87496819 2 2 C1.01 2.495 1.01 2.495 0 3 C0 2.01 0 1.02 0 0 Z " fill="#095392" transform="translate(86,208)"/>
<path d="M0 0 C0.66 0.33 1.32 0.66 2 1 C1.2169216 3.14898232 0.42328757 5.29412095 -0.375 7.4375 C-0.81585938 8.63246094 -1.25671875 9.82742187 -1.7109375 11.05859375 C-3 14 -3 14 -5 15 C-4.43174347 9.45949887 -2.37113483 4.96284034 0 0 Z " fill="#DAEFFA" transform="translate(153,202)"/>
<path d="M0 0 C1.08667969 0.02707031 2.17335937 0.05414063 3.29296875 0.08203125 C4.54013672 0.13423828 4.54013672 0.13423828 5.8125 0.1875 C5.8125 0.5175 5.8125 0.8475 5.8125 1.1875 C2.5125 1.1875 -0.7875 1.1875 -4.1875 1.1875 C-3.8575 2.5075 -3.5275 3.8275 -3.1875 5.1875 C-6.1875 5.1875 -6.1875 5.1875 -9.1875 3.1875 C-6.54246503 -0.34849411 -4.24021315 -0.13678107 0 0 Z " fill="#DFEAF8" transform="translate(178.1875,179.8125)"/>
<path d="M0 0 C0.98613281 0.22042969 1.97226563 0.44085938 2.98828125 0.66796875 C3.98214844 0.88066406 4.97601563 1.09335938 6 1.3125 C7.13888672 1.58126953 7.13888672 1.58126953 8.30078125 1.85546875 C8.30078125 2.18546875 8.30078125 2.51546875 8.30078125 2.85546875 C4.67078125 2.85546875 1.04078125 2.85546875 -2.69921875 2.85546875 C-3.02921875 4.17546875 -3.35921875 5.49546875 -3.69921875 6.85546875 C-4.35921875 6.85546875 -5.01921875 6.85546875 -5.69921875 6.85546875 C-5.69921875 2.85546875 -5.69921875 2.85546875 -4.5546875 1.0546875 C-2.69921875 -0.14453125 -2.69921875 -0.14453125 0 0 Z " fill="#1F5E97" transform="translate(203.69921875,169.14453125)"/>
<path d="M0 0 C4.29 0 8.58 0 13 0 C8.61017006 3.29237246 7.28011468 3.58667941 2 3 C1.34 2.01 0.68 1.02 0 0 Z " fill="#E2F3FC" transform="translate(134,218)"/>
<path d="M0 0 C0.99 0.66 1.98 1.32 3 2 C1.35 5.3 -0.3 8.6 -2 12 C-2.33 12 -2.66 12 -3 12 C-2.14285714 3.42857143 -2.14285714 3.42857143 0 0 Z " fill="#235384" transform="translate(203,201)"/>
<path d="M0 0 C-0.33 1.32 -0.66 2.64 -1 4 C-4.01031744 4.93423645 -4.86650268 5.04449911 -8 4 C-5.97675095 -0.48005146 -4.79569304 -1.43870791 0 0 Z " fill="#1B65A4" transform="translate(78,196)"/>
<path d="M0 0 C0.66 0.66 1.32 1.32 2 2 C0.35 6.95 -1.3 11.9 -3 17 C-3.33 17 -3.66 17 -4 17 C-3.03644647 7.58997722 -3.03644647 7.58997722 -2 3 C-1.34 3 -0.68 3 0 3 C0 2.01 0 1.02 0 0 Z " fill="#225C96" transform="translate(195,182)"/>
<path d="M0 0 C0.99 0 1.98 0 3 0 C3 2.31 3 4.62 3 7 C1.35 7.33 -0.3 7.66 -2 8 C-1.34 5.36 -0.68 2.72 0 0 Z " fill="#1B5690" transform="translate(290,211)"/>
<path d="M0 0 C0.92538169 3.70152678 1.08174162 4.63458162 0 8 C0.66 8 1.32 8 2 8 C1.67 9.32 1.34 10.64 1 12 C-0.32 11.67 -1.64 11.34 -3 11 C-2.01 7.37 -1.02 3.74 0 0 Z " fill="#DAEBF8" transform="translate(361,209)"/>
<path d="M0 0 C0.33 0.99 0.66 1.98 1 3 C1.804375 2.690625 1.804375 2.690625 2.625 2.375 C5.83267308 1.8685253 8.01317066 2.84599775 11 4 C11 4.33 11 4.66 11 5 C7.37 5 3.74 5 0 5 C0 3.35 0 1.7 0 0 Z M7 1 C7.66 1.33 8.32 1.66 9 2 C8.01 2 7.02 2 6 2 C6.33 1.67 6.66 1.34 7 1 Z " fill="#B7CFE6" transform="translate(121,216)"/>
<path d="M0 0 C0.66 0.33 1.32 0.66 2 1 C1.5205537 5.21912747 0.83374881 7.79663178 -2 11 C-2 10.34 -2 9.68 -2 9 C-3.32 9 -4.64 9 -6 9 C-6 8.34 -6 7.68 -6 7 C-4.35 7 -2.7 7 -1 7 C-0.67 4.69 -0.34 2.38 0 0 Z " fill="#1B4F86" transform="translate(341,204)"/>
<path d="M0 0 C2.97 0 5.94 0 9 0 C9 0.66 9 1.32 9 2 C6.36 2.66 3.72 3.32 1 4 C0.67 2.68 0.34 1.36 0 0 Z " fill="#0558A9" transform="translate(159,195)"/>
<path d="M0 0 C0.99 0 1.98 0 3 0 C3.33 1.98 3.66 3.96 4 6 C2.68 6 1.36 6 0 6 C-0.66 6.66 -1.32 7.32 -2 8 C-1.125 1.125 -1.125 1.125 0 0 Z " fill="#0A5796" transform="translate(74,190)"/>
<path d="M0 0 C0.33 0.66 0.66 1.32 1 2 C0.34 2 -0.32 2 -1 2 C-1.33 3.32 -1.66 4.64 -2 6 C0.31 6.33 2.62 6.66 5 7 C5 7.33 5 7.66 5 8 C2.03 8 -0.94 8 -4 8 C-3.6875 5.125 -3.6875 5.125 -3 2 C-2.01 1.34 -1.02 0.68 0 0 Z " fill="#CAE7F7" transform="translate(183,219)"/>
<path d="M0 0 C0.66 0 1.32 0 2 0 C2.33 0.66 2.66 1.32 3 2 C4.32 1.67 5.64 1.34 7 1 C7 1.66 7 2.32 7 3 C7.66 3.33 8.32 3.66 9 4 C2.25 5.125 2.25 5.125 0 4 C0 2.68 0 1.36 0 0 Z " fill="#D3EAF7" transform="translate(339,216)"/>
<path d="M0 0 C4.75 0.75 4.75 0.75 7 3 C6.9765625 5.1640625 6.9765625 5.1640625 6.625 7.625 C6.51414063 8.44226563 6.40328125 9.25953125 6.2890625 10.1015625 C6.19367188 10.72804687 6.09828125 11.35453125 6 12 C5.67 12 5.34 12 5 12 C5 9.03 5 6.06 5 3 C2.525 2.01 2.525 2.01 0 1 C0 0.67 0 0.34 0 0 Z " fill="#E1F7FD" transform="translate(230,181)"/>
<path d="M0 0 C0.99 0.33 1.98 0.66 3 1 C2.67 3.31 2.34 5.62 2 8 C1.01 8 0.02 8 -1 8 C-0.67 5.36 -0.34 2.72 0 0 Z " fill="#11518F" transform="translate(161,182)"/>
<path d="M0 0 C2 3 2 3 1.7578125 5.26171875 C1.54898437 6.06222656 1.34015625 6.86273438 1.125 7.6875 C0.92132813 8.49574219 0.71765625 9.30398437 0.5078125 10.13671875 C0.25644531 11.05904297 0.25644531 11.05904297 0 12 C-0.99 11.34 -1.98 10.68 -3 10 C-2.01 6.7 -1.02 3.4 0 0 Z " fill="#3B6293" transform="translate(261,206)"/>
<path d="M0 0 C0.33 0 0.66 0 1 0 C1.44539877 8.7595092 1.44539877 8.7595092 -2 13 C-2.66 13 -3.32 13 -4 13 C-3.52140759 11.39566191 -3.04210442 9.79153584 -2.5625 8.1875 C-2.29566406 7.29417969 -2.02882812 6.40085938 -1.75390625 5.48046875 C-1.19612127 3.64526945 -0.60655425 1.81966274 0 0 Z " fill="#D1E8F5" transform="translate(255,189)"/>
<path d="M0 0 C1.17949219 0.10183594 2.35898438 0.20367187 3.57421875 0.30859375 C4.47785156 0.39238281 5.38148438 0.47617188 6.3125 0.5625 C6.3125 0.8925 6.3125 1.2225 6.3125 1.5625 C1.3625 1.8925 -3.5875 2.2225 -8.6875 2.5625 C-9.0175 1.9025 -9.3475 1.2425 -9.6875 0.5625 C-6.14075997 -0.61974668 -3.71227005 -0.33079634 0 0 Z " fill="#5684B5" transform="translate(219.6875,219.4375)"/>
<path d="M0 0 C0.33 1.32 0.66 2.64 1 4 C1.66 4 2.32 4 3 4 C3 5.32 3 6.64 3 8 C1.68 8 0.36 8 -1 8 C-1.04241723 5.66705225 -1.04092937 3.33297433 -1 1 C-0.67 0.67 -0.34 0.34 0 0 Z " fill="#075797" transform="translate(371,216)"/>
<path d="M0 0 C2 4 2 4 1.125 7.75 C0.75375 8.8225 0.3825 9.895 0 11 C-0.99 11 -1.98 11 -3 11 C-2.01 7.37 -1.02 3.74 0 0 Z " fill="#386096" transform="translate(127,192)"/>
<path d="M0 0 C0.66 0 1.32 0 2 0 C1.67 2.31 1.34 4.62 1 7 C-0.32 6.67 -1.64 6.34 -3 6 C-1.125 1.125 -1.125 1.125 0 0 Z " fill="#2B5C91" transform="translate(175,187)"/>
<path d="M0 0 C0.99 0 1.98 0 3 0 C1.515 5.445 1.515 5.445 0 11 C-0.66 10.67 -1.32 10.34 -2 10 C-1.85950482 8.52031676 -1.71245174 7.04125484 -1.5625 5.5625 C-1.48128906 4.73878906 -1.40007812 3.91507813 -1.31640625 3.06640625 C-1 1 -1 1 0 0 Z " fill="#FCFDF3" transform="translate(265,183)"/>
<path d="M0 0 C1.65 0 3.3 0 5 0 C4.01 0.66 3.02 1.32 2 2 C1.67 2.99 1.34 3.98 1 5 C0 8 0 8 -3 10 C-2.01 6.7 -1.02 3.4 0 0 Z " fill="#D3E5F3" transform="translate(83,181)"/>
<path d="M0 0 C0 1.65 0 3.3 0 5 C-2.97 4.01 -5.94 3.02 -9 2 C-9 1.67 -9 1.34 -9 1 C-2.25 -1.125 -2.25 -1.125 0 0 Z " fill="#2C63A2" transform="translate(130,179)"/>
<path d="M0 0 C0.99 0.33 1.98 0.66 3 1 C3 2.32 3 3.64 3 5 C2.34 5 1.68 5 1 5 C1 4.34 1 3.68 1 3 C-2.63 3 -6.26 3 -10 3 C-10 2.67 -10 2.34 -10 2 C-9.04287109 1.90912109 -9.04287109 1.90912109 -8.06640625 1.81640625 C-6.82697266 1.69072266 -6.82697266 1.69072266 -5.5625 1.5625 C-4.73878906 1.48128906 -3.91507812 1.40007812 -3.06640625 1.31640625 C-1.01337975 1.21069185 -1.01337975 1.21069185 0 0 Z " fill="#1D60A1" transform="translate(303,169)"/>
<path d="M0 0 C1.32 0 2.64 0 4 0 C3.67 1.65 3.34 3.3 3 5 C1.68 4.67 0.36 4.34 -1 4 C-0.67 2.68 -0.34 1.36 0 0 Z " fill="#D9F0FB" transform="translate(320,216)"/>
<path d="M0 0 C0 1.98 0 3.96 0 6 C-0.66 5.67 -1.32 5.34 -2 5 C-2 4.01 -2 3.02 -2 2 C-2.66 2 -3.32 2 -4 2 C-4 2.66 -4 3.32 -4 4 C-4.66 4 -5.32 4 -6 4 C-6 3.01 -6 2.02 -6 1 C-4 0 -4 0 0 0 Z " fill="#C5DAEE" transform="translate(373,204)"/>
<path d="M0 0 C0.99 0 1.98 0 3 0 C3 1.98 3 3.96 3 6 C1.68 5.67 0.36 5.34 -1 5 C-0.67 3.35 -0.34 1.7 0 0 Z " fill="#F6F9FA" transform="translate(216,188)"/>
<path d="M0 0 C0.33 0 0.66 0 1 0 C1.1875 3.375 1.1875 3.375 1 7 C0.01 7.66 -0.98 8.32 -2 9 C-2.99 8.67 -3.98 8.34 -5 8 C-4.67 7.34 -4.34 6.68 -4 6 C-3.34 6.33 -2.68 6.66 -2 7 C-1.34 4.69 -0.68 2.38 0 0 Z " fill="#D2E7F3" transform="translate(291,175)"/>
<path d="M0 0 C2.97 0.495 2.97 0.495 6 1 C6 2.98 6 4.96 6 7 C4.68 7 3.36 7 2 7 C2.33 5.02 2.66 3.04 3 1 C2.01 0.67 1.02 0.34 0 0 Z " fill="#4775AB" transform="translate(321,215)"/>
<path d="M0 0 C-4.41880243 2.94586829 -6.67767339 3.0985616 -12 3 C-7.58119757 0.05413171 -5.32232661 -0.0985616 0 0 Z " fill="#DDEEF8" transform="translate(276,218)"/>
<path d="M0 0 C1.25541557 3.76624671 0.37061958 5.37188934 -1 9 C-1.66 9 -2.32 9 -3 9 C-2.25 2.25 -2.25 2.25 0 0 Z " fill="#28578D" transform="translate(125,202)"/>
<path d="M0 0 C0.33 0.66 0.66 1.32 1 2 C1.66 2.33 2.32 2.66 3 3 C2.34 4.65 1.68 6.3 1 8 C0.01 8 -0.98 8 -2 8 C-1.34 5.36 -0.68 2.72 0 0 Z " fill="#3B6797" transform="translate(297,191)"/>
<path d="M0 0 C0.33 0 0.66 0 1 0 C0.49202991 4.3177458 -0.19682779 8.03302114 -2 12 C-2.33 12 -2.66 12 -3 12 C-3.34833144 7.12335991 -2.41685712 4.22949995 0 0 Z " fill="#D1E8F7" transform="translate(268,183)"/>
<path d="M0 0 C3 3 3 3 3.07421875 5.04296875 C2.71614583 7.02864583 2.35807292 9.01432292 2 11 C1.34 10.67 0.68 10.34 0 10 C0 6.7 0 3.4 0 0 Z " fill="#CCE4F4" transform="translate(326,183)"/>
<path d="M0 0 C1.0326802 2.78823655 1.04509293 3.8677274 0.0625 6.75 C-0.288125 7.4925 -0.63875 8.235 -1 9 C-2.65 9 -4.3 9 -6 9 C-5 7 -5 7 -2 6 C-0.77479736 2.99152582 -0.77479736 2.99152582 0 0 Z " fill="#D5E8F2" transform="translate(170,207)"/>
<path d="M0 0 C0.33 0 0.66 0 1 0 C1 2.31 1 4.62 1 7 C-0.65 7.33 -2.3 7.66 -4 8 C-3.67 6.35 -3.34 4.7 -3 3 C-2.34 3 -1.68 3 -1 3 C-0.67 2.01 -0.34 1.02 0 0 Z " fill="#195EA0" transform="translate(374,209)"/>
<path d="M0 0 C1.32 0 2.64 0 4 0 C4.33 0.99 4.66 1.98 5 3 C3.35 3.66 1.7 4.32 0 5 C-0.33 4.34 -0.66 3.68 -1 3 C-0.67 2.01 -0.34 1.02 0 0 Z " fill="#E0EDF2" transform="translate(264,205)"/>
<path d="M0 0 C0.66 0.33 1.32 0.66 2 1 C0.576875 1.8971875 0.576875 1.8971875 -0.875 2.8125 C-4.13964197 4.81562526 -4.13964197 4.81562526 -6 8 C-6.66 8 -7.32 8 -8 8 C-6.70989008 5.12206249 -5.42638194 3.03816083 -3 1 C-2.01 0.67 -1.02 0.34 0 0 Z " fill="#CFE6F3" transform="translate(164,199)"/>
<path d="M0 0 C0.33 0.66 0.66 1.32 1 2 C0.01 3.485 0.01 3.485 -1 5 C-4.625 5.1875 -4.625 5.1875 -8 5 C-5.59078295 2.59078295 -3.05665491 1.46187844 0 0 Z " fill="#C9DFEE" transform="translate(175,194)"/>
<path d="M0 0 C0.99 0 1.98 0 3 0 C2.25 4.75 2.25 4.75 0 7 C-1.125 2.25 -1.125 2.25 0 0 Z " fill="#345887" transform="translate(314,187)"/>
<path d="M0 0 C0.33 1.32 0.66 2.64 1 4 C1.66 4 2.32 4 3 4 C2.34 5.98 1.68 7.96 1 10 C-0.80411967 7.24075815 -1.0127245 6.11027897 -0.625 2.75 C-0.41875 1.8425 -0.2125 0.935 0 0 Z " fill="#105692" transform="translate(59,184)"/>
<path d="M0 0 C0.99 0.99 1.98 1.98 3 3 C2.34 4.98 1.68 6.96 1 9 C-0.61949011 6.42786866 -1.04408751 5.32330841 -0.625 2.25 C-0.41875 1.5075 -0.2125 0.765 0 0 Z " fill="#E5F0F2" transform="translate(66,176)"/>
<path d="M0 0 C2 2 2 2 2.125 5.625 C2.08375 6.73875 2.0425 7.8525 2 9 C1.01 9 0.02 9 -1 9 C-1.125 2.25 -1.125 2.25 0 0 Z " fill="#24619A" transform="translate(178,219)"/>
<path d="M0 0 C0.33 0 0.66 0 1 0 C1.33 1.65 1.66 3.3 2 5 C2.66 5 3.32 5 4 5 C4 5.66 4 6.32 4 7 C4.66 7.33 5.32 7.66 6 8 C4.02 8 2.04 8 0 8 C0 5.36 0 2.72 0 0 Z " fill="#C7E3F7" transform="translate(327,213)"/>
<path d="M0 0 C0.99 0.33 1.98 0.66 3 1 C3 1.66 3 2.32 3 3 C1.68 3.33 0.36 3.66 -1 4 C-1 4.66 -1 5.32 -1 6 C-1.66 6 -2.32 6 -3 6 C-2.42655063 3.13275314 -2.1385485 2.1385485 0 0 Z " fill="#FEFCF3" transform="translate(101,214)"/>
<path d="M0 0 C0.33 0.66 0.66 1.32 1 2 C1.66 2 2.32 2 3 2 C2.67 3.65 2.34 5.3 2 7 C1.01 7 0.02 7 -1 7 C-0.67 4.69 -0.34 2.38 0 0 Z " fill="#3D6296" transform="translate(306,207)"/>
<path d="M0 0 C0.33 0 0.66 0 1 0 C1.25 2.75 1.25 2.75 1 6 C-1 8.375 -1 8.375 -3 10 C-2.01 6.7 -1.02 3.4 0 0 Z " fill="#D2E7F4" transform="translate(77,198)"/>
<path d="M0 0 C2.475 0.99 2.475 0.99 5 2 C3.68 2.99 2.36 3.98 1 5 C0.67 4.34 0.34 3.68 0 3 C-0.99 3 -1.98 3 -3 3 C-2.01 2.01 -1.02 1.02 0 0 Z " fill="#1F629E" transform="translate(342,202)"/>
<path d="M0 0 C0.99 0.33 1.98 0.66 3 1 C2.19185349 2.33597652 1.37836819 3.668725 0.5625 5 C0.11003906 5.7425 -0.34242187 6.485 -0.80859375 7.25 C-1.20175781 7.8275 -1.59492187 8.405 -2 9 C-2.33 9 -2.66 9 -3 9 C-3.26218749 5.85375007 -3.24754367 4.38162983 -1.5 1.6875 C-1.005 1.130625 -0.51 0.57375 0 0 Z " fill="#195590" transform="translate(96,201)"/>
<path d="M0 0 C0.99 0 1.98 0 3 0 C2.67 1.98 2.34 3.96 2 6 C1.34 6 0.68 6 0 6 C-1.125 2.25 -1.125 2.25 0 0 Z " fill="#305C8D" transform="translate(222,187)"/>
<path d="M0 0 C0.66 0 1.32 0 2 0 C1.01 2.97 0.02 5.94 -1 9 C-1.66 7.68 -2.32 6.36 -3 5 C-1.75 2.25 -1.75 2.25 0 0 Z " fill="#E3F0F8" transform="translate(282,186)"/>
<path d="M0 0 C0.66 0.66 1.32 1.32 2 2 C1.34 3.65 0.68 5.3 0 7 C-0.99 7 -1.98 7 -3 7 C-1.125 1.125 -1.125 1.125 0 0 Z " fill="#345B9A" transform="translate(269,187)"/>
<path d="M0 0 C1 3 1 3 0 6 C-1.65 6.33 -3.3 6.66 -5 7 C-5 6.01 -5 5.02 -5 4 C-4.01 4 -3.02 4 -2 4 C-2 3.34 -2 2.68 -2 2 C-1.34 2 -0.68 2 0 2 C0 1.34 0 0.68 0 0 Z " fill="#D4EAF8" transform="translate(79,181)"/>
<path d="M0 0 C-1.3125 1.5 -1.3125 1.5 -3 3 C-3.99 3 -4.98 3 -6 3 C-6 2.34 -6 1.68 -6 1 C-6.99 0.67 -7.98 0.34 -9 0 C-5.52176885 -1.15941038 -3.54104422 -0.70820884 0 0 Z " fill="#1663A7" transform="translate(166,180)"/>
<path d="M0 0 C2.97 0.33 5.94 0.66 9 1 C9 1.33 9 1.66 9 2 C5.7 2.66 2.4 3.32 -1 4 C-0.67 2.68 -0.34 1.36 0 0 Z " fill="#386192" transform="translate(147,178)"/>
<path d="M0 0 C2.64 0 5.28 0 8 0 C6.3125 1.5625 6.3125 1.5625 4 3 C1.25 2.6875 1.25 2.6875 -1 2 C-0.67 1.34 -0.34 0.68 0 0 Z " fill="#0E528C" transform="translate(180,227)"/>
<path d="M0 0 C1.32 0.33 2.64 0.66 4 1 C3.34 2.65 2.68 4.3 2 6 C1.34 5.67 0.68 5.34 0 5 C0 3.35 0 1.7 0 0 Z " fill="#F7F8FA" transform="translate(328,213)"/>
<path d="M0 0 C0.66 0 1.32 0 2 0 C1.39816251 2.02045442 0.72693904 4.02111039 0 6 C-0.99 6.495 -0.99 6.495 -2 7 C-2.33 5.68 -2.66 4.36 -3 3 C-2.01 2.67 -1.02 2.34 0 2 C0 1.34 0 0.68 0 0 Z " fill="#E0EEF5" transform="translate(319,209)"/>
<path d="M0 0 C0.66 0 1.32 0 2 0 C1.67 2.64 1.34 5.28 1 8 C0.01 7.67 -0.98 7.34 -2 7 C-1.34 4.69 -0.68 2.38 0 0 Z " fill="#0856A0" transform="translate(186,202)"/>
<path d="M0 0 C0.66 0 1.32 0 2 0 C1.25 5.75 1.25 5.75 -1 8 C-2.2077558 4.37673261 -1.54311128 3.35853631 0 0 Z " fill="#195190" transform="translate(141,199)"/>
<path d="M0 0 C0 0.66 0 1.32 0 2 C-0.66 2 -1.32 2 -2 2 C-2.33 2.66 -2.66 3.32 -3 4 C-4.65 4 -6.3 4 -8 4 C-5.57415142 1.34311822 -3.76063134 0 0 0 Z " fill="#D3EBF6" transform="translate(106,199)"/>
<path d="M0 0 C-1.125 1.5 -1.125 1.5 -3 3 C-6.1875 3.1875 -6.1875 3.1875 -9 3 C-8 1 -8 1 -5.0625 -0.1875 C-2 -1 -2 -1 0 0 Z " fill="#D7EAF5" transform="translate(217,199)"/>
<path d="M0 0 C1.4606285 2.64738916 2 3.89448334 2 7 C1.34 7 0.68 7 0 7 C-0.33 7.66 -0.66 8.32 -1 9 C-1.33 7.35 -1.66 5.7 -2 4 C-1.34 4 -0.68 4 0 4 C0 2.68 0 1.36 0 0 Z " fill="#095298" transform="translate(189,192)"/>
<path d="M0 0 C2.64 0 5.28 0 8 0 C6.8125 1.5 6.8125 1.5 5 3 C2.3125 3.1875 2.3125 3.1875 0 3 C0 2.01 0 1.02 0 0 Z " fill="#1B59A3" transform="translate(103,194)"/>
<path d="M0 0 C0.66 0 1.32 0 2 0 C1.67 2.31 1.34 4.62 1 7 C0.01 6.01 -0.98 5.02 -2 4 C-1.34 2.68 -0.68 1.36 0 0 Z " fill="#2E548E" transform="translate(145,187)"/>
<path d="M0 0 C1.45880109 0.14107747 2.91703551 0.28802415 4.375 0.4375 C5.59316406 0.55931641 5.59316406 0.55931641 6.8359375 0.68359375 C9 1 9 1 11 2 C11 2.66 11 3.32 11 4 C7.30099992 3.11223998 3.65449539 2.05418136 0 1 C0 0.67 0 0.34 0 0 Z " fill="#1C5793" transform="translate(227,179)"/>
</svg>
