
<svg version="1.1" xmlns="http://www.w3.org/2000/svg" width="225" height="225" viewBox="0 0 225 225" preserveAspectRatio="xMidYMid meet">
<path d="M0 0 C74.25 0 148.5 0 225 0 C225 74.25 225 148.5 225 225 C150.75 225 76.5 225 0 225 C0 150.75 0 76.5 0 0 Z " fill="#FEFEFE" transform="translate(0,0)" />
<path d="M0 0 C1.32 0 2.64 0 4 0 C4.02692484 2.29160319 4.04636124 4.58329546 4.0625 6.875 C4.07410156 8.15117188 4.08570312 9.42734375 4.09765625 10.7421875 C4 14 4 14 3 16 C32.04 16 61.08 16 91 16 C91 17.98 91 19.96 91 22 C61.63 22 32.26 22 2 22 C2 20.02 2 18.04 2 16 C1.01 16 0.02 16 -1 16 C-1 15.01 -1 14.02 -1 13 C-0.34 13 0.32 13 1 13 C0.67 8.71 0.34 4.42 0 0 Z " fill="#DDCAD5" transform="translate(67,90)" />
<path d="M0 0 C0.99 0 1.98 0 3 0 C3 0.66 3 1.32 3 2 C3.84304687 1.97679688 4.68609375 1.95359375 5.5546875 1.9296875 C7.19824219 1.90261719 7.19824219 1.90261719 8.875 1.875 C10.51082031 1.84019531 10.51082031 1.84019531 12.1796875 1.8046875 C13.11039063 1.86914062 14.04109375 1.93359375 15 2 C15.66 2.66 16.32 3.32 17 4 C17.1953125 6.3828125 17.1953125 6.3828125 17.125 9.125 C17.10695312 10.03507812 17.08890625 10.94515625 17.0703125 11.8828125 C17.04710937 12.58148438 17.02390625 13.28015625 17 14 C10.375 15 10.375 15 7 15 C5.7315625 15.061875 5.7315625 15.061875 4.4375 15.125 C3.633125 15.08375 2.82875 15.0425 2 15 C1.34 14.34 0.68 13.68 0 13 C-0.26991906 10.31160615 -0.08737357 7.70858064 0 5 C-0.66 5 -1.32 5 -2 5 C-2 4.34 -2 3.68 -2 3 C-1.34 3 -0.68 3 0 3 C0 2.01 0 1.02 0 0 Z " fill="#EDF1F6" transform="translate(169,87)" />
<path d="M0 0 C15.84 0 31.68 0 48 0 C48 1.32 48 2.64 48 4 C32.16 4 16.32 4 0 4 C0 2.68 0 1.36 0 0 Z " fill="#E20120" transform="translate(110,107)" />
<path d="M0 0 C13.2 0 26.4 0 40 0 C40 1.32 40 2.64 40 4 C26.8 4 13.6 4 0 4 C0 2.68 0 1.36 0 0 Z " fill="#013F8A" transform="translate(70,107)" />
<path d="M0 0 C1.32 0 2.64 0 4 0 C4 5.61 4 11.22 4 17 C0.04 17.495 0.04 17.495 -4 18 C-5.5 16.375 -5.5 16.375 -7 14 C-7.375 10.9375 -7.375 10.9375 -7 8 C-5.75 6.125 -5.75 6.125 -4 5 C-2.68 5 -1.36 5 0 5 C0 3.35 0 1.7 0 0 Z " fill="#406CA3" transform="translate(196,84)" />
<path d="M0 0 C0.66 0 1.32 0 2 0 C2 1.65 2 3.3 2 5 C2.94875 4.79375 3.8975 4.5875 4.875 4.375 C6.421875 4.189375 6.421875 4.189375 8 4 C8.66 4.66 9.32 5.32 10 6 C10.55016181 12.93203883 10.55016181 12.93203883 8.9375 16.0625 C7 17 7 17 0 16 C0 10.72 0 5.44 0 0 Z " fill="#1A5495" transform="translate(43,85)" />
<path d="M0 0 C3 -0.25 3 -0.25 6 0 C6.66 0.66 7.32 1.32 8 2 C8.1953125 4.1640625 8.1953125 4.1640625 8.125 6.625 C8.10695312 7.44226563 8.08890625 8.25953125 8.0703125 9.1015625 C8.03550781 10.04128906 8.03550781 10.04128906 8 11 C7.01 11.66 6.02 12.32 5 13 C1.875 12.75 1.875 12.75 -1 12 C-2.11445498 9.77109005 -2.16480286 8.46944894 -2.1875 6 C-2.20167969 5.29875 -2.21585938 4.5975 -2.23046875 3.875 C-2.15441406 3.25625 -2.07835937 2.6375 -2 2 C-1.34 1.34 -0.68 0.68 0 0 Z " fill="#2B5E9B" transform="translate(204,89)" />
<path d="M0 0 C0 2.31 0 4.62 0 7 C-5.28 7 -10.56 7 -16 7 C-16.33 5.35 -16.66 3.7 -17 2 C-16.67 1.67 -16.34 1.34 -16 1 C-12.63370749 0.85363946 -10.21580438 0.92806521 -7 2 C-4 0 -4 0 0 0 Z " fill="#7B98BE" transform="translate(211,105)" />
<path d="M0 0 C1.2065625 0.1546875 1.2065625 0.1546875 2.4375 0.3125 C3.0975 0.9725 3.7575 1.6325 4.4375 2.3125 C4.5625 4.9375 4.5625 4.9375 4.4375 7.3125 C2.1275 7.3125 -0.1825 7.3125 -2.5625 7.3125 C-2.2325 7.9725 -1.9025 8.6325 -1.5625 9.3125 C1.46684491 9.97022428 1.46684491 9.97022428 4.4375 10.3125 C4.1075 11.3025 3.7775 12.2925 3.4375 13.3125 C-1.93092105 13.67039474 -1.93092105 13.67039474 -4.4375 12.25 C-5.5625 10.3125 -5.5625 10.3125 -5.9375 6.8125 C-5.5625 3.3125 -5.5625 3.3125 -4.375 1.375 C-2.5625 0.3125 -2.5625 0.3125 0 0 Z " fill="#2D5F9C" transform="translate(126.5625,88.6875)" />
<path d="M0 0 C1.2065625 0.1546875 1.2065625 0.1546875 2.4375 0.3125 C3.0975 0.9725 3.7575 1.6325 4.4375 2.3125 C4.5625 4.9375 4.5625 4.9375 4.4375 7.3125 C2.1275 7.3125 -0.1825 7.3125 -2.5625 7.3125 C-2.2325 7.9725 -1.9025 8.6325 -1.5625 9.3125 C1.46684491 9.97022428 1.46684491 9.97022428 4.4375 10.3125 C4.4375 10.9725 4.4375 11.6325 4.4375 12.3125 C1.125 13 1.125 13 -2.5625 13.3125 C-4.5 12.3125 -4.5 12.3125 -5.5625 10.3125 C-5.9375 6.8125 -5.9375 6.8125 -5.5625 3.3125 C-3.93645748 0.65948326 -3.08728297 0.37649792 0 0 Z " fill="#0A458D" transform="translate(96.5625,88.6875)" />
<path d="M0 0 C3.3 0 6.6 0 10 0 C10 0.99 10 1.98 10 3 C7.69 3 5.38 3 3 3 C3 4.32 3 5.64 3 7 C4.65 7 6.3 7 8 7 C8 7.66 8 8.32 8 9 C6.35 9 4.7 9 3 9 C3 10.65 3 12.3 3 14 C5.31 14 7.62 14 10 14 C10 14.66 10 15.32 10 16 C6.7 16 3.4 16 0 16 C0 10.72 0 5.44 0 0 Z " fill="#184F92" transform="translate(146,85)" />
<path d="M0 0 C2.875 -0.125 2.875 -0.125 6 0 C6.66 0.66 7.32 1.32 8 2 C8.1953125 4.3828125 8.1953125 4.3828125 8.125 7.125 C8.10695313 8.03507812 8.08890625 8.94515625 8.0703125 9.8828125 C8.04710938 10.58148438 8.02390625 11.28015625 8 12 C1.9453125 12.9765625 1.9453125 12.9765625 0 13 C-0.66 12.34 -1.32 11.68 -2 11 C-1.67 9.35 -1.34 7.7 -1 6 C0.98 6 2.96 6 5 6 C4.67 5.01 4.34 4.02 4 3 C2.35 3 0.7 3 -1 3 C-0.67 2.01 -0.34 1.02 0 0 Z " fill="#6589B5" transform="translate(76,89)" />
<path d="M0 0 C2.875 -0.125 2.875 -0.125 6 0 C6.66 0.66 7.32 1.32 8 2 C8.1953125 4.3828125 8.1953125 4.3828125 8.125 7.125 C8.10695313 8.03507812 8.08890625 8.94515625 8.0703125 9.8828125 C8.04710938 10.58148438 8.02390625 11.28015625 8 12 C1.9453125 12.9765625 1.9453125 12.9765625 0 13 C-0.66 12.34 -1.32 11.68 -2 11 C-1.67 9.35 -1.34 7.7 -1 6 C0.98 6 2.96 6 5 6 C4.67 5.01 4.34 4.02 4 3 C2.35 3 0.7 3 -1 3 C-0.67 2.01 -0.34 1.02 0 0 Z " fill="#0A458D" transform="translate(57,89)" />
<path d="M0 0 C2.875 -0.125 2.875 -0.125 6 0 C6.66 0.66 7.32 1.32 8 2 C8.1953125 4.3828125 8.1953125 4.3828125 8.125 7.125 C8.10695312 8.03507812 8.08890625 8.94515625 8.0703125 9.8828125 C8.04710937 10.58148438 8.02390625 11.28015625 8 12 C5.67504723 12.38749213 3.3400417 12.71758117 1 13 C0.34 12.67 -0.32 12.34 -1 12 C-1 10.02 -1 8.04 -1 6 C0.98 5.67 2.96 5.34 5 5 C5 4.01 5 3.02 5 2 C3.02 2.33 1.04 2.66 -1 3 C-0.67 2.01 -0.34 1.02 0 0 Z " fill="#7496BD" transform="translate(178,89)" />
<path d="M0 0 C3.96 0 7.92 0 12 0 C12 0.99 12 1.98 12 3 C10.68 3 9.36 3 8 3 C8 7.29 8 11.58 8 16 C6.68 16 5.36 16 4 16 C4 11.71 4 7.42 4 3 C2.68 3 1.36 3 0 3 C0 2.01 0 1.02 0 0 Z " fill="#3867A0" transform="translate(11,85)" />
<path d="M0 0 C0.33 0.33 0.66 0.66 1 1 C1.07205511 2.68608966 1.08386068 4.37500659 1.0625 6.0625 C1.05347656 6.98160156 1.04445313 7.90070313 1.03515625 8.84765625 C1.02355469 9.55792969 1.01195313 10.26820312 1 11 C0.01 11 -0.98 11 -2 11 C-2.33 8.03 -2.66 5.06 -3 2 C-3.66 2 -4.32 2 -5 2 C-5.33 4.97 -5.66 7.94 -6 11 C-6.99 11 -7.98 11 -9 11 C-9 7.37 -9 3.74 -9 0 C-5.16046631 -0.95988342 -3.67125527 -0.99223115 0 0 Z " fill="#0E488F" transform="translate(113,90)" />
<path d="M0 0 C0.66 0.66 1.32 1.32 2 2 C2.1953125 4.3828125 2.1953125 4.3828125 2.125 7.125 C2.10695313 8.03507812 2.08890625 8.94515625 2.0703125 9.8828125 C2.04710937 10.58148438 2.02390625 11.28015625 2 12 C-0.64 12.33 -3.28 12.66 -6 13 C-6.33 11.35 -6.66 9.7 -7 8 C-6.34 8 -5.68 8 -5 8 C-4.67 8.66 -4.34 9.32 -4 10 C-3.34 10 -2.68 10 -2 10 C-1.67 9.01 -1.34 8.02 -1 7 C-2.32 6.67 -3.64 6.34 -5 6 C-3.68 6 -2.36 6 -1 6 C-1.33 5.01 -1.66 4.02 -2 3 C-3.65 3 -5.3 3 -7 3 C-7 2.34 -7 1.68 -7 1 C-4.48718205 -0.25640898 -2.78302919 -0.20872719 0 0 Z " fill="#114B91" transform="translate(38,89)" />
<path d="M0 0 C0.99 0 1.98 0 3 0 C3 0.66 3 1.32 3 2 C3.99 2 4.98 2 6 2 C6 2.99 6 3.98 6 5 C5.01 5 4.02 5 3 5 C3 7.31 3 9.62 3 12 C3.99 12 4.98 12 6 12 C5.67 12.99 5.34 13.98 5 15 C1.125 14.125 1.125 14.125 0 13 C-0.14115161 10.32941149 -0.04247107 7.67567762 0 5 C-0.66 5 -1.32 5 -2 5 C-2 4.34 -2 3.68 -2 3 C-1.34 3 -0.68 3 0 3 C0 2.01 0 1.02 0 0 Z " fill="#32619C" transform="translate(169,87)" />
<path d="M0 0 C0.99 0 1.98 0 3 0 C3 4.95 3 9.9 3 15 C3.66 15 4.32 15 5 15 C5 15.99 5 16.98 5 18 C1.125 17.125 1.125 17.125 0 16 C-0.07319621 13.30345146 -0.09242537 10.63308542 -0.0625 7.9375 C-0.05798828 7.17888672 -0.05347656 6.42027344 -0.04882812 5.63867188 C-0.0370068 3.75908129 -0.01907078 1.87953101 0 0 Z " fill="#205496" transform="translate(134,84)" />
<path d="M0 0 C1.99958364 -0.04080783 4.00045254 -0.04254356 6 0 C6 0.66 6 1.32 6 2 C4.35 2 2.7 2 1 2 C2.63412443 3.70840281 3.86906094 4.93453047 6 6 C6.125 8.375 6.125 8.375 6 11 C5.34 11.66 4.68 12.32 4 13 C1.375 13.125 1.375 13.125 -1 13 C-0.67 12.01 -0.34 11.02 0 10 C0.99 10.33 1.98 10.66 3 11 C2.67 10.01 2.34 9.02 2 8 C1.01 7.34 0.02 6.68 -1 6 C-1.042721 4.33388095 -1.04063832 2.66617115 -1 1 C-0.67 0.67 -0.34 0.34 0 0 Z " fill="#215697" transform="translate(159,89)" />
<path d="M0 0 C1.32 0 2.64 0 4 0 C4 4.62 4 9.24 4 14 C2.35 14.33 0.7 14.66 -1 15 C-1 14.34 -1 13.68 -1 13 C-0.34 13 0.32 13 1 13 C0.67 8.71 0.34 4.42 0 0 Z " fill="#175093" transform="translate(67,90)" />
<path d="M0 0 C3 -0.25 3 -0.25 6 0 C6.66 0.66 7.32 1.32 8 2 C8.26991906 4.68839385 8.08737357 7.29141936 8 10 C5.77810176 7.77810176 5.07401108 5.91517292 4 3 C3.01 3.33 2.02 3.66 1 4 C-0.22520264 7.00847418 -0.22520264 7.00847418 -1 10 C-1.33 10 -1.66 10 -2 10 C-2.1953125 3.9453125 -2.1953125 3.9453125 -2 2 C-1.34 1.34 -0.68 0.68 0 0 Z " fill="#104990" transform="translate(204,89)" />
<path d="M0 0 C0.66 0.66 1.32 1.32 2 2 C2 3.32 2 4.64 2 6 C-0.31 6 -2.62 6 -5 6 C-5.33 5.34 -5.66 4.68 -6 4 C-6.99 4.495 -6.99 4.495 -8 5 C-7.625 3.0625 -7.625 3.0625 -7 1 C-4.48718205 -0.25640898 -2.78302919 -0.20872719 0 0 Z " fill="#537DAE" transform="translate(99,89)" />
<path d="M0 0 C1.99954746 -0.04254356 4.00041636 -0.04080783 6 0 C6.33 0.33 6.66 0.66 7 1 C7.14115161 3.67058851 7.04247107 6.32432238 7 9 C6.01 9.495 6.01 9.495 5 10 C5 9.01 5 8.02 5 7 C4.01 7.33 3.02 7.66 2 8 C1.67 8.66 1.34 9.32 1 10 C0.34 10 -0.32 10 -1 10 C-1 8.68 -1 7.36 -1 6 C0.98 6 2.96 6 5 6 C4.67 5.01 4.34 4.02 4 3 C2.35 3 0.7 3 -1 3 C-0.67 2.01 -0.34 1.02 0 0 Z " fill="#04408A" transform="translate(76,89)" />
<path d="M0 0 C0 0.66 0 1.32 0 2 C-0.99 2.33 -1.98 2.66 -3 3 C-3.33 5.97 -3.66 8.94 -4 12 C-4.99 12 -5.98 12 -7 12 C-7 8.37 -7 4.74 -7 1 C-3 0 -3 0 0 0 Z " fill="#195093" transform="translate(29,89)" />
<path d="M0 0 C0.66 0 1.32 0 2 0 C2 1.65 2 3.3 2 5 C3.32 4.67 4.64 4.34 6 4 C6 4.66 6 5.32 6 6 C5.01 6.33 4.02 6.66 3 7 C2.67 9.31 2.34 11.62 2 14 C2.66 14.33 3.32 14.66 4 15 C2.68 15.33 1.36 15.66 0 16 C0 10.72 0 5.44 0 0 Z " fill="#033F8A" transform="translate(43,85)" />
<path d="M0 0 C0.33 0 0.66 0 1 0 C1 3.3 1 6.6 1 10 C-1.64 10.33 -4.28 10.66 -7 11 C-7.33 10.34 -7.66 9.68 -8 9 C-7.34 8.67 -6.68 8.34 -6 8 C-6 7.01 -6 6.02 -6 5 C-4.68 5 -3.36 5 -2 5 C-1.67 5.66 -1.34 6.32 -1 7 C-0.67 4.69 -0.34 2.38 0 0 Z " fill="#7896BC" transform="translate(64,91)" />
<path d="M0 0 C1.98 0.495 1.98 0.495 4 1 C4.125 6.75 4.125 6.75 3 9 C1.68 8.67 0.36 8.34 -1 8 C-1.04241723 5.66705225 -1.04092937 3.33297433 -1 1 C-0.67 0.67 -0.34 0.34 0 0 Z " fill="#DCE2EC" transform="translate(46,91)" />
<path d="M0 0 C0.33 0 0.66 0 1 0 C1 2.64 1 5.28 1 8 C-1.32495277 8.38749213 -3.6599583 8.71758117 -6 9 C-6.66 8.67 -7.32 8.34 -8 8 C-8 6.02 -8 4.04 -8 2 C-6.02 2 -4.04 2 -2 2 C-2.99 2.66 -3.98 3.32 -5 4 C-5 4.66 -5 5.32 -5 6 C-3.35 6 -1.7 6 0 6 C0 4.02 0 2.04 0 0 Z " fill="#12468E" transform="translate(185,93)" />
<path d="M0 0 C1.98 0.495 1.98 0.495 4 1 C4 3.31 4 5.62 4 8 C2.35 7.67 0.7 7.34 -1 7 C-1.04254356 5.00045254 -1.04080783 2.99958364 -1 1 C-0.67 0.67 -0.34 0.34 0 0 Z " fill="#E0E7EF" transform="translate(193,91)" />
<path d="M0 0 C0.66 0 1.32 0 2 0 C2 5.28 2 10.56 2 16 C1.01 15.34 0.02 14.68 -1 14 C-1 11.69 -1 9.38 -1 7 C-1.99 6.34 -2.98 5.68 -4 5 C-2.68 5 -1.36 5 0 5 C0 3.35 0 1.7 0 0 Z " fill="#023E89" transform="translate(197,85)" />
<path d="M0 0 C0 1.98 0 3.96 0 6 C-1.65 6 -3.3 6 -5 6 C-5.33 5.01 -5.66 4.02 -6 3 C-6.66 3 -7.32 3 -8 3 C-8.33 3.99 -8.66 4.98 -9 6 C-9 4.35 -9 2.7 -9 1 C-2.25 0 -2.25 0 0 0 Z " fill="#5477AB" transform="translate(180,106)" />
<path d="M0 0 C1.66617115 -0.04063832 3.33388095 -0.042721 5 0 C5 1.98 5 3.96 5 6 C3.35 6 1.7 6 0 6 C-0.33 4.35 -0.66 2.7 -1 1 C-0.67 0.67 -0.34 0.34 0 0 Z " fill="#D5DCE7" transform="translate(195,106)" />
<path d="M0 0 C2.31 0.66 4.62 1.32 7 2 C6.67 3.32 6.34 4.64 6 6 C4.02 6 2.04 6 0 6 C0 4.02 0 2.04 0 0 Z " fill="#6384B2" transform="translate(185,106)" />
<path d="M0 0 C0.99 0.33 1.98 0.66 3 1 C3 3.31 3 5.62 3 8 C1.68 8 0.36 8 -1 8 C-1.04241723 5.66705225 -1.04092937 3.33297433 -1 1 C-0.67 0.67 -0.34 0.34 0 0 Z " fill="#F2F4F7" transform="translate(206,91)" />
<path d="M0 0 C2.375 -0.125 2.375 -0.125 5 0 C5.66 0.66 6.32 1.32 7 2 C7.125 4.625 7.125 4.625 7 7 C4.69 7 2.38 7 0 7 C0 6.67 0 6.34 0 6 C1.65 6 3.3 6 5 6 C4.67 5.01 4.34 4.02 4 3 C3.01 2.67 2.02 2.34 1 2 C1 2.66 1 3.32 1 4 C0.34 4 -0.32 4 -1 4 C-0.67 2.68 -0.34 1.36 0 0 Z " fill="#08418B" transform="translate(124,89)" />
<path d="M0 0 C0.99 0.495 0.99 0.495 2 1 C2.625 3.5625 2.625 3.5625 3 6 C3.99 6.33 4.98 6.66 6 7 C5.67 7.99 5.34 8.98 5 10 C1.125 9.125 1.125 9.125 0 8 C-0.14115161 5.32941149 -0.04247107 2.67567762 0 0 Z " fill="#0A458D" transform="translate(169,92)" />
<path d="M0 0 C1.66617115 -0.04063832 3.33388095 -0.042721 5 0 C5 1.65 5 3.3 5 5 C3.68 5 2.36 5 1 5 C1 4.34 1 3.68 1 3 C0.34 3 -0.32 3 -1 3 C-1.33 3.99 -1.66 4.98 -2 6 C-1.125 1.125 -1.125 1.125 0 0 Z " fill="#98AFCC" transform="translate(32,94)" />
<path d="M0 0 C1.99958364 -0.04080783 4.00045254 -0.04254356 6 0 C6 0.66 6 1.32 6 2 C4.35 2 2.7 2 1 2 C1.66 3.65 2.32 5.3 3 7 C1.68 6.67 0.36 6.34 -1 6 C-1.042721 4.33388095 -1.04063832 2.66617115 -1 1 C-0.67 0.67 -0.34 0.34 0 0 Z " fill="#0F488F" transform="translate(159,89)" />
<path d="M0 0 C1.98 0.66 3.96 1.32 6 2 C5.67 3.32 5.34 4.64 5 6 C3.35 6 1.7 6 0 6 C0 4.02 0 2.04 0 0 Z " fill="#5A81B0" transform="translate(200,106)" />
<path d="M0 0 C1.98 0 3.96 0 6 0 C6.33 1.32 6.66 2.64 7 4 C6.01 4.495 6.01 4.495 5 5 C4.67 4.34 4.34 3.68 4 3 C2.35 3 0.7 3 -1 3 C-0.67 2.01 -0.34 1.02 0 0 Z " fill="#0D468E" transform="translate(76,89)" />
<path d="M0 0 C2.475 0.495 2.475 0.495 5 1 C5 1.99 5 2.98 5 4 C3.35 4 1.7 4 0 4 C0 2.68 0 1.36 0 0 Z " fill="#C3D0E0" transform="translate(76,91)" />
<path d="M0 0 C2.475 0.495 2.475 0.495 5 1 C5 1.99 5 2.98 5 4 C3.35 4 1.7 4 0 4 C0 2.68 0 1.36 0 0 Z " fill="#BFCDDF" transform="translate(57,91)" />
<path d="M0 0 C1.98 0 3.96 0 6 0 C6.33 0.99 6.66 1.98 7 3 C4.36 3 1.72 3 -1 3 C-0.67 2.01 -0.34 1.02 0 0 Z " fill="#164C91" transform="translate(178,89)" />
<path d="M0 0 C0.99 0.33 1.98 0.66 3 1 C2.34 1 1.68 1 1 1 C1 1.99 1 2.98 1 4 C1.99 4.33 2.98 4.66 4 5 C2.68 5.33 1.36 5.66 0 6 C-0.33 4.35 -0.66 2.7 -1 1 C-0.67 0.67 -0.34 0.34 0 0 Z " fill="#3A68A1" transform="translate(195,106)" />
<path d="M0 0 C0.99 0.33 1.98 0.66 3 1 C3 2.32 3 3.64 3 5 C1.68 4.67 0.36 4.34 -1 4 C-0.67 2.68 -0.34 1.36 0 0 Z " fill="#4472A6" transform="translate(167,107)" />
<path d="M0 0 C0 0.66 0 1.32 0 2 C-2.31 2.33 -4.62 2.66 -7 3 C-7 2.34 -7 1.68 -7 1 C-4.53721199 -0.231394 -2.7204945 -0.07159196 0 0 Z " fill="#39659F" transform="translate(101,99)" />
<path d="M0 0 C1.98 0.495 1.98 0.495 4 1 C4 1.99 4 2.98 4 4 C2.35 4 0.7 4 -1 4 C-0.67 2.68 -0.34 1.36 0 0 Z " fill="#C4CFDF" transform="translate(125,91)" />
</svg>
