
<svg version="1.1" xmlns="http://www.w3.org/2000/svg" width="3840" height="1392" viewBox="0 0 3840 1392" preserveAspectRatio="xMidYMid meet">
<path d="M0 0 C0.89445831 0.00093658 1.78891663 0.00187317 2.71047974 0.00283813 C68.9000428 0.15201469 134.42507145 14.51045406 194.1875 43.1875 C195.1671875 43.65349609 196.146875 44.11949219 197.15625 44.59960938 C235.72642293 63.04932699 272.27660508 86.95619013 303.78125 115.9921875 C305.09378844 117.18966575 306.41407969 118.37959789 307.76928711 119.52856445 C314.1500721 124.96211624 320.03066374 130.87939552 325.94213867 136.81176758 C327.74612085 138.62110933 329.55538665 140.42504319 331.36523438 142.22851562 C337.18483375 148.04440968 342.89564238 153.87976621 348.1875 160.1875 C349.09953307 161.24411784 350.01226442 162.30013346 350.92578125 163.35546875 C409.17903434 231.68591585 447.15383667 315.05165628 465.4375 422.5 C465.58864258 423.59320557 465.73978516 424.68641113 465.89550781 425.81274414 C468.59901017 446.8289659 469.57275174 467.88727067 469.5 489.0625 C469.49784485 490.20703644 469.4956897 491.35157288 469.49346924 492.53079224 C469.27725531 564.65313534 454.32007447 635.50722173 424.1875 701.1875 C423.49333984 702.7034375 423.49333984 702.7034375 422.78515625 704.25 C404.82046563 743.19783873 381.78138379 779.35785365 354.1875 812.1875 C353.75679199 812.703125 353.32608398 813.21875 352.88232422 813.75 C339.12759683 830.18396805 324.49108265 846.64568769 308.12109375 860.53125 C305.88413065 862.44735577 303.72946422 864.44262856 301.5625 866.4375 C295.96413527 871.48199303 290.08080355 876.10417072 284.11328125 880.69873047 C282.14997972 882.21650591 280.19953637 883.74975273 278.25 885.28515625 C207.91863158 940.32526525 120.31082553 973.6277632 31.1875 979.1875 C-51.23061491 983.27355721 -132.10527273 968.17596491 -205.75683594 930.24414062 C-207.1717765 929.51684101 -208.58925306 928.79446088 -210.00878906 928.07617188 C-245.10105355 910.31212193 -278.15068498 887.0714899 -306.75 860.0390625 C-308.98895868 857.92669067 -311.28826393 855.90262793 -313.62109375 853.89453125 C-318.23813426 849.87560985 -322.55915521 845.58780838 -326.875 841.25 C-328.0206543 840.11014648 -328.0206543 840.11014648 -329.18945312 838.94726562 C-333.38555772 834.74398207 -337.41645392 830.45505213 -341.29125977 825.95385742 C-343.89483591 822.93076749 -346.61057176 820.00895504 -349.30859375 817.0703125 C-363.41359876 800.83085275 -376.24953299 783.3109615 -387.8125 765.1875 C-388.32876953 764.3840918 -388.84503906 763.58068359 -389.37695312 762.75292969 C-439.72838508 684.10558366 -467.93979617 591.37010682 -468.125 490.8125 C-468.12317719 489.59481934 -468.12135437 488.37713867 -468.11947632 487.12255859 C-468.06900645 466.99774165 -467.35885891 447.15486365 -464.8125 427.1875 C-464.68875 426.20756073 -464.68875 426.20756073 -464.5625 425.20782471 C-453.28373707 336.69935937 -418.91933619 251.50787993 -345.9375 159.6875 C-345.30070312 158.9965625 -344.66390625 158.305625 -344.0078125 157.59375 C-342.81976275 156.291546 -341.63866565 154.9820741 -340.5 153.63647461 C-334.84434389 146.98699325 -328.66734369 140.8562595 -322.49853516 134.68823242 C-320.57553818 132.76305298 -318.66069426 130.83000969 -316.74609375 128.89648438 C-309.73669868 121.85544124 -302.60853419 115.35576394 -294.8125 109.1875 C-293.63617477 108.18156556 -292.46702026 107.16712057 -291.30859375 106.140625 C-282.27428345 98.14434235 -272.67953017 91.11719476 -262.8125 84.1875 C-261.68973014 83.38854619 -260.56729839 82.58911688 -259.4453125 81.7890625 C-238.39913771 66.95499019 -216.02906492 54.29455207 -192.8125 43.1875 C-191.65572754 42.62796631 -191.65572754 42.62796631 -190.47558594 42.05712891 C-131.41980906 13.66716145 -65.37452287 -0.08941281 0 0 Z M-112.87695312 317.72460938 C-117.64197109 321.40483492 -122.25614033 325.25301528 -126.8125 329.1875 C-127.36421875 329.6633252 -127.9159375 330.13915039 -128.484375 330.62939453 C-157.34486398 355.7662375 -178.34764693 388.71609701 -189.8125 425.1875 C-190.03389648 425.88101563 -190.25529297 426.57453125 -190.48339844 427.2890625 C-195.92576741 444.61513581 -199.3202242 463.016102 -199.8125 481.1875 C-199.85246094 482.45722656 -199.89242188 483.72695313 -199.93359375 485.03515625 C-200.84378948 528.11261165 -188.84686738 570.96493132 -165.26708984 607.02197266 C-158.41497445 617.22309107 -150.89297871 626.77915523 -142.33886719 635.60986328 C-141.26290525 636.72196598 -140.19386345 637.84078451 -139.12988281 638.96435547 C-112.41876412 667.1349779 -76.8149791 687.05236561 -38.8125 695.1875 C0.68372252 703.01572233 40.59760828 698.71485487 77.72314453 683.12255859 C82.34290954 681.03378705 86.7671521 678.66744882 91.1875 676.1875 C92.38086222 675.54436871 93.57487562 674.90244426 94.76953125 674.26171875 C126.00518292 657.24745539 151.44718755 631.17971198 170.1875 601.1875 C170.75549316 600.28040283 170.75549316 600.28040283 171.33496094 599.35498047 C193.27933923 563.73580963 203.23544337 520.36809167 200.92578125 478.7421875 C197.92282562 435.58369401 183.91413946 393.44384674 156.7890625 359.34375 C155.92450274 358.28950623 155.05719799 357.237509 154.1875 356.1875 C153.70635742 355.60484375 153.22521484 355.0221875 152.72949219 354.421875 C143.41244233 343.20546514 133.65421509 333.2474313 122.1875 324.1875 C121.22328125 323.39472656 120.2590625 322.60195313 119.265625 321.78515625 C90.70838011 298.84513593 53.42297039 283.91914159 16.84179688 281.33251953 C-29.13505876 278.82053901 -75.52385152 289.91298122 -112.87695312 317.72460938 Z " fill="#2D364E" transform="translate(1511.8125,411.8125)" />
<path d="M0 0 C96.03 0 192.06 0 291 0 C289.63840896 6.12715967 288.21805219 11.60285443 286.0078125 17.38671875 C285.71050735 18.17990509 285.41320221 18.97309143 285.10688782 19.79031372 C284.45978677 21.51465226 283.8099559 23.23796834 283.15768433 24.96035767 C282.0932734 27.77128453 281.03609043 30.58483971 279.98071289 33.39916992 C278.84335989 36.43197087 277.70559152 39.46460849 276.56575012 42.49647522 C272.5644934 53.14136115 268.61666875 63.80582634 264.67279053 74.47207642 C262.56347239 80.17601076 260.45159764 85.87899833 258.33984375 91.58203125 C257.90798767 92.74842636 257.47613159 93.91482147 257.03118896 95.11656189 C252.10366477 108.4236358 247.16711283 121.72735858 242.23058319 135.0310936 C232.2940268 161.80990501 222.36944312 188.59313566 212.45166016 215.37890625 C208.71948634 225.45851336 204.98620219 235.53770923 201.25302124 245.61694336 C199.1686372 251.24461275 197.08432202 256.87230764 195 262.5 C194.166667 264.75000012 193.33333366 267.00000012 192.5 269.25 C192.0875 270.36375 191.675 271.4775 191.25 272.625 C150 384 108.75 495.375 26.25012207 718.12466431 C25.41637654 720.37578132 24.58263631 722.6269003 23.74890137 724.87802124 C21.6719181 730.485947 19.59484414 736.09383913 17.51757812 741.70166016 C12.80954234 754.41189954 8.10394665 767.12303788 3.40107727 779.83518982 C0.04664103 788.9011503 -3.31403142 797.96478836 -6.67695618 807.02760315 C-8.7174744 812.52963141 -10.74929807 818.03467598 -12.76751709 823.54492188 C-28.223475 865.73048927 -49.26232129 902.82212689 -86.765625 929.171875 C-117.15864055 949.82985411 -152.16369975 961.29574754 -189 961 C-226.0158284 959.99876201 -260.30547335 948.48867497 -290.1875 926.5625 C-294.8979511 922.95673967 -299.34222311 919.13672698 -303.69921875 915.11328125 C-305.77785234 913.20404395 -307.90420746 911.38023356 -310.0625 909.5625 C-322.07797051 899.0129169 -331.28919982 885.62363774 -339.6875 872.125 C-340.10241699 871.46757813 -340.51733398 870.81015625 -340.94482422 870.1328125 C-349.578764 855.93672 -355.30794433 840.37028095 -360.9375 824.8125 C-361.67495226 822.79331683 -362.41325277 820.77444329 -363.15234375 818.75585938 C-364.6814813 814.57751537 -366.20702598 810.39788657 -367.72998047 806.21728516 C-370.93940489 797.41591287 -374.19349613 788.63110649 -377.44656372 779.84579468 C-379.21642518 775.06462053 -380.98303965 770.28224688 -382.75 765.5 C-383.45831796 763.58332765 -384.16665129 761.66666099 -384.875 759.75 C-440.12499992 610.25000021 -440.12499992 610.25000021 -441.18756104 607.37483215 C-441.89568858 605.45872411 -442.60381846 603.54261693 -443.31195068 601.62651062 C-445.0859517 596.82630406 -446.85991179 592.02608237 -448.63378906 587.22583008 C-451.78345829 578.70269461 -454.93336444 570.1796473 -458.08488464 561.65719604 C-465.73015047 540.98249153 -473.36369437 520.30353478 -480.98022461 499.6182251 C-489.62541123 476.13942226 -498.29911306 452.67135311 -506.99365234 429.21078491 C-507.60200928 427.56923935 -507.60200928 427.56923935 -508.22265625 425.89453125 C-508.62468262 424.80975494 -509.02670898 423.72497864 -509.44091797 422.60733032 C-513.52945486 411.57389707 -517.60955622 400.53735214 -521.6875 389.5 C-522.20600525 388.09664902 -522.20600525 388.09664902 -522.73498535 386.66494751 C-524.46455497 381.98370656 -526.19398325 377.3024134 -527.92333984 372.62109375 C-531.09288731 364.04144053 -534.26374539 355.46227165 -537.43447876 346.88305664 C-539.2063704 342.08872336 -540.97818119 337.2943602 -542.75 332.5 C-543.45833294 330.58333319 -544.16666628 328.66666652 -544.875 326.75 C-549.12499999 315.25000003 -549.12499999 315.25000003 -550.18756104 312.37483215 C-550.89568858 310.45872411 -551.60381846 308.54261693 -552.31195068 306.62651062 C-554.0859517 301.82630406 -555.85991179 297.02608237 -557.63378906 292.22583008 C-560.78345829 283.70269461 -563.93336444 275.1796473 -567.08488464 266.65719604 C-574.73015047 245.98249153 -582.36369437 225.30353478 -589.98022461 204.6182251 C-598.62541123 181.13942226 -607.29911306 157.67135311 -615.99365234 134.21078491 C-616.39922363 133.1164212 -616.80479492 132.0220575 -617.22265625 130.89453125 C-617.62468262 129.80975494 -618.02670898 128.72497864 -618.44091797 127.60733032 C-624.25454958 111.91851106 -630.05117797 96.22340691 -635.84864807 80.52861023 C-638.03222366 74.61783763 -640.21749443 68.70769429 -642.40391541 62.79797363 C-643.92497555 58.68663177 -645.44560146 54.57512935 -646.96621704 50.46362305 C-647.67903906 48.5366244 -648.39206116 46.60969975 -649.10531616 44.68286133 C-651.07125399 39.37178971 -653.0323911 34.05898815 -654.98809814 28.74414062 C-655.69707344 26.82149576 -656.4083265 24.89969001 -657.12127686 22.97851562 C-658.25061048 19.93519821 -659.37382777 16.88967965 -660.49609375 13.84375 C-660.84704605 12.90253296 -661.19799835 11.96131592 -661.55958557 10.99157715 C-662.03947182 9.6838031 -662.03947182 9.6838031 -662.52905273 8.34960938 C-662.95600685 7.19591858 -662.95600685 7.19591858 -663.3915863 6.0189209 C-664 4 -664 4 -664 1 C-567.64 1 -471.28 1 -372 1 C-360.35878652 38.14101443 -348.72176953 75.27629092 -337.25073242 112.46896362 C-332.77121828 126.99013141 -328.27155061 141.50506155 -323.77289963 156.02030945 C-323.06235567 158.3129657 -322.3518651 160.60563848 -321.64138794 162.89831543 C-315.07186634 184.09754673 -308.49637702 205.29492069 -301.91629028 226.49087524 C-295.36728027 247.58699476 -288.82841119 268.68624628 -282.29174805 289.78619385 C-275.86667369 310.52584184 -269.4373601 331.26416123 -263 352 C-256.08956693 374.25968777 -249.18896281 396.52240781 -242.29174805 418.78619385 C-235.5104025 440.67585797 -228.72364596 462.56382826 -221.92910767 484.44940186 C-217.3378706 499.23840866 -212.75063123 514.02864682 -208.16796875 528.8203125 C-207.91925144 529.6230938 -207.67053413 530.42587509 -207.41427994 531.25298309 C-204.9566781 539.18543312 -202.49932385 547.11795977 -200.04258251 555.05067635 C-199.13264413 557.98871248 -198.22255179 560.92670091 -197.31243324 563.86468124 C-196.89329938 565.21784037 -196.47423702 566.57102165 -196.0552578 567.92422867 C-195.47086239 569.8116853 -194.88619035 571.69905626 -194.30151367 573.58642578 C-193.93053558 574.78801331 -193.5595575 575.98960083 -193.17733765 577.2276001 C-192.33062302 579.94062484 -191.47164856 582.64759482 -190.59829712 585.35198975 C-190.36640088 586.0762509 -190.13450464 586.80051205 -189.89558125 587.5467205 C-189.44854153 588.94130886 -188.99697694 590.33445759 -188.54017162 591.72587776 C-187.48412425 595.0344282 -187 597.4781529 -187 601 C-186.34 601 -185.68 601 -185 601 C-184.61702759 599.1449585 -184.61702759 599.1449585 -184.22631836 597.25244141 C-182.92005393 591.39096372 -181.15949986 585.69300125 -179.37890625 579.9609375 C-179.0115033 578.76835327 -178.64410034 577.57576904 -178.26556396 576.3470459 C-177.24976591 573.05043609 -176.22944707 569.75524097 -175.20828629 566.460289 C-174.33437508 563.6383687 -173.46316162 560.81561856 -172.59195995 557.99286079 C-169.4026276 547.65943135 -166.2022532 537.32943141 -163 527 C-162.73128082 526.13312561 -162.46256165 525.26625122 -162.18569946 524.37310791 C-156.14532525 504.8876118 -150.09835751 485.40416456 -144.04769897 465.92185974 C-138.49901132 448.05575363 -132.95786085 430.187384 -127.4375 412.3125 C-126.1120048 408.02082542 -124.7864984 403.72915429 -123.4609375 399.4375 C-123.11957764 398.332285 -122.77821777 397.22707001 -122.42651367 396.08836365 C-117.42344299 379.89288063 -112.40951229 363.70075583 -107.39697266 347.5082016 C-106.56394852 344.81717933 -105.73094535 342.12615057 -104.89794922 339.43511963 C-100.64570155 325.69805978 -96.39320362 311.96107741 -92.14067078 298.22410583 C-87.90614148 284.54528026 -83.67171282 270.86642354 -79.4375 257.1875 C-79.16227131 256.29836033 -78.88704262 255.40922066 -78.60347366 254.49313736 C-71.57067634 231.77323249 -64.54058498 209.05249904 -57.52026367 186.32873535 C-53.29411502 172.64941446 -49.06300839 158.97164067 -44.82668686 145.29546738 C-44.01508991 142.67528306 -43.20358932 140.05506892 -42.39212036 137.43484497 C-42.11930803 136.55394258 -41.8464957 135.6730402 -41.56541634 134.7654438 C-41.00943743 132.97020125 -40.45346186 131.17495766 -39.89748955 129.37971306 C-38.58132114 125.12996795 -37.26491082 120.88029822 -35.94775391 116.63085938 C-23.90426352 77.77257189 -11.96399811 38.88299386 0 0 Z " fill="#2D364E" transform="translate(2615,431)" />
<path d="M0 0 C0 89.1 0 178.2 0 270 C58.74 270 117.48 270 178 270 C178 343.26 178 416.52 178 492 C119.26 492 60.52 492 0 492 C0.08350004 544.29037068 0.17404532 596.58070748 0.28005161 648.87103637 C0.29256985 655.05033595 0.30500272 661.22963569 0.31738281 667.40893555 C0.3210818 669.25414555 0.3210818 669.25414555 0.32485552 671.13663252 C0.36453329 691.03099113 0.39730264 710.92535538 0.42749982 730.81973038 C0.45866047 751.2470732 0.49728949 771.67439215 0.54279006 792.10170811 C0.57061205 804.69713847 0.59267224 817.29255146 0.60726251 829.88800421 C0.61783916 838.5358884 0.63569788 847.18373887 0.65916704 855.8315976 C0.67247744 860.81409146 0.68268847 865.79653824 0.68421364 870.77905083 C0.68568538 875.35372304 0.69643946 879.92828221 0.71413441 884.50291958 C0.71892727 886.14523225 0.72050738 887.78755868 0.71827881 889.42987684 C0.68543039 918.42800542 4.8884922 948.26515048 21.8359375 972.640625 C34.84414259 989.52474425 50.87953167 1000.31646378 71 1007.1875 C105.81942454 1016.20324385 142.55773056 1012.55136368 178 1013 C178 1081.64 178 1150.28 178 1221 C147.87886062 1224.47551608 147.87886062 1224.47551608 137.3125 1225.125 C136.09651123 1225.20282715 134.88052246 1225.2806543 133.62768555 1225.36083984 C130.08558236 1225.58252629 126.5429476 1225.79232429 123 1226 C121.59427734 1226.08894531 121.59427734 1226.08894531 120.16015625 1226.1796875 C35.10640369 1231.48764828 -59.26917961 1223.96839925 -133.76855469 1179.38037109 C-149.83895944 1169.43922575 -164.30012815 1157.98716175 -178 1145 C-178.50176758 1144.52691406 -179.00353516 1144.05382813 -179.52050781 1143.56640625 C-187.52034093 1135.97299552 -194.41517358 1127.83778825 -201 1119 C-201.62986816 1118.16927979 -201.62986816 1118.16927979 -202.27246094 1117.32177734 C-242.76821422 1063.78582248 -256.83892364 994.65142018 -261 929 C-261.08350675 927.75862219 -261.16701349 926.51724438 -261.25305074 925.23824906 C-262.24372654 909.16858548 -262.13929919 893.08833309 -262.12226619 876.9961069 C-262.11879465 872.64972113 -262.12120981 868.30333769 -262.12284368 863.95695138 C-262.12490657 856.35672864 -262.12329231 848.75651378 -262.11920547 841.15629196 C-262.11314557 829.85521577 -262.11287197 818.55414449 -262.11374746 807.25306697 C-262.11505843 788.23859252 -262.11173114 769.22412156 -262.10573006 750.20964813 C-262.09980634 731.39192436 -262.09596276 712.57420205 -262.09487724 693.75647736 C-262.0948085 692.58500277 -262.09473976 691.41352819 -262.09466894 690.20655438 C-262.09433059 684.25685555 -262.09402921 678.30715673 -262.09374207 672.35745791 C-262.0916435 630.25197616 -262.0849113 588.14649631 -262.07543945 546.04101562 C-262.06625022 505.14453135 -262.05916896 464.2480476 -262.05493164 423.3515625 C-262.05480011 422.09022172 -262.05466859 420.82888094 -262.05453308 419.52931772 C-262.05321452 406.86203378 -262.05193871 394.19474984 -262.05069422 381.5274659 C-262.04815823 355.7243856 -262.04533698 329.92130534 -262.04234314 304.1182251 C-262.04220585 302.93192727 -262.04206856 301.74562944 -262.04192711 300.52338319 C-262.03273158 221.34892134 -262.01688698 142.17446054 -262 63 C-260.58921434 62.5218903 -259.17772618 62.04585322 -257.76595497 61.57066154 C-256.58703806 61.17268012 -256.58703806 61.17268012 -255.38430464 60.76665866 C-251.72276003 59.58931125 -248.01033014 58.68222786 -244.27099609 57.78955078 C-243.44195928 57.5883088 -242.61292246 57.38706682 -241.75876331 57.1797266 C-239.01453162 56.5145698 -236.26900513 55.85493128 -233.5234375 55.1953125 C-231.55520164 54.71943564 -229.58704875 54.24321554 -227.61897278 53.76667786 C-222.31139057 52.48255108 -217.00266745 51.2032009 -211.69372177 49.92472458 C-206.11194794 48.57966403 -200.53125265 47.23014322 -194.95043945 45.88110352 C-184.63246974 43.3876491 -174.31358683 40.89799777 -163.99428844 38.41004848 C-152.75199966 35.69945267 -141.51070643 32.98474092 -130.26953125 30.26953125 C-119.33258272 27.62783562 -108.3954335 24.98698904 -97.45703125 22.35131836 C-93.96742294 21.51035749 -90.47783902 20.66929554 -86.98828125 19.828125 C-85.71994383 19.52239154 -85.71994383 19.52239154 -84.42598343 19.21048164 C-73.03624052 16.46424771 -61.65103631 13.69997359 -50.26982307 10.91860771 C-45.86323396 9.84218684 -41.45599561 8.76842601 -37.04880047 7.69448948 C-33.66042031 6.86841234 -30.27261912 6.0400988 -26.88607788 5.20651245 C-23.2559705 4.31371249 -19.62428658 3.42762469 -15.9921875 2.54296875 C-14.9384343 2.28163147 -13.88468109 2.02029419 -12.79899597 1.7510376 C-11.35330986 1.40090607 -11.35330986 1.40090607 -9.87841797 1.04370117 C-9.05050751 0.84056808 -8.22259705 0.637435 -7.36959839 0.42814636 C-5 0 -5 0 0 0 Z " fill="#2E364F" transform="translate(3662,161)" />
<path d="M0 0 C0 89.1 0 178.2 0 270 C58.74 270 117.48 270 178 270 C178 343.26 178 416.52 178 492 C119.26 492 60.52 492 0 492 C0.06145357 544.74889527 0.13355787 597.497727 0.22898628 650.24656946 C0.24025368 656.48208778 0.25139225 662.71760631 0.26245117 668.953125 C0.2657567 670.8150983 0.2657567 670.8150983 0.269129 672.71468721 C0.30444664 692.78161619 0.32934197 712.84854514 0.35034702 732.91549362 C0.37215323 753.52479078 0.40524922 774.13404781 0.44870156 794.74331081 C0.47513539 807.44776067 0.49289157 820.15216059 0.49934604 832.85663657 C0.50462531 841.58304739 0.52092689 850.30939549 0.54566566 859.03577264 C0.5595941 864.06118986 0.56888418 869.08649505 0.56500816 874.11193275 C0.54437547 907.91925214 0.84000228 942.2913375 20.4375 971.4375 C32.95670139 988.1677055 48.09044247 999.5970027 67.89746094 1006.35498047 C84.11553029 1011.33037982 100.4210894 1012.14948073 117.2578125 1012.31640625 C119.01472418 1012.33701384 120.77163134 1012.35801121 122.52853394 1012.37937927 C127.12166643 1012.43420746 131.71484071 1012.4837875 136.30804443 1012.53222656 C141.00748349 1012.58273079 145.70686291 1012.63826489 150.40625 1012.69335938 C159.60411556 1012.80045977 168.8020332 1012.90200873 178 1013 C178.02332561 1039.84179182 178.04097751 1066.68358214 178.05181217 1093.52538204 C178.05697585 1105.98754655 178.06401991 1118.44970476 178.07543945 1130.91186523 C178.08538411 1141.76961778 178.0918529 1152.62736577 178.09408849 1163.48512274 C178.09539597 1169.2380575 178.09848417 1174.99097924 178.10573006 1180.74390984 C178.11248683 1186.15200976 178.11461767 1191.56009122 178.11310768 1196.96819496 C178.11338416 1198.95928421 178.11539131 1200.95037404 178.11920547 1202.94145966 C178.12413737 1205.64739253 178.12300016 1208.35325453 178.12025452 1211.05918884 C178.12316736 1211.85781135 178.1260802 1212.65643386 178.12908131 1213.47925705 C178.12398798 1215.32000059 178.06776392 1217.16049713 178 1219 C177.67 1219.33 177.34 1219.66 177 1220 C175.28464224 1220.27751503 173.55922378 1220.49313961 171.83203125 1220.68359375 C170.72706299 1220.80557129 169.62209473 1220.92754883 168.48364258 1221.05322266 C166.666427 1221.24343994 166.666427 1221.24343994 164.8125 1221.4375 C163.55526123 1221.56946777 162.29802246 1221.70143555 161.00268555 1221.83740234 C141.25140058 1223.84692028 121.46622743 1225.01900028 101.625 1225.625 C100.95465729 1225.64564514 100.28431458 1225.66629028 99.59365845 1225.68756104 C18.5379192 1228.10474759 -70.63749336 1219.46129723 -140.30078125 1174.25 C-153.76893749 1165.27441653 -166.33132108 1155.20701012 -178 1144 C-178.50805176 1143.5138623 -179.01610352 1143.02772461 -179.53955078 1142.52685547 C-200.03402768 1122.80308908 -216.11970235 1098.79871087 -228 1073 C-228.35803711 1072.22350098 -228.71607422 1071.44700195 -229.08496094 1070.64697266 C-244.9956031 1035.72773588 -253.45474853 998.64466821 -258.1875 960.6875 C-258.34234863 959.47006104 -258.49719727 958.25262207 -258.65673828 956.99829102 C-261.66355678 931.54176076 -262.29883503 906.12579545 -262.24453239 880.52887052 C-262.23753177 876.14462716 -262.24243015 871.76039224 -262.24568737 867.37614667 C-262.24979585 859.72495586 -262.24661494 852.07379645 -262.23841095 844.42260933 C-262.22624655 833.04591421 -262.22574801 821.66923853 -262.22749493 810.29253809 C-262.2301115 791.14701145 -262.22348283 772.00149871 -262.21146011 752.8559761 C-262.19959847 733.91812699 -262.19192267 714.98028368 -262.18975449 696.04243088 C-262.18954827 694.27169346 -262.18954827 694.27169346 -262.18933788 692.46518356 C-262.18866115 686.46929402 -262.18805841 680.47340446 -262.18748413 674.47751491 C-262.18329089 632.08363882 -262.16983742 589.68977028 -262.15087891 547.29589844 C-262.1324901 506.12825561 -262.11833266 464.96061486 -262.10986328 423.79296875 C-262.1094687 421.88724289 -262.1094687 421.88724289 -262.10906615 419.94301751 C-262.10642896 407.18350599 -262.10387735 394.42399444 -262.10138843 381.66448289 C-262.09631693 355.67527811 -262.09067443 329.68607347 -262.08468628 303.6968689 C-262.0844117 302.50210554 -262.08413712 301.30734219 -262.08385422 300.07637389 C-262.065474 220.38424612 -262.0337861 140.69212254 -262 61 C-248.64966305 57.81352456 -235.29921029 54.62753481 -221.9486264 51.44209415 C-215.74315416 49.96145796 -209.53771569 48.48068065 -203.33236694 46.99952698 C-163.27087646 37.43743158 -123.19817521 27.92362816 -83.1127224 18.46249747 C-80.37113012 17.81539488 -77.6295573 17.16820988 -74.88799667 16.52097321 C-74.06233633 16.32604987 -73.23667598 16.13112653 -72.38599563 15.93029642 C-63.00767129 13.71542154 -53.63323441 11.48461953 -44.2611351 9.2435627 C-39.69588556 8.15246154 -35.1298043 7.06484416 -30.56390381 5.97647095 C-27.12643158 5.15520643 -23.69040111 4.32810314 -20.25439453 3.50073242 C-18.25300598 3.02360566 -16.25154646 2.5467764 -14.25 2.0703125 C-13.36851288 1.85592026 -12.48702576 1.64152802 -11.5788269 1.42063904 C-10.77422028 1.23042679 -9.96961365 1.04021454 -9.140625 0.84423828 C-8.45516602 0.67965118 -7.76970703 0.51506409 -7.06347656 0.3454895 C-5 0 -5 0 0 0 Z " fill="#2D364E" transform="translate(262,161)" />
<path d="M0 0 C0 85.8 0 171.6 0 260 C-20.79 260.495 -20.79 260.495 -42 261 C-57.46412583 262.45203059 -72.06514241 264.88722424 -87 269 C-88.24136719 269.33386719 -89.48273438 269.66773438 -90.76171875 270.01171875 C-108.70604752 275.41712126 -126.44918577 284.16236441 -141 296 C-141.5451123 296.43135254 -142.09022461 296.86270508 -142.65185547 297.30712891 C-167.52466228 317.01398972 -184.13109058 343.57661764 -193.31640625 373.89453125 C-195.07197293 380.06829061 -196.5642565 386.2798176 -197.875 392.5625 C-198.06634521 393.46919434 -198.25769043 394.37588867 -198.45483398 395.31005859 C-201.94628981 413.62552839 -202.29800638 432.37891034 -202.2784729 450.96263123 C-202.28349089 453.17687734 -202.289371 455.39112163 -202.29602563 457.60536343 C-202.31165802 463.61904525 -202.31524695 469.63268015 -202.31667423 475.64637983 C-202.32001425 481.48703714 -202.3326893 487.32766979 -202.3450741 493.16831384 C-202.37005382 505.09754455 -202.38600961 517.02677083 -202.39665604 528.95602226 C-202.40721334 540.75169253 -202.42188356 552.54734613 -202.44193649 564.34300423 C-202.44318536 565.0789597 -202.44443423 565.81491518 -202.44572094 566.57317233 C-202.4520855 570.31137028 -202.45852249 574.0495681 -202.46498732 577.78776587 C-202.51053792 604.20184499 -202.54703332 630.61592953 -202.578125 657.0300293 C-202.60833367 682.67619623 -202.64272594 708.32235209 -202.68261719 733.96850586 C-202.68512388 735.58380653 -202.68763046 737.19910721 -202.69013691 738.81440789 C-202.71052812 751.94135361 -202.73120621 765.06829887 -202.75195378 778.19524404 C-202.84753016 838.79681612 -202.9221612 899.39839725 -203 960 C-289.46 960 -375.92 960 -465 960 C-465.12113593 815.06759269 -465.12113593 815.06759269 -465.14449489 759.4061265 C-465.1506178 744.85289141 -465.15688119 730.29965639 -465.16357798 715.74642155 C-465.16438752 713.98635029 -465.16519263 712.22627903 -465.16599327 710.46620777 C-465.17876711 682.46538416 -465.20125832 654.46457886 -465.22889166 626.46376629 C-465.25726792 597.65746849 -465.27567446 568.8511808 -465.28174497 540.04486926 C-465.28260929 535.96524606 -465.28358619 531.88562291 -465.28463173 527.80599976 C-465.284834 527.00316371 -465.28503627 526.20032767 -465.28524467 525.37316326 C-465.28877369 512.51057777 -465.30264392 499.64802376 -465.3204961 486.78545105 C-465.33826986 473.81736953 -465.34487618 460.84931884 -465.34050413 447.88122559 C-465.33843969 440.86980498 -465.341072 433.85846857 -465.35761642 426.84706497 C-465.56803674 333.97712876 -446.73534368 248.48357507 -393.3359375 171.1171875 C-376.19997728 146.62572887 -356.13169803 122.49494185 -333.3828125 103.046875 C-331.52484687 101.45085207 -329.69218311 99.83618703 -327.8671875 98.203125 C-269.29071185 46.10440354 -195.25745764 14.03677966 -118 3 C-78.80623194 -0.45827365 -39.34604314 0 0 0 Z " fill="#2D364E" transform="translate(1027,412)" />
<path d="M0 0 C86.46 0 172.92 0 262 0 C262 310.53 262 621.06 262 941 C175.54 941 89.08 941 0 941 C0 630.47 0 319.94 0 0 Z " fill="#2D374F" transform="translate(2989,431)" />
<path d="M0 0 C0.75078827 0.00182281 1.50157654 0.00364563 2.27511597 0.00552368 C13.21919156 0.05027787 23.61957299 0.48985985 34.25 3.3125 C34.9212793 3.47878906 35.59255859 3.64507812 36.28417969 3.81640625 C59.67502098 9.65061147 80.59754766 20.92697008 98.25 37.3125 C98.82492188 37.84359375 99.39984375 38.3746875 99.9921875 38.921875 C123.43553564 60.82963265 137.11967567 87.69666624 143.80444336 118.9074707 C145.39707029 127.50416544 145.49314471 135.97976754 145.5 144.6875 C145.50067474 145.45327362 145.50134949 146.21904724 145.50204468 147.00802612 C145.48650998 158.08164923 145.08802907 168.5511571 142.25 179.3125 C141.94121365 180.63667385 141.63262612 181.96089408 141.32421875 183.28515625 C136.94011672 200.86946667 128.39886065 218.06449758 117.25 232.3125 C116.55648437 233.22515625 115.86296875 234.1378125 115.1484375 235.078125 C97.10905198 258.03734293 72.93696258 275.19397559 45.0234375 284.01171875 C43.20550493 284.55747055 41.38518645 285.09534163 39.5625 285.625 C38.73226318 285.86750488 37.90202637 286.11000977 37.04663086 286.35986328 C24.9382472 289.71178794 13.03327531 290.69426303 0.5 290.625 C-0.20443237 290.62284485 -0.90886475 290.6206897 -1.63464355 290.61846924 C-12.28458137 290.56624886 -22.41145421 290.07612096 -32.75 287.3125 C-33.51602539 287.11914062 -34.28205078 286.92578125 -35.07128906 286.7265625 C-64.2605145 279.24155336 -89.51526135 263.62344148 -109.75 241.3125 C-128.83937334 218.70666315 -141.87929148 190.92045314 -144.75 161.3125 C-145.68769018 144.68653179 -145.93593865 127.52535507 -141.75 111.3125 C-141.49259033 110.31041504 -141.49259033 110.31041504 -141.22998047 109.28808594 C-135.86857662 89.2127668 -126.56773893 68.94065559 -112.75 53.3125 C-112.02941406 52.48363281 -111.30882813 51.65476563 -110.56640625 50.80078125 C-108.32974955 48.26952159 -106.05146091 45.78488115 -103.75 43.3125 C-102.73873047 42.20261719 -102.73873047 42.20261719 -101.70703125 41.0703125 C-91.47803597 30.28476775 -78.84879 22.17585708 -65.75 15.3125 C-64.60402344 14.70664063 -63.45804688 14.10078125 -62.27734375 13.4765625 C-55.12454789 9.84515817 -47.82691074 7.23169782 -40.125 5 C-39.290896 4.75749512 -38.45679199 4.51499023 -37.59741211 4.26513672 C-25.13875088 0.83770294 -12.85396289 -0.06480333 0 0 Z " fill="#2D364E" transform="translate(3118.75,-0.3125)" />
</svg>
