<?xml version="1.0" encoding="UTF-8"?>
<svg version="1.1" xmlns="http://www.w3.org/2000/svg" width="225" height="225">
<path d="M0 0 C74.25 0 148.5 0 225 0 C225 74.25 225 148.5 225 225 C150.75 225 76.5 225 0 225 C0 150.75 0 76.5 0 0 Z " fill="#FECA01" transform="translate(0,0)"/>
<path d="M0 0 C5.35317405 3.4820803 5.35317405 3.4820803 7.3046875 5.43359375 C7.6346875 4.77359375 7.9646875 4.11359375 8.3046875 3.43359375 C8.9646875 3.43359375 9.6246875 3.43359375 10.3046875 3.43359375 C10.5728125 4.34109375 10.8409375 5.24859375 11.1171875 6.18359375 C12.21144245 9.17839678 13.41264333 10.93953553 15.3046875 13.43359375 C15.3046875 14.42359375 15.3046875 15.41359375 15.3046875 16.43359375 C15.9646875 16.43359375 16.6246875 16.43359375 17.3046875 16.43359375 C18.12533819 18.3050407 18.9358459 20.18093711 19.7421875 22.05859375 C20.19464844 23.10273437 20.64710938 24.146875 21.11328125 25.22265625 C25.33006681 36.58723896 23.88152683 48.43834661 19.3046875 59.43359375 C13.04355542 71.82609351 4.00439756 79.12213759 -8.6953125 84.43359375 C-19.35079497 87.53847534 -32.88890889 86.59715745 -42.8671875 82.04296875 C-56.82068439 74.10258102 -63.5992834 63.52533234 -68.3125 48.4609375 C-70.70217318 35.80542344 -67.71821376 23.9870296 -60.6953125 13.43359375 C-56.25376216 7.38198141 -51.23827263 3.08571772 -44.6953125 -0.56640625 C-43.83421875 -1.05496094 -42.973125 -1.54351562 -42.0859375 -2.046875 C-28.88376141 -8.5567878 -12.62031962 -7.33441763 0 0 Z " fill="#71B0DE" transform="translate(136.6953125,49.56640625)"/>
<path d="M0 0 C0.66 0 1.32 0 2 0 C2.268125 0.9075 2.53625 1.815 2.8125 2.75 C3.90675495 5.74480303 5.10795583 7.50594178 7 10 C7 10.99 7 11.98 7 13 C7.66 13 8.32 13 9 13 C9.82065069 14.87144695 10.6311584 16.74734336 11.4375 18.625 C11.88996094 19.66914062 12.34242188 20.71328125 12.80859375 21.7890625 C17.02537931 33.15364521 15.57683933 45.00475286 11 56 C4.73886792 68.39249976 -4.30028994 75.68854384 -17 81 C-21.62831884 82.37905747 -26.20845068 82.18407746 -31 82.1875 C-31.90234375 82.19974609 -32.8046875 82.21199219 -33.734375 82.22460938 C-34.60578125 82.22654297 -35.4771875 82.22847656 -36.375 82.23046875 C-37.16648437 82.23457764 -37.95796875 82.23868652 -38.7734375 82.24291992 C-41.23783271 81.97405224 -42.86541094 81.2296427 -45 80 C-44.47599609 78.96939453 -44.47599609 78.96939453 -43.94140625 77.91796875 C-43.48636719 77.01691406 -43.03132813 76.11585938 -42.5625 75.1875 C-42.11003906 74.29417969 -41.65757813 73.40085937 -41.19140625 72.48046875 C-39.090642 68.10674646 -38.86502638 64.75974391 -38.875 59.9375 C-38.87242188 58.68839844 -38.86984375 57.43929687 -38.8671875 56.15234375 C-38.78051724 53.09799287 -38.78051724 53.09799287 -40 51 C-43.36852515 50.9434891 -43.36852515 50.9434891 -47 52 C-51.7678683 57.64615983 -51.76435216 63.82452342 -52 71 C-55.88313418 67.5301311 -56.70347833 65.4952749 -57.02734375 60.4296875 C-56.95176878 53.71431116 -55.36281146 48.21411055 -51.12890625 42.9296875 C-46.74754746 38.95832742 -41.30391988 36.51818154 -36 34 C-36.6496875 33.40058594 -37.299375 32.80117187 -37.96875 32.18359375 C-40 30 -40 30 -40.5 27.0625 C-39.86756104 23.18881135 -38.96135546 21.58169451 -36 19 C-32.5625 18.375 -32.5625 18.375 -29 19 C-26.0625 21.125 -26.0625 21.125 -24 24 C-23.62311494 27.20352299 -23.55569145 29.11138291 -25 32 C-13.35456505 27.65991892 -7.74708801 21.52025251 -2.34765625 10.5 C-0.98168601 6.95243671 -0.3800098 3.77123652 0 0 Z " fill="#F9FBFA" transform="translate(145,53)"/>
<path d="M0 0 C2.5 2.3125 2.5 2.3125 5 5 C5 5.99 5 6.98 5 8 C5.66 8 6.32 8 7 8 C7.82065069 9.87144695 8.6311584 11.74734336 9.4375 13.625 C9.88996094 14.66914062 10.34242188 15.71328125 10.80859375 16.7890625 C15.02537931 28.15364521 13.57683933 40.00475286 9 51 C3.23482828 62.41085802 -4.34129797 69.16033064 -16 74 C-15.99476318 73.37657715 -15.98952637 72.7531543 -15.98413086 72.11083984 C-15.96293655 69.19890333 -15.95011283 66.28698601 -15.9375 63.375 C-15.92912109 62.32497803 -15.92074219 61.27495605 -15.91210938 60.19311523 C-15.89417479 54.36482261 -16.19953028 48.8296637 -17 43.0625 C-17.47448313 37.72135886 -17.47448313 37.72135886 -15.4609375 34.66015625 C-13.375 32.625 -13.375 32.625 -11.13671875 30.78125 C-3.51061044 24.42383612 -1.19983098 14.3439155 -0.3125 4.875 C-0.19776497 3.25071198 -0.089639 1.62586609 0 0 Z " fill="#336EB3" transform="translate(147,58)"/>
<path d="M0 0 C1.98 0 3.96 0 6 0 C6 2.97 6 5.94 6 9 C7.0828125 8.01 7.0828125 8.01 8.1875 7 C11.21597933 4.8464147 12.39703406 4.58823246 16 5 C16.66 6.32 17.32 7.64 18 9 C18.66 9 19.32 9 20 9 C20 8.34 20 7.68 20 7 C23 5 23 5 26.625 5.25 C27.73875 5.4975 28.8525 5.745 30 6 C31.39935013 8.79870027 31.25265405 10.90498792 31 14 C29.8125 15.875 29.8125 15.875 28 17 C24.38321316 17.46369062 22.11421408 16.8454602 19 15 C19.495 17.475 19.495 17.475 20 20 C18.68 20.33 17.36 20.66 16 21 C16 20.34 16 19.68 16 19 C15.01 19.33 14.02 19.66 13 20 C9 20 9 20 7 19 C6.67 18.67 6.34 18.34 6 18 C3.54207971 17.66656449 3.54207971 17.66656449 1 18 C0.34 18.99 -0.32 19.98 -1 21 C-1 20.34 -1 19.68 -1 19 C-2.32 19 -3.64 19 -5 19 C-5.33 19.66 -5.66 20.32 -6 21 C-8.64 21 -11.28 21 -14 21 C-14 15.72 -14 10.44 -14 5 C-10.37 5 -6.74 5 -3 5 C-1 9 -1 9 -1 13 C-0.34 13 0.32 13 1 13 C0.67 8.71 0.34 4.42 0 0 Z " fill="#F8CE0C" transform="translate(173,147)"/>
<path d="M0 0 C3.40111297 5.10166945 2.5371393 11.04616683 2 17 C0.61223531 21.86743083 -1.66734369 26.16744524 -5 30 C-12.74269329 28.20459286 -18.22434616 24.39748603 -24 19 C-24.33 18.34 -24.66 17.68 -25 17 C-24.030625 16.87625 -23.06125 16.7525 -22.0625 16.625 C-21.051875 16.41875 -20.04125 16.2125 -19 16 C-18.67 15.34 -18.34 14.68 -18 14 C-17.34 14 -16.68 14 -16 14 C-15.01 15.98 -14.02 17.96 -13 20 C-12.97421875 19.28714844 -12.9484375 18.57429688 -12.921875 17.83984375 C-12.54303641 11.44263759 -11.77793783 7.22244347 -8 2 C-4.79191085 -0.1387261 -3.72301503 -0.47730962 0 0 Z " fill="#2A66AD" transform="translate(105,103)"/>
<path d="M0 0 C1.33417969 0.01740234 1.33417969 0.01740234 2.6953125 0.03515625 C4.02175781 0.04869141 4.02175781 0.04869141 5.375 0.0625 C6.18195313 0.07410156 6.98890625 0.08570313 7.8203125 0.09765625 C8.8103125 0.09765625 9.8003125 0.09765625 10.8203125 0.09765625 C12.49131227 0.40853993 14.15902787 0.73845957 15.8203125 1.09765625 C16.1503125 2.41765625 16.4803125 3.73765625 16.8203125 5.09765625 C17.0059375 4.45828125 17.1915625 3.81890625 17.3828125 3.16015625 C18.8203125 1.09765625 18.8203125 1.09765625 22.3203125 0.22265625 C23.4753125 0.18140625 24.6303125 0.14015625 25.8203125 0.09765625 C27.8203125 2.09765625 27.8203125 2.09765625 27.9453125 4.72265625 C27.9040625 5.50640625 27.8628125 6.29015625 27.8203125 7.09765625 C25.8403125 7.09765625 23.8603125 7.09765625 21.8203125 7.09765625 C21.8203125 7.75765625 21.8203125 8.41765625 21.8203125 9.09765625 C23.8003125 8.76765625 25.7803125 8.43765625 27.8203125 8.09765625 C27.4903125 9.08765625 27.1603125 10.07765625 26.8203125 11.09765625 C22.2899009 12.93228574 17.51853524 13.61321197 12.8203125 12.09765625 C12.4903125 13.08765625 12.1603125 14.07765625 11.8203125 15.09765625 C10.8303125 15.09765625 9.8403125 15.09765625 8.8203125 15.09765625 C8.8203125 14.43765625 8.8203125 13.77765625 8.8203125 13.09765625 C7.8303125 13.09765625 6.8403125 13.09765625 5.8203125 13.09765625 C5.4903125 14.08765625 5.1603125 15.07765625 4.8203125 16.09765625 C4.1603125 16.09765625 3.5003125 16.09765625 2.8203125 16.09765625 C2.8203125 15.10765625 2.8203125 14.11765625 2.8203125 13.09765625 C-2.50139244 12.80203258 -2.50139244 12.80203258 -7.1796875 15.09765625 C-7.5096875 13.77765625 -7.8396875 12.45765625 -8.1796875 11.09765625 C-6.5296875 11.09765625 -4.8796875 11.09765625 -3.1796875 11.09765625 C-3.19128906 10.38738281 -3.20289063 9.67710937 -3.21484375 8.9453125 C-3.22837891 7.56666016 -3.22837891 7.56666016 -3.2421875 6.16015625 C-3.25378906 5.24363281 -3.26539063 4.32710937 -3.27734375 3.3828125 C-3.14824913 0.36199841 -3.01801988 0.13521594 0 0 Z " fill="#DEBB1B" transform="translate(61.1796875,151.90234375)"/>
<path d="M0 0 C6.08695652 0.54347826 6.08695652 0.54347826 9 2 C9 1.34 9 0.68 9 0 C11.97 0 14.94 0 18 0 C18 1.32 18 2.64 18 4 C17.01 4.495 17.01 4.495 16 5 C16.020625 6.11375 16.04125 7.2275 16.0625 8.375 C16 12 16 12 15 14 C14.34 14 13.68 14 13 14 C12.67 14.66 12.34 15.32 12 16 C11.443125 15.814375 10.88625 15.62875 10.3125 15.4375 C7.600867 14.92448835 5.65628961 15.3359276 3 16 C2.67 15.01 2.34 14.02 2 13 C1.13375 12.4225 0.2675 11.845 -0.625 11.25 C-1.40875 10.5075 -2.1925 9.765 -3 9 C-2.93113135 5.00561826 -2.8685771 2.8685771 0 0 Z " fill="#FAC714" transform="translate(101,152)"/>
<path d="M0 0 C0.99386719 0.00902344 1.98773438 0.01804688 3.01171875 0.02734375 C4.15060547 0.04474609 4.15060547 0.04474609 5.3125 0.0625 C5.3125 0.7225 5.3125 1.3825 5.3125 2.0625 C6.3025 2.7225 7.2925 3.3825 8.3125 4.0625 C7.22710937 4.03929687 6.14171875 4.01609375 5.0234375 3.9921875 C3.57813193 3.9734173 2.13281885 3.95521844 0.6875 3.9375 C-0.02535156 3.92074219 -0.73820312 3.90398438 -1.47265625 3.88671875 C-5.9487164 3.84565398 -9.46699278 4.37163433 -13.6875 6.0625 C-13.6875 8.0425 -13.6875 10.0225 -13.6875 12.0625 C-14.821875 12.18625 -15.95625 12.31 -17.125 12.4375 C-18.8884375 12.746875 -18.8884375 12.746875 -20.6875 13.0625 C-21.918894 15.52528801 -21.75909196 17.3420055 -21.6875 20.0625 C-23.9975 19.7325 -26.3075 19.4025 -28.6875 19.0625 C-29.0175 22.0325 -29.3475 25.0025 -29.6875 28.0625 C-31.9975 28.0625 -34.3075 28.0625 -36.6875 28.0625 C-37.0175 27.4025 -37.3475 26.7425 -37.6875 26.0625 C-32.69521724 14.1126467 -23.01497961 7.10885597 -11.47265625 2.15625 C-7.37574882 0.5473663 -4.38816574 -0.05162548 0 0 Z " fill="#92CEEA" transform="translate(109.6875,43.9375)"/>
<path d="M0 0 C0 1.32 0 2.64 0 4 C-1.11375 4.103125 -2.2275 4.20625 -3.375 4.3125 C-4.57125 4.539375 -5.7675 4.76625 -7 5 C-9.2773501 7.81509993 -9.2773501 7.81509993 -9 11 C-9.33 11.66 -9.66 12.32 -10 13 C-8.68 13.33 -7.36 13.66 -6 14 C-6.556875 14.226875 -7.11375 14.45375 -7.6875 14.6875 C-11.68438886 16.95600449 -14.53966649 19.61899946 -16 24 C-16.22325814 26.05893621 -16.40705759 28.12233653 -16.5625 30.1875 C-16.68818359 31.81751953 -16.68818359 31.81751953 -16.81640625 33.48046875 C-16.87699219 34.31191406 -16.93757813 35.14335938 -17 36 C-20.88313418 32.5301311 -21.70347833 30.4952749 -22.02734375 25.4296875 C-21.95121144 18.66478771 -20.33353567 13.17458781 -16.0546875 7.86328125 C-12.067386 4.24742039 -5.53957743 0 0 0 Z " fill="#F0F6F8" transform="translate(110,88)"/>
<path d="M0 0 C2.5 2.3125 2.5 2.3125 5 5 C5 5.99 5 6.98 5 8 C5.66 8 6.32 8 7 8 C7.8680908 9.91040052 8.71901783 11.82860737 9.5625 13.75 C10.03816406 14.81734375 10.51382813 15.8846875 11.00390625 16.984375 C11.9946154 19.98369837 12.16161779 21.13421241 11 24 C10.67 23.34 10.34 22.68 10 22 C9.34 22 8.68 22 8 22 C7.67 21.34 7.34 20.68 7 20 C6.67 20.66 6.34 21.32 6 22 C2.25879194 22.60342066 -1.21680921 23 -5 23 C-4.72285156 22.26136719 -4.44570312 21.52273437 -4.16015625 20.76171875 C-1.66882874 13.78422853 -0.29144307 7.40265387 0 0 Z " fill="#5895CC" transform="translate(147,58)"/>
<path d="M0 0 C2.79192205 -0.05380578 5.5828141 -0.09357669 8.375 -0.125 C9.1690625 -0.14175781 9.963125 -0.15851563 10.78125 -0.17578125 C12.85492015 -0.19335473 14.92883241 -0.10335168 17 0 C19 2 19 2 19.1953125 4.1640625 C19.17210937 4.97617188 19.14890625 5.78828125 19.125 6.625 C19.10695312 7.44226563 19.08890625 8.25953125 19.0703125 9.1015625 C19.04710937 9.72804687 19.02390625 10.35453125 19 11 C17.35 11 15.7 11 14 11 C14 8.69 14 6.38 14 4 C13.34 4 12.68 4 12 4 C12.33 6.31 12.66 8.62 13 11 C11.35 11 9.7 11 8 11 C8 8.36 8 5.72 8 3 C7.34 3 6.68 3 6 3 C6 5.64 6 8.28 6 11 C4.35 11 2.7 11 1 11 C0.67 7.37 0.34 3.74 0 0 Z " fill="#2A2E77" transform="translate(139,152)"/>
<path d="M0 0 C3.63 0 7.26 0 11 0 C13.26609984 4.53219967 12.92735976 6.17772925 12 11 C10.35 11.33 8.7 11.66 7 12 C7 13.32 7 14.64 7 16 C4.69 16 2.38 16 0 16 C0 10.72 0 5.44 0 0 Z " fill="#1D257C" transform="translate(159,152)"/>
<path d="M0 0 C13.375 0 13.375 0 18 1 C18.33 4.3 18.66 7.6 19 11 C17.35 11 15.7 11 14 11 C13.67 8.69 13.34 6.38 13 4 C12.67 4 12.34 4 12 4 C12 6.31 12 8.62 12 11 C10.35 11 8.7 11 7 11 C7 8.69 7 6.38 7 4 C6.34 4 5.68 4 5 4 C5.33 6.31 5.66 8.62 6 11 C4.02 11 2.04 11 0 11 C0 7.37 0 3.74 0 0 Z " fill="#101882" transform="translate(59,152)"/>
<path d="M0 0 C2.31 0 4.62 0 7 0 C6.67 4.29 6.34 8.58 6 13 C7.32 13 8.64 13 10 13 C9.67 8.71 9.34 4.42 9 0 C10.98 0 12.96 0 15 0 C15 0.99 15 1.98 15 3 C14.34 3 13.68 3 13 3 C13.02320313 3.84304687 13.04640625 4.68609375 13.0703125 5.5546875 C13.09738281 7.19824219 13.09738281 7.19824219 13.125 8.875 C13.14820313 9.96554688 13.17140625 11.05609375 13.1953125 12.1796875 C13 15 13 15 11 17 C7.50525407 17.45583643 5.71925765 17.53617389 2.8515625 15.3984375 C0.44124948 12.27621768 0.40629735 10.15743373 0.25 6.25 C0.19328125 5.07953125 0.1365625 3.9090625 0.078125 2.703125 C0.05234375 1.81109375 0.0265625 0.9190625 0 0 Z " fill="#22277B" transform="translate(21,147)"/>
<path d="M0 0 C10.23860471 0.67138392 20.67206002 3.33897184 28 11 C29 13.875 29 13.875 29 16 C28.01 15.34 27.02 14.68 26 14 C26.33 13.34 26.66 12.68 27 12 C26.34 12 25.68 12 25 12 C24.67 12.66 24.34 13.32 24 14 C23.01 14 22.02 14 21 14 C20.34 13.34 19.68 12.68 19 12 C15.41656024 11.83322718 15.41656024 11.83322718 12 12 C12 9.36 12 6.72 12 4 C10.948125 4.0825 9.89625 4.165 8.8125 4.25 C4.46236331 3.96474513 3.0684847 2.97550031 0 0 Z " fill="#86C6EB" transform="translate(116,44)"/>
<path d="M0 0 C0.80566406 0.01160156 1.61132812 0.02320312 2.44140625 0.03515625 C3.24449219 0.04417969 4.04757813 0.05320312 4.875 0.0625 C5.57753906 0.07410156 6.28007812 0.08570312 7.00390625 0.09765625 C7.66390625 0.09765625 8.32390625 0.09765625 9.00390625 0.09765625 C12.00390625 1.09765625 12.00390625 1.09765625 14.00390625 2.09765625 C11.94365928 6.94344121 8.44319399 9.44230451 4.00390625 12.09765625 C0.50390625 12.97265625 0.50390625 12.97265625 -1.99609375 13.09765625 C-1.97546875 11.86015625 -1.95484375 10.62265625 -1.93359375 9.34765625 C-1.92318465 6.40708463 -2.20072766 3.93824941 -2.99609375 1.09765625 C-1.99609375 0.09765625 -1.99609375 0.09765625 0 0 Z " fill="#5F9DCF" transform="translate(121.99609375,71.90234375)"/>
<path d="M0 0 C0.99 0.33 1.98 0.66 3 1 C3.05422947 2.4370809 3.09289723 3.87475462 3.125 5.3125 C3.14820313 6.11300781 3.17140625 6.91351563 3.1953125 7.73828125 C3 10 3 10 1 13 C-0.010625 13.309375 -1.02125 13.61875 -2.0625 13.9375 C-3.031875 14.288125 -4.00125 14.63875 -5 15 C-5.96877057 17.03243548 -5.96877057 17.03243548 -6 19 C-6.66 19 -7.32 19 -8 19 C-8.33 21.64 -8.66 24.28 -9 27 C-9.33 27 -9.66 27 -10 27 C-12.1820964 14.86208875 -12.1820964 14.86208875 -9.390625 10.46484375 C-7.33877568 8.5215777 -5.20081747 6.77003731 -3 5 C-1.06201737 2.22739701 -1.06201737 2.22739701 0 0 Z " fill="#4480BB" transform="translate(141,82)"/>
<path d="M0 0 C0.33 0 0.66 0 1 0 C2.19088986 5.38027025 3.2919519 10.45291384 3 16 C3.66 16 4.32 16 5 16 C5 15.34 5 14.68 5 14 C6.32 14.33 7.64 14.66 9 15 C8.34 16.32 7.68 17.64 7 19 C-0.74269329 17.20459286 -6.22434616 13.39748603 -12 8 C-12.33 7.34 -12.66 6.68 -13 6 C-12.030625 5.87625 -11.06125 5.7525 -10.0625 5.625 C-9.051875 5.41875 -8.04125 5.2125 -7 5 C-6.67 4.34 -6.34 3.68 -6 3 C-5.34 3 -4.68 3 -4 3 C-3.01 4.98 -2.02 6.96 -1 9 C-0.67 6.03 -0.34 3.06 0 0 Z " fill="#2962A6" transform="translate(93,114)"/>
<path d="M0 0 C0.66 1.32 1.32 2.64 2 4 C2.99 3.67 3.98 3.34 5 3 C8.68359299 10.99573557 7.5244087 19.79567172 5 28 C4.67 28 4.34 28 4 28 C3.67 22.72 3.34 17.44 3 12 C2.34 12 1.68 12 1 12 C0.67 13.65 0.34 15.3 0 17 C-0.33 17 -0.66 17 -1 17 C-1.02709444 14.91673869 -1.04643873 12.83337559 -1.0625 10.75 C-1.07410156 9.58984375 -1.08570313 8.4296875 -1.09765625 7.234375 C-1.01782092 4.59022872 -0.78643778 2.50173909 0 0 Z " fill="#417DBF" transform="translate(153,76)"/>
<path d="M0 0 C8.49609375 -0.09765625 8.49609375 -0.09765625 11 0 C12.66342837 1.66342837 12.36048097 3.7825709 12.5625 6.0625 C12.64628906 6.98160156 12.73007812 7.90070313 12.81640625 8.84765625 C12.87699219 9.55792969 12.93757813 10.26820313 13 11 C11.35 11 9.7 11 8 11 C8 8.36 8 5.72 8 3 C7.34 3 6.68 3 6 3 C6 5.64 6 8.28 6 11 C4.02 11 2.04 11 0 11 C0 7.37 0 3.74 0 0 Z " fill="#1D217E" transform="translate(37,152)"/>
<path d="M0 0 C1.670625 0.37125 1.670625 0.37125 3.375 0.75 C4.77435013 3.54870027 4.62765405 5.65498792 4.375 8.75 C3.1875 10.625 3.1875 10.625 1.375 11.75 C-1.44615488 12.17317323 -2.96450907 12.13718434 -5.4375 10.6875 C-7.29001934 7.66496844 -7.00143703 5.20067281 -6.625 1.75 C-3.625 -0.25 -3.625 -0.25 0 0 Z " fill="#1C1E7D" transform="translate(199.625,152.25)"/>
<path d="M0 0 C0.66 0 1.32 0 2 0 C4.48887372 4.68493876 3.85687773 7.9444214 3 13 C4.98 13 6.96 13 9 13 C9 10.36 9 7.72 9 5 C9.66 5 10.32 5 11 5 C11 7.64 11 10.28 11 13 C12.65 13 14.3 13 16 13 C16 13.33 16 13.66 16 14 C14.35 14 12.7 14 11 14 C10.67 14.66 10.34 15.32 10 16 C9.236875 15.835 8.47375 15.67 7.6875 15.5 C4.96403764 14.90854604 4.96403764 14.90854604 2 15 C1.67 15.99 1.34 16.98 1 18 C-3.455 17.01 -3.455 17.01 -8 16 C-8 15.34 -8 14.68 -8 14 C-5.69 13.34 -3.38 12.68 -1 12 C-0.67 8.04 -0.34 4.08 0 0 Z " fill="#F7CC09" transform="translate(34,150)"/>
<path d="M0 0 C3.5625 0.25 3.5625 0.25 7 1 C8.39935013 3.79870027 8.25265405 5.90498792 8 9 C6.8125 10.875 6.8125 10.875 5 12 C2.15503228 12.42674516 0.63647631 12.36066991 -1.875 10.9375 C-3.68060316 7.82785011 -2.79952488 5.38260527 -2 2 C-1.34 1.34 -0.68 0.68 0 0 Z " fill="#141982" transform="translate(101,152)"/>
<path d="M0 0 C2 2 2 2 2.125 4.625 C2.08375 5.40875 2.0425 6.1925 2 7 C0.02 7 -1.96 7 -4 7 C-4 7.66 -4 8.32 -4 9 C-2.02 8.67 -0.04 8.34 2 8 C1.34 9.32 0.68 10.64 0 12 C-2.31 11.67 -4.62 11.34 -7 11 C-8.33517241 3.59586207 -8.33517241 3.59586207 -6.875 1 C-4.4020613 -0.31890064 -2.76393359 -0.35435046 0 0 Z " fill="#151A80" transform="translate(189,152)"/>
<path d="M0 0 C2.5625 0.3125 2.5625 0.3125 4.375 1.5625 C5.5625 3.3125 5.5625 3.3125 5.5625 7.3125 C3.5825 7.3125 1.6025 7.3125 -0.4375 7.3125 C-0.4375 7.9725 -0.4375 8.6325 -0.4375 9.3125 C1.2125 8.9825 2.8625 8.6525 4.5625 8.3125 C3.9025 9.6325 3.2425 10.9525 2.5625 12.3125 C0.1875 12.4375 0.1875 12.4375 -2.4375 12.3125 C-4.4375 10.3125 -4.4375 10.3125 -4.703125 8.4375 C-4.69796875 7.73625 -4.6928125 7.035 -4.6875 6.3125 C-4.69265625 5.61125 -4.6978125 4.91 -4.703125 4.1875 C-4.26410186 1.08851312 -2.98750291 0.38301319 0 0 Z " fill="#28296F" transform="translate(132.4375,151.6875)"/>
<path d="M0 0 C2 2 2 2 2.125 4.625 C2.08375 5.40875 2.0425 6.1925 2 7 C0.02 7 -1.96 7 -4 7 C-4 7.66 -4 8.32 -4 9 C-2.02 8.67 -0.04 8.34 2 8 C1.67 8.99 1.34 9.98 1 11 C-4.42465753 12.3260274 -4.42465753 12.3260274 -6.875 10.9375 C-8.49933741 8.14003001 -8.39704314 6.17634515 -8 3 C-5.8975876 -0.31959853 -3.76753493 -0.4830173 0 0 Z " fill="#141C85" transform="translate(87,152)"/>
<path d="M0 0 C0.99386719 0.00902344 1.98773438 0.01804688 3.01171875 0.02734375 C4.15060547 0.04474609 4.15060547 0.04474609 5.3125 0.0625 C5.3125 0.7225 5.3125 1.3825 5.3125 2.0625 C6.3025 2.7225 7.2925 3.3825 8.3125 4.0625 C7.22710937 4.03929687 6.14171875 4.01609375 5.0234375 3.9921875 C3.57813193 3.9734173 2.13281885 3.95521844 0.6875 3.9375 C-0.02535156 3.92074219 -0.73820312 3.90398438 -1.47265625 3.88671875 C-5.91799096 3.84593586 -9.54851234 4.22294993 -13.6875 6.0625 C-14.65627057 8.09493548 -14.65627057 8.09493548 -14.6875 10.0625 C-16.3375 10.3925 -17.9875 10.7225 -19.6875 11.0625 C-19.6875 10.4025 -19.6875 9.7425 -19.6875 9.0625 C-20.3475 8.4025 -21.0075 7.7425 -21.6875 7.0625 C-19.5842433 6.08138025 -17.47986311 5.10266866 -15.375 4.125 C-14.20324219 3.57972656 -13.03148438 3.03445312 -11.82421875 2.47265625 C-7.57929001 0.56428853 -4.61773822 -0.05432633 0 0 Z " fill="#9ADAE4" transform="translate(109.6875,43.9375)"/>
<path d="M0 0 C0.33 0.66 0.66 1.32 1 2 C3.64 2 6.28 2 9 2 C8.979375 3.11375 8.95875 4.2275 8.9375 5.375 C8.73619282 8.83215921 8.73619282 8.83215921 10 11 C9.71758117 13.3400417 9.38749213 15.67504723 9 18 C4.40808685 14.04585257 1.85392555 9.78963343 0 4 C0 2.68 0 1.36 0 0 Z " fill="#417FBA" transform="translate(71,102)"/>
<path d="M0 0 C0.66 1.32 1.32 2.64 2 4 C1.34 4 0.68 4 0 4 C-0.33 5.32 -0.66 6.64 -1 8 C-3.3125 8.625 -3.3125 8.625 -6 9 C-6.99 8.34 -7.98 7.68 -9 7 C-9 9.64 -9 12.28 -9 15 C-11 14 -11 14 -11.875 11.875 C-12.0506515 7.83501554 -10.44777735 5.15508964 -8 2 C-4.77208445 -0.1519437 -3.71599191 -0.20086443 0 0 Z " fill="#3B75B4" transform="translate(105,103)"/>
<path d="M0 0 C1.98 0 3.96 0 6 0 C6 5.28 6 10.56 6 16 C4.35 16 2.7 16 1 16 C0.67 10.72 0.34 5.44 0 0 Z " fill="#121D80" transform="translate(173,147)"/>
<path d="M0 0 C2 3 2 3 1.8125 6 C0.99644717 9.01311815 0.49699674 10.20216235 -2 12 C-2.66 12 -3.32 12 -4 12 C-4.103125 12.598125 -4.20625 13.19625 -4.3125 13.8125 C-5.08876455 16.28243264 -6.07088921 17.32251235 -8 19 C-8.66 18.67 -9.32 18.34 -10 18 C-10.66 18 -11.32 18 -12 18 C-10.69174889 15.14053687 -9.25124967 12.99552749 -7.125 10.6875 C-4.17318028 7.34499825 -2.0873475 3.93384721 0 0 Z " fill="#F7CD07" transform="translate(155,109)"/>
<path d="M0 0 C0.66 0 1.32 0 2 0 C2.33773437 1.22976562 2.67546875 2.45953125 3.0234375 3.7265625 C3.47387489 5.35939802 3.92440038 6.99220924 4.375 8.625 C4.59671875 9.43324219 4.8184375 10.24148437 5.046875 11.07421875 C6.25021847 15.42749072 7.52135525 19.72989508 9 24 C6.525 23.01 6.525 23.01 4 22 C4 20.02 4 18.04 4 16 C3.01 16 2.02 16 1 16 C-0.79074734 10.10106757 -1.08360869 6.06820868 0 0 Z " fill="#FCC907" transform="translate(65,88)"/>
<path d="M0 0 C0.99 0 1.98 0 3 0 C3.9807664 2.94229921 4.16488128 4.9908784 4.1875 8.0625 C4.20167969 8.94035156 4.21585938 9.81820312 4.23046875 10.72265625 C4 13 4 13 2 15 C1.34 15 0.68 15 0 15 C-1.33783393 15.31478446 -2.67203709 15.64587656 -4 16 C-4.33 14.68 -4.66 13.36 -5 12 C-6.32 11.67 -7.64 11.34 -9 11 C-7.35 11 -5.7 11 -4 11 C-4.33 8.69 -4.66 6.38 -5 4 C-4.34 4 -3.68 4 -3 4 C-3 6.31 -3 8.62 -3 11 C-1.35 11 0.3 11 2 11 C1.85892253 9.54119891 1.71197585 8.08296449 1.5625 6.625 C1.48128906 5.81289062 1.40007812 5.00078125 1.31640625 4.1640625 C1.10909886 1.95727195 1.10909886 1.95727195 0 0 Z " fill="#F1CE0A" transform="translate(156,152)"/>
<path d="M0 0 C1.65 0 3.3 0 5 0 C5.05386629 2.12472576 5.09273071 4.24983652 5.125 6.375 C5.14820312 7.55835938 5.17140625 8.74171875 5.1953125 9.9609375 C5 13 5 13 3 15 C1.68 15 0.36 15 -1 15 C-1 13.68 -1 12.36 -1 11 C-0.34 11 0.32 11 1 11 C0.67 7.37 0.34 3.74 0 0 Z " fill="#0F177F" transform="translate(91,153)"/>
<path d="M0 0 C2.12038635 2.61514317 4.13091744 5.19637616 6 8 C4.21046815 8.83790789 2.41830305 9.67019396 0.625 10.5 C-0.37273437 10.9640625 -1.37046875 11.428125 -2.3984375 11.90625 C-5 13 -5 13 -7 13 C-7.33 12.34 -7.66 11.68 -8 11 C-8.66 11 -9.32 11 -10 11 C-10.66 11.66 -11.32 12.32 -12 13 C-12.66 12.67 -13.32 12.34 -14 12 C-13 10 -13 10 -10 8 C-7.51953125 7.5859375 -7.51953125 7.5859375 -4.8125 7.375 C-3.91144531 7.30023438 -3.01039062 7.22546875 -2.08203125 7.1484375 C-1.39496094 7.09945312 -0.70789063 7.05046875 0 7 C0 4.69 0 2.38 0 0 Z " fill="#629ACC" transform="translate(104,80)"/>
<path d="M0 0 C2.64 0 5.28 0 8 0 C8 1.32 8 2.64 8 4 C7.01 4.495 7.01 4.495 6 5 C6 6.98 6 8.96 6 11 C4.02 11 2.04 11 0 11 C0 7.37 0 3.74 0 0 Z " fill="#15177F" transform="translate(111,152)"/>
<path d="M0 0 C0 0.33 0 0.66 0 1 C-1.65 1 -3.3 1 -5 1 C-4.67 1.99 -4.34 2.98 -4 4 C-3.93197033 5.72795352 -3.91504355 7.45835365 -3.9375 9.1875 C-3.94652344 10.08855469 -3.95554687 10.98960937 -3.96484375 11.91796875 C-3.97644531 12.60503906 -3.98804688 13.29210937 -4 14 C-5.32 14 -6.64 14 -8 14 C-8.02708567 12.39592672 -8.04643483 10.7917215 -8.0625 9.1875 C-8.07410156 8.29417969 -8.08570313 7.40085938 -8.09765625 6.48046875 C-8 4 -8 4 -7 1 C-9.31 1 -11.62 1 -14 1 C-14 0.67 -14 0.34 -14 0 C-9.02936879 -0.91297308 -4.97063121 -0.91297308 0 0 Z " fill="#B89B30" transform="translate(35,146)"/>
<path d="M0 0 C2.5 2.3125 2.5 2.3125 5 5 C5 5.99 5 6.98 5 8 C5.66 8 6.32 8 7 8 C6.67 8.66 6.34 9.32 6 10 C5.01 10 4.02 10 3 10 C2.896875 10.763125 2.79375 11.52625 2.6875 12.3125 C1.95635961 15.17059424 1.23048087 16.15742885 -1 18 C-2.25985286 14.22044143 -1.64024579 11.15576548 -1.0625 7.3125 C-0.96259766 6.61060547 -0.86269531 5.90871094 -0.75976562 5.18554688 C-0.51270675 3.45613473 -0.25717148 1.7279373 0 0 Z " fill="#76ABD1" transform="translate(147,58)"/>
<path d="M0 0 C1.9375 0.375 1.9375 0.375 4 1 C5.60725635 4.21451269 5.05748185 7.43612536 5 11 C6.65 11 8.3 11 10 11 C10 8.36 10 5.72 10 3 C10.66 3 11.32 3 12 3 C12.09765625 9.15234375 12.09765625 9.15234375 12 11 C11 12 11 12 7.625 12.1875 C4 12 4 12 1 10 C1.33 9.34 1.66 8.68 2 8 C0.35 8.33 -1.3 8.66 -3 9 C-3 8.34 -3 7.68 -3 7 C-1.02 7 0.96 7 3 7 C1.60240095 3.45481116 1.60240095 3.45481116 0 0 Z " fill="#C4AE25" transform="translate(135,152)"/>
<path d="M0 0 C3 1 3 1 4.203125 3.14453125 C4.54859375 4.02496094 4.8940625 4.90539062 5.25 5.8125 C5.78367188 7.12154297 5.78367188 7.12154297 6.328125 8.45703125 C7.03604136 11.13641236 6.9337741 12.43212123 6 15 C6 14.01 6 13.02 6 12 C5.34 12 4.68 12 4 12 C3.525625 11.175 3.05125 10.35 2.5625 9.5 C2.046875 8.675 1.53125 7.85 1 7 C0.01 7 -0.98 7 -2 7 C-2.33 7.66 -2.66 8.32 -3 9 C-3.36923077 3.46153846 -3.36923077 3.46153846 -1.5 1.125 C-1.005 0.75375 -0.51 0.3825 0 0 Z " fill="#639DC4" transform="translate(152,67)"/>
<path d="M0 0 C1.65 0 3.3 0 5 0 C5.66 1.32 6.32 2.64 7 4 C6.34 4 5.68 4 5 4 C5.33 6.31 5.66 8.62 6 11 C4.02 11 2.04 11 0 11 C0 7.37 0 3.74 0 0 Z " fill="#202379" transform="translate(59,152)"/>
<path d="M0 0 C1.98 0 3.96 0 6 0 C6.33 0.66 6.66 1.32 7 2 C6.01 2.495 6.01 2.495 5 3 C5.33 3.33 5.66 3.66 6 4 C6.04092937 6.33297433 6.04241723 8.66705225 6 11 C4.35 11 2.7 11 1 11 C0.67 7.37 0.34 3.74 0 0 Z " fill="#4A4269" transform="translate(139,152)"/>
<path d="M0 0 C0.66 1.32 1.32 2.64 2 4 C0.59106853 5.63171123 -0.82745958 7.25513945 -2.25 8.875 C-3.03890625 9.77992187 -3.8278125 10.68484375 -4.640625 11.6171875 C-6.74691403 13.74439993 -8.25651526 14.90512306 -11 16 C-11.66 15.34 -12.32 14.68 -13 14 C-11.68 13.01 -10.36 12.02 -9 11 C-9.33 10.01 -9.66 9.02 -10 8 C-8.68 8 -7.36 8 -6 8 C-6 7.01 -6 6.02 -6 5 C-5.01 5.33 -4.02 5.66 -3 6 C-2.01 4.02 -1.02 2.04 0 0 Z " fill="#2C669E" transform="translate(150,112)"/>
<path d="M0 0 C1.98362069 2.91708924 1.9876191 4.12380904 1.625 7.75 C1.41875 8.8225 1.2125 9.895 1 11 C-1.31 11 -3.62 11 -6 11 C-6.33 10.34 -6.66 9.68 -7 9 C-5.75 5.9375 -5.75 5.9375 -4 3 C-3.01 2.67 -2.02 2.34 -1 2 C-0.67 1.34 -0.34 0.68 0 0 Z " fill="#86C4E1" transform="translate(79,61)"/>
<path d="M0 0 C1.65 0.33 3.3 0.66 5 1 C6.25 7.625 6.25 7.625 4 11 C3.67 10.34 3.34 9.68 3 9 C1.68 9 0.36 9 -1 9 C-0.67 6.03 -0.34 3.06 0 0 Z " fill="#514C5F" transform="translate(166,152)"/>
<path d="M0 0 C2.31 0.33 4.62 0.66 7 1 C5.68 1.99 4.36 2.98 3 4 C3.99 4 4.98 4 6 4 C6 6.31 6 8.62 6 11 C4.02 11 2.04 11 0 11 C0 7.37 0 3.74 0 0 Z " fill="#202777" transform="translate(37,152)"/>
<path d="M0 0 C1.32 0 2.64 0 4 0 C4.335939 1.4577353 4.66866624 2.91621106 5 4.375 C5.185625 5.18710938 5.37125 5.99921875 5.5625 6.8359375 C6 9 6 9 6 11 C4.35 11 2.7 11 1 11 C1 8.36 1 5.72 1 3 C0.01 3.33 -0.98 3.66 -2 4 C-2 3.01 -2 2.02 -2 1 C-1.34 1.33 -0.68 1.66 0 2 C0 1.34 0 0.68 0 0 Z " fill="#1C2081" transform="translate(146,152)"/>
<path d="M0 0 C2.31 0.33 4.62 0.66 7 1 C7.6875 3.3125 7.6875 3.3125 8 6 C6.8125 7.875 6.8125 7.875 5 9 C2.8125 8.6875 2.8125 8.6875 1 8 C0.67 5.36 0.34 2.72 0 0 Z " fill="#554F5D" transform="translate(101,152)"/>
<path d="M0 0 C0.33 1.32 0.66 2.64 1 4 C1.66 4 2.32 4 3 4 C3 8.29 3 12.58 3 17 C2.67 17 2.34 17 2 17 C1.67 19.64 1.34 22.28 1 25 C0.67 25 0.34 25 0 25 C0 16.75 0 8.5 0 0 Z " fill="#185DA7" transform="translate(132,104)"/>
<path d="M0 0 C0.99 0.66 1.98 1.32 3 2 C2.38511719 2.76183594 2.38511719 2.76183594 1.7578125 3.5390625 C-1.39286344 7.5640887 -3.73796061 10.95184246 -5 16 C-5.33 16 -5.66 16 -6 16 C-6 11.71 -6 7.42 -6 3 C-4.35 2.34 -2.7 1.68 -1 1 C-0.67 0.67 -0.34 0.34 0 0 Z " fill="#4D88C3" transform="translate(94,92)"/>
<path d="M0 0 C0.99 0 1.98 0 3 0 C3 0.66 3 1.32 3 2 C5.64 2 8.28 2 11 2 C10.34 3.65 9.68 5.3 9 7 C3.06 5.515 3.06 5.515 -3 4 C-2.67 3.34 -2.34 2.68 -2 2 C-1.34 2 -0.68 2 0 2 C0 1.34 0 0.68 0 0 Z " fill="#F6CD0E" transform="translate(125,41)"/>
<path d="M0 0 C2.31 0 4.62 0 7 0 C7.33 3.96 7.66 7.92 8 12 C7.01 12.495 7.01 12.495 6 13 C6 9.04 6 5.08 6 1 C4.35 1 2.7 1 1 1 C1.33 3.31 1.66 5.62 2 8 C-1.05847848 8.54372951 -3.88772805 9 -7 9 C-7 8.34 -7 7.68 -7 7 C-5.02 7 -3.04 7 -1 7 C-0.67 4.69 -0.34 2.38 0 0 Z " fill="#C2A433" transform="translate(90,152)"/>
<path d="M0 0 C0.66 1.32 1.32 2.64 2 4 C2.99 3.67 3.98 3.34 5 3 C4.34 5.97 3.68 8.94 3 12 C2.34 12 1.68 12 1 12 C0.67 13.65 0.34 15.3 0 17 C-0.33 17 -0.66 17 -1 17 C-1.02709444 14.91673869 -1.04643873 12.83337559 -1.0625 10.75 C-1.07410156 9.58984375 -1.08570313 8.4296875 -1.09765625 7.234375 C-1.01782092 4.59022872 -0.78643778 2.50173909 0 0 Z " fill="#4688BD" transform="translate(153,76)"/>
<path d="M0 0 C4.47400242 -0.36275695 4.47400242 -0.36275695 6.8125 1.25 C8 3 8 3 8 7 C6.02 7 4.04 7 2 7 C1.67 7.66 1.34 8.32 1 9 C0.67 6.03 0.34 3.06 0 0 Z " fill="#2C2976" transform="translate(130,152)"/>
<path d="M0 0 C0.66 0 1.32 0 2 0 C1.96519531 0.92232422 1.96519531 0.92232422 1.9296875 1.86328125 C1.91164062 2.67152344 1.89359375 3.47976562 1.875 4.3125 C1.84019531 5.51326172 1.84019531 5.51326172 1.8046875 6.73828125 C1.84182678 9.28388576 1.84182678 9.28388576 4 12 C0.04 12.66 -3.92 13.32 -8 14 C-8.33 12.35 -8.66 10.7 -9 9 C-7.88625 9.20625 -6.7725 9.4125 -5.625 9.625 C-4.42875 9.74875 -3.2325 9.8725 -2 10 C0.18331689 8.23863645 0.18331689 8.23863645 0.1953125 6.0546875 C0.17210937 5.33539063 0.14890625 4.61609375 0.125 3.875 C0.08375 2.59625 0.0425 1.3175 0 0 Z " fill="#EBC510" transform="translate(203,153)"/>
<path d="M0 0 C0.80566406 0.01160156 1.61132812 0.02320312 2.44140625 0.03515625 C3.24449219 0.04417969 4.04757813 0.05320312 4.875 0.0625 C5.57753906 0.07410156 6.28007812 0.08570312 7.00390625 0.09765625 C7.66390625 0.09765625 8.32390625 0.09765625 9.00390625 0.09765625 C9.99390625 0.42765625 10.98390625 0.75765625 12.00390625 1.09765625 C11.67390625 1.75765625 11.34390625 2.41765625 11.00390625 3.09765625 C10.01390625 3.09765625 9.02390625 3.09765625 8.00390625 3.09765625 C7.67390625 3.75765625 7.34390625 4.41765625 7.00390625 5.09765625 C5.35390625 5.09765625 3.70390625 5.09765625 2.00390625 5.09765625 C2.00390625 4.43765625 2.00390625 3.77765625 2.00390625 3.09765625 C0.02390625 4.08765625 0.02390625 4.08765625 -1.99609375 5.09765625 C-2.55859375 3.16015625 -2.55859375 3.16015625 -2.99609375 1.09765625 C-1.99609375 0.09765625 -1.99609375 0.09765625 0 0 Z " fill="#65A4D6" transform="translate(121.99609375,71.90234375)"/>
<path d="M0 0 C0.33 0.66 0.66 1.32 1 2 C1.99 2.33 2.98 2.66 4 3 C3.67 4.65 3.34 6.3 3 8 C2.34 8 1.68 8 1 8 C0.67 10.64 0.34 13.28 0 16 C-0.33 16 -0.66 16 -1 16 C-1.22127098 13.70954632 -1.4266504 11.41755236 -1.625 9.125 C-1.74101562 7.84882812 -1.85703125 6.57265625 -1.9765625 5.2578125 C-1.98816406 3.64519531 -1.98816406 3.64519531 -2 2 C-1.34 1.34 -0.68 0.68 0 0 Z " fill="#447BB6" transform="translate(132,93)"/>
<path d="M0 0 C1.98 0 3.96 0 6 0 C6 0.99 6 1.98 6 3 C5.34 3 4.68 3 4 3 C4 5.97 4 8.94 4 12 C3.34 12 2.68 12 2 12 C1.66269158 10.56342755 1.33030409 9.12569907 1 7.6875 C0.814375 6.88699219 0.62875 6.08648437 0.4375 5.26171875 C0 3 0 3 0 0 Z " fill="#171C7E" transform="translate(30,147)"/>
<path d="M0 0 C0.99 0 1.98 0 3 0 C3 0.99 3 1.98 3 3 C4.65 3 6.3 3 8 3 C8.33 2.34 8.66 1.68 9 1 C9 1.99 9 2.98 9 4 C8.05125 4.103125 7.1025 4.20625 6.125 4.3125 C2.70892499 4.68539295 2.70892499 4.68539295 1 8 C1 7.34 1 6.68 1 6 C-0.32 6 -1.64 6 -3 6 C-3.66 6.66 -4.32 7.32 -5 8 C-5.33 6.35 -5.66 4.7 -6 3 C-4.02 3 -2.04 3 0 3 C0 2.01 0 1.02 0 0 Z " fill="#CFAD24" transform="translate(171,160)"/>
<path d="M0 0 C2 2 2 2 2.125 4.625 C2.08375 5.40875 2.0425 6.1925 2 7 C0.02 7 -1.96 7 -4 7 C-4 5.35 -4 3.7 -4 2 C-4.99 1.67 -5.98 1.34 -7 1 C-4.48718205 -0.25640898 -2.78302919 -0.20872719 0 0 Z " fill="#242B7A" transform="translate(189,152)"/>
<path d="M0 0 C3.89081843 1.29693948 6.48181674 2.70699112 9 6 C8.75 8.25 8.75 8.25 8 10 C7.34 9.34 6.68 8.68 6 8 C6.33 7.34 6.66 6.68 7 6 C6.34 6 5.68 6 5 6 C4.67 6.66 4.34 7.32 4 8 C3.34 8 2.68 8 2 8 C1.34 5.36 0.68 2.72 0 0 Z " fill="#85C0E5" transform="translate(136,50)"/>
<path d="M0 0 C5.56890517 0.47986031 10.67067568 1.29915181 16 3 C15.01 4.485 15.01 4.485 14 6 C13.34 6 12.68 6 12 6 C12 5.34 12 4.68 12 4 C10.948125 4.0825 9.89625 4.165 8.8125 4.25 C4.46236331 3.96474513 3.0684847 2.97550031 0 0 Z " fill="#97D3EE" transform="translate(116,44)"/>
<path d="M0 0 C1.98 0 3.96 0 6 0 C6 4.62 6 9.24 6 14 C5.67 14 5.34 14 5 14 C4.67 10.04 4.34 6.08 4 2 C2.26043342 3.73956658 2.62809614 6.1936622 2.4375 8.5625 C2.35371094 9.57441406 2.26992187 10.58632812 2.18359375 11.62890625 C2.12300781 12.41136719 2.06242188 13.19382813 2 14 C1.67 14 1.34 14 1 14 C0.67 9.38 0.34 4.76 0 0 Z " fill="#443D6F" transform="translate(173,147)"/>
<path d="M0 0 C-0.33 2.97 -0.66 5.94 -1 9 C-1.99 9 -2.98 9 -4 9 C-4 7.02 -4 5.04 -4 3 C-5.32 3.33 -6.64 3.66 -8 4 C-8 3.34 -8 2.68 -8 2 C-4.77208445 -0.1519437 -3.71599191 -0.20086443 0 0 Z " fill="#2C2A6F" transform="translate(201,152)"/>
<path d="M0 0 C4.82029598 3.85623679 4.82029598 3.85623679 5.33203125 7.11328125 C5.3145776 9.07856214 5.16596091 11.04166127 5 13 C2.53686261 11.17251097 1.16571382 9.77023784 0.51171875 6.73046875 C0.27481707 4.48520654 0.09638651 2.25544422 0 0 Z " fill="#E6EEF3" transform="translate(88,111)"/>
<path d="M0 0 C1.53674273 2.99004241 2.90306293 6.01823885 4.1875 9.125 C4.55230469 9.99382812 4.91710937 10.86265625 5.29296875 11.7578125 C6 14 6 14 5 16 C3.68 15.34 2.36 14.68 1 14 C1 12.02 1 10.04 1 8 C0.34 8 -0.32 8 -1 8 C-0.67 5.36 -0.34 2.72 0 0 Z " fill="#E1C320" transform="translate(68,96)"/>
<path d="M0 0 C0.66 0.66 1.32 1.32 2 2 C1.9765625 4.1640625 1.9765625 4.1640625 1.625 6.625 C1.51414062 7.44226563 1.40328125 8.25953125 1.2890625 9.1015625 C1.19367187 9.72804687 1.09828125 10.35453125 1 11 C2.98 11 4.96 11 7 11 C6.67 11.66 6.34 12.32 6 13 C4.906875 12.79375 3.81375 12.5875 2.6875 12.375 C-1.0838401 11.59653475 -1.0838401 11.59653475 -4 14 C-4.33 12.68 -4.66 11.36 -5 10 C-3.35 10 -1.7 10 0 10 C0 6.7 0 3.4 0 0 Z " fill="#DEBC19" transform="translate(58,153)"/>
<path d="M0 0 C2 3 2 3 1.625 6.1875 C1.41875 7.115625 1.2125 8.04375 1 9 C-0.65 9.33 -2.3 9.66 -4 10 C-4 5.75354935 -2.18249194 3.61475228 0 0 Z " fill="#EDC511" transform="translate(155,109)"/>
<path d="M0 0 C0.66 0 1.32 0 2 0 C2 2.31 2 4.62 2 7 C3.65 7 5.3 7 7 7 C7.33 6.01 7.66 5.02 8 4 C8 5.32 8 6.64 8 8 C6.35 8 4.7 8 3 8 C3 8.66 3 9.32 3 10 C2.01 10 1.02 10 0 10 C0 9.34 0 8.68 0 8 C-1.32 7.67 -2.64 7.34 -4 7 C-2.35 7 -0.7 7 1 7 C0.67 4.69 0.34 2.38 0 0 Z " fill="#CBA628" transform="translate(151,156)"/>
<path d="M0 0 C0.66 0 1.32 0 2 0 C2 1.32 2 2.64 2 4 C1.34 4 0.68 4 0 4 C-0.33 4.99 -0.66 5.98 -1 7 C-3.3431213 6.74438677 -5.67843403 6.40729228 -8 6 C-8.33 5.34 -8.66 4.68 -9 4 C-7.88625 3.71125 -6.7725 3.4225 -5.625 3.125 C-1.99708908 2.30758671 -1.99708908 2.30758671 0 0 Z " fill="#EECA0A" transform="translate(90,160)"/>
<path d="M0 0 C0.66 0 1.32 0 2 0 C2.33 2.31 2.66 4.62 3 7 C3.99 7.33 4.98 7.66 6 8 C5.67 8.99 5.34 9.98 5 11 C3.68 10.67 2.36 10.34 1 10 C0.22157062 6.59437148 -0.09978121 3.49234244 0 0 Z " fill="#EBC50B" transform="translate(179,156)"/>
<path d="M0 0 C0.66 0 1.32 0 2 0 C2 2.64 2 5.28 2 8 C3.65 8 5.3 8 7 8 C7 8.33 7 8.66 7 9 C5.35 9 3.7 9 2 9 C1.67 9.66 1.34 10.32 1 11 C-1.31 10.34 -3.62 9.68 -6 9 C-6 8.67 -6 8.34 -6 8 C-4.02 8 -2.04 8 0 8 C0 5.36 0 2.72 0 0 Z " fill="#BD9E30" transform="translate(43,155)"/>
<path d="M0 0 C0.33 0 0.66 0 1 0 C1.0825 0.763125 1.165 1.52625 1.25 2.3125 C2.14615794 5.52373261 3.21611025 6.29374499 6 8 C2.04 9.98 2.04 9.98 -2 12 C-1.67 10.68 -1.34 9.36 -1 8 C-0.79104637 6.58633842 -0.60309594 5.16939377 -0.4375 3.75 C-0.293125 2.5125 -0.14875 1.275 0 0 Z " fill="#2A62AC" transform="translate(133,120)"/>
<path d="M0 0 C2.20914 3.31371 2.22481553 4.3446021 2.125 8.1875 C2.10695312 9.08855469 2.08890625 9.98960937 2.0703125 10.91796875 C2.03550781 11.94857422 2.03550781 11.94857422 2 13 C1.34 13 0.68 13 0 13 C-2.21538462 5.73846154 -2.21538462 5.73846154 -1.125 2 C-0.75375 1.34 -0.3825 0.68 0 0 Z " fill="#EFCC0D" transform="translate(172,147)"/>
<path d="M0 0 C-0.33 1.65 -0.66 3.3 -1 5 C-3.31 4.67 -5.62 4.34 -8 4 C-7.67 3.01 -7.34 2.02 -7 1 C-4.53721199 -0.231394 -2.7204945 -0.07159196 0 0 Z " fill="#464664" transform="translate(87,152)"/>
<path d="M0 0 C0.99 0.33 1.98 0.66 3 1 C3 1.33 3 1.66 3 2 C4.65 2.33 6.3 2.66 8 3 C5.49751135 4.66832577 3.58850813 5.62381674 0.8125 6.625 C0.09707031 6.88539062 -0.61835937 7.14578125 -1.35546875 7.4140625 C-1.89816406 7.60742188 -2.44085938 7.80078125 -3 8 C-2.625 6.0625 -2.625 6.0625 -2 4 C-1.34 3.67 -0.68 3.34 0 3 C0 2.01 0 1.02 0 0 Z " fill="#F9CA10" transform="translate(96,41)"/>
<path d="M0 0 C2.31 0 4.62 0 7 0 C7 0.33 7 0.66 7 1 C5.02 1 3.04 1 1 1 C1 1.66 1 2.32 1 3 C2.98 2.67 4.96 2.34 7 2 C6.67 2.99 6.34 3.98 6 5 C4.02 5.33 2.04 5.66 0 6 C0 4.02 0 2.04 0 0 Z " fill="#2C2C71" transform="translate(82,158)"/>
<path d="M0 0 C0.928125 0.20625 1.85625 0.4125 2.8125 0.625 C3.1425 1.615 3.4725 2.605 3.8125 3.625 C2.4925 3.955 1.1725 4.285 -0.1875 4.625 C-0.5175 3.965 -0.8475 3.305 -1.1875 2.625 C-1.8475 2.625 -2.5075 2.625 -3.1875 2.625 C-3.8475 3.285 -4.5075 3.945 -5.1875 4.625 C-5.8475 4.295 -6.5075 3.965 -7.1875 3.625 C-5.42888918 0.10777837 -3.79750143 -0.44676487 0 0 Z " fill="#5694CB" transform="translate(97.1875,88.375)"/>
<path d="M0 0 C1.5 1.375 1.5 1.375 3 3 C3 3.66 3 4.32 3 5 C2.34 5 1.68 5 1 5 C0.67 5.99 0.34 6.98 0 8 C-1.5 6.75 -1.5 6.75 -3 5 C-3 3.68 -3 2.36 -3 1 C-2.01 0.67 -1.02 0.34 0 0 Z " fill="#F3CB13" transform="translate(144,48)"/>
<path d="M0 0 C0.99 0 1.98 0 3 0 C3 2.97 3 5.94 3 9 C2.01 9 1.02 9 0 9 C0 6.03 0 3.06 0 0 Z " fill="#F4CC08" transform="translate(28,151)"/>
<path d="M0 0 C0.33 0 0.66 0 1 0 C1.21133202 7.04440079 1.07965362 13.24112575 -1 20 C-1.33 20 -1.66 20 -2 20 C-2 16.7 -2 13.4 -2 10 C-1.34 10 -0.68 10 0 10 C0 6.7 0 3.4 0 0 Z " fill="#5C8495" transform="translate(159,84)"/>
<path d="M0 0 C3 1 3 1 4 2 C6.05396726 1.59070014 6.05396726 1.59070014 8 1 C8 1.99 8 2.98 8 4 C1.375 5 1.375 5 -2 5 C-1.34 3.35 -0.68 1.7 0 0 Z " fill="#91D4F6" transform="translate(88,52)"/>
<path d="M0 0 C0.66 0 1.32 0 2 0 C4.09230769 4.43076923 4.09230769 4.43076923 3.625 7.3125 C3.41875 7.869375 3.2125 8.42625 3 9 C3 8.34 3 7.68 3 7 C2.34 7 1.68 7 1 7 C0.67 7.99 0.34 8.98 0 10 C0 6.7 0 3.4 0 0 Z " fill="#CDAF2A" transform="translate(34,150)"/>
<path d="M0 0 C1.98 0 3.96 0 6 0 C5.01 0.495 5.01 0.495 4 1 C4.33 1.99 4.66 2.98 5 4 C4.34 4 3.68 4 3 4 C2.67 6.97 2.34 9.94 2 13 C1.67 13 1.34 13 1 13 C0.67 8.71 0.34 4.42 0 0 Z " fill="#605861" transform="translate(159,152)"/>
<path d="M0 0 C2.78637633 4.1795645 1.79562512 6.14668677 1 11 C0.01 10.34 -0.98 9.68 -2 9 C-2.1875 5.375 -2.1875 5.375 -2 2 C-1.34 2 -0.68 2 0 2 C0 1.34 0 0.68 0 0 Z " fill="#BEA634" transform="translate(110,152)"/>
<path d="M0 0 C0.99 0.33 1.98 0.66 3 1 C2.34 2.65 1.68 4.3 1 6 C0.01 6 -0.98 6 -2 6 C-2.33 4.68 -2.66 3.36 -3 2 C-2.01 1.34 -1.02 0.68 0 0 Z " fill="#295FAF" transform="translate(147,112)"/>
<path d="M0 0 C0.33 0.66 0.66 1.32 1 2 C2.98 1.67 4.96 1.34 7 1 C6.34 2.32 5.68 3.64 5 5 C2.69 4.67 0.38 4.34 -2 4 C-1.34 3.67 -0.68 3.34 0 3 C0 2.01 0 1.02 0 0 Z " fill="#2A2B71" transform="translate(184,159)"/>
<path d="M0 0 C0.598125 0.20625 1.19625 0.4125 1.8125 0.625 C1.8125 2.275 1.8125 3.925 1.8125 5.625 C0.4925 5.955 -0.8275 6.285 -2.1875 6.625 C-2.5175 5.635 -2.8475 4.645 -3.1875 3.625 C-3.8475 2.965 -4.5075 2.305 -5.1875 1.625 C-2.1875 -0.375 -2.1875 -0.375 0 0 Z " fill="#447CBD" transform="translate(102.1875,103.375)"/>
<path d="M0 0 C0.99 0.99 1.98 1.98 3 3 C2.01 4.485 2.01 4.485 1 6 C-0.32 6 -1.64 6 -3 6 C-3 4.68 -3 3.36 -3 2 C-2.01 1.34 -1.02 0.68 0 0 Z " fill="#2B2E77" transform="translate(93,162)"/>
<path d="M0 0 C0.66 0 1.32 0 2 0 C2.33 2.97 2.66 5.94 3 9 C1.35 9 -0.3 9 -2 9 C-2 7.02 -2 5.04 -2 3 C-1.34 3.66 -0.68 4.32 0 5 C0 3.35 0 1.7 0 0 Z " fill="#0F157E" transform="translate(75,154)"/>
<path d="M0 0 C0.66 0 1.32 0 2 0 C2.33 1.98 2.66 3.96 3 6 C1.68 6.33 0.36 6.66 -1 7 C-0.67 6.01 -0.34 5.02 0 4 C-1.98 4.33 -3.96 4.66 -6 5 C-6 4.34 -6 3.68 -6 3 C-4.02 3 -2.04 3 0 3 C0 2.01 0 1.02 0 0 Z " fill="#CEB123" transform="translate(191,156)"/>
<path d="M0 0 C0.99 0.33 1.98 0.66 3 1 C3.33 2.98 3.66 4.96 4 7 C2.35 7 0.7 7 -1 7 C-0.67 4.69 -0.34 2.38 0 0 Z " fill="#0F1B83" transform="translate(141,156)"/>
<path d="M0 0 C0.99 0 1.98 0 3 0 C2.67 1.98 2.34 3.96 2 6 C1.67 5.34 1.34 4.68 1 4 C0.34 4 -0.32 4 -1 4 C-0.67 6.31 -0.34 8.62 0 11 C-0.66 11 -1.32 11 -2 11 C-2 8.03 -2 5.06 -2 2 C-1.34 2 -0.68 2 0 2 C0 1.34 0 0.68 0 0 Z " fill="#11197E" transform="translate(163,153)"/>
<path d="M0 0 C0.99 0.495 0.99 0.495 2 1 C2.90949326 5.29942266 3.15926382 8.74936599 2 13 C0.21590198 9.93753253 -0.22880021 7.77920727 -0.125 4.25 C-0.10695313 3.45078125 -0.08890625 2.6515625 -0.0703125 1.828125 C-0.04710938 1.22484375 -0.02390625 0.6215625 0 0 Z " fill="#5B92CE" transform="translate(69,91)"/>
<path d="M0 0 C0.99 0.33 1.98 0.66 3 1 C3.125 6.75 3.125 6.75 2 9 C1.34 9 0.68 9 0 9 C0 7.68 0 6.36 0 5 C-0.66 4.34 -1.32 3.68 -2 3 C-1.34 2.01 -0.68 1.02 0 0 Z " fill="#4D8BC7" transform="translate(141,82)"/>
<path d="M0 0 C3.77300358 1.0197307 4.80206144 1.65872662 6.8125 5.125 C7.204375 6.07375 7.59625 7.0225 8 8 C6.68 8 5.36 8 4 8 C3.34 6.02 2.68 4.04 2 2 C1.34 2 0.68 2 0 2 C0 1.34 0 0.68 0 0 Z " fill="#EECB10" transform="translate(152,64)"/>
<path d="M0 0 C0.66 0.66 1.32 1.32 2 2 C2.99 1.34 3.98 0.68 5 0 C3.375 5.75 3.375 5.75 0 8 C-1.125 2.25 -1.125 2.25 0 0 Z " fill="#69A6D5" transform="translate(137,65)"/>
<path d="M0 0 C0.33 0.99 0.66 1.98 1 3 C0.34 3 -0.32 3 -1 3 C-1.33 3.66 -1.66 4.32 -2 5 C-4.34613181 6.53712084 -5.44563145 7.09239476 -8.25 6.625 C-8.8275 6.41875 -9.405 6.2125 -10 6 C-10 5.34 -10 4.68 -10 4 C-6.7 3.34 -3.4 2.68 0 2 C0 1.34 0 0.68 0 0 Z " fill="#F6CC09" transform="translate(138,161)"/>
<path d="M0 0 C2.97 0.33 5.94 0.66 9 1 C8.67 1.66 8.34 2.32 8 3 C5.71484375 3.4140625 5.71484375 3.4140625 2.9375 3.625 C2.01839844 3.69976562 1.09929687 3.77453125 0.15234375 3.8515625 C-0.55792969 3.90054688 -1.26820312 3.94953125 -2 4 C-1.34 2.68 -0.68 1.36 0 0 Z " fill="#DFBE13" transform="translate(108,162)"/>
<path d="M0 0 C0.33 0.66 0.66 1.32 1 2 C1.66 2 2.32 2 3 2 C2.125 5.875 2.125 5.875 1 7 C-0.99958364 7.04080783 -3.00045254 7.04254356 -5 7 C-4.67 6.01 -4.34 5.02 -4 4 C-1.9375 3.3125 -1.9375 3.3125 0 3 C0 2.01 0 1.02 0 0 Z " fill="#242772" transform="translate(31,157)"/>
<path d="M0 0 C0.66 0 1.32 0 2 0 C2 2.97 2 5.94 2 9 C1.01 8.67 0.02 8.34 -1 8 C-1.04241723 5.66705225 -1.04092937 3.33297433 -1 1 C-0.67 0.67 -0.34 0.34 0 0 Z " fill="#131E82" transform="translate(129,153)"/>
<path d="M0 0 C2.64 0 5.28 0 8 0 C8 1.32 8 2.64 8 4 C6.35 4.33 4.7 4.66 3 5 C3.33 3.68 3.66 2.36 4 1 C2.68 0.67 1.36 0.34 0 0 Z " fill="#2E3070" transform="translate(111,152)"/>
<path d="M0 0 C2.475 0.495 2.475 0.495 5 1 C4.67 1.66 4.34 2.32 4 3 C3.960008 4.99960012 3.95653201 7.00047242 4 9 C0 4.5 0 4.5 0 0 Z " fill="#272C79" transform="translate(72,152)"/>
<path d="M0 0 C1.65 0 3.3 0 5 0 C0.375 4.875 0.375 4.875 -3 6 C-3 5.34 -3 4.68 -3 4 C-3.66 3.67 -4.32 3.34 -5 3 C-4.01 2.34 -3.02 1.68 -2 1 C-2 1.66 -2 2.32 -2 3 C-1.34 3 -0.68 3 0 3 C0 2.01 0 1.02 0 0 Z " fill="#F2CE13" transform="translate(85,50)"/>
<path d="M0 0 C2.31 0.33 4.62 0.66 7 1 C6.360625 1.20625 5.72125 1.4125 5.0625 1.625 C2.65074923 2.89538209 2.65074923 2.89538209 2.25 6.125 C2.1675 7.07375 2.085 8.0225 2 9 C1.34 8.67 0.68 8.34 0 8 C0 5.36 0 2.72 0 0 Z " fill="#3B3C6C" transform="translate(37,152)"/>
<path d="M0 0 C2.79872437 2.52788007 4.45773019 4.20411134 5 8 C4.34 8 3.68 8 3 8 C2.67 7.34 2.34 6.68 2 6 C1.34 6.66 0.68 7.32 0 8 C-1.125 2.25 -1.125 2.25 0 0 Z " fill="#5891D9" transform="translate(152,72)"/>
<path d="M0 0 C1.65 0 3.3 0 5 0 C5 0.66 5 1.32 5 2 C5.99 2.66 6.98 3.32 8 4 C4.7 3.67 1.4 3.34 -2 3 C-1.34 2.67 -0.68 2.34 0 2 C0 1.34 0 0.68 0 0 Z " fill="#94D7FD" transform="translate(110,44)"/>
<path d="M0 0 C0.99 0 1.98 0 3 0 C3 0.66 3 1.32 3 2 C3.66 2.33 4.32 2.66 5 3 C4.34 3 3.68 3 3 3 C3 3.66 3 4.32 3 5 C0.03 4.505 0.03 4.505 -3 4 C-2.67 3.34 -2.34 2.68 -2 2 C-1.34 2 -0.68 2 0 2 C0 1.34 0 0.68 0 0 Z " fill="#F0CD1C" transform="translate(125,41)"/>
<path d="M0 0 C1.32 0 2.64 0 4 0 C4.33 1.98 4.66 3.96 5 6 C3.35 6 1.7 6 0 6 C0 4.02 0 2.04 0 0 Z " fill="#0A137B" transform="translate(147,157)"/>
<path d="M0 0 C0.66 0.33 1.32 0.66 2 1 C2 2.32 2 3.64 2 5 C-0.31 5.33 -2.62 5.66 -5 6 C-3.625 4 -3.625 4 -2 2 C-1.34 2 -0.68 2 0 2 C0 1.34 0 0.68 0 0 Z " fill="#F1C90E" transform="translate(99,162)"/>
<path d="M0 0 C0.66 0.33 1.32 0.66 2 1 C1.67 2.65 1.34 4.3 1 6 C-1.31 6.33 -3.62 6.66 -6 7 C-4.03243548 6.96877057 -4.03243548 6.96877057 -2 6 C-0.6954344 3.00384054 -0.6954344 3.00384054 0 0 Z " fill="#323073" transform="translate(107,157)"/>
<path d="M0 0 C0.66 0.33 1.32 0.66 2 1 C2 3.31 2 5.62 2 8 C1.34 8 0.68 8 0 8 C-0.38063221 5.6739143 -0.71269945 3.33944736 -1 1 C-0.67 0.67 -0.34 0.34 0 0 Z " fill="#B09838" transform="translate(71,155)"/>
<path d="M0 0 C2.31 0.33 4.62 0.66 7 1 C7 1.66 7 2.32 7 3 C6.360625 3.12375 5.72125 3.2475 5.0625 3.375 C4.381875 3.58125 3.70125 3.7875 3 4 C2.67 4.66 2.34 5.32 2 6 C1.34 4.02 0.68 2.04 0 0 Z " fill="#1A1E76" transform="translate(66,152)"/>
<path d="M0 0 C2 2 2 2 2 5 C3.65 4.67 5.3 4.34 7 4 C4.4345406 6.5654594 2.52313332 6.54046087 -1 7 C-0.67 4.69 -0.34 2.38 0 0 Z " fill="#5D94C3" transform="translate(121,78)"/>
<path d="M0 0 C1.125 1.75 1.125 1.75 2 4 C1.125 6.25 1.125 6.25 0 8 C-0.66 7.67 -1.32 7.34 -2 7 C-1.67 6.34 -1.34 5.68 -1 5 C-1.66 5 -2.32 5 -3 5 C-3 3 -3 3 -1.5 1.375 C-1.005 0.92125 -0.51 0.4675 0 0 Z " fill="#81CBF0" transform="translate(79,61)"/>
<path d="M0 0 C0.33 0 0.66 0 1 0 C1.12375 0.78375 1.2475 1.5675 1.375 2.375 C1.79117993 5.14057822 1.79117993 5.14057822 4 7 C3.625 9.125 3.625 9.125 3 11 C1 10 1 10 0 7 C-0.03954234 4.66700175 -0.04401732 2.33291811 0 0 Z " fill="#F1FAFD" transform="translate(89,105)"/>
<path d="M0 0 C0.99 0.99 1.98 1.98 3 3 C3.66 2.34 4.32 1.68 5 1 C4.67 2.98 4.34 4.96 4 7 C3.01 7 2.02 7 1 7 C0.67 4.69 0.34 2.38 0 0 Z " fill="#1F61AA" transform="translate(152,101)"/>
<path d="M0 0 C0.33 0.66 0.66 1.32 1 2 C2.32 2 3.64 2 5 2 C5 2.66 5 3.32 5 4 C4.34 4 3.68 4 3 4 C2.67 5.32 2.34 6.64 2 8 C0.23537317 4.91190305 0 3.76687864 0 0 Z " fill="#4A83C1" transform="translate(71,102)"/>
<path d="M0 0 C1.9375 0.3125 1.9375 0.3125 4 1 C4.33 1.99 4.66 2.98 5 4 C2.33333333 4 -0.33333333 4 -3 4 C-2.01 2.68 -1.02 1.36 0 0 Z " fill="#99C9E4" transform="translate(79,59)"/>
<path d="M0 0 C0.66 0 1.32 0 2 0 C2 1.32 2 2.64 2 4 C2.99 4 3.98 4 5 4 C5 4.66 5 5.32 5 6 C3.35 6 1.7 6 0 6 C0 4.02 0 2.04 0 0 Z " fill="#0A1888" transform="translate(45,157)"/>
<path d="M0 0 C1.65 0 3.3 0 5 0 C4.67 1.65 4.34 3.3 4 5 C3.01 5 2.02 5 1 5 C0.67 3.35 0.34 1.7 0 0 Z " fill="#595A59" transform="translate(130,152)"/>
<path d="M0 0 C-0.33 1.65 -0.66 3.3 -1 5 C-1.99 5 -2.98 5 -4 5 C-4 4.01 -4 3.02 -4 2 C-4.99 1.67 -5.98 1.34 -7 1 C-4.53721199 -0.231394 -2.7204945 -0.07159196 0 0 Z " fill="#675E58" transform="translate(189,152)"/>
<path d="M0 0 C0.99 0.33 1.98 0.66 3 1 C0.03 3.475 0.03 3.475 -3 6 C-3.99 5.34 -4.98 4.68 -6 4 C-3.1875 1.9375 -3.1875 1.9375 0 0 Z " fill="#396E92" transform="translate(143,122)"/>
<path d="M0 0 C0 2.31 0 4.62 0 7 C-1.37562854 5.71034824 -2.70766393 4.37310707 -4 3 C-4 2.34 -4 1.68 -4 1 C-2 0 -2 0 0 0 Z " fill="#3673B0" transform="translate(80,113)"/>
<path d="M0 0 C0.33 0 0.66 0 1 0 C1 1.65 1 3.3 1 5 C1.66 5 2.32 5 3 5 C3 6.98 3 8.96 3 11 C1.5 10 1.5 10 0 8 C-0.27345479 5.28153765 -0.13491285 2.74322801 0 0 Z " fill="#64A3DA" transform="translate(69,83)"/>
<path d="M0 0 C0.99 0.33 1.98 0.66 3 1 C3 2.65 3 4.3 3 6 C2.01 6 1.02 6 0 6 C0 4.02 0 2.04 0 0 Z " fill="#C4AC27" transform="translate(197,155)"/>
<path d="M0 0 C0.33 1.32 0.66 2.64 1 4 C0.01 4.33 -0.98 4.66 -2 5 C-2.66 4.67 -3.32 4.34 -4 4 C-4 3.01 -4 2.02 -4 1 C-2 0 -2 0 0 0 Z " fill="#E8C410" transform="translate(136,130)"/>
</svg>
