
<svg version="1.1" xmlns="http://www.w3.org/2000/svg" width="700" height="500" viewBox="0 0 700 500" preserveAspectRatio="xMidYMid meet">
<path d="M0 0 C8.91 0 17.82 0 27 0 C27.33 14.19 27.66 28.38 28 43 C31.63 37.06 35.26 31.12 39 25 C41.50860348 21.01177834 44.0223416 17.0302332 46.5625 13.0625 C47.16384766 12.11955078 47.76519531 11.17660156 48.38476562 10.20507812 C50.5667211 6.78676266 52.75044727 3.3743291 55 0 C64.57 0 74.14 0 84 0 C80.10207751 7.14619123 76.27778038 13.81911218 71.69140625 20.46484375 C70.52104272 22.18785113 69.35113333 23.91116705 68.18164062 25.63476562 C66.360795 28.3068065 64.53604723 30.97595118 62.70336914 33.63989258 C60.91730598 36.24075089 59.1470933 38.85181221 57.37890625 41.46484375 C56.82384903 42.2627684 56.26879181 43.06069305 55.69691467 43.88279724 C55.19566574 44.62779984 54.69441681 45.37280243 54.17797852 46.14038086 C53.73196793 46.79115097 53.28595734 47.44192108 52.82643127 48.1124115 C51.81017173 49.98669013 51.81017173 49.98669013 52.29112244 52.12147522 C53.12814317 54.33957927 54.22176314 55.99462118 55.625 57.90625 C56.16769531 58.65132813 56.71039063 59.39640625 57.26953125 60.1640625 C57.84058594 60.93492187 58.41164063 61.70578125 59 62.5 C59.54011719 63.23992187 60.08023438 63.97984375 60.63671875 64.7421875 C65.36721455 71.20389038 70.18730542 77.5994436 75 84 C81.25016356 69.11315543 87.3865814 54.19315066 93.1875 39.125 C93.43509064 38.4819693 93.68268127 37.8389386 93.93777466 37.17642212 C95.15812063 34.00498021 96.37637672 30.83274023 97.59375 27.66015625 C99.77753518 21.9762487 101.97805667 16.29897634 104.1875 10.625 C104.56221436 9.65578613 104.93692871 8.68657227 105.32299805 7.68798828 C105.83407104 6.37677002 105.83407104 6.37677002 106.35546875 5.0390625 C106.65090576 4.27803223 106.94634277 3.51700195 107.25073242 2.73291016 C108 1 108 1 109 0 C110.78071246 -0.08726223 112.5648314 -0.10699041 114.34765625 -0.09765625 C115.42724609 -0.09443359 116.50683594 -0.09121094 117.61914062 -0.08789062 C119.32360352 -0.07532227 119.32360352 -0.07532227 121.0625 -0.0625 C122.77276367 -0.05573242 122.77276367 -0.05573242 124.51757812 -0.04882812 C127.34510351 -0.03699747 130.1725264 -0.0205141 133 0 C144.07129108 28.30607429 155.05855748 56.64342814 166 85 C166.495 42.925 166.495 42.925 167 0 C174.92 0 182.84 0 191 0 C192.52419187 2.43870699 194.04837307 4.87742064 195.57250977 7.31616211 C196.91266669 9.46031454 198.25300222 11.60435534 199.59350586 13.74829102 C203.10814479 19.36999225 206.61996448 24.99339664 210.125 30.62109375 C210.78556396 31.68070313 211.44612793 32.7403125 212.12670898 33.83203125 C213.38514871 35.85086758 214.64253171 37.87036313 215.89868164 39.890625 C216.47996826 40.82261719 217.06125488 41.75460938 217.66015625 42.71484375 C218.16168213 43.52042725 218.66320801 44.32601074 219.17993164 45.15600586 C221.73005932 49.14077277 224.37576276 53.06364415 227 57 C227.33 38.19 227.66 19.38 228 0 C236.58 0 245.16 0 254 0 C254 33.99 254 67.98 254 103 C246.08 103 238.16 103 230 103 C221.55890829 90.06310944 213.22603928 77.07507297 205 64 C201.04 57.73 197.08 51.46 193 45 C193 64.14 193 83.28 193 103 C176.17 103 159.34 103 142 103 C138 91 138 91 138 88 C120.675 88.495 120.675 88.495 103 89 C101.68 93.29 100.36 97.58 99 102 C98.67 102.33 98.34 102.66 98 103 C96.61839885 103.0927833 95.23211962 103.11747043 93.84741211 103.11352539 C92.96657455 103.11344986 92.085737 103.11337433 91.1782074 103.11329651 C90.22092239 103.10813522 89.26363739 103.10297394 88.27734375 103.09765625 C87.30213272 103.0962413 86.32692169 103.09482635 85.32215881 103.09336853 C82.19390857 103.08775133 79.06572877 103.07519593 75.9375 103.0625 C73.82226666 103.05748722 71.70703219 103.05292393 69.59179688 103.04882812 C64.39450704 103.03777631 59.19725855 103.02102146 54 103 C45.30347297 89.35203821 36.63380308 75.68773659 28 62 C27.67 75.53 27.34 89.06 27 103 C18.09 103 9.18 103 0 103 C0 69.01 0 35.02 0 0 Z M119 34 C117.71096065 38.05453158 116.42944627 42.11134192 115.15478516 46.17041016 C114.72031273 47.55028939 114.28380777 48.92953039 113.84521484 50.30810547 C113.21433803 52.29229173 112.5908597 54.2786751 111.96875 56.265625 C111.59169922 57.45961914 111.21464844 58.65361328 110.82617188 59.88378906 C109.8291552 63.10709251 109.8291552 63.10709251 110 67 C116.6 67 123.2 67 130 67 C128.29447032 59.31045261 128.29447032 59.31045261 126.0546875 51.87109375 C125.70019531 50.81728516 125.34570312 49.76347656 124.98046875 48.67773438 C124.61566406 47.60845703 124.25085938 46.53917969 123.875 45.4375 C123.31619141 43.78137695 123.31619141 43.78137695 122.74609375 42.09179688 C121.83484757 39.39310627 120.91940476 36.69591967 120 34 C119.67 34 119.34 34 119 34 Z " fill="#133255" transform="translate(328,198)" />
<path d="M0 0 C8.91 0 17.82 0 27 0 C30.5515568 13.7267264 33.46227121 27.54231792 36.29907227 41.43188477 C36.88771526 44.30809588 37.48079472 47.18336595 38.07421875 50.05859375 C38.25337326 50.9438121 38.43252777 51.82903046 38.61711121 52.74107361 C39.12258518 56.69287578 39.12258518 56.69287578 41 60 C41.16064438 59.27781281 41.32128876 58.55562561 41.48680115 57.81155396 C42.99963015 51.0127303 44.51497288 44.21447135 46.03315639 37.41684151 C46.81361893 33.92192058 47.59310055 30.42678685 48.37036133 26.93115234 C49.26354081 22.91438882 50.16094837 18.89858039 51.05859375 14.8828125 C51.3377916 13.62445587 51.61698944 12.36609924 51.90464783 11.0696106 C52.16484207 9.90855804 52.42503632 8.74750549 52.69311523 7.55126953 C52.92183823 6.52534698 53.15056122 5.49942444 53.38621521 4.44241333 C54 2 54 2 55 0 C61.93 0 68.86 0 76 0 C79.74171209 13.55389415 82.81760695 27.22696821 85.87182617 40.94970703 C86.53002661 43.90205104 87.19255715 46.85339839 87.85546875 49.8046875 C88.15701118 51.17003128 88.15701118 51.17003128 88.46464539 52.56295776 C88.65186661 53.39537994 88.83908783 54.22780212 89.03198242 55.08544922 C89.19534592 55.81964081 89.35870941 56.5538324 89.52702332 57.31027222 C89.85674354 59.02018741 89.85674354 59.02018741 91 60 C91.22217445 58.93884224 91.22217445 58.93884224 91.44883728 57.85624695 C92.84479337 51.19039522 94.24244545 44.52490113 95.64200497 37.85980511 C96.36147663 34.43318098 97.08029108 31.00642172 97.79760742 27.5793457 C98.62223368 23.63972535 99.44971118 19.70070865 100.27734375 15.76171875 C100.66332985 13.9147364 100.66332985 13.9147364 101.05711365 12.03044128 C101.29728714 10.88948502 101.53746063 9.74852875 101.78491211 8.57299805 C101.99587021 7.567061 102.20682831 6.56112396 102.42417908 5.52470398 C103 3 103 3 104 0 C112.91 0 121.82 0 131 0 C130.30321768 5.57425858 129.46080024 10.64693353 128.0222168 16.01391602 C127.82367096 16.77127548 127.62512512 17.52863495 127.42056274 18.3089447 C126.7683383 20.79191586 126.10884391 23.27289191 125.44921875 25.75390625 C124.98896103 27.50004063 124.5291555 29.24629425 124.06977844 30.99266052 C122.86098827 35.58297369 121.64598882 40.17162097 120.4296875 44.75994873 C119.20515255 49.3838773 117.98666281 54.00939775 116.76757812 58.63476562 C112.86628451 73.42885368 108.94670252 88.21796055 105 103 C96.75 103 88.5 103 80 103 C79.58113525 101.21795166 79.16227051 99.43590332 78.73071289 97.59985352 C77.34868073 91.72382441 75.96333056 85.84858551 74.57569218 79.97387791 C73.73417569 76.41068556 72.89401053 72.84718566 72.05688477 69.28295898 C71.24954306 65.84576367 70.43871575 62.40940808 69.62542534 58.97361565 C69.31516672 57.66014066 69.00618296 56.34636389 68.69847298 55.03228951 C68.26854661 53.19725489 67.8337372 51.36336636 67.39868164 49.52954102 C67.15219376 48.48363297 66.90570587 47.43772491 66.65174866 46.36012268 C66.22581283 44.06135531 66.22581283 44.06135531 65 43 C60.38 62.8 55.76 82.6 51 103 C42.75 103 34.5 103 26 103 C24.05901139 97.17703416 22.25832825 91.48962584 20.76342773 85.56201172 C20.56137726 84.77214874 20.35932678 83.98228577 20.15115356 83.16848755 C19.49224655 80.58965559 18.83792568 78.0096837 18.18359375 75.4296875 C17.72216311 73.62077925 17.26041148 71.81195286 16.7983551 70.00320435 C15.5879989 65.26217235 14.38139797 60.52019324 13.17578125 55.7779541 C11.24393904 48.18186622 9.3062836 40.58725912 7.36876106 32.99261856 C6.69518802 30.35017217 6.02317437 27.70733315 5.35142517 25.06442261 C4.93670517 23.43600739 4.52195749 21.80759922 4.10717773 20.17919922 C3.92271591 19.451745 3.73825409 18.72429077 3.54820251 17.97479248 C2.71854595 14.72186886 1.8511631 11.51356037 0.86830139 8.30130005 C0 5 0 5 0 0 Z " fill="#133255" transform="translate(3,198)" />
<path d="M0 0 C10.14295241 5.0447138 18.82394924 12.67656702 24.4375 22.5625 C30.09444448 33.8604089 31.68816046 44.43794355 31 57 C29.21145904 68.8860517 24.49271119 78.07295313 16.25390625 86.74609375 C8.41549259 94.58450741 0.07399157 99.81285377 -10.828125 102.4921875 C-22.52463011 104.36478068 -33.99398856 103.54915139 -45 99 C-48.90482639 96.94561363 -52.45307241 94.61810858 -56 92 C-56.94939453 91.35998047 -56.94939453 91.35998047 -57.91796875 90.70703125 C-65.1114018 85.35722406 -69.99490904 76.70177746 -73.4609375 68.57421875 C-77.18280328 57.1314612 -77.37835358 45.26110464 -74.4375 33.625 C-72.28999797 27.01555029 -69.11136714 21.56994528 -65 16 C-64.57332031 15.36707031 -64.14664063 14.73414063 -63.70703125 14.08203125 C-58.35722406 6.8885982 -49.70177746 2.00509096 -41.57421875 -1.4609375 C-27.86494866 -5.92000805 -13.3505745 -5.47341071 0 0 Z M-44.2734375 30.0625 C-47.67291009 33.87729277 -49.40264779 38.20794336 -51 43 C-51.5972333 50.06889255 -51.66775872 56.55544475 -48.32421875 62.9375 C-44.43325955 68.99775504 -40.43128955 73.34964486 -33.796875 76.30859375 C-27.86147286 78.59243327 -22.29673734 78.718049 -16 78 C-10.12250253 76.05931687 -4.79022562 73.27677941 -0.5 68.75 C3.78603695 62.96765429 6.19488248 56.70077345 6.5 49.5 C6.19488248 42.29922655 3.78603695 36.03234571 -0.5 30.25 C-4.79928969 25.71365674 -10.12354686 22.97510242 -16 21 C-27.39608352 19.26003853 -35.934699 22.35498075 -44.2734375 30.0625 Z " fill="#797A65" transform="translate(206,200)" />
<path d="M0 0 C54.95238095 0 54.95238095 0 66.625 6.625 C71.71788298 11.07563889 74.95212342 16.97120605 77.140625 23.296875 C79.06554603 31.5915347 79.36103139 41.48200981 76.4375 49.5625 C72.90809149 56.88321658 67.77069039 61.67057263 61 66 C61.32162109 66.56283691 61.64324219 67.12567383 61.97460938 67.70556641 C62.42642578 68.49624512 62.87824219 69.28692383 63.34375 70.1015625 C64.09543457 71.4167688 64.09543457 71.4167688 64.86230469 72.75854492 C65.95726629 74.67505419 67.05166419 76.59188563 68.14550781 78.5090332 C70.61022288 82.827386 73.07778018 87.14356473 75.578125 91.44140625 C75.95001953 92.08319824 76.32191406 92.72499023 76.70507812 93.38623047 C77.69111529 95.08599267 78.6813627 96.78331048 79.671875 98.48046875 C81 101 81 101 81 103 C71.76 103 62.52 103 53 103 C46.4543197 91.51635036 40.16727773 79.90770223 33.96655273 68.23535156 C33.64581284 67.63313278 33.32507294 67.030914 32.99461365 66.41044617 C32.11089025 64.75102174 31.22921369 63.09050774 30.34765625 61.42993164 C29.2131462 59.12134002 29.2131462 59.12134002 28 58 C27.67 72.85 27.34 87.7 27 103 C18.09 103 9.18 103 0 103 C0 69.01 0 35.02 0 0 Z M27 24 C27 33.57 27 43.14 27 53 C37.49617806 53.24335351 37.49617806 53.24335351 47 50 C49.22922934 47.71503993 50.58789495 45.82421009 52 43 C52.53998915 38.07813166 52.50267128 34.10587682 50.4375 29.5625 C47.29843076 26.26245285 45.43664309 25.20999357 41 24 C36.38 24 31.76 24 27 24 Z " fill="#133255" transform="translate(244,198)" />
<path d="M0 0 C9.24 0 18.48 0 28 0 C36.79664573 9.28534827 36.79664573 9.28534827 39 13.58984375 C41.87284004 18.88853261 45.23093361 23.58526506 48.875 28.375 C50.04069067 29.95452887 51.2047345 31.53527435 52.3671875 33.1171875 C56.86061125 39.1812236 61.45155782 45.17023901 66.03857422 51.16357422 C70.9977992 57.65423658 75.8640422 64.20722828 80.68237305 70.80297852 C83.86709364 75.14918008 87.10133911 79.45007765 90.39453125 83.71484375 C91.49764648 85.14570313 91.49764648 85.14570313 92.62304688 86.60546875 C94.05487629 88.45752285 95.49216606 90.30537166 96.93554688 92.1484375 C97.90524414 93.40333984 97.90524414 93.40333984 98.89453125 94.68359375 C99.75848511 95.79045532 99.75848511 95.79045532 100.63989258 96.91967773 C101.99198554 98.98774166 102.57288482 100.58422565 103 103 C98.91255219 103.34991322 94.83101297 103.60163599 90.73193359 103.76904297 C89.34367072 103.83885827 87.95641588 103.93398804 86.57177734 104.05615234 C81.81581086 104.46478773 77.60846182 104.48894603 73 103 C71.00893887 100.91474675 69.68383313 98.53773747 68.28125 96.03125 C66.76034899 93.37303405 65.2970864 91.048388 63 89 C56.69282302 86.56877084 49.50295838 87.35969045 42.875 87.625 C41.04173257 87.6470407 39.20837706 87.66272119 37.375 87.671875 C32.91227565 87.70788008 28.45955111 87.83006991 24 88 C24.165 88.61875 24.33 89.2375 24.5 89.875 C25.19170982 94.19818636 25 98.62182655 25 103 C16.75 103 8.5 103 0 103 C0 69.01 0 35.02 0 0 Z M24 34 C24 44.89 24 55.78 24 67 C31.59 67 39.18 67 47 67 C45.21746459 62.4931896 45.21746459 62.4931896 42.71484375 58.6875 C42.04835815 57.79526733 42.04835815 57.79526733 41.3684082 56.88500977 C40.8962085 56.26295654 40.42400879 55.64090332 39.9375 55 C38.94905846 53.67687245 37.96210673 52.35263079 36.9765625 51.02734375 C36.4805957 50.3607373 35.98462891 49.69413086 35.47363281 49.00732422 C31.8633329 44.08951674 28.44036055 39.03736742 25 34 C24.67 34 24.34 34 24 34 Z " fill="#133255" transform="translate(593,198)" />
<path d="M0 0 C0 3.3 0 6.6 0 10 C-0.99 10.66 -1.98 11.32 -3 12 C-3.33 10.35 -3.66 8.7 -4 7 C-4.66 7 -5.32 7 -6 7 C-6 5.35 -6 3.7 -6 2 C-1.125 0 -1.125 0 0 0 Z " fill="#85AF25" transform="translate(194,276)" />
</svg>
